<?xml version="1.0" encoding="utf-8" ?>
<svg xmlns="http://www.w3.org/2000/svg" xmlns:xlink="http://www.w3.org/1999/xlink" width="2318" height="2318">
	<path fill="#0E283B" transform="scale(2.26367 2.26367)" d="M0 0L1.06818 0L1022.77 0L1024 0L1024 1022.27L1024 1024L1.08167 1024L0 1024L0 0Z"/>
	<path fill="#9D989C" transform="scale(2.26367 2.26367)" d="M0 0L1.06818 0L0.988292 0.546661C-0.226171 6.24318 0.755672 17.4372 0.788006 23.7693L0.868798 75.9478L0.858246 288.668L0.80928 821.634L0.824409 964.804L0.8451 1004.51C0.843894 1010.58 0.153757 1017.5 1.07054 1023.45L1.08167 1024L0 1024L0 0Z"/>
	<path fill="#9D989C" transform="scale(2.26367 2.26367)" d="M1.06818 0L1022.77 0L1024 0L1024 1022.27L1024 1024L1.08167 1024L1.07054 1023.45C7.76753 1022.97 14.6929 1023.27 21.4133 1023.28L56.2111 1023.34L161.719 1023.33L826.403 1023.31L979.089 1023.26C985.023 1023.25 1019.36 1024.03 1022.51 1023.22C1022.87 1023.13 1023.11 1022.77 1023.41 1022.54C1023.01 1012.22 1023.4 1001.74 1023.42 991.406L1023.48 931.475L1023.48 743.511L1023.48 169.995C1023.48 152.247 1024.43 4.72996 1022.91 0.62244C1002.85 1.32097 982.575 0.690784 962.489 0.672148L847.067 0.639723L480.956 0.677464L163.527 0.659456L56.839 0.651683C38.3017 0.652496 19.4949 1.37572 0.988292 0.546661L1.06818 0Z"/>
	<path fill="#C76F4D" transform="scale(2.26367 2.26367)" d="M63.9428 48.0792C77.1393 47.4236 90.5817 47.9112 103.806 47.9066L179.091 47.901L409.006 47.9956L769.754 48.0437L893.114 48.0023C913.183 47.9891 933.304 47.5889 953.365 47.9192C958.186 47.9986 962.675 48.1229 966.992 50.5798C972.232 53.5615 976.39 59.2529 977.736 65.1207C979.024 70.7374 978.341 77.3832 978.301 83.1375L978.193 109.358L978.174 213.466L978.187 626.008L978.288 856.425L978.232 922.789C978.232 934.371 978.822 946.266 978.05 957.795C977.762 962.092 976.998 966.301 974.486 969.906C971.091 974.776 966.098 977.174 960.426 978.269C948.975 979.139 936.941 978.43 925.423 978.433L856.624 978.451L641.609 978.451L253.785 978.457L124.766 978.423C105.855 978.41 86.8899 978.742 67.984 978.473C63.7794 978.414 60.2495 977.906 56.5435 975.73C51.8735 972.988 48.3085 968.606 46.9819 963.317C45.5057 957.432 46.2135 950.22 46.2016 944.14L46.1572 915.988L46.177 792.026L46.2996 254.535L46.2478 119.999L46.218 85.3105C46.2156 78.5405 45.5741 70.8333 46.9674 64.2064C47.4642 61.8437 48.4 59.558 49.6989 57.5228C53.0083 52.3375 58.0658 49.4269 63.9428 48.0792Z"/>
	<path fill="#0E283B" transform="scale(2.26367 2.26367)" d="M500.688 76.2114C524.571 74.1985 550.576 79.5087 573.211 86.786C579.053 88.664 585.064 93.1747 590.951 94.1902C596.123 95.0822 601.788 94.6341 607.035 94.6219L633.727 94.5481L729.677 94.6027C758.145 94.624 793.953 92.4612 821.349 99.524C845.196 105.672 868.007 118.864 885.372 136.273C906.344 157.299 921.302 183.469 926.547 212.891C928.967 226.464 928.76 240.099 928.805 253.822L928.865 294.706L928.853 435.211L929.092 935.892L520.875 935.877L232.501 935.895C186.347 935.897 140.156 936.298 94.0066 935.75L93.9204 429.473L93.8084 298.698L93.6488 258.18C93.6027 244.473 93.2939 230.958 95.4749 217.36C99.8471 190.1 112.17 165.177 130.425 144.579C149.257 123.328 173.562 107.384 201.039 99.8692C224.522 93.4467 249.099 95.0326 273.195 94.9418L364.5 94.6991L398.448 94.9487C404.508 94.9848 410.715 95.2657 416.761 94.875C425.76 94.2935 434.825 88.8577 443.506 86.2996C462.424 80.7249 481.011 77.4108 500.688 76.2114Z"/>
	<path fill="#ECAA77" transform="scale(2.26367 2.26367)" d="M508.659 323.129C518.095 323.26 527.668 323.129 537.09 322.611C530.26 329.328 525.739 333.742 515.656 333.682L499.428 333.485C494.795 330.46 490.948 326.772 487.139 322.784C494.26 323.349 501.515 323.099 508.659 323.129Z"/>
	<path fill="#55908E" transform="scale(2.26367 2.26367)" d="M573.495 302.818C589.526 298.859 609.434 295.162 624.422 304.238C629.816 307.505 634.77 312.123 637.74 317.747C621.823 312.913 559.871 314.803 542.087 317.774C550.184 309.708 562.646 305.433 573.495 302.818Z"/>
	<path fill="#ECAA77" transform="scale(2.26367 2.26367)" d="M535.361 370.168L535.648 367.079L536.362 368.611C536.574 368.599 536.787 368.586 536.999 368.576C561.259 367.537 604.022 401.787 631.338 407.408C632.396 406.356 633.829 404.511 635.3 404.243C627.9 414.27 613.189 420.647 601.214 422.57C586.496 424.935 571.072 422.268 558.904 413.371C543.776 402.308 538.098 388.134 535.361 370.168Z"/>
	<path fill="#959883" transform="scale(2.26367 2.26367)" d="M535.361 370.168C533.969 360.041 532.476 346.296 538.86 337.522C543.515 331.126 551.142 328.021 558.744 326.94C568.564 325.544 613.291 325.204 622.65 326.898C627.497 327.775 632.131 329.542 636.043 332.597C644.133 338.913 648.179 349.652 649.26 359.581C650.841 374.105 646.85 390.427 637.551 401.866C636.877 402.695 636.177 403.627 635.3 404.243C633.829 404.511 632.396 406.356 631.338 407.408C604.022 401.787 561.259 367.537 536.999 368.576C536.787 368.586 536.574 368.599 536.362 368.611L535.648 367.079L535.361 370.168Z"/>
	<path fill="#FBD7AC" transform="scale(2.26367 2.26367)" d="M585.938 359.382C586.516 359.024 587.101 358.672 587.657 358.28C592.174 355.093 593.396 349.083 594.312 343.977L595.536 344.218C599.198 347.01 603.027 349.485 606.897 351.973C601.108 355.031 592.718 359.952 585.938 359.382Z"/>
	<path fill="#ECAA77" transform="scale(2.26367 2.26367)" d="M554.714 353.844C558.293 357.328 567.084 359.56 572.029 359.537C572.749 359.533 573.41 359.499 574.113 359.369L576.966 360.459C577.444 360.801 577.712 361.018 578.263 361.289C579.809 362.053 582.068 361.746 583.753 361.663C593.919 361.161 601.903 357.865 611.27 354.137C608.092 357.448 604.473 359.709 600.278 361.514C579.924 370.27 568.786 364.997 549.503 357.366C551.185 356.051 552.87 354.919 554.714 353.844Z"/>
	<path fill="#38757F" transform="scale(2.26367 2.26367)" d="M545.139 356.165C543.956 357.242 542.397 358.763 540.863 359.19L540.41 358.508C540.927 355.727 542.97 352.783 544.724 350.571C550.658 343.089 565.981 335.066 575.543 334.085C596.969 331.887 616.586 345.556 632.279 358.361C625.315 355.38 617.9 353.848 611.029 350.889C606.254 348.833 600.652 344.616 595.536 344.218L594.312 343.977C593.396 349.083 592.174 355.093 587.657 358.28C587.101 358.672 586.516 359.024 585.938 359.382C582.873 360.124 580.139 360.527 576.966 360.459L574.113 359.369C573.41 359.499 572.749 359.533 572.029 359.537C567.084 359.56 558.293 357.328 554.714 353.844C552.87 354.919 551.185 356.051 549.503 357.366C549.36 357.413 549.22 357.476 549.072 357.506C547.378 357.849 546.565 356.984 545.139 356.165Z"/>
	<path fill="#55908E" transform="scale(2.26367 2.26367)" d="M545.139 356.165C547.299 353.36 551.474 350.784 554.765 349.48C556.924 348.625 557.62 348.942 559.631 349.832L554.714 353.844C552.87 354.919 551.185 356.051 549.503 357.366C549.36 357.413 549.22 357.476 549.072 357.506C547.378 357.849 546.565 356.984 545.139 356.165Z"/>
	<path fill="#074764" transform="scale(2.26367 2.26367)" d="M586.113 342.181C587.718 342.096 589.557 342.147 591.032 342.832C589.178 342.808 587.368 342.655 585.601 343.308C584.916 344.995 585.585 346.99 585.869 348.786C584.742 351.219 584.064 352.815 581.65 354.167C580.012 353.759 577.572 353.34 576.267 352.23C574.352 350.601 574.749 346.816 574.673 344.524C578.44 343.375 582.188 342.532 586.113 342.181Z"/>
	<path fill="#FFF9F2" transform="scale(2.26367 2.26367)" d="M559.631 349.832C562.612 348.258 565.485 347.039 568.693 346.003C568.259 349.451 567.517 353.172 569.772 356.183C570.853 357.626 572.538 358.558 574.113 359.369C573.41 359.499 572.749 359.533 572.029 359.537C567.084 359.56 558.293 357.328 554.714 353.844L559.631 349.832Z"/>
	<path fill="#C76F4D" transform="scale(2.26367 2.26367)" d="M573.042 188.175C577.991 185.601 582.996 183.095 587.878 180.398C609.149 193.398 625.616 215.758 639.57 235.996C640.615 248.423 640.711 260.988 641.144 273.453C641.364 279.775 640.986 286.723 642.567 292.862C644.942 302.086 651.178 310.525 654.142 319.744C648.954 319.16 642.678 319.225 637.74 317.747C634.77 312.123 629.816 307.505 624.422 304.238C609.434 295.162 589.526 298.859 573.495 302.818C572.121 273.982 572.958 244.772 573.011 215.9C573.022 209.829 574.087 192.948 573.042 188.175Z"/>
	<path fill="#ECAA77" transform="scale(2.26367 2.26367)" d="M573.042 188.175C574.087 192.948 573.022 209.829 573.011 215.9C572.958 244.772 572.121 273.982 573.495 302.818C562.646 305.433 550.184 309.708 542.087 317.774L537.09 322.611C527.668 323.129 518.095 323.26 508.659 323.129L508.93 254.24C508.997 242.547 509.924 230.149 508.928 218.551C517.156 214.407 525.799 210.906 534.161 207.022C547.217 200.96 560.124 194.527 573.042 188.175Z"/>
	<defs>
		<linearGradient id="gradient_0" gradientUnits="userSpaceOnUse" x1="467.86163" y1="345.58417" x2="385.56271" y2="397.20871">
			<stop offset="0" stop-color="#B7A482"/>
			<stop offset="1" stop-color="#FFCFA0"/>
		</linearGradient>
	</defs>
	<path fill="url(#gradient_0)" transform="scale(2.26367 2.26367)" d="M487.283 374.974C485.359 387.241 480.205 398.333 471.396 407.195C460.561 418.095 445.609 423.845 430.333 423.719C416.271 423.602 402.82 418.7 392.905 408.515C380.827 396.107 376.819 380.035 377.02 363.179C377.153 352.092 378.435 340.351 386.98 332.322C390.33 329.174 394.439 326.951 398.927 325.942C408.764 323.729 438.019 325.703 449.675 326.103C461.854 326.689 474.297 326.389 483.138 336.438C488.141 342.125 489.404 349.88 488.857 357.251C488.815 357.81 488.779 357.908 488.671 358.386C488.468 363.738 488.499 369.761 487.283 374.974Z"/>
	<path fill="#FBD7AC" transform="scale(2.26367 2.26367)" d="M424.536 346.005C425.528 348.92 425.241 351.802 426.4 354.813C424.917 353.637 423.432 352.253 421.37 352.661C419.207 353.09 417.578 355.343 416.257 356.917C415.044 356.774 413.971 356.975 413.172 356.005C413.979 353.025 417.468 350.377 419.602 348.199C421.218 347.418 422.894 346.732 424.536 346.005Z"/>
	<path fill="#FFF9F2" transform="scale(2.26367 2.26367)" d="M416.257 356.917C417.578 355.343 419.207 353.09 421.37 352.661C423.432 352.253 424.917 353.637 426.4 354.813C428.717 357.842 430.724 359.264 434.229 360.755C432.34 360.942 430.461 361.104 428.565 361.205C424.783 359.273 420.239 359.093 416.257 356.917Z"/>
	<path fill="#959883" transform="scale(2.26367 2.26367)" d="M384.564 368.982C390.097 356.278 396.359 344.177 409.111 337.312C408.966 337.53 408.826 337.751 408.676 337.966C407.331 339.895 404.756 341.428 402.968 342.967C397.959 347.277 390.179 354.91 389.098 361.766L389.55 362.372C392.906 362.408 397.212 358.944 400.004 357.194C405.619 353.673 410.259 345.958 416.612 344.043L416.793 344.466L417.383 344.56C420.574 344.619 423.812 343.427 427.152 343.421C426.36 344.35 425.643 345.47 424.536 346.005C422.894 346.732 421.218 347.418 419.602 348.199C415.589 349.543 411.861 351.282 408.162 353.334C407.045 355.107 402.076 357.254 400.089 358.425C394.635 361.639 389.471 364.959 384.564 368.982Z"/>
	<path fill="#55908E" transform="scale(2.26367 2.26367)" d="M417.383 344.56C420.574 344.619 423.812 343.427 427.152 343.421C426.36 344.35 425.643 345.47 424.536 346.005C422.894 346.732 421.218 347.418 419.602 348.199C415.589 349.543 411.861 351.282 408.162 353.334C407.825 352.654 407.966 353.079 407.926 352.014C410.143 348.904 413.709 346.645 416.793 344.466L417.383 344.56Z"/>
	<path fill="#ECAA77" transform="scale(2.26367 2.26367)" d="M453.714 344.922C458.244 348.139 462.889 350.823 467.635 353.673L468.297 353.586C468.245 355.629 468.447 356.934 466.916 358.491C465.025 360.413 461.424 361.483 458.954 362.527C455.635 362.999 452.199 364.23 448.898 364.949C440.786 366.715 431.006 368.731 423.496 363.884L425.521 364.192L425.845 363.774C422.416 362.912 415.838 360.999 413.536 358.227C415.384 356.294 424.537 362.451 428.085 361.425C428.254 361.376 428.405 361.278 428.565 361.205C430.461 361.104 432.34 360.942 434.229 360.755C438.732 361.178 442.599 360.752 447.012 359.825C447.936 359.261 448.883 358.69 449.701 357.975C453.433 354.716 453.334 349.47 453.714 344.922Z"/>
	<path fill="#FFF9F2" transform="scale(2.26367 2.26367)" d="M453.714 344.922C458.244 348.139 462.889 350.823 467.635 353.673C462.37 356.689 453.095 359.913 447.012 359.825C447.936 359.261 448.883 358.69 449.701 357.975C453.433 354.716 453.334 349.47 453.714 344.922Z"/>
	<path fill="#959883" transform="scale(2.26367 2.26367)" d="M468.297 353.586C472.846 354.848 477.617 357.69 481.945 358.558C483.968 357.572 485.803 356.695 488.079 357.3L488.671 358.386C488.468 363.738 488.499 369.761 487.283 374.974C477.073 373.982 466.902 368.781 458.954 362.527C461.424 361.483 465.025 360.413 466.916 358.491C468.447 356.934 468.245 355.629 468.297 353.586Z"/>
	<path fill="#5EBCB2" transform="scale(2.26367 2.26367)" d="M444.954 342.877L445.02 341.928L445.939 341.415C447.938 341.424 449.46 342.016 451.317 342.712C452.109 343.457 452.895 344.206 453.714 344.922C453.334 349.47 453.433 354.716 449.701 357.975C448.883 358.69 447.936 359.261 447.012 359.825C442.599 360.752 438.732 361.178 434.229 360.755C430.724 359.264 428.717 357.842 426.4 354.813C425.241 351.802 425.528 348.92 424.536 346.005C425.643 345.47 426.36 344.35 427.152 343.421C429.633 343.04 432.12 343.018 434.625 342.948C436.107 342.595 437.937 341.832 439.353 342.355C439.477 342.669 439.596 342.985 439.725 343.297C440.186 344.417 440.673 344.9 441.588 345.662C443.437 345.311 443.365 343.557 444.954 342.877Z"/>
	<path fill="#074764" transform="scale(2.26367 2.26367)" d="M434.625 342.948C436.107 342.595 437.937 341.832 439.353 342.355C439.477 342.669 439.596 342.985 439.725 343.297C440.186 344.417 440.673 344.9 441.588 345.662C443.437 345.311 443.365 343.557 444.954 342.877L446.412 346.063C446.537 348.388 446.645 350.684 445.34 352.73C444.35 354.282 442.632 355.386 440.824 355.702C438.594 356.091 436.253 355.594 434.403 354.282C432.886 353.206 431.836 351.565 431.645 349.699C431.353 346.846 433.023 345.067 434.625 342.948Z"/>
	<path fill="#55908E" transform="scale(2.26367 2.26367)" d="M449.675 326.103C461.854 326.689 474.297 326.389 483.138 336.438C488.141 342.125 489.404 349.88 488.857 357.251C488.815 357.81 488.779 357.908 488.671 358.386L488.079 357.3C485.803 356.695 483.968 357.572 481.945 358.558C477.617 357.69 472.846 354.848 468.297 353.586L467.635 353.673C462.889 350.823 458.244 348.139 453.714 344.922C452.895 344.206 452.109 343.457 451.317 342.712C449.46 342.016 447.938 341.424 445.939 341.415L445.02 341.928L444.954 342.877C443.365 343.557 443.437 345.311 441.588 345.662C440.673 344.9 440.186 344.417 439.725 343.297C439.596 342.985 439.477 342.669 439.353 342.355C437.937 341.832 436.107 342.595 434.625 342.948C432.12 343.018 429.633 343.04 427.152 343.421C423.812 343.427 420.574 344.619 417.383 344.56L416.793 344.466L416.612 344.043C410.259 345.958 405.619 353.673 400.004 357.194C397.212 358.944 392.906 362.408 389.55 362.372L389.098 361.766C390.179 354.91 397.959 347.277 402.968 342.967C404.756 341.428 407.331 339.895 408.676 337.966C408.826 337.751 408.966 337.53 409.111 337.312C415.488 333.679 422.299 331.387 429.502 330.011C434.559 329.046 445.712 328.368 449.675 326.103Z"/>
	<path fill="#38757F" transform="scale(2.26367 2.26367)" d="M417.383 344.56C426.47 337.913 438.466 334.67 449.661 336.36C461.485 338.146 473.266 345.568 480.216 355.252C480.974 356.307 481.496 357.336 481.945 358.558C477.617 357.69 472.846 354.848 468.297 353.586L467.635 353.673C462.889 350.823 458.244 348.139 453.714 344.922C452.895 344.206 452.109 343.457 451.317 342.712C449.46 342.016 447.938 341.424 445.939 341.415L445.02 341.928L444.954 342.877C443.365 343.557 443.437 345.311 441.588 345.662C440.673 344.9 440.186 344.417 439.725 343.297C439.596 342.985 439.477 342.669 439.353 342.355C437.937 341.832 436.107 342.595 434.625 342.948C432.12 343.018 429.633 343.04 427.152 343.421C423.812 343.427 420.574 344.619 417.383 344.56Z"/>
	<path fill="#FBD7AC" transform="scale(2.26367 2.26367)" d="M391.101 244.93C432.417 251.737 471.932 234.819 508.928 218.551C509.924 230.149 508.997 242.547 508.93 254.24L508.659 323.129C501.515 323.099 494.26 323.349 487.139 322.784C485.028 321.116 483.065 319.046 481.079 317.217C449.123 313.448 415.964 314.135 383.891 315.811C377.81 316.825 372.824 319.049 367.309 321.738C370.242 295.72 378.381 267.906 391.101 244.93Z"/>
	<path fill="#5EBCB2" transform="scale(2.26367 2.26367)" d="M383.891 315.811C389.829 307.408 402.975 302.123 412.762 300.392C432.414 296.918 461.788 303.075 478.094 314.735C479.159 315.497 480.166 316.273 481.079 317.217C449.123 313.448 415.964 314.135 383.891 315.811Z"/>
	<path fill="#074764" transform="scale(2.26367 2.26367)" d="M395.546 595.585C396.761 613.383 395.945 631.715 395.985 649.565C422.197 667.099 449.158 683.576 475.61 700.749C484.118 706.273 492.444 712.07 500.968 717.571C504.341 719.748 508.102 722.619 511.814 724.08L510.98 725.109C511.826 730.984 511.461 737.263 511.439 743.194L511.305 772.033L511.17 866.255L511.042 896.918C511.016 902.285 510.705 907.878 511.104 913.224L510.915 916.111C511.137 917.49 511.304 918.755 511.265 920.162C509.181 920.382 315.837 814.164 294.588 802.725C283.633 796.827 272.713 790.212 261.435 784.996C267.815 775.329 315.74 704.878 316.354 702.273C319.115 699.215 321.45 695.406 323.871 692.053L337.434 673.622L377.372 620.683C382.297 614.136 386.93 607.396 391.94 600.906L392.689 601.053C393.549 599.156 394.48 597.373 395.546 595.585Z"/>
	<path fill="#0E283B" transform="scale(2.26367 2.26367)" d="M351.415 722.348C352.625 717.782 353.072 712.219 355.094 708.004C377.575 733.99 401.102 759.281 424.762 784.195C431.457 791.245 437.838 798.671 444.654 805.59C466.935 778.976 487.962 751.059 510.98 725.109C511.826 730.984 511.461 737.263 511.439 743.194L511.305 772.033L511.17 866.255L511.042 896.918C511.016 902.285 510.705 907.878 511.104 913.224L510.915 916.111C491.46 890.026 469.924 865.364 449.094 840.377L391.052 769.786C377.944 754.04 363.628 738.779 351.415 722.348Z"/>
	<path fill="#5EBCB2" transform="scale(2.26367 2.26367)" d="M395.546 595.585C396.761 613.383 395.945 631.715 395.985 649.565C422.197 667.099 449.158 683.576 475.61 700.749C484.118 706.273 492.444 712.07 500.968 717.571C504.341 719.748 508.102 722.619 511.814 724.08L510.98 725.109C487.962 751.059 466.935 778.976 444.654 805.59C437.838 798.671 431.457 791.245 424.762 784.195C401.102 759.281 377.575 733.99 355.094 708.004C357.124 704.322 358.407 699.657 359.828 695.685C363.032 686.732 366.092 677.737 369.125 668.724C376.737 646.101 384.631 623.521 392.689 601.053C393.549 599.156 394.48 597.373 395.546 595.585Z"/>
	<defs>
		<linearGradient id="gradient_1" gradientUnits="userSpaceOnUse" x1="516.4928" y1="719.06873" x2="699.37433" y2="857.59613">
			<stop offset="0" stop-color="#0D2136"/>
			<stop offset="1" stop-color="#0E374E"/>
		</linearGradient>
	</defs>
	<path fill="url(#gradient_1)" transform="scale(2.26367 2.26367)" d="M625.851 583.443C626.097 586.441 626.277 589.431 626.411 592.436C627.872 594.358 631.44 599.056 632.326 601.073C638.642 607.775 643.739 616.025 649.421 623.302L693.262 680.05C697.613 685.647 703.758 695.16 708.424 699.653C708.394 699.889 708.348 700.123 708.332 700.36C708.066 704.498 740.79 750.769 745.022 757.2C749.15 763.473 755.668 771.301 757.111 778.728C757.55 780.989 757.031 782.81 755.493 784.525C752.222 788.173 736.857 795.192 731.72 798.056L666.877 834.272L576.476 885.086L534.74 908.508C527.206 912.684 519.714 917.193 511.974 920.966C512.067 920.783 512.159 920.599 512.255 920.418C514.012 917.078 517.819 913.089 518.833 909.644C516.509 911.054 513.844 917.483 513.796 917.503C513.218 917.741 512.547 917.483 511.922 917.473L513.608 917.799L511.728 916.986L512.231 918.212C511.379 916.58 511.286 915.035 511.104 913.224C510.705 907.878 511.016 902.285 511.042 896.918L511.17 866.255L511.305 772.033L511.439 743.194C511.461 737.263 511.826 730.984 510.98 725.109L511.814 724.08L511.869 723.571C508.992 705.572 509.893 686.013 501.152 669.597L501.722 668.894L502.912 669.153C503.835 666.299 503.565 663.449 504.366 660.601L504.814 660.505C504.875 661.163 504.936 661.822 505.014 662.478C505.151 663.625 505.205 665.323 506.135 666.047C507.684 664.516 507.64 662.099 508.969 660.442C511.377 657.441 518.08 654.833 518.812 650.979C517.494 649.155 514.569 649.937 513.033 647.751C514.556 646.898 516.316 647.29 518.056 647.033C516.193 646.461 511.637 645.614 510.489 644.104C509.686 643.047 509.196 641.706 508.32 640.699C507.2 639.411 505.734 638.406 504.498 637.224C503.288 636.066 501.693 634.478 501.661 632.765L503.38 632.279C529.336 642.541 558.854 641.332 586.162 638.236C599.258 619.867 613.305 602.201 625.851 583.443Z"/>
	<path fill="#38757F" transform="scale(2.26367 2.26367)" d="M625.851 583.443C626.097 586.441 626.277 589.431 626.411 592.436C627.872 594.358 631.44 599.056 632.326 601.073C636.676 615.397 641.637 629.534 646.103 643.822C652.311 663.687 658.078 683.653 664.905 703.324L577.675 813.704C569.26 802.452 561.491 790.726 553.488 779.182C546.526 769.139 539.307 759.269 532.213 749.318C526.25 740.953 520.34 730.886 513.013 723.719L511.869 723.571C508.992 705.572 509.893 686.013 501.152 669.597L501.722 668.894L502.912 669.153C503.835 666.299 503.565 663.449 504.366 660.601L504.814 660.505C504.875 661.163 504.936 661.822 505.014 662.478C505.151 663.625 505.205 665.323 506.135 666.047C507.684 664.516 507.64 662.099 508.969 660.442C511.377 657.441 518.08 654.833 518.812 650.979C517.494 649.155 514.569 649.937 513.033 647.751C514.556 646.898 516.316 647.29 518.056 647.033C516.193 646.461 511.637 645.614 510.489 644.104C509.686 643.047 509.196 641.706 508.32 640.699C507.2 639.411 505.734 638.406 504.498 637.224C503.288 636.066 501.693 634.478 501.661 632.765L503.38 632.279C529.336 642.541 558.854 641.332 586.162 638.236C599.258 619.867 613.305 602.201 625.851 583.443Z"/>
	<path fill="#C76F4D" transform="scale(2.26367 2.26367)" d="M625.851 583.443C626.097 586.441 626.277 589.431 626.411 592.436C626.414 610.134 626.293 627.86 627.077 645.545C588.095 670.063 552.014 699.225 513.013 723.719L511.869 723.571C508.992 705.572 509.893 686.013 501.152 669.597L501.722 668.894L502.912 669.153C503.835 666.299 503.565 663.449 504.366 660.601L504.814 660.505C504.875 661.163 504.936 661.822 505.014 662.478C505.151 663.625 505.205 665.323 506.135 666.047C507.684 664.516 507.64 662.099 508.969 660.442C511.377 657.441 518.08 654.833 518.812 650.979C517.494 649.155 514.569 649.937 513.033 647.751C514.556 646.898 516.316 647.29 518.056 647.033C516.193 646.461 511.637 645.614 510.489 644.104C509.686 643.047 509.196 641.706 508.32 640.699C507.2 639.411 505.734 638.406 504.498 637.224C503.288 636.066 501.693 634.478 501.661 632.765L503.38 632.279C529.336 642.541 558.854 641.332 586.162 638.236C599.258 619.867 613.305 602.201 625.851 583.443Z"/>
	<path fill="#FBD7AC" transform="scale(2.26367 2.26367)" d="M365.921 466.244C363.825 465.592 361.864 464.821 359.947 463.753C357.051 462.14 354.635 460.004 352.576 457.419C344.098 446.773 327.86 413.069 323.845 399.003C320.354 386.773 318.006 366.319 324.839 354.779C326.132 352.595 328.02 350.662 330.596 350.162C334.571 349.392 337.408 351.78 340.44 353.922C349.38 365.469 357.281 378.175 364.235 391.007C363.034 383.314 362.202 366.942 363.419 359.658C364.1 358.985 365.081 358.546 366.092 358.687C367.231 358.845 367.97 359.363 368.49 360.389C370.089 363.543 369.043 369.466 369.25 372.981C370.564 395.193 381.078 413.628 400.41 424.729C412.179 430.569 425.256 433.096 438.327 431.358C457.575 428.797 473.31 419.197 485.106 403.943C491.645 393.683 495.958 382.63 498.501 370.723C499.487 366.105 499.038 358.306 501.5 354.28C502.943 351.921 505.553 351.284 508.067 350.691C511.868 350.467 516.725 349.736 519.837 352.496C521.409 353.891 522.11 355.951 522.603 357.926C523.642 366.97 524.038 375.66 527.342 384.316C529.095 388.91 531.793 393.379 533.324 397.978C543.81 413.762 558.882 425.945 577.794 429.786C596.628 433.611 615.369 429.391 631.4 419.159C646.049 407.236 650.726 399.567 659.203 382.86C659.429 390.901 656.342 405.74 655.119 414.367C653.585 425.199 652.647 436.297 650.754 447.049C650.023 451.891 647.765 462.111 648.088 466.54L643.747 497.992C643.046 503.312 642.737 509.053 641.51 514.244C637.147 517.778 632.617 521.212 628.62 525.162L626.684 563.937C626.349 570.208 625.324 577.215 625.851 583.443C613.305 602.201 599.258 619.867 586.162 638.236C558.854 641.332 529.336 642.541 503.38 632.279L501.661 632.765C501.693 634.478 503.288 636.066 504.498 637.224C505.734 638.406 507.2 639.411 508.32 640.699C509.196 641.706 509.686 643.047 510.489 644.104C511.637 645.614 516.193 646.461 518.056 647.033C516.316 647.29 514.556 646.898 513.033 647.751C514.569 649.937 517.494 649.155 518.812 650.979C518.08 654.833 511.377 657.441 508.969 660.442C507.64 662.099 507.684 664.516 506.135 666.047C505.205 665.323 505.151 663.625 505.014 662.478C504.936 661.822 504.875 661.163 504.814 660.505L504.366 660.601C503.565 663.449 503.835 666.299 502.912 669.153L501.722 668.894L501.152 669.597C509.893 686.013 508.992 705.572 511.869 723.571L511.814 724.08C508.102 722.619 504.341 719.748 500.968 717.571C492.444 712.07 484.118 706.273 475.61 700.749C449.158 683.576 422.197 667.099 395.985 649.565C395.945 631.715 396.761 613.383 395.546 595.585C396.571 588.177 395.923 580.01 395.9 572.504C395.854 557.529 395.641 542.542 396.067 527.572C392.641 523.188 387.525 519.743 384.716 514.932C381.655 509.689 376.975 480.109 375.465 472.061C374.916 469.136 374.687 464.747 373.249 462.238C371.039 463.922 369.214 465.337 366.494 466.097C366.304 466.15 366.112 466.195 365.921 466.244Z"/>
	<path fill="#9F4C3F" transform="scale(2.26367 2.26367)" d="M471.035 439.445C477.599 447.272 487.432 447.543 493.161 453.963L492.807 454.513C491.426 455.148 489.975 455.705 488.475 455.979C485.482 456.526 482.087 455.234 479.641 453.576C474.765 450.272 472.005 445.134 471.035 439.445Z"/>
	<path fill="#ECAA77" transform="scale(2.26367 2.26367)" d="M327.504 372.355C329.208 373.984 334.254 377.712 334.891 379.794C334.602 380.821 334.236 381.425 333.594 382.274C334.271 386.945 336.622 392.059 338.102 396.569C342.551 410.126 346.46 428.243 358.3 437.45C361.348 439.82 364.966 441.382 368.84 441.619C369.038 442.58 369.112 443.329 369.032 444.308C367.683 445.433 367.058 445.585 365.303 445.487C358.486 445.109 351.346 441.529 346.902 436.283C333.342 420.276 325.611 393.067 327.504 372.355Z"/>
	<path fill="#ECAA77" transform="scale(2.26367 2.26367)" d="M400.41 424.729C412.179 430.569 425.256 433.096 438.327 431.358C457.575 428.797 473.31 419.197 485.106 403.943C484.052 412.715 461.864 440.849 454.58 446.661C448.254 451.709 440.068 453.988 432.039 452.983C419.948 451.47 410.39 442.261 403.293 432.97C401.465 430.577 399.855 428.311 400.328 425.208C400.353 425.048 400.383 424.889 400.41 424.729Z"/>
	<path fill="#C76F4D" transform="scale(2.26367 2.26367)" d="M327.504 372.355C328.574 369.62 329.374 366.379 332.108 364.884C334.962 364.394 337.044 365.742 339.306 367.37C343.133 370.125 346.316 373.913 349.138 377.65C359.565 391.455 361.175 404.202 364.418 420.613C365.802 427.62 367.604 434.592 368.84 441.619C364.966 441.382 361.348 439.82 358.3 437.45C346.46 428.243 342.551 410.126 338.102 396.569C336.622 392.059 334.271 386.945 333.594 382.274C334.236 381.425 334.602 380.821 334.891 379.794C334.254 377.712 329.208 373.984 327.504 372.355Z"/>
	<defs>
		<linearGradient id="gradient_2" gradientUnits="userSpaceOnUse" x1="382.09641" y1="568.63049" x2="525.81329" y2="635.86829">
			<stop offset="0" stop-color="#AE5841"/>
			<stop offset="1" stop-color="#EC965F"/>
		</linearGradient>
	</defs>
	<path fill="url(#gradient_2)" transform="scale(2.26367 2.26367)" d="M501.152 669.597C498.727 667.475 495.624 662.152 493.458 659.394C487.032 651.21 480.335 643.213 473.689 635.207C461.823 620.915 449.665 606.766 437.394 592.818C425.962 579.823 413.822 567.253 404.798 552.37C400.401 545.117 399.223 537.149 397.385 529.038C406.827 538.34 461.325 600.291 464.363 601.57C475.825 614.288 486.958 626.034 503.38 632.279L501.661 632.765C501.693 634.478 503.288 636.066 504.498 637.224C505.734 638.406 507.2 639.411 508.32 640.699C509.196 641.706 509.686 643.047 510.489 644.104C511.637 645.614 516.193 646.461 518.056 647.033C516.316 647.29 514.556 646.898 513.033 647.751C514.569 649.937 517.494 649.155 518.812 650.979C518.08 654.833 511.377 657.441 508.969 660.442C507.64 662.099 507.684 664.516 506.135 666.047C505.205 665.323 505.151 663.625 505.014 662.478C504.936 661.822 504.875 661.163 504.814 660.505L504.366 660.601C503.565 663.449 503.835 666.299 502.912 669.153L501.722 668.894L501.152 669.597Z"/>
	<path fill="#ECAA77" transform="scale(2.26367 2.26367)" d="M508.067 350.691C511.868 350.467 516.725 349.736 519.837 352.496C521.409 353.891 522.11 355.951 522.603 357.926C523.642 366.97 524.038 375.66 527.342 384.316C529.095 388.91 531.793 393.379 533.324 397.978C532.948 410.449 542.514 425.852 549.547 435.65C549.328 437.145 549.246 439.019 548.784 440.436C542.39 445.896 534.777 448.126 528.072 452.873C523.916 455.816 521.239 460.592 516.891 462.799L517.129 463.142C512.692 464.563 506.929 464.854 502.249 465.086C502.38 463.493 502.938 461.868 503.353 460.321C504.243 454.919 506.402 449.833 506.915 444.351C507.4 439.181 507.114 433.839 507.075 428.645C507.005 419.266 506.887 409.88 507.008 400.502C507.143 390.024 507.57 379.541 507.884 369.068C508.066 362.973 508.492 356.779 508.067 350.691Z"/>
	<path fill="#9F4C3F" transform="scale(2.26367 2.26367)" d="M522.603 357.926C523.642 366.97 524.038 375.66 527.342 384.316C529.095 388.91 531.793 393.379 533.324 397.978C532.948 410.449 542.514 425.852 549.547 435.65C549.328 437.145 549.246 439.019 548.784 440.436C542.39 445.896 534.777 448.126 528.072 452.873C523.916 455.816 521.239 460.592 516.891 462.799L517.129 463.142C512.692 464.563 506.929 464.854 502.249 465.086C502.38 463.493 502.938 461.868 503.353 460.321C508.4 456.728 514.6 455.05 519.154 450.674C521.53 448.391 522.547 446.151 523.048 442.923C524.306 434.815 523.181 425.84 523.093 417.64C522.878 397.731 522.289 377.838 522.603 357.926Z"/>
	<path fill="#ECAA77" transform="scale(2.26367 2.26367)" d="M659.203 382.86C659.429 390.901 656.342 405.74 655.119 414.367C653.585 425.199 652.647 436.297 650.754 447.049C650.023 451.891 647.765 462.111 648.088 466.54L643.747 497.992C643.046 503.312 642.737 509.053 641.51 514.244C637.147 517.778 632.617 521.212 628.62 525.162L626.684 563.937C626.349 570.208 625.324 577.215 625.851 583.443C613.305 602.201 599.258 619.867 586.162 638.236C558.854 641.332 529.336 642.541 503.38 632.279C486.958 626.034 475.825 614.288 464.363 601.57L467.906 601.41C470.155 600.988 472.541 601.081 474.827 601.034C484.115 590.639 500 585.782 513.543 584.774C518.438 584.409 523.648 585.057 528.454 584.095C531.309 583.524 535.005 582.294 536.605 579.644C539.765 574.408 538.874 563.687 537.35 557.948C535.839 552.261 532.452 547.675 527.213 544.923C521.306 541.82 492.52 543.011 484.669 543.933C480.318 544.444 476.285 545.334 472.086 546.58C481.642 539.807 493.436 535.711 504.737 532.899C491.584 528.952 477.865 524.025 468.953 513.011C463.13 512.963 455.665 514.368 450.089 512.862C451.611 511.616 454.866 511.701 456.762 511.642C462.383 507.231 488.301 503.646 495.938 503.763C501.875 503.853 507.853 505.057 513.783 505.517C515.339 505.2 516.18 504.776 517.237 503.587C520.614 499.786 525.506 496.363 525.362 490.727C525.258 486.661 522.604 483.649 519.75 481.092C515.662 480.733 506.68 481.89 503.745 478.775C500.904 475.759 502.044 468.939 502.249 465.086C506.929 464.854 512.692 464.563 517.129 463.142L516.891 462.799C521.239 460.592 523.916 455.816 528.072 452.873C534.777 448.126 542.39 445.896 548.784 440.436C549.246 439.019 549.328 437.145 549.547 435.65C542.514 425.852 532.948 410.449 533.324 397.978C543.81 413.762 558.882 425.945 577.794 429.786C596.628 433.611 615.369 429.391 631.4 419.159C646.049 407.236 650.726 399.567 659.203 382.86Z"/>
	<path fill="#552D36" transform="scale(2.26367 2.26367)" d="M548.784 440.436C547.183 447.508 544.327 452.22 538.048 456.189C532.271 459.84 523.942 462.76 517.129 463.142L516.891 462.799C521.239 460.592 523.916 455.816 528.072 452.873C534.777 448.126 542.39 445.896 548.784 440.436Z"/>
	<path fill="#FBD7AC" transform="scale(2.26367 2.26367)" d="M476.416 512.715C483.784 511.351 492.203 510.984 499.439 513.245C503.904 514.168 508.468 515.015 513.043 515.049C517.935 515.734 523.447 514.701 528.141 516.067C524.195 518.509 519.956 521.262 515.537 522.762C509.262 524.892 499.653 524.932 493.222 523.48C488.867 522.497 478.52 518.265 476.266 514.204C475.898 513.541 476.175 513.353 476.416 512.715Z"/>
	<path fill="#C76F4D" transform="scale(2.26367 2.26367)" d="M456.762 511.642C462.383 507.231 488.301 503.646 495.938 503.763C501.875 503.853 507.853 505.057 513.783 505.517C524.748 505.109 540.335 509.443 551.421 511.489C554.796 512.112 560.274 510.815 563.167 512.74C563.313 512.837 563.416 512.985 563.541 513.107C562.678 514.144 562.017 514.162 560.714 514.222C556.382 514.422 551.964 514.122 547.618 514.147C542.515 517.567 536.237 518.427 530.236 518.782L528.141 516.067C523.447 514.701 517.935 515.734 513.043 515.049C508.468 515.015 503.904 514.168 499.439 513.245C492.203 510.984 483.784 511.351 476.416 512.715L468.953 513.011C463.13 512.963 455.665 514.368 450.089 512.862C451.611 511.616 454.866 511.701 456.762 511.642Z"/>
	<path fill="#9F4C3F" transform="scale(2.26367 2.26367)" d="M501.327 510.977C506.149 511.358 525.407 511.455 527.924 512.806C522.935 513.571 511.041 513.938 506.053 513.185L506.052 513.486C508.391 513.987 510.835 514.126 513.043 515.049C508.468 515.015 503.904 514.168 499.439 513.245L501.327 510.977Z"/>
	<defs>
		<linearGradient id="gradient_3" gradientUnits="userSpaceOnUse" x1="480.57391" y1="513.80853" x2="481.08145" y2="508.59607">
			<stop offset="0" stop-color="#7B2F2C"/>
			<stop offset="1" stop-color="#9E403B"/>
		</linearGradient>
	</defs>
	<path fill="url(#gradient_3)" transform="scale(2.26367 2.26367)" d="M456.762 511.642C459.33 512.302 462.971 511.429 465.631 511.11C476.829 509.768 490.517 507.251 501.327 510.977L499.439 513.245C492.203 510.984 483.784 511.351 476.416 512.715L468.953 513.011C463.13 512.963 455.665 514.368 450.089 512.862C451.611 511.616 454.866 511.701 456.762 511.642Z"/>
	<path fill="#C76F4D" transform="scale(2.26367 2.26367)" d="M659.203 382.86C659.429 390.901 656.342 405.74 655.119 414.367C653.585 425.199 652.647 436.297 650.754 447.049C650.023 451.891 647.765 462.111 648.088 466.54L643.747 497.992C643.046 503.312 642.737 509.053 641.51 514.244C637.147 517.778 632.617 521.212 628.62 525.162C618.359 534.286 608.455 543.848 598.61 553.417C593.612 558.276 588.716 563.794 583.322 568.142C584.688 558.34 589.623 547.888 591.133 537.044C593.124 522.747 592.913 507.651 593.597 493.207C593.955 485.642 594.166 477.675 596.065 470.32C597.442 464.988 600.025 459.579 602.84 454.869C609.019 444.527 629.709 429.22 631.4 419.159C646.049 407.236 650.726 399.567 659.203 382.86Z"/>
	<path fill="#552D36" transform="scale(2.26367 2.26367)" d="M583.322 568.142C588.716 563.794 593.612 558.276 598.61 553.417C608.455 543.848 618.359 534.286 628.62 525.162L626.684 563.937C626.349 570.208 625.324 577.215 625.851 583.443C613.305 602.201 599.258 619.867 586.162 638.236C558.854 641.332 529.336 642.541 503.38 632.279C486.958 626.034 475.825 614.288 464.363 601.57L467.906 601.41L550.391 601.381C560.92 589.948 572.074 578.868 583.322 568.142Z"/>
	<path fill="#38757F" transform="scale(2.26367 2.26367)" d="M105.968 781.858L106.163 376.182L106.07 282.855C105.982 261.903 104.401 239.725 107.869 219.057C112.115 193.758 124.102 169.605 141.392 150.682C157.32 133.25 177.59 119.438 200.333 112.699C226.949 104.812 258.493 107.25 286.197 107.227L356.302 107.029C370.238 106.97 384.236 107.181 398.16 106.592C376.036 122.691 357.156 141.211 342.949 164.74C309.171 220.681 314.78 263.369 331.227 323.519C333.966 333.533 337.932 343.474 340.345 353.513L340.44 353.922C337.408 351.78 334.571 349.392 330.596 350.162C328.02 350.662 326.132 352.595 324.839 354.779C318.006 366.319 320.354 386.773 323.845 399.003C327.86 413.069 344.098 446.773 352.576 457.419C354.635 460.004 357.051 462.14 359.947 463.753C361.864 464.821 363.825 465.592 365.921 466.244C366.112 466.195 366.304 466.15 366.494 466.097C369.214 465.337 371.039 463.922 373.249 462.238C374.687 464.747 374.916 469.136 375.465 472.061C376.975 480.109 381.655 509.689 384.716 514.932C387.525 519.743 392.641 523.188 396.067 527.572C395.641 542.542 395.854 557.529 395.9 572.504C395.923 580.01 396.571 588.177 395.546 595.585C394.48 597.373 393.549 599.156 392.689 601.053L391.94 600.906C386.93 607.396 382.297 614.136 377.372 620.683L337.434 673.622L323.871 692.053C321.45 695.406 319.115 699.215 316.354 702.273L170.753 757.211C149.168 765.434 127.693 774.01 105.968 781.858Z"/>
	<path fill="#38757F" transform="scale(2.26367 2.26367)" d="M610.126 106.76L729.427 106.764L765.493 106.673C781.518 106.612 797.535 106.079 813.265 109.789C837.039 115.396 860.328 128.418 877.528 145.694C896.98 165.231 909.948 189.9 914.971 217.002C918.856 237.968 917.31 267.807 917.239 289.83L917.332 385.576L917.255 778.012C917.25 779.141 917.216 780.265 917.172 781.392C879.16 764.427 839.915 750.35 800.974 735.665C770 723.985 739.311 711.558 708.424 699.653C703.758 695.16 697.613 685.647 693.262 680.05L649.421 623.302C643.739 616.025 638.642 607.775 632.326 601.073C631.44 599.056 627.872 594.358 626.411 592.436C626.277 589.431 626.097 586.441 625.851 583.443C625.324 577.215 626.349 570.208 626.684 563.937L628.62 525.162C632.617 521.212 637.147 517.778 641.51 514.244C642.737 509.053 643.046 503.312 643.747 497.992L648.088 466.54C647.765 462.111 650.023 451.891 650.754 447.049C652.647 436.297 653.585 425.199 655.119 414.367C656.342 405.74 659.429 390.901 659.203 382.86C659.993 379.208 663.688 372.327 666.552 369.896C671.224 362.822 677.738 356.18 680.676 348.152C691.192 311.403 701.068 249.278 694.196 211.588C692.232 200.822 688.477 190.382 683.203 180.795C673.386 162.952 657.105 147.197 637.154 141.526C636.727 141.404 636.298 141.291 635.869 141.177C629.187 127.628 621.464 116.857 610.126 106.76Z"/>
	<path fill="#9F4C3F" transform="scale(2.26367 2.26367)" d="M680.676 348.152C684.609 347.357 687.738 347.124 691.222 349.491C695.077 352.109 696.877 356.883 697.604 361.306C698.946 369.476 697.748 379.033 696.139 387.087C693.156 402.019 678.071 447.043 669.681 458.583C666.613 462.802 662.55 466.85 657.18 467.704C654.105 468.193 651.026 467.406 648.088 466.54C647.765 462.111 650.023 451.891 650.754 447.049C657.262 444.813 662.445 441.055 667.203 436.144C686.406 416.321 690.798 386.19 690.495 359.673C681.976 362.347 674.679 366.429 666.552 369.896C671.224 362.822 677.738 356.18 680.676 348.152Z"/>
	<path fill="#552D36" transform="scale(2.26367 2.26367)" d="M666.552 369.896C674.679 366.429 681.976 362.347 690.495 359.673C690.798 386.19 686.406 416.321 667.203 436.144C662.445 441.055 657.262 444.813 650.754 447.049C652.647 436.297 653.585 425.199 655.119 414.367C656.342 405.74 659.429 390.901 659.203 382.86C659.993 379.208 663.688 372.327 666.552 369.896Z"/>
</svg>
