<?xml version="1.0" encoding="utf-8" ?>
<svg xmlns="http://www.w3.org/2000/svg" xmlns:xlink="http://www.w3.org/1999/xlink" width="2318" height="2318">
	<path fill="#FEFEFE" transform="scale(2.26367 2.26367)" d="M0 0L1024 0L1024 1024L0 1024L0 0Z"/>
	<path fill="#231F20" transform="scale(2.26367 2.26367)" d="M732.762 265.485C734.028 264.214 735.185 262.896 736.257 261.459C738.5 258.454 741.385 253.985 740.641 250.087C739 241.486 718.732 245.136 712.276 244.141C707.579 243.417 703.171 241.774 699.384 238.844C694.341 234.941 690.514 228.802 689.74 222.47C688.72 214.133 688.622 177.321 690.153 169.845C690.875 166.322 692.835 162.762 695.086 159.988C699.304 154.79 705.252 151.041 712.004 150.473C718.513 149.925 725.251 150.257 731.788 150.271L766.321 150.334L790 150.236C794.791 150.213 800.051 149.825 804.771 150.644C808.877 151.357 813.011 153.702 816.129 156.401C821.962 161.449 824.74 168.57 825.276 176.118C825.77 183.061 825.27 190.288 825.224 197.26C825.169 205.641 826.405 215.016 824.426 223.174C823.3 227.815 821.136 232.149 817.924 235.702C807.602 247.118 794.029 243.54 780.593 244.343C770.368 244.954 770.36 252.241 764.785 258.637C757.657 269.99 744.065 278.154 731.191 281.05C725.735 282.278 718.828 283.465 713.416 281.662L712.47 280.742C712.6 279.251 713.066 278.56 714.242 277.616C720.061 272.943 726.791 271.323 732.762 265.485Z"/>
	<path fill="#FEFEFE" transform="scale(2.26367 2.26367)" d="M733.629 267.155C736.571 264.405 739.299 260.991 741.082 257.37C742.773 253.936 743.691 249.747 742.289 246.048C738.384 235.752 717.781 243.186 706.323 238.001C700.659 235.438 696.406 230.5 694.448 224.621C692.262 218.058 692.413 182.399 693.401 174.504C693.786 171.434 694.55 168.481 696 165.727C698.695 160.609 703.526 156.742 709.03 155.038C711.012 154.424 713.024 154.118 715.094 154.016C731.035 153.23 747.362 154.031 763.342 154.022C775.542 154.016 791.426 153.013 803.203 154.378C805.418 154.635 807.556 155.472 809.491 156.559C815.135 159.73 819.122 164.864 820.711 171.146C821.999 176.239 821.933 214.283 821.103 219.519C820.557 222.963 819.544 226.333 817.625 229.275C806.505 246.318 791.678 236.947 777.453 240.536C769.948 242.43 767.002 250.97 763.233 256.915C752.746 268.664 740.652 277.281 724.463 278.206C722.724 278.305 720.982 278.359 719.241 278.404C724.181 275.181 729.933 271.847 733.629 267.155Z"/>
	<path fill="#231F20" transform="scale(2.26367 2.26367)" d="M478.345 142.71C503.119 140.813 527.462 146.093 550.702 154.374C575.009 163.036 600.211 178.883 615.348 200.222C619.296 205.787 622.146 211.785 625.062 217.921C630.951 219.077 636.837 220.192 642.472 222.323C654.015 226.687 662.962 236.079 667.964 247.261C674.901 262.768 674.629 282.484 668.704 298.254C676.402 299.547 682.548 302.397 687.954 308.09C697.207 317.835 700.604 331.891 700.24 345.02C699.769 361.975 692.915 377.044 680.485 388.627C668.489 399.805 654.519 404.756 638.219 404.134C627.904 428.589 610.109 451.623 589.374 468.131C584.114 472.318 574.27 477.345 570.257 481.777C566.399 486.037 567.886 503.558 568.014 509.269C575.417 510.439 586.098 511.142 592.816 513.928C593.293 514.594 593.963 515.751 594.708 516.115C597.292 517.38 609.51 518.602 613.29 519.331C619.32 520.495 625.321 521.912 631.221 523.615C647.537 528.327 663.38 535.649 677.036 545.828C730.74 585.858 729.895 650.077 738.639 710.084C741.672 711.166 744.223 712.689 746.509 714.986C750.067 718.562 751.608 722.771 751.68 727.729C752.152 760.194 751.708 792.695 751.656 825.162L751.632 854.015C751.625 858.757 752.097 864.186 751.299 868.845C750.714 872.263 748.42 874.682 746.096 877.061L835.026 877.13C847.557 877.131 860.291 876.647 872.802 877.093C875.244 877.18 878.18 877.565 879.916 879.444C879.897 880.329 880.082 880.335 879.389 881.011C877.895 882.467 875.154 882.835 873.167 882.94C863.707 883.442 853.838 882.78 844.334 882.749L782.004 882.633L575.477 881.709L303.953 882.009L193.421 882.387C178.936 882.396 164.37 882.833 149.894 882.538C147.884 882.497 144.764 882.543 142.941 881.742C141.652 881.176 141.615 880.833 141.258 879.604C141.539 878.8 141.558 878.411 142.23 877.82C143.012 877.132 143.686 876.795 144.716 876.741C148.881 876.521 153.178 876.837 157.355 876.852L185.354 876.851L274.45 876.937C273.015 875.195 271.574 873.503 270.797 871.348C268.019 863.643 269.604 850.369 269.838 842.145C267.179 840.695 264.591 839.092 262.129 837.326C247.911 827.125 239.786 810.73 236.934 793.764C234.714 780.558 235.36 766.717 237.474 753.53C245.813 701.517 283.879 615.197 314.63 572.497C333.014 546.97 357.27 533.371 388.057 528.369C385.692 525.623 383.298 522.885 381.051 520.041C371.608 508.094 369.813 497.949 371.56 483.017C368.586 477.787 366.993 472.619 366.895 466.568C366.773 459.062 369.059 450.677 374.547 445.321C379.258 440.723 384.107 440.247 390.314 440.403C379.077 411.658 377.888 391.146 377.347 361.127C370.975 353.781 367.147 347.751 365.242 338.068C363.839 330.937 363.643 310.776 364.863 303.677C365.453 300.244 366.681 296.89 368.673 294.016C372.208 288.916 376.862 287.005 382.698 285.848C386.742 262.577 401.428 240.215 418.994 224.924C413.702 222.453 408.471 219.937 403.81 216.368C398.373 212.205 394.05 206.468 393.306 199.477C392.334 190.356 397.275 181.44 402.998 174.73C421.239 153.344 451.329 144.873 478.345 142.71Z"/>
	<path fill="#FEFEFE" transform="scale(2.26367 2.26367)" d="M383.069 445.56C388.013 445.244 390.541 445.979 394.625 448.659C387.498 454.772 381.554 460.871 376.89 469.062C376.017 471.016 375.117 472.935 374.127 474.832L373.304 474.729C373.204 474.532 373.095 474.338 373.003 474.137C371.132 470.055 372.427 460.947 373.819 456.805C375.583 451.557 378.036 448.088 383.069 445.56Z"/>
	<path fill="#FEFEFE" transform="scale(2.26367 2.26367)" d="M379.722 292.924L380.528 293.056C381.439 296.018 378.594 305.472 378.175 309.13C376.637 322.532 376.363 336.689 376.53 350.176L375.02 347.659C369.73 337.641 370.055 327.724 370.196 316.713C370.251 312.397 369.996 307.641 371.138 303.443C372.525 298.346 375.204 295.458 379.722 292.924Z"/>
	<path fill="#FEFEFE" transform="scale(2.26367 2.26367)" d="M484.03 318.055C491.374 317.46 497.733 319.842 504.51 322.319C504.902 324.789 504.92 327.306 505.021 329.801C503.097 329.266 501.172 328.733 499.236 328.247C495.142 327.219 490.871 327.204 487.207 329.548C481.353 333.292 478.663 341.605 477.141 348.048C476.41 351.187 476.237 354.568 475.891 357.775C471.589 356.647 467.341 355.328 463.085 354.043C468.402 342.002 471.496 324.449 484.03 318.055Z"/>
	<path fill="#FEFEFE" transform="scale(2.26367 2.26367)" d="M504.335 673.745C508.575 675.446 512.551 677.601 516.906 679.131C529.818 683.666 544.037 685.097 557.647 685.921C562.887 686.238 568.677 685.14 573.745 686.037L574.235 686.938L573.732 687.947C568.429 691.349 558.771 691.558 552.477 692.336C522.294 696.067 493.914 697.765 463.888 691.935C460.517 691.191 455.32 690.578 452.439 688.725C451.408 688.063 451.164 687.68 450.968 686.501C452.51 684.812 458.768 687.427 461.06 687.93C495.127 695.406 522.806 692.543 556.917 688.798C555.213 687.541 551.863 688.19 549.799 688.123C544.11 687.938 538.156 686.868 532.522 686.008C524.508 684.785 516.717 682.392 509.149 679.493C507.027 678.68 504.36 677.721 503.398 675.566L504.335 673.745Z"/>
	<path fill="#FEFEFE" transform="scale(2.26367 2.26367)" d="M627.784 660.068C628.386 660.004 628.696 660.202 629.246 660.426C631.214 663.001 634.846 673.492 634.926 676.832C633.261 679.203 627.663 678.248 624.731 678.671C613.64 680.274 600.386 684.451 590.467 689.708C591.445 696.237 590.818 702.854 590.206 709.388C589.372 709.473 588.939 709.413 588.158 709.108C586.296 705.3 587.217 694.103 587.346 689.597C585.97 688.609 584.343 687.7 583.672 686.087C584.644 684.795 586.516 685.004 587.973 684.235C588.17 681.604 586.807 677.88 586.17 675.255C596.915 666.062 614.283 663.329 627.784 660.068Z"/>
	<path fill="#231F20" transform="scale(2.26367 2.26367)" d="M625.782 665.181C626.396 665.131 625.997 665.116 626.935 665.509C628.502 668.25 629.382 671.352 630.405 674.329C617.502 676.347 606.233 679.261 594.141 684.333C593.059 684.637 593.029 684.811 591.911 684.425C590.756 682.328 590.846 679.41 590.516 677.052C600.965 670.486 613.584 666.686 625.782 665.181Z"/>
	<path fill="#FEFEFE" transform="scale(2.26367 2.26367)" d="M568.171 514.798C574.991 515.605 581.729 516.717 588.397 518.37C584.972 533.826 580.386 546.374 570.055 558.657C555.278 576.227 535.171 586.205 512.378 588.123C506.208 588.726 500.589 588.261 494.491 587.238C497.134 580.361 499.959 573.578 502.849 566.801C510.597 568.552 519.214 568.142 526.902 566.289C541.948 562.662 554.438 553.399 562.377 540.121C565.577 534.768 570.777 524.604 569.084 518.273L568.171 514.798Z"/>
	<path fill="#FEFEFE" transform="scale(2.26367 2.26367)" d="M562.332 496.88C562.996 505.796 561.994 514.295 564.429 523.094C559.043 533.947 555.296 543.395 545.584 551.298C533.633 561.021 519.787 563.45 504.786 561.964L506.759 556.396C507.814 552.831 508.897 549.219 509.327 545.516C510.552 534.959 505.944 528.079 499.735 520.282C502.789 520.755 505.868 521.004 508.96 520.972C530.539 520.748 547.524 512.101 562.332 496.88Z"/>
	<path fill="#FEFEFE" transform="scale(2.26367 2.26367)" d="M593.397 521.898C600.053 522.345 606.759 523.658 613.296 524.951C640.262 530.283 664.239 540.937 684.632 559.637C716.807 589.142 722.8 631.759 728.048 672.694C729.576 684.616 731.999 697.166 732.496 709.145C731.374 710.032 730.513 709.777 729.125 709.811L712.854 710.035C718.655 670.411 715.859 618.063 691.572 584.75C673.241 559.605 646.595 545.085 617.59 535.833C609.025 533.101 600.239 530.553 591.341 529.187L593.397 521.898Z"/>
	<path fill="#FEFEFE" transform="scale(2.26367 2.26367)" d="M385.957 292.598C401.603 292.394 417.269 292.55 432.915 292.66C439.222 292.704 445.744 292.148 452.014 292.602C453.866 292.736 455.749 293.044 457.495 293.692C460.526 294.818 462.692 297.154 463.988 300.077C469.954 313.536 462.231 338.342 457.207 351.619C456.364 351.448 455.525 351.289 454.672 351.179C452.09 350.845 450.765 351.348 448.732 352.889C447.662 354.828 448.219 357.377 447.261 358.925C444.368 363.601 431.617 365.705 426.51 366.212C414.987 367.356 400.024 367.135 389.553 361.628C386.791 360.176 384.406 358.144 382 356.178C381.246 334.976 382.404 313.51 385.957 292.598Z"/>
	<path fill="#231F20" transform="scale(2.26367 2.26367)" d="M429.119 314.42C429.626 314.568 430.136 314.708 430.632 314.89C433.154 315.818 434.783 318.262 435.853 320.613C438.821 327.137 438.881 337.338 436.178 343.933C434.703 347.532 432.869 349.562 429.317 351.086C429.091 351.031 428.862 350.986 428.638 350.921C425.862 350.112 424.167 348.056 422.912 345.542C419.767 339.242 419.894 329.779 422.126 323.204C423.498 319.16 425.261 316.36 429.119 314.42Z"/>
	<path fill="#FEFEFE" transform="scale(2.26367 2.26367)" d="M388.793 533.675C388.97 533.652 389.148 533.626 389.326 533.604C390.249 533.491 391.442 533.281 392.34 533.594C396.354 534.992 401.673 540.888 405.081 543.566C386.463 543.167 369.156 549.175 353.52 559.098C315.553 583.193 295.864 631.79 286.52 674.079C285.332 679.459 281.483 695.005 283.088 699.765C284.296 703.35 287.373 707.111 289.416 710.312C284.762 710.392 280.822 711.178 277 714.099C274.035 716.365 271.675 719.722 270.763 723.355C268.749 731.376 269.952 741.112 269.951 749.399L269.908 805.846C269.934 815.349 270.859 825.536 269.798 834.93L269.17 835.133L267.165 833.896C267.005 833.783 266.842 833.672 266.683 833.556C252.689 823.3 244.876 808.158 242.428 791.153C240.699 779.143 241.175 766.669 243.043 754.705C251.195 702.513 289.993 614.983 321.615 572.658C338.26 550.38 361.315 537.671 388.793 533.675Z"/>
	<path fill="#FEFEFE" transform="scale(2.26367 2.26367)" d="M526.447 293.106C536.748 292.735 547.283 293.189 557.609 293.167C567.848 293.145 578.378 292.617 588.588 293.286C591.252 293.461 594.926 293.661 597.328 294.864C599.756 296.08 601.25 299.56 602.021 301.993C604.27 309.097 603.626 336.14 602.408 344.1C601.851 347.737 600.876 351.303 599.163 354.575C596.301 360.043 592.283 363.56 586.376 365.286L584.2 365.788C566.299 369.767 543.833 369.704 527.9 359.407C519.773 354.154 514.191 346.591 512.169 337.072C510.046 327.082 509.064 309.311 514.997 300.479C517.811 296.291 521.566 294.059 526.447 293.106Z"/>
	<path fill="#231F20" transform="scale(2.26367 2.26367)" d="M547.284 314.473C547.911 314.411 548.848 314.253 549.495 314.362C551.302 314.665 552.942 316.418 553.877 317.909C557.534 323.742 557.532 333.652 556.175 340.21C555.223 344.812 553.592 349.479 549.501 352.138C549.244 352.132 548.986 352.136 548.729 352.118C546.538 351.971 544.969 350.925 543.588 349.278C539.943 344.928 539.442 337.541 539.799 332.061C540.23 325.445 542.17 318.942 547.284 314.473Z"/>
	<path fill="#FEFEFE" transform="scale(2.26367 2.26367)" d="M560.528 225.219C574.993 224.286 592.048 224.21 604.535 232.39C599.129 252.252 610.157 272.194 616.344 290.46C618.746 297.552 620.416 304.684 621.842 312.016C617.869 310.962 613.784 310.757 609.701 310.516C609.456 304.434 608.899 297.423 604.621 292.692C600.713 288.371 593.087 287.296 587.514 287.066C575.474 286.57 563.286 286.961 551.225 286.908C542.446 286.87 532.542 285.699 523.943 287.317C519.608 288.132 516.335 289.472 513.058 292.512C506.089 298.977 504.785 307.869 504.437 316.833C500.163 314.822 495.655 312.692 490.958 311.93C483.909 310.786 478.869 313.6 473.352 317.548L472.406 318.117C471.772 316.341 471.989 314.382 471.985 312.52C471.97 304.449 471.84 297.915 465.929 291.787C463.656 289.43 460.535 287.652 457.335 286.923C450.764 285.424 442.676 286.466 435.899 286.434L387.498 286.348C394.361 264.235 404.905 240.356 424.956 227.087C470.338 238.412 514.92 227.191 560.528 225.219Z"/>
	<path fill="#231F20" transform="scale(2.26367 2.26367)" d="M554.053 256.198C554.468 256.193 554.883 256.184 555.298 256.197C561.949 256.402 569.203 258.008 573.858 263.135C575.592 265.045 576.438 266.861 576.249 269.436C575.353 270.622 575.398 270.558 573.929 270.827C572.4 270.457 571.672 269.582 570.611 268.501L570.156 268.031C563.031 262.296 557.903 262.931 549.503 263.103C547.681 263.141 546.249 263.136 544.938 261.874C544.696 260.488 544.765 259.968 545.379 258.701C547.88 256.654 550.964 256.541 554.053 256.198Z"/>
	<path fill="#231F20" transform="scale(2.26367 2.26367)" d="M432.251 257.663C432.71 257.658 433.169 257.653 433.628 257.659C438.407 257.721 445.134 258.768 448.574 262.35C449.028 263.778 448.973 263.867 448.502 265.3L447.713 265.884L447.754 265.88C445.681 265.952 443.789 265.433 441.772 265.011C434.936 263.581 429.907 263.763 423.361 266.143C419.113 268.028 415.158 272.246 410.689 273.048C409.507 272.66 409.571 272.737 409.01 271.63C408.992 269.908 409.239 268.756 410.336 267.38C414.999 261.528 425.094 258.536 432.251 257.663Z"/>
	<path fill="#FEFEFE" transform="scale(2.26367 2.26367)" d="M410.054 447.558C412.211 447.414 413.805 447.399 415.862 448.174C417.593 448.827 419.753 449.501 420.586 451.279C419.96 454.454 412.841 458.382 410.48 460.972C407.883 463.821 405.885 467.074 404.6 470.711C403.646 473.413 402.322 477.788 403.59 480.442C404.615 481.01 405.068 481.214 406.273 480.719C406.435 480.652 407.093 480.172 407.225 479.97C408.166 478.524 408.226 476.1 408.842 474.468C409.654 472.318 411.003 470.199 412.176 468.225C415.996 461.796 420.496 458.218 427.73 456.376C432.995 457.523 436.277 459.445 440.033 463.2C435.661 465.339 432.554 467.459 430.081 471.874C428.051 475.498 425.811 482.138 427.188 486.176C427.658 487.553 428.359 488.354 429.657 488.948C433.909 485.876 431.629 474.277 438.781 469.481C442.572 466.939 448.675 466.943 452.965 467.866C455.88 468.493 459.58 469.723 461.191 472.458C465.155 479.186 453.557 484.803 452.555 490.474C452.417 491.256 452.719 491.395 453.123 491.999C454.97 492.76 456.504 493.082 458.514 492.981C460.196 492.896 461.204 492.862 462.723 493.654C472.86 498.936 500.208 525.657 503.534 536.766C504.871 541.229 503.809 546.835 502.596 551.258C499.205 563.623 493.129 575.913 488.299 587.804C478.04 613.059 466.862 637.835 455.328 662.527C447.867 678.501 440.604 694.418 432.256 709.962L413.566 709.959L325.88 710.045C343.257 690.465 359.208 669.484 375.038 648.646L438.09 564.313C444.289 567.078 451.144 570.567 457.754 572.12C459.071 572.429 459.727 572.268 460.876 571.639C461.464 570.287 461.589 570.067 461.382 568.624C460.61 567.581 459.888 566.995 458.707 566.49C456.347 565.48 453.706 565.05 451.288 564.139C444.719 561.662 438.325 558.627 432.182 555.238C413.656 545.016 382.6 522.315 377.02 501.494C374.258 491.184 377.221 479.083 382.386 469.985C388.295 459.575 398.443 450.763 410.054 447.558Z"/>
	<path fill="#FEFEFE" transform="scale(2.26367 2.26367)" d="M659.309 304.128C662.073 303.82 665.162 304.075 667.905 304.543C675.76 305.883 682.287 310.07 686.876 316.551C694.173 326.855 695.764 340.689 693.657 352.896C691.114 367.63 682.798 380.492 670.515 389.007C659.109 396.914 646.843 399.98 633.154 397.516C627.049 396.417 631.627 394.287 629.099 390.653C627.776 390.263 627.558 390.357 626.212 390.732C624.612 392.175 623.882 394.202 623.421 396.267C623.032 398.009 622.751 399.872 623.781 401.434C626.408 402.918 629.802 403.246 632.741 403.841C616.997 433.871 595.801 460.968 565.383 477.277C540.12 490.822 508.98 497.322 480.477 492.77C473.889 491.718 467.539 489.637 461.172 487.699C464.243 484.557 467.328 480.781 467.62 476.212C467.813 473.198 466.643 470.457 464.598 468.272C459.643 462.98 452.561 461.95 445.711 461.758C444.853 460.725 443.994 459.675 443.068 458.703C438.24 453.632 433.013 451.578 426.115 451.372C424.319 447.567 422.012 444.491 417.998 442.847C411.962 440.375 405.219 442.703 399.576 445.157C396.56 440.349 394.032 435.619 391.969 430.323C384.215 409.492 383.952 387.285 382.37 365.426C385.793 367.313 389.253 369.023 392.988 370.21C406.011 374.349 424.327 374.442 437.476 370.804C442.08 369.529 446.191 367.549 450.433 365.38C454.98 374.403 461.6 385.865 471.137 390.286C473.501 391.382 475.873 392.342 478.419 391.37C479.207 390.536 479.8 390.023 479.845 388.777C479.946 385.946 472.017 384.028 469.972 382.135C462.197 374.937 457.865 366.951 453.842 357.264C459.674 359.218 470.401 363.331 476.282 363.432C477.441 363.452 478.535 363.244 479.305 362.286C481.794 359.185 479.902 342.482 488.695 334.407C493.58 329.921 498.76 334.474 504.171 334.695C504.512 334.709 504.853 334.711 505.195 334.719C506.79 343.604 509.723 350.933 516.004 357.58C527.827 370.091 544.909 373.721 561.487 374.178C573.422 374.507 590.085 373.247 599.143 364.533C611.645 352.506 609.309 332.355 609.551 316.576C625.173 316.168 621.302 320.131 630.677 328.686L631.661 328.543C634.314 325.439 635.512 321.418 637.857 318.097C642.906 310.946 650.594 305.441 659.309 304.128Z"/>
	<path fill="#231F20" transform="scale(2.26367 2.26367)" d="M520.279 402.438C521.753 402.546 523.043 403.121 524.204 404.027C524.335 405.185 524.218 405.649 523.43 406.553C519.044 411.579 496.613 422.619 489.77 425.243C485.308 426.954 480.862 428.212 476.123 428.837C475.391 428.862 474.729 428.7 474.011 428.569C472.93 427.586 472.75 427.463 472.375 426.068C473.636 423.587 475.577 423.589 478.083 422.89C493.062 418.711 506.74 409.956 520.279 402.438Z"/>
	<path fill="#FEFEFE" transform="scale(2.26367 2.26367)" d="M519.825 715.753L666.65 715.529L712.983 715.701C720.199 715.717 727.681 715.201 734.863 715.665C738.037 715.87 741.025 717.376 743.077 719.836C745.035 722.185 745.735 725.723 745.979 728.69C746.55 735.63 746.074 742.943 746.074 749.927L746.059 793.327L746.064 827.246C746.09 833.929 746.529 840.921 745.923 847.573C745.54 851.781 744.269 852.868 741.098 855.466C731.629 855.889 722.048 855.617 712.568 855.623L660.63 855.623L501.625 855.63L348.242 855.604L307.231 855.845C298.86 855.887 289.74 856.702 281.539 855.031C280.859 854.512 280.184 853.982 279.552 853.404C276.838 850.922 275.592 848.56 275.386 844.899C274.964 837.406 275.296 829.734 275.312 822.216L275.492 774.868L275.34 744.444C275.3 739.193 274.791 733.531 275.42 728.339C275.788 725.296 276.799 722.012 278.955 719.751C280.877 717.736 282.977 716.464 285.741 716.116C293.87 715.09 302.801 715.767 310.995 715.824L355.118 715.947L519.825 715.753Z"/>
</svg>
