<?xml version="1.0" encoding="utf-8" ?>
<svg xmlns="http://www.w3.org/2000/svg" xmlns:xlink="http://www.w3.org/1999/xlink" width="2318" height="2318">
	<path fill="white" transform="scale(2.26367 2.26367)" d="M0 0L0 1024L1024 1024L1024 0L0 0Z"/>
	<path transform="scale(2.26367 2.26367)" d="M394.358 80.3217C395.059 79.3672 395.786 78.4318 396.572 77.5454C402.74 70.5875 410.398 64.5364 417.842 58.9776C451.723 33.677 491.813 20.2329 533.831 17.7153C544.061 17.2517 554.302 17.4079 564.504 18.295C620.292 23.1462 668.456 47.8992 704.413 90.7074C743.542 137.291 755.806 196.863 750.064 256.343C749.02 267.151 747.718 278.017 746.018 288.742C744.327 299.405 742.215 310.087 741.283 320.847C746.589 321.459 751.17 322.853 755.457 326.163C764.285 332.979 767.907 344.546 769.099 355.211C772.829 388.579 750.5 443.089 729.766 469.408C726.67 473.338 723.314 477.075 719.733 480.569C715.819 484.389 709.604 488.161 707.096 492.985C702.614 501.608 700.967 512.184 697.29 521.254C686.406 548.103 672.037 571.295 654.105 593.939C668.341 607.911 679.385 620.694 692.33 635.643C698.686 637.697 705.364 639.117 711.845 640.761L753.426 651.094L866.539 680.434C892.425 687.242 927.71 695.338 950.544 708.638C968.503 719.099 984.688 736.873 997.468 753.163C993.33 759.803 988.775 766.219 984.133 772.515C895.675 892.478 753.452 976.88 606.308 999.014C608.504 989.56 610.149 979.919 612.031 970.395L624.627 905.207L642.714 810.581C644.831 799.406 647.317 788.299 649.277 777.096C690.294 780.97 723.081 816.255 751.647 842.762C738.96 771.294 706.089 671.361 656.694 616.615C656.886 623.697 657.431 630.676 658.146 637.722C658.777 643.943 659.901 650.549 659.264 656.798C658.297 666.285 655.175 676.069 652.799 685.315C647.71 705.116 642.152 724.756 636.595 744.429C633.908 753.943 627.965 779.143 623.717 786.535C621.395 790.576 618.116 794.349 615.327 798.097L597.3 822.181C576.856 849.613 555.955 876.956 536.432 905.047C540.157 938.602 542.131 972.503 546.616 1005.94C543.981 1006.42 541.269 1006.54 538.601 1006.75C536.103 981.693 532.833 956.707 530.005 931.682C528.755 920.616 526.988 909.275 526.508 898.155C530.091 893.313 533.717 888.504 537.027 883.469C527.721 877.93 518.172 872.762 508.723 867.468L468.002 844.968C459.193 840.13 450.122 834.533 440.722 830.963C437.454 825.054 433.483 819.401 429.781 813.76C422.599 802.816 415.251 792.017 407.897 781.191C399.251 768.464 391.06 755.4 382.607 742.541C363.28 713.142 321.385 652.569 321.519 617.161C321.585 599.825 332.575 588.544 344.161 577.139C344.147 574.919 343.918 572.764 343.664 570.564C325.736 585.916 310.87 603.617 300.221 624.77C293.596 637.929 288.75 650.948 287.387 665.739C283.512 707.786 299.481 768.819 310.299 810.126C318.254 840.499 326.626 870.7 336.468 900.522C341.423 891.183 346.169 881.61 351.676 872.585C365.221 850.382 387.907 821.136 412.042 810.819C423.885 830.251 434.783 850.056 445.664 870.028C470.048 914.782 492.507 960.225 513.235 1006.8C467.741 1006.03 422.914 1003.23 378.472 992.533C349.24 985.5 320.518 976.674 292.633 965.395C203.831 929.477 118.081 869.475 57.6052 794.83C46.4856 781.105 35.3748 767.137 26.1405 752.047C75.8381 725.635 128.928 705.382 181.448 685.401C211.449 673.988 241.281 662.106 271.435 651.091C285.53 619.651 301.827 588.539 328.221 565.57C332.617 561.744 337.461 557.489 342.593 554.732C342.337 543.252 341.23 531.651 340.52 520.185C339.904 510.223 339.795 499.765 338.098 489.931C336.768 482.224 334.39 474.591 332.341 467.041C324.551 467.15 318.058 466.436 311.408 462.005C291.884 448.993 263.491 393.947 258.786 370.884C254.807 351.381 257.064 329.45 268.327 312.632C275.701 301.622 285.602 295.614 298.439 292.999C294.511 248.757 292.472 201.191 311.643 159.918C326.834 127.212 360.046 92.8415 394.358 80.3217ZM715.505 368.771C707.331 389.785 695.884 406.956 674.58 416.309C657.898 423.633 637.744 423.619 620.862 416.962C603.506 410.118 588.79 395.381 581.51 378.252C578.621 371.453 577.221 364.122 576.8 356.772C576.606 353.375 576.863 349.744 576.078 346.419C574.498 339.728 569.146 331.253 562.575 328.675C556.04 326.111 547.385 326.859 541.11 329.717C538.177 331.053 535.735 332.874 533.525 335.205C533.684 357.858 527.918 374.713 511.749 391.089C498.324 404.687 480.257 412.674 461.088 412.722C441.978 412.77 423.583 405.626 410.058 392.016C390.621 372.458 387.486 347.924 387.294 321.618C376.7 320.35 366.031 318.759 355.37 318.252L348.895 362.838C347.669 371.118 346.143 379.456 345.291 387.781C340.327 378.769 336.528 369.322 333.708 359.428C330.207 347.147 327.1 324.287 320.028 314.512C317.805 311.44 314.088 309.677 310.535 308.652C304.015 306.771 297.02 306.922 290.982 310.276C281.976 315.279 275.79 325.914 273.235 335.619C269.948 348.106 270.928 361.422 273.853 373.872C275.901 380.263 278.185 386.461 281.022 392.555C287.095 405.597 308.754 445.463 320.538 451.21C327.915 454.807 338.682 451.105 342.462 453.775C343.319 454.38 343.809 455.957 344.151 456.903C346.522 463.467 347.661 470.692 349.495 477.449C352.728 489.361 356.895 501.549 361.782 512.905C367.138 525.35 374.196 537.374 382.163 548.332C401.771 575.299 440.768 614.189 471.053 628.831C502.213 643.896 546.376 648.568 579.146 637.033C619.589 622.798 660.121 568.829 677.991 531.105C697.448 490.032 704.966 445.169 711.484 400.573C712.855 391.188 715.643 378.05 715.505 368.771L715.873 368.502L715.505 368.771ZM534.183 61.0171C515.74 67.4886 500.068 80.8667 491.515 98.5418C487.996 105.812 485.622 113.136 484.615 121.159L484.92 121.733L485.206 121.64C490.961 107.324 497.827 93.7762 508.352 82.2894C513.863 76.2759 520.484 71.4359 527.077 66.6858C528.59 65.5956 534.034 62.5833 534.562 61.1326L534.183 61.0171ZM596.139 74.7189C575.235 75.6077 555.374 80.4778 540.736 96.4367C532.656 105.246 526.59 116.445 523.613 128.009C529.918 117.551 536.376 108.04 545.239 99.53C563.352 83.676 586.418 78.1592 610.169 79.7757C620.132 80.4538 629.794 82.286 639.494 84.5875C627.192 76.816 610.379 75.0904 596.139 74.7189ZM621.214 101.674C603.118 104.1 584.986 112.75 573.25 127.094C595.858 112.248 611.531 105.374 639.002 107.639C656.69 110.219 671.831 115.986 687.039 125.349C671.203 109.978 647.935 101.094 625.945 101.444C624.371 101.469 622.775 101.446 621.214 101.674ZM464.793 145.718C441.38 146.963 418.703 150.634 400.214 166.336C399.386 183.582 401.812 208.841 397.944 224.804C394.024 240.98 380.579 249.662 372.163 262.992C365.284 273.887 361.917 286.887 359.239 299.367C368.306 300.626 385.052 302.143 393.885 300.183C405.528 297.599 416.188 292.742 428.13 290.787C455.209 286.353 493.024 290.652 515.749 307.145C519.671 309.992 522.787 313.366 526.002 316.954C549.513 309.791 564.109 310.314 585.897 321.852C593.481 316.505 600.837 311.465 609.502 307.975C633.867 299.457 666.223 298.846 689.796 310.32C698.97 314.785 705.877 320.503 712.091 328.546C711.879 312.549 709.383 296.953 707.258 281.143C704.029 257.106 700.492 233.529 695.644 209.747C694.129 202.317 693.149 193.646 690.41 186.595C688.489 181.651 684.121 177.057 680.39 173.403C667.225 160.512 648.638 152.411 630.108 152.654C607.666 152.948 586.32 160.566 563.559 159.049C551.964 158.276 540.662 155.76 529.303 153.463C508.338 149.225 486.318 144.739 464.793 145.718ZM439.23 298.674C426.514 300.388 411.409 303.939 403.229 314.768C396.303 323.937 396.977 336.78 398.692 347.551C401.378 364.425 410.367 381.182 424.441 391.214C437.925 400.825 454.904 404.629 471.206 401.811C474.268 401.282 477.237 400.43 480.213 399.55C497.353 393.376 509.801 382.296 517.618 365.721C522.518 355.33 524.809 342.824 520.69 331.772C516.372 320.185 503.903 311.55 493.006 306.815C477.253 299.969 456.312 296.792 439.23 298.674ZM640.666 311.209C625.223 312.14 606.484 316.915 595.732 328.873C588.768 336.618 586.328 347.555 586.957 357.748C587.86 372.388 595.884 387.042 606.805 396.636C618.812 407.184 634.964 413.53 651.068 412.31C652.056 412.235 653.039 412.118 654.02 411.987C670.517 409.795 683.947 401.491 694.043 388.304C702.861 376.787 708.461 359.719 706.335 345.176C705.044 336.345 700.019 328.777 692.847 323.575C678.615 313.253 657.794 310.356 640.666 311.209ZM740.178 334.481C733.399 339.619 729.211 346.597 728.047 354.982C726.77 364.189 725.927 373.463 724.523 382.65C729.156 371.522 739.818 355.957 751.245 351.253C751.881 350.991 752.521 350.741 753.162 350.491C745.423 361.513 735.296 374.025 731.229 386.92C725.571 404.855 738.423 416.485 720.071 433.895L716.874 436.776C714.91 447.677 713.151 458.615 711.343 469.542C733.903 447.102 755.092 396.25 755.255 364.488C755.299 355.937 753.851 344.616 747.609 338.223C745.434 335.996 743.23 334.96 740.178 334.481ZM722.177 397.367C720.324 406.841 718.732 417.221 718.143 426.849L721.642 423.557C724.274 420.076 726.723 416.432 728.564 412.462C725.218 407.395 723.034 403.469 722.177 397.367ZM355.093 528.374C357.301 560.458 359.514 592.758 359.592 624.925C359.612 632.909 359.456 640.876 358.907 648.842C358.471 655.165 356.369 662.896 357.458 669.081C358.782 676.609 363.383 684.545 367.056 691.221C380.266 715.228 396.262 738.233 411.569 760.958C415.094 766.191 420.325 775.674 424.769 779.661C428.693 783.181 434.898 785.456 439.719 787.601C469.696 800.94 501.841 804.192 534.296 801.523C557.143 799.645 580.68 793.63 600.036 780.975C605.313 777.525 610.13 773.365 614.962 769.327C618.336 757.909 621.258 746.333 624.784 734.966L636.825 690.534C639.479 680.837 643.297 670.285 644.099 660.285C644.652 653.401 642.554 645.571 642.14 638.587C641.514 628.007 642.168 617.423 642.381 606.841C617.027 635.534 587.504 654.479 548.336 656.894C516.368 658.866 481.581 652.14 453.906 635.718C442.007 628.657 431.026 619.462 420.696 610.301C404.211 595.681 388.314 579.714 375.303 561.891C368.699 552.844 363.288 543.519 358.183 533.563C357.347 531.933 356.48 529.558 355.093 528.374Z"/>
	<path transform="scale(2.26367 2.26367)" d="M411.132 286.619C411.381 286.309 411.628 285.997 411.891 285.698C424.555 271.318 443.543 268.866 461.587 267.711C474.025 266.973 488.295 267.878 500.198 271.785C511.931 275.637 519.107 283.56 524.575 294.323C511.59 290.253 492.577 285.402 479.237 283.141C452.492 279.123 437.194 280.423 411.132 286.619Z"/>
	<path transform="scale(2.26367 2.26367)" d="M697.725 307.677C688.668 302.231 679.77 298.729 669.526 296.16C639.892 288.729 615.735 295.407 586.279 297.158C588.014 294.055 589.914 291.49 592.489 289.02C605.177 277.942 625.407 277.014 641.378 278.071C659.313 279.258 678.977 283.854 691.282 297.957C693.706 300.735 696.349 304.25 697.725 307.677Z"/>
	<path transform="scale(2.26367 2.26367)" d="M697.725 307.677L697.916 307.906L697.725 307.677Z"/>
	<path transform="scale(2.26367 2.26367)" d="M452.438 331.886C445.046 334.094 437.482 336.576 430.38 339.588C428.137 340.54 423.8 343.584 421.605 343.816C421.254 343.853 420.906 343.718 420.556 343.669L420.342 342.491C420.881 340.596 421.639 338.933 422.886 337.387C431.19 327.092 450.588 320.237 463.299 318.683C469.039 317.786 476.198 318.181 481.846 319.631C490.486 321.848 497.47 327.265 501.95 334.956C504.421 339.198 507.153 345.592 505.848 350.571C504.58 350.897 503.948 349.716 503.304 348.702C498.356 340.915 494.921 335.94 486.768 331.139C486.824 331.402 486.883 331.664 486.936 331.927C488.065 337.57 488.025 343.373 484.509 348.229C480.987 353.091 476.048 354.642 470.423 355.558C468.382 355.398 466.252 355.209 464.278 354.653C459.638 353.345 455.511 350.299 453.206 346.029C450.64 341.275 451.01 336.86 452.438 331.886ZM470.353 334.064C469.088 334.601 468.224 334.892 467.467 336.121C467.407 337.438 467.446 337.342 468.329 338.338C469.68 338.93 470.582 338.8 471.989 338.626C473.27 337.893 474.227 337.455 474.886 336.055C474.673 335.392 474.728 335.038 474.067 334.659C472.936 334.009 471.62 334.1 470.353 334.064Z"/>
	<path transform="scale(2.26367 2.26367)" d="M591.899 354.987C592.683 349.863 594.51 345.684 597.804 341.667C605.094 332.776 615.9 328.38 627.099 327.194C636.489 326.468 646.162 328.147 654.481 332.669C665.548 338.686 672.258 348.232 675.819 360.109C663.502 350.837 658.569 342.97 643.141 337.977C644.396 339.473 645.294 340.911 645.883 342.79C647.322 347.385 646.032 351.338 643.967 355.453C642.277 357.605 640.416 359.313 637.927 360.514C632.797 362.989 626.46 363.195 621.153 361.156C617.188 359.633 613.572 356.688 611.935 352.687C610.505 349.189 611.103 346.39 612.533 343.046L612.822 342.383L612.352 341.77C606.913 341.514 596.125 351.282 591.899 354.987ZM623.3 341.337C622.268 342.569 621.764 342.923 621.542 344.545C622.791 346.06 624.085 346.236 625.995 346.439C626.829 345.372 627.601 344.61 627.594 343.179C626.916 342.179 626.452 341.863 625.254 341.572C624.631 341.421 623.933 341.393 623.3 341.337Z"/>
	<path transform="scale(2.26367 2.26367)" d="M313.703 358.998C311.016 352.429 307.797 343.872 302.529 338.892C300.654 337.119 298.363 335.769 295.708 335.949C285.367 336.649 284.153 362.913 280.85 366.428C280.013 365.652 280.004 365.367 279.797 364.275C278.22 355.978 280.202 342.538 285.053 335.467C287.812 331.445 291.099 329.574 295.794 328.605C299.871 329.103 303.211 330.275 306.49 332.814C315.823 340.04 327.865 368.825 328.847 380.838C329.009 382.824 328.824 384.247 327.449 385.788C326.158 386.287 325.973 386.439 324.646 386.134C320.667 382.264 318.993 374.232 316.624 369.132C311.438 382.147 312.713 398.505 321.837 409.558C324.176 412.391 329.592 414.357 330.086 418.151C330.257 419.471 329.991 420.115 329.26 421.17C328.554 421.47 327.949 421.678 327.168 421.653C321.253 421.462 316.298 418.185 312.432 414.002C306.975 407.139 303.695 397.977 303.182 389.249C302.506 377.774 306.074 367.513 313.703 358.998Z"/>
	<path transform="scale(2.26367 2.26367)" d="M575.931 461.888C575.557 461.836 575.227 461.614 574.882 461.462C576.525 459.23 583.312 457.752 586.024 456.178C588.75 454.596 591.295 452.476 592.065 449.291C592.68 446.749 592.544 443.889 592.16 441.323C589.891 426.188 574.412 432.498 569.88 424.122C567.479 419.686 563.754 366.876 564.569 359.618C565.395 352.26 568.74 344.58 570.554 337.325C572.752 342.99 572.272 355.186 572.765 361.585C573.533 371.528 574.676 381.443 575.48 391.385C576.273 401.197 576.706 411.131 578.031 420.882C584.934 421.915 590.862 424.182 595.216 429.974C599.02 435.036 600.57 441.697 599.665 447.942C599.034 452.301 597.094 456.382 593.464 459.009C588.376 462.691 581.879 462.705 575.931 461.888Z"/>
	<path transform="scale(2.26367 2.26367)" d="M494.866 362.649C487.374 366.336 479.32 367.633 471.006 367.451C453.898 367.075 436.254 360.842 424.224 348.362C428.831 349.309 433.485 352.694 438.071 354.205C457.164 360.495 479.135 363.62 499.103 360.054L494.866 362.649Z"/>
	<path transform="scale(2.26367 2.26367)" d="M599.158 366.006C604.847 365.987 610.684 367.397 616.323 368.172C637.405 371.066 652.943 370.521 671.085 358.768L671.606 358.977C672.316 359.965 672.121 359.782 671.95 360.886C668.257 365.749 663.126 368.972 657.561 371.327C641.911 377.951 621.849 375.956 606.378 369.739C603.813 368.644 601.51 367.526 599.158 366.006Z"/>
	<path transform="scale(2.26367 2.26367)" d="M524.217 459.067C523.344 459.456 522.469 459.699 521.535 459.893C515.703 461.1 508.994 459.833 504.126 456.412C500.114 453.593 497.141 449.249 496.314 444.383C495.351 438.713 497.319 432.512 500.647 427.921C504.19 423.036 509.223 419.998 515.176 419.155C516.743 419.225 518.254 419.37 519.792 419.697C521.19 419.993 523.208 420.389 524.036 421.648C521.415 422.447 518.568 421.812 515.776 422.829C510.855 424.62 507.097 428.911 505.105 433.655C503.658 437.098 503.244 440.981 504.857 444.45C507.94 451.079 517.721 456.454 524.217 459.067Z"/>
	<path transform="scale(2.26367 2.26367)" d="M581.591 451.348C578.888 452.701 575.991 453.665 573.307 455.058C566.304 458.693 559.732 463.756 551.594 464.363C542.068 465.074 535.745 458.894 528.016 454.59C524.635 452.708 520.632 451.557 517.734 448.911C516.284 447.588 515.961 446.547 515.828 444.633C531.111 442.457 538.673 457.375 550.24 457.42C560.706 457.461 568.84 444.594 579.262 446.126C580.88 446.363 581.7 446.925 582.702 448.172C582.704 449.791 582.495 449.976 581.591 451.348Z"/>
	<path transform="scale(2.26367 2.26367)" d="M459.534 506.157C459.162 506.903 458.797 507.713 458.319 508.396C457.642 509.367 457.194 509.652 456.049 509.772C455.556 509.325 455.2 508.938 454.992 508.288C453.947 505.031 455.053 500.614 456.559 497.665C458.942 492.999 462.546 491.028 467.329 489.547C470.484 489.168 473.628 489.486 476.785 489.703C468.127 493.517 463.633 497.499 459.534 506.157Z"/>
	<path transform="scale(2.26367 2.26367)" d="M620.115 515.52C619.439 516.28 618.669 516.984 617.949 517.704L617.645 517.484L617.446 514.056C617.152 508.128 613.937 502.725 611.904 497.234C612.62 497.473 613.316 497.705 613.996 498.037C617.291 499.644 620.186 502.047 621.366 505.621C622.563 509.248 621.683 512.194 620.115 515.52Z"/>
	<path transform="scale(2.26367 2.26367)" d="M602.656 516.961C598.477 518.326 594.392 520.341 590.263 521.897C580.177 525.698 570.079 527.585 559.346 528.223C534.443 529.703 507.434 524.511 485.292 512.874C481.44 510.85 477.056 508.63 473.891 505.585C472.685 504.426 472.6 503.991 472.599 502.344C478.927 503.003 485.516 505.722 491.739 507.205C504.73 510.3 518.147 512.686 531.47 513.699C545.647 514.776 560.03 514.936 574.189 513.501C582.189 512.69 590.444 510.227 598.492 510.613C603.045 510.831 607.194 512.27 611.322 514.088L602.656 516.961Z"/>
	<path transform="scale(2.26367 2.26367)" d="M564.351 552.973C562.015 555.299 559.112 557.202 556.084 558.478C547.416 562.133 536.604 561.268 528.025 557.756C521.108 554.924 516.022 550.113 513.131 543.236C517.295 544.322 521.363 546.167 525.556 547.326C540.309 551.406 554.67 550.723 569.433 547.156C567.906 549.253 566.127 551.089 564.351 552.973Z"/>
</svg>
