<?xml version="1.0" encoding="utf-8" ?>
<svg xmlns="http://www.w3.org/2000/svg" xmlns:xlink="http://www.w3.org/1999/xlink" width="2318" height="2318">
	<path fill="white" transform="scale(2.26367 2.26367)" d="M0 0L0 1024L1024 1024L1024 0L0 0Z"/>
	<path transform="scale(2.26367 2.26367)" d="M418.037 57.4896C420.823 53.855 423.576 50.1557 426.607 46.7202C452.425 17.4525 492.658 4.21768 530.604 1.70954C538.081 1.05752 546.022 1.44878 553.507 1.95394C589.062 4.35343 624.105 15.7435 653.315 36.3778C678.12 53.9002 699.576 80.3653 709.578 109.164C712.418 117.339 714.023 125.693 715.51 134.19C718.773 137.27 721.486 140.692 723.914 144.464C755.001 192.74 740.876 259.229 729.75 311.55C727.043 324.279 724.865 337.108 722.082 349.822C725.143 348.459 728.157 347.068 731.469 346.435C735.794 345.608 740.141 345.962 743.818 348.573C747.784 351.389 749.643 356.001 750.39 360.655C751.708 368.87 751.098 377.698 750.553 385.985C748.238 421.149 737.796 449.747 716.847 478.152C712.849 483.572 708.721 486.667 701.969 487.681C701.073 513.853 690.03 543.543 676.693 565.922C672.758 572.525 667.111 578.203 663.397 584.86C660.03 590.896 658.446 598.866 656.498 605.511C663.922 612.641 671.151 619.988 678.138 627.547C683.587 633.443 694.358 647.304 700.452 651.093C705.054 653.955 711.362 655.503 716.488 657.307L741.853 666.332C815.786 692.646 890.446 715.767 966.419 735.465C975.081 716.934 982.279 698.435 988.572 678.956C984.625 674.161 981.117 668.958 977.225 664.102C968.875 653.683 960.009 643.718 950.738 634.112C889.43 570.584 809.545 523.641 727.492 492.255C742.592 470.077 755.049 448.051 761.4 421.724C766.59 400.212 772.475 362.308 760.481 343.053C756.154 336.107 750.036 332.728 742.297 330.878C744.525 321.383 746.256 311.719 748.238 302.165C757.857 255.786 765.371 206.514 748.725 160.809C746.071 153.522 742.648 146.344 738.607 139.723C736.029 135.499 732.598 131.362 730.77 126.764C728.581 121.259 728.256 114.934 726.41 109.254C721.58 94.3934 714.377 80.735 706.214 67.4742C797.022 104.978 876.94 168.073 932.056 249.664C1007.47 361.307 1037.56 495.954 1011.69 628.752C1007.14 652.12 1000.8 676.143 992.548 698.477C957.162 794.297 887.244 880.927 802.688 937.812C683.995 1017.66 539.978 1039.46 400.883 1012.09C342.905 1000.23 286.206 977.336 235.835 946.381C131.354 882.17 46.9776 774.846 18.4265 654.701C-12.536 524.409 7.91398 383.628 78.463 269.364C142.819 165.131 242.589 89.5536 358.461 50.9136C377.47 44.5746 397.164 39.8612 416.659 35.2643C413.044 37.8878 409.636 41.4736 405.741 43.6038C402.622 45.3097 398.646 46.0253 395.259 47.1595C390.626 48.7113 386.018 50.7801 381.629 52.9335C354.358 66.3131 331.356 89.3286 315.624 115.13C281.551 171.012 277.055 241.447 292.265 303.972C279.946 308.285 269.848 315.398 263.167 326.819C250.044 349.251 253.11 379.997 259.595 404.187C267.764 434.663 284.651 473.835 312.762 490.1C306.288 492.697 299.5 494.653 292.949 497.073C278.198 502.522 263.586 508.334 249.216 514.723C166.502 551.498 89.4179 606.936 35.3916 680.209C41.5782 698.242 47.879 716.433 56.5929 733.431L163.936 696.126L202.18 683.094C208.83 680.795 215.876 678.765 222.276 675.853C228.119 673.195 233.658 668.422 239.089 664.902L264.797 648.327C269.291 645.421 274.972 642.504 278.719 638.729C282.961 634.454 285.522 626.119 288.375 620.72C299.69 599.304 315.232 577.759 336.058 564.874C336.467 534.544 334.578 504.086 332.935 473.812C327.681 476.164 323.048 476.936 317.534 474.872C302.964 469.421 291.695 446.724 285.856 433.273C274.241 406.515 262.627 367.504 273.935 339.335C277.692 329.977 283.783 323.188 293.166 319.262C299.914 316.438 306.23 316.333 313.007 319.082C310.16 307.691 305.996 296.832 303.592 285.245C300.021 268.037 298.535 251.026 298.435 233.47C298.187 189.894 307.85 153.906 331.913 117.396C355.019 82.3389 376.556 65.9736 418.037 57.4896ZM516.709 41.3565C503.027 46.7623 486.97 61.2234 481.066 74.882C476.492 85.4626 475.951 97.4563 480.336 108.186C483.245 115.303 488.396 120.874 494.306 125.67C496.103 126.927 497.848 128.154 499.795 129.176C489.806 117.449 484.408 105.442 485.636 89.7529C486.955 72.8909 496.464 58.0007 509.206 47.3265C511.619 45.3051 514.468 43.5327 516.709 41.3565L516.997 41.1048L516.709 41.3565ZM396.228 81.9257C390.532 83.261 384.923 86.0195 379.711 88.6303C361.215 97.8966 346.23 109.842 335.192 127.652C333.779 129.931 332.42 132.199 331.484 134.722L332.167 134.134C335.49 131.236 338.486 127.84 341.737 124.826C351.526 115.75 361.768 106.504 372.219 98.1882C377.224 94.2063 382.615 90.6708 387.999 87.228C390.608 85.5599 393.897 83.9232 396.228 81.9257L396.497 81.6282L396.228 81.9257ZM547.34 113.716C551.273 111.174 554.891 107.402 558.626 104.459C567.937 97.1209 577.925 91.5221 588.902 87.0839C618.458 75.134 649.413 71.9417 679.2 84.5914L679.443 84.8775L679.2 84.5914C666.638 73.3044 640.163 67.6119 623.572 68.5445C595.934 70.0981 571.099 85.4293 553.092 105.822C551.087 108.092 548.486 110.898 547.34 113.716L547.112 113.926L547.34 113.716ZM611.785 114.088L611.503 114.372L611.785 114.088L612.338 114.044C618.521 113.521 624.606 112.144 630.79 111.59C649.159 109.945 668.542 111.685 686.037 117.692C689.745 118.965 693.131 120.779 696.748 122.176L697.122 122.579L697.864 122.998L697.122 122.579L696.748 122.176C690.954 114.719 675.45 108.933 666.493 106.992C652.038 103.86 637.978 105.639 623.859 109.556C619.938 110.644 615.19 111.884 611.785 114.088ZM327.381 156.197L327.116 156.498L327.381 156.197C331.647 152.563 335.565 148.324 339.772 144.574C348.329 136.948 357.284 129.657 366.237 122.501C373.793 116.462 382.574 111.656 389.84 105.368C387.24 105.84 384.685 106.89 382.228 107.845C363.309 115.204 348.004 127.232 335.709 143.301C332.661 147.285 329.431 151.595 327.381 156.197ZM368.735 164.891C349.932 170.783 323.09 193.188 314.309 210.986C313.969 211.677 313.944 211.799 313.727 212.432C318.267 208.872 322.411 204.588 326.638 200.657C334.468 193.377 342.319 186.095 350.373 179.062C355.48 174.602 364.684 168.987 368.735 164.891L368.998 164.628L368.735 164.891ZM695.503 169.616L695.852 169.84C704.503 176.365 711.726 184.138 718.494 192.556C721.967 196.875 725.244 201.554 729.178 205.463C728.308 200.807 726.468 195.941 724.156 191.809C718.409 181.542 707.103 173.098 695.852 169.84L695.503 169.616ZM320.726 179.241L320.415 179.597L320.122 179.998L320.415 179.597L320.726 179.241C322.929 177.439 324.889 175.017 326.899 172.974C330.573 169.237 334.342 165.671 338.363 162.302C350.196 152.388 364.603 143.63 378.997 138.005C384.19 135.976 389.995 134.79 395.024 132.517L395.766 132.174C386.28 131.497 375.542 134.373 366.755 137.747C350.82 143.866 338.755 154.528 328.342 167.849C325.623 171.326 322.516 175.215 320.726 179.241ZM373.261 204.407C359.714 207.594 349.592 215.63 342.377 227.299C341.903 228.065 341.633 228.764 341.367 229.619C344.572 226.68 347.84 223.85 351.277 221.183C355.336 218.034 371.394 207.449 373.261 204.407L373.427 204.124L373.261 204.407ZM392.081 762.003L392.353 762.283C397.087 772.989 408.542 789.942 416.059 799.208C419.466 803.407 423.552 807.337 426.697 811.684C426.18 811.471 426.012 811.416 425.462 811.109C419.713 807.896 414.337 803.352 409.444 798.987C374.446 767.77 345.143 712.158 330.949 667.987C324.643 648.359 317.214 618.456 325.336 598.971C327.776 593.118 333.037 589.008 335.603 583.453C336.209 582.142 336.375 581.179 335.819 579.853C318.486 590.34 306.72 610.078 297.791 627.767C291.956 639.326 292.167 651.303 291.698 663.99C289.549 722.113 301.844 781.472 316.106 837.537C320.892 856.351 325.756 875.316 331.8 893.77C348.547 874.994 364.063 855.39 383.636 839.349C393.287 831.439 405.538 822.325 418.776 823.863C432.042 825.405 437.739 832.955 441.36 845.038C442.334 848.286 443.103 851.682 445.367 854.323C445.512 854.491 445.665 854.652 445.813 854.818C446.232 855.289 446.594 855.704 447.151 856.024C450.336 857.858 459.917 857.91 463.921 858.389C474.862 859.699 485.671 862.071 496.162 865.45C506.788 868.871 516.589 873.187 526.564 878.103C528.01 878.815 531.565 881.052 532.943 880.711C533.802 879.595 534.089 879.075 534.184 877.662C532.225 875.179 489.062 848.446 483.308 844.646C476.597 840.214 470.144 835.277 463.68 830.487C443.209 815.317 424.881 798.473 407.361 779.986C402.068 774.401 397.902 767.564 392.353 762.283L392.081 762.003ZM574.821 793.205L575.061 792.798C582.208 780.885 590.749 770.045 597.387 757.72C604.772 744.006 611.774 729.386 617.072 714.73C624.867 693.164 630.117 670.533 635.756 648.324C639.107 635.124 642.928 622.055 646.057 608.797C622.806 642.482 609.964 669.791 565.297 677.905C554.454 679.875 543.395 680.284 532.402 679.861C498.245 678.549 470.358 667.366 442.631 648.033C409.937 625.236 376.817 589.257 359.074 553.47C353.975 543.183 351.086 532.195 346.388 521.834C346.694 542.683 348.163 563.512 348.454 584.357C348.756 605.994 347.837 627.415 347.416 649.025C346.865 655.802 344.873 667.321 346.009 673.553C347.376 681.056 352.007 688.328 355.684 694.909C367.676 716.371 381.044 736.656 397.019 755.413C425.482 788.83 459.828 815.774 496.256 839.916C504.781 845.566 513.395 851.073 522.011 856.583C528.14 860.503 534.527 864.297 540.153 868.929C548.162 857.15 556.301 845.59 565.976 835.095C574.298 826.068 583.486 817.93 591.376 808.498C618.374 776.222 654.45 721.096 646.167 677.219C645.893 675.764 645.516 674.327 645.128 672.899C639.541 687.824 634.223 702.998 627.622 717.515C617.726 739.277 604.075 760.15 588.409 778.185C584.178 783.056 579.759 789.146 574.821 793.205ZM667.39 795.224C668.867 788.537 669.909 781.837 670.291 774.993C670.862 764.751 670.068 754.404 669.488 744.175C668.765 731.398 668.038 718.62 666.389 705.923C665.432 698.549 663.847 691.256 662.955 683.887C658.349 721.945 641.604 756.736 620.286 788.183C614.933 796.079 609.481 803.943 603.379 811.285C596.497 819.566 588.872 827.143 581.532 835.004C567.239 850.312 553.14 866.899 543.052 885.351C539.962 891.004 536.881 897.106 535.641 903.481C532.977 917.185 535.73 937.912 536.855 952.086L541.858 1011.63C567.036 1010.96 591.546 1007.1 616.345 1003.13C618.539 985.805 620.042 968.402 622.369 951.102C627.488 913.038 634.079 875.318 642.136 837.768C633.288 842.121 624.907 847.563 616.489 852.685C598.406 863.686 580.589 875.296 562.374 886.046L553.931 890.967C554.111 891.064 554.292 891.159 554.471 891.258C557.202 892.771 558.959 894.538 559.893 897.589C560.78 900.484 560.239 903.708 558.718 906.294C557.152 908.957 554.565 910.942 551.564 911.704C548.964 912.363 546.274 912.028 543.98 910.614C541.485 909.076 539.235 906.116 538.622 903.23C538.049 900.537 538.964 897.935 540.474 895.717C545.059 888.98 555.385 882.232 561.98 877.343C577.519 865.822 593.743 854.533 610.356 844.621C638.451 827.857 663.885 821.093 684.108 792.961C705.338 797.865 740.478 826.805 755.942 842.702C746.071 796.696 730.842 752.874 710.884 710.282C699.19 685.324 687.732 663.38 670.615 641.699C665.264 634.921 659.697 627.917 653.127 622.28C652.018 626.578 650.927 630.824 650.241 635.215C653.983 639.568 657.074 644.674 659.988 649.617C674.239 673.799 677.518 699.206 679.008 726.652C679.629 738.086 680.091 749.888 679.243 761.309C678.46 771.847 675.886 787.812 667.39 795.224ZM772.814 939.7L772.591 939.998L772.814 939.7C777.357 935.145 781.766 926.556 785.245 921.034C803.19 892.548 827.106 852.543 834.447 819.813C831.902 813.401 829.393 807.113 826.028 801.07C817.846 786.376 807.337 772.809 797.197 759.429C778.161 734.311 758.347 709.666 736.073 687.306C734.124 685.347 732.222 683.531 730.019 681.853C744.07 698.12 757.166 714.929 770.132 732.057C786.895 754.201 803.184 776.8 816.859 801.019C820.112 806.78 822.675 812.801 825.685 818.673C821.944 830.869 818.219 843.144 813.544 855.02C806.183 873.715 797.043 891.807 788.355 909.91C783.765 919.472 776.431 930.205 772.814 939.7ZM196.885 842.305C200.821 846.765 205.375 850.839 209.645 854.994L232.309 877.156C256.901 901.543 282.026 925.365 307.985 948.294C318.369 957.466 328.719 967.323 339.795 975.618L339.998 975.882L339.795 975.618C336.943 970.907 331.784 966.423 328.003 962.375C316.696 950.267 305.202 938.458 293.491 926.745L203.315 836.441C205.567 824.515 207.391 812.509 209.801 800.612C214.577 777.039 220.358 753.612 226.38 730.332C228.755 721.153 231.369 711.966 234.193 702.915C236.202 696.474 238.605 690.093 240.099 683.512L236.339 686.061C235.771 686.314 234.982 686.607 234.466 686.986C232.065 688.749 230.125 697.432 229.133 700.556C220.966 726.264 214.737 752.753 208.835 779.064C204.175 799.839 199.295 821.139 196.885 842.305ZM486.672 29.4771C468.354 37.2779 451.779 50.1807 444.063 69.0621C439.488 80.2576 439.684 92.8886 444.408 104.012C448.245 113.048 454.48 119.674 463.368 123.82C464.967 124.416 466.561 125.032 468.176 125.582C457.524 116.456 450.11 106.189 448.995 91.8054C447.771 76.0311 453.16 60.4796 463.546 48.5898C468.259 43.1944 473.942 38.5464 479.855 34.5298C481.447 33.4484 486.375 31.1166 487.061 29.5969L486.672 29.4771ZM572.754 35.1997C547.538 37.2741 520.397 48.1202 503.784 67.8464C495.747 77.389 489.597 90.3285 490.708 103.065C491.647 113.835 496.331 122.676 504.631 129.565L505.268 130.09C502.97 126.531 500.72 123.032 498.862 119.214C494.854 105.902 496.645 94.3724 503.217 82.1925C514.421 61.4282 534.306 47.1994 556.744 40.6919C568.762 37.2068 580.773 36.2444 593.199 35.8312C586.63 34.7209 579.396 34.3385 572.754 35.1997ZM606.827 50.7051C578.942 53.0392 550.845 63.6486 532.427 85.5434C523.56 96.0845 516.222 110.139 517.409 124.316C517.788 128.838 519.323 133.244 522.838 136.298C524.123 137.415 525.696 138.242 527.187 139.046C524.356 129.936 523.415 122.518 526.94 113.414C537.409 89.5477 557.573 70.5062 581.811 61.0044C594.941 55.8569 610.313 52.037 624.513 52.6994C630.109 52.9604 635.644 54.0593 641.22 54.4386C630.647 51.2151 617.89 49.322 606.827 50.7051ZM631.86 93.6888C605.355 97.0771 585.634 108.763 568.015 128.583C573.299 125.386 577.831 121.055 583.046 117.707C599.011 107.849 619.601 99.1035 638.214 96.2485C643.486 95.44 648.775 95.3836 654.096 95.3608C647.424 93.6341 638.699 92.4092 631.86 93.6888ZM674.509 130.907C687.191 137.792 699.04 146.533 709.612 156.359C713.435 159.912 716.646 164.468 720.712 167.67C713.691 152.297 697.89 138.894 682.209 132.973C679.693 132.023 677.175 131.3 674.509 130.907ZM462.142 135.703C431.904 138.457 408.895 149.368 384.684 166.842L385.906 192.197C386.868 211.104 389.694 238.75 375.908 253.817C372.476 257.568 368.433 260.725 365.069 264.547C353.786 277.364 351.779 293.957 349.308 310.208C364.344 307.815 379.478 306.077 394.576 304.131C405.185 302.764 415.773 300.949 426.457 300.309C448.239 299.004 503.659 300.503 521.543 312.878C526.129 316.051 529.574 321.214 532.812 325.672C542.459 324.605 551.456 323.932 561.142 325.178C566.78 325.903 572.342 327.189 577.979 327.869C583.34 321.702 588.14 316.004 596.139 313.229C617.316 306.843 685.782 313.023 706.077 323.767C707.82 324.69 709.525 325.698 711.113 326.867C707.374 308.896 702.429 291.507 701.223 273.099C700.433 261.036 700.582 248.901 700.512 236.817C700.466 228.933 701.181 220.112 699.26 212.413C698.064 207.618 694.999 202.903 692.653 198.586C683.403 181.569 672.092 161.188 655.689 150.273C652.914 148.427 649.659 146.666 646.348 146.128C635.996 144.447 613.063 151.13 601.265 152.695C569.728 156.877 544.928 153.322 514.308 145.753C498.997 141.969 477.567 133.902 462.142 135.703ZM371.221 185.492C354.422 191.679 344.537 198.611 334.742 214.075L335.089 214.285L335.383 214.127C345.325 203.366 359.834 194.888 371.6 186.069L371.495 185.578L371.221 185.492ZM699.52 188.445C709.307 195.208 716.872 206.489 722.992 216.548C724.648 219.271 726.802 224.219 729.196 226.208C725.596 211.722 719.063 199.31 705.885 191.368C703.864 190.15 701.825 189.03 699.52 188.445ZM705.52 215.927C715.733 228.27 721.414 242.466 725.33 257.926C726.066 246.461 722.529 231.095 714.76 222.261C712.308 219.474 709.122 216.994 705.52 215.927ZM371.169 230.019C352.595 235.79 336.53 244.712 324.809 260.723L324.884 261.332L325.262 261.287C329.405 258.227 333.599 255.286 337.933 252.503C343.239 249.095 370.577 233.865 371.773 230.116L371.169 230.019ZM432.476 312.29C421.812 312.976 405.167 313.348 397.658 322.133C392.365 328.324 391.923 336.631 392.725 344.351C394.319 359.679 400.133 382.212 412.823 392.314C426.872 403.498 455.485 405.084 472.446 402.802C475.098 402.445 477.737 402.014 480.347 401.42C494.175 398.007 503.208 388.837 510.388 376.863C517.057 365.74 525.069 350.579 521.546 337.27C519.82 330.749 516.119 326.13 510.246 322.849C492.594 312.987 452.777 310.24 432.476 312.29ZM620.805 322.199C611.055 323.14 600.128 325.544 593.502 333.419C587.527 340.52 585.505 352.476 586.536 361.486C588.196 376.005 597.296 394.843 608.957 403.953C623.01 414.933 647.164 415.347 663.982 413.213C665.643 413.002 667.289 412.718 668.932 412.397C678.843 410.117 687.407 405.868 693.025 397.013C700.151 385.781 707.312 356.323 704.402 343.186C703.389 338.615 701.147 335.259 697.154 332.816C684.295 324.948 635.61 319.906 620.805 322.199ZM302.553 327.078C295.393 328.552 289.921 332.38 285.921 338.499C276.283 353.243 279.587 376.099 283.124 392.196C287.349 411.423 302.515 454.325 319.219 464.575C321.198 465.79 323.437 466.552 325.761 466.022C328.802 465.328 330.901 462.795 332.36 460.192C335.493 454.605 336.371 448.424 337.217 442.183C338.79 452.546 341.762 463.053 343.875 473.357C346.161 484.505 348.224 495.811 351.443 506.736C365.628 554.886 393.702 587.074 433.649 616.493C472.32 644.973 519.25 659.766 567.351 652.212C576.696 650.744 586.031 647.717 593.815 642.22C606.469 633.284 622.163 611.885 632.513 599.404C641.497 588.57 651.002 577.918 659.241 566.51C682.132 534.817 689.572 498.632 696.989 461.107C699.585 447.921 702.203 434.742 705.041 421.606C707.686 409.357 709.828 396.144 715.601 384.921C718.684 378.928 722.911 373.707 728.544 369.937C732.63 367.202 737.22 365.43 741.754 363.589C741.071 360.633 740.695 357.253 737.894 355.495C735.873 354.227 733.574 354.253 731.344 354.909C726.524 356.327 721.401 360.286 717.937 363.868C712.453 384.089 709.043 405.167 689.309 416.613C669.746 427.959 640.089 426.988 618.972 421.149C603.642 416.91 593.056 408.446 585.287 394.536C580.069 385.193 576.487 374.508 574.452 364.021C573.42 358.706 573.306 351.978 570.852 347.138C569.593 344.656 567.42 343.328 564.802 342.598C558.396 340.811 545.46 339.566 539.572 343.146C535.352 345.711 534.064 354.704 532.384 359.239C528.988 368.408 524.317 377.915 518.902 386.024C504.907 406.98 487.385 414.901 462.513 415.505C452.872 415.739 443.026 415.102 433.544 413.276C417.93 410.269 405.371 404.798 396.292 391.306C388.138 379.19 384.163 363.419 382.018 349.147C381.243 343.991 381.125 337.837 378.986 333.086C377.829 330.518 376.456 329.422 373.688 328.924C366.038 327.546 354.93 329.488 346.993 330.096C346.37 348.089 345.534 359.692 341.067 377.255C330.605 363.682 323.797 330.203 304.838 327.234C304.076 327.115 303.323 327.098 302.553 327.078ZM739.708 368.228C738.267 371.833 738.289 375.877 737.265 379.646C733.991 391.706 730.205 405.206 724.65 416.399C727.36 403.029 730.879 389.229 732.345 375.671C730.551 377.22 728.702 378.749 727.343 380.712C718.492 393.49 715.267 418.789 711.569 434.243C714.73 430.267 717.555 427.943 722.177 425.695C720.726 427.63 719.267 429.551 717.918 431.56C715.317 435.416 712.733 439.47 709.492 442.822C707.46 454.779 704.999 466.737 703.277 478.737C709.006 473.823 712.867 467.322 716.741 460.924C731.034 437.315 738.322 416.261 740.459 388.721C740.753 384.927 742.24 371.323 740.472 368.591L739.708 368.228ZM411.795 834.052C435.202 876.072 457.864 918.561 480.63 960.933C489.793 977.987 498.384 995.539 508.02 1012.31C516.644 1012.33 525.258 1012.25 533.88 1012.08L533.088 1005.17C529.523 980.527 521.339 926.128 524.979 902.73C526.085 895.62 528.79 889.302 532.195 883.014C514.936 877.672 497.451 872.502 479.528 869.887C474.043 869.087 468.49 868.458 462.964 868.037C457.052 867.588 450.73 867.714 445.025 865.962C440.635 864.613 437.064 862.206 434.963 858.034C430.954 850.071 432.587 838.354 422.277 834.975C418.944 833.882 415.262 834.01 411.795 834.052ZM772.178 940.75L772.535 940.75L772.178 940.75Z"/>
	<path transform="scale(2.26367 2.26367)" d="M399.261 295.125C406.579 283.733 422.894 274.51 435.917 271.711C456.549 267.277 492.124 271.329 509.969 283.057C514.273 285.886 517.19 289.191 519.349 293.893C520.511 297.88 520.945 301.103 520.385 305.287C511.882 302.413 502.735 301.83 494.38 298.849C488.377 296.707 482.89 293.308 476.949 291.005C451.15 281.005 427.435 281.221 402.451 293.586C401.392 294.11 400.357 294.684 399.261 295.125Z"/>
	<path transform="scale(2.26367 2.26367)" d="M589.812 308.802C591.741 303.598 594.331 298.301 597.971 294.072C606.314 284.378 618.033 283.527 629.902 282.711C637.204 282.327 644.578 282.575 651.826 283.555C672.951 286.411 687.606 294.994 700.45 311.932C688.191 306.106 677.25 300.756 663.625 299.05C646.676 298.206 630.029 301.311 613.399 304.127C605.522 305.46 597.482 306.545 589.812 308.802Z"/>
	<path transform="scale(2.26367 2.26367)" d="M399.073 295.377L399.261 295.125L399.073 295.377Z"/>
	<path transform="scale(2.26367 2.26367)" d="M409.193 343.817C421.684 330.919 438.398 322.55 456.205 320.694C463.388 319.653 474.086 319.389 480.897 322.212C492.508 327.023 498.823 341.312 503.25 352.142C495.436 346.38 488.192 338.936 479.928 333.956C479.325 336.698 478.647 339.588 477.198 342.018C474.439 346.644 470.4 348.077 465.44 349.215C459.511 349.519 452.058 348.646 447.105 345.191C442.654 342.086 441.482 338.159 440.507 333.137C434.494 335.09 428.735 337.72 422.769 339.806C418.333 341.357 413.695 342.445 409.193 343.817ZM454.94 328.957C453.718 330.017 453.281 330.18 452.872 331.788C453.474 333.18 454.36 334.007 455.809 334.599C456.163 334.743 456.618 334.866 456.97 334.972C458.2 333.708 458.994 332.964 459.306 331.193C458.866 330.061 458.76 329.594 457.489 329.154C456.788 328.912 455.691 328.979 454.94 328.957ZM472.583 334.803L466.038 335.354C464.294 338.468 462.902 341.016 459.221 342.036C458.447 342.25 457.664 342.427 456.881 342.601L456.808 343.019L457.137 343.289C462.28 343.515 465.72 344.358 469.794 340.648C471.303 339.275 472.479 337.332 473.05 335.378L472.583 334.803Z"/>
	<path transform="scale(2.26367 2.26367)" d="M590.827 350.608C591.655 349.356 592.478 348.102 593.392 346.91C601.225 336.708 609.272 331.782 622.008 330.185C625.987 329.783 630.075 329.745 634.063 330.033C658.087 331.767 669.658 343.507 684.614 360.722C680.552 358.942 676.353 357.343 672.537 355.067C663.221 349.511 655.571 342.503 644.47 340.725C645.087 342.701 645.655 344.618 645.752 346.7C645.931 350.574 644.933 354.47 642.224 357.345C639.095 360.665 634.387 361.902 629.96 362.035C624.74 362.19 619.303 360.753 615.531 356.975C611.66 353.096 611.131 348.959 611.068 343.78C605.838 346.334 600.804 349.343 595.733 352.199C597.979 354.907 600.221 357.277 603.179 359.213C621.411 370.444 640.806 370.521 659.884 360.875C663.091 359.253 667.92 355.126 671.56 355.591C672.431 355.702 672.481 356.116 672.969 356.759C672.832 358.652 671.196 360.073 669.883 361.298C660.638 369.925 646.28 373.365 633.933 372.923C615.417 372.258 603.034 363.693 590.827 350.608ZM621.373 340.388C620.147 341.718 619.413 342.497 619.103 344.308C619.441 345.65 619.549 346.077 620.745 346.938C621.777 347.681 623.435 347.734 624.645 347.76C625.603 346.748 626.752 345.679 626.827 344.187C626.883 343.064 626.467 342.167 625.589 341.458C624.379 340.483 622.846 340.435 621.373 340.388ZM635.928 342.688C636.247 345.968 636.122 348.681 633.967 351.356C631.025 355.008 626.785 354.818 622.601 355.562C623.305 356.072 623.904 356.43 624.715 356.744C629.566 356.687 634.291 356.585 638 352.892C639.012 351.884 639.7 350.654 639.706 349.185C639.716 346.735 637.693 344.217 635.928 342.688Z"/>
	<path transform="scale(2.26367 2.26367)" d="M288.888 380.258C286.621 371.176 284.505 359.417 287.765 350.332C289.343 345.935 291.822 343.4 296.034 341.521C296.39 341.502 296.745 341.481 297.101 341.471C302.185 341.32 306.444 343.668 310.096 347.087C323.827 359.943 333.072 385.938 333.563 404.485C330.642 397.786 326.431 390.398 321.813 384.764C320.94 386.497 320.25 388.338 319.557 390.151C316.321 398.626 313.205 409.666 317.367 418.345C320.211 424.274 324.889 425.26 330.545 427.341C329.375 427.614 328.204 427.882 327.025 428.113C322.947 428.913 318.916 428.26 315.481 425.84C309.543 421.656 307.616 414.251 306.6 407.478C306.579 406.635 306.579 405.802 306.611 404.959C307.017 394.298 309.443 383.041 317.564 375.513C315.978 371.852 314.15 368.352 312.28 364.829C306.476 369.515 302.748 374.842 300.41 381.959C299.858 383.639 299.644 385.471 298.88 387.064C298.777 387.279 298.666 387.491 298.558 387.704C298.749 375.719 300.878 366.465 307.219 356.257C307.112 356.121 307.007 355.981 306.896 355.848C304.869 353.412 301.449 349.469 298.054 349.468C296.97 349.467 295.995 349.945 295.202 350.655C288.729 356.457 289.196 372.352 288.888 380.258Z"/>
	<path transform="scale(2.26367 2.26367)" d="M485.131 351.986C471.054 356.512 456.11 358.148 441.498 355.191C432.877 353.447 423.618 350.034 418.584 342.408C424.59 344.088 430.059 347.513 436.258 349.065C446.997 351.754 459.791 352.852 470.898 352.032C476.224 351.639 481.748 350.618 487.076 350.788L487.119 351.195L485.131 351.986Z"/>
	<path transform="scale(2.26367 2.26367)" d="M455.572 369.764C455.379 369.576 455.498 369.722 455.397 369.227C468.736 366.653 480.323 364.308 492.054 357.004L492.296 357.217C492.338 358.227 491.968 358.363 491.306 359.06C481.955 368.897 468.208 369.524 455.572 369.764Z"/>
	<path transform="scale(2.26367 2.26367)" d="M576.655 437.858C576.193 438.16 576.542 437.968 575.494 438.142C575.334 438.026 575.16 437.928 575.015 437.794C572.07 435.078 570.447 426.921 569.628 423.054C567.523 413.125 567.055 402.66 565.652 392.587C564.043 381.029 560.825 368.956 561.082 357.265C561.529 357.475 561.701 357.518 562.091 357.919C572.257 368.369 578.64 423.271 576.655 437.858Z"/>
	<path transform="scale(2.26367 2.26367)" d="M455.618 386.87L455.265 386.699C480.657 382.864 494.455 378.577 513.308 360.006C513.308 360.211 513.351 360.421 513.309 360.622C512.289 365.498 503.634 372.264 499.739 375.139C487.73 384.007 470.515 389.182 455.618 386.87Z"/>
	<path transform="scale(2.26367 2.26367)" d="M599.21 371.601L599.003 371.148L599.21 371.601Z"/>
	<path transform="scale(2.26367 2.26367)" d="M599.21 371.601C612.665 383.518 626.162 389.119 643.992 391.245C646.763 391.575 651.521 390.875 653.864 391.93L653.508 392.231C637.551 394.07 621.833 393.275 608.68 382.96C604.979 380.057 601.004 376.003 599.21 371.601Z"/>
	<path transform="scale(2.26367 2.26367)" d="M577.56 470.881C579.034 470.259 580.477 469.572 581.865 468.775C586.588 466.061 590.1 461.595 591.455 456.307C594.647 443.846 587.835 428.249 581.596 417.791C582.32 418.011 582.286 417.983 583.098 418.331C590.476 421.491 596.177 431.784 598.801 438.98C601.318 445.882 602.636 454.18 599.247 461.012C596.694 466.159 592.556 468.615 587.328 470.383C584.057 470.77 580.851 470.855 577.56 470.881Z"/>
	<path transform="scale(2.26367 2.26367)" d="M523.518 425.557C523.145 425.148 522.904 424.464 522.658 423.965C522.849 422.357 523.052 422.303 524.19 421.115L525.176 421.564C525.213 423.093 524.25 424.233 523.518 425.557Z"/>
	<path transform="scale(2.26367 2.26367)" d="M513.722 468.064C506.59 466.376 500.139 463.694 495.712 457.493C492.54 453.05 491.251 447.537 492.2 442.153C493.468 434.96 498.166 429.851 503.959 425.847L504.642 426.149C502.444 432.877 499.205 438.291 500.108 445.778C501.607 458.2 511.759 461.624 520.336 468.116L520.885 468.538C518.491 468.481 516.108 468.258 513.722 468.064Z"/>
	<path transform="scale(2.26367 2.26367)" d="M525.794 457.337C526.918 458.237 528.35 459.158 529.061 460.431C529.438 461.107 529.269 460.991 529.011 461.838C528.31 462.094 527.721 462.243 526.966 462.162C523.055 461.743 517.927 459.137 515.507 455.987C514.562 454.756 513.911 453.197 514.275 451.619C514.74 449.602 516.319 448.539 517.923 447.472C531.745 449.356 542.212 462.092 557.46 460.654C567.327 459.723 574.99 453.391 582.553 452.309L583.636 453.62C583.82 454.6 583.997 454.966 583.708 455.955C582.69 459.443 578.938 461.502 575.973 463.155C574.828 463.649 573.68 464.135 572.515 464.579C553.093 471.987 542.995 464.994 525.794 457.337Z"/>
	<path transform="scale(2.26367 2.26367)" d="M442.441 491.437C442.376 490.47 442.978 490.435 443.671 489.886C455.274 480.688 469.984 471.104 477.726 458.372C478.178 461.259 476.137 466.072 474.738 468.536C467.8 480.753 455.626 487.857 442.441 491.437Z"/>
	<path transform="scale(2.26367 2.26367)" d="M546.227 503.648C543.886 501.499 542.562 499.43 541.983 496.266C540.926 490.491 542.829 484.059 546.14 479.311C548.378 481.812 549.154 489.828 549.588 493.315C549.927 496.035 550.639 500.912 548.674 503.063C548.067 503.727 547.074 503.562 546.227 503.648Z"/>
	<path transform="scale(2.26367 2.26367)" d="M458.713 509.604C457.286 511.679 456.033 516.423 454.07 517.587C453.266 516.822 453.119 516.436 452.871 515.31C451.845 510.647 454.481 505.549 456.984 501.783C457.176 501.849 457.375 501.9 457.562 501.98C459.639 502.878 460.153 505.037 460.906 506.984C476.121 511.824 492.095 514.635 508.058 515.303C514.442 515.57 520.891 515.03 527.257 515.549C534.232 516.117 541.152 518.832 548.031 519.066C554.799 519.296 561.595 517.168 568.475 517.371C583.865 517.824 598.019 520.556 613.525 518.403C613.132 516.44 612.23 513.618 613.36 511.821C613.763 511.178 614.244 511.297 614.931 511.165C615.794 511.518 616.52 511.844 617.242 512.45C620.18 514.918 623.819 520.24 623.997 524.199C624.051 525.402 624.164 525.571 623.314 526.478C620.997 525.681 618.536 522.294 616.745 520.475C606.282 526.826 591.91 529.282 579.962 531.485C555.34 536.024 531.988 533.304 507.763 528.165C489.856 524.366 474.004 520.167 458.713 509.604Z"/>
	<path transform="scale(2.26367 2.26367)" d="M640.147 546.115C639.456 539.523 648.923 514.389 652.262 508.859C652.305 509.094 652.355 509.328 652.392 509.565C653.443 516.323 644.216 540.376 640.147 546.115Z"/>
	<path transform="scale(2.26367 2.26367)" d="M500.923 539.156C510.918 543.427 520.785 547.436 531.497 549.616C551.306 553.648 569.012 550.133 585.841 539.028L586.189 539.373C577.109 550.335 566.4 560.252 551.588 561.725C534.724 563.402 519.905 555.653 507.297 545.213C504.998 543.416 502.987 541.215 500.923 539.156Z"/>
	<path transform="scale(2.26367 2.26367)" d="M433.805 593.307C433.15 593.05 432.613 592.833 432.019 592.448C418.045 583.387 410.734 567.207 408.01 551.393C414.606 565.343 430.599 579.998 433.805 593.307Z"/>
	<path transform="scale(2.26367 2.26367)" d="M506.043 589.866C515.999 585.019 525.206 581.968 536.234 580.686C548.951 579.491 563.668 581.59 573.987 589.758C564.885 588.649 555.776 587.731 546.625 587.159C532.961 586.51 519.545 587.93 506.043 589.866Z"/>
	<path transform="scale(2.26367 2.26367)" d="M611.989 678L612.469 677.611L611.989 678Z"/>
	<path transform="scale(2.26367 2.26367)" d="M611.644 678.291L611.989 678L611.644 678.291Z"/>
	<path transform="scale(2.26367 2.26367)" d="M434.104 684.708C438.869 686.599 443.479 690.065 448.005 692.565C455.503 696.707 463.307 699.749 471.446 702.346C506.609 713.565 545.504 711.63 579.13 696.195C586.485 692.818 593.676 688.839 600.654 684.745C604.003 682.78 607.278 680.483 610.741 678.74L611.644 678.291C608.396 682.295 603.866 685.66 599.777 688.801C580.7 703.453 557.947 713.995 533.845 716.498C501.393 719.868 466.087 711.494 440.582 690.63C438.336 688.793 436.004 686.915 434.104 684.708Z"/>
	<path transform="scale(2.26367 2.26367)" d="M434.104 684.708L433.646 684.503L434.104 684.708Z"/>
	<path transform="scale(2.26367 2.26367)" d="M437.49 721.021L437.002 720.62L437.49 721.021Z"/>
	<path transform="scale(2.26367 2.26367)" d="M437.49 721.021L438.259 721.621L437.49 721.021Z"/>
	<path transform="scale(2.26367 2.26367)" d="M438.259 721.621L438.707 721.865L438.259 721.621Z"/>
	<path transform="scale(2.26367 2.26367)" d="M438.707 721.865C446.69 725.518 454.589 729.197 462.885 732.103C498.791 744.677 536.432 744.933 572.199 731.715C578.433 729.411 584.826 726.035 591.204 724.355C587.634 727.541 582.458 730.012 578.219 732.309C558.638 742.924 538.949 749.723 516.42 749.59C493.981 749.459 471.763 742.32 452.359 731.31C447.711 728.674 442.483 725.691 438.707 721.865Z"/>
	<path transform="scale(2.26367 2.26367)" d="M591.204 724.355L591.497 724.099L591.204 724.355Z"/>
	<path transform="scale(2.26367 2.26367)" d="M574.44 793.668L574.821 793.205L574.44 793.668Z"/>
	<path transform="scale(2.26367 2.26367)" d="M574.111 793.997L574.44 793.668L574.111 793.997Z"/>
	<path transform="scale(2.26367 2.26367)" d="M667.122 795.431L667.39 795.224L667.122 795.431Z"/>
	<path transform="scale(2.26367 2.26367)" d="M426.697 811.684L426.943 811.916L426.697 811.684Z"/>
</svg>
