<?xml version="1.0" encoding="utf-8" ?>
<svg xmlns="http://www.w3.org/2000/svg" xmlns:xlink="http://www.w3.org/1999/xlink" width="2318" height="2318">
	<path fill="white" transform="scale(2.26367 2.26367)" d="M0 0L0 1024L1024 1024L1024 0L0 0Z"/>
	<path transform="scale(2.26367 2.26367)" d="M527.875 1006.56C397.717 1011.15 270.107 962.531 174.888 873.884C136.756 838.384 102.69 795.884 77.2439 750.391C40.9904 685.576 19.1164 608.707 16.5782 534.498C11.9683 399.724 59.3892 272.379 151.688 173.897C240.477 79.159 364.929 21.3964 494.883 17.2246C497.15 17.091 499.444 17.0816 501.715 17.0365C632.827 14.4353 761.083 66.2271 855.396 157.03C948.544 246.712 1005.13 374.791 1007.44 504.109C1009.78 634.682 959.286 761.199 868.604 855.063C796.096 930.115 701.206 981.222 598.331 999.379C575.193 1003.46 551.392 1006.17 527.875 1006.56ZM602.115 328.777C622.677 327.833 642.656 330.819 662.75 334.616L662.984 334.877L662.75 334.616C659.663 331.028 654.546 328.257 650.36 326.105C633.94 317.664 624.021 320.96 607.374 326.314C605.565 326.935 603.828 327.928 602.115 328.777ZM491.873 29.7214C470.579 30.9618 449.378 32.9586 428.364 36.7334C320.371 56.132 223.144 112.762 150.439 194.44C67.4223 287.703 22.5117 414.337 29.8895 539.122C33.7661 604.689 49.4697 663.067 77.1728 722.551C82.4759 733.938 89.1207 744.574 94.5545 755.864C125.053 737.899 155.649 721.367 188.249 707.471C204.738 700.443 221.598 694.254 238.46 688.186C246.501 685.293 278.869 675.528 282.945 672.436C286.569 669.687 289.407 664.828 292.185 661.23C298.221 653.411 303.736 645.595 308.219 636.748C319.391 614.699 319.832 604.373 342.108 589.931L339.716 548.446C339.368 542.717 339.417 536.799 338.693 531.115C338.047 526.05 335.145 521.601 333.731 516.749C330.885 506.982 330.446 496.485 329.879 486.386C316.754 486.635 306.722 485.044 296.959 475.542C288.45 467.26 283.422 455.229 277.642 444.982C274.207 438.893 269.708 433.427 265.901 427.571C257.449 414.569 253.22 398.985 253.046 383.539C252.918 372.181 255.715 360.009 263.898 351.663C269.323 346.129 276.777 343.235 284.496 343.287C286.968 343.304 289.485 343.53 291.927 343.905C291.023 334.768 290.719 325.251 289.241 316.21C287.695 306.754 285.159 297.742 284.155 288.138C278.6 235.016 291.198 191.673 325.14 150.231C336.272 136.639 349.186 124.537 363.213 113.971C401.8 84.9033 463.203 56.8591 511.698 52.0907C540.2 49.288 575.951 53.712 602.127 65.6873C633.814 79.3446 658.147 99.7669 671.158 132.437C674.833 141.666 676.974 151.106 678.681 160.849C697.582 172.226 709.563 184.825 714.901 206.547C725.509 249.715 718.355 296.22 709.872 339.064C707.038 353.379 703.716 367.566 701.262 381.958C708.8 380.865 716.13 380.935 722.554 385.715C727.87 389.671 730.333 395.938 731.161 402.324C734.653 429.271 715.885 457.982 699.966 478.31C695.021 484.625 679.965 502.921 671.87 503.568C670.539 503.674 669.116 503.463 667.79 503.324C664.951 515.712 662.772 529.329 657.776 541.026C653.143 551.876 644.923 562.383 637.494 571.532C632.309 577.916 626.54 584.012 621.628 590.586L618.746 620.473C618.123 626.859 617.731 633.482 616.476 639.778C622.56 648.342 628.794 656.852 634.416 665.729C639.321 673.475 643.721 681.917 649.115 689.304C661.086 692.307 672.88 696.326 684.668 699.983C742.457 717.914 806.084 742.223 856.858 775.14C871.066 784.351 882.168 794.162 895.258 804.463C908.374 786.262 921.079 767.724 932.148 748.184C986.881 651.562 1005.58 543.983 987.845 434.565C981.903 397.909 970.925 362.07 956.363 327.94C921.126 245.349 865.262 173.929 792.305 121.349C723.94 72.0795 644.031 41.3592 560.248 32.1457C537.768 29.6737 514.484 28.444 491.873 29.7214ZM451.871 179.719C445.174 180.188 438.799 181.085 432.4 183.183C414.664 188.997 392.102 204.765 379.13 218.49C384.608 241.699 384.91 266.226 371.991 287.224C366.407 296.299 358.198 302.326 351.739 310.545C346.45 317.275 342.925 325.246 337.054 331.518C368.457 320.946 402.08 315.653 435.268 316.684C443.877 316.951 452.304 318.195 460.867 318.776C448.13 314.53 429.192 307.705 415.953 309.934C408.68 311.158 401.942 314.053 395.034 316.493C392.728 317.307 389.171 318.442 386.862 317.246C386.71 315.553 387.378 314.694 388.431 313.4C398.628 300.866 415.443 291.301 431.614 289.897C444.679 288.763 457.796 293.162 470.235 296.505C476.385 298.157 482.671 299.605 488.679 301.729C493.807 309.449 497.62 319.714 500.981 328.411C505.088 330.011 509.196 331.786 513.378 333.171C527.23 337.317 541.087 338.928 555.434 336.396C559.896 326.786 564.969 315.74 571.834 307.692C597.364 304.321 628.448 294.954 650.818 312.3C658.864 318.539 665.702 327.251 669.789 336.583C675.447 338.052 680.994 339.839 686.561 341.615C689.577 304.825 675.454 226.57 651.177 197.993C647.271 193.396 642.581 189.354 636.559 188.005C613.04 198.496 587.478 214.345 560.637 210.461C555.157 209.669 549.92 207.854 544.767 205.883C515.752 194.784 483.719 177.389 451.871 179.719ZM415.229 327.203C405.483 328.035 391.965 329.864 385.387 338.065C378.729 346.368 380.167 363.47 381.476 373.271C383.015 384.792 386.182 397.392 395.958 404.717C410.702 415.765 439.926 417.15 457.409 414.461C459.701 414.109 461.951 413.65 464.203 413.096C478.299 408.53 486.611 397.911 493.144 385.042C498.038 375.4 503.072 363.146 499.299 352.298C496.68 344.767 490.172 340.313 483.257 337.106C466.038 329.118 447.012 326.865 428.226 326.762C424.05 326.739 419.344 326.562 415.229 327.203ZM604.617 339.29C592.036 340.188 573.698 341.469 564.812 351.764C558.957 358.547 558.734 367.272 559.556 375.716C560.982 390.361 566.775 407.838 578.614 417.394C591.612 427.885 615.383 428.513 631.12 426.89C643.269 425.115 653.181 420.954 660.733 410.895C667.289 402.162 677.992 377.575 676.232 366.61C675.15 359.872 671.081 354.326 665.546 350.487C651.109 340.476 621.615 337.73 604.617 339.29ZM347.224 350.708C341.333 351.238 335.191 351.759 329.418 353.07C329.576 362.705 331.349 393.736 327.67 401.056L326.79 401.648C324.34 400.019 323.603 395.596 323.036 392.821C321.641 385.999 320.477 373.574 316.425 368.041C314.115 364.885 310.311 362.341 307.087 360.203C299.513 355.181 289.936 350.381 280.59 352.22C275.116 353.297 270.483 356.578 267.412 361.207C260.603 371.469 261.574 388.241 264.129 399.715C267.827 416.321 277.776 428.147 286.321 442.32C292.874 453.19 297.651 466.719 309.008 473.643C316.072 477.95 322.75 477.461 330.571 476.923C330.358 473.826 329.823 470.301 332.248 467.826C332.727 467.337 332.837 467.322 333.366 467.047C334.528 467.458 334.753 467.966 335.238 469.047C336.771 472.471 336.883 477.186 337.346 480.902C338.707 491.834 339.179 503.743 342.486 514.292C353.796 550.365 393.186 598.238 422.914 621.311C432.462 628.722 442.955 634.885 454.069 639.638C478.243 649.976 520.171 656.445 545.039 646.464C555.539 642.25 564.98 635.925 573.446 628.466C583.887 619.267 592.275 607.712 601.503 597.331C617.514 579.318 640.106 559.499 649.616 537.15C652.931 529.358 654.465 520.598 656.459 512.375C660.713 494.828 664.406 477.164 668.585 459.61C672.075 445.137 675.22 430.589 678.58 416.086C679.907 410.357 683.955 397.055 683.761 391.699L683.227 391.071C681.118 392.492 678.57 400.942 677.279 403.508C673.548 410.924 668.918 418.825 662.672 424.422C644.934 440.316 614.802 439.415 592.965 435.162C578.153 432.277 569.202 425.672 560.473 413.432C560.495 424.436 560.814 435.523 559.918 446.498C564.88 449.325 568.778 452.966 570.4 458.652C571.698 463.2 571.072 467.922 568.577 471.954C566.917 474.637 564.53 476.603 561.422 477.314C557.265 478.266 553.188 476.983 548.946 478.291C538.626 481.473 527.563 492.447 516.267 485.217C509.917 481.153 506.327 471.512 497.295 473.457C491.227 474.764 486.21 477.316 480.196 473.85C476.77 471.876 474.556 468.685 473.704 464.841C472.65 460.086 473.919 455.327 476.61 451.336C477.798 449.575 479.662 447.334 481.878 446.901C483.129 446.657 484.018 446.875 485.077 447.511C482.336 452.975 477.406 455.904 480.01 463.01C480.623 464.683 482.18 467.127 483.852 467.925C487.835 469.825 495.913 465.208 502.134 466.347C515.766 468.844 516.285 485.265 532.406 478.485C537.24 476.452 542.434 472.961 544.551 467.976C545.912 464.773 546.107 460.656 546.186 457.199C546.646 437.187 544.986 416.624 543.999 396.618C543.717 390.893 543.379 385.164 543.267 379.433C543.197 375.819 543.472 372.078 543.19 368.492C543.095 367.281 542.83 366.241 542.362 365.124C541.132 362.187 538.696 360.145 535.776 358.988C531.054 357.118 525.377 357.463 520.82 359.648C514.595 362.633 512.638 368.898 510.083 374.812C495.965 407.485 485.303 425.414 447.199 427.186C433.528 427.821 418.344 426.602 405.336 422.33C392.127 417.992 382.29 410.523 376.047 397.958C369.188 384.155 366.914 368.596 366.428 353.335C360.349 350.909 353.762 349.866 347.224 350.708ZM705.505 389.096C702.546 389.762 699.975 390.24 698.253 392.952C694.396 399.025 694.003 410.844 692.253 418.091C700.44 412.579 707.976 410.457 717.88 410.476C706.325 416.749 691.774 425.014 687.778 438.49C683.498 452.922 681.006 468.231 677.478 482.892L674.993 493.548C695.331 475.897 721.83 438.156 723.582 411.157C723.976 405.075 723.079 397.504 718.779 392.865C716.397 390.296 712.898 388.852 709.406 388.86C708.11 388.863 706.794 388.966 705.505 389.096ZM559.623 451.779C559.062 459.015 558.839 462.772 555.416 469.195C555.054 469.875 555.149 469.511 555.817 470.378C557.48 470.766 558.984 470.842 560.689 470.863C562.876 469.454 564.022 468.28 564.644 465.697C565.572 461.839 564.575 457.795 562.37 454.559C561.605 453.437 560.784 452.503 559.623 451.779ZM346.67 547.324C349.91 578.396 349.544 608.804 349.543 640.002C349.543 648.208 350.558 663.437 348.98 670.871C348.216 671.793 347.849 672.193 346.687 672.531C345.492 672.086 345.117 671.701 344.603 670.504C341.978 664.392 343.073 635.631 343.035 627.537C339.209 633.121 336.23 639.155 332.104 644.552C331.727 645.044 331.356 645.537 330.973 646.025C336.479 662.7 344.699 678.82 353.227 694.127C376.488 735.88 405.394 773.899 434.349 811.798C474.326 817.18 522.054 824.361 558.554 802.823C566.125 786.045 573.596 769.269 580.492 752.199C588.073 733.601 595.423 715.209 601.386 696.01C602.977 690.887 605.128 685.302 605.964 680.012C606.844 674.448 605.557 668.251 605.916 662.538C606.582 651.931 607.898 641.319 609.013 630.749C609.773 623.549 610.233 616.257 611.243 609.093C604.91 617.893 598.652 626.778 593.465 636.317C583.978 653.762 569.975 686.67 554.798 698.164C550.183 701.659 544.539 703.717 538.851 704.607C520.725 707.443 504.642 701.58 490.232 690.885C482.654 685.261 475.458 679.045 467.99 673.261C454.293 662.654 440.176 652.405 427.136 640.994C409.866 625.881 394.418 609.007 379.378 591.716C372.476 583.78 365.934 575.565 359.891 566.953C356.624 562.298 349.998 550.332 346.67 547.324ZM293.316 666.876C286.735 673.472 286.538 682.707 286.542 691.504C286.57 753.495 321.015 835.109 354.74 886.223C358.803 860.212 368.869 830.946 391.163 814.83C393.973 812.798 397.446 810.914 401.032 811.496C415.28 813.809 448.959 856.001 459.235 867.777L485.836 898.038C490.257 903.095 494.562 908.661 499.476 913.219C494.788 920.718 488.64 929.351 486.755 938.058C486.202 940.614 489.903 988.6 491.092 993.49C491.329 994.463 491.678 995.136 492.328 995.913C493.543 996.462 493.629 996.439 494.944 996.181C496.284 994.889 496.514 994.423 496.548 992.563C496.749 981.744 494.452 966.501 493.317 955.364C492.8 950.284 491.717 944.707 492.501 939.645C494.249 928.367 545.792 852.33 555.678 838.738C561.407 830.862 567.424 822.887 574.29 815.958C578.619 811.591 583.107 807.848 588.76 805.365C608.794 814.085 626.726 858.049 634.687 877.68C644.648 855.566 651.198 831.268 654.878 807.341C660.667 771.443 658.681 721.052 639.826 689.069C643.963 705.168 647.288 720.877 648.86 737.444C652.58 776.626 646.85 823.461 634.402 860.741L634.004 860.091C623.435 842.661 610.378 806.179 589.295 800.287C584.306 801.572 580.364 803.351 576.287 806.526C566.914 813.827 559.478 823.995 552.477 833.51C541.489 848.443 531.178 863.98 521.127 879.559C514.922 889.176 508.95 899.24 502.133 908.428L469.782 871.767C458.104 858.289 417.478 806.411 400.291 805.664C393.454 805.366 387.77 809.437 383.104 813.984C368.55 828.166 355.147 851.471 352.132 871.625C323.694 825.317 300.011 765.28 293.047 711.248C292.021 703.29 291.571 694.768 291.854 686.748C291.995 682.758 294.014 669.902 293.316 666.876ZM522.059 964.053C519.509 965.256 517.52 966.528 516.513 969.292C515.671 971.606 515.766 974.272 516.836 976.496C517.906 978.723 519.873 980.415 522.257 981.094C523.733 981.514 525.064 981.379 526.553 981.14C529.436 979.814 531.712 978.311 532.782 975.168C533.496 973.072 533.277 970.622 532.219 968.68C530.993 966.432 528.754 964.721 526.244 964.174C524.896 963.88 523.422 963.947 522.059 964.053Z"/>
	<path transform="scale(2.26367 2.26367)" d="M417.556 376.825C432.944 381.027 451.701 381.412 465.967 373.211C469.308 371.29 473.05 368.433 473.987 364.48C474.668 361.607 473.604 358.782 471.959 356.444C466.267 348.355 455.03 343.783 445.69 341.895C449.712 346.06 453.423 350.403 453.405 356.572C453.394 360.523 451.624 364.251 448.828 366.998C445.156 370.604 440.051 372.453 434.928 372.227C430.528 372.033 426.341 370.204 423.407 366.889C420.613 363.732 418.943 359.19 419.349 354.964C419.781 350.472 422.078 347.197 424.69 343.727C416.88 346.275 410.647 350.05 404.904 355.945C402.53 358.759 400.216 361.682 397.718 364.383C397.642 364.224 397.569 364.063 397.489 363.906C396.48 361.903 395.267 360.854 393.514 359.504C393.252 355.641 395.631 352.704 398.06 349.924C407.031 339.657 420.579 335.425 433.813 334.591C448.8 333.646 466.213 336.857 477.764 347.137C480.606 349.666 485.276 354.552 485.525 358.435C485.592 359.475 485.382 360.076 484.989 361.013C483.384 362.262 482.191 362.139 480.191 362.255C477.993 369.042 474.487 373.236 468.026 376.489C455.603 382.746 436.43 383.971 423.257 379.565C421.232 378.888 419.295 378.088 417.556 376.825Z"/>
	<path transform="scale(2.26367 2.26367)" d="M623.994 394.639L622 395.153C621.237 395.352 620.476 395.557 619.708 395.738C607.537 398.603 591.798 397.303 581.062 390.532C576.89 387.901 564.379 376.901 563.614 372.292C563.17 369.613 564.555 366.805 566.147 364.752C573.987 354.648 587.242 350.306 599.397 348.684C602.201 348.433 604.98 348.322 607.795 348.379C618.618 348.601 630.396 352.92 637.949 360.875C642.179 365.33 646.795 375.103 646.006 381.449C645.827 382.893 645.633 383.001 644.565 383.847C639.65 383.325 636.573 373.912 633.058 370.415C626.478 363.871 619.851 360.62 610.914 358.279C614.067 361.766 616.497 365.738 616.796 370.549C617.036 374.41 615.783 378.121 613.21 381.018C610.42 384.157 606.291 386.237 602.077 386.412C598.278 386.569 594.396 385.312 591.602 382.687C588.597 379.864 586.921 375.529 586.978 371.428C587.056 365.788 590.435 362.099 594.317 358.499C591.993 359.237 589.731 360.119 587.456 360.993C581.223 363.978 576.58 368.184 571.806 373.113C573.201 377.546 575.888 381.279 579.38 384.324C591.565 394.947 608.709 395.705 623.994 394.639Z"/>
	<path transform="scale(2.26367 2.26367)" d="M282.599 378.019C280.511 381.192 278.012 390.531 276.088 391.806C275.066 391.553 274.921 391.529 274.366 390.551C272.492 387.255 273.331 381.333 274.323 377.774C275.396 373.921 276.982 372.018 280.414 370.069C282.17 369.934 283.85 369.817 285.594 370.157C296.164 372.221 305.563 382.19 311.294 390.761C324.623 410.696 311.381 409.845 307.935 427.193C309.171 432.301 312.916 437.148 312.737 442.507C312.686 444.032 312.237 444.788 311.12 445.771C310.102 445.986 309.463 446.064 308.425 445.825C304.769 444.985 302.609 441.943 300.832 438.918C300.754 438.751 300.671 438.586 300.597 438.417C294.423 424.276 300.689 414.446 305.584 401.46C304.956 400.035 304.235 398.64 303.481 397.278C299.302 389.731 291.09 380.468 282.599 378.019Z"/>
	<path transform="scale(2.26367 2.26367)" d="M417.556 376.825L417.009 376.556L417.556 376.825Z"/>
	<path transform="scale(2.26367 2.26367)" d="M437.58 522.767C434.912 525.168 431.69 528.388 428.058 529.047C426.903 529.256 426.723 529.157 425.796 528.557C425.577 527.606 425.503 526.897 425.792 525.963C427.782 519.536 437.162 512.966 442.881 509.912C443.681 509.946 444.455 510.113 445.243 510.248C446.383 511.152 446.353 511.039 446.522 512.478C445.817 514.432 444.54 515.581 443.107 517.023C482.383 528.781 514.627 534.05 555.642 528.467C560.344 527.827 565.001 527.033 569.632 525.989C573.364 525.148 584.824 521.43 587.562 521.575C589.235 521.664 590.44 522.594 591.497 523.811C593.666 526.311 596.37 531.427 595.949 534.84C595.842 535.707 595.856 535.444 595.047 535.968C592.366 534.928 589.365 531.477 587.181 529.503L582.62 531.231C545.702 545.403 499.152 541.999 461.783 531.331C453.51 528.969 445.581 525.907 437.58 522.767Z"/>
	<path transform="scale(2.26367 2.26367)" d="M532.952 566.091C532.202 566.46 531.46 566.775 530.668 567.047C520.855 570.425 507.585 569.454 498.405 564.608C496.447 563.575 494.678 562.181 494.174 559.919C493.768 558.099 494.223 557.452 495.107 555.983C495.594 556.063 496.082 556.132 496.568 556.215C504.705 557.606 530.741 555.832 535.316 559.966C536.416 560.96 536.331 561.289 536.312 562.657C535.428 564.275 534.433 565.023 532.952 566.091Z"/>
</svg>
