<?xml version="1.0" encoding="utf-8" ?>
<svg xmlns="http://www.w3.org/2000/svg" xmlns:xlink="http://www.w3.org/1999/xlink" width="1024" height="1024">
	<path fill="#FEFEFE" d="M0 0L1024 0L1024 1024L0 1024L0 0Z"/>
	<path fill="#231F20" d="M377.123 609.312C377.519 609.516 378.181 609.84 378.521 610.097C379.537 610.864 379.899 611.751 380.005 612.988C380.587 619.78 376.518 636.215 372.175 641.538C371.343 641.314 370.682 640.984 369.926 640.574C368.991 638.849 368.963 637.553 369.137 635.637C369.615 630.382 372.417 615.927 374.979 611.548C375.498 610.662 376.341 609.959 377.123 609.312Z"/>
	<path fill="#231F20" d="M92.1937 477.236C92.3392 477.24 92.485 477.237 92.6301 477.249C93.0809 477.284 94.19 477.47 94.5323 477.762C96.3967 479.353 98.3472 485.326 99.4417 487.789C106.276 503.17 114.174 517.921 124.331 531.413C134.598 545.051 148.355 557.032 162.401 566.659C168.525 570.856 174.905 574.642 181.511 578.032C184.432 579.53 190.265 581.314 192.083 583.786C192.549 584.42 192.237 584.901 192.104 585.613C190.922 585.326 189.769 584.96 188.635 584.521C183.442 582.515 178.465 579.706 173.558 577.091C139.311 558.844 112.805 530.096 96.9677 494.676C94.9453 490.153 90.3741 481.998 92.1937 477.236Z"/>
	<path fill="#231F20" d="M696.466 321.614C700.546 321.381 704.304 321.655 708.237 322.813C713.919 324.485 719.746 327.757 722.546 333.181C724.328 336.633 724.378 340.547 723.169 344.195C721.492 349.252 717.66 353.811 712.797 356.047C708.947 357.818 704.484 358.053 700.556 356.385C698.559 355.537 695.924 353.638 695.434 351.371C695.166 350.126 695.556 349.746 696.255 348.839C699.796 347.304 704.806 349.88 708.449 350.829C711.335 350.022 714.063 349.091 716.213 346.902C719.037 344.026 719.57 340.309 719.46 336.442C719.238 335.612 719.035 334.719 718.69 333.932C718.187 332.787 717.786 332.298 716.612 331.932C714.089 333.471 712.061 336.831 709.576 338.818L708.867 339.38C709.753 340.255 710.714 341.147 711.214 342.31C712.001 344.139 711.629 345.683 710.849 347.416C709.679 348.299 709.62 348.269 708.144 348.262C706.504 347.296 706.211 346.42 705.27 344.795C703.558 343.88 701.483 343.306 699.975 342.071C698.904 341.193 698.544 340.117 698.412 338.779C699.751 335.137 707.989 332.118 711.262 329.689L711.871 329.232C705.9 328.041 700.629 327.155 694.624 328.968C694.356 329.049 694.091 329.138 693.824 329.221C691.612 329.91 690.277 331.614 688.607 333.127C687.38 334.238 686.682 334.466 685.053 334.374C683.941 333.619 683.565 333.062 682.967 331.865C682.906 330.745 682.957 329.973 683.592 329.007C686.239 324.982 691.949 322.52 696.466 321.614Z"/>
	<path fill="#231F20" d="M807.312 307.35C813.354 309.152 819.503 312.605 825.166 315.402C834.448 319.987 843.797 325.019 852.446 330.721C874.514 345.271 900.255 368.776 913.326 391.568C915.303 395.015 918.489 400.385 917.377 404.43C916.164 403.792 915.946 403.717 915.238 402.579C910.886 395.578 906.479 388.664 901.421 382.14C888.989 366.106 869.698 348.572 852.947 337.085C846.599 332.732 839.751 328.853 833.044 325.075C826.626 321.459 811.251 315.499 806.927 310.796C806.548 309.257 806.829 308.824 807.312 307.35Z"/>
	<path fill="#231F20" d="M86.7514 494.738C87.3481 494.946 88.6813 495.423 89.1024 495.909C90.2032 497.179 91.1494 501.637 91.7713 503.325C93.9903 509.35 96.6589 515.328 99.7118 520.977C112.157 544.006 132.758 565.084 155.526 577.879C173.554 588.01 195.796 594.144 216.547 591.11C222.417 590.252 227.764 588.399 233.453 586.864C234.887 586.477 236.094 586.112 237.423 586.87C237.057 588.285 236.55 588.58 235.519 589.58C232.384 591.79 229.119 593.553 225.458 594.713C219.366 596.642 212.698 596.895 206.359 596.815C188.492 596.589 172.434 592.279 156.582 584.132C129.251 570.086 106.646 545.145 92.9766 517.782C90.7573 513.34 88.2903 508.718 86.8375 503.967C85.8212 500.643 85.0622 497.956 86.7514 494.738Z"/>
	<path fill="#231F20" d="M798.517 286.132C817.321 285.695 835.638 296.606 851.283 306.003C881.293 324.027 912.668 358.622 932.66 387.148C935.594 391.335 940.737 397.369 941.645 402.402C941.948 404.079 941.357 404.596 940.433 405.856C934.96 400.967 927.825 388.267 922.64 381.715C904.961 359.374 884.801 337.765 862.392 320.155C850.308 310.66 835.974 302.197 821.842 296.147C819.251 295.037 816.609 293.925 813.901 293.133C809.201 291.758 801.057 291.182 797.349 288.161L797.312 287.162L798.517 286.132Z"/>
	<path fill="#231F20" d="M133.189 363.735C134.054 364.045 134.419 364.28 135.126 364.828C135.715 367.871 130.31 374.161 128.562 376.749C130.091 377.215 131.805 377.634 133.129 378.559C136.902 381.194 138.719 386.093 139.259 390.482C139.855 395.327 139.143 400.405 135.907 404.232C134.244 406.199 132.726 406.971 130.183 407.212C129.248 407.301 127.261 407.379 126.469 407.947C123.77 409.881 120.832 416.625 116.569 419.167C114.778 420.235 112.333 420.318 110.376 419.719C108.65 419.191 107.064 418.005 106.318 416.329C105.615 414.75 105.745 413.055 106.339 411.463C108.327 406.146 114.373 403.626 119.062 401.286C117.169 397.163 117.373 393.751 117.57 389.335C118.981 387.122 120.521 384.983 121.942 382.772L121.838 382.081L121.184 381.707C118.301 382.77 116.154 385.195 114.055 387.343C111.949 389.497 108.171 392.505 106.815 395.179C104.424 399.898 105.239 405.559 101.435 409.763C100.617 410.099 100.232 410.456 99.3256 410.225C95.8752 409.349 92.4699 403.918 90.6011 401.032C90.4851 397.956 90.265 395.189 89.5605 392.178C92.1028 389.602 94.7372 385.903 98.2994 384.801C99.5706 384.408 100.836 384.524 101.985 385.232C104.255 386.629 104.814 389.017 105.597 391.373L106.807 389.686C110.778 384.256 116.233 378.048 123.259 376.963C126.695 372.65 129.573 367.894 133.189 363.735Z"/>
	<path fill="#FEFEFE" d="M115.187 407.372C116.028 408.096 116.558 409.013 117.178 409.925C117.329 410.757 117.471 411.473 117.181 412.304C116.469 414.338 114.757 415.433 112.89 416.248C112.525 416.112 112.006 415.928 111.671 415.756C110.392 415.099 110.446 414.868 110.049 413.542C110.629 410.619 112.93 409.082 115.187 407.372Z"/>
	<path fill="#FEFEFE" d="M127.88 381.011C128.785 381.165 129.767 381.302 130.602 381.709C132.675 382.72 133.913 385.257 134.545 387.357C135.719 391.259 135.551 396.236 133.486 399.824C132.093 402.245 130.579 402.873 127.958 403.57C125.719 401.179 122.586 399.257 121.6 395.997C120.349 391.859 125.789 384.711 127.88 381.011Z"/>
	<path fill="#231F20" d="M890.274 563.678C891.235 563.721 892.153 563.901 893.059 564.232C906.819 569.245 924.676 592.882 930.579 605.783C936.675 619.105 939.791 637.047 934.604 651.195C933.174 655.095 929.549 658.339 928.356 662.062C927.424 664.972 928.521 670.133 928.279 673.393C928.012 676.993 926.307 680.901 924.974 684.234C922.293 690.938 915.094 699.21 908.28 701.857C906.784 702.438 905.715 702.719 904.244 702.026C904.177 701.164 904.061 700.655 904.576 699.862C906.262 697.271 910.542 694.889 912.834 692.644C914.698 690.818 916.137 688.631 917.597 686.481C922.208 679.457 923.534 672.994 923.587 664.659C919.953 665.822 916.525 666.617 912.672 666.286C908.496 665.927 904.025 664.276 901.408 660.848C900.067 659.09 899.27 656.843 899.702 654.624C900.116 652.493 901.571 650.855 903.416 649.797C906.929 647.78 912.191 647.221 916.073 648.32C920.595 649.601 923.344 652.738 925.62 656.661C931.214 649.54 932.193 641.283 931.853 632.484C931.084 612.628 919.565 593.202 905.133 579.993C900.222 575.498 894.56 571.932 889.704 567.408C889.347 565.883 889.795 565.147 890.274 563.678Z"/>
	<path fill="#FEFEFE" d="M907.378 653.109C909.358 652.874 911.447 652.677 913.392 653.238C916.063 654.009 919.358 655.811 920.701 658.336C921.15 659.182 920.864 659.353 920.594 660.195L919.175 660.836C915.389 661.285 909.761 661.389 906.441 659.167C905.297 658.402 905.142 657.832 904.858 656.537C905.41 654.862 906.033 654.225 907.378 653.109Z"/>
	<path fill="#231F20" d="M510.934 145.186C512.357 145.268 513.848 145.315 515.252 145.566C521.991 146.774 527.135 151.088 531.088 156.403C536.168 153.045 544.339 148.643 550.431 147.958C551.554 147.832 551.986 147.918 552.886 148.64L552.995 149.693C552.777 150.154 552.666 150.682 552.343 151.077C551.218 152.455 536.145 158.381 533.137 159.981C533.163 160.123 533.192 160.266 533.216 160.408C533.97 164.743 533.543 169.405 530.819 173.005C527.41 177.509 522.32 178.991 517.013 179.821C513.703 180.175 510.249 179.676 507.002 179.021C503.32 183.463 499.813 190.167 495.193 193.488C493.95 193.096 493.896 193.017 493.101 191.975C492.936 188.728 499.822 180.313 501.85 177.574C499.73 176.736 497.222 175.719 495.421 174.309C492.661 172.148 490.75 168.982 490.322 165.493C489.798 161.222 491.373 157.11 494.096 153.857C498.358 148.766 504.421 145.867 510.934 145.186Z"/>
	<path fill="#FEFEFE" d="M528.015 161.925C528.111 161.982 528.224 162.016 528.303 162.094C528.937 162.718 528.989 163.072 529.093 163.962C529.38 166.43 528.865 168.923 527.192 170.827C523.547 174.975 517.091 175.506 511.946 175.74C511.367 175.478 511.668 175.691 511.187 174.935C513.752 170.37 523.477 164.696 528.015 161.925Z"/>
	<path fill="#FEFEFE" d="M508.118 149.567C509.58 149.426 511.041 149.34 512.51 149.382C518.671 149.556 522.762 153.432 526.756 157.616C520.458 160.96 515.249 165.037 509.992 169.834C508.445 171.43 506.792 172.714 505.006 174.024C504.772 173.958 504.538 173.895 504.306 173.826C500.741 172.773 496.878 170.893 495.146 167.403C494.142 165.38 494.127 163.081 494.844 160.965C496.835 155.087 502.88 151.993 508.118 149.567Z"/>
	<path fill="#231F20" d="M687.631 153.637C694.096 152.893 702.177 153.02 707.697 156.831C713.053 160.53 714.476 166.018 715.725 171.993C727.742 163.74 741.85 155.489 756.76 155.054C764.654 154.824 774.524 157.639 780.24 163.294C784.645 167.651 784.902 173.094 785.001 178.905C794.899 174.762 807.396 171.875 818.051 174.624C824.088 176.181 829.486 179.73 832.531 185.287C835.787 191.231 835.937 198.614 833.96 204.983C827.949 224.355 801.85 247.46 784.185 256.864C787.142 259.887 789.491 262.565 790.024 266.935C790.717 272.62 787.317 278.163 783.945 282.471C780.274 287.162 775.729 291.323 770.95 294.863C761.862 301.593 738.875 314.703 727.826 316.011C731.063 321.676 738.823 331.417 740.432 336.391C742.51 342.813 739.915 348.291 737.017 353.886C739.637 360.037 742.556 366.112 745.891 371.908C751.1 372.282 758.429 373.663 763.057 376.113C764.269 376.755 765.267 378.239 766.498 378.642C767.626 379.011 775.714 378.975 778.743 379.566C782.587 383.017 785.819 387.07 789.734 390.475C794.39 394.525 799.578 397.934 804.312 401.898C821.98 416.695 840.088 432.259 854.924 449.939C858.947 454.734 862.44 459.892 866.123 464.944C870.829 471.398 875.565 477.77 879.411 484.793C887.051 498.742 889.133 510.774 884.469 526.269C880.446 539.637 864.304 557.13 853.898 566.338C850.034 569.757 845.79 572.722 841.922 576.139C836.971 580.511 831.74 586.453 825.958 589.592C833.083 595.562 836.291 605.134 838.073 613.987C846.017 653.455 841.533 712.321 834.554 751.902C832.611 762.923 830.921 776.304 824.548 785.746C821.806 789.81 818.115 792.779 813.545 794.568C808.002 796.737 801.837 797.651 796.025 798.864L769.495 804.342C730.647 812.235 691.392 818.531 652.229 824.689C633.05 827.704 613.624 830.14 594.57 833.829C594.847 835.689 595.133 838.048 594.181 839.775C593.217 841.523 591.998 842.183 590.215 842.898C585.544 844.77 580.233 845.903 575.398 847.378C568.215 849.568 561.142 852.058 554.046 854.511L518.389 866.987C511.456 869.433 504.487 872.242 497.38 874.118C489.797 876.12 482.86 874.675 475.198 874.475C466.619 874.252 457.988 874.066 449.409 874.014C404.753 873.742 360.098 874.152 315.444 873.415C306.648 873.27 297.851 872.606 289.061 872.234L238.72 870.183L196.506 868.238C189.619 867.881 182.546 867.798 175.701 867.04C173.722 866.821 172.047 866.474 170.322 865.459C168.498 862.529 169.047 858.836 169.135 855.523C169.845 854.555 170.534 853.538 171.354 852.658C173.742 850.092 177.715 850.412 180.914 850.335C175.343 830.445 168.682 810.818 162.727 791.028C152.813 758.08 143.337 724.965 132.986 692.156C130.336 683.754 125.837 676.044 123.336 667.591C122.767 665.67 122.748 663.754 123.099 661.787C123.741 658.192 125.896 654.574 128.921 652.496C131.981 650.392 135.862 650.063 139.472 649.814C151.104 649.013 162.904 649.201 174.569 648.732L304.475 644.666L377.748 642.273C387.355 641.988 404.399 640.21 413.186 641.892C418.444 642.898 421.65 647.453 424.503 651.571C429.46 641.111 431.065 629.082 435.69 618.396C425.178 615.329 415.734 609.469 406.407 603.898C380.672 588.525 358.964 569.319 340.984 545.276C335.419 537.834 330.703 529.844 325.115 522.433C305.185 522.526 285.192 524.477 265.296 525.611C251.465 526.4 237.627 526.495 223.783 526.845C216.648 527.025 209.445 528.331 202.332 528.041C199.88 527.941 197.783 527.675 195.611 526.469C191.25 524.047 190.511 520.078 189.32 515.624C188.066 507.967 187.759 500.018 187.206 492.287C186.109 476.936 185.315 461.571 184.425 446.207C183.178 424.68 181.012 403.229 179.981 381.686C178.745 355.857 178.707 330.031 177.877 304.208C177.176 282.428 175.808 260.611 174.739 238.842C174.301 229.94 173.149 220.815 173.392 211.935C174.436 211.021 175.368 210.89 176.719 210.646C185.708 209.022 194.956 208.372 204.002 207.057C217.575 205.084 231.023 202.397 244.693 201.123C257.39 199.94 270.193 200.003 282.914 199.118C302.033 197.789 321.148 195.597 340.295 194.787C359.834 193.96 379.375 193.515 398.902 192.381C404.339 192.065 410.347 192.515 415.695 191.718C416.853 191.545 417.964 191.041 419.023 190.563C419.216 190.476 419.406 190.384 419.597 190.294C422.602 191.434 426.286 192.525 428.567 194.869C430.246 196.594 430.643 198.486 430.939 200.802C431.704 206.794 431.556 212.964 431.827 218.996L433.502 259.498C434.563 286.241 436.441 312.992 436.842 339.761C437.103 357.225 436.789 374.596 436.419 392.048C449.017 388.871 461.751 385.22 474.539 382.982C484.334 381.267 497.709 380.394 506.756 377.96C517.32 375.118 527.58 369.723 537.988 366.149C538.295 363.192 538.189 357.492 540.049 355.2C540.659 354.449 540.758 354.329 541.735 354.271C548.141 363.038 530.404 412.959 544.157 437.175C553.904 454.339 582.517 462.009 600.797 462.882C605.479 463.105 612.271 461.464 616.588 462.927C617.804 463.339 618.182 463.758 618.762 464.86C618.482 466.134 618.355 466.708 617.228 467.551C613.812 470.107 590.127 468.068 584.841 467.35C579.334 480.273 564.046 509.886 567.288 523.686C568.237 527.725 571.009 530.397 574.472 532.451C585.229 538.83 599.917 537.99 611.564 534.887C618.034 533.164 630.233 527.727 633.847 521.828C635.405 519.285 635.492 515.589 635.894 512.672C637.96 497.665 642.017 483.701 647.833 469.741C654.969 452.615 665.197 437.04 674.441 421.029C683.281 405.718 691.462 390.04 700.404 374.783C693.71 375.516 688.292 375.145 682.474 371.253C681.077 370.318 680.826 369.795 680.556 368.237C680.812 367.332 681.008 366.766 681.718 366.092C685.011 362.965 687.149 366.163 690.044 367.407C692.356 368.4 695.173 368.622 697.659 368.521C706.303 368.171 717.994 363.453 723.851 357.042C728.691 351.746 730.785 344.877 730.467 337.794C730.164 331.074 727.49 323.879 722.352 319.376C719.312 316.711 714.777 314.338 710.707 313.69C706.111 312.957 701.19 315.86 696.618 316.274C692.793 316.62 688.609 316.115 684.753 316.045C678.326 315.927 671.932 316.08 665.517 316.469C663.578 328.16 655.841 344.609 645.972 351.691C640.86 355.361 634.442 356.519 628.296 355.362C621.35 354.055 615.831 349.561 612.011 343.776C606.232 335.026 604.203 324.176 606.243 313.933L591.703 313.937C592.226 331.062 584.313 347.418 573.47 360.335C570.435 363.952 566.646 367.073 563.778 370.791C562.861 371.98 562.522 372.47 562.758 373.957C569.809 381.948 583.232 376.248 591.081 379.496C592.361 380.025 592.726 380.412 593.232 381.67C592.983 382.364 592.755 382.983 592.22 383.518C589.024 386.715 582.531 385.947 578.428 385.908C578.829 394.754 579.09 406.584 585.176 413.676C587.631 416.536 591.208 418.297 594.984 418.44C602.413 418.721 608.579 411.191 611.142 404.851C612.186 402.269 612.239 399.09 614.52 397.216C615.239 396.625 615.284 396.839 616.111 396.971C616.696 397.856 616.98 398.53 617.05 399.582C617.424 405.201 613.5 412.164 609.841 416.29C605.734 420.922 601.57 423.516 595.221 423.79C590.654 423.987 586.614 422.648 583.254 419.497C574.129 410.943 573.169 396.416 572.767 384.773C569.278 384.353 565.395 383.448 562.175 382.007C559.382 380.756 556.86 378.766 555.867 375.773C555.096 373.446 555.21 370.862 556.248 368.644C558.53 363.769 563.371 359.89 566.996 355.967C572.334 350.191 577.213 343.802 580.522 336.63C585.324 326.221 587.824 314.018 583.554 302.976C581.501 297.669 577.074 293.744 571.951 291.462C563.696 287.785 558.801 288.354 550.454 291.496C557.766 290.836 564.579 291.362 571.076 295.131C576.658 298.369 580.321 303.685 581.789 309.932C583.984 319.269 581.652 331.285 576.687 339.418C573.049 345.378 567.453 350.38 560.513 351.962C554.47 353.34 545.894 352.576 540.71 349.112C535.035 345.319 531.426 338.845 530.235 332.221C528.074 320.205 529.865 305.624 537.053 295.492C542.678 287.564 549.533 284.983 558.776 283.397C559.896 277.642 560.645 271.83 561.937 266.103C565.591 249.911 572.609 235.575 581.924 221.949C605.67 187.212 646.473 161.392 687.631 153.637Z"/>
	<path fill="#FEFEFE" d="M692.692 401.809C694.161 403.48 695.752 405.186 696.576 407.275C695.779 410.514 689.578 412.939 686.819 415.017C685.683 415.974 684.517 416.899 683.366 417.837C686.794 412.702 689.697 407.204 692.692 401.809Z"/>
	<path fill="#FEFEFE" d="M558.307 761.127C559.856 761.027 561.119 760.923 562.629 761.399C563.2 761.908 563.597 762.353 563.85 763.091C565.435 767.713 572.353 789.922 570.921 792.94C569.321 785.627 566.718 778.448 563.637 771.638C562.632 769.418 558.16 762.808 558.307 761.127Z"/>
	<path fill="#FEFEFE" d="M263.978 689.36C265.339 689.692 266.688 689.836 267.667 690.923C267.522 693.554 248.514 732.255 246.285 737.31C246.098 737.333 245.91 737.407 245.724 737.379C244.463 737.193 243.948 736.955 243.308 735.904C244.615 730.792 247.278 725.73 249.444 720.92C254.201 710.36 259.288 699.949 263.978 689.36Z"/>
	<path fill="#FEFEFE" d="M248.088 426.598C251.819 426.998 255.484 426.48 259.217 426.509C261.174 426.524 262.626 426.519 264.039 427.964L263.929 429.396C262.137 430.896 226.442 431.769 221.625 431.732C218.139 432.53 213.479 432.58 209.88 432.336C208.393 432.235 207.435 432.024 206.443 430.901L206.549 429.912C209.215 427.287 241.735 428.277 248.088 426.598Z"/>
	<path fill="#FEFEFE" d="M318.812 747.278C320.042 748.071 320.786 748.805 321.738 749.921C321.75 750.278 321.902 750.659 321.774 750.992C320.562 754.143 316.019 759.528 313.958 762.567C307.785 771.671 301.865 780.999 295.557 790.002C294.199 789.362 293.288 788.778 292.158 787.789C292.253 784.776 315.078 751.142 318.812 747.278Z"/>
	<path fill="#FEFEFE" d="M519.635 728.158C520.423 728.355 521.059 728.539 521.699 729.081C526.575 733.215 526.864 746.701 527.585 752.665C524.857 752.492 522.139 752.031 519.433 751.654C516.084 751.413 512.677 750.752 509.348 750.274C511.845 742.959 515.763 734.852 519.635 728.158Z"/>
	<path fill="#FEFEFE" d="M295.206 708.083C295.765 708.228 296.648 708.386 297.173 708.678C298.327 709.319 298.584 709.591 298.947 710.767C297.054 717.299 293.379 723.688 290.336 729.751L278.526 753.408C275.236 760.003 272.42 768.03 268.066 773.912C266.593 773.493 265.443 773.238 264.31 772.131C263.958 770.937 264.368 770.102 264.804 768.992C267.744 761.493 272.062 754.338 275.697 747.144L295.206 708.083Z"/>
	<path fill="#FEFEFE" d="M746.321 378.474C751.375 378.654 756.018 379.558 760.908 380.823C746.39 389.249 733.462 398.786 722.611 411.732C721.005 413.524 719.74 416.237 717.631 417.44C716.553 417.067 716.059 416.662 715.263 415.853C714.096 412.986 714.834 410.301 715.911 407.493C720.221 396.254 735.368 383.122 746.321 378.474Z"/>
	<path fill="#FEFEFE" d="M732.077 357.878C735.901 362.802 737.555 369.264 741.009 374.502C727.796 383.097 716.425 395.277 709.761 409.613L705.981 406.694C703.527 404.389 700.87 400.211 698.121 398.507C696.908 397.755 696.028 398.131 694.718 398.351C695.534 393.495 705.815 383.442 705.456 375.636C705.441 375.31 705.409 374.985 705.385 374.659C707.361 373.017 711.056 372.329 713.521 371.473C721.37 368.749 726.547 363.866 732.077 357.878Z"/>
	<path fill="#FEFEFE" d="M536.968 371.494C537.347 375.895 535.741 381.435 534.987 385.853C532.377 401.147 530.866 416.003 534.432 431.279C530.66 432.861 526.941 434.591 523.18 436.206C522.513 432.516 522.308 428.664 521.891 424.932C520.36 412.05 513.962 395.983 508.206 384.432C517.694 379.873 527.508 376.081 536.968 371.494Z"/>
	<path fill="#FEFEFE" d="M542.451 298.292C550.206 295.271 558.172 293.715 566.124 297.386C570.934 299.606 574.575 303.86 576.352 308.819C578.917 315.977 577.493 325.584 574.095 332.297C570.834 338.738 565.016 343.242 558.207 345.425C557.77 345.565 557.33 345.696 556.89 345.827C556.994 345.675 557.096 345.521 557.204 345.37C559.661 341.931 568.644 336.051 568.451 331.913L567.602 331.19C561.409 331.739 556.06 346.389 550.141 345.215C550.542 340.404 565.868 330.499 565.891 324.13C564.662 323.735 565.182 323.652 564.066 324.25C557.279 327.886 553.301 337.237 548.026 342.659C547.282 343.423 546.431 344.044 545.325 343.706C544.986 343.602 544.379 343.239 544.057 343.056C548.576 338.772 551.696 332.945 555.381 327.958C557.253 325.425 559.486 323.151 561.167 320.477C561.789 319.486 562.286 318.504 562.279 317.311C562.273 316.554 561.975 316.465 561.503 315.958C560.907 316.062 560.905 316.024 560.272 316.352C556.656 318.225 544.389 337.619 542.704 342.178C541.506 340.879 539.952 339.561 539.626 337.773C541.169 331.684 559.072 316.984 556.905 311.977C552.977 312.866 541.167 330.065 537.523 333.911C534.273 325.366 535.98 311.067 539.745 302.785C540.481 301.166 541.392 299.716 542.451 298.292Z"/>
	<path fill="#231F20" d="M548.924 299.341C550.298 299.616 550.389 299.546 551.272 300.609C551.089 303.149 543.086 309.872 541.12 312.096C540.231 312.134 539.741 312.07 538.922 311.717L538.666 310.654C540.08 306.274 545.44 302.201 548.924 299.341Z"/>
	<path fill="#231F20" d="M554.133 304.372C555.549 304.846 555.937 304.923 556.921 306.016L556.788 307.295C550.43 312.264 544.699 318.45 539.7 324.765C538.932 325.068 538.513 325.027 537.701 325.003L537.448 324.283C539.021 316.955 548.468 308.773 554.133 304.372Z"/>
	<path fill="#FEFEFE" d="M611.324 319.172C612.155 311.789 613.912 305.833 619.948 300.883C625.23 296.552 631.905 294.747 638.659 295.642C646.497 296.681 649.356 300.666 654.987 305.193C653.668 302.138 651.414 299.696 650.332 296.661L650.676 296.048C653.536 297.015 656.282 300.414 657.646 303.028C660.938 309.335 659.051 318.163 656.808 324.537C653.998 332.525 648.161 344.201 640.03 347.845C635.134 350.039 630.528 349.353 625.486 348.285C624.529 347.055 622.1 345.704 620.815 344.726C625.409 341.167 637.81 330.165 640.897 325.669C641.829 324.312 642.06 323.459 641.768 321.855L640.706 321.216C638.854 322.689 637.354 324.753 635.638 326.409C630.13 331.726 624.525 336.784 619.491 342.583L618.35 342.534C617.794 341.217 616.953 340.225 616.068 339.123C619.578 336.898 636.285 320.441 637.529 317.332C636.846 316.184 636.418 315.882 635.205 315.335C634.826 315.431 634.384 315.393 634.068 315.623C632.275 316.931 617.047 334.348 614.901 337.098C614.4 335.194 613.659 333.301 613.036 331.43C614.276 331.094 615.172 330.654 616.131 329.779C619.875 326.363 622.966 321.878 626.484 318.188C628.822 315.735 631.748 313.672 633.971 311.167C634.902 310.117 634.883 309.902 634.85 308.585C633.921 307.723 633.898 307.765 632.624 307.684C627.918 309.557 616.06 325.295 612.592 330.166L611.466 323.561C616.894 318.93 620.953 312.777 626.192 307.936C627.603 306.632 630.16 305.803 631.176 304.302C631.855 303.298 631.614 302.858 631.397 301.758C631.031 301.422 630.433 301.383 629.955 301.266C623.807 302.853 616.333 314.241 611.647 318.857L611.324 319.172Z"/>
	<path fill="#231F20" d="M646.836 335.337C647.889 335.813 647.764 335.568 648.347 336.721C647.597 340.587 640.947 345.553 638.009 347.977L636.615 346.633L636.654 345.581C639.491 341.739 643.34 338.579 646.836 335.337Z"/>
	<path fill="#231F20" d="M644.555 327.289C645.367 328.486 645.553 328.765 645.691 330.19C643.38 335.481 633.251 342.913 628.678 347.038C627.891 345.889 627.379 345.381 627.238 343.977C632.228 337.975 638.907 332.738 644.555 327.289Z"/>
	<path fill="#FEFEFE" d="M489.826 754.708C498.531 753.421 542.383 759.532 551.584 762.621C555.306 767.505 558.09 773.057 560.352 778.749C563.652 787.052 569.851 806.8 568.205 815.35C567.703 817.958 566.113 820.834 565.059 823.288C539.174 828.592 521.155 828.762 495.183 838.651L492.006 831.169C496.919 827.76 500.532 822.723 505.939 820.241C510.042 818.358 515.187 816.703 519.708 816.382C523.986 816.078 528.389 819.147 532.18 816.519C532.716 815.299 532.679 815.371 532.236 814.107C530.755 812.607 529.259 811.776 527.279 811.05C524.991 810.212 522.132 810.592 519.749 810.82C503.377 812.386 503.815 818.786 491.73 824.915L490.326 825.437C487.626 823.396 484.453 812.812 483.339 809.432C491.237 802.704 505.162 792.427 516.371 794.614C518.909 795.11 522.406 797.139 524.941 796.487C526.218 796.159 526.408 795.844 526.962 794.775C526.747 793.648 526.498 792.947 525.635 792.143C522.313 789.046 516.858 788.895 512.572 789.021C499.938 789.391 489.709 795.751 481.265 804.815C477.829 798.004 475.071 790.48 472.574 783.267C481.116 778.622 489.962 774.029 499.511 771.906C504.745 770.742 515.708 772.813 519.027 770.67C519.49 769.543 519.464 769.604 519.038 768.456C518.041 767.51 517.227 766.828 515.899 766.406C499.999 761.358 483.753 769.963 470.243 777.332C468.067 771.956 465.993 766.577 464.083 761.1C472.178 757.579 481.051 755.449 489.826 754.708Z"/>
	<path fill="#FEFEFE" d="M536.057 437.008C537.747 438.023 539.966 442.561 541.143 444.305C548.152 454.694 567.063 463.185 579.013 465.467C574.701 473.918 570.836 482.518 567.541 491.418C565.368 497.289 563.615 503.303 561.373 509.15C554.692 506.525 548.718 503.755 541.586 502.373C523.277 498.828 509.646 502.148 494.16 512.594C493.676 512.957 493.402 513.277 492.818 513.392C488.232 514.295 449.592 491.47 443.66 487.528C449.479 483.149 456.444 479.641 462.756 475.987C479.167 466.485 495.96 457.338 512.893 448.799C520.575 444.925 528.746 441.53 536.057 437.008Z"/>
	<path fill="#FEFEFE" d="M699.656 410.318C702.52 412.068 705.288 413.77 708.405 415.042C709.747 418.068 711.405 420.71 713.232 423.463C712.491 426.909 711.771 430.989 713.509 434.272C715.655 438.328 721.546 441.504 724.936 444.64C736.608 455.436 753.979 476.379 756.513 492.008C746.306 506.879 725.093 510.225 712.163 519.44C709.745 518.266 707.446 517.424 704.877 516.67C693.283 513.537 680.908 511.292 668.915 510.57C660.56 510.067 652.146 510.398 643.819 509.467L642.83 509.352C646.239 488.611 653.782 469.102 664.262 450.916C666.397 447.212 668.634 442.836 671.763 439.893C675.354 436.514 683.336 434.379 688.111 430.703C695.09 425.329 698.512 419.013 699.656 410.318Z"/>
	<path fill="#FEFEFE" d="M690.574 158.693C693.634 158.493 696.702 158.38 699.715 159.079C703.1 159.864 706.279 161.568 708.087 164.637C710.377 168.526 709.803 172.804 708.77 176.958C705.492 180.767 701.233 183.962 698.651 188.323C697.731 189.877 697.059 191.395 697.661 193.21C698.059 194.408 698.955 195.237 700.132 195.684C701.631 196.252 703.393 195.927 704.79 195.246C710.222 192.597 712.827 185.456 714.558 180.06C725.021 170.708 740.568 162.016 754.849 161.21C763.319 160.732 770.981 162.745 777.421 168.526C778.138 170.544 778.719 172.522 779.025 174.649C780.601 185.618 765.701 184.938 760.819 192.181C759.483 194.163 758.728 197.053 759.358 199.405C759.764 200.918 760.779 202.138 762.16 202.86C764.125 203.887 766.461 203.85 768.524 203.152C774.998 200.963 780.591 191.629 783.555 185.876C793.605 182.742 804.237 178.368 814.986 180.092C819.85 180.872 824.028 183.096 826.831 187.229C829.295 190.865 829.905 195.1 828.892 199.346C824.819 216.429 803.017 236.521 788.419 245.963C788.518 243.697 788.473 241.425 788.464 239.158C787.789 238.035 787.083 236.939 786.189 235.974C783.863 233.459 780.031 232.563 776.721 232.546C771.385 232.518 765.13 233.879 761.27 237.723L761.293 238.77C761.62 239.049 761.877 239.442 762.275 239.605C763.197 239.984 774.703 235.828 779.661 237.097C781.26 237.506 782.601 238.339 783.368 239.863C784.627 242.366 783.78 245.14 782.977 247.628L782.764 248.275C781.272 249.708 779.734 251.324 777.906 252.329C771.479 255.863 760.783 256.23 755.631 261.578C754.855 262.384 754.217 263.443 754.421 264.614C754.605 265.675 755.335 266.658 756.313 267.11C760.777 269.172 769.742 263.507 773.98 261.719C776.008 261.964 778.554 262.088 780.388 263.056C781.806 263.803 782.698 264.959 783.078 266.527C783.949 270.13 780.425 274.875 778.522 277.706C768.731 292.483 742.47 303.423 726.323 310.232C726.226 310.057 726.126 309.883 726.031 309.708C725.798 309.28 725.576 308.846 725.334 308.423C724.325 306.657 722.991 305.188 720.857 304.857C718.291 304.459 716.487 306.017 714.699 307.577C705.553 307.15 702.809 309.271 695.072 309.881C685.785 310.614 675.224 309.647 665.809 309.51C665.389 305.168 664.536 300.66 662.15 296.933C658.023 290.486 650.878 288.368 643.864 286.771C643.544 282.761 642.41 278.812 642.944 274.772C643.459 270.879 647.446 265.509 646.336 261.921L645.411 261.904C642.461 263.63 640.9 266.575 639.814 269.74C637.904 275.308 637.781 281.358 640.344 286.719C632.216 286.187 625.046 286.01 617.971 290.86C612.092 294.89 609.295 300.213 607.933 307.019C602.225 307.177 596.568 307.225 590.86 307.046C590.171 302.505 588.605 298.18 585.836 294.48C580.791 287.739 573.212 285.048 565.224 283.799C568.392 260.348 576.055 238.879 590.686 220.069C614.201 189.839 652.014 163.549 690.574 158.693Z"/>
	<path fill="#231F20" d="M602.458 219.261C603.663 219.422 603.783 219.218 604.66 220.145C604.66 222.891 598.389 231.83 596.704 234.959C596.341 234.858 595.819 234.737 595.505 234.537C594.46 233.868 594.252 233.186 594.26 231.995C594.285 228.046 599.87 222.057 602.458 219.261Z"/>
	<path fill="#231F20" d="M721.274 248.961C721.854 249.331 722.201 249.773 722.653 250.285C722.59 250.688 722.654 251.134 722.464 251.496C721.481 253.377 708.846 261.146 705.969 263.591C704.792 262.404 704.563 262.45 704.501 260.81C706.972 255.964 716.284 250.667 721.274 248.961Z"/>
	<path fill="#231F20" d="M661.953 215.874C663.253 215.957 663.733 216.023 664.584 216.935C664.449 217.965 664.438 218.42 663.69 219.217C662.266 220.732 659.949 221.591 658.314 222.935C654.588 225.996 651.514 230.063 648.436 233.759C648.16 233.73 647.879 233.726 647.607 233.671C646.296 233.406 646.139 233.142 645.423 232.105C645.43 231.526 645.395 231.497 645.604 230.853C647.173 226.006 657.502 218.376 661.953 215.874Z"/>
	<path fill="#231F20" d="M724.746 278.947C725.058 278.95 725.374 278.902 725.68 278.955C726.749 279.142 726.928 279.668 727.319 280.529C725.866 284.252 712.596 291.691 709.031 295.108L708.426 295.693C708.065 295.499 707.36 295.146 707.072 294.875C706.573 294.404 706.312 293.837 706.488 293.177C707.702 288.636 720.477 281.547 724.746 278.947Z"/>
	<path fill="#231F20" d="M632.851 212.342C633.256 212.352 633.871 212.345 634.25 212.466C635.426 212.84 635.568 213.244 635.918 214.288C635.235 216.888 630.854 219.997 629.137 222.305C626.7 225.58 624.805 229.195 622.934 232.81C621.764 233.036 620.89 232.659 619.863 232.152C619.672 231.581 619.612 231.529 619.622 230.833C619.696 225.69 629.222 215.781 632.851 212.342Z"/>
	<path fill="#231F20" d="M700.528 225.866C701.503 226.406 701.567 226.51 702.09 227.501C701.021 229.909 694.983 233.008 692.608 234.669C687.807 238.027 683.985 241.534 680.134 245.956C679.416 245.247 678.931 244.594 678.413 243.728C678.367 243.073 678.382 242.544 678.663 241.934C681.604 235.539 694.223 228.57 700.528 225.866Z"/>
	<path fill="#FEFEFE" d="M399.677 198.278C407.209 197.599 414.964 198.004 422.526 198.099C423.524 199.04 424.377 200.127 425.261 201.174C427.599 222.269 427.1 243.843 427.95 265.054C428.991 291.011 430.537 316.976 431.197 342.948C431.63 360.008 431.48 377.04 431.377 394.102C418.462 396.402 404.86 401.149 392.458 405.448C387.046 407.325 381.735 410.607 376.003 411.23C368.122 412.085 359.532 411.41 351.56 411.49C341.009 411.595 330.44 412.255 319.89 412.603C309.251 412.953 298.638 413.734 288.008 414.217C273.304 414.886 258.587 415.31 243.895 416.23C237.502 416.63 231.135 417.412 224.745 417.789C218.859 418.136 207.118 416.949 202.113 419.307C201.756 419.476 201.433 419.655 201.108 419.878C199.857 420.739 199.242 421.815 199.095 423.306C198.631 428.003 197.968 436.802 200.865 440.551C206.966 444.369 277.606 439.125 290.997 438.639C306.17 438.089 321.691 437.303 336.856 438.033C321.327 449.211 317.715 463.978 313.228 481.465C287.979 481.89 263.162 484.135 238.043 486.581C229.805 487.383 217.899 487.434 210.318 490.346C208.97 490.864 207.753 491.435 207.124 492.748C208.822 494.171 211.518 493.847 213.624 493.766C235.283 492.677 256.861 489.876 278.401 487.46C289.814 486.179 301.512 484.277 313.003 484.469C314.218 497.736 316.525 504.859 322.029 516.837C317.427 517.524 312.652 517.412 308.006 517.605C300.137 517.931 292.258 518.273 284.396 518.742C263.383 519.996 242.447 521.008 221.408 521.692C214.532 521.915 207.663 522.774 200.781 522.464C199.576 521.708 198.332 520.828 197.335 519.806C195.465 517.888 194.972 515.034 194.542 512.496C193.832 508.308 193.667 504.006 193.205 499.783C191.236 481.77 190.484 463.735 189.322 445.66C187.533 417.834 184.834 390.125 183.704 362.245C182.69 337.212 182.798 312.193 181.906 287.162C181.066 263.587 179.05 239.697 179.443 216.127C188.446 214.317 197.759 213.593 206.844 212.195C220.969 210.023 234.948 207.196 249.222 206.06C261.668 205.07 274.273 205.161 286.76 204.334C307.123 202.986 327.452 201.116 347.837 200.121C359.352 199.558 370.886 199.356 382.409 199.014C388.125 198.844 393.994 198.9 399.677 198.278Z"/>
	<path fill="#231F20" d="M300.916 458.704C302.321 458.548 303.937 458.461 305.337 458.636C306.679 458.805 307.428 459.148 308.294 460.152L307.928 461.225C305.364 463.358 302.906 463.298 299.736 463.55C297.798 463.619 295.668 463.703 293.776 463.267C291.919 462.839 291.912 462.525 290.903 460.985C293.835 458.76 297.403 458.908 300.916 458.704Z"/>
	<path fill="#231F20" d="M213.785 318.686C214.506 318.59 215.273 318.454 216.005 318.442C217.545 318.417 217.88 318.698 218.969 319.754L218.928 320.772C216.274 323.607 208.009 324.102 204.302 324.669C203.024 324.836 201.849 324.84 200.565 324.814C199.455 324.233 199.023 323.954 198.452 322.826L198.796 321.856C202.427 319.249 209.39 319.241 213.785 318.686Z"/>
	<path fill="#231F20" d="M359.084 310.727L360.207 310.677L361.02 311.459C361.168 312.626 361.175 312.893 360.329 313.853C357.857 316.656 344.828 316.482 340.95 316.555C340.151 316.287 339.755 315.96 339.099 315.45C338.779 314.071 338.763 314.037 339.349 312.754C342.047 310.678 354.977 311.227 359.084 310.727Z"/>
	<path fill="#231F20" d="M317.272 311.744C317.396 311.739 317.521 311.706 317.643 311.727C319.008 311.96 319.178 312.144 319.891 313.228C319.803 314.658 319.773 314.695 318.841 315.786C313.13 318.143 304.822 317.505 298.619 317.816C297.813 317.755 297.232 317.677 296.468 317.379C295.58 317.031 295.661 316.676 295.282 315.855L295.709 314.8C300.141 312.097 311.651 312.246 317.272 311.744Z"/>
	<path fill="#231F20" d="M252.697 315.692C255.232 315.218 258.594 314.968 261.122 315.475C262.001 316.16 262.123 316.288 262.528 317.322L261.898 318.294C257.741 320.719 247.793 320.718 242.614 321.368C240.945 321.54 238.911 321.929 237.249 321.743C235.488 321.547 233.864 320.995 232.693 319.625L233.568 318.33C237.775 316.247 247.644 316.218 252.697 315.692Z"/>
	<path fill="#231F20" d="M270.252 460.238C271.799 460.117 273.976 460.12 275.334 460.948C276.017 461.364 275.932 461.862 276.109 462.578L275.37 463.48C269.517 466.146 260.558 466.164 254.125 466.457C252.355 466.524 250.299 466.698 248.562 466.302C247.312 466.017 246.766 465.686 246.103 464.619L246.435 463.401C246.76 463.062 247.001 462.615 247.41 462.386C250.029 460.92 266.128 460.569 270.252 460.238Z"/>
	<path fill="#231F20" d="M220.726 291.794C223.222 291.576 225.796 291.15 228.268 291.663L229.114 292.963C229.052 293.687 229.182 293.993 228.628 294.546C225.533 297.633 210.711 297.218 205.691 297.48C205.122 297.511 204.553 297.543 203.983 297.564C201.85 297.643 200.611 297.748 198.97 296.21C198.914 295.532 198.718 295.289 199.213 294.731C202.367 291.179 215.932 292.094 220.726 291.794Z"/>
	<path fill="#231F20" d="M227.696 462.237C230.339 462.218 233.234 462.074 235.843 462.502C237.325 462.744 237.613 463.213 238.416 464.42C238.3 465.218 238.429 465.549 237.774 466.12C233.789 469.597 223.82 469.573 218.828 469.547C215.442 469.521 211.085 469.723 208.341 467.491C207.851 466.231 207.722 466.187 208.14 464.924C212.185 461.388 222.475 462.346 227.696 462.237Z"/>
	<path fill="#231F20" d="M230.768 221.028C232.303 221.011 233.849 221.155 235.201 221.949C236.911 222.953 237.996 224.641 238.506 226.53C239.291 229.438 238.7 232.761 237.14 235.314C235.79 237.522 233.754 239.156 231.242 239.759C230.747 239.634 230.253 239.51 229.761 239.374C227.102 238.641 224.634 237.534 223.313 234.952C221.674 231.75 222.836 228.107 223.903 224.928C226.037 222.914 227.926 221.812 230.768 221.028Z"/>
	<path fill="#231F20" d="M205.463 222.616C207.23 222.464 208.782 222.347 210.438 223.098C212.622 224.087 214.338 225.748 215.126 228.041C215.932 230.391 215.658 232.95 214.57 235.161C213.05 238.247 210.541 239.463 207.42 240.522C205.581 240.598 203.554 240.773 201.757 240.282C199.887 239.771 198.14 238.546 197.183 236.84C196.188 235.068 196.183 232.973 196.784 231.068C198.112 226.864 201.675 224.418 205.463 222.616Z"/>
	<path fill="#231F20" d="M276.397 337.707C277.788 337.664 279.767 337.45 281.094 337.896C282.309 338.304 282.572 338.834 283.051 339.888L282.62 340.714C277.796 343.585 222.013 347.035 211.542 348.372C209.189 348.731 206.85 349.214 204.464 349.012C203.477 348.205 203.117 348.02 202.682 346.843L203.084 346.026C208.759 342.174 265.794 338.627 276.397 337.707Z"/>
	<path fill="#231F20" d="M254.234 218.077C255.628 217.947 257.074 217.775 258.465 218.01C261.17 218.467 264.073 219.993 265.554 222.368C267.119 224.877 267.362 228.188 266.565 230.996C265.18 235.872 261.562 237.719 257.402 239.87C255.104 239.953 252.746 239.947 250.588 239.034C248.392 238.105 246.612 236.081 245.71 233.905C244.457 230.882 244.183 227.137 245.642 224.137C247.446 220.426 250.607 219.386 254.234 218.077Z"/>
	<path fill="#231F20" d="M343.927 283.695C344.402 283.7 345.135 283.678 345.579 283.82C346.829 284.219 347.089 284.691 347.465 285.8L346.854 286.883C345.39 287.816 344.039 288.223 342.302 288.403C323.8 290.313 304.926 290.361 286.352 291.502C274.413 292.236 262.571 294.104 250.625 294.798C249.749 294.782 248.862 294.647 247.99 294.557C246.7 293.544 246.596 293.35 246.031 291.803C246.116 291.593 246.237 291.383 246.412 291.238C248.623 289.409 257.961 289.686 261.138 289.388C269.782 288.575 278.324 287.344 287.005 286.733C305.955 285.401 324.958 285.007 343.927 283.695Z"/>
	<path fill="#231F20" d="M408.04 361.694C410.981 361.442 414.374 360.742 416.845 362.775C419.17 364.689 419.915 367.349 420.228 370.237C420.824 375.742 421.285 383.712 417.617 388.204C415.793 389.221 374.413 389.829 367.637 390.229C340.464 391.83 313.643 395.583 286.57 397.998C262.487 400.146 238.341 401.002 214.25 402.977C210.938 403.275 205.693 403.878 202.602 402.54C201.911 402.242 201.485 401.281 201.221 400.598C199.332 395.711 200.563 383.868 202.669 379.142C203.42 378.344 204.1 377.964 205.191 377.76C209.782 376.903 215.374 377.133 220.092 376.781C235.912 375.599 251.738 374.879 267.568 373.902C294.181 372.258 320.851 370.403 347.399 367.9C367.631 365.992 387.786 363.424 408.04 361.694Z"/>
	<path fill="#FEFEFE" d="M400.057 376.269C400.456 376.47 400.86 376.662 401.246 376.885C402.588 377.659 402.966 378.207 403.335 379.626C402.898 381.178 402.031 382.043 400.978 383.201L398.888 382.713C397.833 381.724 397.759 381.692 397.506 380.278C398.022 378.451 398.739 377.613 400.057 376.269Z"/>
	<path fill="#FEFEFE" d="M239.438 389.216C244.02 388.952 248.766 388.767 253.351 388.891C255.261 388.943 256.842 389.109 258.225 390.562L258.18 391.509C256.015 393.233 232.789 393.372 227.878 393.622C221.897 394.228 214.56 395.728 208.716 394.034L208.446 393.147C213.022 389.174 232.708 389.512 239.438 389.216Z"/>
	<path fill="#231F20" d="M402.841 235.693C405.304 235.478 407.76 235.162 410.094 236.123C411.087 237.075 411.548 237.915 411.938 239.212C413.678 244.991 413.174 258.83 410.489 264.106C401.86 267.435 390.535 266.663 381.354 266.841C344.31 267.555 307.062 266.641 270.055 268.838C247.911 270.153 225.966 274.041 203.826 275.283C201.93 275.362 199.661 275.657 197.799 275.328C196.412 275.083 195.217 273.979 194.583 272.76C192.67 269.082 192.596 257.285 193.968 253.375C195.645 252.045 197.982 251.62 200.05 251.231C212.869 248.818 226.483 248.222 239.476 246.908C258.996 244.933 278.411 242.506 298.007 241.299C314.617 240.276 331.22 240.62 347.841 240.094C366.223 239.513 384.591 237.934 402.841 235.693Z"/>
	<path fill="#FEFEFE" d="M393.451 248.216C394.706 248.586 395.312 248.804 396.195 249.786C396.323 252.477 394.719 253.967 393.048 255.923C392.748 255.902 392.442 255.92 392.146 255.861C390.864 255.607 390.626 255.276 389.995 254.252C389.982 251.62 391.731 249.993 393.451 248.216Z"/>
	<path fill="#FEFEFE" d="M523.255 506.576C533.35 505.781 546.574 508.867 555.435 513.743C554.864 515.386 554.421 517.052 554.28 518.793C553.598 527.196 557.476 535.553 562.999 541.691C570.661 550.207 581.443 553.951 592.649 554.539C607.642 555.326 622.22 548.843 633.221 538.907C639.74 533.018 646.261 524.539 646.72 515.499C668.893 515.321 687.382 518.36 708.924 523.401C702.242 533.418 698.553 546.529 696.462 558.265C692.586 580.03 695.158 610.798 708.134 629.201C713.337 636.58 720.374 642.02 729.475 643.458C734.184 644.202 738.879 644.001 743.433 642.504C752.815 639.419 762.049 632.881 770.413 627.706C779.543 622.057 788.925 616.685 797.857 610.736C806.218 605.168 814.203 599.035 822.316 593.114C822.94 593.74 823.548 594.389 824.134 595.05C839.896 612.82 836.687 674.8 835.365 698.562C834.373 716.4 829.765 774.337 816.18 785.937C814.442 787.421 812.502 788.591 810.328 789.312C798.927 793.095 786.291 795.006 774.54 797.545C736.487 805.766 697.893 811.962 659.407 817.792L618.677 824.16C611.157 825.338 603.555 826.78 595.971 827.453C589.999 827.983 583.603 827.01 577.615 826.576C577.093 818.974 578.179 811.307 577.712 803.624C577.418 792.888 575.457 781.894 572.364 771.62C570.669 765.991 568.452 760.549 566.991 754.845C578.318 752.839 589.557 750.222 600.835 747.949C617.621 744.564 634.474 741.444 651.321 738.374C669.45 735.07 687.807 732.758 706.02 729.915C712.068 728.972 729.784 728.007 733.647 724.84C734.144 723.581 734.007 723.563 733.541 722.269C730.761 720.114 723.685 722.168 720.258 722.592C722.117 707.855 724.669 693.374 725.42 678.502C725.533 676.265 726.011 673.357 725.664 671.196C725.421 669.687 725.14 669.607 723.963 668.797C722.492 668.914 722.375 669.023 721.209 669.946C719.776 672.91 718.509 695.528 717.996 700.084C717.125 707.83 715.774 715.502 715.11 723.273C710.285 723.772 705.465 724.327 700.664 725.02C666.962 729.891 633.557 735.824 600.213 742.714C591.007 744.616 574.528 747.227 566.37 750.221C564.355 750.96 563.121 751.533 561.835 753.281C561.355 753.933 560.956 754.579 560.301 755.083C555.592 758.709 539.184 754.476 533.056 753.517C532.967 745.885 531.996 735.922 528.682 728.99C527.471 726.456 525.144 723.004 522.211 722.281C513.746 720.195 508.367 739.486 503.826 744.833C502.432 746.475 500.76 747.502 498.916 748.549L498.288 748.899C485.284 747.607 473.834 750.169 461.796 754.816C449.834 724.167 441.065 692.239 429.559 661.396C431.249 653.568 434.097 645.859 436.506 638.214C446.368 606.914 458.134 574.192 475.667 546.307C479.585 540.075 483.797 534.2 488.403 528.46C499.158 515.059 506.248 510.466 523.255 506.576Z"/>
</svg>
