<?xml version="1.0" encoding="utf-8" ?>
<svg xmlns="http://www.w3.org/2000/svg" xmlns:xlink="http://www.w3.org/1999/xlink" width="1024" height="1024">
	<path fill="#232122" d="M440.644 359.773C441.623 359.876 442.928 359.992 443.796 360.466C444.396 360.794 445.022 361.434 445.226 362.098C445.845 364.114 444.523 365.996 443.536 367.648C442.886 367.503 442.224 367.347 441.591 367.139C440.613 366.816 439.809 366.189 439.451 365.206C438.723 363.211 439.741 361.509 440.644 359.773Z"/>
	<path fill="#232122" d="M475.091 355.652C476.049 355.792 476.983 355.986 477.908 356.276C478.937 356.599 479.842 357.201 480.241 358.245C480.969 360.148 480.05 361.852 479.236 363.554C478.095 363.629 476.89 363.765 475.793 363.361C474.811 362.999 473.902 362.173 473.616 361.143C473.064 359.155 474.126 357.295 475.091 355.652Z"/>
	<path fill="#232122" d="M539.135 338.891C540.895 339.056 541.85 339.216 543.255 340.329C543.842 341.52 544.186 342.049 543.805 343.428C543.369 345.007 542.045 345.894 540.797 346.806C539.633 346.619 537.802 346.327 536.867 345.566C535.767 344.671 535.844 344.233 535.779 342.931C536.528 341.109 537.676 340.175 539.135 338.891Z"/>
	<path fill="#232122" d="M462.077 380.5C463.893 380.898 465.379 381.262 466.492 382.929C467.28 384.108 467.365 385.184 467.075 386.541C466.605 388.741 464.84 389.898 463.064 391.01C461.129 390.503 459.675 390.062 458.502 388.346C457.691 387.158 457.363 385.823 457.801 384.424C458.491 382.217 460.159 381.447 462.077 380.5Z"/>
	<path fill="#232122" d="M361.254 741.795C362.504 742.129 362.536 742.117 363.309 743.148C362.385 748.478 348.329 760.357 344.7 765.996C336.437 763.281 328.499 759.441 320.563 755.901C319.398 755.253 318.106 754.519 317.596 753.241L318.197 752.694C326.646 752.219 335.766 757.983 343.051 761.779C348.08 754.792 355.129 747.879 361.254 741.795Z"/>
	<path fill="#232122" d="M410.102 154.35C411.893 154.74 413.558 155.137 415.113 156.151C418.182 158.153 419.975 161.3 420.691 164.841C422.247 172.534 419.079 181.152 414.762 187.465C418.035 191.835 420.419 197.178 423.3 201.851C426.931 207.743 436.376 219.523 438.068 225.184L437.698 225.637C432.732 224.531 429.78 218.647 427.278 214.749C421.965 206.52 416.686 198.306 412.147 189.617C407.422 191.069 401.894 192.447 397.024 190.921C395.334 190.391 393.644 189.352 392.959 187.634C392.493 186.463 392.611 185.075 393.223 183.977C393.988 182.603 395.438 181.695 396.965 181.434C400.817 180.777 403.266 183.773 406.129 185.697C407.469 186.597 408.468 186.715 410.005 186.369C412.2 180.638 405.948 165.565 410.102 154.35ZM412.026 158.678C411.673 164.781 411.172 173.834 413.724 179.507L414.396 179.971C414.781 179.473 415.189 178.993 415.51 178.45C417.28 173.473 418.861 168.182 416.434 163.099C415.383 160.899 414.118 159.854 412.026 158.678Z"/>
	<path fill="#232122" d="M546.641 110.799C547.103 111.309 547.442 111.948 547.811 112.528C548.07 114.214 547.633 115.023 546.899 116.472C553.546 121.891 557.195 126.724 559.977 134.932C558.66 137.989 557.395 140.892 554.84 143.154C552.778 144.98 550.244 146.185 547.438 145.931C544.026 145.621 541.783 143.758 539.615 141.276C535.389 156.091 533.188 173.304 534.417 188.727C534.704 192.33 535.534 195.949 536.002 199.544C536.273 201.632 536.673 203.379 535.321 205.14C533.898 204.757 533.842 204.554 532.892 203.397C526.541 182.247 531.341 156.583 537.041 135.646C533.664 137.84 529.087 140.081 524.943 139.926C523.553 139.873 522.187 139.423 521.327 138.269C520.365 136.979 520.311 135.278 520.55 133.752C521.702 126.385 530.224 119.367 536.667 116.285C538.819 115.256 541.875 114.564 543.694 113.069C544.657 112.277 545.641 111.543 546.641 110.799ZM544.758 119.729C543.53 124.934 540.359 134.339 543.13 139.207C543.914 140.585 545.139 141.345 546.658 141.694C547.953 141.991 549.663 141.537 550.954 141.316C553.162 139.222 555.013 137.433 555.09 134.22C555.195 129.896 552.077 126.498 549.197 123.654C547.79 122.264 546.277 120.992 544.758 119.729ZM539.253 118.452C534.384 120.99 526.723 126.995 524.858 132.308C524.572 133.123 524.588 133.877 524.608 134.728C525.076 135.587 525.445 136.256 526.174 136.916C531.481 135.103 534.928 131.594 537.48 126.614C538.606 124.417 540.091 121.243 540.156 118.753L539.253 118.452Z"/>
	<path fill="#232122" d="M848.836 279.526C849.669 279.512 850.651 279.46 851.465 279.682C852.661 280.008 853.254 280.48 853.806 281.544C852.107 283.787 847.914 283.9 845.267 284.333C852.821 286.085 863.585 287.6 868.712 294.092C869.886 295.578 870.651 297.464 870.285 299.381C869.929 301.245 868.581 302.705 867.071 303.75C861.38 307.691 855.027 307.64 848.551 306.422C851.947 321.959 855.97 336.293 864.969 349.67C869.713 356.723 875.529 362.892 882.206 368.148C886.868 371.817 905.651 380.561 906.861 384.261C905.288 385.16 904.321 384.73 902.683 384.332C896.825 381.456 891.012 378.474 885.609 374.796C860.758 357.88 850.399 333.926 844.947 305.188L844.152 304.806C840.572 303.12 835.784 298.922 831.903 298.988C828.686 301.262 830.675 307.152 828.846 310.77L828.186 310.81C827.699 310.235 827.584 310.154 827.196 309.406C825.421 305.98 826.603 299.156 827.886 295.64C831.097 286.84 840.931 283.029 848.836 279.526ZM847.973 288.376L848.536 302.865C854.419 303.882 858.555 304.256 864.023 301.376C865.054 300.083 866.211 298.648 865.863 296.863C865.491 294.951 863.46 293.642 861.866 292.808C857.648 290.604 852.557 289.601 847.973 288.376ZM842.067 286.919C839.047 288.073 835.19 289.354 832.97 291.779C832.646 292.941 832.503 293.389 833.125 294.54C834.059 296.27 837.106 297.479 838.786 298.384L845.019 302.28C845.059 297.778 845.749 291.987 843.861 287.839C843.16 287.267 842.984 287.121 842.067 286.919Z"/>
	<path fill="#232122" d="M307.223 217.645C310.825 217.56 314.017 217.761 317.295 219.473C321.209 221.516 323.962 225.167 325.242 229.359C327.025 235.197 326.185 241.461 323.289 246.787C334.315 253.883 347.035 260.589 359.997 263.328C364.883 264.361 369.92 264.599 374.816 265.564C376.827 265.961 378.438 266.255 379.616 268.02L379.13 268.824C374.471 270.796 367.981 268.694 363.275 267.645C348.352 264.121 332.943 258.608 320.726 249.142C313.886 251.52 306.655 252.676 299.867 249.361C294.974 246.971 291.121 242.577 289.451 237.386C288.283 233.755 288.201 229.556 290.164 226.175C290.831 225.026 291.997 223.519 293.123 222.788C294.915 221.625 304.748 218.352 307.223 217.645ZM306.337 221.116C304.908 221.764 303.317 222.301 302.621 223.83C301.969 225.265 302.344 226.81 303.012 228.161C305.782 233.774 314.102 239.765 319.283 243.005C320.428 242.814 320.426 242.849 321.037 241.917C322.839 239.164 322.667 234.446 321.868 231.4C320.874 227.61 318.527 224.485 315.036 222.667C312.364 221.275 309.297 221.078 306.337 221.116ZM295.026 225.291C292.931 228.332 291.642 231.662 292.434 235.409C293.263 239.332 296.136 242.501 299.448 244.59C303.858 247.373 308.707 248.152 313.828 247.504C314.884 247.11 315.929 247.051 316.411 245.996C314.322 242.512 308.798 239.311 305.709 236.299C302.381 233.053 299.024 227.592 295.026 225.291Z"/>
	<path fill="#232122" d="M791.824 122.707C796.466 122.04 801.634 122.301 805.891 124.376C807.492 125.157 809.651 126.47 810.742 127.906C816.439 135.401 822.607 156.254 826.962 166.198C832.96 179.896 840.365 193.026 845.411 207.123C845.101 208.077 844.781 209.027 844.41 209.96C841.165 218.129 833.39 224.584 826.759 229.986C799.013 252.589 774.697 262.587 742.331 276.439C741.568 281.887 740.816 296.229 738.089 300.242C737.417 301.233 736.602 301.845 735.357 301.895C732.204 302.022 715.211 287.275 711.8 284.658C695.676 290.201 679.873 294.194 663.129 297.368L660.231 297.798C651.561 299.05 640.915 300.822 633.459 295.019C630.304 292.564 628.083 289.532 626.076 286.13C620.341 276.407 616.84 265.666 611.78 255.62C607.52 247.164 601.878 239.345 597.96 230.751C596.153 226.788 594.357 222.237 593.886 217.88C593.331 212.762 596.04 208.8 599.202 205.076C630.315 168.43 715.546 137.31 761.444 127.194C771.539 124.969 781.528 123.579 791.824 122.707ZM713.383 169.174C701.618 170.987 690.699 176.438 683.517 186.169C677.002 194.998 674.232 207.167 675.933 217.978C677.576 228.415 683.898 237.815 692.418 243.949C700.911 250.063 710.38 251.926 720.699 251.525C734.298 248.097 745.651 242.292 752.987 229.859C758.076 221.234 759.937 210.666 757.324 200.928C754.39 189.993 746.304 180.541 736.582 174.962C729.309 170.789 721.77 168.785 713.383 169.174Z"/>
	<path fill="#232122" d="M468.11 250.678C473.191 250.11 478.527 250.41 483.532 251.446C499.477 254.747 511.097 265.669 519.751 278.917C526.111 278.045 532.003 277.349 538.444 277.757C547.486 285.925 555.545 294.555 560.834 305.683C573.889 333.147 571.503 368.319 561.432 396.274C559.409 396.993 557.326 397.313 555.22 397.692C555.923 413.908 558.712 430.094 559.58 446.352C578.494 449.376 595.77 453.976 613.82 460.431C654.364 474.93 676.971 491.626 709.33 519.594C720.685 529.408 732.733 538.735 742.577 550.121C741.203 552.353 739.627 554.42 738.053 556.512C757.931 573.747 774.919 592.572 790.621 613.653C790.251 577.797 783.798 542.087 772.804 507.981C769.197 496.791 763.788 486.328 760.769 474.912C763.097 473.652 765.569 472.634 767.983 471.551C765.302 456.285 758.509 414.012 749.854 403.076C744.107 395.816 732.568 399.429 724.73 398.185C722.543 397.837 720.539 397.056 719.313 395.106C718.65 394.051 718.387 392.19 718.757 390.996C719.699 387.959 723.485 386.778 726.103 385.524C725.965 383.724 725.523 381.173 726.262 379.472C727.285 377.12 730.587 376.235 732.78 375.322C734.655 371.632 737.178 370.044 741.105 368.711C749.086 366.003 758.894 366.464 766.431 370.124C762.119 359.655 753.537 349.647 751.748 338.285C751.38 335.949 751.387 332.97 753.027 331.066C754.028 329.904 755.466 329.507 756.944 329.521C763.418 329.582 768.384 334.715 774.264 336.433C776.893 337.201 780.03 336.575 782.401 338.088C788.239 341.815 794.042 347.743 798.912 352.7C825.789 380.055 825.724 416.676 825.437 452.385C827.641 451.547 829.983 450.491 832.293 450.025C834.146 449.651 835.67 449.816 837.244 450.899C839.747 454.288 838.511 459.87 838.163 463.849C841.38 467.371 843.836 470.807 845.612 475.255C848.703 482.995 849.838 491.896 851.185 500.093C855.059 523.672 857.234 546.966 858.219 570.828C859.783 608.682 858.621 649.402 831.245 678.893C810.287 701.47 782.538 707.869 752.849 709.008L759.875 722.969C750.85 741.785 741.445 759.807 734.601 779.614C742.579 778.079 750.851 777.494 758.933 776.684C779.951 774.578 807.321 770.724 826.245 782.199C829.433 784.132 833.586 787.196 834.334 791.083C834.937 794.215 833.338 797.304 831.527 799.741C815.765 820.944 765.751 834.779 740.566 840.05C731.106 842.03 721.55 843.307 711.975 844.575C709.257 853.768 697.787 885.644 691.1 892.323C689.687 893.735 687.037 893.97 685.095 894.188C679.801 894.784 674.28 894.71 668.952 894.896L639.408 895.9L534.493 898.671C534.317 901.97 534.112 905.76 532.085 908.527C530.981 910.033 529.344 911.142 527.467 911.332C526.282 911.452 525.093 911.565 523.906 911.656C518.585 912.067 513.232 911.831 507.899 911.874L479.666 912.177L393.25 913.515L328.173 914.773C317.457 914.996 305.833 916.173 295.189 915.138C289.327 914.568 285.042 912.659 280.59 908.869C280.396 900.183 279.953 891.529 280.095 882.835C284.875 880.267 290.828 879.73 296.026 878.17L292.741 877.057C290.5 876.301 289.274 875.507 287.541 873.874C284.189 873.419 280.97 872.959 277.729 871.97C273.877 877.041 269.666 881.806 265.344 886.477C258.394 881.976 251.814 876.468 245.915 870.66C247.51 867.095 249.692 863.824 251.76 860.521C251.13 859.134 250.451 857.484 249.162 856.572C244.992 853.62 236.952 856.392 232.359 857.37C230.022 848.614 227.65 839.917 227.011 830.848C231.079 828.795 235.805 827.978 240.222 826.968L242.082 818.905C238.977 815.912 235.676 813.104 232.448 810.246C236.231 802.048 241.261 793.187 247.172 786.389C250.301 788.336 253.774 790.936 257.259 792.099C258.734 792.591 259.61 792.614 260.973 791.89C262.974 788.512 260.641 779.286 260.118 775.215C269.151 772.241 278.156 769.998 287.65 769.193C288.866 773.445 289.729 780.788 292.218 784.36C293.016 785.504 293.6 785.638 294.918 785.852C299.317 784.393 303.368 778.573 306.462 775.211C313.738 778.673 319.744 783.937 326.306 788.53C325.038 791.983 322.13 797.147 322.121 800.766C322.117 802.149 322.258 802.34 323.126 803.292C327.102 804.588 333.159 801.956 337.243 801.156C340.109 808.071 342.323 814.967 343.957 822.282C340.405 824.762 336.983 826.24 332.845 827.464L331.383 835.6C333.581 837.813 336.066 840.057 337.95 842.54C338.995 843.916 340.19 845.973 339.69 847.774C338.565 851.837 328.599 854.445 325.091 856.326C323.568 857.143 322.564 857.748 322.046 859.495C322.521 860.614 322.387 860.358 323.349 860.84C328.927 858.777 334.328 855.528 339.612 852.801C347.676 848.64 355.64 844.803 364.072 841.452C367.876 844.443 370.419 847.548 372.784 851.715C361.974 857.703 350.761 862.978 340.263 869.522C335.013 872.794 330.535 876.998 325.381 880.263L324.892 880.567C339.508 880.641 354.38 878.697 368.916 877.293C385.018 875.738 401.21 874.546 417.369 873.778C469.439 871.302 521.967 873.525 574.043 875.298C595.611 876.033 617.115 876.978 638.657 878.313C655.235 879.34 671.913 880.236 688.25 883.365C692.975 874.664 696.466 865.494 700.136 856.317C705.564 842.745 710.677 829.156 715.551 815.377C721.759 797.092 727.818 778.743 734.646 760.678C740.001 746.511 746.139 732.666 750.984 718.306C737.375 717.31 723.139 718.278 709.494 718.775C690.856 719.453 672.217 720.034 653.568 720.262L404.961 724.509C405.527 734.965 405.634 745.458 405.88 755.926C420.131 754.499 430.914 756.553 443.917 762.401C444.683 755.567 444.579 748.602 444.687 741.729C451.937 741.538 459.218 742.039 466.479 741.952L561.62 741.452C561.646 749.589 559.869 757.919 557.122 765.554C550.642 783.56 537.432 800.152 519.818 808.242C504.978 815.059 488.797 815.354 473.559 809.733C472.749 819.039 470.993 827.827 466.438 836.084C459.398 848.843 447.086 858.559 433.095 862.594C418.991 866.66 402.94 864.748 390.181 857.527C376.791 849.95 367.294 838.342 363.313 823.407C359.534 809.232 361.071 793.678 368.552 780.946C376.053 768.181 388.432 760.205 402.541 756.556C402.587 746.095 401.901 735.597 401.486 725.144C382.788 726.738 364.305 724.9 345.899 721.494C339.798 720.365 333.053 717.369 326.929 717.327C322.171 717.295 297.181 723.663 290.894 725.129C265.584 731.032 240.158 736.604 214.916 742.77C209.482 729.605 205.667 714.236 201.41 700.558C191.344 668.212 181.839 635.811 172.961 603.12C164.132 570.607 156.216 537.877 147.528 505.336C137.52 467.846 126.732 430.495 117.391 392.835C119.031 391.95 120.714 391.246 122.47 390.633C133.572 386.759 145.171 383.851 156.486 380.645L211.748 364.919L280.008 345.571C293.798 341.664 307.563 337.329 321.543 334.151C324.451 333.49 329.544 331.834 332.261 333.26C334.397 334.38 335.942 340.227 336.656 342.48C342.375 360.544 346.672 379.279 351.647 397.582C361.819 435.005 372.088 472.491 383.117 509.668C407.261 490.804 433.314 474.657 462.14 463.983C474.487 459.411 486.682 456.708 499.413 453.514C501.213 453.062 505.011 452.534 506.261 451.27C503.979 448.438 494.972 448.66 491.228 447.257C488.836 446.359 486.851 444.898 484.821 443.391C479.561 443.635 472.13 445.395 467.436 442.367C462.249 439.02 460.055 426.376 458.61 420.543C449.138 424.346 440.625 429.712 430.546 431.949C430.496 431.758 430.441 431.569 430.398 431.377C428.048 421.051 429.834 405.148 429.814 394.06C429.789 380.899 428.902 367.189 429.735 354.089C429.817 352.801 429.98 351.761 430.731 350.681C431.251 349.934 431.122 350.161 432.098 350.038C433.251 351.267 433.478 353.305 433.689 354.911C434.605 361.887 434.393 369.177 434.79 376.222C435.69 392.159 436.589 408.069 437.194 424.022C446.552 419.948 455.673 415.417 465.17 411.658C467.07 410.906 468.977 409.767 470.953 409.264C472.199 408.948 473.176 409.08 474.397 409.402C475.442 410.313 475.447 410.214 475.566 411.585C473.694 415.371 467.689 417.009 463.955 418.336C465.195 425.254 467.739 432.094 469.971 438.747C482.437 438.524 495.1 437.328 507.375 435.108C513.61 433.98 519.811 431.96 526.13 431.423C528.491 431.222 529.574 431.108 531.396 432.664C531.475 433.292 531.686 433.638 531.276 434.188C528.404 438.05 514.871 440.26 509.902 441.252C509.958 448.178 510.867 455.018 511.92 461.85C508.185 465.082 504.907 468.899 503.935 473.89C502.975 478.818 504.656 483.403 507.49 487.415C511.848 493.586 518.926 497.536 526.316 498.738C534.937 500.14 543.964 497.821 551.01 492.706C555.97 489.105 560.117 483.902 560.984 477.686C561.933 470.879 558.553 465.843 554.738 460.66C554.366 455.431 554.539 450.111 554.366 444.866C553.883 430.246 552.91 410.848 549.417 396.825C546.344 384.487 540.481 372.932 536.833 360.736C538.303 360.235 539.847 359.747 541.23 359.028C545.312 356.906 548.702 352.949 549.989 348.523C551.156 344.511 550.81 339.864 548.757 336.191C547.308 333.6 544.877 331.357 541.935 330.661C539.628 330.115 537.341 330.611 535.345 331.842C528.986 335.761 526.51 344.759 524.925 351.585L513.109 351.359C507.369 339.932 502.538 328.584 498.252 316.533C502.059 307.596 508.138 299.627 513.518 291.603C515.537 288.593 518.05 285.334 519.41 281.982L518.832 282.608C519.661 282.063 519.461 282.404 519.682 281.783L519.076 281.878C518.518 282.747 518.736 282.479 518.237 283.071C514.61 287.376 511.852 292.501 508.396 296.989C493.856 315.871 475.382 332.153 451.816 338.115C438.297 341.536 422.253 339.651 408.592 337.736C405.87 337.355 401.073 337.043 398.893 335.327C398.144 334.737 397.873 334.454 397.705 333.533C397.07 330.052 398.647 325.5 399.36 322.084C402.46 307.231 406.184 293.095 415.593 280.876C428.586 264.001 447.059 253.429 468.11 250.678ZM585.43 457.793C585.958 475.477 582.882 490.46 570.376 503.822C559.538 515.403 543.606 522.215 527.799 522.564C513.421 522.881 498.759 518.671 488.259 508.481C479.298 499.785 474.37 488.01 474.278 475.567C474.257 472.662 474.404 469.757 474.556 466.857C420.865 480.035 360.653 528.804 324.699 569.18C332.706 572.578 340.14 578.468 347.255 583.426C361.91 593.636 377.483 605.499 392.856 614.417C398.791 605.476 419.286 569.005 424.84 564.572L425.941 564.417C426.586 565.123 426.709 566.369 426.64 567.318C426.197 573.475 420.081 580.336 417.141 585.656C417.641 629.997 414.093 672.513 405.692 716.096C417.252 715.278 428.937 715.109 440.525 715.023L595.146 712.128C617.673 711.738 640.385 712.305 662.878 711.397C662.487 695.784 659.581 679.905 657.299 664.464C654.33 644.376 650.894 624.021 650.597 603.68C650.493 596.56 651.094 589.414 651.44 582.304C646.066 578.728 612.999 557.707 612.218 554.168C612.037 553.347 612.443 552.86 612.76 552.125C613.466 551.64 613.492 551.38 614.389 551.533C619.921 552.471 673.031 592.258 681.638 597.829C696.743 579.256 711.837 561.493 728.865 544.623C696.92 514.829 666.062 487.624 625.17 470.853C616.55 467.318 607.568 464.515 598.648 461.845C594.398 460.573 589.44 459.631 585.43 457.793ZM127.203 416.957C139.801 467.333 154.035 517.319 167.168 567.569C177.175 605.856 187.684 643.962 199.131 681.848C204.88 700.878 210.165 720.218 217.46 738.725C236.105 733.651 254.973 729.779 273.833 725.631C289.416 722.204 304.891 718.405 320.578 715.454C302.822 707.387 286.553 698.753 279.171 679.422C277.242 674.372 276.29 669.639 276.046 664.24C275.937 661.832 276.121 659.298 275.728 656.923C265.52 660.332 230.754 670.768 221.791 671.057L221.396 670.535C221.486 670.356 221.561 670.168 221.666 669.997C222.444 668.732 223.807 667.697 225.177 667.142C227.883 666.044 231.11 666.077 233.934 665.264C247.806 661.267 261.862 657.19 275.977 654.109C278.259 650.43 279.011 644.185 280.097 639.927C270.961 642.229 223.865 655.912 218.112 653.91L217.581 653.202C217.958 652.103 218.071 652.114 219.086 651.626C225.066 648.752 237.561 647.225 244.589 645.559C257.076 642.599 269.231 638.562 281.903 636.314C292.113 616.815 306.173 601.531 321.59 586.107C319.074 584.429 315.904 582.828 315 579.748C315.293 576.804 319.012 574.017 318.953 571.939C318.838 567.879 321.819 565.743 324.462 562.994C341.622 545.151 360.311 527.603 379.892 512.406C369.199 476.21 359.667 439.56 349.537 403.197C345.723 389.505 342.786 374.332 337.938 361.114L217.133 391.816C199.109 396.371 181.127 400.967 163.203 405.906C151.152 409.228 138.906 412.54 127.203 416.957ZM409.892 764.639L405.491 765.721C405.377 774.033 410.187 805.367 407.125 809.528C405.983 809.197 405.92 809.093 405.157 808.167C404.358 803.578 404.361 798.843 404.062 794.2C403.461 784.864 403.034 775.279 402.057 765.983C389.105 772.086 377.942 779.474 372.972 793.613C369.008 804.89 369.965 817.48 375.155 828.201C378.251 834.596 382.496 839.574 387.67 844.376C399.129 852.658 411.171 856.735 425.352 854.402C437.559 852.394 448.102 845.782 455.241 835.669C461.978 826.124 464.558 814.311 462.517 802.806C460.369 790.694 452.493 780.034 442.484 773.097C432.69 766.31 421.614 764.132 409.892 764.639ZM521.619 744.753L447.693 745.466C447.747 751.89 447.771 758.274 447.428 764.692C463.026 775.657 469.524 787.824 472.957 806.141C476.727 807.624 480.616 808.816 484.612 809.518C500.106 812.094 514.108 809.683 527.074 800.5C543.406 788.933 554.284 770.972 557.485 751.253C557.83 749.129 558.1 746.992 558.366 744.857C546.214 744.126 533.789 744.499 521.619 744.753ZM757.793 334.448C773.434 346.645 785.167 362.779 787.758 382.871C788 384.746 788.37 387.885 787.154 389.495C786.812 389.948 786.401 390.243 785.969 390.591C784.939 390.538 785.08 390.769 784.504 390.088C781.508 386.541 781.519 377.71 780.431 373.216C777.277 360.181 767.193 348.422 756.581 340.69C761.832 350.484 767.744 360.615 771.36 371.143C772.994 375.899 772.867 381.025 774.741 385.689C775.489 387.551 777.072 390.763 776.484 392.689C776.439 392.835 776.353 392.965 776.288 393.103C774.95 393.219 774.418 392.757 773.381 391.942C771.153 390.191 770.06 387.162 769.058 384.595C759.629 377.984 752.504 374.871 740.742 376.928C737.196 377.548 732.874 378.56 730.319 381.221L730.339 382.125C737.408 386.273 749.432 376.637 763.296 393.656C765.104 395.875 767.595 399.069 768.174 401.892C768.369 402.844 768.329 403.321 768.038 404.22C767.042 405.046 767.001 405.092 765.714 405.163C762.774 403.491 760.763 400.074 758.843 397.385C751.585 387.218 741.607 386.433 730.362 389.53C728.607 390.014 727.112 390.518 725.554 391.494L725.591 392.26C732.403 396.175 743.23 391.156 750.416 396.29C754.049 399.648 756.162 403.399 757.98 407.963C761.5 416.797 763.01 426.596 764.903 435.887C767.254 447.42 769.633 458.949 771.756 470.526C787.728 464.39 804.681 457.908 821.342 454.11C821.975 429.898 817.373 397.772 806.768 375.995C802.852 367.954 797.63 360.712 791.455 354.253C786.41 348.978 780.994 345.033 774.829 341.158C784.42 350.924 798.382 363.775 798.365 378.481C798.363 379.791 798.093 380.778 797.229 381.784C796.199 381.904 796.398 382.078 795.628 381.535C791.962 378.95 792.003 370.768 789.92 366.859C786.437 360.324 764.439 335.269 757.793 334.448ZM781.638 782.296L732.323 786.262C726.557 803.142 720.099 819.746 714.254 836.585C727.82 834.684 741.004 832.308 754.378 829.333C774.247 824.119 816.805 813.524 827.108 795.178C827.815 793.919 828.334 792.64 827.834 791.188C826.908 788.494 823.31 786.875 820.863 785.974C808.686 781.488 794.455 781.14 781.638 782.296ZM449.558 876.23C429.503 876.728 409.645 877.497 389.622 878.86C377.328 879.697 364.468 880.285 352.429 883.059C387.727 883.956 423.211 884.09 458.523 883.693C468.098 883.585 477.701 883.668 487.269 883.415C497.601 883.142 507.927 882.449 518.259 882.998C522.059 883.2 529.134 883.152 531.922 886.101C533.408 887.673 534.018 890.019 534.702 892.026C552.476 890.818 570.543 891.704 588.375 891.014C609.655 890.394 630.937 889.965 652.21 889.099C663.334 888.646 675.018 888.621 686.014 886.821C672.819 882.547 654.275 882.64 640.215 881.642C603.92 879.068 567.507 878.134 531.139 877.197C503.925 876.497 476.79 875.41 449.558 876.23ZM654.583 584.315C654.098 601.201 654.689 617.465 656.965 634.205C667.447 634.934 677.78 636.901 688.322 637.33C694.239 637.571 716.684 635.083 720.512 637.572L720.42 638.387C719.097 639.424 717.959 640.008 716.291 640.332C707.407 642.056 683.831 641.235 674.486 640.147C668.615 639.462 662.735 638.591 656.936 637.45C657.314 639.244 657.27 640.198 658.57 641.53C663.653 643.255 669.066 642.35 674.353 642.549C694.337 646.39 716.986 643.961 736.865 639.908C729.264 634.212 722.036 627.898 714.722 621.837C708.226 616.454 701.313 611.171 695.284 605.278C693.992 606.629 692.172 608.952 690.102 608.989C683.393 609.108 661.948 589.063 654.583 584.315ZM280.399 804.567C272.306 806.823 265.804 810.293 261.507 817.912C258.115 823.928 257.272 831.225 259.234 837.851C261.037 843.943 265.065 849.117 270.696 852.106C276.06 854.955 281.614 855.412 287.511 854.433C295.136 852.417 301.229 848.858 305.393 841.887C308.936 835.957 310.021 828.926 308.094 822.265C306.169 815.611 301.628 810.212 295.453 807.096C290.535 804.613 285.769 804.32 280.399 804.567ZM410.568 595.32C406.206 602.611 395.026 624.194 387.126 625.994C382.66 627.012 376.014 622.188 372.501 619.737C372.166 619.503 371.839 619.256 371.517 619.004C367.859 624.634 355.262 641.161 356.401 647.732C356.622 649.009 356.984 649.672 358.131 650.323C362.118 652.586 374.602 650.102 379.354 649.396C388.214 648.208 397.211 646.635 406.174 647.421C406.403 645.041 406.647 642.691 406.645 640.298C400.114 641.633 386.222 646.416 380.451 644.701L380.008 643.998C381.172 642.059 384.561 641.11 386.746 640.565C393.927 638.773 401.238 637.479 408.44 635.772C409.447 626.801 412.91 603.157 410.568 595.32ZM575.422 455.282C576.312 470.738 574.496 483.962 563.739 495.907C555.634 504.907 543.394 510.583 531.316 511.122C519.412 511.653 506.785 508.039 497.943 499.79C489.649 492.052 484.883 481.188 484.611 469.883C484.567 468.066 484.575 466.246 484.623 464.429L478.651 466.467C478.1 470.588 477.932 474.626 478.204 478.778C480.098 491.461 485.864 502.071 496.332 509.719C507.441 517.835 522.116 520.955 535.636 518.775C550.672 516.35 563.593 507.741 572.439 495.445C580.645 484.038 582.816 471.036 582.478 457.251L575.422 455.282ZM295.359 887.703L287.413 888.251L287.493 905.836C301.152 909.359 315.882 907.031 329.875 907.219L337.494 907.321L337.313 887.624C325.348 887.245 306.911 886.476 295.359 887.703ZM317.271 349.534L219.037 375.412C212.185 377.243 191.29 381.512 186.24 384.735C186.003 385.412 185.76 385.567 186.11 386.269C186.608 387.268 187.349 387.715 188.216 388.377L276.133 364.832C285.379 362.401 311.542 357.109 318.611 353.154C319.161 351.849 319.048 351.803 318.642 350.426C318.183 350.043 317.867 349.661 317.271 349.534ZM324.285 573.532C322.229 575.444 320.82 577.218 319.276 579.558C327.805 582.735 335.619 590.303 343.282 595.302C356.743 604.082 370.563 612.576 384.28 620.956C385.468 620.834 385.951 620.617 386.63 619.48C386.987 618.881 387.122 618.143 386.84 617.506C386.326 616.344 385.44 615.577 384.453 614.814C382.256 613.117 379.722 611.789 377.415 610.238C372.737 607.091 368.112 603.814 363.444 600.637C353.749 594.039 344.37 586.97 334.69 580.35C331.322 578.046 327.43 576.092 324.285 573.532ZM732.571 548.377C718.964 559.146 707.802 573.157 696.806 586.461C692.999 591.067 688.69 595.695 685.32 600.624L689.256 603.172L690.181 603.348C695.817 599.086 732.894 557.828 734.272 551.94C734.621 550.449 734.145 550.013 733.379 548.818L732.571 548.377ZM834.365 454.652C826.681 456.134 768.917 473.813 765.719 477.539C766.148 478.884 766.675 479.869 767.4 481.063C781.647 476.263 796.121 472.045 810.516 467.71C817.737 465.535 828.471 463.4 834.745 459.688C835.212 458.497 835.257 456.761 834.8 455.534C834.686 455.227 834.51 454.946 834.365 454.652ZM515.428 892.008C515.453 895.461 515.456 898.917 515.536 902.369C518.542 902.508 521.546 902.61 524.535 902.973C524.456 899.332 524.493 895.632 524.111 892.011L515.428 892.008ZM150.743 389.351C148.998 390.033 147.469 390.576 146.826 392.542C146.304 394.139 146.74 395.672 147.659 397.004C148.816 398.68 150.226 399.357 152.108 399.974C153.468 399.639 154.562 399.459 155.417 398.216C156.249 397.006 156.514 395.552 156.136 394.134C155.712 392.541 154.735 390.968 153.217 390.219C152.399 389.816 151.62 389.573 150.743 389.351ZM164.419 385.235C162.968 387.309 161.633 389.09 162.354 391.78C162.762 393.305 163.946 394.384 165.34 395.02C166.573 395.583 167.766 395.743 169.101 395.872C170.524 394.493 171.889 393.384 171.81 391.212C171.748 389.544 170.871 388.289 169.614 387.281C168.05 386.027 166.366 385.529 164.419 385.235ZM134.502 392.798C132.969 394.833 131.347 396.718 131.985 399.466C132.38 401.166 133.711 402.399 135.202 403.183C136.067 403.637 136.89 403.942 137.826 404.218C139.439 403.055 140.84 402.168 141.072 400.004C141.249 398.361 140.592 396.856 139.48 395.686C138.099 394.234 136.363 393.438 134.502 392.798ZM747.17 371.148L746.487 371.825C747.525 372.839 751.828 372.468 753.538 372.874C758.498 374.053 763.012 376.149 767.577 378.366C768.122 377.274 768.116 377.778 767.717 376.615C767.008 374.549 765.229 373.357 763.287 372.541C758.461 370.516 752.299 370.779 747.17 371.148ZM316.257 873.063C314.318 874.258 312.337 875.39 310.579 876.844C313.524 877.889 316.461 878.958 319.45 879.874C320.782 880.062 321.511 880.386 322.769 879.81C321.652 877.31 318.374 874.804 316.257 873.063Z"/>
	<path fill="#232122" d="M279.95 808.625C284.139 808.354 288.12 808.348 292.129 809.797C297.263 811.652 301.276 815.493 303.44 820.496C305.767 825.877 305.865 831.864 303.54 837.262C300.426 844.492 294.877 847.783 287.943 850.598C282.605 851.641 277.225 851.453 272.345 848.805C267.499 846.174 264.13 841.688 262.644 836.408C261.039 830.703 261.812 824.394 264.727 819.236C268.187 813.112 273.419 810.403 279.95 808.625Z"/>
	<path fill="#232122" d="M791.28 787.671C792.425 787.468 792.008 787.458 793.084 787.564C794.077 787.662 793.961 787.854 794.553 788.577L794.307 789.873C793.49 790.855 792.908 791.296 791.69 791.705C791.462 791.782 791.231 791.851 791.002 791.928C781.451 795.123 771.099 796.641 761.196 798.347C760.242 798.529 759.57 798.497 758.612 798.346C757.882 797.237 757.657 797.366 757.865 795.976C760.587 792.933 785.862 788.658 791.28 787.671Z"/>
	<path fill="#232122" d="M786.933 800.582C788.563 800.318 789.529 800.408 790.994 801.181L791.084 801.953C785.515 807.706 766.41 812.168 758.11 814.575L756.267 814.828C755.224 814.179 755.117 813.85 754.532 812.747L754.88 811.902C761.177 807.653 779.298 802.873 786.933 800.582Z"/>
	<path fill="#232122" d="M196.413 580.335C196.983 580.556 197.849 580.83 198.349 581.222C201.348 583.57 202.006 589.311 202.804 592.757C201.509 592.54 200.649 592.386 199.621 591.488C196.804 589.026 196.65 583.822 196.413 580.335Z"/>
	<path fill="#232122" d="M305.463 542.596C306.583 542.535 306.763 542.529 307.745 543.052L308.013 544.403C305.169 547.97 289.949 551.095 285.259 552.37C283.765 552.068 283.772 551.989 282.778 550.817L283.211 550.023C289.686 545.791 298.025 544.342 305.463 542.596Z"/>
	<path fill="#232122" d="M249.35 415.563C249.652 415.513 249.949 415.401 250.254 415.413C251.353 415.453 251.81 416.05 252.427 416.81C250.329 420.2 232.286 424.107 227.535 425.388C226.512 425.624 225.89 425.761 224.863 425.493L224.505 424.614C227.845 419.816 243.729 416.937 249.35 415.563Z"/>
	<path fill="#232122" d="M206.267 479.559C207.38 479.515 207.58 479.641 208.537 480.125L208.671 481.01C206.265 484.92 182.86 489.931 177.639 491.302C176.248 491.335 176.301 491.321 175.229 490.423L175.233 489.325C181.661 484.63 198.098 481.702 206.267 479.559Z"/>
	<path fill="#232122" d="M207.391 426.607C208.239 426.462 209.098 426.524 209.958 426.531L210.329 426.987C210.204 427.242 210.059 427.488 209.955 427.752C209.905 427.876 209.899 428.013 209.871 428.143C205.506 432.587 163.268 442.488 155.617 444.537C154.508 444.687 153.886 444.712 152.824 444.342L153.248 443.05C158.628 438.519 198.199 429.055 207.391 426.607Z"/>
	<path fill="#232122" d="M325.288 397.559L326.253 397.537C327.263 398.292 327.331 398.069 327.631 399.389C326.372 400.864 324.455 401.436 322.662 402.017C316.262 404.088 309.393 405.319 302.844 406.926C292.391 409.49 281.984 412.263 271.61 415.129L270.807 415.241C269.644 414.757 269.419 414.936 268.83 413.757C272.249 409.193 316.414 399.942 325.288 397.559Z"/>
	<path fill="#232122" d="M341.098 515.576C342.32 515.467 343.156 515.557 344.343 515.865L344.721 516.626C344.647 516.76 344.591 516.904 344.5 517.027C343.321 518.611 340.113 519.497 338.267 520.091C332.406 521.974 326.265 523.155 320.314 524.753L279.218 535.922L277.505 536.138C276.482 535.514 276.553 535.8 276.171 534.53C277.115 533.164 278.216 532.724 279.718 532.147C286.433 529.567 293.881 528.155 300.842 526.301L341.098 515.576Z"/>
	<path fill="#232122" d="M307.809 416.079C308.884 416.034 308.326 415.938 309.455 416.502L309.559 417.734C308.445 419.281 307.584 419.557 305.812 420.128C297.189 422.908 288.232 424.87 279.463 427.148L239.062 437.926L194.594 449.956C183.285 453.1 172.087 456.612 160.608 459.104L158.897 458.883L158.427 458.071C160.041 455.834 165.177 454.526 167.751 453.736C183.197 448.995 199.222 445.355 214.842 441.152L307.809 416.079Z"/>
	<path fill="#232122" d="M318.82 384.559C319.408 384.518 320.169 384.72 320.757 384.812L321.243 385.574C321.189 385.711 321.152 385.856 321.08 385.984C320.182 387.57 317.639 388.203 315.991 388.718C295.969 394.968 275.025 399.421 254.706 404.718L151.144 432.702C150.367 432.793 149.473 432.516 148.715 432.373L148.726 431.293C149.906 430.023 151.127 429.218 152.757 428.593C159.266 426.101 166.575 424.597 173.347 422.876L202.361 415.26L318.82 384.559Z"/>
	<path fill="#232122" d="M207.398 576.322C208.115 576.384 208.809 576.496 209.512 576.656C210.877 576.968 211.524 577.672 212.282 578.825C215.479 583.689 217.24 589.557 219.259 594.976C222.883 604.703 226.518 615.18 231.59 624.245C234.313 619.084 236.202 609.15 240.168 605.306C241.065 604.437 242.01 603.871 243.307 604.022C248.237 604.597 253.636 612.476 256.705 616.152C259.779 607.774 263.429 599.684 267.983 592.002C271.108 592.809 274.1 594.073 277.109 595.232C281.367 592.025 290.816 580.105 295.445 579.96C296.573 580.534 296.849 580.751 297.386 581.992C298.325 584.16 297.857 587.353 296.981 589.453L296.195 589.724C294.998 588.322 294.636 586.271 294.125 584.529C288.711 589.541 283.687 595.052 278.344 600.165L269.374 595.837C267.726 599.322 266.151 602.821 264.646 606.369C263.207 610.228 261.904 615.098 259.563 618.485C258.638 619.824 257.945 620.199 256.364 620.433C251.864 618.765 247.003 610.836 243.982 607.104C239.697 614.161 236.474 627.32 232.671 632.093C226.889 629.564 213.756 588.108 208.758 579.442C208.73 579.662 208.706 579.882 208.674 580.102C205.982 598.474 217.003 616.569 215.243 632.98C208.975 622.758 204.228 592.137 204.689 579.75L207.398 576.322Z"/>
	<path fill="#232122" d="M330.025 431.584C330.986 431.53 331.921 431.427 332.844 431.784C334.993 432.617 336.242 435.396 337.085 437.363C340.478 445.284 342.254 454.533 344.732 462.818C346.305 468.075 348.675 473.228 349.721 478.617C350.117 480.656 350.511 482.892 349.595 484.844C348.68 486.794 344.769 488.154 342.791 488.923C333.09 492.694 322.547 495.158 312.559 498.112C291.179 504.435 269.755 510.483 248.244 516.341C247.508 516.283 246.922 516.192 246.271 515.796C240.749 512.435 229.393 467.443 227.946 459.461C238.99 455.041 251.124 452.984 262.604 449.911L330.025 431.584ZM266.543 464.597C269.127 474.05 271.166 484.645 275.22 493.555C279.011 490.379 283.131 487.298 286.477 483.653C289.616 480.351 292.766 477.067 295.982 473.84C286.45 470.195 275.813 468.664 266.543 464.597Z"/>
</svg>
