<?xml version="1.0" encoding="utf-8" ?>
<svg xmlns="http://www.w3.org/2000/svg" xmlns:xlink="http://www.w3.org/1999/xlink" width="1024" height="1024">
	<path fill="#FEFEFE" d="M0 0L1024 0L1024 1024L0 1024L0 0Z"/>
	<path fill="#231F20" d="M775.405 125.561C776.824 125.463 778.349 125.39 779.761 125.613C784.115 126.297 788.357 130.176 790.858 133.6C792.39 135.697 793.706 138.533 793.059 141.195C792.652 142.869 791.547 143.471 790.202 144.35C790.086 144.222 789.973 144.092 789.854 143.967C787.45 141.443 786.7 138.255 785.005 135.298C782.645 131.179 777.491 131.89 773.435 130.565C772.326 130.203 771.997 129.604 771.551 128.607C772.341 126.905 773.817 126.364 775.405 125.561Z"/>
	<path fill="#231F20" d="M908.474 269.868C909.852 269.953 910.719 270.582 911.852 271.291C912.183 272.118 912.299 271.973 912.084 272.728C910.883 276.945 891.554 286.154 886.656 288.786C885.295 288.642 884.638 288.238 883.5 287.541C883.213 286.835 882.913 286.551 883.16 285.775C884.392 281.902 904.106 272.074 908.474 269.868Z"/>
	<path fill="#231F20" d="M537.538 170.56C539.11 170.515 540.754 170.399 542.279 170.844C543.946 171.331 545.281 172.067 546.136 173.561C544.168 179.379 536.443 175.324 532.765 179.339C529.329 183.087 529.492 189.809 529.649 194.576C529.482 194.967 529.307 195.432 529.037 195.763C528.074 196.941 527.646 196.974 526.248 197.04C524.83 196.055 524.302 195.329 523.886 193.635C522.646 188.579 523.824 182.552 526.532 178.147C529.092 173.984 532.834 171.596 537.538 170.56Z"/>
	<path fill="#231F20" d="M903.632 387.472C907.906 387.429 911.815 388.059 915.321 390.651C919.175 393.5 921.698 398.081 922.187 402.835C922.703 407.837 920.837 413.432 917.7 417.341C917.267 417.372 916.643 417.436 916.225 417.376C914.926 417.189 914.619 416.807 913.835 415.871C913.476 413.41 914.553 410.751 915.134 408.343C919.195 391.532 906.401 397.399 902.396 390.813C902.418 389.277 902.823 388.712 903.632 387.472Z"/>
	<path fill="#231F20" d="M920.083 378.828C923.458 379.453 925.79 380.788 928.305 383.135C934.707 389.11 938.741 399.344 938.954 408.03C939.095 413.781 937.589 419.488 933.563 423.707C932.554 423.718 931.647 423.552 930.657 423.365C930.347 423.033 929.927 422.777 929.728 422.368C929.384 421.661 933.129 410.327 932.987 406.842C932.545 396.006 926.372 389.867 918.934 383.076C918.549 381.637 919.516 380.133 920.083 378.828Z"/>
	<path fill="#231F20" d="M532.903 150.588C536.672 150.34 541.042 150.528 544.329 152.611C545.304 153.229 545.339 153.392 545.539 154.451C542.763 159.464 535.565 153.989 528.803 158.423C521.042 163.513 517.879 174.744 516.076 183.336C515.919 184.817 515.788 186.66 515.108 188.012C514.533 189.155 513.924 189.453 512.766 189.822C511.574 189.392 510.808 189.312 510.283 188.018C508.261 183.03 514.411 167.605 517.095 162.918C520.812 156.428 525.736 152.517 532.903 150.588Z"/>
	<path fill="#231F20" d="M776.241 106.571C777.896 106.391 779.54 106.377 781.204 106.447C788.17 106.742 794.135 109.825 798.786 114.939C805.2 121.994 808.996 134.289 808.569 143.747C808.041 144.758 807.695 145.435 806.517 145.858C805.261 146.309 804.608 146 803.511 145.486C802.316 143.443 802.561 139.785 802.101 137.383C801.634 135.085 801.105 132.839 800.356 130.615C798.098 123.908 793.988 116.997 787.351 113.912C782.082 111.464 776.415 111.839 771.403 114.597C770.145 115.289 768.446 116.48 767.059 116.732C765.774 116.964 765.484 116.433 764.583 115.655C764.228 114.494 763.841 113.738 764.391 112.542C766.067 108.896 772.667 107.439 776.241 106.571Z"/>
	<path fill="#231F20" d="M932.505 237.587L933.992 237.629C935.147 238.317 935.556 238.699 936.146 239.911C935.776 243.089 930.847 244.016 928.117 245.102C895.674 258.009 858.661 283.277 832.808 306.771C831.303 306.384 830.76 305.928 829.663 304.901C829.266 303.688 829.031 303.387 829.654 302.177C831.259 299.055 836.097 295.742 838.836 293.375C858.926 276.017 907.076 243.767 932.505 237.587Z"/>
	<path fill="#231F20" d="M675.618 147.221C689.885 145.455 707.584 149.226 719.222 157.881C733.325 168.369 739.383 184.119 741.856 200.892C745.984 199.215 750.173 197.862 754.684 197.872C759.416 197.884 764.129 199.327 767.45 202.824C772.852 208.511 773.825 217.723 773.686 225.213C773.363 242.587 764.923 258.332 752.593 270.239C753.408 270.308 754.223 270.38 755.034 270.49C758.896 271.013 762.956 272.84 765.295 276.068C768.082 279.917 767.987 285.246 767.237 289.725C764.228 307.687 745.353 323.571 731.114 333.38C734.008 334.44 735.534 335.538 737.688 337.8C740.378 337.26 743.054 336.893 745.784 337.403C749.844 338.162 753.329 340.601 755.575 344.047C757.22 346.572 758.127 349.496 757.454 352.495C756.746 355.651 754.993 357.413 752.35 359.111C757.636 363.331 763.764 366.893 769.411 370.64C778.417 376.615 787.325 382.815 795.96 389.317C829.341 414.453 907.473 481.425 920.091 519.28C923.668 530.012 923.63 539.902 918.487 550.092C896.494 593.662 820.418 633.205 777.452 653.362C762.574 660.342 747.62 667.484 731.993 672.645C730.257 682.756 727.267 692.834 724.67 702.757C714.69 740.894 702.009 775.774 688.019 812.53C687.106 812.829 686.567 813.058 685.857 813.712C685.772 814.515 685.714 815.278 685.721 816.088C685.722 816.325 685.73 816.561 685.735 816.797C685.412 817.275 685.42 817.321 684.903 817.755C682.174 820.046 676.45 820.294 672.954 820.746C636.26 825.496 585.402 816.296 548.056 810.897C530.137 808.306 512.114 806.595 494.246 803.614C474.39 800.301 449.917 795.144 430.131 794.237L429.324 794.203C431.793 802.743 434.462 811.091 437.844 819.318C440.75 820.083 443.575 821.069 446.417 822.042C450.764 818.411 454.613 813.77 458.855 809.92C453.005 809 443.28 808.22 438.624 804.734L438.584 803.973C439.171 803.768 439.683 803.589 440.308 803.531C454.011 802.28 502.476 812.989 517.385 816.001C528.756 818.298 540.484 819.966 551.613 823.24C554.802 824.178 557.718 825.126 560.29 827.32C561.709 830.304 561.182 835.401 560.156 838.522C559.517 840.464 557.71 841.908 556.224 843.238C540.791 857.05 523.632 869.383 507.456 882.344L482.921 902.108C477.339 906.61 471.278 912.283 464.824 915.458C462.184 916.757 459.909 916.984 456.993 916.776C449.999 916.275 442.638 914.137 435.756 912.708C420.731 909.588 405.745 906.405 390.805 902.901C381.158 900.638 371.42 898.769 361.776 896.494C332.246 889.527 302.648 882.021 273.458 873.745C240.935 864.524 208.607 854.395 176.487 843.867C171.358 836.732 162.706 810.204 159.271 800.526C142.959 754.565 127.77 708.343 113.763 661.626C111.251 655.343 105.072 638.367 106.948 632.441C107.295 631.344 108.19 629.748 109.289 629.312C123.052 623.85 357.363 672.388 380.046 681.85C392.972 687.242 396.868 698.639 401.783 710.627C403.814 681.747 413.323 636.017 424.36 609.433C409.129 594.409 393.863 578.96 380.227 562.453C369.519 549.49 359.918 535.667 349.263 522.68C339.744 525.226 329.515 526.198 319.764 527.691L264.712 536.019L171.898 550.495C164.819 551.591 141.029 556.498 135.244 555.588C132.109 550.773 130.246 536.996 128.774 530.752C108.876 446.289 95.1101 360.724 87.0873 274.31C86.5852 268.901 83.9437 246.419 85.3291 242.558C85.7979 241.252 87.0385 240.811 88.241 240.331C93.1016 238.392 98.9629 237.76 104.125 236.744C114.061 234.787 124.002 232.909 133.912 230.822C185.079 220.045 233.67 211.401 285.766 205.794C319.21 202.194 352.819 200.502 386.339 197.846C391.699 197.422 427.36 194.187 430.03 195.367C431.307 196.714 431.755 199.478 432.142 201.293C434.741 213.481 435.935 226.158 437.868 238.483C443.224 272.629 447.922 306.925 452.383 341.201C459.558 338.255 471.075 328.998 478.804 331.336C490.25 324.819 502.377 319.73 514.713 315.161C520.089 313.169 534.463 307.35 539.156 309.502C540.027 310.628 540.024 310.608 539.971 312.03C538.799 313.855 535.939 314.167 533.965 314.578C520.914 317.291 507.917 323.268 495.703 328.503C490.752 330.625 485.777 333.068 480.611 334.605C482.342 337.89 485.021 340.804 486.898 344.055C492.729 354.151 496.596 365.11 499.372 376.38C508.944 370.727 519.2 363.858 530.087 361.252C532.834 348.215 535.339 335.289 538.55 322.334C540.063 316.228 541.434 309.997 543.89 304.188C541.041 298.056 537.461 287.085 538.882 280.321C539.356 278.064 540.542 276.218 542.514 274.989C549.957 270.348 565.466 274.724 573.518 276.602C575.94 268.763 578.417 260.97 580.682 253.082C578.001 251.802 575.46 250.449 573.161 248.542C564.904 241.694 559.837 229.738 558.907 219.217C558.097 210.053 560.769 201.772 566.753 194.789C577.425 182.335 604.421 172.509 620.356 171.348L621.082 171.302L620.876 171.231C636.837 156.782 653.851 148.701 675.618 147.221Z"/>
	<path fill="#FEFEFE" d="M697.806 333.188C699.354 333.921 701.138 334.463 702.027 336.013C701.808 337.373 701.573 337.382 700.521 338.309C699.212 338.804 698.648 339.317 697.266 338.873C696.609 337.242 697.456 334.87 697.806 333.188Z"/>
	<path fill="#FEFEFE" d="M267.769 756.745C268.188 756.912 268.968 757.194 269.317 757.456C269.831 757.842 270.292 758.479 270.281 759.134C270.223 762.894 259.662 770.426 256.814 772.966C256.226 772.644 255.685 772.323 255.167 771.893C254.37 771.229 254.068 771.244 253.977 770.154C257.982 765.304 263.349 761.28 267.769 756.745Z"/>
	<path fill="#FEFEFE" d="M646.184 301.884C647.159 302.187 647.102 302.374 647.683 303.16C646.182 306.241 627.988 314.292 623.84 316.641C622.658 316.338 622.485 316.473 621.644 315.513C621.714 315.309 621.746 315.089 621.853 314.902C624.156 310.897 641.219 304.177 646.184 301.884Z"/>
	<path fill="#FEFEFE" d="M739.217 342.729C741.399 342.921 743.769 343.008 745.845 343.741C747.816 344.436 750.13 345.642 750.848 347.758C751.473 349.6 751.032 351.38 750.121 353.003C746.177 354.805 744.761 354.263 740.827 352.954C740.515 349.461 739.969 346.153 739.217 342.729Z"/>
	<path fill="#FEFEFE" d="M291.687 758.764L293.541 759.149C294.358 760.131 294.441 760.117 294.444 761.377C292.151 766.281 280.473 774.888 275.903 778.669C275.687 778.576 275.452 778.519 275.256 778.392C274.201 777.707 273.855 776.524 273.654 775.386C276.08 771.734 287.698 762.859 291.687 758.764Z"/>
	<path fill="#FEFEFE" d="M592.897 293.967L593.653 294.579L593.632 295.502C590.399 299.147 566.92 309.818 561.285 312.109C560.608 311.364 560.305 310.955 560.084 309.967C563.731 305.726 586.659 296.594 592.897 293.967Z"/>
	<path fill="#FEFEFE" d="M577.32 284.457L578.067 284.646C578.749 285.605 578.839 285.372 578.699 286.643C574.145 290.808 556.352 298.405 549.689 301.647C548.673 301.329 548.609 301.308 547.968 300.462L548.229 299.318C552.698 294.511 570.747 287.48 577.32 284.457Z"/>
	<path fill="#FEFEFE" d="M663.705 309.344C664.299 309.329 664.831 309.548 665.398 309.711L665.7 310.512C662.636 315.046 638.384 327.4 632.185 330.582L631.377 330.744L630.448 329.776L630.272 330.078C630.338 329.786 630.363 329.483 630.468 329.203C631.489 326.492 659.099 311.972 663.705 309.344Z"/>
	<path fill="#FEFEFE" d="M624.714 177.688C627.048 178.615 628.809 179.723 630.366 181.734C631.899 183.714 632.889 186.147 632.425 188.679C632.023 190.878 630.887 191.864 629.108 193.076C627.137 193.041 625.324 192.772 623.748 191.499C622.209 190.255 621.355 188.531 621.191 186.57C620.893 183.02 622.445 180.261 624.714 177.688Z"/>
	<path fill="#FEFEFE" d="M872.27 546.35C873.374 546.799 873.913 547.113 874.682 548.029C873.644 552.587 847.265 573.265 841.8 577.181C841.774 577.184 841.747 577.196 841.72 577.191C840.522 576.977 840.455 576.809 839.675 575.898C839.739 575.557 839.685 575.172 839.865 574.877C840.653 573.585 843.164 571.88 844.348 570.904C854.004 562.946 863.2 554.974 872.27 546.35Z"/>
	<path fill="#FEFEFE" d="M464.01 810.244C470.246 812.807 478.57 813.301 485.243 814.63C480.919 818.642 476.386 822.148 472.34 826.48C470.455 827.549 454.928 823.415 451.952 822.73C455.978 818.22 460.842 815.648 464.01 810.244Z"/>
	<path fill="#FEFEFE" d="M282.787 719.175C283.202 719.355 283.761 719.576 284.118 719.84C285.227 720.66 285.354 721.04 285.505 722.302C283.482 725.768 274.501 732.596 271.025 735.811C257.992 747.864 245.106 760.102 231.884 771.948C231.65 771.89 231.401 771.876 231.183 771.775C230.045 771.246 229.82 770.811 229.494 769.715C231.228 764.44 275.808 725.334 282.787 719.175Z"/>
	<path fill="#FEFEFE" d="M884.117 498.282L885.952 498.54C888.085 500.176 889.707 502.34 891.098 504.623C896.017 512.695 899.582 523.288 897.1 532.693C890.656 557.111 859.555 581.525 838.197 593.723C837.115 593.173 837.05 593.068 836.449 592.006C837.264 589.929 841.751 587.751 843.744 586.44C861.406 574.82 890.761 551.093 894.33 529.658C895.251 524.121 894.099 518.658 891.887 513.58C890.357 510.066 884.327 502.16 883.82 499.724C883.72 499.243 884.018 498.763 884.117 498.282Z"/>
	<path fill="#FEFEFE" d="M439.334 824.18C441.409 824.903 443.902 827.239 445.748 827.592C446.35 827.707 447.57 826.881 448.237 826.913C451.302 827.057 455.391 828.6 458.475 829.294C472.043 832.35 485.633 836.714 499.38 838.66C498.003 840.111 496.559 841.504 495.143 842.917L488.743 848.749C473.874 846.234 459.208 842.652 444.544 839.167C442.641 834.21 440.732 829.311 439.334 824.18Z"/>
	<path fill="#FEFEFE" d="M354.036 415.332L355.073 415.918C356.774 419.346 348.507 423.701 346.344 426.167C343.412 429.508 341.524 433.537 340.717 437.901C337.971 452.763 344.252 468.517 352.517 480.56C350.638 472.614 348.148 464.768 346.519 456.769C344.913 448.879 344.339 439.235 349.161 432.319C350.911 429.81 354.106 426.378 357.197 425.762L357.729 426.268C357.835 430.187 352.931 433.646 351.296 437.038C350.584 438.515 350.336 440.4 350.037 442.005C349.919 454.232 353.195 465.46 357.239 476.887C358.971 481.783 361.368 487.31 361.841 492.508C361.97 493.919 361.951 494.594 361.085 495.712C360.227 495.854 360.014 496 359.162 495.67C353.376 493.43 343.322 475.494 340.549 469.405C336.09 459.613 332.871 443.532 336.955 433.209C340.044 425.399 346.313 418.648 354.036 415.332Z"/>
	<path fill="#FEFEFE" d="M460.795 415.945C461.922 417.519 468.203 473.333 468.722 479.755C459.35 474.334 450.218 468.594 441.2 462.602C432.558 456.772 424.042 450.794 415.662 444.592C431.472 435.756 446.142 426.614 460.795 415.945Z"/>
	<path fill="#FEFEFE" d="M490.388 815.563C497.643 817.824 505.621 819.027 513.087 820.547C525.867 823.149 538.668 825.815 551.392 828.677C522.664 851.774 493.285 877.177 463.42 898.406C459.621 885.732 454.77 873.422 451.217 860.656C449.157 855.203 447.597 849.376 445.956 843.779C457.705 848.749 471.311 850.774 483.789 853.255C476.71 859.881 463.089 868.218 458.567 876.452C458.791 877.255 458.617 877.311 459.175 877.685C459.993 878.233 461.354 878.393 462.287 878.055C464.598 877.217 470.613 870.778 472.86 868.816C480.651 862.013 506.047 842.249 509.614 834.738C510.128 833.654 510.15 832.863 509.733 831.748C509.412 830.888 509.246 831.002 508.496 830.633C506.574 831.179 504.823 832.921 503.263 834.15C494.507 832.865 486.099 830.666 477.551 828.424C481.521 824.377 487.593 820.433 490.388 815.563Z"/>
	<path fill="#FEFEFE" d="M740.227 359.17C760.662 372.147 780.899 385.131 800.02 400.05C799.59 400.209 799.16 400.369 798.734 400.541C784.68 406.221 772.802 419.734 766.823 433.376C765.93 435.669 765.445 438.096 764.878 440.487C760.868 434.59 755.46 429.592 750.431 424.575C743.351 417.512 736.342 410.304 729.041 403.468C723.978 398.727 718.533 394.415 713.69 389.44C714.985 388.753 716.275 388.059 717.55 387.337C728.326 381.237 736.923 371.16 740.227 359.17Z"/>
	<path fill="#FEFEFE" d="M528.895 367.467L529.423 367.856C530.121 370.654 528.769 381.837 528.718 385.852C528.656 390.64 528.99 395.385 529.537 400.141C532.615 426.911 540.747 446.868 562.217 463.892C557.971 470.173 555.833 478.854 553.18 485.964C550.856 492.191 548.204 498.309 545.61 504.427C537.668 503.409 526.166 504.944 519.153 502.919C515.27 501.799 511.39 499.429 507.507 498.015C496.733 494.2 485.326 489.009 475.611 482.992C475.285 472.51 473.199 461.607 471.89 451.174C470.234 437.979 469.05 424.697 467.148 411.539C474.923 404.125 484.706 398.548 491.971 390.549C494.677 387.569 496.476 383.8 498.994 380.643C500.085 380.705 501.31 380.806 502.366 380.481C507.961 378.758 522.59 370.597 528.895 367.467Z"/>
	<path fill="#FEFEFE" d="M705.838 392.616L706.218 392.584C710.157 393.932 720.402 404.309 723.721 407.509C738.233 421.498 752.595 435.669 766.037 450.701C776.538 462.444 786.337 474.718 796.107 487.064C802.546 495.201 809.787 503.394 815.092 512.301C807.312 512.902 799.554 514.804 791.881 516.225C778.931 518.624 765.859 520.831 753.126 524.222C740.423 527.25 727.883 530.773 715.348 534.421C709.57 532.758 703.43 531.857 697.555 530.481C682.742 527.014 668.422 523.328 654.077 518.203C655.565 511.181 655.657 503.909 657.171 496.866C665.822 456.615 678.759 428.982 699.054 393.665C701.348 393.56 703.588 393.048 705.838 392.616Z"/>
	<path fill="#FEFEFE" d="M680.684 152.732C693.412 151.94 706.482 155.224 716.619 163.128C729.658 173.295 734.004 187.669 735.858 203.344C734.101 204.337 732.398 205.354 730.81 206.607C728.281 208.601 724.019 212.081 724.067 215.59C724.092 217.419 725.444 218.329 726.597 219.561C726.704 221.258 726.753 223.887 727.849 225.257C728.309 225.833 728.805 225.61 729.47 225.61C732.366 223.82 733.6 220.966 735.186 218.097C738.488 212.124 744.086 206.724 750.856 204.968C753.873 204.186 758.565 204.054 761.267 205.842C765.072 208.359 766.365 213.689 767.04 217.943C769.769 235.131 760.16 253.128 748.225 264.817C745.804 267.188 740.526 270.358 739.058 273.215C738.385 274.524 738.611 274.756 739.127 276.023C742.774 278.72 750.871 275.702 755.584 276.905C758.623 277.681 759.706 279.038 761.177 281.721L761.506 282.334C761.301 287.798 760.094 292.648 757.424 297.442C750.847 309.254 734.074 326.631 721.081 330.963C718.061 331.97 714.544 331.631 711.356 332.587C711.156 332.647 710.957 332.712 710.758 332.775C709.223 325.846 706.141 317.616 706.668 310.481C707.057 305.208 711.79 298.565 710.83 293.673C710.599 292.493 710.246 292.009 709.233 291.443C708.749 291.508 708.577 291.503 708.076 291.735C704.921 293.195 703.894 295.165 702.901 298.307C697.086 291.59 694.204 285.666 693.766 276.692C693.613 273.553 693.66 270.352 692.985 267.273C690.087 265.441 684.19 264.971 680.728 264.047C672.954 261.971 665.227 258.889 658.484 254.458C655.734 252.651 653.186 250.483 651.068 247.958C650.13 246.84 648.225 243.728 646.938 243.164C646.485 242.965 645.959 243.024 645.469 242.954C644.175 243.536 644.2 243.441 643.67 244.747C643.845 245.613 644.033 246.297 644.493 247.063C653.033 261.268 674 266.896 689.027 270.135C688.836 272.679 688.99 275.251 689.055 277.799C689.38 280.181 689.756 282.574 690.264 284.925C691.895 292.476 695.254 297.244 701.707 301.395C701.495 304.471 700.794 307.531 700.236 310.561C688.969 306.875 677.539 303.794 666.184 300.41C649.211 295.353 632.494 290.307 615.314 285.921C603.473 282.897 591.321 280.884 579.569 277.617C582.18 269.487 584.344 261.119 587.185 253.081C587.402 253.063 587.618 253.016 587.834 253.027C594.858 253.377 600.586 250.478 606.415 246.841C607.626 248.127 608.837 249.333 610.345 250.273C618.261 255.209 636.136 259.07 645.14 256.918C645.918 255.955 645.943 255.955 645.949 254.721C643.085 252.737 624.387 251.826 617.932 249.307C615.483 248.352 611.566 247.232 610.445 244.674C610.614 243.978 610.879 243.155 610.901 242.443C610.942 241.078 610.668 240.761 609.899 239.717C608.747 239.309 608.348 239.092 607.166 239.748C602.197 242.505 601.933 245.884 594.624 247.74C590.303 248.837 584.102 248.759 580.154 246.383C572.615 241.847 567.475 231.405 565.555 223.101C563.878 215.847 564.401 208.917 568.508 202.513C577.987 187.732 600.699 180.845 617.069 177.415C615.968 180.624 615.264 183.277 615.606 186.731C615.975 190.463 617.289 194.293 620.403 196.608C622.876 198.447 626.255 199.264 629.297 198.805C632.378 198.339 635.12 196.451 636.875 193.904C638.794 191.119 639.495 187.796 638.688 184.498C637.332 178.955 633.095 175.605 628.437 172.854L628.613 172.684C641.781 159.794 662.782 153.921 680.684 152.732Z"/>
	<path fill="#FEFEFE" d="M419.847 201.713L425.923 201.432C427.29 207.329 427.725 213.737 428.573 219.755L434.012 258.744L440.591 306.739C442.394 319.438 444.624 332.194 445.525 344.992C437.37 349.506 428.975 353.611 420.8 358.101C398.638 370.273 376.668 383.065 355.296 396.571C347.219 401.675 322.752 417.243 317.315 423.761C315.783 425.596 315.209 427.612 314.708 429.917C308.785 457.2 332.173 496.084 346.314 518.256C336.293 518.988 326.056 520.939 316.11 522.462L267.966 529.84C227.953 535.987 187.786 541.383 147.878 548.213L139.244 549.665C137.907 542.432 135.929 535.294 134.266 528.126L125.627 489.456C118.4 455.844 112.277 421.618 107.03 387.64C102.773 360.071 99.0619 332.335 96.0931 304.595C93.9746 284.8 92.8129 264.398 89.3119 244.821C101.071 242.534 112.89 240.558 124.645 238.228C165.875 230.057 206.269 221.795 247.997 216.24C304.972 208.655 362.523 205.556 419.847 201.713Z"/>
	<path fill="#231F20" d="M388.489 362.152L389.473 362.056C390.174 362.4 390.265 362.598 390.688 363.226L390.509 364.062C389.484 365.128 388.447 365.475 387.07 365.904C383.309 367.077 379.129 367.608 375.265 368.439C366.355 370.355 357.47 372.232 348.775 374.991C348.047 374.747 347.527 374.239 346.923 373.776L346.955 372.874C350.264 368.741 381.588 363.406 388.489 362.152Z"/>
	<path fill="#231F20" d="M247.637 496.76L248.877 497.145C249.55 498.099 249.664 498.129 249.605 499.278C248.842 500.229 248.003 500.518 246.856 500.814C242.263 501.998 236.988 502.338 232.256 503.127C220.522 505.085 208.792 507.116 197.017 508.81C196.338 508.744 195.532 508.401 194.866 508.207L194.709 507.735C195.344 506.917 195.745 506.237 196.767 505.872C200.698 504.468 205.249 504.377 209.374 503.687C221.941 501.588 235.36 500.112 247.637 496.76Z"/>
	<path fill="#231F20" d="M383.939 288.685C385.075 288.513 386.134 288.533 387.278 288.542L388.169 289.966C388.141 290.018 388.127 290.079 388.086 290.121C387.11 291.121 385.344 291.788 384.016 292.135C378.903 293.469 373.18 293.773 367.93 294.544C358.013 296.001 348.084 297.672 338.118 298.748C336.978 299.053 335.712 299.05 334.623 298.601C334.417 297.814 334.211 297.851 334.632 297.29C335.594 296.007 337.874 295.502 339.369 295.167C343.603 294.22 348.187 294.017 352.502 293.381L383.939 288.685Z"/>
	<path fill="#231F20" d="M242.35 417.662C242.987 417.532 243.842 417.598 244.499 417.587C245.556 418.282 245.657 418.196 245.949 419.406C245.874 419.522 245.816 419.65 245.726 419.754C245.087 420.492 243.975 420.891 243.039 421.104C239.36 421.941 235.433 422.164 231.71 422.839C217.852 425.35 203.901 427.409 190.091 430.183C189.661 430.247 188.921 430.381 188.503 430.336C187.284 430.206 186.963 429.65 186.29 428.768L186.622 427.77C189.233 425.834 235.297 418.869 242.35 417.662Z"/>
	<path fill="#231F20" d="M236.435 340.634L237.387 340.668L238.377 341.975C238.265 342.23 238.179 342.499 238.042 342.742C237.408 343.869 235.759 344.437 234.583 344.742C230.354 345.842 225.46 346.118 221.103 346.855C207.578 349.143 194.005 351.159 180.522 353.685C179.464 353.301 179.461 353.203 178.839 352.248L179.141 351.154C181.676 348.798 229.228 342.132 236.435 340.634Z"/>
	<path fill="#231F20" d="M290.842 473.16C291.783 472.998 292.057 473.013 292.946 473.205C293.639 474.281 293.727 474.225 293.504 475.468C291.702 477.582 204.413 490.76 195.119 492.328C193.787 492.462 193.217 492.334 192.197 491.584L192.136 490.221C194.992 488.094 278.95 475.173 290.842 473.16Z"/>
	<path fill="#231F20" d="M284.678 394.624C285.101 394.551 285.759 394.645 286.195 394.665C287.082 395.711 287.082 395.609 286.986 396.971C286.318 397.852 285.704 398.148 284.635 398.418C275.974 400.603 266.321 401.245 257.453 402.607C233.359 406.309 209.16 409.454 185.112 413.418L183.502 413.343C182.601 412.352 182.489 412.316 182.363 410.999C184.461 408.726 270.96 398.44 284.678 394.624Z"/>
	<path fill="#231F20" d="M277.271 318.684C278.745 318.385 280.257 318.458 281.753 318.452L282.458 319.24L282.317 320.657C281.337 321.682 279.682 321.838 278.332 322.099C270.225 323.661 261.829 324.273 253.656 325.559L180.157 336.827C178.846 337.079 177.862 337.306 176.536 336.934C175.625 336.07 175.253 336.132 175.212 334.82C176.921 333.371 269.155 319.784 277.271 318.684Z"/>
	<path fill="#231F20" d="M306.077 456.202C307.004 456.034 307.641 456.067 308.567 456.23C309.078 457.358 308.976 457.547 308.762 458.787L307.75 459.443C299.174 459.792 287.919 462.326 279.121 463.62C250.134 467.884 221.175 473.546 192.093 476.981C191.577 477.055 191.314 477.12 190.758 477.053C189.804 476.937 189 476.489 188.528 475.685C188.675 475.495 188.808 475.294 188.968 475.116C189.814 474.175 192.021 473.728 193.23 473.509C208.818 470.688 224.65 468.667 240.31 466.193C262.192 462.736 284.091 458.939 306.077 456.202Z"/>
	<path fill="#231F20" d="M309.085 298.705C310.59 298.515 311.268 298.532 312.732 299.104L312.055 300.57C310.416 301.6 308.707 302.16 306.817 302.54C302.955 303.318 298.912 303.597 295.006 304.14L268.714 307.92L177.278 321.577L174.194 321.85C173.076 321.352 173.116 321.613 172.58 320.397L172.967 319.769C174.46 318.794 176.064 318.426 177.801 318.115C183.887 317.023 190.1 316.424 196.22 315.522L233.506 309.843C258.621 306.058 283.88 301.753 309.085 298.705Z"/>
	<path fill="#231F20" d="M322.961 373.679C323.655 373.572 324.35 373.464 325.049 373.392C326.633 373.229 327.444 373.484 328.665 374.472L328.653 375.215C327.357 376.333 325.634 376.626 323.994 376.952C308.706 379.988 292.827 381.859 277.39 384.135C246.64 388.668 215.668 393.11 185.132 398.868C184.241 398.973 183.016 399.239 182.14 399.108C180.913 398.923 180.605 398.334 179.904 397.442L180.156 396.41C183.488 394.219 307.917 375.931 322.961 373.679Z"/>
	<path fill="#231F20" d="M389.534 227.695C394.03 226.953 398.899 227.561 402.685 230.227C406.189 232.693 408.541 236.623 409.237 240.835C410.008 245.493 408.718 250.454 405.873 254.211C403.128 257.836 399.568 259.527 395.252 260.59C384.316 263.284 372.305 264.247 361.135 265.746L304.245 273.531C250.698 280.9 197.272 289.231 143.677 296.226C139.326 295.986 135.393 295.126 131.762 292.573C127.489 289.569 124.486 285.092 123.79 279.873C123.057 274.377 125.099 268.992 128.492 264.721C131.116 261.418 134.256 259.229 138.336 258.162C142.169 257.16 146.3 256.873 150.225 256.299C159.075 255.006 167.921 253.762 176.794 252.631C200.853 249.565 224.865 246.48 248.99 243.958C295.871 239.057 342.693 233.035 389.534 227.695Z"/>
	<path fill="#FEFEFE" d="M164.099 269.057C164.884 269.014 165.669 268.972 166.456 268.97C168.124 268.968 170.017 269.516 171.091 270.908C171.83 271.866 172.087 272.758 171.784 273.962C171.372 275.601 170.095 276.475 168.787 277.371C167.066 277.579 165.118 277.808 163.619 276.725C162.565 275.962 161.837 275.07 161.749 273.721C161.617 271.677 162.802 270.414 164.099 269.057Z"/>
	<path fill="#FEFEFE" d="M141.954 272.573C143.022 272.46 144.129 272.365 145.204 272.455C146.494 272.563 148.534 273.546 149.214 274.769C149.827 275.873 149.938 276.762 149.491 277.954C148.951 279.397 147.541 280.076 146.286 280.779C145.37 280.943 144.411 281.138 143.479 281.156C142.297 281.178 140.822 280.577 140.062 279.671C139.301 278.762 139.122 277.931 139.203 276.789C139.339 274.883 140.614 273.746 141.954 272.573Z"/>
	<path fill="#FEFEFE" d="M189.734 266.545L192.018 266.454C192.736 266.421 193.456 266.361 194.175 266.389C195.928 266.459 197.004 267.355 198.132 268.59C198.491 269.983 198.501 270.257 198.135 271.646C197.078 272.674 196.86 272.998 195.448 273.327C192.109 274.191 190.519 274.678 187.347 272.819C186.911 272.139 186.521 271.844 186.581 270.99C186.723 268.982 188.302 267.741 189.734 266.545Z"/>
	<path fill="#FEFEFE" d="M599.914 303.451C605.35 304.51 610.755 305.76 616.166 306.945C614.092 315.119 616.284 322.1 620.417 329.199C624.078 335.487 629.933 341.642 637.212 343.391C650.345 346.547 665.073 332.785 675.508 326.228C681.862 327.86 688.03 330.465 694.378 332.26C693.829 334.045 693.409 335.896 693.192 337.751C692.884 340.382 692.233 343.388 693.983 345.581C697.366 346.759 705.707 340.638 709.359 339.317C712.5 338.18 716.195 337.605 719.511 337.175C723.481 336.66 727.208 337.368 730.364 339.96C733.158 342.256 734.571 345.685 734.913 349.223C735.715 357.532 732.185 365.642 727.001 371.955C718.887 381.837 707.358 387.035 694.87 388.309C692.464 393.792 688.812 399.087 685.841 404.33C679.763 415.055 673.891 425.816 668.906 437.101C658.688 460.229 652.291 485.665 649.213 510.709C648.724 514.684 647.148 518.953 648.652 522.838C653.778 528.345 701.153 538.16 709.86 539.722C697.393 569.058 692.213 603.545 703.306 634.108C706.751 643.599 716.026 664.867 725.39 669.283C722.776 679.309 720.752 689.478 718.069 699.499C712.856 718.968 706.637 738.504 700.329 757.651C696.355 769.714 692.092 781.67 687.829 793.633C685.534 800.076 682.808 806.609 681.069 813.209C651.105 818.772 619.973 814.905 589.95 811.438C577.249 810.497 564.361 807.674 551.752 805.684C536.939 803.347 522.038 801.622 507.254 799.08C480.581 794.496 454.55 789.088 427.447 787.332C424.149 778.355 421.503 769.137 418.546 760.042L404.986 718.906C409.388 696.038 412.364 673.262 417.798 650.41C425.811 616.707 441.421 575.793 463.445 548.697C471.636 538.619 482.065 529.202 492.546 521.524C497.042 518.231 506.871 510.593 511.662 509.45C519.069 507.683 543.733 513.517 548.439 510.246C553.496 506.731 564.106 473.35 565.036 465.717C569.495 468.113 577.366 473.258 582.499 473.017C583.584 472.966 583.716 472.75 584.418 472.011C584.221 468.686 579.227 466.929 576.586 465.597C565.617 460.066 555.98 451.316 549.475 440.824C525.061 401.45 537.748 353.153 547.574 311.386C550.283 315.87 554.007 319.538 558.615 322.051C564.294 325.148 570.693 326.032 576.903 324.112C587.466 320.847 594.863 312.963 599.914 303.451Z"/>
	<path fill="#231F20" d="M717.053 363.917L717.739 364.234C718.187 365.413 718.416 366.202 717.87 367.414C716.129 371.28 706.652 373.762 702.939 374.823C702.393 373.795 701.826 373.067 702.029 371.865C704.952 368.263 712.84 366.069 717.053 363.917Z"/>
	<path fill="#231F20" d="M719.742 348.647C721.866 348.664 724.055 348.744 725.945 349.783C726.792 350.988 726.801 351.113 726.821 352.591C724.73 355.6 719.517 353.629 716.12 354.145C713.724 354.508 711.161 355.871 708.938 356.833C707.182 357.415 705.381 358.145 703.5 357.86C702.304 357.679 701.725 357.177 701.115 356.208C701.19 355.98 701.229 355.736 701.34 355.523C703.01 352.349 715.903 349.155 719.742 348.647Z"/>
	<path fill="#231F20" d="M618.241 387.444C619.02 387.822 619.106 388.013 619.572 388.71C619.556 389.669 619.753 389.791 619.058 390.535C613.641 396.33 602.691 399.296 595.016 399.511C586.862 399.74 579.709 397.267 573.784 391.6C573.219 390.528 572.69 389.845 572.905 388.595C575.007 387.687 583.609 394.41 586.731 395.224C597.681 398.081 609.072 392.942 618.241 387.444Z"/>
	<path fill="#231F20" d="M602.121 329.393C603.403 329.487 603.589 329.511 604.624 330.258L604.768 331.468C602.736 335.694 591.454 343.053 587.311 346.226C590.87 350.054 597.233 354.1 599.321 358.801C599.054 360.276 598.856 360.262 597.691 361.246C593.584 357.938 589.523 354.356 585.772 350.647C584.124 349.018 582.636 347.64 582.611 345.204C584.006 341.5 598.387 332.178 602.121 329.393Z"/>
	<path fill="#231F20" d="M539.412 512.2C540.642 512.759 541.938 513.788 542.382 515.116C544.421 521.214 541.823 525.503 545.991 532.794C559.026 555.6 595.978 550.136 616.655 543.216C626.632 539.877 636.647 535.581 645.819 530.422C647.674 529.378 650.93 526.829 652.868 527.356C653.03 527.793 653.084 527.843 653.083 528.384C653.08 530.155 651.955 531.39 650.741 532.505C649.927 532.919 649.347 533.273 648.695 533.928C641.701 540.961 631.325 544.807 622.139 548.118C603.46 554.851 575.447 560.044 556.767 551.208C548.52 547.307 541.67 540.494 538.596 531.797C536.398 525.577 536.516 518.198 539.412 512.2Z"/>
	<path fill="#231F20" d="M619.749 607.424C635.391 610.104 662.378 617.296 677.36 622.702C678.666 623.173 681.89 624.184 682.334 625.512C684.599 632.286 665.354 681.476 661.321 691.562L660.403 692.383C657.158 693.395 653.239 691.921 650.12 690.888C643.494 688.695 602.127 672.864 600.573 668.604C598.061 661.713 615.557 615.23 619.749 607.424Z"/>
	<path fill="#FEFEFE" d="M621.037 611.07C626.536 612.059 632.064 613.784 637.487 615.158C651.652 618.75 665.75 622.621 679.618 627.242C675.489 646.502 666.634 668.55 658.93 686.836C658.59 687.814 658.307 688.417 657.619 689.195C650.452 689.118 612.302 671.745 603.33 667.683C605.489 655.842 609.202 643.959 613.406 632.695C616.01 625.717 619.649 618.379 621.037 611.07Z"/>
	<path fill="#231F20" d="M659.254 636.418C659.469 636.4 659.685 636.345 659.9 636.365C660.974 636.467 661.827 637.128 662.328 638.08C662.987 639.332 662.66 640.002 662.21 641.187C657.732 644.872 636.361 656.952 630.959 658.459C628.469 656.855 626.82 650.003 625.808 647.12C625.254 645.612 624.5 643.95 624.187 642.381C623.92 641.046 624.224 640.401 624.884 639.271C626.063 638.565 626.111 638.418 627.452 638.597C630.977 641.072 631.552 647.474 633.681 651.201C633.761 651.34 633.845 651.477 633.927 651.614C642.15 646.219 650.763 641.378 659.254 636.418Z"/>
</svg>
