<?xml version="1.0" encoding="utf-8" ?>
<svg xmlns="http://www.w3.org/2000/svg" xmlns:xlink="http://www.w3.org/1999/xlink" width="1024" height="1024">
	<path fill="#232021" d="M893.604 291.78C894.369 292.047 895.058 292.274 895.635 292.882C897.256 294.585 897.254 297.585 897.114 299.765C896.482 309.596 890.839 321.424 883.47 327.978C878.374 332.51 873.009 334.182 866.299 333.782C865.844 333.452 865.474 333.132 865.117 332.694C864.481 331.914 864.21 331.872 864.307 330.819C867.461 329.164 870.777 331.923 877.317 327.887C886.111 322.459 891.168 311.992 893.39 302.239C894.118 299.044 892.353 295.232 893.314 292.516C893.402 292.267 893.507 292.025 893.604 291.78Z"/>
	<path fill="#232021" d="M858.793 272.984C865.125 273.553 871.235 275.073 876.071 279.475C881.049 284.006 883.951 291.145 884.167 297.822C884.324 302.663 882.851 307.698 879.454 311.251C876.225 314.628 871.963 316.168 867.365 316.161C866.342 315.286 865.33 314.352 864.651 313.171C863.55 311.254 863.463 308.943 864.106 306.863C866.159 300.228 873.786 295.735 879.602 292.782C875.962 284.029 871.758 280.953 863.138 277.789C861.384 277.145 859.705 276.692 858.315 275.383C858.12 274.173 858.229 274.091 858.793 272.984ZM879.825 297.021C875.411 299.462 869.73 302.417 868.152 307.595C867.52 309.669 867.999 310.995 868.951 312.842C873.403 311.512 876.88 309.109 879.133 304.899C880.21 302.888 881.007 299.868 880.193 297.617C880.113 297.398 879.948 297.22 879.825 297.021Z"/>
	<path fill="#232021" d="M567.958 108.21C569.493 108.172 571.077 108.134 572.599 108.352C574.239 108.587 575.311 109.245 576.299 110.569C575.575 111.211 575.267 111.34 574.33 111.517C567.93 112.728 564.02 111.498 557.228 114.271C551.556 116.587 547.233 120.274 542.839 124.453C543.798 124.958 544.756 125.466 545.7 126C550.761 128.862 552.711 132.224 554.206 137.643C553.461 140.588 552.891 143.025 550.476 145.054C546.383 148.493 540.447 147.539 535.558 147.041C520.862 160.767 533.516 162.201 532.923 170.226L531.882 170.837C530.79 170.708 530.418 170.669 529.555 169.909C526.945 167.612 525.14 162.511 525.101 159.077C525.036 153.299 528.516 148.897 532.242 144.892C530.756 142.327 529.633 140.267 529.538 137.24C530.37 133.507 532.025 130.74 534.073 127.58C530.514 129.008 527.186 130.577 524.134 132.932C517.567 137.999 512.856 145.946 512.504 154.341C512.367 157.626 513.011 160.99 512.472 164.251C512.233 165.694 511.922 166.781 510.728 167.65L509.778 167.012C509.094 165.491 508.718 164.12 508.547 162.453C507.569 152.946 510.746 141.897 516.862 134.511C522.603 127.577 529.363 124.973 538.117 124.109C546.966 114.935 555.066 109.607 567.958 108.21ZM537.474 128.428C535.714 131.746 532.839 136.03 534.495 139.945C535.225 141.668 536.902 142.597 538.614 143.074C541.19 143.791 543.84 143.573 546.474 143.439C548.211 142.379 549.745 141.419 550.223 139.275C550.69 137.181 549.893 135.061 548.628 133.415C546.726 130.941 543.508 128.645 540.323 128.39C539.375 128.314 538.421 128.378 537.474 128.428Z"/>
	<path fill="#232021" d="M783.955 126.647C787.639 126.353 791.304 126.288 794.848 127.49C801.146 129.628 803.837 134.8 806.498 140.412C812.247 140.089 818.395 140.226 823.776 142.496C829.626 144.965 832.836 149.355 835.245 155.001C838.334 155.771 841.275 157.263 843.683 159.356C846.557 161.854 848.381 165.595 848.534 169.401C848.642 172.08 847.679 174.719 845.814 176.655C843.473 179.086 840.057 180.216 836.727 180.098C831.959 179.93 828.13 177.397 824.972 173.999C822.529 171.371 819.238 167.136 819.713 163.321C820.46 157.326 826.844 157.264 830.478 154.478L829.807 152.587C828.953 151.288 828.015 150.181 826.883 149.109C821.346 143.864 814.167 143.852 807.05 144.109C806.747 147.634 806.426 151.346 804.8 154.548C803.78 156.558 802.232 158.251 800.025 158.917C797.838 159.577 795.291 159.168 793.337 158.02C791.366 156.862 790.021 154.976 789.545 152.739C789.088 150.59 789.555 148.29 790.829 146.501C793.4 142.894 798.285 141.996 802.384 141.393C800.14 136.785 797.582 132.171 792.408 130.389C780.979 126.453 774.856 140.188 769.118 142.331C768.402 142.599 768.526 142.43 767.739 142.024C767.338 140.761 767.344 139.959 767.871 138.708C770.263 133.022 778.656 128.87 783.955 126.647ZM827.364 159.249C825.762 160.63 824.553 161.881 824.374 164.09C824.181 166.476 825.367 168.706 826.918 170.435C829.65 173.478 834.018 175.947 838.183 175.963C839.233 175.967 840.226 175.829 841.233 175.529C843.079 174.186 844.582 172.634 844.867 170.256C845.135 168.026 844.059 166.094 842.603 164.495C839.595 161.191 834.641 158.916 830.159 158.909C829.202 158.908 828.301 159.072 827.364 159.249ZM801.049 145.443C798.245 146.434 794.288 147.834 793.045 150.825C792.652 151.77 792.788 152.496 792.939 153.463C793.605 154.45 794.17 155.172 795.097 155.924C798.212 155.354 799.478 153.991 801.28 151.446C802.237 150.095 803.035 148.614 802.935 146.919C802.215 145.978 802.159 145.802 801.049 145.443Z"/>
	<path fill="#232021" d="M666.392 154.325C674.663 153.019 683.379 154.392 691.187 157.265C706.723 162.983 715.976 175.19 722.726 189.742C724.561 189.582 726.397 189.448 728.238 189.398C738.41 189.12 747.159 193.059 754.427 200.075C763.502 208.835 769.079 221.847 769.2 234.46C769.34 249.152 760.649 269.48 750.437 279.832C752.225 280.55 754.127 281.233 755.793 282.204C758.42 283.736 759.959 285.867 760.548 288.846C763.312 302.828 744.896 327.931 736.823 339.323C744.016 343.991 748.06 350.766 750.91 358.645L752.569 359.256C762.631 362.996 772.383 367.344 781.757 372.58C827.67 398.223 907.017 462.821 929.022 511.662C933.467 521.528 934.926 531.409 930.979 541.713C915.105 583.149 829.831 629.343 791.468 647.589C775.305 655.276 758.53 661.534 742.183 668.804C736.293 685.352 731.19 702.183 725.434 718.779C718.38 739.117 710.647 759.193 702.788 779.23C696.859 794.344 691.243 811.07 682.109 824.563C662.628 825.176 643.09 821.995 623.905 818.892C587.993 813.083 552.764 805.01 517.178 797.646C488.039 791.617 458.661 787.064 429.496 781.269C430.647 784.215 431.654 787.235 432.724 790.212C455.504 795.279 477.736 802.186 500.25 808.229C514.549 812.067 529.394 814.835 543.487 819.305C546.198 820.165 550.148 821.23 552.045 823.433C555.844 827.844 555.434 834.887 555.169 840.321C550.446 846.908 542.733 852.339 536.549 857.529L511.971 878.22C498.158 889.92 481.841 905.986 466.908 915.544C440.065 912.263 413.126 905.233 386.85 898.906C342.808 888.3 299.136 876.853 255.757 863.791C235.179 857.595 213.307 852.407 193.757 843.459C186.94 840.339 180.29 835.561 176.102 829.234C167.074 815.59 161.243 792.801 155.558 777.02C147.282 754.042 138.582 731.214 129.981 708.356C123.037 689.478 115.632 670.741 108.347 651.992C104.668 642.525 100.531 633.039 97.443 623.369C96.6662 620.936 95.6523 617.834 95.8891 615.275C96.055 613.483 97.1095 611.668 98.5665 610.617C101.294 608.651 105.262 609.033 108.38 609.612C125.341 612.758 142.289 616.763 159.209 620.201L285.414 645.677L354.196 659.571C364.526 661.707 375.697 663.019 385.653 666.409C390.363 668.013 393.865 671.512 396.646 675.524C400.681 665.135 403.899 654.404 407.575 643.881C412.136 630.829 417.158 617.952 422.126 605.051C396.3 579.529 371.859 553.054 349.645 524.294L216.384 552.508C192.88 557.405 169.217 563.051 145.437 566.325C138.811 543.672 133.576 520.405 128.551 497.341C120.991 462.644 79.6124 259.954 89.0202 238.395C90.3749 237.225 91.6661 236.596 93.3712 236.04C112.754 229.719 138.443 225.302 158.735 220.966C234.205 204.843 312.268 191.325 389.299 186.143C396.932 185.63 415.316 183.207 421.602 186.443C423.044 188.071 423.548 190.297 424.094 192.359C427.935 206.877 430.388 222.035 433.373 236.758C437.502 257.124 441.983 277.451 445.814 297.873C448.821 313.9 450.887 330.078 454.576 345.978C472.55 335.694 491.594 326.319 510.752 318.477C519.87 314.745 529.221 311.636 538.415 308.1C540.215 303.726 542.629 299.709 545.188 295.745C542.377 288.918 535.665 274.163 537.971 267.25C538.508 265.639 539.58 264.385 541.121 263.657C548.16 260.333 563.023 267.094 569.959 269.532C573.282 262.804 576.633 256.092 579.818 249.297L578.67 248.502C565.155 239.074 556.187 228.168 553.335 211.587C550.987 197.934 553.331 182.447 561.563 171.048C565.029 166.248 569.732 162.168 575.698 161.031C587.484 158.785 598.395 168.541 610.54 167.851C623.544 167.113 636.029 161.285 648.443 157.747C654.265 156.088 660.423 155.313 666.392 154.325ZM406.238 191.206C335.99 195.838 266.633 206.031 197.532 219.441C163.172 226.109 129.106 235.159 94.5451 240.68C97.9779 305.627 109.111 365.62 121.729 429.118C130.443 472.966 139.242 516.775 151.162 559.884C154.018 559.244 156.92 558.681 159.749 557.939C181.362 552.954 203.138 548.807 224.846 544.268L305.759 527.028C318.913 524.28 332.232 521.958 345.324 518.977C332.578 500.507 317.182 480.72 321.526 456.861C326.607 428.951 358.932 406.145 381.098 391.01C395.581 381.12 410.621 372.012 425.662 363.001C433.19 358.492 440.642 353.739 448.307 349.471C444.311 328.193 441.175 306.817 436.704 285.619C431.831 262.511 426.819 239.456 422.223 216.288C420.565 207.93 418.452 199.48 417.171 191.076C413.544 191.05 409.851 190.898 406.238 191.206ZM400.956 684.726C403.706 699.068 408.71 713.09 413.014 727.038C417.904 742.884 422.458 758.903 427.766 774.613C466.239 780.742 504.32 788.23 542.44 796.224C587.524 805.678 632.263 815.819 678.459 817.837C693.588 784.178 707.355 749.564 719.26 714.639C723.586 701.951 727.405 689.077 731.437 676.293C730.429 675.22 729.108 674.057 728.318 672.832C713.158 656.352 707.467 631.584 704.252 610.016C700.865 590.895 700.974 551.765 710.266 535.187C703.214 533.987 695.661 530.295 688.958 527.801C681.176 524.906 673.247 522.374 665.348 519.817C643.476 540.627 612.351 555.459 581.745 554.734C569.911 554.453 556.135 551.612 547.595 542.728C542.721 537.658 540.599 531.032 540.843 524.081C541.025 518.879 542.392 513.886 543.904 508.935C534.471 508.148 522.773 507.379 513.641 510.05C510.694 510.912 508.096 512.835 505.173 513.751C503.532 514.265 501.589 514.349 499.881 514.578C494.086 515.356 490.564 517.374 486.177 521.128C476.008 529.83 467.885 541.016 460.338 551.983C450.365 566.473 441.018 581.528 433.382 597.393C426.875 610.913 422.02 625.186 416.964 639.293C411.55 654.4 406.017 669.496 400.956 684.726ZM604.714 301.86C596.059 311.264 583.591 323.611 569.892 324.174C565 324.375 560.276 322.742 556.687 319.384C552.503 315.47 550.284 309.89 548.375 304.61C542.112 315.529 537.191 329.747 532.202 341.488C527.9 351.611 521.595 361.947 519.498 372.801C518.519 377.87 519.096 382.958 520.441 387.899C528.955 419.159 553.904 445.05 579.294 463.869C582.333 466.122 591.774 471.808 590.118 476.112C587.533 477.109 584.556 475.964 582.176 474.821C579.748 473.656 577.09 471.188 575.12 469.337C570.458 483.686 559.527 504.801 558.136 518.782C557.783 522.332 558.131 525.914 559.855 529.091C562.405 533.791 567.001 536.38 572.025 537.744C590.652 542.8 612.735 534.22 628.75 524.956C631.476 523.215 634.424 521.562 636.985 519.598L637.174 519.044C639.489 512.436 642.893 506.025 645.734 499.612C649.401 491.332 652.665 482.83 655.996 474.409C666.15 448.731 675.068 422.407 685.825 396.991C686.754 394.795 688.651 389.313 690.811 388.376C697.546 385.454 715.628 398.33 732.051 389.974C736.937 387.489 740.67 383.298 742.923 378.33C745.697 372.213 746.262 364.317 743.891 357.965C741.586 351.789 736.253 347.284 730.305 344.738C721.78 341.089 713.794 341.898 704.93 343.538C703.513 343.801 701.119 344.486 699.714 344.131C698.334 343.782 697.17 342.126 696.36 341.072C695.485 337.607 699.121 329.353 700.266 325.771C697.397 324.335 694.569 322.948 691.565 321.815C677.76 331.65 660.928 352.777 642.33 350.04C635.781 349.076 630.543 345.143 626.764 339.855C619.381 329.524 618.341 316.815 616.982 304.593C612.899 303.66 608.82 302.689 604.714 301.86ZM669.024 161.192C656.971 162.287 645.741 165.6 634.196 169.03C627.286 171.083 620.286 173.437 613.093 174.232C608.805 174.706 604.469 174.636 600.249 173.681C589.959 171.351 576.841 162.649 568.293 173.365C561.327 182.097 558.644 197.116 560.112 207.989C561.803 220.504 568.117 231.359 578.16 239.034C608.262 262.036 704.308 250.223 710.044 289.775C711.193 297.697 710.328 306.158 709.387 314.061C708.31 321.402 707.41 328.902 705.362 336.049C713.79 335.174 721.774 335.02 729.98 337.438C736.16 328.423 755.573 301.232 753.744 291.052C753.478 289.571 752.909 288.717 751.685 287.847C748.643 285.685 743.56 286.974 741.993 283.027C742.544 277.774 747.61 273.957 750.35 269.706C762.128 251.427 768.024 227.761 753.104 209.321C747.489 202.381 740.412 197.195 731.281 196.312C728.93 196.085 726.601 196.006 724.24 196.097C725.144 202.235 727.236 212.554 724.067 218.221C722.964 219.013 722.879 219.039 721.521 219.053C720.052 218.247 719.382 217.279 718.918 215.686C717.846 212.011 718.933 207.9 718.645 204.127C717.51 189.266 709.018 175.201 696.217 167.488C688.214 162.666 678.361 160.098 669.024 161.192ZM694.15 394.31C690.727 401.151 688.328 408.625 685.619 415.785L670.348 456.373C666.133 467.431 661.604 478.377 657.217 489.369C654.748 495.556 652.014 501.806 650.106 508.187C663.406 511.744 676.841 516.447 689.881 520.911C698.648 523.912 713.738 531.171 722.394 531.169C730.863 531.166 739.889 528.372 748.248 526.902C759.552 524.913 770.89 523.487 782.277 522.099C798.685 520.768 815.055 519.611 831.528 519.499C826.557 508.037 819.699 497.002 812.774 486.619C789.201 451.274 763.416 425.994 733.583 396.362C719.534 400.712 707.756 400.187 694.15 394.31ZM511.894 383.47C497.88 390.54 483.99 398.407 471.484 407.942C466.072 412.068 461.171 416.884 455.718 420.921C459.223 442.313 462.355 463.758 464.32 485.353C477.309 492.417 489.972 500.379 502.309 508.526L509.901 504.812C524.076 500.853 540.996 502.373 555.671 502.506C559.593 489.903 564.997 477.609 569.378 465.13C554.616 452.59 540.202 439.472 529.785 422.921C525.966 416.853 522.412 410.572 519.557 403.992C518.196 400.855 513.193 384.657 511.894 383.47ZM587.438 252.02C583.63 258.616 579.866 265.056 577.175 272.211C584.132 274.633 590.946 277.551 597.832 280.174C601.51 281.574 606.094 282.747 609.469 284.674C611.711 285.954 612.499 288.72 615.037 289.591C621.084 291.668 627.562 292.992 633.731 294.716L669.486 304.736C676.426 306.611 683.777 308.175 690.478 310.761C692.486 311.536 694.357 312.272 695.753 313.978C695.898 314.156 696.278 314.74 696.398 314.938C696.553 315.195 696.699 315.457 696.85 315.716C698.632 316.655 700.44 317.105 702.376 317.612C703.32 307.002 706.714 289.936 698.995 281.22C682.889 263.034 613.427 264.526 587.438 252.02ZM492.065 811.986C485.478 816.177 473.839 826.035 468.379 831.749L468.947 831.952C476.768 834.698 504.008 840.455 507.542 846.562C507.839 847.075 507.714 847.036 507.471 847.685C504.533 855.511 476.377 881.405 468.902 885.668C466.72 885.033 464.538 884.345 462.328 883.817L467.399 896.151C469.833 894.453 472.316 892.796 474.695 891.024C485.587 882.398 545.488 836.006 548.055 827.936C547.517 826.643 546.655 826.325 545.417 825.774C540.111 823.411 533.783 822.238 528.131 820.887C516.191 818.032 503.773 815.656 492.065 811.986ZM712.003 536.33C703.503 558.168 703.98 589.257 706.69 612.322C709.899 629.955 714.306 646.899 723.658 662.407C725.707 665.805 728.242 669.824 731.527 672.123C732.182 672.581 732.85 672.881 733.587 673.18C734.151 671.61 734.491 670.335 734.155 668.66C733.031 663.052 730.079 657.205 728.157 651.755C725.847 645.208 724.056 638.451 722.315 631.735C715.048 603.711 712.132 566.669 717.778 538.201C715.801 537.679 713.916 537.053 712.003 536.33ZM546.801 508.668C544.038 517.836 541.406 526.689 546.309 535.771C550.436 543.416 558.93 547.74 567.025 549.95C591.543 556.644 619.383 547.541 640.605 535.248C647.568 531.215 654.152 526.683 660.295 521.487L661.917 519.768C661.649 518.57 661.53 518.379 660.382 517.71C658.387 516.549 654.647 516.18 652.342 515.667C633.323 532.73 606.044 547.335 579.914 545.776C571.691 545.285 562.496 542.656 556.961 536.177C552.351 530.779 551.045 523.427 551.695 516.522C551.942 513.903 552.447 511.267 552.904 508.678L546.801 508.668ZM449.051 426.804C440.078 434.696 425.663 447.036 419.066 456.349C425.548 460.664 432.2 464.698 438.904 468.657C444.876 472.443 450.885 476.175 456.648 480.276C456.155 471.233 452.581 433.876 449.595 427.015L449.051 426.804ZM434.851 797.155C436.882 806.428 440.696 815.66 443.705 824.679C450.203 826.489 456.703 828.272 463.122 830.351C466.42 826.371 470.794 823.171 474.756 819.871C478.634 816.809 482.478 813.687 486.438 810.731C469.313 806.104 451.846 802.174 434.851 797.155ZM450.45 846.26C453.336 857.035 457.225 867.805 460.956 878.323C463.252 879.233 465.564 880.114 467.837 881.082C472.139 877.591 476.165 873.894 480.189 870.092C483.731 867.107 487.051 863.869 490.273 860.541C483.471 857.762 476.414 855.599 469.495 853.127C463.167 850.867 456.875 848.199 450.45 846.26ZM308.383 712.422C296.008 722.629 220.552 785.606 217.994 790.964C218.115 792.265 218.189 792.577 219.281 793.462C219.648 793.76 220.31 794.122 220.736 794.367C226.848 789.009 233.306 784.055 239.466 778.748C253.292 766.835 266.901 754.682 280.831 742.886C289.713 735.364 299.623 728.271 307.922 720.151C309.507 718.6 310.687 717.428 311.284 715.254C311.109 714.194 311.069 713.606 310.032 712.996C309.65 712.771 308.824 712.552 308.383 712.422ZM471.21 837.453C467.672 839.994 464.342 842.647 461.063 845.514L493.319 856.564C496.53 853.768 499.877 851.044 502.868 848.013C492.372 844.185 481.822 840.91 471.21 837.453ZM253.406 727.941C246.577 733.797 215.414 760.45 212.374 766.033C212.855 767.699 214.046 768.471 215.324 769.526C221.53 763.9 254.02 736.09 256.497 731.596C256.404 730.329 256.363 730.061 255.349 729.156C254.813 728.678 254.032 728.301 253.406 727.941ZM300.189 752.847C290.522 761.703 269.476 778.873 262.758 788.655C263.913 789.555 265.108 790.748 266.558 791.09C272.954 785.921 301.904 761.254 303.929 754.953C303.425 753.877 302.858 753.523 301.702 753.166C301.105 752.981 300.775 752.944 300.189 752.847ZM366.505 437.437C357.058 445.575 351.536 455.816 350.516 468.371C349.97 475.089 350.691 483.38 355.47 488.559C355.636 488.738 355.811 488.91 355.981 489.085C356.66 488.669 357.422 488.496 357.616 487.663C358.652 483.233 353.903 470.87 355.84 462.794C357.556 455.636 368.411 442.056 367.99 439.042C367.548 438.54 367.04 437.829 366.505 437.437ZM359.161 428.779C348.545 438.632 341.137 455.312 340.69 469.804C340.606 472.549 340.828 476.537 342.851 478.631C343.058 478.845 343.278 479.046 343.492 479.253C345.674 477.551 345.822 475.878 346.156 473.231C347.149 465.357 347.255 457.216 350.107 449.681C351.894 444.961 362.432 433.372 360.461 429.291L359.161 428.779ZM877.034 511.149C876.052 512.753 875.665 513.225 876.033 515.182C878.567 528.645 882.856 531.91 874.747 545.335C872.442 549.151 870.024 552.898 867.718 556.712C868.521 557.712 869.125 558.587 870.341 559.112C878.492 549.926 885.13 540.872 884.4 528.032C884.162 523.843 882.771 515.215 879.548 512.39C878.769 511.707 878.035 511.359 877.034 511.149ZM491.35 353.594C482.386 355.754 457.162 362.447 452.566 370.083C452.301 370.524 452.293 370.76 452.213 371.216C453.248 371.762 454.177 371.534 455.29 371.153C456.112 370.873 456.913 370.404 457.674 369.991C465.797 366.197 474.213 362.204 482.886 359.851C486.474 358.877 490.452 358.955 493.932 357.718C495.359 357.211 497.203 356.333 497.807 354.872C497.037 353.874 496.26 353.548 494.984 353.406C493.824 353.277 492.502 353.42 491.35 353.594ZM893.231 518.71C891.356 523.373 893.155 533.144 891.914 539.231C891.094 543.25 885.534 551.866 886.915 555.276C887.209 556.002 887.842 556.071 888.504 556.383L889.359 555.718C895.06 547.976 899.337 534.752 898.039 525.1C897.777 523.153 897.21 520.618 895.433 519.517C894.738 519.087 894.014 518.897 893.231 518.71ZM654.642 310.372C647.484 314.505 632.37 319.653 627.844 326.087L627.884 326.798C630.531 327.652 633.511 325.837 635.877 324.753C645.242 320.876 654.413 316.433 663.429 311.809C660.548 311.107 657.633 310.211 654.642 310.372ZM474.533 348.999C467.019 352.435 446.752 360.442 442.878 366.687C442.946 367.67 442.741 367.55 443.569 368.267C444.393 368.98 444.023 368.754 444.896 369.111C449.647 366.254 454.386 363.326 459.306 360.768C464.084 358.284 473.07 355.489 476.731 352.146C476.775 351.182 477.017 351.035 476.31 350.287C475.72 349.663 475.282 349.38 474.533 348.999ZM793.97 404.122C793.52 405.356 792.854 406.565 793.273 407.88C797.258 411.795 802.208 414.506 806.431 418.139C809.375 420.673 813.965 427.782 817.638 428.48L818.408 428.313C818.841 427.649 819.704 426.769 819.547 425.962C818.323 419.672 801.134 408.185 795.63 405.047C795.079 404.733 794.525 404.427 793.97 404.122ZM444.945 829.693C446.176 833.684 447.503 837.631 448.873 841.576L455.805 843.382C457.436 841.953 459.052 840.561 460.795 839.266C462.51 837.912 464.199 836.481 466.044 835.309C458.994 833.515 451.91 831.799 444.945 829.693ZM785.315 411.601C784.977 412.954 784.535 413.639 785.076 414.973C789.969 418.667 794.857 422.373 799.327 426.579C802.184 429.267 805.032 433.122 808.125 435.376C808.728 435.815 809.189 435.943 809.895 436.059C810.752 434.704 811.112 434.453 810.728 432.808C809.347 426.894 793.287 414.89 787.84 412.493C787.015 412.129 786.178 411.858 785.315 411.601ZM580.955 282.493C575.729 284.762 561.847 289.412 559.681 294.939C559.345 295.795 559.503 295.883 559.712 296.718C560.884 297.228 561.496 297.338 562.747 296.933C563.329 296.744 563.912 296.39 564.444 296.104C572.202 292.175 579.999 288.313 587.528 283.955C585.553 283.495 582.925 282.536 580.955 282.493ZM593.538 287.921C588.934 290.226 573.559 296.835 572.002 301.813C571.938 302.019 571.917 302.236 571.875 302.448L572.269 303.006C573.195 302.852 573.925 302.721 574.761 302.284C581.384 298.971 591.329 295.41 596.45 290.2L596.607 289.353C595.6 288.365 595.039 287.907 593.538 287.921ZM668.552 317.883C662.631 320.997 655.023 324.031 650.247 328.781L650.044 329.756C651.382 330.552 652.474 329.923 653.952 329.605C660.634 326.795 667.381 324.053 673.718 320.508C672.158 319.535 670.4 318.126 668.552 317.883ZM639.501 305.45C635.831 307.247 629.277 309.558 627.668 313.65C627.469 314.155 627.5 314.498 627.492 315.003C628.304 315.755 628.671 316.046 629.894 315.813C631.299 315.545 633.057 314.333 634.314 313.649C638.915 311.233 643.63 309.182 648.4 307.13C645.433 306.379 642.572 305.611 639.501 305.45ZM563.793 277.599C559.757 279.813 552.498 282.975 551.114 287.638L551.237 288.448L552.044 288.767L551.189 288.246L553.118 288.625L552.915 288.742C553.838 288.377 554.833 288.058 555.721 287.622C560.802 284.859 565.857 282.021 571.025 279.424C568.621 278.828 566.165 278.308 563.793 277.599ZM545.966 271.742C546.849 274.09 547.643 276.537 548.72 278.801C550.381 277.993 552.166 277.258 553.729 276.279L555.747 274.816C555.631 273.989 555.82 274.031 555.208 273.595C553.103 272.097 548.538 272.072 545.966 271.742Z"/>
	<path fill="#232021" d="M708.026 368.471C713.417 368.434 720.299 368.689 724.733 372.143C726.845 373.788 727.342 375.424 727.623 378.008C723.838 377.892 722.501 374.622 719.294 373.421C716.461 372.36 712.697 373.161 710.011 371.897C708.781 371.318 708.495 369.646 708.026 368.471Z"/>
	<path fill="#232021" d="M710.36 355.687C712.153 355.637 713.958 355.577 715.75 355.648C721.376 355.872 728.884 357.722 732.7 362.049C733.752 363.242 734.146 364.172 734.006 365.742L732.989 366.259C731.335 365.972 730.529 365.196 729.275 364.11L728.775 363.669C717.726 357.687 706.267 362.061 702.258 359.612L702.266 358.659C704.558 356.399 707.323 356.15 710.36 355.687Z"/>
	<path fill="#232021" d="M601.767 325.32C602.414 325.562 603.297 325.816 603.851 326.219C604.825 326.928 605.432 327.697 605.448 328.947C605.511 333.855 595 341.152 591.477 344.122C593.829 346.868 597.582 349.21 598.161 352.974C597.495 354.434 597.069 354.586 595.768 355.456C595.077 355.099 594.466 354.775 593.835 354.315C590.675 352.009 585.361 347.933 585.054 343.714C584.662 338.318 593.031 334.111 596.534 331.03C598.464 329.333 600.116 327.283 601.767 325.32Z"/>
	<path fill="#232021" d="M624.552 373.915C624.823 374.045 625.102 374.16 625.367 374.304C626.61 374.98 626.659 375.077 627.033 376.378C626.82 377.184 626.631 377.886 626.142 378.575C621.727 384.792 610.236 388.257 603.025 389.178C589.585 390.894 577.866 387.693 567.261 379.395C567.112 379.215 566.95 379.044 566.815 378.853C565.963 377.657 565.687 377.048 565.895 375.626C566.968 374.715 567.41 374.475 568.847 375.121C570.891 376.039 572.773 377.774 574.555 379.139C580.265 383.513 586.002 385.319 593.164 385.709C605.861 386.4 615.201 382.218 624.552 373.915Z"/>
	<path fill="#232021" d="M336.881 289.716C337.171 289.845 337.567 289.999 337.8 290.214C338.269 290.648 338.638 291.152 338.505 291.795C337.522 296.579 321.571 308.791 317.253 312.357C316.648 312.462 316.054 312.256 315.456 312.138L315.287 311.338C317.155 305.242 331.645 294.239 336.881 289.716Z"/>
	<path fill="#232021" d="M309.341 294.753C310.267 295.321 310.647 295.64 311.142 296.613C310.764 301.662 304.542 306.431 301.063 309.824C303.677 311.569 308.123 313.823 309.218 316.865L308.542 317.262C304.805 316.7 301.981 314.689 298.874 312.685C294.979 317.592 290.309 326.308 284.781 329.142C284.461 328.503 284.349 327.957 284.196 327.265C285.81 321.1 291.537 315.699 295.674 311.021C291.1 308.21 287.503 305.812 284.082 301.621C289.385 303.15 293.408 305.461 298.082 308.361C302.063 304.077 305.642 299.292 309.341 294.753Z"/>
	<path fill="#232021" d="M239.209 451.569C240.134 451.453 240.919 451.552 241.839 451.678L242.605 452.736L242.448 453.706C235.27 457.485 226.107 459.198 218.259 461.219C208.356 463.77 198.446 466.307 188.503 468.698C186.911 468.872 185.985 468.871 184.609 467.991L184.61 466.984C187.485 463.712 232.561 453.292 239.209 451.569Z"/>
	<path fill="#232021" d="M259.359 428.682L260.803 429.329L261.165 430.293C258.566 434.023 190.446 449.356 182.109 451.392C180.859 451.258 181.021 451.143 180.19 450.307L180.236 449.542C186.166 444.847 246.796 431.912 259.359 428.682Z"/>
	<path fill="#232021" d="M278.163 459.581C279.395 459.467 280.102 459.55 281.271 459.959L281.331 460.717C280.066 462.333 278.016 463.137 276.128 463.797C269.04 466.272 261.091 467.459 253.806 469.426L193.116 485.538C192.69 485.607 192.192 485.716 191.761 485.639C190.638 485.437 190.102 485.147 189.529 484.215C190.126 483.273 190.444 483.103 191.529 482.687C193.803 481.815 196.318 481.458 198.663 480.789C206.144 478.655 213.581 476.523 221.108 474.521C240.106 469.467 259.082 464.313 278.163 459.581Z"/>
	<path fill="#232021" d="M325.762 392.616C326.335 392.546 326.632 392.492 327.245 392.507C328.468 392.537 329.167 392.779 330.03 393.608C328.796 395.543 326.266 395.964 324.138 396.527C310.481 400.138 296.345 402.323 282.562 405.462C248.122 413.305 213.763 421.404 179.612 430.424L177.485 430.893C176.351 430.573 175.951 430.213 175.167 429.345C176.324 428.11 178.357 427.223 179.973 426.656C183.989 425.247 188.471 424.528 192.61 423.528C199.622 421.832 206.599 419.986 213.587 418.196C250.747 408.677 288.265 400.675 325.762 392.616Z"/>
	<path fill="#232021" d="M382.078 362.659C383.073 362.857 383.632 363.115 384.467 363.689L384.095 364.545C377.247 368.486 346.41 373.604 336.329 375.723L293.851 384.962C253.657 394.006 213.643 403.714 173.614 413.451C172.69 413.486 172.509 413.409 171.703 413.039L171.43 412.103C181 404.262 354.296 368.402 382.078 362.659Z"/>
	<path fill="#232021" d="M395.627 212.195C396.713 212.126 397.721 212.191 398.645 212.858C400.546 214.23 401.469 217.657 402.02 219.792C403.177 224.278 406.71 239.489 403.827 243.117C400.396 247.437 378.421 248.444 372.628 249.21C316.69 256.606 261.787 268.917 206.213 278.335C187.023 281.587 167.709 284.398 148.355 286.483C140.628 287.315 132.843 288.353 125.073 288.62L122.823 288.293C120.043 286.356 119.174 282.541 118.458 279.387C117.678 275.957 114.283 260.716 116.378 258.265C117.18 257.327 118.347 256.993 119.496 256.669C130.583 253.546 142.457 251.794 153.817 249.821L201.797 241.663C251.163 233.459 300.65 225.16 350.155 217.89C365.268 215.67 380.452 213.934 395.627 212.195ZM313.136 238.146C289.822 240.97 266.547 245.411 243.381 249.252C231.208 251.27 218.141 252.214 206.257 255.497C204.805 255.898 202.653 256.57 201.674 257.819C200.959 258.729 200.809 259.824 201.259 260.896C201.775 262.129 202.754 262.492 203.964 262.804C204.177 262.859 204.4 262.862 204.619 262.89C214.85 261.612 225.022 259.691 235.194 258.007L279.956 250.548C289.935 248.794 300.195 247.972 310.071 245.746C312.075 245.294 314.41 245.011 315.812 243.359C316.665 242.353 316.746 241.68 316.575 240.436C315.493 239.19 314.785 238.602 313.136 238.146Z"/>
</svg>
