<?xml version="1.0" encoding="utf-8" ?>
<svg xmlns="http://www.w3.org/2000/svg" xmlns:xlink="http://www.w3.org/1999/xlink" width="1024" height="1024">
	<path d="M0 0L495.63 0L531.789 0L1024 0L1024 498.731L1024 527.754L1024 1024L521.954 1024L495.205 1024L0 1024L0 532.408L0 490.684L0 0Z"/>
	<path fill="white" d="M641.984 291.528C646.048 291.373 649.418 292.002 652.538 294.809C656.607 298.471 657.704 304.59 657.911 309.826C658.498 324.692 652.286 341.166 642.229 352.051C638.978 355.076 636.283 356.613 631.966 357.649C632.219 348.386 632.232 339.153 632.155 329.888C632.087 321.753 630.763 309.838 632.931 302.169C634.29 297.363 637.733 293.916 641.984 291.528Z"/>
	<path fill="white" d="M380.372 287.901C380.76 288.111 380.862 288.14 381.225 288.491C385.169 292.297 388.141 300.982 389.127 306.307C390.4 313.179 389.73 321.15 389.844 328.196C390.004 338.095 390.636 348.159 390.242 358.044C384.385 356.757 380.981 355.367 376.746 351.033C368.232 340.276 364.834 325.102 359.648 312.54C359.947 311.268 360.285 310.026 360.736 308.797C364.175 299.406 371.452 292.125 380.372 287.901Z"/>
	<path fill="white" d="M501.286 587.877C502.476 594.656 501.568 610.769 501.57 618.408L501.49 691.712C495.589 684.275 489.12 677.458 483.541 669.729C475.289 658.4 467.774 647.106 460.797 634.953L487.174 604.005C491.816 598.593 496.274 592.953 501.286 587.877Z"/>
	<path fill="white" d="M543.529 291.575C551.961 290.948 560.611 291.252 569.065 291.225C575.294 291.205 582.587 290.487 588.699 291.725C591.887 292.372 595.345 293.771 597.146 296.633C600.519 301.994 599.813 315.754 598.272 321.866C596.853 327.496 593.451 330.75 588.641 333.598C582.134 336.119 553.266 336.222 546.547 333.997C542.036 332.503 538.47 328.786 536.552 324.502C533.826 318.412 533.415 304.405 536.114 298.216C537.665 294.66 539.986 292.932 543.529 291.575Z"/>
	<path d="M563.562 296.508C565.508 296.357 567.404 296.301 569.24 297.077C572.034 298.257 574.292 300.532 575.368 303.374C576.294 305.822 576.238 308.597 575.088 310.964C573.611 314.003 571.141 315.422 568.075 316.519C566.559 316.581 564.83 316.614 563.365 316.183C560.556 315.357 557.915 313.291 556.611 310.654C555.463 308.333 555.323 305.682 556.232 303.257C557.56 299.709 560.286 298.046 563.562 296.508Z"/>
	<path fill="white" d="M434.156 291.193C441.578 290.869 474.638 290.21 480.173 291.966C483.049 292.878 485.087 295.104 486.28 297.816C488.827 303.608 487.998 318.952 485.702 324.928C483.813 329.847 479.556 332.15 475.022 334.221C474.863 334.261 474.703 334.304 474.543 334.342C468.196 335.865 444.938 335.904 437.842 335.012C434.981 334.653 432.155 333.86 429.714 332.286C425.937 329.849 423.798 326.022 422.981 321.665C422.032 316.599 421.556 299.704 424.418 295.783C426.807 292.508 430.339 291.701 434.156 291.193Z"/>
	<path d="M455.054 296.539C456.867 296.432 458.893 296.311 460.666 296.74C463.425 297.406 466.046 299.481 467.357 301.987C468.574 304.313 468.774 306.996 467.887 309.47C466.637 312.957 464.163 314.753 460.91 316.229C458.85 316.543 456.756 316.554 454.757 315.884C452.029 314.969 449.684 312.93 448.475 310.308C447.326 307.815 447.213 304.954 448.282 302.415C449.612 299.258 451.995 297.765 455.054 296.539Z"/>
	<path fill="white" d="M511.609 580.273C515.772 583.28 558.582 630.774 561.352 635.58C553.315 648.853 545.109 661.906 535.752 674.298C528.16 683.87 520.67 692.852 511.632 701.123C510.991 685.591 511.411 669.893 511.422 654.342L511.609 580.273Z"/>
	<path fill="white" d="M441.206 492.846C441.987 495.796 441.463 500.053 441.479 503.153C441.545 515.702 444.179 526.249 450.786 537.051C461.859 555.154 480.216 569.035 500.831 574.001C496.689 577.705 493.19 582.213 489.576 586.427L472.351 606.531C466.959 612.896 461.556 619.242 456.012 625.475C448.019 611.277 441.963 594.535 437.763 578.803C430.789 552.683 427.343 516.887 441.206 492.846Z"/>
	<path fill="white" d="M580.053 490.875C584.108 494.497 586.602 504.276 587.934 509.357C597.142 544.482 584.2 594.675 566.03 625.703C560.279 619.64 554.736 613.349 549.106 607.172C539.251 596.165 529.641 584.836 519.244 574.341C533.97 571.004 546.158 564.166 557 553.62C569.434 541.527 578.993 526.631 580.196 508.957C580.605 502.951 579.95 496.896 580.053 490.875Z"/>
	<path fill="white" d="M450.589 458.817C462.093 466.081 473.737 471.491 487.091 474.469C516.487 481.023 545.979 475.697 571.36 459.497C570.503 470.74 570.907 482.114 571.003 493.379C571.157 511.404 570.49 520.629 560.091 535.984C557.549 539.63 554.501 543.057 551.37 546.204C541.108 556.519 525.743 566.092 510.712 566.053C495.566 566.014 480.077 556.22 469.711 545.858C460.405 536.554 452.417 524.078 450.91 510.764C450.19 504.405 450.543 497.803 450.562 491.412L450.589 458.817Z"/>
	<path fill="white" d="M558.646 201.523C569.832 201.107 582.961 210.429 591.122 217.396C595.127 220.815 599.323 225.004 601.486 229.89C605.262 238.415 605.623 249.947 608.159 259.195C612.318 274.36 617.697 277.65 619.028 295.339C615.487 296.537 611.811 297.454 608.211 298.472C605.969 292.784 602.522 286.514 596.592 284.067C594.008 283.001 591.041 282.513 588.259 282.271C581.541 281.685 574.586 282.099 567.833 282.057C560.133 282.01 551.99 281.441 544.341 282.252C541.559 282.547 538.593 283.12 536.056 284.318C530.858 286.774 527.925 291.839 526.148 297.068C516.122 296.81 506.155 296.867 496.133 297.281C494.613 293.659 493.192 290.267 490.377 287.416C484.165 281.123 475.328 281.939 467.25 282.068C456.964 282.27 438.647 280.745 429.603 282.141C426.697 282.59 423.924 283.563 421.459 285.182C415.903 288.833 414.047 294.045 412.731 300.225C409.326 298.053 405.836 295.964 402.779 293.311C405.741 284.91 412.014 277.392 414.281 268.926C415.183 265.56 414.991 262.135 414.918 258.694C414.713 249.088 414.099 238.808 418.744 230.046C422.438 223.08 428.889 217.07 435.056 212.312C440.363 208.219 448.095 202.71 454.997 202.21C460.642 201.8 471.569 206.722 477.791 208.251C486.948 210.5 496.116 212.153 505.567 212.429C523.794 212.96 541.458 206.846 558.646 201.523Z"/>
	<path d="M458.363 253.676C465.075 252.454 476.336 252.981 482.019 257.121C484.095 258.634 486.084 260.945 486.384 263.593C486.57 265.228 485.988 266.517 484.891 267.693C480.411 272.494 462.618 270.513 455.96 270.482C450.855 270.424 433.781 272.328 430.651 270.807C429.274 270.139 428.599 269.203 428.139 267.754C428.21 266.794 428.302 266.249 428.837 265.416C432.311 260.009 451.634 254.585 458.363 253.676Z"/>
	<path d="M553.621 253.68C554.582 253.57 555.54 253.496 556.507 253.453C567.784 252.945 587.829 256.354 596.162 264.507C597.324 265.644 597.628 266.394 597.611 267.997C597.209 268.545 597.163 268.669 596.574 269.143C593.622 271.518 585.716 270.323 582.027 270.141C574.349 270.147 566.689 270.328 559.015 270.575C554.871 270.709 550.455 271.23 546.34 270.836C544.324 270.644 542.246 270.104 540.458 269.141C538.921 268.312 537.315 266.995 536.971 265.185C536.57 263.071 537.704 260.865 538.966 259.25C542.386 254.868 548.516 254.365 553.621 253.68Z"/>
	<path fill="white" d="M498.723 102.206C506.861 101.06 516.26 101.959 524.383 102.998C560.809 107.654 594.23 126.077 616.716 155.266C639.178 184.423 647.452 219.445 643.363 255.662C642.326 264.843 639.895 273.833 638.722 283.018C634.186 284.065 631.723 286.331 628.604 289.587C626.763 276.146 620.346 266.555 616.711 253.881C613.99 244.393 613.992 233.121 609.595 224.323C606.691 218.512 601.658 213.453 596.719 209.34C591.298 204.826 585.306 200.887 579.042 197.645C574.06 195.067 568.654 192.765 562.984 192.424C553.846 191.874 543.917 196.274 535.21 198.722C528.637 200.569 521.929 202.101 515.12 202.708C504.082 204.306 492.027 202.074 481.353 199.285C470.247 196.382 459.579 190.298 447.967 194.209C428.706 200.697 407.679 220.299 405.718 241.362C404.979 249.29 406.858 258.198 404.96 265.896C403.49 271.857 396.051 283.593 392.927 289.984C390.598 285.984 388.051 279.749 383.36 278.082C380.855 277.193 379.241 277.919 376.883 278.927C374.316 267.533 372.386 255.871 371.462 244.224C368.717 209.627 379.94 175.25 402.583 148.869C426.846 120.6 461.941 104.946 498.723 102.206Z"/>
	<path fill="white" d="M399.094 303.277C404.074 305.509 408.737 308.777 412.993 312.161C413.077 321.239 413.667 330.008 420.556 336.839C427.201 343.427 435.88 344.326 444.702 344.397C458.77 344.509 478.347 347.183 489.143 336.132C497.073 328.015 496.545 317.946 496.495 307.52L525.851 307.509L525.662 312.073C525.337 321.007 526.389 329.144 532.957 335.939C538.906 342.094 547.159 344.306 555.457 344.454C560.771 344.548 566.093 344.523 571.408 344.517C582.643 344.505 592.714 344.172 601.14 335.655C609.103 327.606 608.657 318.137 608.42 307.757C613.198 306.662 617.866 305.386 622.562 303.993L622.6 336.614C622.606 353.227 622.992 369.333 618.208 385.433C611.463 403.921 601.667 419.959 587.769 433.957C567.561 454.311 541.049 468.058 511.929 468.073C481.885 468.089 455.4 454.483 434.594 433.463C417.389 416.082 403.845 393.161 400.614 368.622C399.41 359.476 399.599 349.9 399.44 340.685C399.225 328.217 399.023 315.748 399.094 303.277Z"/>
	<path d="M496.847 349.416C498.338 349.419 500.03 349.525 501.265 350.478C505.004 353.364 502.811 361.995 503.954 366.337C504.599 368.785 505.996 370.307 508.195 371.507C510.094 372.544 512.378 373 514.468 372.273C523.568 369.111 518.843 358.726 521.979 352.232C522.703 350.733 523.558 349.878 525.161 349.332C525.924 349.53 526.484 349.542 527.075 350.109C530.234 353.14 529.926 357.633 529.85 361.625C529.756 366.734 528.967 371.209 525.554 375.227C522.441 378.891 517.932 381.086 513.142 381.366C508.397 381.643 503.612 380.044 500.061 376.867C496.3 373.501 494.373 368.761 494.118 363.774C493.87 358.915 493.358 353.213 496.847 349.416Z"/>
	<path d="M553.906 395.433C554.653 395.412 555.534 395.344 556.266 395.494C557.536 395.755 559.033 396.748 559.668 397.933C560.242 399.003 560.343 399.862 559.888 401.007C557.87 406.083 544.238 410.945 539.433 412.612C516.331 420.626 491.866 417.395 470.174 406.999C469.197 406.515 468.083 406.012 467.252 405.302C466.034 404.26 465.073 402.048 465.172 400.436C465.242 399.286 465.92 398.428 466.894 397.862C471.101 395.419 477.317 399.895 481.061 401.6C483.875 402.882 486.769 403.955 489.729 404.847C513.958 412.147 532.41 406.874 553.906 395.433Z"/>
	<path fill="white" d="M834.462 819.066C836 821.381 836.437 826.751 836.975 829.485C842.633 858.237 833.528 873.043 828.788 899.964C817.757 910.658 804.554 919.979 791.852 928.586C683.169 1002.23 546.12 1030.31 417.136 1005.3C346.455 991.593 278.961 962.915 220.458 920.813C214.598 916.595 199.986 907.503 196.546 901.923C193.764 897.41 192.979 890.429 191.722 885.233C185.346 858.881 182.921 846.452 189.339 819.149C195.997 823.524 202.624 827.934 209.512 831.943C246.58 853.348 289.598 858.321 331.447 861.489C331.562 873.086 333.137 884.743 333.56 896.355C326.655 896.371 320.046 896.985 313.284 898.426C307.655 899.626 288.547 904.396 285.887 909.688C285.36 910.737 285.434 911.739 285.934 912.767C286.328 913.575 287.619 915.212 288.474 915.439C290.911 916.085 314.47 907.474 319.801 906.385C324.132 905.5 329.273 905.436 333.676 905.735C340.4 906.192 347.099 907.854 353.689 909.212L381.185 914.886L477.089 934.395C484.709 935.913 504.76 941.128 511.027 940.944C515.984 940.798 521.409 939.219 526.296 938.248L555.921 932.339L656.981 912.419C671.148 909.528 688.159 904.257 702.511 905.349C709.977 905.917 717.453 908.264 724.317 911.172C726.778 912.215 729.416 913.883 732.006 914.496C733.459 914.841 735.224 914.726 736.404 913.723C737.336 912.93 737.826 911.568 737.814 910.365C737.801 909.035 736.986 907.909 736.046 907.046C733.803 904.988 730.33 903.791 727.531 902.675C714.947 897.656 703.838 895.822 690.289 896.486C690.607 884.602 691.603 872.693 692.606 860.849C744.033 861.07 792.111 848.678 834.462 819.066Z"/>
	<path fill="white" d="M0 532.408L0.0769029 532.903C1.7207 544.078 1.56815 555.72 2.59066 566.996C4.153 584.225 7.15767 602.15 10.7399 619.076C36.2821 739.764 105.904 846.773 204.35 920.724C271.126 970.885 349.005 1004.75 431.639 1017.81C444.269 1019.81 457.078 1021.23 469.83 1022.18C478.243 1022.8 486.847 1022.93 495.205 1024L0 1024L0 532.408Z"/>
	<path fill="white" d="M0 0L495.63 0L495.129 0.0650161C484.242 1.40455 473.034 1.43853 462.075 2.41277C443.928 4.02596 425.405 6.8587 407.557 10.5269C292.079 34.2601 184.318 100.172 111.337 192.816C58.7969 259.512 23.0263 338.55 7.94605 422.158C5.51797 435.62 3.53671 449.257 2.35041 462.888C1.65198 470.913 1.55477 483.609 0 490.684L0 0Z"/>
	<path fill="white" d="M531.789 0L1024 0L1024 498.731C1022.63 491.788 1023.01 482.661 1022.51 475.372C1021.6 461.936 1020.07 448.471 1018.01 435.166C1005.28 353.366 973.182 274.476 923.845 207.838C848.751 106.412 738.228 36.7832 615.011 10.537C597.473 6.80129 579.326 4.06074 561.461 2.38947C551.822 1.48768 541.806 1.56046 532.264 0.0780411L531.789 0Z"/>
	<path fill="white" d="M521.954 1024C528.595 1022.63 541.274 1022.98 548.834 1022.51C563.094 1021.62 577.476 1019.88 591.589 1017.7C674.698 1004.85 755.802 970.235 822.101 918.374C891.502 864.086 943.812 800.018 979.746 719.249C993.923 687.382 1004.97 654.442 1012.13 620.29C1016.29 600.457 1019.53 580.107 1021.54 559.946C1022.6 549.254 1022.7 538.395 1024 527.754L1024 1024L521.954 1024Z"/>
	<path fill="white" d="M428.65 494.565L428.916 494.642C429.407 495.67 428.873 496.301 428.512 497.356C420.495 520.733 421.415 545.676 426.124 569.67C435.16 615.71 460.258 658.695 490.609 693.907C495.043 699.052 502.42 708.664 508.025 712.131C509.241 712.884 510.27 713.048 511.641 712.615C516.26 711.159 520.687 705.845 524.026 702.416C546.484 679.35 564.793 651.446 578.572 622.423C597.031 583.543 608.103 536.338 593.198 494.599C647.013 508.776 700.836 528.575 743.151 565.941C757.035 578.201 769.327 592.312 779.189 608.009C813.2 662.141 829.44 746.021 833.342 809.213C824.765 814.399 816.801 820.345 807.978 825.207C769.977 846.151 735.889 850.074 693.353 851.481C694.155 812.44 697.571 773.319 699.771 734.325C700.513 721.173 702.11 707.68 702.025 694.536C702.011 692.34 701.888 689.633 700.85 687.653C700.163 686.344 699.67 686.026 698.312 685.536C696.985 685.776 695.896 686.454 694.93 687.39C694.066 688.227 693.654 689.091 693.459 690.279C691.807 700.361 691.823 716.23 691.251 726.786L687.388 789.622C686.025 802.149 685.73 814.974 685.009 827.56L680.961 898.171L556.869 922.756L529.972 928.113C523.77 929.368 517.073 931.259 510.734 931.234C501.716 931.198 483.354 925.987 473.485 924.074C429.871 915.622 386.464 906.105 342.938 897.218C340.893 878.036 340.625 858.301 339.578 839.023L333.815 736.777L332.066 706.823C331.859 702.748 332.097 698.555 331.668 694.506C331.473 692.666 331.133 690.554 329.894 689.092C329.043 688.087 327.813 687.581 326.505 687.64C325.186 687.699 324.036 688.304 323.188 689.308C321.955 690.769 321.92 692.534 321.904 694.35C321.868 698.584 322.478 702.982 322.772 707.211L324.185 730.34L328.548 807.37C329.35 822.175 330.387 837.061 330.523 851.887C280.522 848.682 229.873 840.742 190.364 807.238C190.807 793.195 193.343 778.615 195.583 764.746C203.446 716.059 215.445 659.926 239.297 616.556C266.671 566.782 312.532 538.651 363.614 517.43C384.831 508.616 406.589 500.989 428.65 494.565Z"/>
	<path d="M510.713 890.322C510.835 890.342 510.959 890.355 511.081 890.38C512.885 890.747 514.743 891.368 515.732 893.067C516.529 894.437 516.724 895.719 516.177 897.235C515.513 899.071 514.178 899.805 512.507 900.617C510.375 900.36 508.529 900.006 507.261 898.044C506.534 896.92 506.47 895.813 506.73 894.533C507.183 892.303 508.894 891.34 510.713 890.322Z"/>
	<path d="M509.301 794.488C509.457 794.48 509.613 794.468 509.77 794.464C512.088 794.406 513.84 794.523 515.522 796.319C516.436 797.295 516.896 798.465 516.69 799.818C516.389 801.798 515.198 802.821 513.678 803.894C511.633 804.003 509.597 804.195 507.989 802.649C506.939 801.639 506.548 800.821 506.537 799.358C506.522 797.308 507.921 795.805 509.301 794.488Z"/>
	<path fill="white" d="M499.078 9.71774C514.854 9.17634 530.748 9.59946 546.497 10.6396C676.988 19.2587 803.361 82.6746 889.423 180.828C979.25 283.275 1021.52 412.694 1012.62 548.364C1006.65 639.289 975.131 726.744 922.521 801.04C916.664 809.312 910.819 817.698 904.433 825.569C884.898 849.645 862.757 871.387 839.483 891.793C843.672 872.756 849.145 860.828 847.448 840.202C846.658 830.595 843.426 821.495 842.513 811.981C837.843 763.313 831.568 715.713 816.514 668.976C809.851 648.288 802.059 628.389 791.041 609.579C763.19 562.031 717.313 530.179 667.213 509.397C651.102 502.715 634.542 496.601 617.795 491.703C609.129 489.169 595.357 486.756 587.684 483.43C585.207 482.357 582.617 479.589 580.553 477.825C580.425 469.635 580.488 461.441 580.501 453.25C608.131 429.628 625.366 404.235 631.539 367.786C634.217 367.064 637.111 366.22 639.638 365.084C651.415 359.791 658.857 347.114 663.048 335.447C667.457 323.176 669.835 307.074 663.832 294.906C660.502 288.155 655.576 284.287 648.567 281.961C649.514 273.458 651.656 265.135 652.796 256.654C657.697 220.206 648.418 181.169 626.01 151.742C600.241 117.901 564.802 98.7406 522.952 93.1628C507.754 92.0256 493.258 92.123 478.195 95.0214C440.787 102.22 406.09 124.832 384.848 156.584C356.449 199.035 358.812 236.088 368.018 283.322C366.825 284.085 365.665 284.891 364.561 285.779C357.743 291.264 351.935 300.843 351.145 309.642C350.212 320.035 362.514 348.035 369.169 356.219C375.218 363.658 381.853 366.235 391.162 367.219C396.433 404.037 413.541 428.262 441.374 451.96L441.412 480.017C432.865 483.59 423.818 486.222 415.008 489.065C404.156 492.567 393.352 496.188 382.618 500.038C327.298 519.878 269.039 550.05 237.248 601.662C205.42 653.334 189.867 729.248 182.518 789.243C181.511 797.463 181.189 805.732 180.31 813.956C178.921 826.932 175.811 838.88 176.235 852.123C176.661 865.451 180.372 878.604 183.427 891.528C178.345 886.646 172.796 882.181 167.581 877.431C94.624 810.98 42.279 718.387 21.1192 622.156C14.6943 592.936 11.4214 563.625 10.0743 533.769C5.7554 438.046 30.2769 339.885 78.9266 257.297C97.7101 225.411 120.17 195.895 145.117 168.604C155.682 157.045 167.153 146.382 178.885 136.024C244.274 78.2917 324.519 37.5926 410.052 19.8882C439.702 13.7507 468.902 11.0777 499.078 9.71774Z"/>
</svg>
