<?xml version="1.0" encoding="utf-8" ?>
<svg xmlns="http://www.w3.org/2000/svg" xmlns:xlink="http://www.w3.org/1999/xlink" width="1049" height="1049">
	<path fill="white" transform="scale(1.02441 1.02441)" d="M0 0L0 1024L1024 1024L1024 0L0 0Z"/>
	<path transform="scale(1.02441 1.02441)" d="M286.214 317.202C282.913 286.977 276.718 257.654 275.216 227.053C272.67 175.178 290.366 128.771 325.081 90.5337C361.766 50.1254 410.547 28.3408 464.746 25.7135C498.019 24.2615 534.121 34.4876 566.3 42.1207C593.849 48.6556 621.376 55.2806 649.018 61.4104C663.795 64.6872 679.572 69.5264 694.719 70.2688C703.337 70.6913 712.17 69.006 720.186 65.8694C728.855 62.4776 737.357 56.7419 742.403 48.7613C746.563 42.1833 747.683 33.8923 755.322 30.0739C759.573 27.9494 765.042 28.0266 769.432 29.6983C774.906 31.7827 778.326 36.0713 780.594 41.3212C791.594 66.7878 797.756 101.793 787.276 128.085C777.053 153.732 754.798 171.239 730.096 181.938C733.794 190.169 736.366 198.762 736.909 207.814C737.649 220.161 735.161 233.135 733.871 245.434L725.957 317.735C736.207 319.248 745.228 322.654 753.446 329.066C766.635 339.356 774.83 353.823 776.807 370.426C778.697 386.305 774.106 403.05 764.118 415.589C753.21 429.283 737.468 436.729 720.293 438.582C717.951 450.875 715.083 462.884 710.739 474.641C706.559 485.956 701.652 497.242 695.559 507.669C678.454 536.94 647.71 570.899 616.461 585.258L616.179 624.727C635.529 628.254 655.059 633.475 674.111 638.382C702.025 645.57 729.402 653.37 756.532 663.163C767.349 667.067 778.483 671.053 788.83 676.088L422.081 676.312L362.481 676.371C353.17 676.362 324.134 674.981 316.92 677.362C312.119 678.946 309.439 682.259 307.265 686.649C326.093 687.866 345.479 687.115 364.38 687.14L473.487 687.071L822.006 686.335L806.378 769.924L764.7 996.851C740.451 996.318 716.113 996.755 691.855 996.737L552.245 996.867L329.667 996.728L205.301 996.922L162.199 997.087C153.779 997.116 145.195 997.468 136.791 996.891C129.72 996.405 122.724 994.316 116.569 990.796C106.043 984.776 98.6365 974.092 95.6151 962.442C94.1567 956.818 94.0581 951.346 94.7508 945.595C95.571 938.786 97.4384 932.008 99.024 925.339L105.434 897.784L115.432 853.925C118.896 838.609 122.24 823.223 127.33 808.345C132.873 792.142 140.031 776.357 148.774 761.624C175.122 717.223 215.864 679.116 264.773 661.061C282.691 654.447 301.477 650.785 319.945 646.062L401.11 625.134L401.071 587.59C395.187 583.713 388.851 580.583 383.032 576.58C337.267 545.092 303.016 491.782 293.138 437.199C284.192 436.306 275.398 433.746 267.572 429.269C253.654 421.307 243.496 407.817 239.441 392.342C235.332 376.664 237.609 359.612 245.934 345.676C255.393 329.84 268.591 321.56 286.214 317.202ZM644.232 225.509C577.66 246.063 505.838 251.257 436.834 241.686C413.386 238.433 390.685 233.376 367.82 227.398C359.67 247.324 351.087 266.903 341.143 286.015C336.329 295.267 331.113 304.333 326.073 313.463C323.396 318.311 320.015 323.435 318.38 328.738C316.659 334.319 317.786 342.158 317.913 347.987C328.96 347.929 340.016 347.781 351.063 347.903C353.345 334.44 359.356 322.965 370.613 314.873C377.403 309.993 385.247 307.344 393.461 306.089C403.333 305.276 413.383 305.852 423.287 305.847C444.335 305.834 465.417 303.081 482.808 317.66C490.986 324.516 495.612 332.821 498.926 342.831C506.033 342.701 513.082 342.658 520.186 342.931C525.566 328.475 532.763 317.312 547.303 310.677C552.328 308.384 557.613 306.975 563.092 306.326C572.582 305.2 582.748 305.947 592.333 305.936C603.356 305.923 614.769 305.216 625.727 306.266C630.115 306.686 634.441 307.661 638.563 309.223C649.987 313.553 659.846 322.775 664.746 333.99C666.877 338.865 667.745 343.828 668.665 349.025L696.86 349.022C697.837 343.871 698.36 338.533 698.764 333.306C678.448 304.076 663.754 270.359 650.127 237.594C649.253 235.493 646.202 226.001 644.232 225.509ZM397.597 322.722C389.136 323.501 381.003 326.86 375.399 333.458C368.119 342.031 367.949 351.594 367.912 362.275C367.898 366.205 367.716 370.258 368.12 374.168C369.037 383.042 373.753 391.529 380.669 397.134C384.729 400.424 389.5 402.713 394.606 403.815C405.286 406.12 417.677 404.678 428.58 404.656C436.86 404.639 445.383 405.224 453.626 404.52C462.898 403.053 470.888 398.6 476.481 390.952C483.024 382.005 483.295 372.742 483.183 362.087C483.14 357.922 483.165 353.654 482.516 349.534C481.205 341.204 477.013 333.65 470.023 328.765C465.895 325.879 461.142 324.266 456.208 323.413C448.694 322.114 440.562 322.655 432.939 322.646C421.16 322.631 409.375 322.567 397.597 322.722ZM564.728 323.12C555.755 324.69 547.486 328.597 542.125 336.239C536.214 344.667 536.429 353.794 536.416 363.647C536.41 368.407 536.254 373.188 537.204 377.878C538.992 386.712 544.286 394.51 551.885 399.36C555.808 401.863 560.234 403.483 564.822 404.228C572.907 405.542 617.214 405.786 625.017 404.419C634.16 402.291 641.523 397.888 646.606 389.819C652.372 380.664 652.164 370.96 652.064 360.528C652.019 355.828 652.079 351.119 650.982 346.518C649.134 338.772 644.02 331.777 637.222 327.633C633.56 325.401 629.764 324.087 625.534 323.442C614.832 321.812 602.993 322.863 592.112 322.907C583.108 322.942 573.693 322.42 564.728 323.12ZM289.062 345.952C279.994 349.658 273.132 355.068 269.231 364.284C265.864 372.239 265.957 381.06 269.302 389.002C270.912 392.825 273.179 396.202 275.972 399.26C280.335 403.075 284.566 405.651 290.055 407.571C290.052 402.673 290.371 347.721 289.917 346.745C289.782 346.453 289.493 346.259 289.257 346.04C289.205 345.991 289.127 345.981 289.062 345.952ZM725.585 348.295C724.157 368.032 725.032 387.669 724.153 407.39C729.664 405.643 733.746 403.443 738.067 399.549C744.414 392.475 747.586 384.76 747.036 375.177C746.586 367.35 743.049 359.724 737.145 354.52C733.717 351.497 729.884 349.716 725.585 348.295ZM500.158 359.912C500.147 378.568 498.92 393.042 484.923 406.961C470.05 421.751 452.486 421.864 432.872 421.844L405.225 421.748C390.378 421.595 375.938 416.379 365.429 405.68C354.522 394.576 351.154 381.21 350.984 366.12C339.94 366.117 328.905 366.178 317.861 366.008C318.136 380.871 316.92 396.245 318.314 411.001C322.526 455.607 344.555 502.639 377 533.651C412.45 567.535 462.296 587.078 511.38 585.73C511.545 585.725 511.71 585.716 511.875 585.709C563.903 584.055 611.13 562.288 646.804 524.349C675.276 494.07 691.7 453.842 695.436 412.659C696.819 397.412 696.389 382.18 695.967 366.901L668.718 366.853C668.643 383.311 666.49 395.48 654.273 407.6C639.356 422.398 621.939 422.082 602.359 421.998L574.492 421.971C559.398 421.828 544.65 417.411 533.879 406.395C520.281 392.488 519.448 378.234 519.622 359.906C513.132 359.859 506.647 359.808 500.158 359.912ZM430.513 601.105C430.487 616.854 430.207 632.647 430.494 648.391C438.387 653.158 446.283 657.504 454.908 660.855C483.401 671.926 517.186 673.504 546.8 666.266C559.762 663.097 571.642 658.121 583.211 651.551L586.661 649.332C586.957 633.261 586.635 617.181 586.476 601.11C532.313 621.68 484.651 621.899 430.513 601.105ZM514.272 802.648C502.386 804.505 492.051 809.714 484.821 819.559C478.231 828.531 475.6 839.346 477.434 850.347C479.31 861.592 485.883 871.463 495.166 877.988C503.719 884 512.805 885.855 523.12 885.438C534.816 883.598 545.1 877.839 552.141 868.183C558.567 859.371 561.232 847.751 559.472 837.01C557.725 826.349 551.853 816.511 543.018 810.239C534.958 804.518 524.154 801.443 514.272 802.648Z"/>
	<path transform="scale(1.02441 1.02441)" d="M422.621 390.007C417.464 390.05 413.083 389.499 408.602 386.644C403.798 383.584 400.338 378.616 399.341 372.988C398.425 367.822 399.692 362.409 402.876 358.228C406.93 352.902 412.59 350.569 419.016 349.65C423.37 349.521 427.841 350.714 431.534 353.033C436.352 356.058 440.017 361.115 441.111 366.73C442.099 371.802 440.745 376.943 437.762 381.117C433.966 386.428 428.86 388.886 422.621 390.007Z"/>
	<path transform="scale(1.02441 1.02441)" d="M598.928 389.841C594.146 389.895 589.655 388.865 585.622 386.186C580.921 383.061 577.534 378.066 576.597 372.479C575.735 367.335 577.056 362.174 580.251 358.057C584.436 352.663 590.216 350.485 596.754 349.658C601.598 349.607 606.748 350.884 610.719 353.717C615.026 356.79 617.893 361.612 618.578 366.852C619.282 372.242 617.592 377.738 614.196 381.953C610.187 386.928 605.108 389.077 598.928 389.841Z"/>
	<path transform="scale(1.02441 1.02441)" d="M439.446 467.498L487.683 467.237C518.302 466.648 549.009 467.208 579.639 467.187C579.201 475.85 576.642 483.943 572.554 491.565C563.523 508.404 548.265 518.815 530.247 524.203C525.973 525.164 521.672 525.811 517.293 526.033C496.085 527.109 473.637 519.835 457.803 505.502C446.699 495.451 440.189 482.486 439.446 467.498Z"/>
	<path transform="scale(1.02441 1.02441)" d="M776.245 998.335C780.365 966.417 787.398 934.416 793.173 902.728L828.931 707.684C833 710.067 836.707 713.683 840.07 716.96C869.794 745.926 889.271 782.597 900.763 822.207C903.784 832.619 905.893 843.333 908.434 853.874C911.733 867.557 915.222 881.183 918.401 894.898L924.528 921.079C926.752 930.215 929.833 939.712 929.911 949.165C930.018 962.085 924.605 974.955 915.539 984.13C905.007 994.79 892.699 998.056 878.125 998.192L825.999 998.212C809.428 998.125 792.808 997.76 776.245 998.335Z"/>
</svg>
