<?xml version="1.0" encoding="utf-8" ?>
<svg xmlns="http://www.w3.org/2000/svg" xmlns:xlink="http://www.w3.org/1999/xlink" width="1702" height="1702">
	<path fill="white" transform="scale(1.66211 1.66211)" d="M0 0L0 1024L1024 1024L1024 0L0 0Z"/>
	<path transform="scale(1.66211 1.66211)" d="M541.11 0L610.861 0L611.443 0.128689C622.695 2.51573 634.298 3.09642 645.605 5.60849C685.502 14.472 724.071 36.2842 746.844 70.9894C760.556 91.8864 768.795 122.673 765.584 147.76C789.324 165.055 802.302 180.978 807.102 210.82C813.805 252.495 803.727 304.844 792.709 345.11C807.683 343.164 820.671 345.492 832.846 354.863C848.46 366.879 855.914 384.63 858.232 403.835C862.234 436.983 851.359 475.305 830.802 501.483C817.71 518.155 798.485 530.528 777.247 533.096C766.123 534.441 756.071 533.283 747.056 526.134C746.628 525.794 746.209 525.442 745.79 525.09C743.4 537.106 741.8 549.258 739.37 561.269C734.497 585.346 725.704 615.756 711.51 636.035C700.558 651.683 676.887 671.939 661.134 683.385L661.625 683.706C674.303 691.812 702.193 700.337 705.521 716.352C706.134 719.299 705.943 721.989 705.607 724.936L745.284 736.372C751.792 738.232 759.065 741.162 765.805 741.608C778.6 742.456 793.974 740.533 807.033 739.913L889.184 736.056C901.722 735.393 922.895 732.922 934.576 735.912C944.785 738.525 953.535 745.336 958.575 754.591C963.099 762.897 963.945 772.288 961.194 781.304C957.533 793.303 952.566 805.102 948.391 816.961L914.637 911.497L894.004 970.059C890.83 979.005 888.17 988.759 884.048 997.288C881.739 1002.06 879.302 1005.4 874.431 1007.84C866.442 1011.85 796.591 1013.17 782.335 1013.76L625.333 1021.09L584.539 1022.91C576.733 1023.22 568.734 1023.13 560.983 1024L478.125 1024C473.526 1022.5 468.467 1021.78 463.748 1020.62L429.971 1012.16L380.419 999.618C370.38 997.073 359.547 993.498 349.22 992.714C342.71 992.219 335.703 993.129 329.176 993.503C316.695 994.218 304.182 995.012 291.685 995.373C228.872 997.189 146.773 997.721 87.2293 978.191C77.938 975.144 69.2711 971.024 60.423 966.924C66.5551 931.277 74.3743 895.451 90.0562 862.626C130.74 777.466 205.286 762.127 286.462 733.343C286.494 732.148 286.522 730.94 286.664 729.751C288.363 715.585 330.388 685.869 341.678 676.745C335.373 671.127 329.076 665.604 323.335 659.395C289.33 622.618 273.458 576.441 265.849 527.744C258.84 530.781 251.926 533.106 244.256 533.639C227.118 534.829 211.394 528.542 198.59 517.345C173.112 495.066 157.053 459.858 154.84 426.334C153.344 403.685 158.228 377.467 173.769 360.045C185.212 347.218 196.656 344.583 213.083 343.703C199.718 309.724 182.418 252.865 185.813 216.529C187.868 194.534 198.342 176.766 215.162 162.702C209.887 154.368 205.563 145.962 203.445 136.258C199.058 116.17 202.588 94.7781 213.788 77.4602C225.859 58.7947 243.225 48.0118 264.714 43.4638C263.08 45.1541 261.496 46.938 260.044 48.7863C253.34 57.3183 248.64 69.0575 250.166 80.055C250.929 85.5563 253.492 90.3928 257.976 93.7428C264.399 98.5415 273.302 99.8885 281.122 99.8463C320.411 99.6345 358.279 72.1078 391.299 53.6163C410.456 42.8878 430.078 32.2381 450.294 23.6456C470.947 14.8671 492.228 7.71991 514.354 3.7221C523.224 2.11937 532.223 1.45725 541.11 0ZM600.003 92.5114L600.552 92.739C602.513 94.556 604.999 96.0239 607.098 97.7176C613.932 103.233 619.803 109.789 624.03 117.53C635.299 138.171 629.996 161.743 623.763 183.077L626.748 177.622C629.815 171.972 632.422 166.169 634.3 160.011C638.383 146.628 639.128 130.309 632.232 117.698C626.365 106.968 612.179 96.1143 600.552 92.739L600.003 92.5114ZM675.616 96.0025L675.909 96.2703C677.34 101.654 679.439 106.873 680.652 112.31C685.239 132.881 683.472 154.801 675.687 174.341C673.063 180.928 668.553 187.178 666.31 193.76L665.919 194.106L665.605 194.452L665.919 194.106L666.31 193.76C668.531 191.973 670.288 189.244 671.951 186.944C680.521 175.093 686.171 161.291 687.915 146.743C689.78 131.197 685.67 108.798 675.909 96.2703L675.616 96.0025ZM405.263 101.617L405.002 101.888L405.263 101.617C412.091 99.1142 418.993 94.5018 425.495 91.1324C437.703 84.8065 450.129 78.9825 462.982 74.0847C475.32 69.3833 488.331 65.0868 501.28 62.4346C507.621 61.1358 514.667 61.193 520.789 59.2625C520.922 59.2207 521.053 59.1744 521.184 59.1304C520.6 59.0939 520.032 59.0646 519.446 59.0695C485.937 59.354 452.748 73.1548 424.028 89.3735C418.003 92.7755 410.083 96.6493 405.263 101.617ZM236.77 114.793C250.972 127.626 263.69 135.21 283.427 134.166C301.441 133.213 317.984 126.235 334.511 119.679C359.661 109.702 383.812 97.721 408.077 85.7875C455.684 62.3751 493.902 44.0755 548.683 49.2389C574.352 51.6583 601.417 62.2866 620.814 79.4459C636.799 93.5866 646.67 111.524 647.968 132.944C649.561 159.234 638.7 182.753 626.408 205.233C644.642 188.439 657.578 164.525 658.531 139.434C659.363 117.557 650.811 96.6 635.933 80.614C617.23 60.5163 586.971 44.4584 559.734 39.8396C568.731 38.6162 577.954 38.5454 587.021 38.5357C619.488 38.5013 661.985 43.0806 688.669 63.1678C700.861 72.3457 707.415 84.2812 709.522 99.3268C712.082 117.596 706.495 135.989 701.273 153.289C711.356 137.254 716.057 119.074 715.541 100.124C715.37 93.8328 714.183 87.3654 714.553 81.1029C716.635 86.8441 719.027 92.6127 720.446 98.5595C725.992 121.791 720.702 144.846 710.803 166.062C708.394 171.223 705.679 176.27 703.013 181.302C713.9 168.9 721.678 152.503 726.419 136.739C728.339 130.356 729.515 123.71 731.657 117.405C732.728 140.943 727.786 166.236 714.146 185.761C709.136 192.932 702.969 199.126 697.665 206.039C718.748 191.198 737.105 171.881 741.589 145.683C745.439 123.192 739.426 99.4358 726.219 80.9859C712.111 61.2768 693.706 47.966 671.923 37.9309C640.013 24.2796 613.223 20.9975 578.844 20.8281C540.436 20.6388 504.448 26.1541 468.669 40.5002C447.469 49.0007 427.358 59.7071 407.493 70.9244C366.784 93.9129 303.765 136.597 255.751 116.402C244.42 111.636 236.802 103.159 231.674 92.1666C224.052 103.413 223.155 115.721 225.609 128.876C229.179 148.014 240.026 160.935 255.845 171.646C284.269 190.893 323.251 195.525 356.406 189.002C370.764 186.177 384.908 182.409 398.84 177.952C438.017 165.416 508.818 136.365 546.284 161.427C571.046 177.99 570.006 221.983 576.285 225.49L577.079 225.073C578.033 221.017 577.758 216.448 577.782 212.274C577.878 195.194 576.301 176.871 567.085 161.984C560.077 150.664 548.892 144.558 536.201 141.652C525.839 139.28 515.131 139.307 504.564 139.77C434.232 142.847 369.968 187.512 298.24 173.219C277.165 169.02 258.431 158.926 244.434 142.455C249.815 146.12 255.141 149.916 260.942 152.897C284.147 164.823 309.791 164.39 334.827 159.624C342.772 158.112 350.96 156.302 358.549 153.481C327.712 155.531 301.688 157.19 272.271 144.64C264.643 141.386 257.244 137.589 250.976 132.077C246.273 127.941 238.784 120.848 236.77 114.793ZM381.803 130.66L381.502 130.88L381.803 130.66C388.774 128.862 406.531 119.788 414.28 116.266C442.72 103.339 471.077 90.7869 501.965 84.9279C514.099 82.6261 527.334 81.36 539.694 82.0529C544.652 82.3309 550.507 84.0251 555.357 83.4796L553.755 82.5221C544.012 78.5767 532.561 77.5086 522.135 77.4149C478.714 77.0245 446.369 94.3338 409.392 114.33C403.068 117.75 386.408 126.147 381.803 130.66ZM412.236 145.555L412.002 145.874L412.236 145.555C417.986 145.033 433.993 139.498 440.543 137.789C470.548 129.963 510.284 122.435 540.986 129.576C554.636 132.75 566.654 141.038 574.058 152.982C586.808 173.546 585.867 202.137 580.632 224.973C585.11 222.038 587.184 219.463 589.289 214.62C590.089 212.07 590.788 209.53 591.302 206.904C595.398 186.02 591.419 162.103 579.312 144.42C570.023 130.852 556.095 122.969 540.058 119.994C505.631 113.608 463.637 124.575 431.641 137.088C425.401 139.529 417.713 141.763 412.236 145.555ZM287.226 205.398C273.163 205.772 231.395 222.821 216.631 228.213C223.577 215.888 236.361 205.816 248.341 198.669C252.125 196.412 256.835 194.557 260.188 191.757C258.08 190.792 252.859 192.931 250.773 193.718C240.964 197.415 231.565 203.01 222.765 208.681C226.926 198.068 235.902 188.594 245.036 182.016C242.596 179.944 240.171 178.13 237.462 176.422C224.409 184.33 214.805 194.709 211.084 209.855C209.324 217.021 208.906 224.549 209.302 231.901C210.558 255.19 220.479 292.266 228.297 314.504C231.92 324.808 236.362 334.778 240.418 344.908C248.321 342.952 271.939 338.757 277.693 335.425L277.552 334.856C273.51 333.923 269.06 334.554 264.942 334.674C256.736 334.913 245.844 334.232 238.579 330.054L238.16 329.278C240.642 327.067 269.659 321.888 275.575 319.979C256.612 319.76 248.604 318.885 230.195 313.825C251.989 308.655 271.052 307.855 291.754 297.399C272.321 301.793 244.869 305.134 226.191 296.248C237.944 292.236 250.202 290.084 262.12 286.662C273.608 283.364 284.696 278.415 295.056 272.493C273.401 279.496 252.195 286.27 229.153 282.223C226.571 281.77 221.995 281.424 219.891 280.067C219.335 279.709 219.345 279.668 218.983 279.236C221.035 276.104 286.08 256.015 297.692 247.383L297.998 247.126L297.692 247.383C291.928 247.834 285.353 250.591 279.785 252.217C259.943 258.014 236.887 264.903 216.284 260.045C222.18 258.145 227.687 255.57 233.408 253.23L266.7 239.235C282.309 232.59 298.107 226.801 313.855 220.55C304.225 222.051 294.668 224.569 285.299 227.222C273.753 230.491 222.544 247.807 214.917 246.151C213.939 245.938 214.29 246.109 213.698 245.218C219.148 241.688 224.278 237.681 229.774 234.23C238.966 228.46 248.742 223.639 258.459 218.832C266.615 214.797 279.309 210.32 286.439 205.898C286.703 205.734 286.964 205.565 287.226 205.398L287.477 205.126L287.226 205.398ZM708.503 239.591L708.79 239.843C713.363 244.364 718.874 248.066 724.059 251.846C732.907 258.295 741.83 264.537 750.872 270.706C758.502 275.911 769.58 282.212 774.875 289.8L773.149 295.551C758.633 292.233 746.141 288.599 732.791 281.955C728.369 279.754 724.193 276.969 719.786 274.822L719.338 274.439L719.003 274.125L719.338 274.439L719.786 274.822C719.884 274.942 719.981 275.063 720.081 275.18C728.023 284.454 745.527 293.598 756.36 299.403C760.32 301.525 765.606 303.668 768.943 306.598C770.184 307.687 770.525 308.983 770.401 310.602C770.331 311.517 769.983 311.656 769.408 312.309C763.011 314.847 745.705 310.145 739.278 307.428C735.909 306.004 732.608 304.377 729.285 302.844L729.003 302.588L729.285 302.844C737.113 311.383 754.05 319.06 764.403 324.764C765.383 326.555 767.482 329.707 767.336 331.735C767.285 332.442 766.688 332.715 766.201 333.156C763.319 334.005 760.33 333.626 757.378 333.379C746.222 332.446 736.962 329.291 726.771 324.894C737.969 334.199 750.146 338.487 764.183 341.571C763.883 343.526 763.511 345.416 763.727 347.4C764.617 348.09 765.884 348.007 766.995 348.144C767.205 347.937 767.445 347.757 767.625 347.523C769.414 345.2 771.631 333.771 772.549 330.403C782.54 293.76 792.369 243.583 782.811 206.306C778.082 187.864 767.918 175.004 751.566 165.272C750.319 169.688 748.703 173.925 747.065 178.206C759.357 186.678 771.913 199.576 775.067 214.623C773.765 213.132 772.452 211.642 771.07 210.225C766.516 205.556 745.304 188.605 739.501 189.064C738.726 189.125 738.926 189.25 738.398 190.013C738.755 191.249 739.271 191.903 740.312 192.694C751.034 200.839 761.766 208.001 770.561 218.478C774.723 223.435 777.466 228.536 779.847 234.531C762.295 222.333 743.844 213.908 724.412 205.263C729.102 209.132 734.311 212.246 739.405 215.543C752.046 223.726 765.364 232.189 775.393 243.561C776.955 245.332 779.243 247.718 779.943 249.997C780.352 251.329 780.11 251.881 779.497 253.073C777.693 252.931 766.357 246.706 763.76 245.535C747.911 238.384 731.813 231.154 715.466 225.219C733.56 236.556 759.961 248.501 773.925 264.705C776.15 267.287 777.829 269.899 777.553 273.443L776.864 274C763.828 266.53 750.097 260.434 736.629 253.792C727.539 249.31 718.548 244.084 709.285 240.055L708.79 239.843L708.503 239.591ZM371.728 301.134C376.975 299.281 381.992 296.547 387.24 294.599C407.614 287.039 423.633 287.23 444.181 293.179L444.425 293.388L444.181 293.179C437.645 285.897 427.594 281.645 417.894 281.119C402.403 280.279 384.92 288.623 373.741 298.946C372.976 299.653 372.361 300.306 371.728 301.134L371.502 301.41L371.728 301.134ZM572.367 293.237C592.774 286.186 613.792 288.24 633.692 295.996C638.877 298.017 643.639 300.995 648.801 303.049L649.208 303.207L649.458 303.432L649.208 303.207C641.198 294.213 624.635 284.997 612.884 282.258C599.504 279.139 588.252 282.541 576.874 289.59C575.303 290.7 573.848 292.008 572.367 293.237ZM305.026 505.243C298.654 491.461 296.786 466.145 296.222 450.803C296.067 446.575 296.862 441.732 296.327 437.626C295.632 432.278 292.73 427.047 291.346 421.803C289.09 413.252 288.029 404.46 286.788 395.722C284.625 395.077 282.564 394.392 280.297 394.244C279.343 395.127 279.464 395.992 279.421 397.273C279.177 404.492 279.877 412.002 280.162 419.232C281.318 448.617 284.846 477.837 289.376 506.884C293.1 530.766 297.267 554.396 304.364 577.549C309.437 594.098 315.918 610.054 325.002 624.835L325.09 624.536L325.372 625.033C324.494 621.405 322.555 617.915 321.166 614.443C319.62 610.582 318.374 606.575 317.14 602.604C309.695 578.651 305.273 552.828 305.544 527.708C315.533 565.23 324.941 604.447 344.331 638.464C346.851 642.886 349.582 648.092 353.227 651.681L353.443 651.906L353.227 651.681C352.032 647.644 350.091 643.611 348.67 639.606C343.993 626.425 339.316 611.513 338.85 597.504C345.365 615.842 359.278 643.393 370.58 659.032C373.885 663.604 377.632 667.716 381.556 671.758C371.007 652.387 364.104 633.442 360.069 611.695C371.115 636.72 388.982 671.883 412.027 687.165C397.719 669.044 386.209 646.024 381.408 623.289C381.488 623.409 381.57 623.528 381.649 623.649C385.38 629.397 387.593 636.307 390.984 642.325C399.108 656.737 417.588 683.796 431.028 692.924C440.184 699.143 452.468 702.891 463.168 705.297C495.857 712.645 550.248 711.448 579.044 693.119C595.866 682.411 606.474 664.616 616.892 648.114C620.054 643.107 623.17 637.21 627.16 632.822C620.466 652.332 613.407 667.891 603.345 685.931C625.304 671.869 635.711 637.512 649.334 616.074L649.658 615.574C647.495 631.267 637.415 656.931 631.991 672.763C642.035 660.098 654.188 632.337 660.23 616.841C662.986 609.776 665.135 600.964 669.118 594.569C668.48 610.54 657.371 647.922 650.851 663.033C664.962 644.453 672.537 622.169 679.829 600.262C682.876 591.108 685.378 581.605 690.281 573.237C688.671 580.984 687.929 588.819 686.598 596.606C684.067 611.412 680.706 626.294 676.543 640.725C681.714 634.028 684.653 624.954 687.477 617.03C695.727 593.874 701.351 570.113 707.473 546.342C709.883 536.984 711.993 527.431 714.971 518.237C713.575 548.852 707.348 579.568 701.051 609.491C706.908 597.406 710.011 583.892 713.04 570.878C721.986 532.444 725.897 493.84 729.903 454.695C731.72 436.949 733.947 419.269 735.574 401.497C733.293 401.356 730.996 401.365 728.712 401.326C724.817 416.364 720.893 433.023 713.601 446.795C704.909 463.213 691.771 472.841 674.125 478.125C639.839 488.394 598.162 486.096 566.352 468.771C558.072 464.261 550.718 458.109 545.23 450.406C532.448 432.465 527.532 403.273 521.239 382.11C516.698 381.804 498.169 380.631 495.305 383.036C492.656 385.262 491.057 391.426 490.042 394.637C481.516 421.617 474.606 453.665 448.245 469.261C424.002 483.603 374.238 484.31 347.088 477.281C325.622 471.723 308.867 458.396 297.614 439.34C300.274 454.53 301.444 470.018 302.871 485.36C303.488 491.993 304.536 498.61 305.026 505.243ZM575.926 750.731C576.502 744.067 578.377 737.261 579.861 730.732C541.037 749.932 495.118 753.331 453.973 739.429C446.749 736.988 439.725 733.942 432.498 731.535C434.238 740.037 436.281 748.614 436.74 757.304C432.019 747.997 426.941 737.915 423.627 728.03C420.392 726.012 417.138 724.259 413.704 722.604C415.9 734.114 418.042 745.73 419.937 757.291C413.7 746.466 408.975 729.136 403.666 716.995C401.883 715.818 400.117 714.583 398.259 713.529C397.033 712.805 396.023 712.091 394.612 711.799C394.608 724.159 396.563 736.498 396.534 748.859C403.577 754.88 411.551 759.894 419.208 765.09C426.453 770.007 434.726 776.803 442.619 780.31C463.33 789.513 500.042 788.818 522.641 787.041C529.241 786.522 535.981 785.859 542.404 784.213C549.065 772.999 556.294 764.617 569.366 761.213C574.627 759.843 580.215 759.435 585.639 759.473L594.469 723.909L586.164 727.552C583.174 735.461 579.507 743.078 575.926 750.731ZM468.066 813.126L468.255 813.394C471.764 817.953 475.887 822.263 479.615 826.67C492.922 829.203 515.81 830.176 528.993 826.692L529.509 825.753L532.878 815.18C520.772 815.388 508.752 816.491 496.628 816.081C487.065 815.757 477.759 814.182 468.255 813.394L468.066 813.126ZM106.139 957.341C107.728 936.089 114.559 910.494 121.863 890.356C130.071 867.722 150.494 827.719 172.704 817.307C168.271 823.144 162.692 827.865 158.512 834.032C133.545 870.854 122.168 916.003 110.587 958.37C120.643 961.25 131.247 962.48 141.523 964.427C142.507 953.81 143.624 943.206 145.707 932.739C152.481 898.685 169.785 846.591 194.945 821.976C191.069 828.688 188.031 836.116 184.932 843.209C173.901 868.45 165.246 896.129 157.807 922.698C153.864 936.781 150.43 950.951 146.266 964.983C156.304 966.535 166.261 967.7 176.37 968.647C177.333 943.482 193.589 883.878 208.923 864.136C203.093 885.884 197.789 907.758 192.501 929.643C189.318 942.926 186.082 956.167 182.434 969.331C191.176 970.004 200.012 970.477 208.781 970.426C205.717 954.345 201.597 939.698 195.68 924.426C206.509 935.286 211.25 949.223 215.712 963.51C217.809 917.685 217.288 876.81 201.75 833.057C197.209 820.269 191.762 807.642 183.67 796.665C177.819 799.276 172.16 803.198 166.896 806.854C158.358 812.785 149.885 819.419 142.807 827.042C113.364 858.751 95.5785 910.313 88.06 952.165C94.1301 953.53 100.165 955.579 106.139 957.341ZM599.14 92.25L599.745 92.25L599.14 92.25ZM553.475 94.0907C572.635 98.3739 590.273 110.073 600.825 126.789C609.023 139.776 611.885 155.489 611.064 170.665C610.889 173.893 609.786 179.397 610.723 182.376L610.636 181.972L611.239 182.049L612.426 179.285C617.997 162.096 618.396 146.05 609.902 129.623C601.976 114.295 587.08 102.45 570.715 97.2611C565.168 95.5023 559.305 94.2569 553.475 94.0907ZM510.927 100.221C490.632 101.144 471.684 105.979 452.989 113.844C447.653 116.089 441.787 118.613 437.048 121.961C460.287 113.308 484.94 106.684 509.875 106.026C536.405 105.08 560.65 109.583 582.722 125.113C565.762 107.644 544.32 100.284 520.196 100.06C517.108 100.031 514.013 100.132 510.927 100.221ZM514.556 167.009C534.588 178.052 546.03 195.326 557.303 214.506C559.073 217.518 561.398 223.145 563.956 225.209C564.405 212.2 553.146 192.545 544.467 183.338C536.981 175.396 525.444 168.606 514.556 167.009ZM479.517 173.235C479.765 173.381 480.01 173.532 480.261 173.673C484.436 176.021 491.037 176.482 495.724 177.955C509.356 182.239 520.937 191.997 531.05 201.781C534.118 204.749 539.53 211.501 543.006 213.193C537.979 198.912 526.807 186.291 513.201 179.68C503.104 174.774 490.704 172.54 479.517 173.235ZM448.483 188.293C445.588 188.647 442.72 188.779 439.809 188.892L440.578 189.04C448.157 190.465 455.95 190.719 463.588 191.849C483.864 194.851 505.949 200.953 524.143 210.496L530.17 213.399C510.639 196.052 476.655 186.37 450.927 188.047C450.109 188.1 449.295 188.187 448.483 188.293ZM371.387 206.716C366.187 207.063 360.837 207.704 355.629 207.539C329.449 226.432 317.789 262.601 312.81 293.275C310.855 305.321 309.678 317.811 309.556 330.013C320.833 327.372 332.095 325.169 343.513 323.249C348.392 315.79 353.155 308.202 358.908 301.372C370.728 287.337 387.869 276.164 405.928 272.384C418.805 269.687 432.682 270.732 443.862 278.167C451.761 283.42 455.646 289.745 457.437 298.995C457.918 301.478 458.302 303.984 458.693 306.484C430.443 295.058 401.286 298.612 373.665 310.231C365.197 313.794 356.757 318.151 348.833 322.796C383.119 316.531 421.334 320.578 454.863 329.183C472.535 333.719 490.12 339.665 508.577 339.704C528.161 339.745 545.534 333.208 564.274 328.694C592.322 321.938 618.869 319.455 647.685 321.209C654.575 321.668 661.364 322.677 668.228 323.31C664.193 320.369 659.583 318.157 655.132 315.917C632.475 304.517 603.514 296.19 578.017 300.316C571.582 301.357 565.061 303.473 559.302 306.541C560.675 295.376 562.785 286.152 572.039 278.849C581.65 271.264 594.46 269.574 606.302 271.107C627.882 273.9 648.745 286.989 661.817 304.197C665.336 308.831 670.327 315.396 672.041 320.991L671.313 323.109C672.194 323.929 708.301 330.99 712.409 331.76C705.504 292.847 696.506 258.839 673.405 225.972C666.239 227.08 659.041 228.123 651.936 229.575C625.978 234.876 599.208 242.453 572.506 240.867C555.224 239.84 538.265 232.607 521.614 228.14C478.45 216.561 433.063 206.424 388.21 206.414C382.665 206.413 376.901 206.159 371.387 206.716ZM379.275 330.227C341.384 331.401 307.503 339.831 271.634 351.511C262.422 354.51 252.647 357.183 243.781 361.052L247.982 368.468C257.734 367.345 278.067 365.044 286.153 371.599C294.14 378.073 294.86 393.065 296.954 402.628C299.679 415.068 303.772 428.329 311.376 438.701C332.09 466.957 375.389 470.07 407.706 467.452C425.963 465.973 442.283 461.082 454.456 446.671C468.509 430.035 474.56 408.229 479.529 387.449C480.836 381.985 481.304 374.95 484.393 370.197C486.905 366.332 491.853 364.854 496.21 364.481C501.786 364.005 517.121 363.689 522.187 364.704C524.352 365.138 526.398 366.018 528.064 367.488C537.459 375.781 536.158 430.104 562.743 451.914C585.616 468.682 624.663 468.476 651.859 464.285C666.067 462.096 689.733 458.388 698.571 446.463C709.407 431.842 715.147 412.294 720.396 395.044C722.443 388.315 723.919 381.033 727.497 374.914C729.699 371.15 732.394 368.177 736.852 367.455C744.435 366.227 754.39 369.383 761.446 371.863C762.012 367.64 762.417 363.242 763.5 359.117C754.283 355.127 744.463 351.891 734.927 348.74C684.161 331.965 628.538 324.187 575.856 336.636C551.84 342.311 531.386 351.392 505.945 350.292C484.787 349.378 465.527 342.589 445.193 337.486C423.809 332.12 401.331 329.557 379.275 330.227ZM207.997 366.588C198.586 368.788 191.666 374.214 186.541 382.342C176.311 398.565 175.142 421.491 179.412 439.746C185.02 463.727 198.837 491.656 220.475 504.978C228.531 509.938 237.954 512.591 247.34 510.366C253.184 508.98 258.475 506.187 263.57 503.087C262.268 491.864 261.123 480.605 260.171 469.346C255.339 469.576 250.87 469.568 246.394 467.358C241.458 464.922 230.926 452.018 225.39 458.488C222.181 462.238 221.758 471.332 222.5 475.912C223.424 481.622 225.871 486.766 228.433 491.895C219.701 485.475 214.028 478.576 212.301 467.587C210.458 455.862 213.5 444.482 220.536 435.026L220.889 434.559C223.896 431.06 227.022 428.055 230.731 425.305C226.884 417.719 221.223 408.899 212.785 405.936C209.502 404.783 206.009 404.917 202.896 406.513C198.024 409.01 195.378 414.154 193.925 419.217C191.654 427.132 192.204 435.293 192.784 443.393C187.15 432.756 186.706 417.134 190.144 405.732C191.936 399.787 195.292 392.978 200.953 389.942C205.582 387.46 210.923 387.758 215.763 389.411C230.132 394.32 241.207 410.549 247.261 423.66C248.997 427.42 254.534 440.044 253.161 443.996C251.818 447.864 249.042 450.297 251.038 454.692C252.667 458.279 256.523 461.963 259.632 464.325C259.214 453.845 256.424 401.238 254.013 394.364C252.212 389.228 247.593 384.5 243.642 380.889C234.295 372.344 222.699 365.881 209.744 366.451C209.157 366.476 208.582 366.528 207.997 366.588ZM799.639 367.197C787.28 368.207 778.724 373.293 770.738 382.687C766.602 387.552 762.945 393.509 757.708 397.209C754.301 420.518 752.988 444.282 751.054 467.747C750.435 475.256 748.276 486.531 748.842 493.658C749.062 496.435 750.909 500.116 752.528 502.376C755.765 506.891 760.088 509.195 765.517 510.034C771.569 510.97 777.631 509.89 783.536 508.576C802.79 502.113 815.001 486.838 823.748 469.171C834.598 447.256 840.37 416.585 832.366 392.88C829.176 383.434 823.143 374.357 813.869 370.021C809.456 367.958 804.506 366.972 799.639 367.197ZM361.065 693.583C351.155 697.687 314.744 724.17 307.346 732.403C310.623 768.334 325.929 804.693 344.24 835.423C349.257 843.843 354.753 852.624 361.402 859.85C372.769 838.895 384.263 807.978 404.46 794.444C409.959 796.355 415.11 799.043 420.212 801.822C431.07 808.097 442.027 814.22 452.387 821.303C462.683 828.342 472.402 836.28 482.745 843.218C474.202 834.452 465.303 826.068 456.635 817.433C448.929 809.756 441.423 801.634 433.051 794.68C426.326 789.094 418.349 784.738 411.087 779.878C391.103 766.505 361.022 745.402 350.746 723.397L351.142 722.822C355.31 716.884 369.745 706.912 368.604 699.428C368.297 697.419 367.219 696.156 365.582 695.051C364.16 694.091 362.739 693.804 361.065 693.583ZM637.463 698.147C637.383 701.143 637.411 704.2 637.17 707.185C641.791 714.13 648.423 719.793 652.545 727.049C650.588 737.153 647.359 747.155 642.367 756.17C647.698 755.912 653.019 755.579 658.343 755.216C660.687 748.672 663.227 742.1 665.081 735.4C666.983 728.528 668.216 721.554 669.775 714.608C663.756 711.438 642.295 698.924 637.463 698.147ZM611.428 715.399L605.721 718.703C599.006 731.828 594.287 745.928 587.019 758.778L587.564 759.51C594.907 759.133 602.337 758.483 609.685 758.459C610.015 752.353 612.739 719.612 611.837 715.64L611.428 715.399ZM674.904 718.6C672.66 731.048 669.587 742.695 665.494 754.671C668.861 754.428 672.228 754.191 675.588 753.867C677.368 753.729 679.156 753.542 680.939 753.475C682.256 744.001 684.205 734.16 684.648 724.63C681.346 722.747 678.279 720.293 674.904 718.6ZM372.28 722.955C371.032 723.753 369.83 724.116 369.347 725.553C370.23 726.578 371.133 727.377 372.168 728.237L373.123 728.758C373.489 727.037 373.053 725.278 372.778 723.565L372.28 722.955ZM636.202 727.265C634.435 736.994 631.953 747.123 631.271 756.978C633.115 756.851 635.257 756.957 636.874 755.987L637.478 754.727C640.457 748.189 643.157 741.752 645.076 734.803C642.015 732.389 639.093 729.88 636.202 727.265ZM288.141 756.505C278.509 759.504 268.849 762.809 259.432 766.434C288.403 788.253 303.023 856.762 307.88 891.242C310.834 912.216 315.016 949.819 309.955 970.048C306.404 953.663 305.418 935.686 302.897 918.965C297.334 882.055 280.363 794.882 257.215 767.078C252.828 768.727 225.927 777.679 223.891 779.929L224.421 781.072C256.037 817.037 266.857 874.503 271.365 920.757C272.827 935.762 274.187 951.411 273.243 966.47C273.163 967.743 273.064 969.015 272.955 970.287C293.832 970.709 314.731 969.507 335.598 968.872C335.702 963.302 335.341 955.892 339.603 951.64C343.053 948.197 348.108 948.042 352.673 947.912C350.651 923.549 338.244 867.616 328.087 845.573C325.469 839.891 321.65 834.652 318.6 829.179C312.677 818.551 307.43 807.547 303.041 796.199C300.197 788.849 297.604 781.368 295.156 773.877C293.506 768.831 292.773 760.629 289.632 756.572L288.141 756.505ZM916.327 756.716C886.131 758.494 855.894 759.49 825.681 760.893L671.785 768.402L613.958 771.348C601.786 771.879 588.417 771.359 576.53 773.73C570.092 775.013 564.09 778.794 559.749 783.679C556.883 786.903 554.751 790.562 553.286 794.617C551.517 799.511 550.266 804.615 548.731 809.589L537.258 846.982L512.09 927.762C509.745 935.194 507.028 942.495 504.615 949.902C502.61 956.056 500.949 962.346 498.828 968.458C495.87 976.981 490.927 989.148 489.39 997.769C490.6 1000.1 492.217 1001.26 494.72 1002.06C501.594 1004.26 540.161 1001.26 550.249 1000.85L712.033 993.534L823.339 988.907L850.083 987.588C854.912 987.379 859.809 987.495 864.62 987.072L913.527 849.158L928.319 807.234C931.673 797.424 934.7 787.342 938.535 777.718C939.089 776.212 940.077 774.331 939.654 772.746C938.214 771.929 936.696 772.162 935.053 772.267L891.633 892.274L873.645 942.823C870.414 951.933 867.565 961.348 863.887 970.274C863.107 972.167 862.218 974.742 860.399 975.79C858.027 977.156 854.168 977.54 851.443 977.778C838.043 978.95 824.433 979.168 810.99 979.929L683.5 985.998L563.058 991.511C550.281 991.978 537.249 993.401 524.506 993.357C522.056 993.349 519.508 993.014 517.204 992.166C513.649 990.858 511.206 988.498 509.636 985.058C508.105 981.705 507.784 978.158 508.414 974.549C509.837 966.398 512.932 958.166 515.33 950.229L528.606 906.429L548.931 841.007C553.085 827.504 556.681 813.232 561.899 800.106C564.95 792.431 569.718 785.732 577.464 782.281C579.335 781.447 581.287 780.955 583.315 780.7C594.783 779.255 606.86 779.491 618.426 778.824L713.808 774.18L864.875 766.978C889.451 765.879 914.057 764.485 938.647 763.89C935.309 759.697 931.276 757.167 925.888 756.521C922.949 756.169 919.248 756.291 916.327 756.716ZM921.022 772.695L678.905 783.997L618.949 786.967C608.234 787.453 596.763 787.171 586.193 788.774C581.329 789.512 577.374 790.767 573.985 794.542C571.721 797.066 570.179 800.06 569.011 803.219C565.577 812.506 563.233 822.287 560.26 831.736L538.796 900.984C535.403 911.862 515.876 971.78 516.212 978.162C516.337 980.532 517.291 982.543 519.064 984.124C520.106 985.053 521.226 985.272 522.561 985.482C533.244 985.618 544.003 984.755 554.671 984.21L605.186 981.718L747.428 975.246L815.251 972.149C828.991 971.552 842.747 970.59 856.503 970.495C861.768 954.331 867.796 938.442 873.526 922.441L900.385 847.782L919.372 795.639C922.209 787.949 924.796 780.026 927.992 772.482L921.022 772.695ZM218.999 780.962C208.262 785.363 197.135 789.778 186.775 794.997C194.708 801.135 201.538 810.51 207.111 818.788C232.779 856.915 246.59 902.577 252.352 947.847L253.38 956.267C253.81 960.968 254.44 965.736 254.566 970.453C259.987 970.494 265.448 970.674 270.861 970.35C268.155 955.913 266.692 941.258 264.34 926.756C262.325 914.328 259.601 901.932 257.019 889.61C250.421 858.119 242.327 820.916 227.078 792.465C225.739 789.966 222.512 782.358 220.13 781.031C219.66 780.769 219.583 780.89 218.999 780.962ZM452.077 794.56C455.476 798.59 459.346 802.255 463.06 805.994C482.32 810.112 502.221 810.341 521.814 809.474C525.352 809.317 531.179 809.569 534.353 807.936C535.145 807.528 535.23 806.605 535.534 805.819L538.414 796.804C509.692 800.005 480.498 800.685 452.077 794.56ZM421.324 833.707C416.595 834.117 411.789 834.511 407.171 835.666C410.223 846.761 411.679 857.536 412.622 868.973C408.751 858.262 406.567 847.449 400.932 837.378C397.386 838.974 394.254 840.857 391.276 843.372C396.166 877.022 401.53 911.508 401.561 945.587C414.287 944.557 427.057 944.247 439.797 943.431C438.919 929.716 438.755 915.434 436.956 901.834C432.189 894.974 428.658 888.147 430.19 879.486C430.919 875.359 432.698 871.604 434.804 868.013C433.138 857.633 432.075 846.976 431.194 836.499C432.605 840.009 433.905 843.516 435.084 847.11C436.462 852.807 437.794 858.498 438.978 864.239C445.996 860.715 452.749 858.793 460.552 861.393C466.647 863.424 471.57 867.949 474.248 873.77C477.156 880.093 477.533 887.296 474.996 893.805C472.774 899.507 468.52 904.707 462.774 907.08C456.734 909.573 450.327 908.806 444.458 906.325C445.49 918.276 447.331 930.66 447.553 942.621C460.565 942.31 473.557 941.209 486.56 940.935L483.336 887.276C482.679 877.758 482.411 867.927 480.933 858.509C474.692 854.046 436.164 835.789 428.318 833.774C425.962 833.169 423.71 833.473 421.324 833.707ZM524.389 833.704C511.498 835.28 497.953 835.612 485.068 834.001C487.588 837.138 490.382 840.244 492.598 843.598L494.457 847.531C503.949 848.548 513.082 848.564 522.597 848.004C523.666 844.256 527.401 837.335 526.787 833.752C525.862 833.422 525.342 833.518 524.389 833.704ZM383.733 853.887C376.744 864.536 371.205 876.686 363.397 886.71C355.91 878.803 349.614 869.896 343.227 861.104C348.724 883.418 353.016 905.485 355.338 928.379C355.788 934.75 356.27 941.095 356.261 947.485C370.522 946.584 384.808 946.824 399.055 945.452C397.016 936.687 395.478 927.754 394.046 918.87C392.705 910.56 385.731 856.251 383.733 853.887ZM517.797 854.725C510.27 855.239 502.701 855.322 495.16 855.522C496.649 876.186 498.265 896.918 499.327 917.606L499.895 917.493C501.888 913.719 520.324 856.999 520.24 855.036L519.57 854.472L517.797 854.725ZM450.082 872.609C446.418 874.374 443.736 876.437 442.409 880.444C441.351 883.638 441.691 887.181 443.34 890.115C444.976 893.026 447.821 895.167 451.076 895.934C452.969 896.38 454.784 896.207 456.667 895.843C460.266 894.15 463.209 892.099 464.543 888.165C465.551 885.191 465.175 882.015 463.752 879.245C462.205 876.234 459.285 873.815 456.066 872.781C454.154 872.167 452.051 872.432 450.082 872.609ZM490.385 954.214L413.375 958.356C401.476 959.02 388.493 958.703 376.8 960.761C378.385 961.047 380.009 961.423 381.611 961.56C387.202 962.549 393.396 964.209 399.082 964.007C402.733 963.878 406.493 962.802 410.119 962.255C413.52 961.743 416.968 961.627 420.4 961.474C443.954 960.428 467.673 958.73 491.232 958.289C491.613 957.011 492.42 955.525 491.924 954.278L490.385 954.214ZM349.458 960.503C349.107 962.714 348.855 964.862 348.757 967.098C368.742 970.17 388.602 976.166 408.246 980.95C432.54 986.867 456.999 992.09 481.288 998.059C481.376 994.688 481.743 991.599 482.636 988.337C471.404 985.494 460.059 983.245 448.761 980.697C430.735 976.632 412.843 972.41 394.713 968.799C379.658 965.8 364.705 962.391 349.458 960.503ZM489.453 963.237L434.7 965.239C425.644 965.642 416.545 966.458 407.492 966.619L413.599 967.951C419.866 969.138 426.111 970.415 432.356 971.718C433.594 971.002 434.854 970.299 436.262 969.982C443.719 968.305 486.85 968.437 488.882 967.147C489.102 967.007 489.528 966.156 489.579 966.024C489.821 965.39 489.833 964.461 489.903 963.779L489.453 963.237ZM483.883 971.219C469.166 972.055 454.039 971.902 439.426 973.409C441.976 974.148 444.504 974.899 447.114 975.401C451.781 976.405 461.477 979.77 465.706 977.586C470.192 975.269 480.784 975.926 486.217 975.448C486.691 973.946 487.374 972.888 486.834 971.378C485.76 971.11 484.983 971.112 483.883 971.219ZM480.38 979.692L469.729 980.308C472.099 980.945 474.465 981.595 476.851 982.165C479.347 982.551 481.979 983.352 484.267 981.919C484.898 981.524 484.704 981.669 484.862 980.881C483.404 979.724 482.206 979.647 480.38 979.692Z"/>
	<path transform="scale(1.66211 1.66211)" d="M236.77 114.793L236.572 114.502L236.77 114.793Z"/>
	<path transform="scale(1.66211 1.66211)" d="M222.572 208.935L222.765 208.681L222.572 208.935Z"/>
	<path transform="scale(1.66211 1.66211)" d="M362.688 216.336L362.988 216.1L362.688 216.336Z"/>
	<path transform="scale(1.66211 1.66211)" d="M322.567 303.215C322.302 289.683 326.604 272.291 330.892 259.394C336.338 243.016 346.617 224.36 362.688 216.336C340.585 239.943 331.913 273.06 322.567 303.215Z"/>
	<path transform="scale(1.66211 1.66211)" d="M697.878 315.619C696.208 314.044 692.294 296.082 690.832 291.972C683.532 271.456 675.136 252.198 664.259 233.311C665.375 233.727 666.085 234.277 666.934 235.09C670.422 238.429 673.304 242.645 676.154 246.535C691.4 267.341 697.518 290.104 697.878 315.619Z"/>
	<path transform="scale(1.66211 1.66211)" d="M634.497 460.573C614.029 461.978 583.442 459.881 567.035 446.886C551.956 434.943 548.063 412.979 543.946 395.288C542.384 388.579 540.244 381.69 539.519 374.835C538.845 368.469 539.95 362.559 544.19 357.572C558.038 341.282 598.152 338.153 618.752 336.71C618.907 336.695 619.061 336.677 619.216 336.665C637.343 335.295 693.687 340.311 706.518 352.111C711.461 356.657 713.205 365.596 713.386 372.09C713.867 389.352 702.829 434.421 690.77 446.62C681.496 456.003 647.851 460.305 634.497 460.573ZM601.873 347.717C587.967 348.81 559.94 351.954 550.606 363.044C547.399 366.855 547.128 370.068 547.658 374.852C548.394 381.485 550.256 388.21 551.802 394.693C555.139 408.682 559.509 431.06 571.438 440.308C590.244 454.887 623.387 453.31 645.773 450.322C656.394 448.944 680.52 446.416 686.873 437.88C695.195 426.701 703.465 391.074 701.234 377.582C700.42 372.659 698.402 366.373 694.078 363.489C684.274 356.953 637.254 349.417 624.128 348.129C616.843 347.414 609.192 347.212 601.873 347.717Z"/>
	<path transform="scale(1.66211 1.66211)" d="M408.121 460.889C382.455 463.157 347.637 462.498 326.842 445.662C308.752 431.016 304.478 407.356 302.134 385.43C301.116 375.91 299.547 362.486 306.254 354.579C317.688 341.101 352.772 338.597 369.757 337.206C369.933 337.184 370.109 337.154 370.286 337.14C393.998 335.257 446.289 337.62 465.239 352.728C470.433 356.87 473.934 362.291 474.604 368.994C475.674 379.684 466.147 413.567 461.932 424.168C459.166 431.124 455.848 438.166 451.114 444.023C441.018 456.515 423.167 459.275 408.121 460.889ZM399.315 347.721C378.678 348.943 336.736 352.07 322.553 368.058C315.173 376.378 313 388.255 313.772 399.052C314.832 413.885 320.38 428.688 331.845 438.599C344.373 449.428 365.924 452.909 382.088 453.62C399.792 454.803 428.147 454.453 441.905 442.276C445.947 438.699 448.965 434.229 451.304 429.394C455.968 419.754 466.073 384.256 466.663 373.508C466.916 368.884 465.819 365.062 462.643 361.612C451.766 349.796 424.501 347.913 409.038 347.637C405.795 347.579 402.557 347.601 399.315 347.721Z"/>
	<path transform="scale(1.66211 1.66211)" d="M401.754 439.423C390.228 439.649 379.161 436.134 370.316 428.653C361.513 421.206 356.286 410.752 355.407 399.269C354.482 387.173 358.266 375.806 366.256 366.659C374.551 357.164 385.565 353.029 397.912 352.213C408.938 352.416 418.613 355.108 427.415 362.009C436.207 368.902 442.447 379.876 443.703 391C444.949 402.034 441.334 413.878 434.431 422.534C425.709 433.469 415.346 437.928 401.754 439.423ZM397.987 360.207C387.888 360.929 378.525 364.743 371.748 372.453C365.545 379.511 362.68 388.534 363.321 397.88C363.968 407.314 368.294 416.255 375.494 422.429C383.042 428.901 391.875 431.368 401.656 431.438C412.853 429.947 421.745 426.296 428.784 417.05C434.38 409.698 436.723 400.142 435.35 391.026C433.913 381.491 428.499 372.545 420.68 366.901C413.92 362.021 406.251 360.05 397.987 360.207Z"/>
	<path transform="scale(1.66211 1.66211)" d="M618.123 444.859C607.042 445.084 595.868 442.358 587.029 435.391C577.574 427.938 571.522 415.756 570.261 403.882C568.955 391.581 572.435 379.1 580.348 369.533C588.629 359.52 600.057 354.424 612.802 353.205C624.151 352.689 635.166 355.812 644.031 363.055C653.437 370.74 659.127 381.751 660.313 393.807C661.556 406.436 657.56 419.622 649.407 429.389C641.413 438.966 630.363 443.797 618.123 444.859ZM611.799 361.158C601.305 362.649 591.871 367.237 585.434 375.892C579.226 384.239 576.848 394.821 578.473 405.048C580.132 415.489 585.474 424.518 594.079 430.729C602.304 436.668 610.629 438.144 620.543 437.444C631.552 435.015 640.294 429.762 646.5 420.146C652.176 411.349 654.137 400.166 651.783 389.967C649.545 380.27 643.647 371.269 635.058 366.078C628.423 362.068 619.506 360.088 611.799 361.158Z"/>
	<path transform="scale(1.66211 1.66211)" d="M336.082 421.523L336.017 421.52C335.145 420.64 335.345 417.796 335.333 416.496C335.132 395.231 346.846 374.256 361.255 359.449L361.568 359.689C361.259 362.697 354.472 372.257 352.664 376.103C345.755 390.803 339.815 405.676 336.082 421.523Z"/>
	<path transform="scale(1.66211 1.66211)" d="M401.127 425.279C395.348 426.019 388.054 423.404 383.503 420.059C377.461 415.617 373.625 408.921 372.741 401.482C371.87 394.151 373.959 386.142 378.584 380.375C383.767 373.91 390.672 371.7 398.545 370.686C404.531 369.88 412.442 372.696 417.079 376.198C422.939 380.623 426.481 387.541 427.288 394.781C428.098 402.034 425.77 409.35 421.265 415.046C415.977 421.731 409.315 424.3 401.127 425.279ZM410.479 381.56C407.601 382.984 405.246 384.421 404.135 387.606C403.396 389.724 403.612 392.136 404.683 394.103C405.935 396.404 408.238 398.159 410.772 398.812C412.336 399.215 413.919 399.115 415.508 398.983C418.42 397.625 420.765 396.115 421.907 392.953C422.662 390.862 422.545 388.472 421.578 386.469C420.433 384.097 418.265 382.349 415.756 381.591C414.046 381.076 412.218 381.361 410.479 381.56Z"/>
	<path transform="scale(1.66211 1.66211)" d="M617.946 429.012C610.821 429.259 604.493 428.117 598.588 423.859C592.238 419.28 588.381 412.275 587.111 404.634C585.825 396.891 587.59 388.933 592.187 382.542C597.268 375.477 604.317 372.066 612.75 370.626C618.654 369.979 624.809 371.501 629.869 374.589C636.358 378.55 640.512 385.038 642.144 392.367C644.003 400.714 642.86 409.174 638.168 416.418C633.237 424.032 626.448 427.244 617.946 429.012ZM624.474 380.115C621.356 380.715 618.689 381.953 616.886 384.69C615.447 386.874 615.099 389.645 615.693 392.168C616.361 395 618.354 397.61 620.897 399.023C622.647 399.995 624.491 400.137 626.449 400.224C629.752 399.199 632.05 398.028 633.764 394.885C635.059 392.511 635.431 389.709 634.66 387.102C633.901 384.533 632.038 382.447 629.663 381.247C628.019 380.417 626.281 380.275 624.474 380.115Z"/>
	<path transform="scale(1.66211 1.66211)" d="M754.78 475.741C756.704 453.561 760.038 430.435 772.556 411.442C779.535 400.853 788.247 391.758 801.059 389.108C803.594 388.862 805.94 388.708 808.47 389.184C813.441 390.119 817.385 392.636 820.133 396.91C828.131 409.351 824.432 426.93 821.528 440.358C820.933 430.33 820.735 418.831 815.329 409.979C812.89 405.984 809.272 402.233 804.506 401.31C799.269 400.296 795.152 403.061 790.979 405.738C797.69 407.044 801.068 408.991 806.052 413.629C802.881 412.935 800.125 412.439 796.873 412.99C792.202 413.783 785.316 416.947 782.567 420.989C776.781 429.496 792.893 439.412 797.449 445.425C800.816 449.87 802.599 454.405 803.637 459.855C803.882 462.567 803.762 465.466 803.327 468.156C801.615 478.736 796.161 485.451 787.646 491.597C790.087 486.919 792.148 482.387 792.533 477.04C792.878 472.246 791.678 466.927 788.41 463.271C786.268 460.873 783.441 459.661 780.244 459.587C769.141 459.33 761.876 468.728 754.78 475.741Z"/>
	<path transform="scale(1.66211 1.66211)" d="M572.822 506.836C584.088 509.659 607.963 525.914 618.1 532.757L627.871 530.545C618.763 523.751 609.609 517.051 600.32 510.508C593.937 506.012 587.227 501.699 581.123 496.843C593.391 502.238 605.576 507.765 617.381 514.121C624.483 517.946 631.597 523.08 638.966 526.217C640.855 527.021 643.656 527.896 645.675 527.027C646.158 526.819 646.473 526.508 646.857 526.177C647.037 525.06 647.111 524.856 646.425 523.87C642.676 518.478 608.995 502.354 601.242 499.027C594.642 496.194 587.629 494.056 581.161 490.984C589.645 492.015 598.037 493.691 606.407 495.394C626.544 499.489 652.358 504.659 665.746 521.676C672.226 529.912 673.959 539.752 672.67 549.975C670.45 567.587 662.137 583.015 650.349 596.042C659.752 580.453 665.6 561.908 660.998 543.7C660.058 539.983 658.699 536.476 657.164 532.971L644.864 540.262C635.256 577.129 614.931 612.737 581.305 632.449C549.291 651.216 501.083 653.311 465.487 643.99C434.063 635.761 409.326 612.24 393.3 584.703C384.081 568.863 378.403 551.537 370.223 535.288C370.003 535.301 369.783 535.312 369.564 535.329C366.622 535.549 360.449 538.352 358.256 537.653C358.365 536.02 358.773 535.263 360.015 534.173C364.296 530.415 370.264 529.751 374.416 526.211C387.298 515.859 407.164 508.223 422.446 501.809C426.922 499.931 431.278 497.748 435.912 496.273L436.246 496.352C424.464 503.317 395.259 519.975 386.383 528.716L393.265 529.876C406.126 520.195 438.51 502.511 453.998 497.409C450.176 492.18 446.714 486.437 447.941 479.647C448.807 474.856 451.913 470.892 455.883 468.198C465.563 461.627 486.817 461.406 498.817 460.889C498.668 460.955 498.519 461.022 498.368 461.086C488.651 465.174 464.004 467.333 459.601 477.511C458.418 480.246 459.045 483.243 460.231 485.863C461.549 488.778 463.789 490.801 466.838 491.779C472.91 493.728 479.927 491.664 486.225 492.623C496.001 494.112 503.425 501.128 513.897 499.287C522.196 497.828 529.28 490.398 537.837 490.644C542.077 490.766 550.707 495.597 553.613 494.408C555.818 493.506 557.581 490.628 558.24 488.457C559.187 485.331 558.386 481.728 556.715 478.998C550.065 468.14 532.241 463.243 520.821 460.339C534.105 459.481 549.919 461.113 560.299 470.405C564.551 474.211 567.296 479.539 567.395 485.296C567.501 491.52 564.606 497.624 560.163 501.9C554.494 507.358 546.973 509.634 539.243 509.355L538.769 509.335C531.36 518.134 525.482 519.538 514.927 522.358C517.222 529.47 518.866 536.439 519.307 543.917C524.57 543.175 530.125 543.242 535.436 543.299C532.942 535.476 529.859 527.515 529.058 519.299C535.122 525.937 539.709 535.083 543.264 543.341C547.956 542.492 552.61 541.93 557.349 541.456C552.253 532.152 546.76 522.623 542.448 512.931C551.904 521.501 559.262 530.925 566.912 541.086C571.699 539.77 577.155 539.911 582.098 539.268C573.727 529.903 565.11 520.349 557.51 510.356C568.407 518.465 585.036 527.707 593.962 537.136C598.151 536.204 602.371 535.632 606.578 534.826C599.283 529.632 578.119 513.069 572.822 506.836ZM467.792 540.464C474.913 532.912 481.952 524.727 489.674 517.817C488.123 524.641 481.466 534.379 478.491 541.389C482.545 541.667 486.771 542.066 490.737 542.942C492.747 535.289 496.853 527.549 500.165 520.335C499.489 527.972 498.785 535.586 497.785 543.189C502.533 543.567 507.13 543.612 511.868 544.33C512.621 537.087 513.27 529.787 513.583 522.51C499.516 523.077 495.782 517.805 484.169 511.49C478.754 508.545 473.017 506.482 467.15 504.645C463.985 507.887 460.591 510.926 457.281 514.02C450.087 521.47 442.169 528.212 435.108 535.769C438.646 536.072 442.047 536.578 445.514 537.339C452.31 532.012 459.23 526.844 466.14 521.666C471.275 517.818 476.416 513.47 482.156 510.574C482.078 510.678 481.998 510.78 481.922 510.885C475.089 520.216 464.572 529.584 456.759 538.864C460.381 539.586 464.13 539.959 467.792 540.464ZM455.44 498.516C447.682 503.858 412.448 524.089 409.363 531.136C409.965 531.975 411.125 531.945 412.125 532.109C414.893 532.563 417.714 532.844 420.498 533.182C421.063 533.249 422.301 533.568 422.805 533.458C423.346 533.339 460.082 507.614 463.242 505.144C463.673 504.807 464.086 504.448 464.504 504.095C461.282 502.405 458.279 500.805 455.44 498.516ZM387.931 543.773C395.29 561.437 410.467 573.036 427.875 580.234C471.035 598.081 553.161 596.706 596.514 578.635C605.364 574.946 613.48 569.693 620.25 562.877C625.55 556.692 629.02 551.104 632.025 543.528C609.103 550.119 585.815 555.942 562.135 559.055C504.422 566.642 443.94 558.345 387.931 543.773ZM586.605 590.09C550.951 604.113 493.28 602.847 455.834 596.961C446.83 595.546 438.209 592.703 429.288 591.061C424.483 593.615 420.281 595.337 414.976 596.519C421.504 606.365 430.763 614.039 440.76 620.186C472.155 638.456 515.177 640.338 549.927 631.244C571.335 625.641 592.219 613.886 606.164 596.451C598.571 595.522 593.169 594.312 586.605 590.09Z"/>
	<path transform="scale(1.66211 1.66211)" d="M704.427 516.64C703.307 511.542 713.055 476.725 714.982 469.289C715.229 469.882 715.32 470.012 715.404 470.742C716.503 480.28 709.947 508.91 704.427 516.64Z"/>
	<path transform="scale(1.66211 1.66211)" d="M363.587 577.225C355.29 569.546 345.699 549.858 345.256 538.479C344.959 530.865 348.391 523.991 353.582 518.629C368.743 502.967 411.031 494.153 432.867 491.382C435.466 491.128 438.033 490.81 440.616 490.424C440.454 490.513 440.294 490.605 440.131 490.692C433.845 494.068 426.536 496.144 419.845 498.592C406.045 503.639 374.35 515.425 363.671 523.679C359.746 526.713 356.346 530.592 354.816 535.389C351.316 546.361 359.267 566.695 363.587 577.225Z"/>
	<path transform="scale(1.66211 1.66211)" d="M351.946 589.708C351.557 589.488 351.403 589.419 351.023 589.094C346.395 585.129 342.652 579.391 339.188 574.407C327.036 556.921 317.674 536.97 314.382 515.798C313.514 510.217 313.336 504.477 312.997 498.844C315.208 502.135 316.49 507.542 317.844 511.309C320.478 518.636 323.101 525.964 326.016 533.185C333.818 552.511 342.585 571.109 351.946 589.708Z"/>
	<path transform="scale(1.66211 1.66211)" d="M305.026 505.243L305.373 505.498L305.026 505.243Z"/>
	<path transform="scale(1.66211 1.66211)" d="M572.822 506.836L572.543 506.62L572.822 506.836Z"/>
	<path transform="scale(1.66211 1.66211)" d="M673.185 579.498C673.208 578.665 673.101 578.923 673.458 578.257C681.682 562.916 687.049 546.678 691.282 529.826C692.862 523.538 693.932 517.097 695.722 510.869C695.816 511.467 695.841 511.549 695.873 512.248C696.12 517.64 695.53 523.513 694.886 528.871C692.578 548.078 686.517 565.19 673.185 579.498Z"/>
	<path transform="scale(1.66211 1.66211)" d="M489.674 517.817L489.878 517.503L489.674 517.817Z"/>
	<path transform="scale(1.66211 1.66211)" d="M363.587 577.225L363.878 577.497L363.587 577.225Z"/>
	<path transform="scale(1.66211 1.66211)" d="M669.118 594.569L669.386 594.019L669.118 594.569Z"/>
	<path transform="scale(1.66211 1.66211)" d="M649.658 615.574L649.932 615.035L649.658 615.574Z"/>
	<path transform="scale(1.66211 1.66211)" d="M381.408 623.289L381.123 623.003L381.408 623.289Z"/>
	<path transform="scale(1.66211 1.66211)" d="M627.16 632.822L627.389 632.519L627.16 632.822Z"/>
	<path transform="scale(1.66211 1.66211)" d="M491.152 703.383C479.774 703.833 463.083 698.225 452.637 693.345C432.311 683.849 410.219 662.729 402.386 641.359C404.071 642.392 415.213 656.293 418.78 659.765C437.63 678.111 466.85 694.225 491.152 703.383Z"/>
	<path transform="scale(1.66211 1.66211)" d="M513.508 703.467C513.957 702.212 516.252 702.019 517.529 701.735C525.668 699.928 533.34 696.503 540.906 693.073C569.985 679.89 585.07 667.196 607.369 644.959C607.564 647.663 598.563 660.185 596.658 662.723C580.892 683.727 556.877 695.541 531.624 700.765C525.651 702.001 519.544 702.6 513.508 703.467Z"/>
	<path transform="scale(1.66211 1.66211)" d="M470.246 676.95C479.429 668.011 496.244 667.04 508.22 665.645L509.028 666.032L509.147 665.31L509.679 665.287C509.232 664.851 509.494 664.965 508.882 664.918C489.703 663.451 471.263 663.744 453.344 655.314L453.548 654.744C465.266 654.251 477.313 655.174 489.066 655.299L559.332 655.518C547.542 660.852 534.795 662.677 522 663.899C517.511 664.328 512.776 664.312 508.411 665.477C521.873 667.449 536.235 667.322 547.181 676.684C545.503 678.33 542.909 679.127 540.714 679.889C521.769 686.469 488.388 685.742 470.246 676.95Z"/>
	<path transform="scale(1.66211 1.66211)" d="M384.718 807.57C375.974 803.231 368.544 795.232 362.182 787.98C351.347 775.631 328.557 743.285 329.624 727.245C331.512 728.291 342.813 748.124 344.913 751.308C353.401 764.181 362.984 776.599 372.067 789.075C376.39 795.014 381.479 800.959 384.718 807.57Z"/>
	<path transform="scale(1.66211 1.66211)" d="M363.931 832.197C361.316 831.872 356.836 825.552 355.251 823.578C338.716 802.98 325.222 776.156 319.083 750.487C317.913 745.595 316.505 739.946 317.064 734.895C317.745 735.453 332.91 769.603 334.514 773.051C343.79 792.984 353.895 812.633 363.931 832.197Z"/>
	<path transform="scale(1.66211 1.66211)" d="M575.626 750.997L575.926 750.731L575.626 750.997Z"/>
	<path transform="scale(1.66211 1.66211)" d="M172.704 817.307L172.936 817.074L172.704 817.307Z"/>
</svg>
