<?xml version="1.0" encoding="utf-8" ?>
<svg xmlns="http://www.w3.org/2000/svg" xmlns:xlink="http://www.w3.org/1999/xlink" width="1702" height="1702">
	<path fill="#FEFEFE" transform="scale(1.66211 1.66211)" d="M0 0L1024 0L1024 1024L0 1024L0 0Z"/>
	<path fill="#231F20" transform="scale(1.66211 1.66211)" d="M367.634 546.834C368.135 546.819 368.638 546.992 369.125 547.104L369.265 548.099C367.402 552.371 363.183 556.243 360.041 559.674C359.101 559.296 359.417 559.524 358.69 558.841C358.11 558.295 357.942 557.906 358.086 557.067C358.749 553.221 364.577 548.94 367.634 546.834Z"/>
	<path fill="#231F20" transform="scale(1.66211 1.66211)" d="M367.06 531.075L368.068 531.771C367.528 534.717 352.725 545.457 349.789 547.799C348.679 547.247 348.538 547.12 347.867 546.077C347.862 544.768 348.243 544.016 348.982 542.977C352.782 537.627 360.67 532.34 367.06 531.075Z"/>
	<path fill="#231F20" transform="scale(1.66211 1.66211)" d="M352.447 655.478C354.428 655.438 356.595 655.307 358.317 656.428C359.449 657.164 359.859 657.759 360.093 659.048L359.289 659.928C357.328 660.739 355.765 660.34 353.718 660.008C352.35 666.266 351.242 672.598 350.037 678.89C349.766 680.265 349.636 681.566 348.741 682.696L348.023 682.637C345.408 678.593 346.688 669.094 347.576 664.537C348.326 660.687 349.09 657.766 352.447 655.478Z"/>
	<path fill="#231F20" transform="scale(1.66211 1.66211)" d="M588.241 709.853C590.495 709.952 592.191 710.326 593.964 711.818C596.111 713.625 597.223 716.037 597.359 718.817C597.519 722.113 596.305 723.892 594.121 726.208C592.831 726.749 592.248 727.051 590.821 726.76C587.751 724.871 587.017 721.026 585.886 717.809C586.59 715.127 587.236 712.441 588.241 709.853Z"/>
	<path fill="#231F20" transform="scale(1.66211 1.66211)" d="M448.685 723.385C450.673 723.373 453.538 723.386 455.275 724.465C457.476 725.832 457.853 734.053 458.035 736.777C458.135 738.277 457.89 738.552 456.912 739.689C455.365 739.763 453.597 739.955 452.103 739.48C450.238 738.888 448.827 737.357 448.022 735.616C446.335 731.968 447.225 726.958 448.685 723.385Z"/>
	<path fill="#231F20" transform="scale(1.66211 1.66211)" d="M290.572 833.869C295.028 834.515 311.514 838.701 314.969 840.639C316.153 841.304 316.578 841.685 316.92 842.985L316.196 844.215C312.029 845.164 308.517 844.509 304.389 843.7C299.93 842.826 292.789 841.731 290.085 837.705C289.724 836.237 290.125 835.249 290.572 833.869Z"/>
	<path fill="#231F20" transform="scale(1.66211 1.66211)" d="M225.342 812.788C228.288 813.306 232.026 818.775 234.752 820.643C239.598 823.964 245.165 826.319 250.482 828.776L246.861 832.018C237.299 830.262 231.75 829.387 224.44 822.193C223.094 820.868 221.963 819.12 222.125 817.15C222.306 814.964 223.72 813.953 225.342 812.788Z"/>
	<path fill="#231F20" transform="scale(1.66211 1.66211)" d="M212.735 771.871C212.92 771.937 213.11 771.992 213.291 772.07C215.157 772.876 216.377 774.983 217.555 776.556C219.781 779.524 221.798 782.676 224.225 785.486C236.105 799.239 251.926 809.275 267.886 817.638C269.829 818.656 273.844 820.131 274.677 822.24C270.585 823.415 267.154 822.983 263.199 821.471C249.765 816.337 230.068 799.239 221.637 787.898C217.905 782.879 215.206 777.599 212.735 771.871Z"/>
	<path fill="#231F20" transform="scale(1.66211 1.66211)" d="M364.754 636.219C372.683 635.601 381.087 635.861 388.967 636.759C371.869 641.704 353.99 642.27 336.396 644.156C337.409 658.771 339.725 673.23 340.463 687.875C340.618 693.476 341.751 699.602 340.367 705.091L339.787 705.266C335.782 698.264 331.716 655.624 330.753 644.83C330.653 643.712 330.4 642.28 331.168 641.421C335.609 636.455 358.002 636.506 364.754 636.219Z"/>
	<path fill="#231F20" transform="scale(1.66211 1.66211)" d="M164.459 773.403C167.479 774.593 170.872 782.559 172.829 785.614C178.492 794.455 185.18 803.694 192.608 811.113C206.685 825.172 224.799 835.74 242.826 843.838C248.235 846.267 264.501 849.733 267.364 853.061C267.581 854.535 267.447 854.787 266.866 856.179C258.931 857.292 250.633 853.568 243.612 850.284C222.325 840.328 198.561 825.108 183.362 807.25C178.003 800.955 173.666 794.001 169.747 786.743C167.885 783.295 165.397 779.705 164.175 775.978C163.739 774.646 163.823 774.569 164.459 773.403Z"/>
	<path fill="#231F20" transform="scale(1.66211 1.66211)" d="M450.873 68.4483C451.893 68.4261 452.916 68.4123 453.936 68.474C456.059 68.6024 457.774 69.5167 459.123 71.1665C463.965 77.0879 474.083 114.712 473.195 122.066C472.478 123.603 471.271 124.136 469.872 124.951C468.687 124.366 467.567 123.776 466.566 122.9C458.207 115.584 448.094 84.4902 447.002 73.2531C448.155 71.4342 449.345 69.9652 450.873 68.4483Z"/>
	<path fill="#231F20" transform="scale(1.66211 1.66211)" d="M276.768 202.613C284.262 202 291.012 202.705 298.098 205.301C306.056 208.217 320.336 215.132 324.082 223.214C323.71 223.452 322.648 224.307 322.283 224.36C317.268 225.083 297.361 206.798 278.405 210.323L277.63 210.471C280.882 213.891 284.742 216.266 288.763 218.674C293.089 220.837 297.876 223.144 302.52 224.508C308.299 226.204 318.024 227.245 322.855 230.161C324.091 230.907 324.159 231.46 324.582 232.742C324.188 234.211 324.076 234.321 322.931 235.335C317.23 237.107 307.021 233.575 301.564 231.746C292.621 228.747 274.144 220.405 269.999 211.331C269.36 209.93 269.119 208.311 269.826 206.88C271.156 204.186 274.132 203.437 276.768 202.613Z"/>
	<path fill="#231F20" transform="scale(1.66211 1.66211)" d="M337.542 137.634C347.203 137.84 356.408 142.444 363.932 148.267C370.983 153.725 380.021 162.535 380.94 171.9C381.132 173.859 381.008 175.411 379.693 176.948C378.182 177.582 377.845 177.797 376.168 177.569C365.995 171.011 335.436 155.646 331.211 145.317C330.667 143.985 330.464 142.514 331.214 141.207C332.476 139.009 335.221 138.079 337.542 137.634Z"/>
	<path fill="#FEFEFE" transform="scale(1.66211 1.66211)" d="M338.774 145.944C350.616 147.813 366.354 161.405 374.458 170.068C369.172 168.324 342.876 150.764 338.774 145.944Z"/>
	<path fill="#231F20" transform="scale(1.66211 1.66211)" d="M370.83 495.125C372.303 495.02 373.257 495.077 374.481 495.892L374.498 496.809C372.862 499.719 360.032 504.424 356.357 506.226C313.102 527.425 285.535 576.362 270.551 620.281L269.456 620.779C268.636 620.339 268.357 619.997 267.877 619.206C266.113 602.848 289.957 560.665 299.961 546.944C316.433 524.353 342.14 499.644 370.83 495.125Z"/>
	<path fill="#231F20" transform="scale(1.66211 1.66211)" d="M616.679 83.5503C619.063 83.3169 621.152 83.2985 623.403 84.2498C624.876 84.8721 625.919 85.8413 626.429 87.3983C630.963 101.234 597.605 123.675 588.929 131.989C584.808 135.939 581.261 140.211 578.652 145.304C578.556 145.47 578.468 145.642 578.363 145.802C577.421 147.233 576.618 147.605 575.029 147.915C573.619 147.535 573.062 147.28 572.093 146.178C570.57 141.751 573.262 136.426 574.97 132.354C582.931 113.376 596.893 91.7085 616.679 83.5503Z"/>
	<path fill="#FEFEFE" transform="scale(1.66211 1.66211)" d="M618.407 90.4424C619.128 90.8291 619.125 91.0474 619.515 91.7367C619.063 99.8622 599.577 114.522 593.508 119.935C590.229 122.859 587.172 125.901 584.183 129.119L583.737 129.235C583.781 128.732 583.77 128.525 583.982 128C585.104 125.212 587.398 122.176 588.994 119.588C596.715 107.07 605.027 97.0261 618.407 90.4424Z"/>
	<path fill="#231F20" transform="scale(1.66211 1.66211)" d="M214.934 296.238L215.446 296.483C216.164 297.481 216.471 297.7 216.273 298.991C215.642 303.1 213.151 308.035 211.759 312.076C208.598 321.25 204.512 339.506 207.876 348.838C210.775 356.883 219.695 348.349 224.94 350.864C225.749 351.706 226.215 352.36 226.399 353.542C226.915 356.859 226.161 360.599 225.791 363.912C224.727 373.455 221.951 388.263 225.088 397.222C225.529 398.482 226.103 399.096 227.301 399.698C231.708 400.142 235.929 396.5 239.851 394.791C241.808 393.938 243.239 393.382 245.341 394.206C249.31 398.14 247.087 416.867 247.604 423.286C248.024 428.503 249.088 433.669 251.179 438.484C257.452 452.927 275.628 461.883 278.224 468.058C278.047 469.598 277.89 469.659 276.824 470.812C269.193 468.207 261.744 462.639 255.96 457.102C240.211 442.022 240.466 424.148 240.011 403.891C236.032 405.503 231.619 407.779 227.207 407.317C224.522 407.036 222.253 405.632 220.685 403.451C213.297 393.174 219.012 368.539 221.322 356.597C220.151 356.966 218.969 357.302 217.783 357.619C213.88 358.661 209.634 359.123 206.039 356.855C203.35 355.159 201.863 352.165 201.155 349.157C197.268 332.633 206.118 309.908 214.934 296.238Z"/>
	<path fill="#231F20" transform="scale(1.66211 1.66211)" d="M731.931 236.304L732.493 236.686C733.508 239.813 726.266 253.958 725.081 258.456C724.532 260.541 723.914 263.194 725.342 265.078C729.305 270.306 744.094 260.204 750.243 261.814C762.697 265.072 743.631 295.914 749.196 304.295C752.418 309.147 761.43 303.539 766.1 304.726C767.403 305.057 768.128 305.533 768.817 306.697C773.231 314.148 761.506 336.663 759.314 344.82C758.211 348.927 756.659 355.736 759.081 359.518C761.592 363.439 765.85 361.233 769.394 362.268C770.189 362.5 770.187 362.881 770.57 363.547C770.117 369.555 757.591 394.647 754.384 402.404L753.386 403.502L752.344 403.427L751.83 402.601C751.513 397.676 754.22 389.758 756.225 385.224C758.42 380.257 759.973 375.132 762.337 370.202C758.174 368.945 755.207 367.842 752.772 363.936C744.211 350.202 759.318 326.58 762.455 312.575C758.683 313.327 755.157 314.316 751.277 313.711C747.941 313.191 745.098 311.523 743.229 308.681C736.915 299.079 745.27 279.463 747.295 269.013C741.764 270.434 736.71 273.247 730.92 273.686C727.339 273.957 722.759 273.522 720.036 270.9C718.131 269.067 717.483 266.433 717.512 263.862C717.613 255.01 725.887 242.356 731.931 236.304Z"/>
	<path fill="#231F20" transform="scale(1.66211 1.66211)" d="M569.874 718.255C572.998 710.285 576.696 702.55 579.777 694.553C582.681 687.017 584.918 678.871 588.436 671.622C589.324 669.794 590.694 667.084 592.547 666.048C593.731 665.386 594.002 665.443 595.2 665.808C596.555 667.248 597.014 668.725 597.12 670.677C597.208 672.314 597.024 674.02 596.464 675.568C594.836 680.065 591.779 684.275 589.828 688.692C585.775 697.867 581.203 716.476 575.023 723.35C574.192 724.275 572.953 725.319 571.734 725.642C568.722 726.438 557.324 726.911 553.259 727.34C527.198 730.086 501.271 732.138 475.094 733.298C476.095 734.851 476.807 735.885 476.912 737.759L476.379 738.916C475.272 739.231 474.782 739.213 473.704 738.578C472.451 737.84 471.66 735.575 471.06 734.295C464.953 724.444 461.953 714.486 455.097 704.316C453.509 701.961 449.22 696.731 449.327 694.042C450.179 692.748 450.677 692.032 452.149 691.364C453.109 691.299 453.683 691.315 454.588 691.715C456.852 692.718 458.722 695.611 460.138 697.571C466.809 706.8 470.631 715.473 474.51 726.08C494.709 724.675 514.869 722.854 535.035 721.066C546.623 720.038 558.25 718.737 569.874 718.255Z"/>
	<path fill="#231F20" transform="scale(1.66211 1.66211)" d="M701.858 156.666C707.6 155.805 716.107 156.131 721.353 158.759C723.257 159.714 724.841 161.346 725.511 163.384C726.334 165.887 725.839 168.543 724.531 170.784C718.644 180.871 696.909 181.168 686.709 183.077C678.705 184.576 670.772 186.505 662.891 188.547C658.207 189.646 647.458 194.772 643.11 192.995C641.867 192.487 641.761 192.198 641.246 191.056C641.25 189.116 642.353 187.511 643.447 185.987C655.923 168.603 681.657 159.846 701.858 156.666Z"/>
	<path fill="#FEFEFE" transform="scale(1.66211 1.66211)" d="M702.264 162.685C706.826 162.186 711.723 161.885 716.091 163.543C717.66 164.138 718.414 164.741 719.144 166.239C718.98 166.873 718.994 166.983 718.599 167.61C714.805 173.627 689.407 176.143 682.029 177.63C675.899 178.865 669.851 180.405 663.802 181.979C659.249 183.599 654.365 184.732 649.646 185.721C661.943 171.784 684.413 164.958 702.264 162.685Z"/>
	<path fill="#231F20" transform="scale(1.66211 1.66211)" d="M587.578 637.277C599.727 636.584 611.128 638.049 623.2 638.772C626.608 638.976 632.337 638.192 635.294 639.507L635.438 640.401C635.156 640.873 635.147 640.944 634.686 641.387C632.21 643.771 627.562 644.627 624.284 644.908C617.61 645.48 610.691 644.935 603.977 645.063C592.124 645.288 580.294 645.945 568.463 646.67C531.761 648.917 495.091 652.824 458.377 654.586C456.519 654.825 454.637 654.93 452.769 655.065C445.562 655.586 415.992 658.398 411.77 654.749L412.65 655.297L412.126 654.304C413.664 652.838 417.13 652.217 419.213 651.848C435.999 648.87 453.534 648.016 470.499 646.398C494.68 644.093 518.788 641.393 543.021 639.638C557.855 638.564 572.713 637.736 587.578 637.277Z"/>
	<path fill="#231F20" transform="scale(1.66211 1.66211)" d="M194.506 513.687C195.551 513.435 196.928 513.297 197.986 513.579C199.326 513.936 199.737 514.679 200.397 515.799C200.609 517.635 200.152 518.999 199.604 520.744C197.391 527.792 199.936 566.685 200.971 576.003C201.539 581.113 202.417 586.223 203.608 591.226C204.832 596.37 207.895 600.834 209.447 605.853C209.969 607.538 210.427 609.636 209.305 611.183C208.182 612.73 206.099 613.339 204.341 613.796C198.332 615.357 191.894 615.664 185.79 617.017C170.668 620.371 155.693 624.385 140.545 627.663C122.859 631.49 105.457 633.268 87.3756 632.924C83.6201 632.852 78.021 633.338 74.8389 631.084C73.6451 630.239 72.7622 629.013 72.1522 627.696C70.1405 623.351 69.1915 617.653 68.0026 612.997C63.2808 594.502 59.2347 575.957 56.647 557.034C55.9287 551.781 52.6978 532.604 55.6393 528.731C56.9153 528.221 56.881 528.13 58.1526 528.603C60.8334 532.225 62.3765 552.631 63.5246 558.472C67.9309 580.892 72.9202 603.967 80.8786 625.422L92.9136 625.687C115.228 625.576 137.789 621.377 159.419 616.017C173.526 612.521 187.066 608.351 201.606 606.852C191.539 582.528 192.195 548.011 192.459 521.797C167.9 524.716 143.313 529.278 119.172 534.621C104.217 537.931 89.153 542.271 74.0115 544.499C70.8796 544.959 65.6501 545.592 62.9348 544.027C65.0205 541.264 73.2875 539.409 76.69 538.288C115.045 525.645 154.641 519.425 194.506 513.687Z"/>
	<path fill="#231F20" transform="scale(1.66211 1.66211)" d="M170.267 541.155C171.5 541.239 172.853 541.45 174.014 541.901C175.239 542.376 175.755 543.137 176.117 544.354C177.41 548.708 177.571 553.701 178.064 558.206C179.288 569.386 180.8 589.73 184.642 599.971C181.313 602.155 177.811 604.617 174.111 606.125C165.101 609.797 152.446 610.667 142.755 612.454C127.359 615.294 109.388 620.095 93.9844 620.606C92.3824 620.659 91.2544 620.342 89.7838 619.735C82.4061 611.866 74.9174 567.675 73.2647 554.692C78.4254 553.819 83.7796 554.048 88.994 553.39L141.86 546.79C151.465 545.511 160.716 542.393 170.267 541.155Z"/>
	<path fill="#FEFEFE" transform="scale(1.66211 1.66211)" d="M139.541 575.435L139.958 575.93C140.004 579.086 138.77 582.112 137.333 584.874C135.465 588.464 130.852 596.745 126.96 597.991L126.283 596.898C127.142 593.424 134.008 581.717 136.254 578.654C137.147 577.434 138.397 576.408 139.541 575.435Z"/>
	<path fill="#FEFEFE" transform="scale(1.66211 1.66211)" d="M112.542 560.352C112.873 560.505 113.302 560.984 113.579 561.234C113.551 562.288 113.188 562.965 112.595 563.825C109.612 568.151 105.962 572.147 102.793 576.355C100.247 579.736 98.1578 583.501 95.2642 586.596C94.0048 585.72 93.7791 585.737 93.3559 584.29C95.0378 575.008 105.718 566.267 112.542 560.352Z"/>
	<path fill="#FEFEFE" transform="scale(1.66211 1.66211)" d="M128.91 564.401L129.268 564.745C129.175 566.707 113.537 592.928 111.448 596.138C109.846 598.602 109.037 600.122 106.035 600.777C105.615 600.285 105.45 599.883 105.196 599.294C106.745 591.397 122.769 569.929 128.91 564.401Z"/>
	<path fill="#231F20" transform="scale(1.66211 1.66211)" d="M928.406 441.062C930.271 440.932 932.045 440.618 933.649 441.798C944.09 449.484 948.416 489.88 950.474 502.95C951.65 510.414 953.406 517.984 954.19 525.484C954.401 527.506 954.301 529.231 952.664 530.715C946.485 536.316 851.101 543.739 836.74 544.423C829.2 544.782 821.008 545.221 813.525 544.205C810.378 541.523 809.364 529.263 808.396 524.814C805.814 512.954 802.449 499.812 797.502 488.7C794.92 482.898 787.596 471.945 786.489 466.995C786.893 465.691 786.92 465.436 788.251 464.801C791.972 463.024 797.48 462.563 801.522 461.776C814.723 459.206 827.973 457.134 841.196 454.733C852.803 452.626 864.16 449.633 875.881 448.094C885.555 446.823 922.157 445.207 927.981 441.353C928.124 441.258 928.264 441.159 928.406 441.062Z"/>
	<path fill="#FEFEFE" transform="scale(1.66211 1.66211)" d="M922.762 450.738C925.455 450.707 928.128 450.597 930.816 450.445C940.488 474.078 942.751 500.678 946.254 525.825C923.105 529.229 899.815 532.286 876.55 534.781C857.742 536.798 838.475 538.892 819.548 537.92C818.985 537.727 818.349 537.66 817.977 537.159C816.907 535.715 813.852 518.892 812.938 515.444C808.647 499.269 803.375 484.136 795.829 469.181C806.213 467.189 816.496 464.637 826.914 462.818C858.634 457.278 890.711 453.677 922.762 450.738Z"/>
	<path fill="#231F20" transform="scale(1.66211 1.66211)" d="M910.191 462.692C912.259 462.305 914.571 462.437 916.681 462.376C916.25 471.968 919.921 479.14 923.016 487.948C925.119 493.93 929.59 507.691 925.669 513.554C924.993 514.565 924.491 514.693 923.399 515.041C918.098 516.731 912.213 517.346 906.756 518.486C894.739 520.997 840.555 533.11 831.954 528.649C820.666 512.103 819.997 494.843 811.907 478.169C827.053 473.673 845.065 474.298 860.828 471.863C867.728 470.797 874.481 468.915 881.299 467.44C890.742 465.398 900.595 463.777 910.191 462.692Z"/>
	<path fill="#231F20" transform="scale(1.66211 1.66211)" d="M490.209 169.678C497.722 169.116 505.05 169.265 512.186 171.96C520.002 174.912 526.539 180.547 529.838 188.323C533.916 197.936 532.247 207.535 528.353 216.853C542.049 206.781 564.607 196.98 581.702 196.969C589.199 196.964 595.881 199.579 601.143 204.99C626.129 230.68 618.123 294.395 617.832 327.52C618.381 328.307 618.094 328.051 618.878 328.572C619.882 329.237 621.156 329.882 621.872 330.882C622.678 332.006 623.035 333.099 622.802 334.487C622.453 336.559 621.001 337.261 619.37 338.29L618.782 338.654C617.218 341.791 620.108 355.544 620.695 359.822C625.181 358.521 629.847 358.048 634.504 358.483C642.225 359.203 648.971 362.748 653.847 368.806C662.507 379.562 664.186 394.707 662.57 408C661.287 418.559 657.624 430.502 648.759 437.18C643.173 441.389 637.332 442.054 630.606 441.021C630.913 455.095 630.181 469.066 629.71 483.12C629.389 492.693 629.456 502.243 628.847 511.811C631.808 512.594 634.697 513.417 637.535 514.58C667.929 527.038 697.837 553.482 710.562 583.82C715.775 584.025 726.488 583.736 730.382 587.301C732.33 589.084 733.91 592.039 736.149 593.369C740.073 595.701 745.38 596.967 749.739 598.383C788.31 610.917 855.709 620.015 883.611 648.933C893.425 659.104 896.823 672.223 896.59 686.053C895.833 730.876 862.769 775.955 831.796 805.992C816.962 820.379 793.187 838.898 772.567 841.91C766.876 842.741 761.174 841.578 755.459 841.486C753.241 840.208 751.164 838.612 749.069 837.141C751.897 847.404 753.743 860.361 752.18 870.892C751.614 874.705 750.43 879.381 747.037 881.677C744.353 883.493 740.845 883.71 737.771 882.931C735.335 882.314 733.196 881.313 731.85 879.119C732.895 878.034 738.845 880.679 742.537 879.785C744.692 879.264 746.255 877.879 747.292 875.949C752.086 867.019 747.23 841.751 744.894 832.116C744.009 828.465 742.481 825.023 741.978 821.279C740.928 813.469 742.059 804.277 740.019 796.766C738.635 795.686 737.845 797.322 736.189 796.696L736.094 795.298C736.906 793.638 738.501 792.613 739.923 791.495C738.929 778.174 738.795 764.749 737.901 751.406C736.534 731.014 734.608 710.694 733.623 690.272C732.867 674.603 732.953 658.897 732.494 643.215C732.035 627.491 731.318 611.858 731.466 596.117C711.144 592.887 689.689 594.017 669.182 594.678L604.896 597.235C527.296 600.804 449.77 605.861 372.385 612.611C351.069 614.47 329.718 616.102 308.435 618.313C311.122 638.791 312.882 659.454 315.038 679.997C319.217 719.824 323.557 759.691 329.124 799.351C331.496 816.254 334.124 832.927 337.462 849.663C338.885 856.799 340.081 864.206 342.343 871.125C343.714 875.316 345.289 878.878 348.303 882.18C357.584 883.424 367.14 883.695 376.494 884.156C391.492 884.894 406.489 885.459 421.501 885.79C496.419 887.446 571.064 883.562 645.906 881.175C660.123 880.721 674.323 880.235 688.529 879.497C700.081 878.898 712.139 877.735 723.685 878.489C726.065 878.645 728.45 878.701 730.08 880.535L730.117 880.176L729.712 879.748L729.519 881.16C717.713 889.987 615.908 894.386 595.003 895.651C547.18 898.544 499.227 902.078 451.3 902.548C428.847 903.299 353.975 905.434 336.895 896.939C331.071 894.042 328.765 887.81 326.953 881.993C308.01 885.642 287.938 883.106 269.344 878.698C220.367 867.088 164.117 836.9 137.327 792.967C129.594 780.286 125.719 766.827 129.384 752.114C137.966 717.663 174.539 695.898 201.717 676.808C216.72 666.271 231.695 655.736 246.251 644.582C251.578 640.5 256.744 636.416 261.582 631.753C264.461 628.978 270.126 621.391 272.934 619.718C274.14 620.109 274.346 620.323 275.226 621.255C275.345 624.568 271.782 627.029 269.659 629.341C240.655 660.924 199.973 683.288 166.851 710.516C158.292 717.552 149.862 725.237 143.501 734.364C136.924 743.801 132.717 755.163 134.919 766.725C140.232 794.621 172.655 823.388 195.765 838.854C226.698 859.557 269.5 873.931 306.688 876.171C311.331 876.45 319.348 877.113 323.676 876.066C324.732 875.811 324.853 875.631 325.405 874.775L324.93 873.043C323.535 872.084 318.496 873.757 316.444 873.399C314.627 873.081 312.652 872.079 311.01 871.231C307.688 869.515 295.59 863.183 294.506 859.751C294.703 858.543 294.681 858.138 295.718 857.34C299.411 854.501 316.718 856.762 321.677 857.514C320.783 851.784 319.53 845.886 319.367 840.086C313.134 837.109 307.173 833.957 301.335 830.249C291.597 824.066 282.394 817.058 273.229 810.065C247.796 790.655 218.364 766.631 211.246 733.799C209.231 724.506 208.847 714.558 214.244 706.261C225.226 689.375 262.639 675.262 282.113 671.238C264.72 685.394 232.372 689.902 219.604 710.291C216.046 715.973 216.58 722.366 218.016 728.601C220.197 738.075 223.929 746.855 229.274 754.984C247.313 782.422 289.811 813.436 317.71 830.908C317.363 823.897 315.896 816.668 314.988 809.69C312.824 793.067 310.491 776.47 308.494 759.825C304.575 727.164 301.62 694.36 298.503 661.615C297.124 647.124 295.319 632.648 294.05 618.154C293.699 614.133 293.184 610.033 296.095 606.783C297.421 605.302 299.197 604.599 301.172 604.554C304.032 604.49 305.524 605.873 307.546 607.718C342.545 603.244 378.001 602.436 413.034 598.333C391.15 543.97 373.561 487.931 366.825 429.524C363.817 430.741 360.788 431.599 357.555 431.908C348.588 432.764 339.786 429.325 332.917 423.658C325.293 417.367 321.058 408.148 320.184 398.386C319.174 387.114 322.902 374.78 330.282 366.153C334.621 361.08 340.817 356.677 347.67 356.343C353.431 356.063 357.718 358.684 361.832 362.371C361.408 356.479 362.168 351.02 360.209 345.309C363.328 336.133 363.004 325.807 363.709 316.187C364.861 300.463 367.021 284.302 372.364 269.415C384.444 235.755 409.372 210.156 439.153 191.389C445.37 187.472 451.591 183.603 458.258 180.488C458.21 179.623 458.176 178.397 458.795 177.707C462.329 173.766 484.284 170.416 490.209 169.678Z"/>
	<path fill="#FEFEFE" transform="scale(1.66211 1.66211)" d="M302.544 860.125C306.612 860.349 319.337 860.358 321.829 862.742C322.181 864.553 321.736 866.092 321.343 867.868C321.166 867.952 320.993 868.047 320.811 868.119C314.911 870.436 308.415 862.826 303.303 860.469L302.544 860.125Z"/>
	<path fill="#FEFEFE" transform="scale(1.66211 1.66211)" d="M409.987 317.553C410.643 318.332 404.713 326.525 403.803 328.108C399.023 336.424 395.841 347.063 395.45 356.646C386.569 358.691 377.553 360.332 368.642 362.288C367.225 360.228 367.976 353.484 367.999 350.77C372.599 347.383 376.758 342.658 381.034 338.808C389.937 330.791 399.606 323.546 409.987 317.553Z"/>
	<path fill="#FEFEFE" transform="scale(1.66211 1.66211)" d="M621.45 366.186C625.33 365.988 629.372 365.607 633.238 366.066C639.326 366.789 644.335 369.452 648.061 374.355C654.812 383.24 656.092 396.04 654.768 406.792C653.729 415.22 650.416 426.177 643.328 431.489C639.075 434.676 635.343 434.603 630.375 433.875C629.112 424.944 629.051 415.836 627.749 406.878L625.783 392.527C628.943 390.537 634.039 386.989 637.994 388.142C646.101 390.505 642.032 406.867 645.683 411.207C646.589 412.285 646.843 412.387 648.148 412.472C650.006 411.134 650.561 408.217 651.005 406.079C652.413 399.304 651.654 391.624 647.636 385.807C645.429 382.612 642.156 380.289 638.264 379.741C632.805 378.973 628.55 381.662 624.356 384.715L621.45 366.186Z"/>
	<path fill="#FEFEFE" transform="scale(1.66211 1.66211)" d="M559.388 315.15C565.186 314.528 570.569 315.463 575.654 318.421C584.976 323.844 587.405 331.62 589.922 341.453C588.614 343.706 587.614 345.924 586.652 348.337C588.087 355.273 586.882 362.93 583.451 369.135C579.265 376.704 572.759 381.27 564.561 383.686C557.911 384.705 552.396 384.472 546.761 380.282C539.979 375.239 535.539 366.203 534.266 357.977C532.664 347.616 535.361 334.593 541.639 326.075C545.985 320.179 552.151 316.303 559.388 315.15Z"/>
	<path fill="#231F20" transform="scale(1.66211 1.66211)" d="M558.056 350.397C559.76 350.39 561.625 350.608 562.82 351.978C563.693 352.979 563.983 353.929 563.938 355.242C563.84 358.101 562.02 359.782 559.944 361.456C558.465 361.538 557.059 361.336 555.903 360.303C554.708 359.235 554.438 357.62 554.594 356.107C554.875 353.395 556.023 352.09 558.056 350.397Z"/>
	<path fill="#FEFEFE" transform="scale(1.66211 1.66211)" d="M628.645 517.25C634.324 519.92 639.81 523.777 645.062 527.207C668.052 542.221 687.899 559.269 701.227 583.722C689.234 583.941 677.238 584.119 665.25 584.529C649.87 584.675 634.304 585.245 618.954 586.177C621.715 575.201 623.269 563.628 624.646 552.4C630.283 555.328 632.708 560.171 637.643 563.583L638.271 563.418C638.185 562.802 638.111 562.25 637.895 561.661C635.493 555.107 631.655 550.433 625.316 547.434C626.469 537.387 627.266 527.266 628.645 517.25Z"/>
	<path fill="#FEFEFE" transform="scale(1.66211 1.66211)" d="M432.843 316.117C437.498 315.614 441.6 316.137 445.924 318.063C453.673 321.514 459.738 328.675 462.752 336.509C466.082 345.164 465.77 356.759 462.02 365.207C456.933 376.667 448.111 384.324 436.553 388.729C430.388 390.181 423.49 390.633 417.666 387.73C411.925 384.868 407.95 379.284 406.099 373.248C402.402 361.192 407.071 343.849 412.952 333.112C417.562 324.697 423.473 318.804 432.843 316.117Z"/>
	<path fill="#231F20" transform="scale(1.66211 1.66211)" d="M425.603 355.365C426.165 355.415 426.729 355.466 427.283 355.575C428.467 355.806 429.411 356.487 429.998 357.553C430.826 359.057 430.749 360.998 430.325 362.61C429.448 365.945 427.94 368.251 424.972 369.969C423.455 369.446 422.25 368.783 421.295 367.443C420.205 365.912 419.915 364.149 420.317 362.326C421.017 359.153 422.957 357.083 425.603 355.365Z"/>
	<path fill="#FEFEFE" transform="scale(1.66211 1.66211)" d="M504.164 257.74C525.725 257.078 553.315 256.361 572.478 267.241C585.863 274.841 603.013 316.25 607.536 332.15C605.106 332.862 602.727 333.825 600.347 334.692L599.55 332.265C595.782 321.027 589.837 312.063 578.94 306.739C570.328 302.531 560.492 302.456 551.52 305.669C540.264 309.701 532.723 318.867 527.751 329.372C526.547 332.155 525.599 335.103 524.564 337.956C518.542 335.544 512.49 332.843 505.924 332.465C493.354 331.742 484.098 338.618 475.188 346.483C474.188 335.525 469.164 324.863 461.566 316.912C453.749 308.731 444.672 305.016 433.464 304.781C451.586 293.89 472.438 288.215 492.762 283.117C496.698 282.13 502.309 281.259 504.43 277.348C505.229 275.874 505.423 274.115 504.933 272.506C502.894 265.82 491.928 264.341 486.449 261.236C486.272 261.135 486.098 261.029 485.922 260.926C491.737 258.498 497.948 258.122 504.164 257.74Z"/>
	<path fill="#231F20" transform="scale(1.66211 1.66211)" d="M544.269 273.178C546.967 272.882 549.908 272.998 552.599 273.33C560.067 274.25 567.428 277.899 571.945 284.03C573.818 286.572 575.758 290.445 575.112 293.706C574.836 295.097 574.097 296.028 572.876 296.743C569.063 298.975 561.092 294.814 557.131 293.594C552.923 292.564 548.468 292.326 544.15 292.296C539.054 292.262 529.503 294.246 525.304 291.611C523.61 290.548 522.405 289.142 522.013 287.152C521.634 285.234 522.62 283.154 523.79 281.701C528.224 276.196 537.627 274.039 544.269 273.178Z"/>
	<path fill="#FEFEFE" transform="scale(1.66211 1.66211)" d="M369.389 331.088L369.395 330.667C370.233 288.669 380.942 251.746 411.879 221.839C424.512 209.626 438.894 199.987 453.55 190.438C458.523 187.198 463.522 183.4 469.025 181.122C477.537 177.599 488.957 176.035 498.153 176.256C506.005 176.444 513.824 178.86 519.29 184.785C522.657 188.436 524.899 193.069 525.77 197.951C529.327 217.893 511.575 222.648 511.334 232.62C512.02 233.713 511.973 233.657 513.223 233.991C517.52 232.608 520.885 227.234 524.075 224.143C526.53 221.764 530.286 220.019 533.235 218.304C546.879 210.369 563.631 201.241 579.86 201.277C585.741 201.29 591.422 203.199 595.5 207.546C614.099 227.371 611.94 268.411 611.401 293.985C606.848 284.961 602.406 275.862 598.162 266.689C595.242 260.378 592.614 253.455 588.94 247.566C588.056 246.149 586.873 244.369 585.218 243.807C584.503 243.564 584.303 243.854 583.681 244.156C583.334 245.079 583.032 245.64 583.27 246.653C583.941 249.498 587.014 253.483 588.415 256.209C592.605 264.36 596.313 272.764 600.434 280.952C603.553 287.148 609.064 295.38 610.783 301.939C611.867 306.077 611.061 311.285 610.852 315.54C606.633 302.874 600.531 291.237 593.472 279.951C590.43 275.087 587.036 270.367 584.251 265.353C578.59 255.164 574.424 239.436 564.711 232.5C558.326 227.939 551.116 228.183 543.78 229.379C538.849 230.183 527.176 233.612 523.803 237.689C531.361 238.552 543.458 228.134 556.593 232.445C567.602 236.058 572.917 251.237 577.821 260.784C561.555 249.446 542.616 243.625 522.738 244.487C517.838 244.699 512.064 246.654 507.403 246.14C506.273 243.214 508.909 237.54 509.894 234.494C507.359 238.346 504.662 241.978 503.836 246.608C498.664 248.207 493.341 249.462 488.106 250.85C490.009 241.149 495.898 232.52 501.028 224.249C502.415 222.013 504.185 219.641 505.244 217.236C505.743 216.103 505.877 215.525 505.4 214.357L504.302 213.958C502.665 214.341 502.216 214.994 501.132 216.298C494.37 224.427 484.632 241.316 485.537 251.876C477.01 254.633 468.893 259.149 460.364 261.572C464.714 247.462 476.632 230.905 484.212 218.026C484.073 216.595 484.015 216.7 482.909 215.753L481.811 215.865C474.575 222.091 459.881 250.364 458.114 260.06C457.988 261.362 458.214 262.484 457.098 263.348C454.46 265.388 450.307 266.89 447.309 268.494C443.925 270.305 440.683 272.416 437.376 274.369C440.867 263.639 454.502 232.298 452.808 222.2L452.145 221.471C450.908 222.171 450.606 223.012 450.055 224.275C447.202 230.821 445.635 238.439 443.445 245.283C440.791 253.573 437.504 261.69 435.177 270.09C434.604 272.159 434.116 274.245 433.716 276.355C427.929 280.126 422.232 283.99 416.774 288.231C412.936 291.213 409.004 295.06 404.835 297.514C406.545 288.997 413.48 260.381 412.136 253.294L412.103 253.35L411.605 252.925C407.835 256.111 402.7 291.864 401.698 298.604C400.536 302.516 390.372 310.097 386.996 313.019C386.954 303.959 386.968 294.792 386.044 285.773C381.67 294.163 383.319 305.726 384.47 314.889C379.128 320.051 373.957 325.203 369.389 331.088Z"/>
	<path fill="#FEFEFE" transform="scale(1.66211 1.66211)" d="M735.705 596.451C740.848 597.986 745.945 601.124 750.864 603.346C757.577 606.379 764.56 608.929 771.515 611.345C800.225 621.321 833.524 627.422 860.045 641.955C871.925 648.465 883.214 657.535 887.022 671.088C893.93 695.676 879.767 726.9 867.629 748.091C849.39 779.933 808.521 824.424 772.145 834.337C777.797 828.187 783.732 822.831 788.5 815.864C789.368 814.594 789.531 814.296 789.202 812.782C787.745 811.052 786.105 808.802 783.594 808.821C778.948 808.856 763.33 830.215 758.547 834.627L758.039 835.09C754.643 832.63 752.358 829.954 750.043 826.513C759.111 819.125 767.058 810.597 775.189 802.223C778.665 798.643 782.598 795.203 785.662 791.267C787.586 788.796 789.517 785.792 790.227 782.722C790.551 781.32 790.605 779.655 789.646 778.471C788.541 777.107 786.555 776.687 784.892 776.68C778.29 776.654 765.213 784.961 760.993 789.645C759.101 791.745 757.665 794.017 757.908 796.914C758.365 797.541 758.483 798.039 759.3 798.208C763.131 798.999 767.788 795.044 770.699 793.01C773.118 791.135 775.743 789.551 778.323 787.91C774.793 792.593 770.014 796.648 766.015 800.965C760.267 807.168 754.917 813.82 749.606 820.401C748.704 816.049 747.074 798.722 747.811 794.49C747.836 794.345 747.882 794.204 747.918 794.061L747.59 793.792L747.741 792.89C751.761 790.354 755.116 786.908 758.27 783.386C778.561 760.727 804.426 722.029 802.588 690.535C801.781 676.713 796.188 663.079 785.709 653.795C777.471 646.497 766.006 642.399 754.959 643.419C753.744 643.532 752.397 643.467 751.574 644.405C754.382 647.043 761.206 647.404 764.953 648.851C769.14 650.467 773.169 652.903 776.676 655.693C786.612 663.598 792.977 675.648 794.317 688.241C797.771 720.702 767.113 760.443 747.479 784.613C746.299 768.596 745.62 752.527 744.578 736.498C743.593 721.356 742.225 706.247 741.459 691.09C740.656 675.216 740.326 659.326 739.511 643.445C739.032 634.111 738.406 624.747 737.497 615.446C736.885 609.183 735.712 602.725 735.705 596.451Z"/>
	<path fill="#231F20" transform="scale(1.66211 1.66211)" d="M828.528 765.702C829.19 765.972 829.536 766.276 830.077 766.732C830.398 767.558 830.403 767.969 830.212 768.86C828.507 776.811 816.573 792.296 809.718 796.47L808.708 796.538L808.205 796.024C809.134 793.267 812.989 790.294 814.697 787.762C819.583 780.515 822.073 771.834 828.528 765.702Z"/>
	<path fill="#231F20" transform="scale(1.66211 1.66211)" d="M815.756 747.778C816.814 748.38 816.993 748.465 817.57 749.522C817.457 750.564 817.266 751.39 816.884 752.373C813.621 760.777 803.213 777.173 794.688 780.836L793.347 780.752C793.23 779.654 793.679 779.059 794.31 778.19C801.72 767.987 810.194 759.347 815.756 747.778Z"/>
	<path fill="#FEFEFE" transform="scale(1.66211 1.66211)" d="M608.475 339.976L609.185 340.742C611.601 353.181 613.182 365.803 615.163 378.321C618.013 396.335 621.104 413.998 622.148 432.251C622.97 446.64 622.218 460.932 621.736 475.312C621.235 490.29 621.134 505.338 619.908 520.28C618.081 542.542 614.609 564.462 611.388 586.544L421.01 597.588C417.82 588.317 414.208 579.198 411.009 569.929C397.794 531.641 385.584 492.897 377.625 453.141C376.249 445.096 372.994 431.398 374.191 423.66C374.77 423.026 375.104 422.504 375.458 421.721C373.37 418.708 356.588 428.638 346.94 424.878C340.338 422.305 335.366 415.604 332.551 409.304C328.434 400.091 328.232 389.992 331.916 380.606C334.314 374.496 338.72 367.176 345.076 364.663C353.587 361.298 355.443 368.977 361.73 371.556C363.121 372.127 364.473 372.239 365.884 371.705C366.138 371.12 366.325 370.639 366.429 370.003C366.456 369.838 366.473 369.671 366.495 369.505C375.947 367.948 385.156 365.969 394.451 363.644C395.244 373 396.067 381.416 400.806 389.741C404.767 396.699 410.812 401.919 418.67 404.002C428.686 406.657 439.401 404.322 448.217 399.171C462.172 391.016 469.826 377.279 473.887 362.06C484.705 356.804 490.227 347.158 503.104 344.81C509.602 343.625 516.619 344.824 522.097 348.59C521.797 363.066 523.543 376.664 534.042 387.6C540.163 393.975 548.186 397.533 557.035 397.598C568.15 397.681 578.385 391.951 586.113 384.298C597.957 372.57 601.02 359.223 601.128 343.141L608.475 339.976Z"/>
	<path fill="#231F20" transform="scale(1.66211 1.66211)" d="M355.565 376.616C357.235 376.617 358.996 376.78 360.548 377.437C364.129 378.954 366.184 382.318 367.449 385.842C368.209 387.958 368.467 390.287 367.443 392.355C366.751 392.895 366.354 393.258 365.453 393.38C362.268 393.813 359.675 385.804 356.978 384.196C356.028 383.629 355.059 383.429 354.023 383.886C351.458 385.018 349.338 389.687 348.517 392.271C347.42 395.726 348.786 400.111 350.348 403.189C351.346 404.598 352.846 405.322 354.122 406.437C355.248 407.421 355.275 407.889 355.29 409.34C354.412 410.837 353.44 411.555 351.758 411.962C350.29 412.317 348.881 412.323 347.577 411.46C344.11 409.169 341.991 405.218 341.104 401.247C339.738 395.138 340.962 388.415 344.566 383.267C347.572 378.975 350.62 377.506 355.565 376.616Z"/>
	<path fill="#231F20" transform="scale(1.66211 1.66211)" d="M516.423 358.856C516.738 359.055 517.066 359.502 517.322 359.781C517.979 364.831 516.345 371.007 515.978 376.128C514.985 389.998 516.643 410.634 526.461 421.395C532.75 428.289 538.73 426.627 546.919 426.898C547.791 427.537 548.231 427.862 548.421 429.032C548.625 430.286 547.848 431.69 547.152 432.683C541.233 441.118 528.813 448.465 518.821 450.384C516.381 450.665 513.809 450.476 511.351 450.449C519.891 445.17 528.705 439.758 536.492 433.413C534.835 433.145 533.154 432.885 531.539 432.42C524.01 430.247 518.846 424.458 515.32 417.745C507.967 403.75 505.83 380.893 510.731 365.857C511.975 362.042 512.816 360.705 516.423 358.856Z"/>
	<path fill="#231F20" transform="scale(1.66211 1.66211)" d="M514.889 483.032C515.986 482.934 517.253 482.769 518.339 483.007C519.813 483.33 520.553 483.929 521.344 485.206C524.43 490.193 521.852 507.074 520.508 512.877C518.87 519.948 515.787 527.271 509.285 531.164C505.091 533.675 500.228 534.126 495.573 532.732C488.19 530.52 484.019 524.401 480.671 517.934C478.712 513.65 477.577 508.728 477.264 504.033C476.964 499.543 477.84 490.608 481.177 487.144C482.087 486.199 483.198 485.749 484.508 485.847C492.507 486.444 495.357 497.991 499.976 503.064C501.021 504.213 501.942 504.684 503.468 504.792C508.823 500.871 508.943 488.373 514.889 483.032Z"/>
</svg>
