<?xml version="1.0" encoding="utf-8" ?>
<svg xmlns="http://www.w3.org/2000/svg" xmlns:xlink="http://www.w3.org/1999/xlink" width="1702" height="1702">
	<path fill="white" transform="scale(1.66211 1.66211)" d="M0 0L0 1024L1024 1024L1024 0L0 0Z"/>
	<path transform="scale(1.66211 1.66211)" d="M371.96 62.4346C375.139 55.064 379.16 48.6624 384.578 42.7169C405.652 19.5933 436.898 10.6236 467.227 9.21513C482.404 8.82094 496.918 10.129 511.648 13.9456C546.691 23.0252 582.606 44.4279 619.922 41.2507C631.662 40.2512 643.003 36.4444 653.085 30.3508C657.239 27.8398 665.198 19.9019 669.441 19.3046C670.137 19.2065 670.747 19.1155 671.307 19.5852C672.319 20.4338 672.734 21.7143 672.874 22.9875C673.211 26.0479 672.282 29.3192 671.583 32.2746C668.785 44.1057 663.816 52.3275 656.178 61.6105C666.135 61.475 677.979 60.3508 687.13 56.2156C691.283 54.3387 695.205 51.516 699.5 50.0195C701.013 49.4925 702.041 49.4591 703.527 50.1546C704.256 50.9195 704.616 51.3863 704.904 52.4343C705.596 54.9512 704.66 58.2493 704.111 60.7418C701.314 73.4354 696.534 82.9809 689.667 93.8741C696.162 100.3 702.62 106.56 708.308 113.748C751.602 168.454 750.155 221.733 742.376 287.637C744.578 287.459 746.787 287.277 748.997 287.25C759.763 287.114 769.954 291.104 777.661 298.661C789.625 310.393 795.245 328.295 795.268 344.753C795.305 370.912 779.167 405.637 760.63 424.058C746.707 437.895 734.14 442.629 714.827 442.602L714.498 444.864C706.983 495.445 667.898 549.536 627.499 579.557C626.929 592.387 627.297 605.351 627.353 618.197C679.4 627.153 730.101 646.665 772.624 678.229C780.728 684.244 790.537 691.475 796.769 699.385C807.346 699.536 817.948 699.336 828.526 699.293C834.264 699.269 840.398 698.854 846.078 699.729C851.619 700.582 855.931 702.888 859.271 707.483C861.536 710.599 862.693 713.885 862.767 717.725C862.957 727.618 859.169 741.129 857.25 751.071C852.906 773.571 848.176 796.091 844.508 818.709C850.62 828.45 855.409 839.386 859.939 849.937C880.221 897.187 892.991 950.657 896.81 1001.99C897.018 1004.78 897.182 1007.94 895.235 1010.17C887.307 1013.25 822.144 1010.87 809.171 1011.1C804.661 1011.18 800.587 1013.36 796.097 1013.48C776.385 1014.01 756.493 1013.29 736.755 1013.26L614.75 1013.19L229.242 1013.86C225.015 1013.88 221.381 1011.04 215.139 1010.99C206.147 1010.91 134.537 1012.02 130.718 1010.31C129.529 1009.78 128.536 1008.93 128.094 1007.68C126.423 1002.96 129.127 989.29 129.791 983.8C136.521 928.148 151.703 871.71 178.279 822.096C173.717 802.367 170.022 782.444 165.858 762.629L160.791 737.569C159.764 732.348 158.381 726.922 158.105 721.597C157.836 716.395 160.399 710.488 163.846 706.678C166.769 703.447 170.467 701.338 174.69 700.325C181.319 698.735 188.72 699.424 195.493 699.439C206.19 699.463 216.991 699.691 227.672 699.094C272.865 653.405 334.422 628.967 396.88 618.338C397.255 605.224 396.929 592.058 397.124 578.932C391.454 574.126 385.469 569.819 380.052 564.699C345.664 532.193 320.137 490.103 310.162 443.636C307.183 443.608 304.171 443.596 301.215 443.2C282.577 440.707 267.47 428.889 256.442 414.232C239.906 392.255 224.849 359.597 228.988 331.653C231.002 318.051 237.692 304.832 248.97 296.672C258.785 289.571 269.777 287.595 281.593 289.445C278.188 278.113 275.043 266.751 273.048 255.072C264.565 205.402 270.819 151.29 300.682 109.418C318.607 84.2845 341.248 67.6182 371.96 62.4346ZM395.921 160.808C382.138 196.613 362.906 230.817 340.441 261.888C332.752 272.522 324.261 282.458 316.413 292.933C316.763 299.286 317.257 305.689 317.959 312.013L325.59 311.859C328.863 302.171 333.949 297.377 342.963 292.92C374.87 277.143 440.807 274.206 474.117 285.839C483.185 289.005 489.918 293.714 494.264 302.456C506.588 299.966 517.331 300.281 529.693 302.348C533.258 294.13 540.182 289.436 548.284 286.288C572.582 276.849 607.355 277.711 633.026 280.646C650.779 282.868 687.641 287.896 699.103 302.304C702.098 306.07 702.926 309.995 703.205 314.689C704.082 315.205 704.747 315.477 705.83 315.24C707.224 314.935 708.117 313.724 708.578 312.458C709.925 308.759 709.667 303.428 709.958 299.484C688.366 271.851 674.085 245.075 662.38 211.886C658.779 201.677 655.819 191.285 652.523 180.98C638.414 186.222 624.949 192.461 610.46 196.742C553.029 213.71 493.695 209.601 439.201 184.724C424.21 177.88 410.059 169.232 395.921 160.808ZM402.955 296.29C388.649 297.123 353.822 301.855 344.797 312.881C339.901 318.862 342.705 332.334 343.754 339.513C345.612 352.231 349.503 374.95 360.731 382.83C374.804 392.707 402.558 393.671 419.625 392.976C434.913 391.727 453.017 389.233 463.528 376.748C475.895 362.055 479.635 332.991 480.114 314.104C476.816 307.286 470.47 303.356 463.529 300.962C445.539 294.755 421.842 294.993 402.955 296.29ZM587.57 296.289C574.138 297.188 556.284 298.603 546.611 309.27C545.577 310.41 544.671 311.659 543.777 312.91C543.861 332.006 548.817 364.752 562.787 378.488C576.076 391.554 604.376 393.437 622.287 393.119C628.049 393.017 633.834 392.589 639.541 391.785C651.585 389.318 663.345 386.375 670.568 375.541C681.216 359.569 687.626 332.172 684.472 313.191C660.328 297.804 615.878 293.819 587.57 296.289ZM745.302 298.581C741.115 300.013 737.427 302.059 733.664 304.362C728.32 346.763 721.776 389.009 716.645 431.451C727.623 430.569 735.973 428.693 744.989 422.11C764.823 406.448 780.207 377.736 783.18 352.719C784.93 337.991 781.769 322.014 772.364 310.242C767.274 303.872 759.458 299.193 751.259 298.475C749.301 298.304 747.253 298.385 745.302 298.581ZM272.649 300.181C263.227 301.108 254.988 305.016 248.965 312.48C240.884 322.497 238.444 335.998 239.858 348.526C242.538 372.29 259.923 406.719 278.965 421.656C280.375 422.762 281.831 423.788 283.33 424.771C291.939 429.49 298.86 431.566 308.656 432.13C303.888 402.945 300.719 373.43 296.726 344.124C295.475 334.95 295.078 322.124 292.479 313.596C291.294 309.707 287.793 305.879 286.052 302.047C281.568 300.982 277.289 300.019 272.649 300.181ZM505.514 319.604C502.868 320.291 500.191 320.915 497.602 321.797C495.076 345.49 490.944 377.905 471.182 393.762C451.291 409.723 415.841 411.905 391.061 408.987C373.37 406.904 353.357 402.108 341.831 387.351C330.934 373.4 328.652 352.881 326.04 335.914L318.318 335.892C319.736 353.929 323.492 372.058 326.094 389.974C328.429 406.057 329.903 422.376 333.57 438.229C343.3 480.285 367.546 519.157 400.308 547.169C435.038 576.864 476.646 590.309 522.125 588.963C572.371 586.005 612.422 565.567 645.848 528.038C667.412 503.828 685.074 472.192 691.572 440.255C695.372 421.577 696.68 402.073 699.222 383.155L703.551 351.85C704.31 346.415 705.684 340.518 705.5 335.05L705.06 334.378C704.01 334.314 703.481 334.097 702.536 334.608C700.802 340.58 700.073 346.915 698.576 352.969C694.116 371.009 685.201 390.353 668.312 399.746C643.129 413.753 603.747 412.217 576.815 404.459C561.259 399.978 549.203 392.804 541.265 378.362C531.662 360.89 528.329 340.882 526.437 321.286C519.342 319.347 512.824 319.208 505.514 319.604ZM409.464 588.672L409.455 617.421C409.453 621.285 408.893 626 409.664 629.745C412.359 642.831 423.6 658.657 432.881 668.02C453.51 688.832 483.496 699.318 512.502 699.272C542.341 699.224 571.539 687.748 592.596 666.367C595.803 663.11 598.842 659.623 601.611 655.985C613.353 639.665 614.723 628.271 614.498 608.92C614.426 602.679 614.517 596.378 614.183 590.147C603.845 596.285 593.508 602.34 582.369 606.938C546.95 621.557 505.156 624.202 468.04 614.68C455.043 611.346 441.821 606.705 429.908 600.514C422.918 596.881 416.279 592.616 409.464 588.672ZM246.729 696.242C244.899 696.42 244.549 696.235 243.202 697.573L243.3 698.325C244.613 699.075 245.921 699.1 247.392 699.157C253.348 699.387 259.451 699.035 265.43 699.05L311.797 699.115L446.125 699.108L448 699.024C448.762 698.156 448.737 698.153 448.773 696.993C447.633 696.075 446.473 696.012 445.059 695.94C438.355 695.601 431.462 696.05 424.733 696.047L378.953 696.035L246.729 696.242ZM574.85 696.032C574.95 697.124 574.749 698.27 575.596 699.004C589.221 699.75 603.16 699.11 616.82 699.115L697.291 699.1L753.759 699.085C763.244 699.093 773.296 699.776 782.704 698.919C781.65 697.443 781.225 696.793 779.403 696.477C773.013 695.371 765.535 696.041 759.027 696.035L718.861 696.001L574.85 696.032ZM535.255 710.25L282.652 710.383L213.472 710.516C202.096 710.517 190.115 709.664 178.821 710.614C176.027 710.849 173.692 711.871 171.709 713.888C169.494 716.141 169.138 718.067 169.229 721.108C169.54 731.481 173.118 743.567 175.164 753.85L190.132 827.496L214.063 950.291L219.509 978.258C220.905 985.483 222.051 992.861 224.555 999.803C226.704 1001.64 229.318 1003.6 232.205 1003.93C233.434 1003.53 233.802 1003.52 234.374 1002.25C234.978 1000.91 234.564 998.551 234.368 997.158C233.389 990.191 231.665 983.215 230.398 976.282L219.589 919.674L193.246 786.766C190.261 771.892 186.544 756.857 184.27 741.884C183.312 737.459 178.832 723.197 181.058 719.943C182.145 718.353 183.874 717.171 185.788 716.869C192.092 715.873 199.411 716.701 205.848 716.731L243.033 716.635L398.515 716.836L691.983 716.969L792.204 717.064C808.599 717.108 825.107 716.747 841.485 717.261C845.896 717.399 849.475 719.191 853.086 721.6C852.613 718.065 852.117 713.998 848.943 711.77C847.014 710.417 844.434 710.274 842.15 710.2C827.443 709.725 812.501 710.31 797.764 710.296L699.913 710.258L599.716 710.166C578.242 710.109 556.726 709.818 535.255 710.25ZM840.579 835.819C832.332 874.067 825.11 912.599 817.517 950.985C814.312 967.193 811.513 983.595 807.745 999.677C822.884 1000.22 838.101 999.974 853.25 999.934L885.732 999.928C883.671 986.627 882.339 973.191 880.086 959.928C873.987 924.042 864.039 888.443 849.667 854.97C847.636 850.239 843.829 839.488 840.579 835.819ZM181.348 841.379C158.171 891.373 144.699 945.024 139.088 999.763C149.853 999.918 160.61 999.837 171.375 999.745L212.804 999.808C208.412 982.147 183.3 843.639 181.348 841.379Z"/>
	<path transform="scale(1.66211 1.66211)" d="M362.855 281.293C365.337 273.885 369.539 267.2 374.715 261.376C387.244 247.279 403.647 241.218 422.177 240.201C425.452 240.252 428.781 240.367 432.029 240.787C450.917 243.229 461.528 251.668 472.711 266.335C449.596 259.981 426.35 258.305 402.698 262.58C388.023 265.729 374.981 272.651 362.855 281.293Z"/>
	<path transform="scale(1.66211 1.66211)" d="M554.167 266.187C554.997 265.012 555.832 263.841 556.683 262.681C566.225 249.671 576.937 243.162 592.886 240.668C604.821 239.193 617.603 241.183 628.477 246.277C644.01 253.552 654.844 266.457 660.661 282.392L660.335 282.067L659.784 281.535C652.267 274.185 642.015 269.82 632.411 265.869C607.754 256.685 578.905 257.641 554.167 266.187Z"/>
	<path transform="scale(1.66211 1.66211)" d="M426.133 362.254C421.243 362.148 417.084 361.436 412.93 358.593C408.195 355.353 404.89 350.293 403.952 344.62C403.003 338.878 404.609 332.676 408.08 328.026C412.127 322.605 417.706 320.493 424.172 319.647C428.793 319.955 433.112 321.001 436.976 323.672C441.501 326.8 444.493 331.495 445.44 336.911C446.446 342.666 445.241 348.821 441.775 353.566C437.965 358.781 432.358 361.316 426.133 362.254Z"/>
	<path transform="scale(1.66211 1.66211)" d="M597.005 361.336C592.347 361.068 588.067 360.05 584.224 357.27C579.79 354.062 576.892 349.159 576.064 343.762C575.192 338.077 576.606 332.18 580.116 327.6C584.227 322.235 589.699 320.449 596.133 319.666C600.627 319.883 604.926 321.013 608.64 323.638C613.063 326.765 615.9 331.566 616.77 336.89C617.701 342.588 616.259 348.54 612.784 353.15C608.816 358.414 603.301 360.477 597.005 361.336Z"/>
	<path transform="scale(1.66211 1.66211)" d="M526.133 432.074C521.805 435.434 516.374 437.723 510.831 437.618C503.182 437.472 496.278 432.817 491.258 427.34C484.62 420.099 479.678 409.137 480.318 399.176C481.056 387.685 487.773 383.431 495.397 376.455C504.651 367.989 504.619 354.698 505.132 343.037L516.543 342.983C516.733 355.722 515.588 373.734 505.849 383.217C502.246 386.725 497.288 388.784 494.315 392.947C492.219 395.883 491.391 399.446 491.966 402.997C493.208 410.66 497.973 418.791 504.31 423.297C512.215 428.917 521.586 429.141 530.739 427.412C529.287 429.039 527.684 430.542 526.133 432.074Z"/>
	<path transform="scale(1.66211 1.66211)" d="M558.049 522.593C548.106 529.377 537.678 534.202 525.747 536.265C504.42 539.952 483.47 534.209 465.974 521.757C447.719 508.765 434.793 487.628 431.398 465.519C431.008 462.973 430.742 459.559 432.672 457.505C435.559 454.43 448.811 455.765 453.285 455.75C480.768 455.163 508.317 455.628 535.807 455.6L569.183 455.544C575.358 455.536 581.658 455.295 587.817 455.704C590.057 455.853 591.553 456.122 593.008 458.001C594.381 459.772 594.47 462.094 594.182 464.222C591.02 487.598 576.73 508.737 558.049 522.593ZM442.929 466.847C447.764 487.241 458.827 504.573 476.814 515.793C492.149 525.358 510.522 528.847 528.137 524.582C540.541 521.579 552.214 514.671 561.188 505.629C571.85 494.465 578.915 481.86 582.436 466.771C535.982 467.347 489.383 467.386 442.929 466.847Z"/>
</svg>
