<?xml version="1.0" encoding="utf-8" ?>
<svg xmlns="http://www.w3.org/2000/svg" xmlns:xlink="http://www.w3.org/1999/xlink" width="1702" height="1702">
	<path fill="white" transform="scale(1.66211 1.66211)" d="M0 0L0 1024L1024 1024L1024 0L0 0Z"/>
	<path transform="scale(1.66211 1.66211)" d="M480.047 0L500.875 0L501.478 0.123407C508.367 1.47724 515.459 1.81847 522.401 2.89927C534.38 4.76419 546.357 7.53789 558.047 10.7311C600.937 22.4465 645.361 45.0231 690.566 31.2107C698.075 28.9164 706.222 25.6821 712.781 21.2929C716.918 18.5249 726.245 8.45453 731.19 9.97727C732.829 10.4818 734.214 12.213 734.782 13.7855C737.92 22.4685 730.873 42.5344 726.692 50.5988C721.05 61.4804 713.489 69.3414 705.512 78.3783C712.102 81.993 718.412 85.6993 724.282 90.4405C746.684 108.534 761.493 136.159 769.42 163.433C779.423 197.853 780.58 235.444 779.652 271.045C779.397 280.837 778.527 290.607 778.31 300.391C789.743 301.322 799.539 305.291 807.126 314.157C819.755 328.915 821.776 351.541 820.23 370.103C817.156 407.012 797.321 448.071 768.683 472.002C757.499 481.349 747.227 483.924 732.937 483.396C715.361 530.549 682.993 569.581 643.571 600.183C653.692 611.242 660.311 624.849 663.955 639.312C728.14 653.995 785.732 672.353 822.658 731.02C860.875 791.739 881.714 884.981 885.93 956.385C893.506 956.417 907.008 955.259 913.937 957.063C916.063 957.616 917.939 958.895 919.452 960.462C922.548 963.668 923.99 968.203 923.873 972.608C923.758 976.952 922.175 981.462 918.914 984.441C917.33 985.888 915.511 986.773 913.487 987.443C908.741 989.013 903.42 989.63 898.499 990.538L874.464 995.098C838.866 1002.1 803.159 1008.4 767.474 1014.93L735.993 1020.67C730.328 1021.71 724.357 1022.46 718.821 1024L215.624 1024C210.646 1021.91 205.745 1019.47 201.562 1016.02C196.719 1012.02 193.892 1007.16 191.452 1001.45C184.893 986.098 180.093 969.56 174.651 953.755L148.514 879.505L113.769 780.699C111.052 772.962 100.112 745.192 99.7758 738.605C99.5603 734.382 101.672 729.276 104.676 726.321C106.884 724.15 109.791 722.736 112.827 722.187C120.473 720.805 133.592 721.735 141.697 721.708L207.822 721.498C213.371 712.96 221.931 705.259 229.684 698.638C258.238 674.256 293.103 657.648 328.786 646.588C338.954 643.437 349.346 640.94 359.644 638.248C364.716 619.19 370.853 606.526 384.563 592.181C348.504 561.355 326.976 528.516 308.481 484.976C308.294 484.976 308.108 484.98 307.921 484.977C287.1 484.649 269.497 474.575 255.225 459.896C230.776 434.751 214.518 392.519 215.169 357.783C215.486 340.844 219.722 322.587 232.417 310.504C242.548 300.861 253.901 299.071 267.403 299.495C263.207 280.298 259.853 261.482 258.287 241.879C254.456 193.923 261.803 138.491 294.226 100.694C312.742 79.1079 337.318 66.1498 365.679 64.0144C367.869 59.6819 370.128 55.5338 372.991 51.6034C392.138 25.3188 422.343 9.62353 453.752 3.49008C462.454 1.79066 471.308 1.39069 480.047 0ZM696.227 49.3791C683.632 52.4826 673.524 56.9221 660.068 56.4091C634.921 55.4505 610.69 47.6678 586.652 40.95C544.564 29.1877 498.485 23.9485 456.011 36.9221C434.234 43.5739 415.552 55.2478 403.663 75.1128C400.442 80.4952 398.064 86.0883 395.95 91.9802C413.556 63.8182 436.166 47.6824 468.753 40.2184C479.09 37.8508 489.594 36.4357 500.166 35.6774C518.509 34.8494 536.771 36.1556 554.765 39.848C571.845 43.3529 588.529 48.9764 605.339 53.5696C617.514 56.8961 629.89 59.4117 642.327 61.5274C629.652 62.2436 616.965 62.9378 604.267 62.4367C586.763 61.746 569.263 59.4351 551.795 58.1143C532.97 56.6909 514.406 56.531 495.58 57.8251C500.571 59.4827 507.337 59.225 512.627 59.664C520.567 60.3231 528.5 61.1074 536.411 62.0567C584.456 67.822 612.492 77.645 661.622 63.054C671.257 60.1925 681.141 57.3986 690.168 52.905C692.263 51.862 694.368 50.8118 696.227 49.3791L696.497 49.0963L696.227 49.3791ZM449.212 71.5053L449.002 71.8735L449.212 71.5053C455.964 71.4525 462.724 70.6282 469.492 70.5217C486.34 70.2566 503.519 71.1135 520.256 73.0672C559.608 77.6607 599.586 91.3627 639.428 85.8453C649.681 84.4256 659.67 81.4289 669.593 78.5674L670.798 77.8481C666.341 77.2702 660.529 79.2689 655.903 79.5777C645.639 80.2629 635.293 80.1169 625.033 79.4666C607.712 78.3688 590.56 75.3203 573.397 72.8524C541.764 68.3038 508.779 64.5044 476.797 67.1114C467.729 67.8507 457.911 68.765 449.212 71.5053ZM705.084 100.044L705.309 100.244C717.468 114.647 728.782 128.601 736.302 146.148C725.799 137.312 715.25 127.468 701.844 123.288L701.523 123.083L701.844 123.288C718.492 138.272 735.556 154.47 747.681 173.468C751.911 180.096 755.342 187.154 758.758 194.223C755.816 181.595 752.87 168.793 748.262 156.65C741.103 137.779 724.231 108.7 705.309 100.244L705.084 100.044ZM681.697 101.34C681.551 101.378 681.403 101.415 681.258 101.456C674 103.506 666.924 108.245 660.142 111.541C648.208 117.34 635.856 122.3 623.111 126.004C580.488 138.393 541.635 134.819 498.11 128.945C486.943 127.438 470.645 123.713 460.054 123.589C461.753 124.065 463.448 124.535 465.164 124.948C476.901 127.36 488.412 130.712 500.138 133.179C555.702 144.869 611.362 149.402 661.112 116.813C666.758 113.115 677.334 106.038 681.697 101.34L681.997 101.11L681.697 101.34ZM680.491 122.492L679.884 122.823C671.808 126.393 663.841 130.152 655.479 133.029C592.04 154.859 519.069 153.084 453.816 141.445C440.493 139.069 427.351 135.86 414.169 132.829C416.22 133.805 418.256 134.837 420.379 135.646C476.684 156.804 538.424 163.048 597.816 153.249C618.023 149.915 637.883 144.854 656.575 136.344C663.6 133.146 674.302 128.141 679.884 122.823L680.491 122.492L680.997 122.112L680.491 122.492ZM693.125 133.002L693.372 133.714L693.799 133.864C695.516 139.079 699.294 144.172 701.639 149.208C707.456 161.704 712.446 174.326 716.597 187.464C719.243 195.843 721.504 204.377 723.446 212.946C724.736 218.633 726.522 231.78 728.818 236.311C729.405 227.553 728.234 215.407 727.255 206.464C724.772 183.771 717.154 161.53 702.787 143.592C700.108 140.247 697.143 136.532 693.799 133.864L693.372 133.714L693.125 133.002ZM445.002 160.566L446 161L446.879 161.278C447.526 161.648 448.133 161.986 448.822 162.277C459.783 166.909 472.158 169.928 483.747 172.588C519.48 180.793 557.547 181.801 593.246 172.784C604.992 169.817 616.417 165.635 627.701 161.259C628.556 160.845 629.258 160.71 629.79 159.902C624.977 160.608 620.098 162.93 615.428 164.36C606.8 167.001 597.792 169.11 588.92 170.754C554.571 177.12 517.326 176.126 483.068 169.72C470.813 167.428 458.983 164.156 446.879 161.278L446 161L445.002 160.566ZM280.352 414.719L280.505 414.309C281.761 411.018 283.582 407.999 284.954 404.762C287.886 397.848 286.218 389.991 283.243 383.359C281.346 379.131 277.617 372.573 273.085 370.992C271.85 370.561 270.409 370.478 269.209 371.064C265.791 372.73 264.485 378.849 263.683 382.253C261.365 392.079 261.103 403.034 262.451 413.022C256.433 403.23 255.757 391.015 258.445 380.017C259.679 374.968 261.804 368.713 266.53 365.953C269.642 364.136 272.935 364.345 276.265 365.374C277.281 365.688 278.277 366.062 279.268 366.442C275.696 360.179 270.573 349.769 263.148 347.6C260.952 346.959 258.765 347.232 256.794 348.39C249.975 352.399 247.004 364.336 245.386 371.489C244.309 376.248 243.473 381.015 243.034 385.877C241.888 373.635 241.33 356.821 250.006 346.823C252.605 343.828 256.177 341.879 260.176 341.69C265.347 341.445 269.667 343.885 273.275 347.375C281.647 355.474 286.33 366.85 290.744 377.406C288.639 363.552 286.158 349.81 283.093 336.134C282.164 331.997 281.288 323.482 278.616 320.315C276.988 320.442 277.475 321.449 276.425 321.763C275.523 322.034 269.961 319.272 268.65 318.899C259.543 316.305 249.668 318.496 243.324 325.689C234.073 336.179 232.134 353.601 233.219 366.966C235.673 397.214 251.356 433.308 274.846 452.97C285.732 462.082 297.17 466.22 311.255 466.871C307.905 457.332 304.708 447.795 301.76 438.122C294.272 440.25 286.938 441.221 279.769 437.18C278.082 436.23 276.536 435.022 275.001 433.847C283.819 435.305 291.212 434.552 298.724 429.179C298.967 429.005 299.205 428.826 299.446 428.65C297.039 419.476 295.163 409.366 291.454 400.654C288.215 405.493 284.929 411.029 280.352 414.719ZM549.964 702.788C522.012 713.285 510.692 713.748 482.103 704.275L481.502 704.003L482.103 704.275C486.823 707.784 511.076 720.979 515.809 721.671C527.068 723.316 541.596 709.429 549.964 702.788L550.497 702.503L549.964 702.788ZM650.685 685.892C665.144 688.569 679.812 690.582 694.335 692.911L777.193 706.142L777.422 706.378L777.193 706.142C772.279 700.822 764.678 696.265 758.405 692.579C755.412 690.821 752.346 689.661 748.958 688.906C740.309 686.979 655.818 672.939 653.043 673.657L652.742 674.39C652.13 678.232 651.373 682.062 650.685 685.892ZM486.005 19.7115C450.965 21.9156 417.841 29.5864 393.633 57.2615C390.078 61.3252 386.984 65.5942 384.256 70.2498C384.666 75.8999 384.806 79.5392 380.837 84.0106C380.694 84.1725 380.54 84.3255 380.392 84.483L381.701 103.789C384.619 83.5831 390.047 70.6173 405.166 56.1133C438.689 27.4823 488.084 22.5415 530.459 25.8983C538.616 26.5446 546.744 27.4768 554.837 28.6837C539.962 22.0768 502.284 18.7463 486.005 19.7115ZM470.65 84.2798C456.496 84.7753 442.165 86.3816 428.314 89.3809C436.048 89.3691 443.767 88.7753 451.503 88.6948C465.77 88.5462 480.139 89.1154 494.35 90.3676C516.036 92.2784 537.675 95.0055 559.324 97.3009C575.096 98.9731 590.952 100.648 606.831 100.536C621.408 100.425 635.632 99.337 649.998 96.8304C642.779 96.2493 635.463 96.7373 628.221 96.685C619.717 96.6236 611.145 95.9054 602.691 95.0286C558.759 90.4721 515.114 81.1648 470.65 84.2798ZM349.712 84.4418C320.359 95.0419 303.817 116.039 290.889 143.506C285.054 155.903 277.989 179.828 278.655 193.402L278.914 193.528L279.098 193.049C286.827 160.559 302.102 128.044 325.661 103.984C330.625 98.9152 335.926 93.9355 341.989 90.21C343.959 89 349.779 86.3074 350.604 84.5686L349.712 84.4418ZM362.249 100.878C351.749 115.184 342.359 130.216 331.356 144.196C324.661 152.702 286.785 197.266 285.71 202.951C294.795 194.453 303.472 185.39 312.033 176.369C330.441 156.974 349.733 136.437 359.298 110.997C360.28 108.387 362.367 104.457 362.394 101.677C362.397 101.406 362.298 101.144 362.249 100.878ZM456.804 103.718C445.328 104.319 433.015 104.723 421.805 107.416C431.773 107.777 441.751 107.481 451.72 107.764C466.726 108.189 481.686 109.446 496.598 111.142C518.982 113.689 541.132 118.526 563.538 120.616C577.075 121.878 590.615 121.758 604.174 120.947C616.399 119.757 628.445 118.837 640.013 114.375C620.474 114.851 601.369 115.673 581.842 113.943C540.368 110.269 498.614 101.372 456.804 103.718ZM349.368 107.544C343.311 112.454 337.744 118.073 332.089 123.444C313.279 141.304 298.259 158.075 288.201 182.495L288.417 183.102L288.56 183.144C294.229 174.686 300.183 166.697 307.014 159.133C316.658 148.455 327.327 138.564 336.4 127.394C341.323 121.332 345.389 114.575 349.606 108.013L349.368 107.544ZM376.201 114.361C372.998 164.997 361.048 201.221 322.283 236.124L322.81 236.303C347.854 220.708 367.319 195.522 374.065 166.586C377.418 152.201 379.453 128.739 376.201 114.361ZM364.853 124.39C354.107 152.423 336.492 178.608 316.271 200.666C311.472 205.901 306.529 210.902 301.075 215.462C300.22 216.177 297.564 217.967 297.529 218.955C325.118 204.973 350.271 174.889 359.831 145.309C361.83 139.124 365.101 130.856 364.853 124.39ZM414.879 133.25L415.745 133.25L414.879 133.25ZM680.555 139.424C682.081 145.707 684.312 151.86 686.372 157.989C693.338 178.72 701.926 198.815 710.587 218.882C713.055 224.6 717.449 236.707 721.458 241.096C719.445 233.573 716.762 226.201 714.299 218.815C706.69 196.003 698.514 175.524 688.101 153.828C685.971 149.389 683.744 143.168 680.555 139.424ZM706.678 140.892C728.882 172.61 736.143 210 743.286 247.296C744.09 251.498 746.665 269.185 749.297 271.594C747.341 240.389 745.31 199.509 731.561 171.025C726.706 160.968 719.505 151.461 711.12 144.066C709.705 142.819 708.374 141.743 706.678 140.892ZM402.281 154.283C390.603 193.074 367.562 235.644 330.708 255.625C327.527 257.35 324.297 258.999 320.992 260.476C319.799 270.586 319.323 280.777 318.473 290.92C332.671 287.831 346.844 284.838 361.146 282.263C371.985 260.5 385.804 245.914 409.316 237.991C423.481 233.218 440.935 231.339 454.726 238.277C466.593 244.247 473.368 253.751 478.212 265.796C455.566 254.717 425.915 253.357 402.053 261.475C390.003 265.575 375.612 272.585 366.769 282.008C402.081 277.547 449.143 277.587 483.544 287.677C498.553 292.078 503.818 300.954 520.586 300.819C539.188 300.669 540.774 293.317 555.873 288.34C582.21 279.659 612.998 279.128 640.454 280.097C646.388 280.306 652.787 280.267 658.656 281.202L676.276 283.025C656.515 263.2 636.299 256.097 608.302 256.098C593.308 256.098 578.623 259.031 564.871 265.041C569.202 253.33 577.474 242.943 588.991 237.674C604.233 230.701 623.861 233.904 638.945 239.716C656.939 246.65 671.877 259.785 679.669 277.56C680.551 279.573 681.308 281.647 682.06 283.712C695.921 285.621 709.651 287.726 723.227 291.171C701.909 250.119 674.338 202.774 667.787 156.633C656.292 164.679 644.389 172.309 631.695 178.339C588.201 198.997 537.199 203.648 490.106 195.333C458.155 189.692 426.008 176.834 402.281 154.283ZM631.14 159.25L631.745 159.25L631.14 159.25ZM442.634 159.75L443.245 159.75L442.634 159.75ZM444.132 160.25L444.745 160.25L444.132 160.25ZM310.16 297.639C304.089 298.819 297.852 299.78 291.861 301.291C292.488 306.026 293.119 310.759 293.658 315.505C298.098 315.229 302.578 315.063 307.001 314.581C308.832 314.542 310.855 314.671 312.628 314.186L313.046 313.391L314.043 313.623C311.326 312.226 307.001 312.813 304.024 312.958C303.4 309.188 302.784 305.43 302.347 301.634C304.862 300.985 311.521 299.979 313.102 297.949C311.94 297.387 311.466 297.536 310.16 297.639ZM389.241 299.706C376.536 300.579 350.98 301.935 342.351 311.841C336.991 317.994 336.954 326.822 337.696 334.489C339.257 350.612 345.525 380.56 358.254 391.016C375.59 405.255 410.236 403.492 431.576 400.981C432.057 400.924 432.538 400.86 433.018 400.793C443.996 398.499 454.351 396.535 460.878 386.439C467.553 376.113 482.566 344.017 485.308 332.607C486.158 329.071 486.471 325.498 485.685 321.916C484.592 316.937 482.073 312.843 477.681 310.164C461.475 300.281 408.116 297.539 389.241 299.706ZM614.946 299.711C600.87 300.737 569.651 302.23 560.194 313.355C557.178 316.904 555.364 322.382 555.949 327.03C557.566 339.878 578.616 385.98 588.893 393.347C600.884 401.944 636.69 403.989 651.878 402.158C664.157 401.068 682.562 400.745 690.94 390.665C700.483 379.183 711.505 340.964 709.672 325.749C709.017 320.313 706.712 315.743 702.355 312.341C686.885 300.262 634.07 298.248 614.946 299.711ZM738.749 300.402C738.374 304.016 738.553 309.961 735.849 312.45C729.034 313.656 724.143 312.235 717.251 315.607L716.885 316.282C718.984 316.822 721.492 315.712 723.517 315.113C731.436 313.471 738.53 314.39 746.458 315.504C746.629 310.854 746.786 306.204 747.047 301.559C744.286 301.138 741.529 300.675 738.749 300.402ZM767.815 317.174C764.73 317.589 761.771 318.15 758.749 318.895L755.943 345.842C761.604 342.106 767.285 339.491 774.267 340.923C779.542 342.005 784.206 345.38 787.122 349.874C792.759 358.56 792.312 370.08 789.994 379.753C789.155 383.256 788.063 386.639 786.833 390.022C788.239 378.826 787.91 360.925 780.396 351.662C778.36 349.151 775.669 347.441 772.409 347.13C768.138 346.722 764.367 348.369 761.199 351.105C759.161 352.865 757.318 354.926 755.192 356.567C754.606 361.186 754.089 365.826 753.425 370.434C757.318 368.736 760.115 367.898 764.221 369.643C769.345 371.822 772.722 377.189 774.549 382.231C777.301 389.824 777.907 399.624 774.458 407.057C772.525 411.224 769.758 414.015 766.025 416.594C771.433 405.231 772.582 396.406 768.286 384.365C767.261 381.49 765.546 376.897 762.712 375.429C761.506 374.804 760.361 374.61 759.036 374.992C756.916 375.601 754.797 377.745 753.111 379.131C752.817 385.839 752.433 390.595 749.203 396.707C746.328 408.949 743.677 421.219 740.669 433.432C745.239 436.457 749.076 437.015 754.484 435.877C758.4 435.053 762.204 433.369 765.87 431.797C762.283 437.215 758.752 442.012 751.906 443.28C747.035 444.182 742.66 442.91 738.229 440.994C736.614 446.259 731.97 458.405 731.818 463.02C733.547 464.906 736.591 465.353 739.026 465.447C748.359 465.808 755.966 459.755 762.313 453.605C785.536 431.1 801.864 393.553 802.229 361.285C802.366 349.214 800.666 333.628 791.811 324.524C786.831 319.403 780.06 316.991 773.006 316.972C771.322 316.967 769.483 316.96 767.815 317.174ZM322.211 320.063C323.367 328.582 325.493 337.134 327.426 345.51C331.843 364.653 336.452 388.634 353.016 401.181C372.257 415.757 409.323 415.455 432.575 412.174C443.366 410.651 459.632 407.779 466.617 398.425C477.966 383.227 495.471 343.862 495.54 325.439L495.218 325.336L495.509 324.474L495.128 324.955L495.623 324.953L494.96 323.669L494.651 324.207L494.951 323.926L495.226 324.633C494.37 325.748 492.301 337.028 491.399 339.758C487.081 352.829 470.589 391.63 460.639 399.319C452.874 405.318 440.975 407.445 431.514 408.69C408.443 411.728 372.799 412.371 353.86 397.766C349.339 394.281 345.623 390.068 342.794 385.108C335.655 372.59 327.627 339.738 325.763 325.136C325.551 323.474 325.592 322.231 324.582 320.805C323.772 320.41 323.097 320.221 322.211 320.063ZM545.876 322.751C546.247 342.37 564.588 385.852 578.443 399.176C593.229 413.397 622.426 414.66 642.044 414.115C658.088 413.669 684.127 412.767 695.647 400.543C707.1 388.392 712.327 364.327 715.72 348.159L715.772 345.958C710.034 364.141 705.539 393.522 687.127 402.96C667.004 413.274 616.665 412.325 595.223 405.149C578.835 399.666 571.721 386.55 564.47 371.791C559.063 360.785 554.411 349.108 550.345 337.552C548.822 333.223 548.064 326.358 545.876 322.751ZM518.265 332.063L517.624 332.274C515.234 333.082 512.839 333.955 511.615 336.337C509.036 341.36 508.276 347.644 506.35 352.996C499.708 371.445 487.871 401.069 473.429 414.287C468.956 418.381 463.858 421.01 458.161 423.002C430.225 432.771 378.771 433.518 352.225 420.539C337.12 413.154 328.407 401.539 323.14 385.812C318.432 371.755 316.281 356.931 311.62 342.866C312.127 354.049 312.562 365.225 312.851 376.417C312.984 381.56 313.537 387.06 312.952 392.168C312.604 395.21 311.86 398.461 309.673 400.737C307.634 402.858 304.879 403.851 302.097 404.57C315.746 465.087 340.529 526.227 386.928 568.964C395.169 576.555 403.819 583.717 413.311 589.701C442.426 608.058 473.233 620.356 507.8 622.794C557.459 626.048 607.417 607.782 644.711 575.112C697.251 529.084 723.936 466.527 736.255 398.954C734.825 400.968 733.399 402.943 732.221 405.12C726.387 392.478 727.384 376.017 729.249 362.492C721.496 384.059 715.497 411.451 692.921 422.032C668.01 433.709 613.92 432.922 587.705 423.127C564.384 414.413 554.772 396.111 545.015 374.434C541.566 366.772 538.261 358.979 535.426 351.067C533.829 346.614 532.966 341.41 530.625 337.314C529.519 335.377 527.864 333.811 525.789 332.949C523.381 331.948 520.823 331.962 518.265 332.063ZM395.238 607.856C383.268 619.735 376.671 635.136 376.624 652.073C376.555 676.34 391.362 702.097 405.039 721.39L439.307 721.473L441.699 716.928C448.071 707.265 455.374 702.018 465.507 696.627C459.093 692.927 452.687 689.317 446.783 684.819C424.749 668.031 403.978 641.968 396.804 614.823C396.196 612.523 395.714 610.186 395.238 607.856ZM630.864 614.321C622.126 645.531 607.036 664.725 581.286 683.731C574.852 688.48 567.666 692.467 561.698 697.776C570.963 703.019 578.152 708.612 585.552 716.324C587.407 718.318 589.291 720.281 590.983 722.418C602.186 722.332 613.458 722.017 624.652 722.436C640.739 704.037 648.03 676.834 646.502 652.691C645.66 639.391 641.271 623.946 631.179 614.579C631.079 614.487 630.969 614.407 630.864 614.321ZM622.05 615.133C618.735 616.872 615.435 618.645 612.041 620.228C610.828 622.1 609.601 624.242 608.008 625.807C600.415 633.264 585.403 636.189 575.178 638.361C552.887 643.094 530.179 643.949 507.479 642.953C472.087 641.401 437.928 635.507 406.108 619.314C411.225 634.004 419.496 645.782 429.113 657.784C449.664 681.244 479.318 701.677 511.262 703.958C538.629 705.912 570.085 684.871 589.994 667.442C603.102 655.968 613.169 641.691 619.279 625.382C620.267 622.745 621.952 619.017 622.156 616.206C622.196 615.667 622.151 615.59 622.05 615.133ZM366.67 654.142C358.695 655.668 337.586 659.801 331.635 663.833L331.919 664.205L333.875 664.13L369.974 663.971C369.612 660.906 369.679 657.096 368.533 654.268C367.709 654.006 367.58 653.997 366.67 654.142ZM653.574 655.627C653.744 659.365 653.798 663.018 653.594 666.755C679.574 671.053 705.671 674.829 731.597 679.426C728.123 676.844 722.814 675.515 718.716 674.056C697.287 666.425 675.652 661.002 653.574 655.627ZM326.809 670.761C322.366 670.765 317.687 670.521 313.284 671.11C303.262 672.452 290.726 678.307 282.347 683.836C298.315 683.536 314.28 683.447 330.25 683.48L375.208 683.388L371.636 670.299C356.705 670.86 341.744 670.411 326.809 670.761ZM279.494 690.237C272.38 690.283 267.155 690.206 261.794 695.542C260.216 697.113 257.425 699.974 257.626 702.417C257.638 702.571 257.696 702.718 257.731 702.869C260.956 704.572 350.412 703.032 361.743 703.057C369.213 703.005 376.714 703.099 384.179 702.871L378 690.101L279.494 690.237ZM648.903 692.199C647.48 696.303 646.001 700.366 644.399 704.404C663.793 708.186 683.46 711.025 702.963 714.234C730.746 718.806 758.556 723.549 786.43 727.538L788.199 727.45C790.009 725.168 789.541 720.567 789.921 717.71C788.384 716.373 786.237 714.049 784.289 713.451C779.638 712.024 774.221 711.659 769.406 710.956L742.398 706.951C711.238 702.077 680.14 696.548 648.903 692.199ZM249.025 704.497C242.659 709.289 237.042 714.902 231.359 720.464L231.681 721.124L242.75 721.256C244.393 717.58 249.41 708.198 249.226 704.709L249.025 704.497ZM469.01 704.443C460.121 707.955 452.783 712.883 448.099 721.421L478.25 721.482C485.057 721.507 491.911 721.699 498.712 721.5C491.925 717.784 485.018 714.185 478.356 710.252C475.542 708.591 472.008 705.432 469.01 704.443ZM558.879 704.864C550.743 710.866 542.694 717.138 533.955 722.245C541.888 722.401 549.815 722.442 557.75 722.433C565.595 722.426 573.459 722.536 581.302 722.372C575.883 715.953 567.292 707.112 558.879 704.864ZM379.065 709.762L298.152 709.89C283.676 709.905 269.058 709.581 254.602 710.222C253.061 713.894 251.502 717.539 249.786 721.132C254.909 721.178 260.032 721.247 265.155 721.225L346.187 721.085C362.507 721.105 378.867 721.412 395.181 721.15C392.676 717.338 390.151 713.542 387.825 709.616L379.065 709.762ZM641.326 710.788C639.373 714.485 637.084 717.939 634.791 721.43C641.448 721.273 640.735 723.333 646.249 724.75C651.85 726.19 657.722 726.998 663.423 727.988L743.981 741.198C756.779 743.216 769.977 744.533 782.639 747.173C783.409 747.236 785.116 747.643 785.686 747.121C788.091 744.919 787.467 737.418 787.897 734.23L705.024 721.13C683.896 717.635 662.591 713.184 641.326 710.788ZM796.586 726.757C795.894 738.212 794.069 749.661 792.845 761.075L783.424 843.523L775.069 913.588C773.409 927.826 772.306 942.377 769.846 956.486L841.25 956.468L867.528 956.465C861.788 888.04 847.887 815.958 815.021 754.986C810.131 745.914 804.193 733.922 796.719 726.863C796.677 726.824 796.63 726.792 796.586 726.757ZM461.627 729.751L231.052 730.422L159.433 730.556C146.331 730.552 133.058 730.101 119.972 730.59C117.236 730.693 112.383 730.685 110.344 732.597C108.849 734 108.421 736.138 108.485 738.114C108.664 743.721 116.438 761.621 118.765 768.229L142.373 835.571L181.388 946.858C187.284 963.614 192.747 980.664 199.133 997.233C200.389 1000.49 201.725 1003.8 204.103 1006.42C206.326 1007.47 209.116 1007.6 211.55 1007.72C225.451 1008.42 239.618 1007.8 253.557 1007.89L354.25 1008.07L582.984 1008.09L661.446 1008.05C676.985 1008 692.591 1008.14 708.117 1007.52C704.755 996.295 702.091 984.93 699.187 973.579L687.503 928.696L653.13 799.385C649.422 785.694 645.9 771.927 642.412 758.178C640.703 751.439 639.538 744.251 637.157 737.73C636.274 735.313 634.352 732.789 632 731.626C629.476 730.378 625.586 730.31 622.791 730.201C602.46 729.412 581.886 730.001 561.519 729.952L461.627 729.751ZM645.727 731.552C647.166 736.321 648.586 741.091 650.223 745.797C685.557 752.291 721.073 757.621 756.541 763.315C761.06 764.04 780.309 768.072 783.326 767.748C783.69 767.709 784.008 767.479 784.348 767.344C784.803 762.797 785.334 758.235 785.652 753.677L694.327 739.729C678.118 737.095 661.964 733.986 645.727 731.552ZM651.595 752.379C652.659 757.381 653.911 762.254 655.321 767.166C666.362 768.795 780.648 788.379 782.527 787.389C783.03 782.992 783.496 778.575 783.516 774.144C767.445 771.167 751.16 768.991 735.007 766.457C707.12 762.084 679.349 757.532 651.595 752.379ZM657.169 773.751C658.398 778.453 659.756 783.157 660.824 787.897C690.619 793.847 720.795 798.657 750.819 803.317C757.931 804.421 772.855 807.626 779.481 807.501C779.719 807.259 780.096 806.954 780.255 806.658C780.689 802.437 781.116 798.216 781.629 794.003C750.934 789.511 720.273 784.538 689.667 779.469C678.834 777.675 668.025 775.313 657.169 773.751ZM662.617 794.794C664.02 799.722 665.397 804.66 666.895 809.56L747.534 823.078L766.721 826.208C769.973 826.769 773.658 827.795 776.944 827.825L777.572 826.883L779.095 814.208C740.397 807.258 701.127 802.781 662.617 794.794ZM669.151 816.597C669.982 821.608 671.468 826.49 672.824 831.379C700.166 835.159 727.423 840.093 754.656 844.597C758.533 845.239 771.279 848.292 774.03 847.835C774.377 847.777 774.663 847.529 774.98 847.376L776.673 834.527C740.931 828.017 704.92 822.946 669.151 816.597ZM674.521 838.514C675.882 843.192 677.165 847.865 678.329 852.596L738.537 862.296C748.973 864.014 759.959 866.65 770.465 867.485C771.558 867.572 771.808 867.685 772.744 867.047L774.108 854.682C760.859 851.784 747.306 849.825 733.922 847.593C714.153 844.297 694.417 840.97 674.521 838.514ZM680.104 859.799C681.164 864.389 682.394 868.854 683.783 873.354C700.738 876.832 718.11 879.143 735.215 881.84C746.649 883.642 758.234 886.046 769.71 887.386L770.369 886.854C770.706 882.614 771.163 878.4 771.667 874.176C754.616 871.121 737.425 868.71 720.335 865.841C707.196 863.635 693.385 860.367 680.104 859.799ZM685.369 880.011C686.727 884.744 688.242 889.482 689.408 894.263C697.407 895.726 765.498 908.198 768.297 907.275L769.452 893.718C741.521 888.771 713.389 884.445 685.369 880.011ZM691.2 900.822L694.999 915.579C711.272 918.213 727.502 921.138 743.734 924.009C748.418 924.837 761.848 928.053 765.473 927.567L765.784 927.312L767.194 913.731C741.854 909.621 716.402 905.713 691.2 900.822ZM696.985 922.121C697.855 926.883 698.909 931.544 700.288 936.187C708.289 937.697 759.404 948.245 763.787 946.61C764.155 942.623 764.428 938.602 764.903 934.628C742.477 929.493 719.666 925.937 696.985 922.121ZM702.048 942.795L705.824 956.539C724.822 956.652 743.865 957.049 762.859 956.795C762.697 955.544 762.833 954.349 761.939 953.427C741.939 950.091 721.881 947.071 702.048 942.795ZM709.085 970.212C712.098 981.646 715.495 993.202 717.808 1004.8C769.793 995.636 823.056 987.185 874.625 976.33L904.49 970.332C885.44 969.479 866.097 970.31 847.009 970.339L774.89 970.136C752.974 970.182 730.996 970.592 709.085 970.212Z"/>
	<path transform="scale(1.66211 1.66211)" d="M638.897 320.994C631.783 317.511 624.109 316.085 616.242 317.229C604.435 318.945 596.761 325.343 589.861 334.696L589.27 335.508L588.971 335.402L588.731 335.843C588.546 335.404 588.507 335.384 588.444 334.831C587.997 330.906 591.573 324.415 593.798 321.492C599.508 313.987 607.723 310.472 616.855 309.161C626.713 307.736 637.812 310.651 645.848 316.455C656.154 323.897 659.492 333.952 661.43 345.958C656.312 335.366 649.156 326.865 638.897 320.994Z"/>
	<path transform="scale(1.66211 1.66211)" d="M382.511 343.375C383.842 336.83 385.362 331.057 389.482 325.641C396.675 316.185 407.243 311.228 418.825 309.665C421.154 309.496 423.406 309.495 425.733 309.663C436.395 310.434 446.571 314.894 453.605 323.079C461.416 332.169 462.22 341.647 461.422 353.163C459.902 349.94 458.772 346.542 457.464 343.227C453.02 331.971 446.514 324.604 435.369 319.771C427.497 317.355 419.457 316.808 411.416 318.785C402.354 321.013 392.784 326.533 387.492 334.406C385.685 337.093 384.539 340.046 382.876 342.782L382.511 343.375Z"/>
	<path transform="scale(1.66211 1.66211)" d="M614.621 380.397C609.197 380.718 604.216 379.808 599.593 376.817C593.846 373.098 589.894 366.822 588.732 360.105C587.577 353.423 589.364 346.48 593.274 340.978C597.498 335.033 603.148 332.697 610.11 331.642C615.053 331.259 620.719 332.533 624.935 335.1C630.422 338.439 634.06 344.185 635.436 350.395C636.932 357.145 635.683 364.284 631.736 369.991C627.517 376.092 621.733 379.092 614.621 380.397Z"/>
	<path transform="scale(1.66211 1.66211)" d="M435.459 379.981C428.95 380.58 422.903 379.885 417.484 375.895C412.388 372.142 409.074 366.245 408.158 360.014C407.207 353.542 408.744 346.705 412.699 341.457C416.747 336.088 422.393 333.003 428.983 332.167C433.553 332.227 437.749 332.634 441.918 334.738C448.065 337.841 452.325 343.818 454.25 350.333C456.052 356.428 455.144 362.676 451.947 368.146C448.159 374.626 442.522 378.073 435.459 379.981Z"/>
	<path transform="scale(1.66211 1.66211)" d="M280.099 414.997L280.352 414.719L280.099 414.997Z"/>
	<path transform="scale(1.66211 1.66211)" d="M554.115 428.074C552.125 430.853 549.627 433.546 547.005 435.741C538.427 442.921 527.113 445.67 516.087 444.681C506.106 443.785 494.93 438.621 488.609 430.687C486.33 427.826 484.122 423.528 484.595 419.798C489.813 420.957 492.943 424.434 497.229 427.338C501.859 430.476 507.433 432.497 512.943 433.363C523.533 435.027 534.71 433.069 543.973 427.58C546.719 425.953 549.216 423.574 551.826 421.693C553.618 421.411 555.026 421.609 556.805 421.919L556.971 422.689C556.4 424.714 555.243 426.325 554.115 428.074Z"/>
	<path transform="scale(1.66211 1.66211)" d="M410.443 478.664C409.015 475.747 407.741 472.834 407.079 469.638C405.737 463.16 406.644 456.24 410.405 450.693C413.637 445.927 417.924 443.713 423.419 442.639C431.926 442.509 439.355 447.995 447.022 451.042C451.638 452.877 456.568 454.142 461.354 455.457C481.482 460.985 503.054 463.513 523.91 463.378C540.42 463.271 556.899 461.25 572.985 457.555C581.019 455.71 589.569 453.472 597.121 450.163C602.551 447.783 607.781 444.311 613.534 442.786C616.674 441.954 620.157 442.143 623.284 442.945C628.629 444.316 632.897 447.926 635.662 452.632C641.267 462.169 639.512 471.719 636.803 481.769C635.796 472.178 632.548 463.709 626.208 456.37C624.365 454.758 622.415 453.652 620.287 452.481C609.139 452.478 599.409 457.532 589.024 460.909C581.575 463.331 573.85 465.157 566.169 466.681C530.137 473.832 493.417 471.054 457.957 462.305C448.704 460.022 439.549 455.177 430.259 453.65C426.402 453.016 422.802 453.582 419.628 455.976C412.895 461.055 411.513 470.916 410.443 478.664Z"/>
	<path transform="scale(1.66211 1.66211)" d="M440.966 514.906C435.986 506.636 432.038 497.645 428.966 488.507C426.721 481.826 421.512 465.349 425.205 458.832C425.724 457.916 426.375 457.196 427.425 456.945C428.836 460.599 430.17 464.514 432.572 467.651C441.19 478.905 480.329 486.844 494.786 488.727C527.371 492.969 562.073 489.985 592.742 477.895C598.528 475.614 604.882 473.475 609.783 469.537C614.781 465.52 615.523 461.572 616.144 455.551C617.979 456.108 619.045 456.809 620.087 458.438C622.696 462.515 622.099 467.905 621.148 472.418C615.402 499.682 596.443 530.236 573 545.303C550.89 559.513 522.362 562.689 496.987 557.086C472.315 551.637 454.335 535.835 440.966 514.906ZM513.103 524.25C497.633 525.338 482.545 528.026 468.559 535.058C485.252 548.456 507.41 554.327 528.693 551.862C528.836 551.846 528.979 551.822 529.121 551.802C546.145 550.188 560.632 544.897 574.349 534.662C555.19 526.264 534.032 522.26 513.103 524.25Z"/>
	<path transform="scale(1.66211 1.66211)" d="M556.853 572.221C547.527 578.11 537.476 581.733 526.499 582.888C508.907 584.74 492.391 580.541 478.649 569.405C480.006 569.655 481.173 570.188 482.451 570.697C506.822 580.416 537.419 579.185 561.398 568.869C559.943 570.057 558.377 571.123 556.853 572.221Z"/>
	<path transform="scale(1.66211 1.66211)" d="M122.598 765.253C123.458 762.913 124.426 760.504 126.236 758.721C129.461 755.544 133.96 755.835 138.142 755.751L629.064 755.732C640.624 795.105 650.903 834.953 661.776 874.532C673.023 915.472 684.899 956.393 695.15 997.589L680.799 997.753L375.537 997.776L270.161 997.845C250.164 997.896 230.025 998.539 210.05 997.888C208.123 997.825 206.13 997.639 204.402 996.708C202.995 995.95 202.468 994.121 201.874 992.714C198.711 985.217 196.363 977.143 193.707 969.443L178.21 924.562L139.776 814.746C134.078 798.374 127.239 781.929 122.598 765.253Z"/>
</svg>
