<?xml version="1.0" encoding="utf-8" ?>
<svg xmlns="http://www.w3.org/2000/svg" xmlns:xlink="http://www.w3.org/1999/xlink" width="1702" height="1702">
	<path fill="white" transform="scale(1.66211 1.66211)" d="M0 0L0 1024L1024 1024L1024 0L0 0Z"/>
	<path transform="scale(1.66211 1.66211)" d="M451.056 0L477.843 0C483.601 0.878052 489.42 1.27743 495.18 2.14277C504.087 3.48079 512.9 5.5903 521.558 8.04991C536.113 12.1846 550.445 17.0174 564.793 21.8076C587.095 29.2534 615.378 40.1421 638.918 39.3341C654.743 38.7908 669.427 32.4683 682.038 23.1162C686.239 20.0003 690.288 13.8895 696.191 14.695C698.297 14.9823 700.323 16.1879 701.524 17.9497C703.94 21.4944 702.979 26.4447 702.08 30.3514C698.426 46.2309 690.988 61.2675 681.01 74.1219C693.746 68.0269 706.942 57.9553 716.045 47.2557C719.961 42.6533 723.886 36.1626 728.679 32.6747C730.581 31.2906 733.538 30.3805 735.814 31.3033C737.956 32.1717 739.185 34.393 739.864 36.4811C741.473 41.4252 741.092 47.4943 741.033 52.6737C740.783 74.5743 737.679 94.8393 731.563 115.866C740.8 122.651 748.995 129.809 756.336 138.681C780.295 167.642 795.264 210.819 800.874 247.596C806.111 281.925 803.911 315.706 799.787 349.983C815.777 350.15 829.335 354.132 840.747 365.846C852.415 377.823 856.672 392.901 856.374 409.33C855.681 447.64 833.36 493.491 805.734 520.026C792.756 532.491 776.2 543.832 757.435 543.418C754.92 543.363 752.393 543.068 749.89 542.819C738.25 577.274 717.05 610.048 690.796 635.203C683.738 641.965 676.052 647.878 668.452 654.004C675.765 656.084 679.662 660.007 683.867 666.081C708.64 674.41 733.063 683.698 757.497 692.964C762.628 694.91 774.133 700.923 778.571 701.622C786.649 702.893 800.776 700.919 809.493 700.383L894.824 695.248C901.368 694.831 907.918 694.436 914.453 693.9C919.954 693.449 925.766 692.477 931.27 693.091C938.384 693.884 944.537 698.569 947.742 704.892C951.897 713.087 949.698 720.769 946.85 728.881C934.892 762.938 922.161 796.756 909.705 830.633C917.796 846.194 923.221 863.007 928.705 879.621C935.031 898.786 941.032 918.076 946.237 937.576C948.424 945.769 951.177 954.177 952.422 962.56C949.757 967.559 945.602 971.533 941.445 975.311C921.851 993.115 896.158 1004.33 871.065 1011.96C861.249 1014.95 851.248 1016.97 841.144 1018.7C837.282 1022.64 833.996 1023.61 828.49 1023.67C823.886 1023.71 819.024 1023.32 814.467 1024L263.232 1024C257.329 1022.68 251.019 1022.3 245.004 1021.49C236.135 1020.3 227.326 1018.74 218.521 1017.15C218.126 1018.26 217.74 1019.39 217.24 1020.45C216.553 1021.92 215.37 1023.01 213.789 1023.42C209.657 1024.52 202.928 1022.66 198.718 1021.96C169.686 1017.07 140.05 1008.56 114.083 994.464C104.263 989.135 76.4572 972.092 74.0496 962.524C72.6723 957.05 78.3655 940.108 79.9852 933.917C93.8802 880.81 111.196 820.262 139.975 773.543C149.506 758.071 160.938 743.141 175.648 732.265C181.156 728.193 186.965 724.48 193.089 721.402C199.757 718.051 206.914 715.369 213.826 712.546C228.784 706.438 243.834 700.72 259.077 695.356C284.501 686.411 309.761 677.398 336.021 671.133C342.351 664.663 348.333 659.526 356.531 655.55C316.259 622.72 290.303 590.975 273.038 541.4L272.419 541.414C249.209 541.864 233.415 535.244 216.694 519.058C190.15 493.364 168.065 445.092 167.746 408.134C167.6 391.211 172.68 374.949 184.745 362.734C194.212 353.149 204.822 349.694 218.072 349.557C216.63 343.778 214.62 338.11 213.037 332.36C210.573 323.408 208.646 314.238 207.096 305.086C198.943 256.925 199.346 196.756 228.975 155.47C245.812 132.01 269.542 116.717 298.05 111.94C303.213 100.456 309.985 89.1971 317.31 78.9606C341.995 44.4657 377.518 17.1721 418.713 5.92764C429.422 3.00453 440.146 1.80026 451.056 0ZM488.246 127.833C497.106 128.86 505.895 130.733 514.649 132.422C542.558 137.808 569.992 143.869 598.597 141.567C638.992 138.317 677.321 120.439 705.536 91.293C711.595 85.0334 714.323 79.5652 719.439 73.6506C719.529 73.546 719.622 73.4435 719.714 73.34C719.673 73.4758 719.636 73.6125 719.593 73.7475C711.716 98.4484 670.256 126.492 647.67 137.834C622.786 150.329 595.991 154.062 568.47 151.648C526.448 147.962 493.198 129.086 449.061 129.417C433.394 129.534 418.31 132.178 403.708 137.932C384.448 145.522 371.781 157.546 365.208 177.132C364.673 178.728 364.418 180.091 365.087 181.683C365.95 181.984 365.862 182.146 366.768 181.737C367.851 181.248 368.577 180.396 369.366 179.539C369.95 177.442 370.418 174.848 371.407 172.92C376.463 163.064 386.573 153.696 396.139 148.299C413.136 138.711 435.998 136.127 455.126 138.434C474.139 140.727 492.88 147.48 511.49 151.952C542.635 159.437 580.879 163.042 612.399 156.675C629.896 153.141 646.725 146.387 661.804 136.831C677.202 127.072 691.693 114.394 703.581 100.583C709.29 93.9498 714.384 86.3052 720.866 80.4271C715.032 110.39 698.411 138.302 672.802 155.523C641.413 176.631 601.549 182.806 564.755 175.575C514.924 165.782 455.812 124.467 406.016 148.94C417.324 146.42 428.542 144.308 440.2 144.841C465.328 145.992 487.922 155.51 510.843 164.895C522.646 169.728 534.533 174.722 546.733 178.466C584.33 190.003 623.747 190.222 659.95 173.592C666.508 170.58 672.549 166.956 678.221 162.493C681.484 159.925 684.657 156.917 688.201 154.766C686.555 158.138 683.62 161.181 681.007 163.848C666.127 179.028 645.565 187.949 625.733 194.773C593.16 205.982 560.484 204.212 527.194 197.994C512.318 195.215 497.672 191.809 483.152 187.546C460.332 180.845 435.861 172.582 411.736 174.182C421.865 176.167 431.973 177.793 442.011 180.282C462.004 185.237 481.528 191.909 501.579 196.637C554.314 209.073 615.829 213.167 662.862 181.57C667.473 178.472 672.034 174.927 676.873 172.222C647.653 203.016 609.718 221.345 567.056 222.48C540.901 223.176 515.001 218.854 489.958 211.43C477.752 207.81 465.772 203.42 453.559 199.853L453.002 199.57L453.559 199.853C457.695 203.096 464.725 205.343 469.583 207.419C498.734 219.872 531.148 230.065 563.14 230.248C603.456 230.478 644.757 211.598 673.054 183.198C681.476 174.747 689.808 164.554 696.191 154.458C712.707 128.334 724.52 93.3911 724.57 62.3479C717.412 70.275 708.67 77.5376 700.03 83.802C646.898 122.322 586.527 113.811 525.389 108.388C498.916 106.039 471.611 103.749 445.242 108.369C428.555 111.292 398.765 122.907 388.784 137.199L388.543 137.442L388.784 137.199C391.926 135.667 394.922 133.489 397.956 131.713C404.191 128.064 410.825 124.938 417.695 122.684C464.17 107.434 514.531 122.581 561.456 126.971C581.919 128.886 602.46 128.652 622.735 125.082C638.631 122.283 654.156 117.634 668.846 110.901C675.662 107.776 682.146 103.923 689.082 101.069C640.214 138.184 593.529 141.255 535.142 133.172C522.143 131.372 501.137 126.678 488.766 127.778C488.593 127.793 488.42 127.815 488.246 127.833ZM645.92 183.803C639.708 185.565 633.617 187.512 627.281 188.824C608.126 192.792 587.446 192.609 568.207 189.109C555.825 186.857 543.615 183.138 531.866 178.656C497.318 165.477 464.193 146.133 425.87 149.552C415.045 150.518 404.661 153.225 395.247 158.772C389.206 162.331 384.058 166.985 379.019 171.817L378.285 172.917C381.44 172.324 386.038 167.926 388.861 166.096C400.09 158.817 415.173 156.91 428.248 157.021C459.19 157.283 487.907 171.178 516.225 181.981C546.564 193.556 578.511 198.946 610.814 193.717C622.335 191.852 635.727 189.746 645.92 183.803L646.497 183.502L645.92 183.803ZM227.291 217.957L227.031 218.498L227.291 217.957C230.923 213.758 233.252 207.062 236.103 202.171C244.801 187.244 258.479 172.34 273.15 163.324C287.813 154.313 303.614 150.884 320.42 154.899C314.963 155.619 309.547 156.6 304.276 158.206C276.107 166.788 253.226 193.081 239.728 218.266C232.621 231.528 227.989 245.357 223.63 259.696C222.306 264.053 220.54 268.697 219.964 273.211C219.548 276.465 220.056 282.1 221.003 285.241C222.049 282.469 222.469 279.307 223.198 276.418C224.825 269.974 226.339 263.405 228.183 257.026C234.506 235.147 248.639 210.628 264.647 194.205C269.068 189.67 273.991 185.602 279.099 181.866C292.57 172.014 303.146 168.482 319.699 168.321C311.189 174.092 301.723 178.32 293.337 184.381C269.304 201.748 248.503 226.912 234.94 253.213C229.621 263.53 225.481 274.161 221.402 285.003C226.056 278.142 229.497 270.19 233.449 262.888C238.851 252.908 245.052 243.102 251.708 233.909C267.427 212.201 287.585 189.237 313.048 179.3C320.381 176.438 327.936 174.929 335.676 173.699C283.669 207.861 243.732 254.452 225.21 314.517C226.054 317.248 227.008 319.947 227.932 322.652C231.311 309.84 235.852 297.261 241.684 285.36C257.461 253.161 276.011 233.884 306.84 215.245C321.561 206.346 337.031 199.04 353.3 193.471C348.738 184.841 343.946 176.523 342.069 166.828C337.896 145.272 345.556 119.724 357.707 101.874C370.104 83.6623 390.151 70.562 410.2 62.1029C467.922 37.7491 505.095 49.0904 562.721 63.2377C581.694 67.8957 600.897 71.5846 620.363 67.8389C606.228 66.7787 592.151 65.7476 578.268 62.7389C561.908 59.1935 545.874 53.9764 529.748 49.5039C499.143 41.0157 466.107 35.425 434.749 43.4467C422.271 46.6387 410.006 52.029 398.554 57.888C370.059 72.4669 347.805 101.112 337.996 131.404C338.815 112.944 346.516 95.6977 357.233 80.924C369.906 63.4549 389.571 48.6397 408.959 39.331C448.621 20.2877 496.186 23.3712 537.2 36.3523C549.013 40.0914 560.428 44.8483 572.07 49.057C601.568 59.7201 625.935 63.2763 657.201 58.2158C644.054 64.6417 625.545 68.7293 611.125 71.8563C544.147 83.0636 479.414 44.0812 411.94 72.8266C386.112 83.8298 366.834 106.022 356.58 131.803C349.42 149.803 346.284 167.229 354.106 185.491C352.202 166.698 355.165 146.798 363.421 129.735C372.713 110.531 388.404 93.9663 407.127 83.7537C447.758 61.5906 494.702 68.8403 538.113 76.2252C559.216 79.8151 580.501 83.5857 602 81.7937C618.42 80.425 634.495 75.3408 648.997 67.5115C655.094 64.2202 660.454 60.3722 667.072 58.0674C661.015 66.8657 651.155 73.131 641.71 77.7497C629.848 83.5503 616.624 87.8846 603.561 89.7348C587.143 92.0604 570.126 90.7742 553.676 89.3848C519.578 86.5048 474.978 79.825 441.624 87.8085C410.904 95.1616 385.961 113.618 369.628 140.613C362.873 151.779 358.145 164.661 357.305 177.757C357.177 179.749 356.851 182.414 357.406 184.346C357.676 185.285 357.448 184.948 358.354 185.423C360.155 183.326 361.315 170.078 362.349 166.326C364.038 160.201 366.326 154.644 369.322 149.051C377.928 132.98 390.396 118.936 405.719 109.035C437.547 88.4675 472.74 90.5241 508.671 93.9179L554.109 98.2779C576.457 100.389 598.468 101.871 620.272 95.0869C649.242 86.0737 665.261 70.2071 679.056 43.7791C668.378 49.4691 657.107 53.4289 644.997 54.4247C620.986 56.3994 597.738 48.8673 575.195 41.6046C546.777 32.4493 518.222 20.8684 488.567 16.4766C466.796 13.2521 443.93 14.5964 422.78 20.6517C384.585 31.5873 351.213 56.6526 328.427 89.0581C322.725 97.1673 318.055 105.985 313.258 114.646C320.127 120.224 326.752 126.041 333.316 131.974C323.094 128.851 313.47 126.325 302.663 127.135C281.79 128.699 260.674 141.158 247.214 156.865C231.778 174.878 224.08 197.125 220.341 220.243C219.342 226.417 218.298 232.831 218.795 239.086C222.931 211.08 238.825 180.029 259.94 161.409C276.941 146.416 294.6 140.947 316.943 142.416C303.145 145.413 291.545 146.383 278.7 153.319C256.826 165.13 234.489 193.986 227.291 217.957ZM260.712 274.721L260.421 275.103L260.111 275.498L260.421 275.103L260.712 274.721C265.006 270.46 268.776 265.69 273.048 261.4C284.642 249.755 298.699 239.169 313.554 232.078C317.3 225.999 321.372 220.105 325.28 214.127C325.023 214.229 324.765 214.328 324.509 214.433C306.244 221.937 268.445 256.773 260.712 274.721ZM363.976 300.799L363.302 301.594C366.807 301.527 374.381 297.732 378.03 296.433C390.613 291.955 406.323 288.222 419.6 288.764C423.908 288.94 428.07 290.056 432.34 290.524L432.762 290.567L432.998 290.873L432.762 290.567C430.557 288.701 427.457 287.157 424.692 286.353C406.868 281.171 379.463 292.343 363.976 300.799ZM732.978 537.259L732.627 537.497L732.978 537.259C741.434 513.783 744.646 485.981 744.697 461.152C744.716 451.918 743.812 442.709 743.824 433.49C749.114 451.132 747.785 468.883 748.025 486.973C755.067 451.206 756.204 413.913 754.915 377.583L748.025 378.11C742.991 401.473 735.001 441.889 714.008 455.427C683.738 474.947 627.375 475.084 592.721 467.252C572.862 462.764 561.918 454.886 551.148 437.646C540.608 420.777 534.492 400.234 530.043 380.938L493.972 381.108C488.54 405.278 475.568 443.258 454.174 456.986C427.093 474.362 366.899 473.888 335.984 466.97C320.887 463.591 307.595 457.632 299.194 444.112C289.329 428.234 281.724 406.059 277.303 388.019C276.634 385.291 274.861 375.133 272.777 374.127C270.09 375.244 267.907 378.391 265.993 380.573C266.241 402.134 267.604 423.971 269.351 445.456C270.189 455.763 270.757 466.235 272.339 476.458C272.353 476.293 272.369 476.129 272.382 475.964C273.621 459.688 273.959 443.205 276.669 427.054C278.042 436.504 277.039 446.612 276.817 456.159C276.384 474.736 276.671 495.751 281.557 513.81C281.073 492.796 279.827 471.56 287.744 451.596C287.054 458.164 285.944 464.686 285.602 471.287C284.369 495.069 286.253 528.763 295.615 550.648L295.777 551.146L295.615 550.648C293.441 529.474 291.226 502.838 297.984 482.452C296.364 510.885 296.309 543.149 306.351 570.179C309.217 577.895 313.376 585.453 317.702 592.456C311.966 569.085 306.957 543.718 309.48 519.553L309.938 519.147C310.854 521.163 311.071 533.927 311.491 537.421C313.889 557.333 320.222 593.382 331.056 609.487C335.038 615.407 340.624 619.873 345.416 625.081C336.763 606.071 330.452 587.391 327.384 566.666C326.979 563.932 325.806 559.253 326.731 556.716C329.528 563.485 330.68 572.27 332.759 579.485C338.061 597.881 347.405 622.259 360.173 636.423C366.313 643.234 374.846 649.37 382.556 654.343C370.439 639.055 361.381 620.732 358.515 601.268C361.662 607.895 364.047 614.843 367.227 621.457C377.603 643.039 393.966 663.446 416.964 672.238C401.345 659.502 388.203 638.644 384.659 618.638C399.994 648.946 413.859 669.694 447.164 682.326C429.232 670.674 416.918 655.827 408.735 636.053C413.674 642.631 417.72 649.71 423.145 655.951C440.424 675.829 466.583 688.08 492.404 691.77C526.088 696.584 561.164 688.777 588.424 668.031C595.175 662.893 600.517 656.843 605.541 650.044C607.602 647.255 609.683 643.622 612.212 641.297C611.112 645.32 608.59 649.424 606.31 652.88C597.544 666.17 586.291 675.547 572.901 683.867C598.066 675.467 612.927 661.502 625.823 638.56C628.911 633.065 631.095 626.919 634.553 621.672C634.649 621.526 634.749 621.383 634.847 621.239C629.843 639.331 622.219 655.133 609.527 669.049C631.428 658.119 643.671 640.273 653.168 618.275C655.704 612.4 657.779 606.35 660.468 600.54C658.102 618.378 651.719 633.303 643.532 649.077C648.59 645.421 654.663 641.758 659.038 637.364C662.328 634.06 664.804 629.897 667.197 625.93C673.912 614.798 678.609 602.616 682.185 590.14C684.109 583.428 685.651 576.555 688.011 569.982C688.221 589.519 681.733 610.657 673.04 628.013C678.606 623.344 684.671 618.047 688.635 611.894C691.604 607.286 693.286 601.843 694.995 596.672C701.884 575.831 704.428 555.967 707.276 534.355C708.782 549.575 707.267 566.689 704.372 581.724C703.282 587.38 701 592.978 700.391 598.687L700.126 598.997L700.391 598.687C703.055 595.365 704.97 590.23 706.482 586.241C715.799 561.674 716.98 535.569 717.599 509.626C722.07 527.134 719.898 552.364 716.931 570.047C728.085 546.396 731.326 520.042 731.729 494.158C731.861 485.658 730.837 476.789 731.822 468.354L731.906 467.668C734.672 484.754 735.932 502.373 734.848 519.679C734.479 525.568 733.582 531.394 732.978 537.259ZM641.124 691.568C639.095 697.359 637.492 703.269 634.604 708.713C635.548 708.604 637.084 708.711 637.726 707.981C640.657 704.654 641.14 695.935 641.124 691.568L641.372 691.003L641.124 691.568ZM311.768 699.05C317.158 696.251 323.855 695.393 329.81 694.57L329.813 687.377C291.719 700.376 252.604 712.084 215.883 728.647C212.19 738.01 210.9 747.91 209.429 757.802C252.185 754.821 295.109 756.702 337.791 760.116L335.616 750.421C320.911 748.787 233.596 746.712 230.856 744.774C237.77 744.447 244.619 743.429 251.554 743.221C279.216 742.391 307.424 743.647 335.006 745.844C334.46 742.486 333.976 739.101 333.242 735.779C318.264 734.552 303.285 733.342 288.277 732.542C273.418 731.75 251.8 731.569 237.93 728.053C266.259 724.327 303.456 720.163 331.713 724.533C331.454 720.785 331.116 717.119 330.503 713.412C320.398 713.025 310.305 712.551 300.192 712.371C292.828 712.24 285.189 712.552 277.873 711.85L277.926 710.999L277.379 711.787L276.555 711.383C287.577 708.265 317.923 708.968 330.401 709.441C330.224 705.659 329.986 701.866 329.936 698.081C323.948 698.493 317.765 698.987 311.768 699.05ZM423.605 735.003L424 735.5L424.633 736.25L424.854 736.729C431.055 749.365 450.844 765.301 462.652 772.224C486.056 785.947 515.876 788.87 542.004 781.943L543.455 776.648C530.497 778.546 517.698 779.781 504.579 778.766C471.13 776.18 446.365 761.696 424.854 736.729L424.633 736.25L424 735.5L423.605 735.003ZM163.96 772.741C170.573 780.244 181.652 812.672 185.987 823.797C187.514 827.715 189.061 833.458 191.572 836.767L191.873 836.997L191.572 836.767C191.184 828.093 188.768 819.119 187.238 810.58C184.497 795.277 181.957 778.908 181.542 763.377C187.672 780.509 192.373 798.892 194.641 816.975C196.32 790.856 195.016 751.505 211.882 730.131C204.857 733.08 198.005 736.068 191.632 740.308C159.999 761.353 142.886 799.512 128.975 833.501C125.629 841.674 122.243 849.96 119.63 858.399C139.562 868.199 158.934 879.195 178.294 890.077C180.765 891.466 192.688 898.996 194.757 898.887C194.761 897.454 194.067 896.865 193.086 895.834C187.364 889.821 174.83 881.528 167.838 876.088C153.195 864.696 139.437 853.005 126.162 840.034C141.961 846.731 161.341 860.549 175.724 870.391C181.277 874.191 187.001 878.883 193.042 881.839L193.496 881.584C193.369 880.129 192.412 879.232 191.46 878.206C187.192 873.607 182.29 869.554 177.799 865.171C167.069 854.698 156.467 843.799 146.675 832.447C142.795 827.95 138.378 823.15 135.625 817.883C147.383 824.492 161.265 837.883 170.974 847.489C174.2 850.68 177.224 854.2 180.586 857.232L180.874 857.497L180.586 857.232C178.081 850.11 173.264 843.092 169.64 836.473C162.834 824.043 156.529 811.664 151.583 798.372C160.243 806.366 166.372 818.675 172.346 828.761C179.253 840.423 186.05 852.31 193.679 863.52C185.572 840.808 176.442 818.695 169.442 795.568C167.202 788.168 164.399 780.502 163.96 772.741ZM464.389 32.7074C459.175 33.148 441.947 34.21 438.496 36.6174C439.98 37.0872 454.67 35.0143 457.744 34.8265C470.27 34.0612 482.977 34.7363 495.387 36.5862C531.744 42.0061 565.753 57.849 602.116 63.0657C608.722 63.9448 615.688 65.1171 622.359 65.0139C624.263 64.9844 626.11 64.544 627.977 64.4869L628.288 63.8687L628.36 64.1683C619.948 63.6126 611.441 63.2877 603.156 61.6309C583.588 57.7172 565.238 50.7902 546.272 44.83C526.977 38.7662 507.237 34.1766 487.012 32.8361C479.666 32.3491 471.715 31.9639 464.389 32.7074ZM726.471 131.235C724.432 136.1 722.389 140.96 720.247 145.781C728.218 150.958 735.807 156.419 742.463 163.247C765.801 187.186 776.735 222.64 783.489 254.616C786.658 269.619 788.655 284.881 789.7 300.175L790.269 305.192C791.338 292.989 790.281 280.447 788.926 268.303C784.063 224.718 770.254 179.419 741.613 145.401C737.197 140.156 732.147 135.118 726.471 131.235ZM715.562 154.786C713.568 158.102 711.475 161.395 709.744 164.857C739.006 185.485 751.262 208.449 761.871 241.708C765.753 253.879 769.149 266.32 771.345 278.916C771.525 279.948 771.687 280.981 771.839 282.017L772.548 285.045L772.763 284.846C770.331 247.285 759.264 211.526 737.863 180.418C731.799 171.603 724.899 162.834 716.83 155.745C716.403 155.369 716.049 155.079 715.562 154.786ZM705.774 172.282L699.338 180.222C706.995 186.647 713.407 194.337 719.475 202.243C748.837 240.501 759.917 286.94 764.639 334.115C764.942 335.592 764.803 335.867 765.97 336.779C767.42 334.198 766.675 328.699 766.589 325.741C765.909 302.523 762.552 279.237 756.285 256.859C749.277 231.833 737.301 208.21 721.096 187.885C716.636 182.292 711.672 176.412 705.774 172.282ZM647.133 183.25L647.745 183.25L647.133 183.25ZM693.813 186.989L687.244 194.963C692.961 200.223 698.479 205.451 703.401 211.492C724.873 237.849 736.299 272.354 742.673 305.298C743.459 309.364 744.131 324.145 745.602 326.541C747.377 326.977 748.396 327.504 750.155 326.924C751.252 325.301 750.917 323.953 750.566 322.158C748.967 313.972 747.924 305.774 746.049 297.628C738.579 265.176 725.466 232.985 706.931 205.247C702.928 199.257 698.702 192.241 693.813 186.989ZM382.282 191.577C370.36 195.455 371.061 201.859 363.006 206.933C362.772 207.081 362.542 207.235 362.31 207.386C353.155 207.842 350.874 208.868 344.718 215.671C319.995 242.993 313.306 283.241 307.217 318.219L335.082 314.264C354.737 292.502 384.264 277.871 413.743 276.343C424.875 275.765 434.999 277.976 443.407 285.646C448.407 290.207 452.014 296.118 454.398 302.417C424.446 300.447 393.533 298.833 365.975 312.945C397.506 312.283 427.646 315.389 458.337 322.861C463.778 324.185 469.188 325.808 474.481 327.636C479.232 329.277 483.955 331.403 488.947 332.15C494.924 333.045 501.563 332.501 507.623 332.471C515.099 332.432 522.581 332.641 530.055 332.545C540.387 332.413 550.503 326.523 560.445 323.76C588.623 315.928 616.627 311.918 645.898 312.718C650.867 312.854 656.01 312.758 660.931 313.369L661.354 313.426C658.888 312.463 656.421 311.396 653.901 310.586C620.311 297.928 601.885 298.57 567.169 302.259C571.215 292.069 578.607 282.926 588.813 278.44C605.612 271.055 633.71 277.466 650.337 284.095C666.033 290.353 679.879 302.343 689.679 315.999C700.872 317.376 711.958 319.017 723.039 321.115C714.28 274.559 691.955 249.455 660.687 216.126C616.989 245.036 574.458 252.279 523.655 241.905C504.113 237.914 485.393 231.987 466.849 224.672C453.132 219.26 439.767 212.949 426.495 206.535C416.583 201.744 406.374 196.127 395.801 193.018C391.285 191.69 386.98 191.251 382.282 191.577ZM680.144 200.831L672.966 207.649C698.647 234.254 715.617 253.431 725.554 290.167L727.14 295.28C724.741 266.645 711.219 239.504 694.36 216.619C690.787 211.768 686.904 206.17 682.283 202.289C681.622 201.734 680.958 201.133 680.144 200.831ZM226.743 219.25L227.134 219.25L226.743 219.25ZM226.269 220.25L226.719 220.25L226.269 220.25ZM306.757 248.432C297.69 255.111 288.746 261.792 280.573 269.561C262.745 286.509 248.211 309.303 239.298 332.212C237.039 338.021 233.802 344.794 232.945 350.988C232.782 352.16 232.973 352.163 233.582 353.105C233.609 353.146 233.643 353.181 233.673 353.219C234.942 353.589 235.863 354.179 237.108 353.644C239.575 346.921 241.475 340.012 243.967 333.297C253.001 308.947 266.025 284.904 287.127 269.015C292.469 264.993 298.257 261.827 304.096 258.607C304.886 256.184 307.331 250.759 306.757 248.432ZM300.008 274.051C281.643 287.278 268.371 304.766 259.024 325.257C257.979 327.547 255.326 331.752 255.238 334.203C255.227 334.495 255.281 334.786 255.302 335.077C266.76 315.808 279.501 299.255 297.461 285.445C298.388 282.133 300.248 277.45 300.008 274.051ZM606.21 284.676C601.91 285.107 598.066 286.067 593.983 287.479C618.226 287.1 638.046 291.736 660.126 301.256C663.201 302.567 666.265 303.924 669.373 305.155C652.991 292.143 627.148 283.661 606.21 284.676ZM294.926 301.008C290.997 305.139 276.536 320.096 276.213 324.723L276.498 325.044C281.467 319.289 286.872 315.589 293.262 311.524C293.821 309.271 295.866 303.005 294.926 301.008ZM362.135 302.25L362.745 302.25L362.135 302.25ZM629.127 323.751C604.324 324.322 579.137 328.685 555.427 335.92C549.039 337.869 540.025 343.241 534.657 344.147C529.511 345.015 523.48 344.362 518.23 344.348C507.67 344.318 497.095 344.427 486.536 344.244C477.339 337.798 466.881 335.455 456.133 332.76C402.804 319.391 345.934 322.886 292.257 332.33C285.244 333.564 278.254 334.947 271.255 336.261C271.22 345.491 271.577 354.992 272.387 364.191C275.927 364.278 280.286 363.842 283.385 365.79C285.903 370.247 286.684 379.679 287.879 384.993C291.715 402.055 300.466 432.407 313.293 444.027C318.723 448.945 325.545 451.691 332.522 453.615C359.434 461.036 422.194 461.92 446.662 447.852C449.933 445.971 452.534 443.594 455.126 440.869L455.595 440.384C468.09 427.241 475.902 405.734 481.018 388.416C482.521 383.327 483.36 376.118 486.535 371.835C491.154 365.604 498.204 363.719 505.549 363.485C515.041 363.183 527.948 362.351 535.511 369.104C539.616 372.769 540.942 381.477 542.422 386.715C548.906 409.67 558.475 439.689 581.183 451.242C588.73 455.081 597.771 456.685 606.086 457.923C617.129 459.567 628.515 460.336 639.676 460.143C661.421 459.768 697.884 456.755 713.424 440.525C723.579 429.918 731.804 403.226 735.26 388.727C736.692 382.716 737.256 375.953 739.44 370.223C744.56 368.281 749.292 367.84 754.728 367.386C754.448 358.56 754.275 349.701 753.555 340.897C748.648 338.613 743.064 337.225 737.857 335.78C708.508 327.63 677.62 323.468 647.16 323.316C641.279 323.287 634.964 323.037 629.127 323.751ZM254.696 335.75L255.095 335.75L254.696 335.75ZM254.227 336.75L254.583 336.75L254.227 336.75ZM261.238 343.885C256.15 349.9 252.136 357.299 248.407 364.223L251.636 367.362L252.93 367.783C256.53 365.057 259.233 360.015 262.502 356.701C262.484 353.344 263.104 346.582 261.238 343.885ZM765.975 350.33C766.261 356.899 766.574 363.52 766.528 370.096C768.704 370.252 770.898 370.48 773.078 370.535C775.081 368.059 777.096 365.092 779.605 363.147C782.433 360.7 785.581 358.767 788.748 356.793C781.164 354.881 773.31 353.039 765.975 350.33ZM210.359 365.594C200.298 368.712 192.56 375.805 187.723 385.117C178.969 401.973 183.873 425.566 189.471 442.648C198.471 470.111 218.705 508.065 244.876 521.344C252.583 525.254 260.084 526.316 268.638 526.077C266.157 517.582 263.426 509.117 261.132 500.573C259.181 493.307 257.858 485.879 255.835 478.636C250.689 460.214 241.388 436.42 229.936 421.31C222.677 428.316 219.353 437.165 219.154 447.19C218.91 459.473 222.82 469.815 229.955 479.675C236.141 486.92 241.482 489.921 250.513 492.602C242.91 493.788 236.957 492.379 230.694 487.773C220.26 480.097 213.601 467.893 211.836 455.159C210.239 443.632 212.232 431.717 219.391 422.307C221.468 419.577 223.878 417.528 226.528 415.387C221.62 407.739 215.626 400.696 207.5 396.354C203.182 402.164 200.803 408.835 197.938 415.419C197.892 407.079 199.805 400.284 201.399 392.207C200.198 390.779 199.106 389.878 198.775 387.992C199.512 386.925 199.982 386.584 201.304 386.382C208.793 385.236 216.788 390.099 222.238 394.689C236.557 406.749 246.827 424.557 253.706 441.831C252.902 431.153 251.42 420.534 250.658 409.858C250.136 402.558 250.331 395.149 249.617 387.883C240.784 378.358 230.621 365.961 216.479 365.385C214.433 365.302 212.394 365.374 210.359 365.594ZM802.181 367.123C791.311 369.394 782.258 374.927 775.86 384.15C774.871 391.938 775.308 399.996 774.049 407.705C773.247 412.618 771.253 417.254 769.937 422.037C768.227 428.254 767.043 434.71 765.669 441.013C774.679 424.28 790.034 393.174 809.414 387.217C813.244 386.04 817.403 386.3 820.94 388.246C825.708 390.869 828.297 396.162 829.63 401.235C830.407 404.193 832.243 412.571 830.651 415.046C830.568 415.176 830.454 415.283 830.355 415.401C828.778 413.611 828.531 409.517 827.774 407.158C826.306 402.583 821.964 394.776 816.405 394.611C811.673 394.47 807.06 398.772 803.964 401.98C799.258 406.857 795.068 412.903 791.914 418.89C798.354 420.268 803.761 423.711 807.422 429.288C812.471 436.979 812.842 447.214 810.825 455.965C808.029 468.098 800.191 481.514 789.451 488.235C785.211 490.888 777.74 493.784 772.669 493.112L772.524 492.419L771.715 491.599L771.745 492.101C782.63 488.074 787.189 487.444 794.91 477.765C802.163 467.54 807.235 454.39 804.885 441.671C803.718 435.356 800.337 429.958 794.965 426.383C793.194 425.204 791.161 424.189 789.209 423.352C781.742 436.074 775.612 449.327 769.691 462.822C766.496 470.105 763.052 477.507 760.911 485.183C758.663 493.238 757.985 501.736 756.694 509.988C755.654 516.644 754.129 523.232 753.232 529.908C772.022 529.158 784.7 520.997 797.293 507.41C820.258 482.634 841.949 438.07 840.606 404.049C840.186 393.422 835.84 383.582 827.947 376.376C821.518 370.507 813.355 366.525 804.505 366.936C803.725 366.972 802.957 367.044 802.181 367.123ZM366.132 664.878L360.949 669.65C361.576 705.027 372.805 748.144 386.286 780.751L390.763 777.637L398.794 772.375C382.361 740.36 370.802 704.461 371.552 668.237C369.877 667.173 367.95 665.598 366.132 664.878ZM658.103 666.356C661.576 680.155 662.226 693.513 659.352 707.516L671.887 707.004C675.083 698.93 674.336 684.953 670.862 676.982C669.124 672.993 666.256 668.968 662.046 667.359C660.775 666.873 659.435 666.609 658.103 666.356ZM647.489 667.145C649.868 680.806 648.933 694.974 644.99 708.262L651.936 708.044C656.408 702.594 654.908 674.958 654.18 666.786L647.489 667.145ZM376.548 671.24C377.187 704.566 388.68 740.234 403.095 769.998L409.736 766.061L411.622 764.743C411.876 762.81 401.227 745.633 399.708 742.182C390.129 720.414 384.098 699.057 383.258 675.129L376.548 671.24ZM354.827 672.919C352.442 674.815 350.199 676.709 348.141 678.967C345.618 715.323 353.702 763.041 366.621 797.08L370.974 792.652C374.619 789.247 378.297 785.915 382.452 783.135C369.495 756.822 361.678 727.136 357.118 698.25C356.252 692.762 355.796 687.233 355.429 681.693C355.251 678.99 355.489 675.484 354.827 672.919ZM689.032 685.364C689.437 690.256 689.408 701.665 690.621 705.639C692.152 706.13 693.414 706.047 694.986 705.956C694.132 702.181 691.559 687.621 689.032 685.364ZM622.803 685.944C583.541 714.937 532.999 728.387 484.555 721.147C458.783 717.295 429.737 708.101 410.949 689.395C414.422 699.561 419.527 708.942 425.674 717.738C442.789 741.772 463.267 758.387 492.994 763.46C511.877 766.682 530.384 764.974 548.596 759.214C552.934 743.998 555.425 724.45 570.72 716.108C586.397 707.558 602.176 718.427 614.98 702.348C618.289 698.193 621.03 693.322 622.653 688.251C622.924 687.402 622.952 686.816 622.803 685.944ZM694.361 686.21C696.43 692.683 698.677 699.09 700.923 705.504C713.888 704.711 727.023 703.47 740.012 703.457L740.542 703.096C736.18 699.991 722.866 696.627 717.094 694.619C709.465 691.964 701.917 689.064 694.361 686.21ZM393.28 690.75L393.745 690.75L393.28 690.75ZM393.203 691.207C397.971 716.576 406.082 738.825 418.367 761.535L423.191 759.501L423.657 758.668C420.734 753.336 416.915 748.421 413.692 743.251C410 737.329 407.028 730.844 404.246 724.45C402.141 719.609 400.218 714.576 398.583 709.556C397.093 704.98 395.925 694.579 393.203 691.207ZM921.901 707.294C844.803 712.742 767.522 717.273 690.336 721.279L618.554 725.01C607.301 725.509 593.685 724.88 582.828 726.526C578.963 727.113 575.451 728.928 572.942 731.971C571.634 733.557 570.558 735.474 569.88 737.415C567.419 744.459 565.67 751.886 563.586 759.057C560.49 769.707 557.136 780.288 553.877 790.89L507.514 943.244C501.078 963.963 493.948 984.429 487.139 1005.02C488.392 1006.32 489.616 1007.7 490.981 1008.88L830.387 1008.92C838.391 982.833 848.009 957.137 857.334 931.495L896.552 824.946L922.006 755.205C925.552 745.5 928.602 735.38 932.645 725.883C933.084 724.658 933.794 723.57 933.409 722.305C926.181 722.354 918.871 723.137 911.655 723.641C899.484 724.492 887.329 725.292 875.14 725.852L683.627 736.033C661.822 737.167 640.044 738.527 618.213 739.075C607.018 739.357 595.81 739.745 584.625 738.972C584.144 744.959 582.821 750.678 581.247 756.462C571.751 791.37 560.184 825.884 548.796 860.214C537.018 895.722 525.243 931.314 512.578 966.514C509.182 975.952 503.319 996.853 497.706 1003.82C499.69 995.077 502.334 986.442 504.759 977.809L519.134 928.456C522.997 915.618 526.539 902.674 530.574 889.889C543.605 848.598 557.852 807.845 572.667 767.17C574.617 761.814 581.924 738.045 583.896 734.985C592.651 732.706 606.372 732.958 615.831 732.393L688 728.503L833.527 720.675C867.705 718.711 901.901 716.831 936.023 714.016C935.246 711.497 934.511 708.815 931.943 707.575C929.091 706.197 924.979 707.028 921.901 707.294ZM423.126 734.25L423.554 734.25L423.126 734.25ZM209.166 760.174L208.072 774.362C226.553 774.481 245.196 776.543 263.628 777.875C290.215 779.795 316.917 781.413 343.382 784.665C343.784 781.334 341.706 776.922 341.142 773.546C297.49 767.225 252.516 768.626 209.166 760.174ZM418.418 767.456C407.882 772.307 374.614 793.293 368.916 802.46C369.172 803.955 369.471 805.447 369.612 806.957C378.966 798.67 388.584 791.082 398.631 783.66C404.257 779.505 410.172 775.612 415.642 771.265C416.857 770.299 418.234 769.364 418.899 767.926L418.418 767.456ZM207.741 777.886C207.595 781.084 207.438 784.282 207.341 787.482L286.124 794.459C306.979 796.26 328.162 797.547 348.877 800.587C347.671 797.067 346.545 793.488 345.208 790.017C321.709 786.183 297.261 785.314 273.512 783.448C251.603 781.726 229.676 779.087 207.741 777.886ZM423.726 782.174C420.653 784.409 417.646 786.687 414.696 789.082L451.875 788.621L463.072 788.443C459.61 786.828 456.117 784.373 452.576 783.118C446.464 780.953 430.515 781.93 423.726 782.174ZM207.031 791.841L206.951 807.472C227.286 806.239 248.025 808.161 268.359 809.326C297.072 810.97 326.121 812.572 354.72 815.595C354.697 813.018 352.221 809.044 351.094 806.63C335.923 804.129 320.151 803.264 304.819 801.937C272.127 799.108 239.491 796.835 207.031 791.841ZM405.153 796.423C401.099 799.234 397.067 802.294 393.419 805.625C437.273 805.986 481.309 806.625 525.124 804.456C528.17 804.343 531.439 804.606 534.228 803.271C535.221 802.176 535.552 801.135 536.005 799.767C525.217 800.765 514.367 801.711 503.556 800.453C498.002 799.807 492.475 797.917 486.916 797.635C475.253 797.043 463.489 797.638 451.808 797.38C436.317 797.037 420.648 795.919 405.153 796.423ZM206.972 810.559C206.991 815.425 207.062 820.274 207.251 825.138C220.53 825.674 233.808 827.612 247.037 828.905C267.545 830.91 288.039 832.556 308.594 833.961C380.178 838.855 452.278 840.543 524.01 838.379L525.624 833.612L526.242 831.315C525.616 830.289 525.554 830.316 524.418 830.064C519.736 829.025 513.607 830.295 508.722 830.287L461.5 829.911C438.882 829.654 416.296 828.895 393.687 828.311C385.709 828.105 377.703 827.443 369.725 827.48C368.343 829.121 367.003 830.864 365.463 832.357C362.698 830.764 360.479 829.147 358.075 827.029C333.703 824.489 309.139 823.52 284.739 821.087C265.333 819.152 245.689 816.955 226.405 814.061C219.896 813.084 213.475 811.496 206.972 810.559ZM386.505 810.989C382.455 813.778 378.684 816.732 375.336 820.351C407.657 821.341 439.947 821.748 472.281 821.716C488.952 821.699 505.723 821.987 522.375 821.214L529.197 821.005C530.125 818.154 531.213 815.266 531.862 812.341C483.466 813.144 434.872 812.97 386.505 810.989ZM207.343 826.064C207.389 830.042 207.372 834.033 207.532 838.008C297.542 850.426 388.766 852.069 479.499 852.556C487.031 852.596 514.306 854.122 520.048 852.408C520.453 850.949 521.182 849.314 520.685 847.824C513.371 847.15 505.721 847.586 498.37 847.563C485.559 847.521 472.778 847.337 459.972 846.956C403.008 845.258 345.739 842.182 288.983 836.981C263.259 834.623 232.01 832.337 207.343 826.064ZM207.557 842.326C207.599 846.476 207.768 850.597 208.024 854.74C218.688 856.935 229.506 858.564 240.242 860.376C273.771 866.036 307.384 870.492 341.311 872.952C357.904 874.156 374.634 874.358 391.264 874.795C416.502 875.459 441.645 875.985 466.897 875.624L495.98 875.287C501.298 875.231 507.387 875.649 512.603 874.697L515.321 865.925C485.306 865.476 455.285 866.152 425.257 865.407C406.114 864.933 386.997 863.723 367.888 862.546C313.936 859.221 260.482 853.633 207.557 842.326ZM901.723 850.876C900.269 854.326 895.628 863.261 896.006 866.687C896.999 866.793 896.9 866.721 897.715 866.293L905.402 861.144C904.48 857.989 903.697 853.487 901.723 850.876ZM208.301 859.219C208.463 864.036 208.567 868.862 208.793 873.677C269.874 884.838 332.803 888.11 394.751 889.85C422.485 890.629 450.278 891.473 478.021 891.489C483.218 891.493 505.057 892.573 507.938 890.954L508.489 889.895L510.49 883.62C484.256 883.068 458.026 883.186 431.785 882.495C386.133 881.293 340.379 878.639 294.987 873.652C265.882 870.454 236.646 866.771 208.301 859.219ZM119.218 859.843C117.088 865.435 115.404 871.07 113.877 876.852C140.26 889.008 165.409 903.791 192.037 915.521C193.313 916.124 194.192 916.523 195.647 916.506C195.727 915.435 195.874 915.874 195.152 914.979C190.504 909.222 178.17 903.158 171.707 899.008C156.98 889.552 130.608 872.446 119.218 859.843ZM906.85 865.11C900.953 872.65 887.968 886.075 885.824 895.019L886.274 895.219C887.108 894.734 887.921 894.268 888.718 893.725C896.102 888.234 903.331 882.103 911.811 878.417C910.712 874.716 909.294 868.022 906.85 865.11ZM208.942 876.636C209.064 881.454 209.103 886.291 209.388 891.101C233.339 895.69 257.051 900.4 281.28 903.397C321.988 908.434 363.344 910.622 404.343 911.009C422.511 911.18 440.669 910.69 458.834 910.584C465.874 910.543 497.587 911.456 501.851 910.306L502.195 909.841L503.89 903.023C475.373 904.004 446.745 903.749 418.222 903.105C360.109 901.792 302.403 897.757 245.445 885.473C233.339 882.862 220.677 880.539 208.942 876.636ZM113.034 879.164C111.236 884.25 109.621 889.334 108.146 894.523C118.072 899.706 128.625 903.922 138.732 908.774C156.858 917.476 174.764 926.567 193.257 934.491C194.495 934.766 195.24 935.031 196.506 934.719C196.085 932.721 193.051 931.088 191.373 929.998C183.215 924.7 174.502 920.2 166.144 915.219C147.807 904.293 129.683 892.537 113.034 879.164ZM912.316 881.409C904.887 888.872 897.937 896.828 890.708 904.486C886.475 908.971 881.165 913.319 877.72 918.402C876.511 920.186 876.021 922.437 875.458 924.494C882.572 919.464 910.92 898.426 916.966 897.623L917.395 897.771C917.457 899.734 915.304 901.884 914.01 903.267C908.657 908.985 902.446 914.208 896.533 919.352C891.11 923.983 885.622 928.49 880.007 932.886C876.087 935.955 871.671 938.905 868.212 942.484L867 948.251C877.54 941.271 888.3 934.677 898.922 927.83C906.384 923.021 914.128 916.955 922.318 913.582C920.752 907.737 914.879 885.041 912.316 881.409ZM209.475 894.334L209.637 903.906C226.997 907.609 244.219 911.823 261.758 914.632C328.149 925.264 395.1 926.683 462.186 927.224C466.949 927.263 494.463 928.238 496.738 926.775L497.375 925.233L499.902 917.596C419.859 919.642 337.413 916.971 258.287 904.228C243.656 901.872 223.199 898.911 209.475 894.334ZM107.493 896.699C105.75 902.1 103.961 907.492 102.283 912.914C133.006 925.735 162.631 941.455 194.045 952.619C195.246 953.082 196.194 953.32 197.477 953.423L197.944 952.959C196.823 951.205 194.722 950.056 192.966 948.988C184.638 943.923 175.799 939.579 167.273 934.846C154.14 927.553 140.95 919.743 128.241 911.729C121.008 907.168 114.108 902.113 107.493 896.699ZM210.447 908.363C210.715 914.275 211.143 920.174 211.566 926.077C290.462 945.467 365.599 948.071 446.261 947.514L476.894 947.191C481.205 947.128 486.366 947.588 490.564 946.683L491.093 946.087L493.296 937.911C410.661 938.401 327.767 939.821 247.007 919.317C235.913 916.5 220.766 913.172 210.447 908.363ZM922.374 914.613C911.521 927.819 892.174 943.714 877.896 953.556C872.497 957.277 866.807 960.496 861.349 964.102C860.401 966.229 859.471 968.324 858.75 970.543C871.492 962.921 884.803 956.287 897.585 948.698C907.466 942.831 917.143 935.206 927.642 930.598C922.002 937.671 915.375 943.413 908.337 949.052C896.955 958.12 884.91 966.176 872.428 973.645C867.64 976.51 862.216 978.836 857.65 981.92C855.524 983.356 853.153 984.998 851.899 987.281L852.367 987.81C856.919 987.405 861.75 984.942 865.965 983.183C889.428 973.389 910.337 960.548 931.836 947.106C930.356 941.875 924.162 917.473 922.374 914.613ZM101.744 915.221C100.316 920.571 98.9038 925.899 97.7931 931.327C106.37 935.507 115.337 938.91 124.093 942.7C134.507 947.209 144.834 951.968 155.341 956.257C169.206 961.916 183.343 966.992 197.383 972.199L198.656 972.514L199.38 972.062C198.574 969.503 193.726 967.131 191.469 965.938C188.265 964.246 184.834 962.897 181.59 961.235C154.495 947.351 126.101 933.615 101.744 915.221ZM211.758 929.169L212.631 943.661C235.211 949.723 259.511 952.552 282.702 955.148C297.832 956.841 312.991 958.702 328.179 959.789C370.043 962.784 412.084 963.063 454.028 963.672C458.178 963.732 483.22 965.112 485.37 963.941C485.886 963.66 485.799 963.508 486.069 962.889L488.376 954.448C442.496 954.586 396.832 953.865 351.032 950.819C317.149 948.565 283.065 945.229 249.711 938.673C237.143 936.203 223.717 933.874 211.758 929.169ZM97.1322 933.676C95.6516 938.966 94.281 944.219 93.1564 949.599C127.411 964.727 161.932 978.715 197.739 989.831C198.975 989.909 199.183 990.205 200.178 989.381C199.21 987.547 196.36 986.162 194.533 985.18C186.611 980.92 178.058 977.583 169.956 973.64C153.447 965.606 137.208 957.199 121.085 948.417C116.153 945.73 111.355 942.949 106.648 939.881C103.546 937.858 100.408 935.365 97.1322 933.676ZM213 946.435C213.395 951.652 213.729 956.883 214.191 962.095C224.804 964.672 235.244 968.318 245.797 971.187C266.09 976.704 287.691 980.902 308.66 982.53C319.995 983.41 331.828 982.161 343.17 981.474C367.372 980.008 391.457 977.685 415.622 975.919L424.331 975.068C418.752 973.505 410.716 974.394 404.846 974.279C395.069 974.086 385.269 973.784 375.502 973.298C323.733 970.722 261.269 965.393 213 946.435ZM932.371 950.473C918.122 962.637 903.709 973.521 887.251 982.554C880.297 986.37 873.224 989.978 865.905 993.048C861.949 994.707 851.161 997.425 848.7 1000.16L849.169 1000.53L850.17 1000.41C877.637 994.143 916.715 981.215 934.865 958.696C934.342 956.479 933.88 952.174 932.371 950.473ZM92.8307 951.875C92.241 954.054 91.5955 956.23 91.1001 958.431C115.075 980.313 148.311 992.934 179.301 1001.11C186.326 1002.96 193.52 1004.93 200.71 1006.02L200.628 1005.21C194.056 1002.14 187.056 999.778 180.389 996.836C157.263 986.633 134.08 976.111 111.941 963.879C105.652 960.404 98.1216 956.765 92.8307 951.875ZM214.827 965.392C215.181 969.655 215.389 973.991 215.992 978.224C231.446 984.666 248.768 989.307 265.149 992.729C269.574 988.537 274.799 987.205 280.62 986.191L289.596 984.968C263.923 982.568 238.503 975.443 214.827 965.392ZM216.441 982.124C216.716 988.357 217.284 994.561 217.705 1000.78C225.912 1002.56 254.832 1008.34 261.702 1007.32L262.22 1006.77C262.579 1004.13 262.976 1001.61 263.691 999.039C245.864 994.134 233.234 989.742 216.441 982.124ZM482.918 985.71C427.857 993.219 372.08 995.628 316.687 999.565C312.417 999.868 291.601 1000.37 288.843 1001.8L289.132 1001.87C297.385 1001.23 305.723 1001.44 313.999 1001.33L358.052 1000.89L481.194 1000.01C481.368 998.13 483.535 986.806 483.404 986.303C483.34 986.055 483.08 985.907 482.918 985.71ZM426.127 1003.75L331.538 1004.27C322.275 1004.32 284.259 1003.37 279.005 1005.28L278.552 1006.95C284.858 1009.68 326.431 1008.23 335.75 1008.23C385.214 1008.22 434.7 1007.84 484.16 1008.45C483.395 1006.82 482.736 1005.24 482.186 1003.52L426.127 1003.75Z"/>
	<path transform="scale(1.66211 1.66211)" d="M719.714 73.34L719.913 73.0471L719.714 73.34Z"/>
	<path transform="scale(1.66211 1.66211)" d="M688.201 154.766L688.41 154.582L688.201 154.766Z"/>
	<path transform="scale(1.66211 1.66211)" d="M269.87 241.149C269.559 241.443 269.059 241.705 268.696 241.94C269.03 239.832 270.721 237.881 271.994 236.187C286.478 216.913 314.723 198.191 338.896 194.655L340.385 194.701C339.081 196.149 316.755 205.787 312.693 208.109C296.61 217.305 283.441 228.679 269.87 241.149Z"/>
	<path transform="scale(1.66211 1.66211)" d="M648.614 454.756C628.732 455.078 591.119 455.489 575.395 442.411C558.342 428.227 551.606 394.692 549.854 373.398C549.102 364.261 549.964 353.374 556.33 346.174C569.365 331.432 609.806 329.906 628.873 328.75C654.304 328.557 679.801 330.505 704.236 337.957C710.085 339.741 716.825 341.892 721.673 345.777C725.938 349.194 726.959 355.756 727.339 360.902C728.794 380.586 723.152 420.653 709.342 435.625C696.155 449.921 667.231 453.586 648.614 454.756ZM618.165 338.75C604.824 339.926 570.877 344.181 562.605 354.247C557.239 360.776 558.434 370.217 559.435 377.983C561.817 396.46 566.897 424.596 582.646 436.174C595.809 445.851 641.174 446.092 657.582 444.369C671.208 442.635 693.893 439.655 702.942 428.242C714.998 413.037 718.859 378.296 716.334 359.621C716.008 357.208 715.558 354.787 714.725 352.494C695.583 341.024 639.952 336.032 618.165 338.75Z"/>
	<path transform="scale(1.66211 1.66211)" d="M391.553 454.975C370.167 455.332 339.543 455.03 322.429 440.974C305.324 426.926 298.706 399.733 296.798 378.555C295.828 367.791 295.35 355.958 302.893 347.23C316.335 331.679 361.169 330.335 380.873 329.25C402.044 329.092 449.571 329.838 465.409 343.958C471.338 349.243 473.896 357.374 474.268 365.1C475.275 386.027 467.458 421.705 453.29 437.188C439.116 452.679 411.448 454.182 391.553 454.975ZM372.689 339.284C358.265 339.87 321.648 341.527 311.974 352.425C305.969 359.189 306.281 369.17 306.972 377.611C308.463 395.82 314.004 421.426 328.634 433.728C342.873 445.7 379.938 445.298 398.124 444.342C412.991 443.235 436.429 442.996 446.765 431.051C458.049 418.011 466.513 382.003 465.272 364.821C464.956 360.45 463.813 355.887 460.406 352.887C445.335 339.616 392.987 337.823 372.689 339.284Z"/>
	<path transform="scale(1.66211 1.66211)" d="M440.411 423.211C444.919 408.066 446.812 396.355 438.835 381.781C432.791 370.738 423.462 363.359 411.373 359.923C398.537 356.276 384.345 357.8 372.699 364.348C359.586 371.72 352.859 383.153 346.264 396.167C356.518 395.028 366.747 394.569 376.805 397.44L376.946 397.858C370.515 398.751 347.983 395.409 344.972 398.709L344.791 399.806C345.369 400.171 345.793 400.324 346.481 400.371C349.237 400.559 352.001 400.143 354.755 400.08C361.002 399.935 367.364 400.536 373.485 401.764C370.174 401.94 366.876 402.119 363.559 402.097C351.615 402.662 338.851 404.393 327.101 406.633C332.089 403.581 339.466 402.849 343.215 400.202C343.429 398.841 343.32 397.863 343.122 396.494C341.513 385.408 348.064 371.373 354.606 362.768C362.976 351.762 375.43 343.812 389.246 342.011C402.905 340.23 416.392 344.226 427.178 352.687C438.809 361.81 446.139 375.491 447.746 390.148C448.84 400.122 447.448 414.504 440.915 422.662C440.76 422.856 440.579 423.028 440.411 423.211Z"/>
	<path transform="scale(1.66211 1.66211)" d="M585.556 423.984C579.111 417.759 575.586 409.444 574.321 400.647C572.414 387.39 575.488 372.935 583.663 362.198C592.565 350.506 606.447 343.549 620.81 341.681C622.526 341.393 624.512 341.406 626.258 341.415C639.865 341.485 651.716 347.075 661.227 356.716C671.88 367.514 676.619 381.473 676.57 396.464C675.855 394.409 675.191 392.304 674.331 390.304C668.57 376.92 657.431 366.754 644.015 361.338C630.405 355.845 616.407 356.598 603.001 362.201C593.732 366.468 585.899 373.632 582.099 383.222C576.561 397.2 579.809 410.75 585.556 423.984Z"/>
	<path transform="scale(1.66211 1.66211)" d="M383.763 412.23C382.618 410.05 381.61 407.79 381.06 405.379C379.524 398.654 380.769 391.832 384.568 386.073C388.853 379.576 395.119 376.224 402.535 374.622C408.304 374.123 414.991 375.756 419.684 379.134C424.981 382.947 428.208 389.138 429.149 395.519C430.438 404.256 427.196 411.046 422.16 417.853C429.877 420.437 436.73 426.275 443.686 430.524C434.985 429.458 426.328 426.631 417.68 425.037C399.405 421.669 381.056 420.187 362.484 420.046C349.977 420.271 338.141 421.408 325.994 424.479C335.82 418.639 345.952 417.271 356.797 414.466C351.679 413.793 346.718 414.025 341.657 413.544L341.437 413.172C349.622 410.847 374.074 412.19 383.763 412.23ZM400.164 389.519C398.473 391.051 397.186 392.28 397.051 394.671C396.972 396.075 397.395 397.369 398.432 398.357C400.103 399.95 402.08 399.894 404.221 399.688C405.905 398.359 407.164 397.234 407.397 394.992C407.542 393.598 407.138 392.352 406.22 391.296C405.003 389.898 403.59 389.409 401.76 389.409C401.121 389.409 400.77 389.457 400.164 389.519Z"/>
	<path transform="scale(1.66211 1.66211)" d="M598.044 417.384C595.742 414.104 593.847 410.672 592.812 406.777C591.045 400.123 592.046 392.718 595.576 386.805C599.713 379.874 605.937 376.473 613.515 374.62C618.001 374.217 622.236 374.403 626.516 375.969C632.929 378.317 638.073 383.152 640.741 389.443C644.025 397.188 643.231 404.924 640.145 412.513C660.274 409.882 680.818 415.693 697.39 427.075C683.304 424.757 669.953 421.162 655.623 420.187C637.23 418.919 618.769 420.787 600.859 425.059C593.184 426.889 585.85 429.887 577.962 430.727C578.752 430.061 578.418 430.256 579.173 429.874C585.803 426.521 591.355 420.969 598.044 417.384ZM617.054 388.503C615.243 389.639 613.54 390.764 613.123 393.024C612.831 394.612 613.011 396.07 614.03 397.373C614.98 398.586 616.453 399.437 617.981 399.609C618.826 399.704 619.766 399.605 620.616 399.556C622.546 398.382 624.064 397.327 624.541 394.962C624.818 393.588 624.465 392.228 623.645 391.103C622.682 389.781 621.131 388.824 619.507 388.59C618.702 388.474 617.865 388.492 617.054 388.503Z"/>
	<path transform="scale(1.66211 1.66211)" d="M653.78 409.186C658.01 405.1 663.64 402.394 668.744 399.557C677.331 399.968 686.34 402.316 693.979 406.244C684.311 404.81 674.221 405.135 664.493 405.92C669.347 406.706 673.998 408.033 678.644 409.619C682.478 411.182 686.104 413.068 689.768 414.985C677.795 412.966 665.935 409.864 653.78 409.186Z"/>
	<path transform="scale(1.66211 1.66211)" d="M329.838 411.125C338.094 408.016 346.607 406.389 355.383 405.696C360.942 405.234 366.736 406.45 372.233 407.245C363.386 407.441 354.54 408.164 345.75 409.172C340.45 409.933 335.176 410.666 329.838 411.125Z"/>
	<path transform="scale(1.66211 1.66211)" d="M440.125 423.498L440.411 423.211L440.125 423.498Z"/>
	<path transform="scale(1.66211 1.66211)" d="M510.998 445.33C510.927 445.335 510.855 445.343 510.784 445.347C505.257 445.652 499.972 449.052 494.464 448.224L495.427 448.002C496.524 446.24 508.736 440.762 511.256 439.459C514.06 439.461 526.249 446.746 529.356 448.511C523.163 447.864 517.222 445.777 510.998 445.33Z"/>
	<path transform="scale(1.66211 1.66211)" d="M549.547 495.798L548.698 496.293C545.002 498.492 541.927 501.74 538.313 504.078C527.266 511.223 512.509 512.807 499.917 509.811C489.702 507.379 481.996 502.251 473.781 495.919C465.606 496.768 458.078 496.725 451.31 491.252C447.366 488.065 444.2 483.086 443.764 477.954C443.399 473.674 444.883 469.554 447.774 466.391C451.879 461.902 457.833 460.376 463.719 460.238C466.595 460.171 469.397 460.559 472.231 460.99C465.872 461.607 459.495 462.104 455.104 467.405C452.871 470.101 451.553 473.7 451.922 477.218C452.332 481.124 454.684 484.421 457.748 486.749C459.753 488.273 462.815 490.98 465.317 491.342L464.629 491.315L465.305 490.263L464.941 489.417C464.007 487.218 462.291 483.865 462.966 481.417C463.205 480.552 463.853 480.008 464.471 479.413C465.963 479.154 466.471 479.423 467.739 480.345C468.164 480.655 468.575 480.986 468.989 481.31C483.673 491.418 504.102 497.931 521.943 494.596C528.486 493.373 537.071 491.056 542.809 487.597C546.139 485.589 549.844 482.043 553.478 480.842C555.171 480.284 557.677 480.699 559.109 481.749C559.888 482.319 560.402 482.917 560.534 483.912C560.834 486.171 557.175 490.453 557.867 491.425C563.185 490.36 567.709 486.836 570.732 482.417C572.175 480.308 573.013 478.196 573.684 475.746C572.325 470.856 570.542 466.489 565.936 463.788C562.606 461.835 559.141 461.281 555.401 460.699C562.505 460.202 570.062 460.188 575.801 465.136C578.962 467.861 580.855 471.798 580.952 475.971C581.073 481.184 578.692 486.462 575.038 490.122C569.355 495.813 561.97 496.628 554.355 496.473C552.841 496.442 550.862 496.588 549.547 495.798C552.675 494.978 556.745 495.165 559.498 493.521C558.329 493.461 557.159 493.404 555.988 493.385C553.068 493.337 551.677 493.721 549.547 495.798ZM464.113 493.091C466.935 494.094 470.142 495.055 473.166 494.963C470.196 493.04 467.61 492.712 464.113 493.091Z"/>
	<path transform="scale(1.66211 1.66211)" d="M377.535 556.305L377.311 556.636L376.738 556.315C373.072 549.237 370.511 542.442 369.681 534.441C368.508 523.137 370.751 512.372 378.033 503.438C390.231 488.472 408.706 482.513 427.256 480.697C429.79 480.373 432.508 480.48 435.071 480.411C429.406 482.572 423.527 484.16 417.865 486.341C404.774 491.383 389.318 499.636 381.816 512.035C373.94 525.054 374.032 541.974 377.535 556.305Z"/>
	<path transform="scale(1.66211 1.66211)" d="M655.718 556.873L654.941 557.881C654.378 556.902 654.548 542.625 654.103 539.597C653.254 533.807 651.025 527.74 648.614 522.433C639.854 503.153 623.557 492.065 603.94 485.571C598.974 483.927 593.583 483.15 588.767 481.36L588.871 480.758C598.535 479.847 608.6 481.771 617.814 484.618C632.812 489.251 645.551 498.528 652.928 512.629C660.32 526.758 660.422 541.894 655.718 556.873Z"/>
	<path transform="scale(1.66211 1.66211)" d="M422.68 586.179C407.007 567.12 399.607 547.325 394.81 523.411L394.128 523.105L392.927 523.781C390.612 527.247 390.27 531.436 389.621 535.461C389.465 535.214 389.27 534.989 389.154 534.721C387.291 530.407 388.264 522.081 390.66 518.117C391.345 516.983 392.273 515.858 393.547 515.375C398.542 513.48 412.345 517.613 417.919 518.822C473.457 530.869 530.414 533.051 586.426 522.855C600.589 520.277 614.552 516.707 628.479 513.092C629.171 512.967 629.376 512.859 630.043 512.975C631.91 513.3 633.45 514.832 634.362 516.412C637.671 522.142 636.782 529.385 635.13 535.431C633.933 528.901 633.565 524.601 629.758 518.794C623.429 548.195 608.935 580.651 585.28 600.058C559.723 621.026 526.861 626.51 494.768 623.175C467.207 620.311 440.328 607.975 422.68 586.179ZM613.387 528.6C551.68 548.151 473.965 546.22 411.802 529.575C415.022 536.946 419.242 543.087 425.081 548.664C430.008 553.074 434.918 556.949 440.813 559.996C464.06 572.01 497.96 574.466 523.916 573.021C550.855 571.522 584.081 566.969 603.027 546.011C607.143 541.457 612.004 534.942 613.786 529.064L613.387 528.6ZM552.682 582.705C538.545 583.627 524.708 585.711 510.49 585.645C497.373 585.585 476.989 581.386 465.936 583.473C459.436 584.7 454.039 588.574 449.687 593.416C449.571 593.546 449.461 593.681 449.348 593.814C457.394 599.989 465.985 603.937 475.546 607.236C505.796 615.926 538.949 614.055 566.764 598.553C569.507 597.024 572.287 595.38 574.828 593.529C571.341 588.084 565.908 584.574 559.593 583.266C557.308 582.792 555.008 582.666 552.682 582.705Z"/>
	<path transform="scale(1.66211 1.66211)" d="M438.108 619.504C445.577 623.346 452.739 627.652 460.449 631.037C491.305 644.581 524.874 645.517 556.433 633.79C565.525 630.411 573.831 625.372 582.811 621.888L583.197 621.742C581.4 624.046 577.864 626.016 575.442 627.638C560.885 637.389 545.621 644.603 528.238 647.46C495.932 652.769 469.282 642.511 443.342 623.936C441.53 622.545 439.831 621.001 438.108 619.504Z"/>
	<path transform="scale(1.66211 1.66211)" d="M583.197 621.742L583.476 621.551L583.197 621.742Z"/>
	<path transform="scale(1.66211 1.66211)" d="M612.212 641.297L612.423 641.008L612.212 641.297Z"/>
	<path transform="scale(1.66211 1.66211)" d="M532.773 661.452C528.67 663.485 524.758 665.382 520.288 666.473C507.567 669.576 494.478 666.133 483.462 659.543C501.197 661.695 519.373 660.91 537.116 659.305L532.773 661.452Z"/>
	<path transform="scale(1.66211 1.66211)" d="M311.502 699.373L311.768 699.05L311.502 699.373Z"/>
	<path transform="scale(1.66211 1.66211)" d="M163.96 772.741L163.628 772.565L163.96 772.741Z"/>
</svg>
