<?xml version="1.0" encoding="utf-8" ?>
<svg xmlns="http://www.w3.org/2000/svg" xmlns:xlink="http://www.w3.org/1999/xlink" width="1024" height="1024">
	<path fill="#FEFEFE" d="M0 0L1024 0L1024 1024L0 1024L0 0Z"/>
	<path fill="#231F20" d="M893.159 291.771C894.073 291.999 895.304 292.222 895.883 292.997C897.536 295.206 897.405 298.742 897.056 301.332C895.674 311.593 889.326 324.235 880.834 330.402C876.405 333.619 871.944 334.699 866.57 333.845C866.161 333.653 866.041 333.615 865.631 333.308C864.798 332.684 864.134 332.099 863.994 331.054L864.772 330.303C866.983 329.701 868.153 330.036 870.305 330.735C871.809 330.339 873.385 329.952 874.803 329.297C884.733 324.711 892.736 310.144 893.472 299.548C893.681 296.532 892.1 294.845 893.159 291.771Z"/>
	<path fill="#231F20" d="M858.806 273.052C866.145 273.636 872.809 275.268 877.855 281.091C881.904 285.763 884.75 294.327 884.234 300.553C883.848 305.215 881.266 310.033 877.656 312.997C874.775 315.362 871.442 316.634 867.739 316.283C866.322 315.408 865.164 314.547 864.381 313.032C863.426 311.181 863.365 309.203 863.995 307.241C866.123 300.618 873.46 295.707 879.448 292.861C876.285 283.238 871.76 279.923 862.081 277.597C860.531 277.225 859.206 277.074 857.999 275.928C857.773 274.385 857.948 274.386 858.806 273.052Z"/>
	<path fill="#FEFEFE" d="M879.848 296.969L880.492 297.989C880.736 300.881 880.381 303.2 878.744 305.665C876.219 309.467 873.341 311.737 868.869 312.597L867.74 310.673C867.682 309.81 867.646 309.096 867.915 308.26C869.567 303.116 875.163 299.154 879.848 296.969Z"/>
	<path fill="#231F20" d="M566.211 108.18C568.2 108.09 570.549 107.781 572.511 108.078C574.017 108.306 575.646 108.95 576.602 110.158L576.478 110.813C574.537 112.64 570.164 111.878 567.605 111.948C558.069 112.211 549.625 117.86 543.297 124.55C545.744 125.694 547.822 126.779 549.736 128.75C552.371 131.463 554.386 134.986 554.141 138.881C553.978 141.475 552.596 143.804 550.578 145.401C546.211 148.858 540.865 147.886 535.767 147.331C533.866 148.681 532.201 149.925 530.896 151.903C524.732 161.252 531.89 162.096 533.517 170.069C532.798 170.82 532.346 170.987 531.257 170.935C530.061 170.878 528.92 169.891 528.2 169.001C525.758 165.98 524.6 161.402 524.958 157.57C525.469 152.089 528.39 148.621 532.347 145.174C531.317 143.62 530.574 141.916 529.78 140.234C529.096 134.734 530.963 132.026 533.944 127.632C522.289 131.821 513.612 141.279 512.462 153.978C512.091 158.072 513.913 165.202 511.355 168.414L510.151 168.403C508.125 165.951 508.28 160.45 508.351 157.346C508.577 147.436 512.188 138.291 519.51 131.465C524.659 126.664 530.87 123.825 537.953 124.04C545.777 115.308 554.464 109.544 566.211 108.18Z"/>
	<path fill="#FEFEFE" d="M537.85 128.379C538.815 128.41 539.792 128.454 540.752 128.572C543.893 128.956 546.467 131.221 548.335 133.66C549.603 135.315 550.596 137.593 550.029 139.71C549.5 141.688 548.22 142.623 546.503 143.517C543.292 143.622 538.75 143.687 535.945 141.98C534.72 141.234 534.066 140.29 533.742 138.885C532.951 135.457 536.003 131.112 537.85 128.379Z"/>
	<path fill="#231F20" d="M784.291 126.586C788.746 126.219 792.645 126.208 796.783 128.267C801.804 130.764 804.624 135.073 806.415 140.208C813.133 139.953 820.022 139.895 826.057 143.358C830.406 145.853 833.583 149.995 834.795 154.856C835.941 155.221 837.087 155.59 838.213 156.014C842.419 157.601 846.093 161.52 847.809 165.632C848.939 168.342 849.499 171.467 848.248 174.234C847.176 176.607 844.751 178.54 842.35 179.437C838.632 180.826 834.262 180.207 830.726 178.571C826.339 176.542 822.598 172.727 820.945 168.151C820.028 165.612 819.59 162.264 820.95 159.802C822.286 157.382 825.035 156.252 827.588 155.65C828.704 155.386 829.578 155.171 830.595 154.607L830.184 153.21C829.087 151.553 827.958 150.076 826.473 148.741C820.911 143.741 813.982 143.838 807.002 144.257C806.951 147.438 806.645 150.338 805.434 153.313C804.458 155.71 802.773 157.79 800.307 158.742C798.157 159.571 795.646 159.549 793.54 158.597C791.559 157.702 790.111 156.057 789.474 153.979C788.798 151.776 788.999 149.478 790.193 147.491C792.621 143.448 797.795 142.151 802.066 141.138C800.436 137.231 798.256 133.572 794.486 131.371C782.398 124.316 773.37 141.29 768.791 142.608L767.97 141.688L768.234 142.528L767.287 141.89C767.061 140.565 767.254 139.896 767.949 138.727C771.352 133.005 778.103 128.516 784.291 126.586Z"/>
	<path fill="#FEFEFE" d="M801.183 145.447C801.295 145.473 801.415 145.474 801.517 145.526C802.459 146.002 802.542 146.494 802.901 147.417C802.4 149.59 801.84 151.231 800.393 152.981C798.595 155.155 797.406 155.453 794.639 155.686C793.7 155.018 793.309 154.439 792.74 153.444C792.63 152.438 792.611 151.872 793.005 150.909C794.232 147.911 798.392 146.321 801.183 145.447Z"/>
	<path fill="#FEFEFE" d="M828.943 159.112C830.886 158.959 832.567 158.891 834.458 159.436C838.343 160.555 841.856 163.082 843.777 166.695C844.617 168.275 844.903 170.094 844.291 171.811C843.512 173.997 842.119 174.883 840.12 175.882C838.377 176.003 836.666 176.006 834.955 175.593C831.033 174.647 826.999 171.078 825.107 167.575C824.284 166.051 823.838 164.198 824.542 162.535C825.384 160.546 827.039 159.81 828.943 159.112Z"/>
	<path fill="#231F20" d="M666.792 154.192C675.43 152.785 685.558 154.645 693.519 158.118C707.081 164.036 717.506 176.123 722.938 189.707C732.351 188.144 740.658 189.684 748.508 195.145C759.136 202.538 766.578 214.469 768.799 227.182C772.235 246.848 762.225 264.566 751.236 280.042C752.784 280.692 754.403 281.325 755.834 282.211C758.42 283.813 760.294 286.088 760.885 289.119C763.35 301.783 744.723 328.827 737.062 339.583C744.709 345.19 747.929 350.355 751.466 359.115C752.248 359.348 753.018 359.587 753.79 359.849C807.741 378.162 903.815 458.619 928.403 509.641C933.198 519.591 935.47 529.83 931.615 540.493C916.118 583.36 826.632 631.303 787.433 649.738C772.618 656.705 757.052 661.966 742.323 668.97C739.803 674.856 738.059 681.267 736.074 687.363L726.438 716.172C718.045 740.782 708.607 765.057 698.797 789.133C694.066 800.742 689.367 814.271 682.282 824.671C673.059 825.749 662.368 824.212 653.158 823.203C622.183 819.811 586.874 812.909 556.254 806.317C545.315 803.963 534.488 801.136 523.524 798.883C492.457 792.499 461.248 786.835 429.93 781.829C430.863 784.657 431.924 787.454 432.928 790.259C452.77 794.338 472.552 800.656 492.14 805.884C502.524 808.656 512.9 811.468 523.319 814.101C530.226 815.847 537.311 817.33 544.114 819.429C546.542 820.179 549.811 821.042 551.576 822.932C556.032 827.703 555.573 834.499 555.312 840.533C555.206 840.693 555.098 840.851 554.993 841.012C554.132 842.34 553.211 843.475 552.05 844.549C543.662 852.306 534.359 859.275 525.693 866.748L488.335 898.847C481.861 904.323 474.713 911.546 467.157 915.388C459.885 915.16 452.464 913.52 445.334 912.136C432.633 909.668 420.015 906.798 407.405 903.903C351.95 891.171 296.387 877.038 242.162 859.788C226.402 854.775 209.501 850.497 194.324 843.93C187.182 840.84 180.361 835.896 176.005 829.364C167.807 817.068 164.136 800.911 159.034 787.085C149.189 760.404 139.64 733.603 129.271 707.122L109.057 653.949C104.885 643.138 100.085 632.215 96.5837 621.175C96.0198 619.397 95.4263 617.59 95.667 615.706C95.9243 613.691 96.9338 611.872 98.5497 610.635C100.781 608.925 103.704 608.833 106.384 609.178C111.048 609.777 115.813 611.227 120.457 612.152L156.208 619.449L237.639 636.008L343.747 657.266L368.239 662.298C373.926 663.426 379.952 664.28 385.463 666.079C390.474 667.716 393.55 670.933 396.614 675.037C400.678 664.203 404.099 653.157 407.941 642.247C412.328 629.79 417.143 617.49 421.936 605.186C396.095 579.806 371.729 553.247 349.607 524.555C334.583 527.561 319.65 531.106 304.661 534.29L215.16 553.061L172.402 561.868C163.444 563.636 154.497 565.631 145.403 566.55C142.398 558.065 140.514 548.666 138.325 539.917C132.9 518.234 128.073 496.462 123.557 474.574C116.525 440.494 110.433 406.302 104.28 372.059C100.438 350.675 96.1127 329.326 93.0031 307.819C91.3818 296.606 84.8453 246.842 88.4617 238.063C89.8421 237.046 91.3292 236.526 92.971 236.051C106.214 232.22 120.003 229.371 133.458 226.359C156.73 221.149 179.972 216.269 203.411 211.859C248.403 203.392 293.491 195.95 338.997 190.8C358.207 188.626 377.403 186.564 396.718 185.621C401.345 185.395 418.511 183.587 421.63 186.201C423.089 187.423 423.822 190.722 424.288 192.546C428.145 207.643 430.73 223.331 433.838 238.621C437.849 258.357 442.276 278.029 445.96 297.826C448.742 312.781 450.864 331.109 454.603 345.433L454.784 346.114C463.474 340.338 472.864 335.89 482.246 331.376C500.727 322.483 519.018 314.727 538.536 308.367C540.199 303.854 542.227 299.939 544.989 295.997C542.6 289.323 535.364 273.054 537.521 266.631C538.054 265.042 539.125 263.855 540.679 263.224C547.241 260.561 563.229 267.27 569.967 269.851C573.034 262.897 576.782 256.241 579.869 249.276C577.339 247.763 574.924 246.142 572.602 244.324C561.373 235.532 554.526 223.246 552.83 209.088C551.198 195.47 553.966 180.369 562.635 169.429C566.715 164.282 572.403 160.301 579.217 160.469C589.295 160.717 597.688 167.8 608.183 167.793C620.581 167.785 633.673 161.915 645.478 158.454C652.493 156.397 659.532 155.021 666.792 154.192Z"/>
	<path fill="#FEFEFE" d="M546.044 271.765C548.416 272.197 550.932 272.541 553.259 273.158C554.376 273.455 555.191 273.653 555.745 274.707L554.316 275.655C552.374 276.528 550.524 277.635 548.663 278.666C547.742 276.386 546.909 274.066 546.044 271.765Z"/>
	<path fill="#FEFEFE" d="M563.197 277.921C565.699 278.18 568.372 278.921 570.855 279.406C566.194 282.096 561.386 284.573 556.651 287.13C555.228 287.882 553.655 288.989 552 288.838C551.217 287.89 551.134 287.907 551.141 286.694C553 283.157 559.829 280.264 563.197 277.921Z"/>
	<path fill="#FEFEFE" d="M639.3 305.49C641.947 305.538 645.008 306.534 647.619 307.115C643.116 309.487 638.435 311.578 633.84 313.771C632.164 314.671 629.937 316.267 628.027 316.319C627.417 315.332 627.28 314.38 627.543 313.223C627.576 313.081 627.997 311.986 628.178 311.806C629.762 310.232 636.926 306.958 639.3 305.49Z"/>
	<path fill="#FEFEFE" d="M668.49 318.018L673.524 320.72C667.465 323.867 661.065 326.552 654.698 329.006C653.483 329.506 652.209 330.163 650.882 330.224C650.112 330.259 650.32 330.182 649.679 329.551C651.433 326.131 664.791 320.006 668.49 318.018Z"/>
	<path fill="#FEFEFE" d="M593.79 287.925C594.055 287.989 594.325 288.04 594.587 288.117C595.81 288.479 596.454 288.758 597.115 289.846C595.58 292.32 577.944 300.406 574.138 302.336C573.64 302.578 573.035 302.711 572.504 302.875C571.934 301.789 572.085 301.642 572.317 300.416C575.197 296.668 588.737 290.803 593.79 287.925Z"/>
	<path fill="#FEFEFE" d="M580.773 282.464C582.772 282.693 584.891 283.899 586.738 284.699C579.264 288.91 571.449 292.647 563.623 296.155L561.167 297.104C559.903 296.909 559.992 296.868 559.197 295.847L559.339 294.838C561.952 290.748 575.915 284.979 580.773 282.464Z"/>
	<path fill="#FEFEFE" d="M785.494 411.612C786.658 411.9 787.7 412.391 788.765 412.931C794.793 415.987 809.073 427.369 811.172 433.697L810.25 435.299C810.072 435.336 809.896 435.388 809.716 435.412C809.607 435.426 808.299 435.518 808.289 435.513C806.869 434.791 801.039 427.936 799.419 426.358C794.831 421.884 789.927 418.666 784.816 414.924C784.361 413.594 784.987 412.876 785.494 411.612Z"/>
	<path fill="#FEFEFE" d="M445.142 829.794C451.934 831.927 458.879 833.552 465.791 835.244L461.529 838.398L455.616 843.09L448.836 841.323L445.142 829.794Z"/>
	<path fill="#FEFEFE" d="M794.169 404.654C802.285 408.073 814.527 418.286 819.553 425.598C819.403 427.083 818.74 427.553 817.809 428.69L817.633 428.725C815.247 428.121 809.457 420.769 807.139 418.716C802.798 414.87 797.641 411.625 792.998 408.124C792.724 406.643 793.472 405.939 794.169 404.654Z"/>
	<path fill="#FEFEFE" d="M474.183 349.4C475.221 349.535 476.063 349.911 476.755 350.711C477.339 351.388 477.143 351.148 476.999 352.178C473.424 355.073 466.957 356.895 462.678 358.962C456.738 361.831 451.213 365.019 445.751 368.697C445.15 368.914 444.793 368.824 444.169 368.757C443.262 367.784 443.059 367.785 443.015 366.479C447.812 360.422 466.818 352.746 474.183 349.4Z"/>
	<path fill="#FEFEFE" d="M655.674 310.06L662.819 311.965C653.461 316.907 643.667 321.094 634.039 325.48C632.163 326.39 630.684 327.358 628.597 327.056C628.25 326.511 627.804 326.214 628.036 325.537C629.329 321.758 650.463 313.296 655.095 310.424L655.674 310.06Z"/>
	<path fill="#FEFEFE" d="M893.586 519.194C894.575 519.245 895.173 519.344 896.061 519.788C897.053 521.377 897.536 522.667 897.763 524.537C898.998 534.676 895.162 548.811 888.772 556.742C887.741 556.339 887.097 556.114 886.39 555.239C885.935 551.154 889.846 545.775 891.193 541.897C892.869 537.073 892.917 530.86 892.775 525.785C892.734 524.343 892.332 521.806 892.69 520.499C892.829 519.99 893.287 519.629 893.586 519.194Z"/>
	<path fill="#FEFEFE" d="M491.762 353.618C492.83 353.517 493.985 353.365 495.055 353.462C496.23 353.567 497.346 354.11 498.024 355.076L497.858 355.548C493.891 358.719 487.044 358.284 482.216 359.799C473.666 362.482 465.674 366.063 457.592 369.897C457.184 370.18 456.784 370.478 456.355 370.727C455.096 371.457 453.826 371.81 452.452 371.399C452.289 370.686 452.425 370.361 452.808 369.701C456.448 363.426 484.678 354.956 491.762 353.618Z"/>
	<path fill="#FEFEFE" d="M877.626 511.647C878.455 511.865 878.833 511.932 879.465 512.53C882.597 515.489 884.231 524.919 884.39 529.277C884.84 541.572 878.532 550.479 870.51 559.082C869.897 558.787 868.967 558.439 868.476 557.981C868.423 557.931 867.648 557.047 867.652 556.81C867.657 556.498 876.65 542.996 878.159 539.334C881.194 531.974 879.518 525.091 876.978 517.934C876.417 516.355 875.675 514.917 875.727 513.226L877.626 511.647Z"/>
	<path fill="#FEFEFE" d="M359.115 428.77C359.974 429.095 360.445 429.478 361.115 430.102C361.393 433.65 352.486 444.192 350.636 448.724C345.982 460.126 347.267 464.752 345.795 475.995C345.574 477.68 345.031 477.807 343.794 478.781L342.078 477.682C340.867 475.232 340.755 472.383 340.958 469.688C342.013 455.65 348.238 438.186 359.115 428.77Z"/>
	<path fill="#FEFEFE" d="M366.375 437.793C366.546 437.877 366.73 437.939 366.888 438.045C367.971 438.771 368.203 439.014 368.455 440.218C367.131 443.846 363.624 447.103 361.355 450.252C356.579 456.877 354.168 466.483 355.314 474.612C355.913 478.858 357.319 482.963 357.971 487.201L356.691 488.855C355.68 488.429 355.039 487.973 354.392 487.067C349.802 480.634 350.07 469.956 351.589 462.51C353.465 453.313 358.364 443.069 366.375 437.793Z"/>
	<path fill="#FEFEFE" d="M300.126 753.332C301.326 753.294 301.876 753.48 302.934 754.039C303.399 754.784 303.751 754.969 303.599 755.897C303.029 759.38 271.169 787.628 266.451 790.957C266.126 790.856 265.78 790.809 265.477 790.655C264.273 790.047 264.001 789.347 263.574 788.188C264.708 784.476 295.289 757.479 300.126 753.332Z"/>
	<path fill="#FEFEFE" d="M253.22 728.263C253.696 728.406 253.91 728.453 254.393 728.688C255.626 729.288 256.01 729.808 256.513 731.039C256.37 732.227 256.021 732.785 255.214 733.616C249.525 739.481 242.564 744.64 236.449 750.099C229.446 756.351 222.803 763.263 215.449 769.08C214.887 768.8 214.217 768.512 213.714 768.121C212.727 767.355 212.433 766.831 212.354 765.619C216.546 760.411 222.822 755.85 227.802 751.317C236.226 743.65 244.377 735.437 253.22 728.263Z"/>
	<path fill="#FEFEFE" d="M471.548 837.554C481.891 841.122 492.531 843.982 502.686 848.059C499.742 851.159 496.435 853.913 493.222 856.728C482.606 852.662 471.824 849.095 461.058 845.45C464.341 842.517 467.943 840.065 471.548 837.554Z"/>
	<path fill="#FEFEFE" d="M308.267 712.755L310.177 713.278C311.12 714.411 311.117 714.386 311.108 715.858C310.209 717.775 308.795 719.212 307.248 720.626C302.018 725.407 296.265 729.755 290.815 734.301C282.58 741.17 274.47 748.216 266.306 755.173C251.287 767.973 236.56 781.594 220.992 793.702C220.541 793.598 219.81 793.458 219.418 793.232C218.268 792.568 218.188 791.991 218.027 790.822C219.457 787.046 297.381 722.252 308.267 712.755Z"/>
	<path fill="#FEFEFE" d="M450.583 846.254C463.876 851.223 477.096 856.063 490.563 860.558C487.149 864.088 483.407 867.318 479.767 870.613C475.962 874.144 472.06 877.525 468.101 880.882C465.75 879.976 463.444 878.965 461.129 877.971C456.9 867.837 454.194 856.665 450.583 846.254Z"/>
	<path fill="#FEFEFE" d="M434.975 797.48C441.928 798.837 448.848 801.118 455.703 802.933C465.897 805.631 476.159 808.093 486.4 810.605C482.858 813.621 479.187 816.483 475.541 819.372C471.598 822.628 466.058 826.216 463.237 830.395C456.888 828.101 450.174 826.565 443.667 824.762C440.474 815.802 437.766 806.573 434.975 797.48Z"/>
	<path fill="#FEFEFE" d="M449.351 426.931C451.012 428.736 456.127 474.054 456.666 479.685C451.045 475.853 445.09 472.408 439.3 468.831C432.618 464.76 425.825 460.749 419.457 456.2C425.607 448.088 441.308 433.612 449.351 426.931Z"/>
	<path fill="#FEFEFE" d="M546.891 509.085L552.96 509.02C552.334 511.596 551.679 514.186 551.409 516.828C550.703 523.741 552.002 530.685 556.588 536.126C561.953 542.491 570.15 545.049 578.164 545.825C605.892 548.511 632.12 532.598 652.671 515.772C655.114 516.516 657.93 516.872 660.227 517.975C661.269 518.475 661.342 518.504 661.736 519.622L660.561 521.033C653.064 527.823 644.13 533.456 635.211 538.219C615.032 548.996 587.845 556.505 565.249 549.545C557.556 547.175 549.577 542.601 545.864 535.157C541.621 526.651 544.084 517.559 546.891 509.085Z"/>
	<path fill="#FEFEFE" d="M711.856 536.471C713.701 537.078 715.555 537.665 717.383 538.324C712.033 572.512 714.973 607.338 724.395 640.595C725.923 645.987 727.488 651.378 729.435 656.636C730.937 660.692 733.198 665.109 734.134 669.279C734.398 670.452 734.194 671.434 733.664 672.501C732.817 672.813 732.819 673.021 731.918 672.607C730.341 671.884 729.268 670.406 728.173 669.104C725.415 665.111 722.864 661.096 720.597 656.796C702.715 622.869 700.695 572.817 711.856 536.471Z"/>
	<path fill="#FEFEFE" d="M491.577 812.169C501.039 814.252 510.41 816.959 519.839 819.221C527.589 821.081 535.921 822.474 543.446 825.059C545.171 825.652 547.142 826.227 548.221 827.79C547.091 833.492 484.749 883.406 475.349 890.387C472.78 892.313 470.174 893.976 467.395 895.585C465.607 891.937 464.456 887.737 463.102 883.897L469.041 885.807C477.042 881.108 498.741 859.309 505.509 851.261C506.725 849.815 508.48 847.946 508.319 845.997C503.037 841.24 475.602 833.977 467.785 831.954C475.562 825.167 483.784 818.935 491.577 812.169Z"/>
	<path fill="#FEFEFE" d="M587.304 252.181C596.834 255.996 606.566 258.409 616.639 260.257C636.498 263.9 686.637 267.443 699.071 281.522C706.309 289.717 702.855 307.131 702.378 317.347C701.317 317.172 700.229 317.019 699.186 316.756C697.964 316.447 697.174 316.323 696.552 315.167C696.381 314.626 696.2 313.905 695.909 313.402C694.243 310.524 675.303 306.346 671.159 305.239C656.268 301.264 641.486 297.015 626.677 292.751C623.041 291.704 616.678 290.653 613.661 289.019C612.145 288.198 611.163 285.815 609.528 284.791C607.289 283.389 603.88 282.47 601.392 281.477C593.295 278.245 585.182 275.088 576.988 272.109C579.742 265.177 583.568 258.622 587.304 252.181Z"/>
	<path fill="#FEFEFE" d="M511.674 383.877C513.49 384.392 513.517 388.031 513.989 389.717C522.416 419.833 544.91 446.451 569.439 465.228C564.984 477.684 560.26 490.051 555.521 502.402C544.196 502.458 520.597 501.49 510.7 504.268L502.417 508.096C489.909 500.312 477.549 492.414 464.632 485.308C462.164 463.776 459.355 442.381 456.162 420.944C472.029 405.531 491.881 393.501 511.674 383.877Z"/>
	<path fill="#FEFEFE" d="M693.974 394.373C707.323 400.073 719.574 401.564 733.274 396.534C739.636 402.036 745.487 408.129 751.495 414.011C783.079 444.93 811.919 479.596 831.581 519.387C815.172 519.54 798.898 520.189 782.566 521.857C769.463 523.191 756.468 525.298 743.51 527.633C736.567 528.884 728.368 531.491 721.333 531.374C716.002 531.286 695.725 522.592 688.962 520.335C676.019 516.017 663.035 511.902 649.944 508.057C651.475 503.01 653.76 498.114 655.763 493.236L665.234 469.65L693.974 394.373Z"/>
	<path fill="#FEFEFE" d="M670.75 161.205C675.005 161.106 679.179 161.37 683.333 162.357C702.746 166.968 716.071 183.348 718.363 202.892C718.928 207.71 717.037 214.319 719.647 218.496C720.698 219.271 721.317 219.308 722.605 219.366C723.441 218.974 723.85 218.918 724.406 218.139C727.469 213.846 724.99 201.24 724.211 196.406C724.91 196.336 725.608 196.272 726.309 196.233C734.49 195.771 741.887 198.311 748.006 203.77C753.688 208.838 757.867 215.656 760.131 222.9C765.611 240.437 758.369 257.322 748.562 271.852C746.244 275.285 741.269 279.446 741.509 283.775C743.862 287.405 748.298 285.962 751.63 287.872C752.897 288.598 753.295 289.211 753.585 290.637C755.609 300.606 735.742 329.292 729.661 337.2C721.298 334.841 714.185 334.643 705.593 335.735C707.399 328.134 708.988 320.69 709.663 312.879C710.481 305.616 711.055 297.654 710.308 290.398C706.051 249.032 607.92 263.627 576.174 237.676C566.683 229.918 561.119 218.915 559.947 206.74C558.894 195.814 561.99 181.152 569.271 172.641C571.431 170.117 574.244 168.399 577.561 167.962C585.627 166.9 596.923 175.758 610.296 174.812C618.28 174.247 625.875 171.748 633.482 169.44C645.78 165.708 657.826 161.992 670.75 161.205Z"/>
	<path fill="#FEFEFE" d="M604.849 301.825C608.88 302.715 612.861 303.87 616.847 304.945C618.012 316.385 618.88 327.809 625.053 337.853C628.696 343.78 633.964 348.501 640.935 349.99C660.363 354.138 677.092 331.352 691.91 322.072C694.809 323.112 697.582 324.358 700.382 325.636C698.714 330.702 697.015 335.748 695.66 340.91C696.847 342.273 698.128 343.556 699.382 344.856C710.863 341.962 721.679 340.238 732.685 345.872C738.058 348.622 742.24 352.971 744.042 358.806C746.101 365.477 745.423 373.898 742.036 379.989C739.664 384.255 735.954 387.624 731.626 389.838C714.429 398.632 696.623 385.575 691.546 387.701C689.172 388.696 687.972 391.357 686.989 393.561C684.28 399.634 682.15 406.087 679.742 412.298L661.537 459.838C656.348 473.209 651.262 486.665 645.658 499.869C642.784 506.641 639.292 513.16 636.59 519.995C633.376 522.151 630.151 524.129 626.75 525.976C626.727 525.99 626.704 526.004 626.68 526.017C610.846 534.311 590.349 542.955 572.201 537.82C567.162 536.394 562.238 533.602 559.768 528.794C558.049 525.448 557.717 521.744 558.188 518.056C558.994 511.752 561.738 505.457 563.939 499.532C567.641 489.57 571.748 479.683 574.947 469.549C577.721 471.462 583.685 476.572 587.006 476.967C588.41 477.134 588.746 476.647 589.787 475.837C590.195 474.796 590.681 473.83 590.117 472.702C588.994 470.457 584.23 467.688 582.192 466.172C556.157 446.794 532.782 424.067 522.092 392.512C520.361 387.402 518.549 381.091 519.223 375.643C520.341 366.611 526.526 354.955 530.066 346.521C535.929 332.553 541.624 318.248 548.395 304.693C549.894 309.9 552.469 315.473 556.365 319.314C559.905 322.805 564.521 324.547 569.48 324.462C583.675 324.218 595.72 311.255 604.849 301.825Z"/>
	<path fill="#231F20" d="M708.395 368.586C712.656 368.031 716.411 368.489 720.446 369.882C722.946 370.744 726.299 372.379 727.33 375.03C727.915 376.534 727.624 377.189 727.056 378.638L726.61 378.577C723.902 378.223 722.453 374.964 719.935 373.802C717.06 372.476 712.751 372.565 709.58 371.918C708.334 370.762 708.559 370.234 708.395 368.586Z"/>
	<path fill="#231F20" d="M711.801 355.7C715.847 355.315 720.829 355.943 724.68 357.259C728.186 358.456 732.901 360.678 734.539 364.266C735.032 365.346 735.021 365.518 734.663 366.579L733.46 366.867C731.852 366.528 731.044 365.718 729.835 364.634L729.341 364.185C722.085 359.227 714.305 359.59 706.001 360.489C704.593 360.642 703.037 360.786 701.874 359.842C701.788 359.229 702.084 358.851 702.497 358.382C704.668 355.919 708.816 355.949 711.801 355.7Z"/>
	<path fill="#231F20" d="M601.76 325.252C602.585 325.48 603.567 325.814 604.275 326.318C605.315 327.059 605.577 327.806 605.836 328.992C604.559 334.792 596.435 339.509 592.193 343.257C591.477 346.516 598.451 349.464 598.442 353.672C597.318 354.933 596.844 355.042 595.297 355.597C594.403 355.092 593.57 354.541 592.766 353.901C589.838 351.569 584.531 346.158 584.284 342.329C584.237 341.591 584.269 341.066 584.78 340.471C586.597 338.352 590.14 336.421 592.384 334.684C596.004 331.883 598.851 328.774 601.76 325.252Z"/>
	<path fill="#231F20" d="M624.375 373.815C624.816 373.854 625.549 373.896 625.954 374.042C627.144 374.472 627.272 374.933 627.606 376.012C627.412 376.721 627.189 377.324 626.744 377.921C621.383 385.122 610.269 388.762 601.743 389.681C589.065 391.049 577.565 387.931 567.649 379.945C566.994 379.258 566.286 378.387 565.991 377.473C565.596 376.248 565.744 375.82 566.361 374.828C566.771 374.691 567.159 374.39 567.591 374.416C569.585 374.538 574.789 379.785 576.865 381.162C581.753 384.404 590.116 385.843 595.947 385.849C607.38 385.863 616.361 381.795 624.375 373.815Z"/>
	<path fill="#FEFEFE" d="M401.048 685.242C407.044 667.687 413.117 650.194 419.476 632.766C423.321 622.228 427.096 611.38 431.761 601.181C439.23 584.852 448.544 569.444 458.654 554.632C465.521 544.573 472.919 534.312 481.565 525.69C485.494 521.772 491.818 515.856 497.454 514.963C500.012 514.557 502.946 514.827 505.405 514.042C508.348 513.102 511.028 511.313 513.97 510.347C521.208 507.969 536.102 508.963 543.905 508.994C542.328 513.552 541.044 518.222 540.755 523.054C540.333 530.105 542.25 536.888 547.063 542.177C555.453 551.395 569.779 554.579 581.736 554.895C612.003 555.696 643.787 540.643 665.36 520.044C680.43 524.203 695.077 530.215 709.768 535.523C696.788 567.146 701.658 619.454 714.669 650.476C718.045 658.525 722.523 666.396 728.303 672.973C729.095 674.136 730.465 675.23 731.484 676.227C723.421 701.567 715.224 726.842 705.723 751.701C697.254 773.862 687.671 795.519 678.632 817.441C665.708 817.51 652.463 815.788 639.663 814.175C601.4 809.352 564.108 800.715 526.474 792.665C493.73 785.661 460.876 779.751 427.827 774.404L410.824 718.919C407.411 707.776 403.655 696.602 401.048 685.242Z"/>
	<path fill="#FEFEFE" d="M402.645 191.711C407.285 191.322 412.056 191.424 416.716 191.313C420.72 207.82 423.62 224.579 427.096 241.197C431.546 262.473 436.405 283.698 440.422 305.062C443.198 319.829 445.064 334.859 448.253 349.532C432.561 358.544 417.106 367.94 401.807 377.603C375.85 393.995 328.679 423.7 321.692 455.607C316.216 480.612 332.533 499.312 344.936 518.939C303.388 527.137 262.029 536.212 220.621 545.079C201.185 549.241 181.57 552.793 162.205 557.236C158.542 557.885 154.899 558.883 151.277 559.744C139.13 515.365 130.087 469.913 121.116 424.805C109.028 364.024 97.0719 302.764 94.6247 240.698C105.262 238.378 116.14 237.001 126.818 234.727C140.56 231.8 154.225 228.506 167.984 225.664C245.351 209.685 323.685 196.231 402.645 191.711Z"/>
	<path fill="#231F20" d="M336.999 289.733C337.214 289.834 337.447 289.903 337.644 290.035C338.771 290.787 338.824 291.09 338.925 292.328C337.076 295.662 320.971 309.41 316.955 313.104C315.948 312.669 315.593 312.392 314.99 311.473C315.714 307.707 333.331 292.689 336.999 289.733Z"/>
	<path fill="#231F20" d="M239.694 451.553C239.974 451.504 240.25 451.413 240.534 451.406C241.671 451.38 242.171 451.975 242.966 452.658L242.68 453.563C238.319 456.629 196.981 466.503 188.065 468.824C187.679 468.878 187.112 468.972 186.734 468.956C185.459 468.901 185.193 468.537 184.324 467.701L184.507 466.887C188.049 463.834 231.877 453.713 239.694 451.553Z"/>
	<path fill="#231F20" d="M309.348 294.777C310.653 295.347 310.932 295.335 311.637 296.544C310.865 300.723 304.283 306.57 301.557 309.848C304.374 311.702 307.561 313.464 309.65 316.164C310.204 316.879 310.618 317.136 310.511 318.085C306.563 318.46 302.155 314.902 298.953 312.826C294.664 318.268 290.351 324.777 285.285 329.457C284.43 328.482 284.166 328.277 283.936 327.024C285.924 321.253 291.713 315.675 295.556 311C291.877 308.513 287.446 306.823 285.117 302.814L285.387 302.288C289.674 302.344 294.521 306.081 298.101 308.291C302.099 304.035 305.363 299.082 309.348 294.777Z"/>
	<path fill="#231F20" d="M259.524 428.566C260.799 428.918 260.863 429.08 261.721 430.111L261.357 430.872C256.307 434.216 193.69 448.47 182.118 451.403C180.823 451.304 180.893 451.169 180.002 450.192L180.162 449.342C184.853 445.496 247.9 432.129 259.524 428.566Z"/>
	<path fill="#231F20" d="M277.708 459.536C278.818 459.388 279.668 459.509 280.766 459.711L281.35 460.561L280.961 461.604C274.866 465.087 262.636 467.007 255.464 468.932C234.767 474.489 214.14 480.33 193.35 485.546C192.906 485.633 192.124 485.803 191.69 485.805C190.334 485.808 190.122 485.366 189.312 484.422L189.552 483.391C191.251 482.072 268.56 462.124 277.708 459.536Z"/>
	<path fill="#231F20" d="M325.515 392.63C325.764 392.59 326.011 392.541 326.261 392.51C327.819 392.313 328.994 392.319 330.277 393.283L330.276 394.101C329.09 395.464 327.966 395.653 326.228 396.075C312.422 399.432 298.406 401.992 284.536 405.078C249.287 412.92 213.954 421.137 179.106 430.607C178.656 430.708 177.711 431 177.211 430.952C176.133 430.848 175.813 430.34 175.134 429.604L175.526 428.588C180.585 425.307 188.911 424.594 194.749 423.046C237.955 411.593 281.784 401.849 325.515 392.63Z"/>
	<path fill="#231F20" d="M382.34 362.637L383.385 362.778C384.168 363.612 384.249 363.441 384.361 364.665C382.345 366.812 345.573 373.718 339.721 374.944C284.023 386.608 228.903 400.087 173.608 413.464C172.275 413.528 172.297 413.564 171.249 412.747L171.195 411.69C176.336 406.422 356.838 367.287 382.34 362.637Z"/>
	<path fill="#231F20" d="M393.823 212.2C394.063 212.158 394.301 212.105 394.543 212.074C396.087 211.875 397.823 211.726 399.107 212.725C402.211 215.141 404.438 231.473 404.944 235.991C405.221 238.469 405.459 242.053 403.512 243.98C402.728 244.755 401.734 245.192 400.697 245.498C392.976 247.775 383.397 247.835 375.337 248.891C359.751 250.931 344.141 253.266 328.633 255.833C283.383 263.321 238.661 273.657 193.332 280.772C171.348 284.222 149.055 287.006 126.876 288.789C125.528 288.954 123.89 289.016 122.636 288.421C120.79 287.547 119.882 285.491 119.255 283.674C118.281 280.857 115.565 263.339 115.53 260.592C115.516 259.475 115.711 258.714 116.187 257.715C122.801 253.497 262 231.959 278.23 229.343C299.487 225.916 320.714 222.129 342.011 218.967C359.213 216.413 376.552 214.236 393.823 212.2Z"/>
	<path fill="#FEFEFE" d="M309.782 238.68C310.87 238.485 312.407 238.254 313.506 238.481C314.609 238.708 315.47 239.267 315.971 240.309C316.512 241.434 316.172 242.057 315.765 243.106C314.529 244.279 313.518 244.859 311.847 245.264C303.08 247.386 293.499 248.285 284.55 249.816L208.119 262.37C206.985 262.571 205.624 262.941 204.483 262.919C203.192 262.894 202.397 262.331 201.669 261.279C200.984 260.29 201.132 259.745 201.346 258.674C202.67 257.013 204.159 256.283 206.196 255.712C214.826 253.293 224.607 252.57 233.498 251.005C258.844 246.542 284.311 242.363 309.782 238.68Z"/>
</svg>
