<?xml version="1.0" encoding="utf-8" ?>
<svg xmlns="http://www.w3.org/2000/svg" xmlns:xlink="http://www.w3.org/1999/xlink" width="1024" height="1024">
	<path fill="#FEFEFE" d="M0 0L1024 0L1024 1024L0 1024L0 0Z"/>
	<path fill="#231F20" d="M440.964 359.924C441.56 359.927 442.418 359.872 443.018 360.017C444.259 360.318 444.699 361.007 445.358 362.024C445.777 364.469 445.086 365.801 443.73 367.724C442.697 367.636 441.385 367.513 440.503 366.915C439.534 366.258 438.948 365.244 438.957 364.067C438.969 362.421 440.001 361.145 440.964 359.924Z"/>
	<path fill="#231F20" d="M474.946 355.884C476.35 355.795 477.774 355.687 479.026 356.488C480.032 357.131 480.64 358.022 480.803 359.214C481.025 360.833 480.175 362.161 479.372 363.474C477.876 363.815 476.195 364.321 474.829 363.289C474.159 362.782 473.703 362.121 473.528 361.31C473.058 359.144 473.811 357.676 474.946 355.884Z"/>
	<path fill="#231F20" d="M539.434 338.849C539.616 338.842 539.799 338.824 539.982 338.828C541.826 338.863 542.543 339.433 543.756 340.679C544.209 341.999 544.289 342.825 543.776 344.166C543.181 345.721 541.873 346.252 540.489 346.944C539.01 346.676 537.327 346.393 536.168 345.34C535.262 344.517 535.4 343.927 535.456 342.837C536.378 340.933 537.75 340.068 539.434 338.849Z"/>
	<path fill="#231F20" d="M461.682 380.42C463.681 380.708 465.64 381.113 466.804 382.952C467.552 384.135 467.574 385.381 467.239 386.698C466.703 388.803 465.1 389.912 463.311 390.896C462.819 390.928 462.499 390.97 461.984 390.887C460.372 390.626 458.708 389.739 457.909 388.261C457.156 386.867 457.291 385.248 457.824 383.814C458.552 381.856 459.936 381.284 461.682 380.42Z"/>
	<path fill="#231F20" d="M361.473 741.378C362.595 742.005 363.194 742.298 363.86 743.449C362.695 746.817 348.615 760.843 345.235 765.308L344.695 766.029C336.601 763.537 328.401 759.309 320.561 755.992C320.056 755.769 319.333 755.512 318.872 755.182C317.73 754.363 317.699 754.197 317.544 752.887L318.239 752.264C324.247 751.709 337.151 758.972 342.997 761.626C349.082 754.804 355.167 747.998 361.473 741.378Z"/>
	<path fill="#231F20" d="M410.323 154.245C411.982 154.61 413.576 154.974 415.028 155.897C418.033 157.807 419.85 160.923 420.638 164.334C422.601 172.837 419.33 180.214 415.053 187.297C419.52 196.485 424.898 204.845 430.616 213.294C432.699 216.372 435.822 219.302 437.338 222.696C437.901 223.956 437.742 224.362 437.226 225.601L436.226 225.904C432.578 224.314 429.155 217.614 426.942 214.315C421.303 206.553 416.617 198.367 411.997 189.979C411.348 190.178 410.698 190.372 410.042 190.546C405.57 191.737 399.047 192.941 394.931 190.335C393.618 189.504 392.659 188.23 392.489 186.646C392.34 185.257 392.831 183.847 393.738 182.797C394.782 181.589 396.335 180.892 397.931 180.924C400.925 180.983 402.703 183.004 404.593 185.02C405.672 186.171 407.276 186.768 408.871 186.576C413.724 185.995 404.489 162.544 410.323 154.245Z"/>
	<path fill="#FEFEFE" d="M397.553 183.882C399.349 184.461 401.646 185.486 402.696 187.107L402.142 187.845C400.401 187.872 398.421 188.146 396.951 187.075C396.608 185.535 396.916 185.278 397.553 183.882Z"/>
	<path fill="#FEFEFE" d="M412.041 158.757C414.09 159.529 415.522 161.347 416.406 163.295C418.73 168.411 417.122 174.232 415.095 179.14L414.25 180.498L413.655 179.972C411.577 174.409 411.585 164.719 412.041 158.757Z"/>
	<path fill="#231F20" d="M542.61 114.192C543.702 112.812 544.525 111.448 546.288 110.918C547.077 111.109 547.359 110.954 547.779 111.728C548.372 112.822 548.344 113.559 547.929 114.719C547.684 115.403 547.396 116.072 547.111 116.74C554.012 122.29 557.558 126.295 559.814 135.018C558.423 139.354 556.447 143.152 552.156 145.294C549.859 146.44 547.189 146.578 544.79 145.655C542.613 144.817 541.129 142.906 539.667 141.174C535.804 154.992 534.256 169.265 534.44 183.591C534.495 187.833 534.728 192.144 535.398 196.339C535.719 198.347 536.634 200.449 536.69 202.451C536.722 203.617 536.484 203.968 535.884 204.907L534.527 205.432C532.833 204.388 532.502 202.792 532.065 200.918C527.097 179.612 531.372 156.208 537.082 135.489C533.1 138.324 529.631 140.494 524.464 139.738C522.928 139.513 521.113 138.934 520.331 137.474C519.37 135.68 520.071 133.166 520.795 131.416C523.225 125.542 529.286 121.193 534.083 117.312C536.926 115.526 539.117 114.137 542.61 114.192Z"/>
	<path fill="#FEFEFE" d="M533.523 122.345C535.502 121.011 537.886 118.935 540.255 118.593C538.361 124.441 535.648 132.602 529.71 135.512C528.255 136.225 527.46 136.509 525.876 136.284C524.739 135.27 524.639 135.212 524.304 133.738C525.503 129.055 530.713 126.082 533.523 122.345Z"/>
	<path fill="#FEFEFE" d="M544.726 120.243C546.911 121.507 549.044 123.449 550.78 125.287C553.137 127.78 555.393 131.12 555.124 134.717C554.919 137.452 553.324 139.423 551.277 141.087C549.844 141.538 548.277 142.115 546.758 141.812C545.216 141.504 543.995 140.504 543.276 139.131C540.745 134.301 543.325 125.226 544.726 120.243Z"/>
	<path fill="#231F20" d="M848.927 279.521C849.928 279.508 851.19 279.406 852.157 279.68C853.253 279.992 853.8 280.545 854.219 281.571C854.123 281.699 854.043 281.842 853.93 281.956C852.291 283.621 849.049 283.724 846.836 283.938L846.743 284.18C846.451 284.141 846.16 284.047 845.866 284.063C845.542 284.081 845.233 284.209 844.917 284.281C852.393 285.794 863.245 287.759 868.674 293.582C869.875 294.871 870.731 296.527 870.486 298.336C870.116 301.069 867.45 303.37 865.243 304.732C859.785 308.098 854.544 307.888 848.563 306.449C853.729 333.216 863.514 356.161 887.23 371.607C890.008 373.416 892.865 375.178 895.806 376.708C899.015 378.377 903.935 379.851 906.528 382.255C906.775 383.603 906.776 383.762 906.259 385.027C904.851 385.478 904.176 384.926 902.819 384.413C896.539 381.677 890.49 378.287 884.841 374.416C859.814 357.265 850.194 334.355 844.771 305.473C840.307 303.319 836.158 300.534 831.891 298.016C828.864 300.703 831.482 307.212 828.933 310.709L828.106 310.704C827.431 309.994 827.069 309.388 826.782 308.461C825.266 303.576 826.889 296.807 829.222 292.357C831.884 287.281 843.405 281.159 848.927 279.521Z"/>
	<path fill="#FEFEFE" d="M843.032 287.124L844.015 287.472C845.557 290.911 844.781 298.143 844.895 302.043C842.638 300.833 840.529 299.376 838.393 297.967C836.441 296.633 833.395 296.055 832.412 293.939C832.523 293.105 832.641 292.573 833.139 291.868C835.212 288.933 839.713 287.51 843.032 287.124Z"/>
	<path fill="#FEFEFE" d="M848.119 288.45C853.005 289.904 860.254 291.196 864.255 294.354C865.505 295.34 866.023 296.289 866.159 297.896C865.757 299.595 864.9 300.406 863.737 301.618C863.306 301.87 862.878 302.13 862.429 302.349C857.696 304.661 853.253 304.214 848.436 302.645C847.858 297.965 847.886 293.155 848.119 288.45Z"/>
	<path fill="#231F20" d="M306.809 217.56C310.831 217.415 314.339 217.64 317.939 219.71C321.871 221.971 324.425 225.671 325.593 230.019C327.163 235.859 326.203 241.514 323.263 246.734C334.969 254.597 349.069 261.159 362.926 264.009C367.497 264.95 372.239 265.001 376.808 265.873C378.269 266.151 379.016 266.248 379.907 267.463C379.737 268.766 379.804 268.693 378.772 269.501C374.161 270.571 368.211 268.733 363.594 267.856C351.089 265.095 330.656 257.746 320.766 249.254C316.764 250.864 312.82 251.915 308.464 251.75C302.703 251.532 297.296 249.177 293.476 244.814C290.139 241.003 288.147 235.386 288.654 230.309C288.976 227.078 290.463 224.394 292.969 222.344C294.746 220.89 296.176 221.285 298.322 221.517C301.054 219.789 303.67 218.4 306.809 217.56Z"/>
	<path fill="#FEFEFE" d="M295.235 225.236C296.925 226.132 301.163 232.008 302.823 233.771C307.052 238.265 312.402 241.366 316.536 245.813L316.273 246.536L314.382 247.315C308.812 248.198 303.546 247.84 298.807 244.402C295.742 242.179 293.09 238.637 292.551 234.814C292.041 231.196 293.142 228.115 295.235 225.236Z"/>
	<path fill="#FEFEFE" d="M307.428 221.134C308.625 221.199 309.836 221.255 311.022 221.426C314.596 221.938 318.028 224.344 320.014 227.316C322.462 230.981 322.944 235.246 321.956 239.473C321.594 241.016 321.176 242.538 319.806 243.378L318.512 242.603C314.22 239.58 304.081 231.451 302.38 226.944C302.038 226.038 301.913 224.965 302.382 224.093C303.376 222.245 305.579 221.758 307.428 221.134Z"/>
	<path fill="#231F20" d="M796.517 122.216C799.398 122.134 802.391 122.497 805.054 123.651C807.404 124.67 810.016 126.473 811.402 128.661C816.566 136.813 822.411 155.626 826.73 165.615C832.055 177.932 838.9 189.839 843.84 202.259C845.194 205.662 845.908 207.478 844.298 211.045C841.396 217.476 835.225 222.917 830.006 227.447C804.921 249.216 773.434 264.759 742.564 276.465C741.196 282.299 740.975 288.595 740.141 294.544C739.765 297.225 739.401 300.744 737.113 302.469C735.833 302.546 735.357 302.534 734.181 301.915C728.851 299.11 717.272 288.951 711.959 284.83C695.7 291.165 678.141 294.886 660.979 297.868C652.009 299.046 640.903 301.291 633.236 295.182C623.159 287.152 617.323 266.775 611.479 255.114C605.777 243.734 594.419 229.567 593.548 216.608C593.162 210.875 599.298 204.978 602.885 201.035C633.445 167.443 721.408 135.417 765.776 126.11C775.971 123.972 786.111 122.705 796.517 122.216Z"/>
	<path fill="#FEFEFE" d="M713.257 169.171C721.942 168.473 730.656 171.244 737.918 175.913C747.429 182.029 755.537 191.997 757.832 203.238C759.856 213.155 757.058 224.039 751.48 232.363C744.24 243.166 733.08 248.913 720.61 251.462C710.252 252.437 700.314 249.776 691.884 243.596C683.286 237.294 677.351 227.639 675.863 217.055C674.382 206.519 677.324 194.295 683.797 185.804C690.801 176.616 701.937 170.761 713.257 169.171Z"/>
	<path fill="#231F20" d="M470.408 250.211C475.942 250.061 481.76 250.66 487.092 252.182C500.842 256.107 512.897 266.44 519.689 278.86C526.139 277.827 531.987 276.822 538.512 277.861C548.676 287.317 556.74 295.182 562.241 308.226C573.269 334.377 571.933 370.576 561.4 396.613L555.047 397.898C556.734 414.053 558.613 430.134 559.872 446.337C566.581 447.367 573.283 448.472 579.899 450C590.313 452.404 600.631 455.754 610.756 459.147C657.593 474.839 680.939 493.808 717.119 526.161C723.884 532.21 738.112 543.061 742.607 550.266C741.322 552.654 739.84 554.698 738.192 556.839C750.453 566.762 766.446 583.059 776.566 595.209C781.445 601.068 785.878 607.301 790.585 613.301C790.534 578.44 783.239 541.138 772.761 507.913C769.473 497.485 762.889 484.738 760.796 474.887C763.051 473.542 765.522 472.618 767.941 471.61C766.894 462.985 764.722 454.488 762.893 446.002C760.567 435.217 756.667 409.357 748.55 401.716C743.73 397.179 736 398.175 729.97 398.41C726.787 398.534 722.241 398.836 719.933 396.197C718.827 394.933 718.553 393.184 718.671 391.564C718.967 387.5 722.946 387.8 725.519 385.739C726.338 384.026 725.554 381.543 725.633 379.601C727.32 376.326 730.536 376.621 733.243 374.653C733.366 374.234 733.569 373.499 733.732 373.116C734.64 370.988 737.808 369.97 739.841 369.275C748.342 366.366 758.59 365.935 766.763 369.903C762.551 362.837 754.488 348.45 752.22 340.747C751.467 338.189 750.675 334.133 752.299 331.731C757.109 324.618 770.167 335.951 775.97 336.943C777.084 337.133 778.057 336.74 779.132 336.707C783.031 336.587 798.929 352.634 802.051 356.096C826.049 382.701 826.985 418.969 825.308 452.823C827.934 451.743 830.845 450.255 833.639 449.752C835.277 449.458 836.412 449.535 837.787 450.535C839.837 453.805 838.526 460.45 838.59 464.357C838.881 464.633 839.171 464.91 839.456 465.193C841.955 467.685 843.632 470.241 845.037 473.47C848.191 480.718 849.447 489.523 850.846 497.296C856.578 529.149 858.616 560.725 858.796 593.047C858.97 624.283 852.984 657.548 830.04 680.531C809.017 701.592 781.998 708.924 752.956 709.079C754.988 713.912 757.394 718.403 760.044 722.924C755.84 732.26 750.811 741.252 746.373 750.484C741.961 759.662 738.02 769.838 734.933 779.537C742.82 778.06 751.057 777.554 759.041 776.715C781.1 774.399 810.029 770.75 829.37 784.156C831.756 785.81 834.026 788.144 834.414 791.152C834.915 795.037 832.524 798.724 830.135 801.553C810.227 825.138 742.385 842.199 711.98 844.603C709.478 853.858 696.76 886.96 690.958 893.081C689.972 894.122 688.775 894.172 687.411 894.33C682.056 894.952 676.409 894.813 671.001 895.004L639.757 896.023C604.71 897.032 569.619 897.609 534.586 899.001L534.534 899.858C534.365 903.124 534.062 906.763 531.813 909.355C530.961 910.336 529.737 911.297 528.431 911.514C522.363 912.523 515.187 911.984 509.024 912.068L462.501 912.463L298.223 915.481C290.943 915.662 285.789 913.806 280.517 908.78C280.445 900.499 279.386 891.421 280.154 883.227C283.035 880.165 290.359 880.206 294.311 878.449L294.634 877.544C291.469 876.94 290.197 876.817 287.945 874.364L287.479 873.848C284.033 873.702 281.104 873.324 277.817 872.295C273.606 876.978 270.028 882.02 265.434 886.385C258.296 882.644 251.83 875.775 245.435 870.783C247.227 867.245 249.409 863.843 251.45 860.445C250.956 859.276 250.424 857.608 249.463 856.751C246.39 854.009 236.388 856.909 232.4 857.59C231.055 852.709 225.601 834.775 227.467 830.834C228.272 829.134 238.156 827.465 240.227 826.957C240.766 824.287 241.17 821.582 241.624 818.896C238.706 815.914 235.443 813.183 232.403 810.314C235.129 803.421 242.263 792.167 247.065 786.549C250.794 788.145 256.867 793.094 260.761 792.8C260.995 792.506 261.339 792.273 261.462 791.918C261.961 790.48 260.279 777.744 260.197 775.337C268.484 771.963 278.639 769.847 287.505 769.098C289.271 774.375 290.558 779.861 292.005 785.234L295.992 786.551C299.679 783.012 303.032 778.972 306.481 775.193C313.422 777.929 320.112 784.359 326.403 788.53C325.081 791.814 323.667 795.107 322.536 798.461C321.921 800.285 321.348 801.727 322.24 803.511C325.454 804.932 332.857 801.823 336.553 801.269L337.174 801.181C339.81 807.227 343.1 815.552 344.009 822.09C341.476 825.237 336.528 826.459 332.831 827.861L331.6 835.897C334.101 838.503 339.875 843.371 340.172 847.124C340.633 852.939 325.719 854.02 322.085 858.799C322.329 860.067 322.187 860.174 323.224 860.904C326.957 860.01 331.031 857.339 334.474 855.615C344.151 850.771 353.933 845.213 364.012 841.267C368.085 844.036 370.531 847.333 372.631 851.703C357.487 860.879 338.28 867.481 326.224 880.626C339.001 880.583 351.51 879.029 364.202 877.787C381.443 876.1 398.726 874.55 416.031 873.721C461.432 871.546 507.123 873.344 552.526 874.458C584.009 875.231 615.455 876.314 646.85 878.863C660.615 879.98 674.422 880.788 688.014 883.331C693.044 874.659 696.715 864.517 700.451 855.203C706.089 841.149 711.734 826.956 716.522 812.589C722.318 795.778 727.515 778.831 733.797 762.185C739.296 747.614 745.987 733.227 750.681 718.391C719.028 718.151 687.41 720.034 655.774 720.6L404.992 724.491C405.244 734.883 405.844 745.266 406.073 755.662C420.056 754.176 431.315 755.632 443.874 762.278C444.74 755.371 444.52 748.41 444.521 741.459C460.256 742.368 476.268 741.583 492.035 741.531C515.281 741.455 538.562 741.76 561.8 741.168C561.724 749.181 560.25 756.728 557.724 764.322C551.663 782.543 538.718 799.303 521.238 807.833C505.514 815.508 489.816 815.522 473.527 809.91C472.988 819.459 470.937 828.431 466.169 836.813C458.774 849.814 446.603 859.137 432.18 863.048C418.488 866.761 402.509 864.854 390.237 857.74C376.875 849.994 366.97 838.42 363.026 823.3C359.392 809.367 360.909 793.821 368.292 781.345C375.956 768.394 388.098 760.117 402.514 756.451C402.584 745.969 401.775 735.38 401.477 724.894C378.854 728.447 348.569 723.147 326.506 717.094C310.875 721.176 294.93 724.343 279.193 728.025L238.92 737.153C230.9 738.974 222.951 741.086 214.873 742.645C212.811 737.693 211.382 732.255 209.724 727.145L198.708 692.192C184.732 647.787 172.452 602.678 160.702 557.636C156.635 542.041 153.021 526.338 148.867 510.762L127.261 430.809L121.163 408.043C119.822 403.094 118.097 398.017 117.344 392.943C118.231 392.125 119.205 391.721 120.311 391.274C126.162 388.908 132.651 387.467 138.705 385.612C157.318 379.906 176.086 374.912 194.785 369.512L274.404 346.994C291.794 342.094 309.561 336.533 327.226 332.787C328.836 332.446 330.667 332.257 332.168 333.102C333.436 333.816 334.219 335.156 334.697 336.483C338.082 345.877 340.387 355.863 342.983 365.498L354.924 409.299L382.977 509.548C409.844 488.457 440.953 470.376 473.639 460.072C483.668 456.91 493.768 454.86 503.974 452.554C505.242 452.267 505.779 452.102 506.518 451.03C505.188 449.231 496.149 449.174 493.602 448.364C490.209 447.285 487.577 445.541 484.755 443.458C479.943 443.515 472.129 445.459 467.778 443.237C463.708 441.157 459.907 425.07 458.425 420.547C451.556 423.33 436.996 431.545 430.608 432.104C430.384 431.545 430.124 430.973 430.008 430.379C428.523 422.771 429.625 411.209 429.617 403.184L429.735 368.56C429.767 363.894 429.471 359.144 429.697 354.491C429.772 352.953 430 351.734 430.779 350.405C431.843 350.207 431.701 350.299 432.592 350.751C434.83 356.06 433.986 363.505 434.35 369.225C435.512 387.49 436.866 405.599 437.522 423.911C448.667 419.09 459.784 413.128 471.265 409.219C472.757 408.711 473.455 408.393 474.889 409.107C475.541 410.48 475.507 411.161 475.394 412.625C472.646 415.225 467.455 416.747 463.987 418.196C465.564 425 467.976 431.79 470.014 438.478C483.923 438.621 498 436.649 511.667 434.269C516.672 433.397 523.369 431.217 528.239 431.115C529.878 431.081 530.58 431.553 531.709 432.674C531.825 433.309 532.123 433.805 531.705 434.366C528.88 438.151 514.779 440.272 509.883 441.171C509.766 448.133 510.773 455.308 512.116 462.123C508.288 465.335 505.072 468.557 504.19 473.741C503.303 478.952 505.266 484.486 508.431 488.601C512.926 494.444 520.228 498.102 527.458 499.096C535.787 500.242 545.104 497.315 551.726 492.235C556.695 488.422 560.452 483.067 561.091 476.712C561.762 470.038 558.611 465.549 554.648 460.669C554.354 454.878 554.568 449.059 554.328 443.263C553.899 432.876 552.828 422.481 551.647 412.156C551.042 406.865 550.662 401.381 549.311 396.225C546.211 384.394 540.24 373.286 536.996 361.452L536.757 360.564C538.498 360.063 540.312 359.585 541.9 358.691C545.918 356.43 548.796 352.44 549.939 348.008C550.999 343.899 550.779 339.312 548.544 335.618C547.101 333.234 544.907 331.381 542.145 330.784C539.516 330.215 536.87 330.911 534.683 332.424C528.378 336.789 526.34 344.923 525.216 352.009C521.129 351.658 517.114 351.424 513.011 351.447C507.336 340.471 502.043 328.396 498.236 316.663C498.263 316.601 498.292 316.54 498.318 316.477C501.629 308.413 509.729 297.679 514.692 290.098C516.425 287.451 518.648 284.816 519.769 281.857C518.603 281.733 516.278 285.948 515.415 287.207C501.941 306.88 484.475 326.159 461.807 335.198C445.403 341.74 428.74 340.615 411.66 338.159C407.249 337.524 402.018 337.224 397.922 335.434C397.555 334.691 397.474 334.749 397.42 334.083C397.076 329.814 398.717 324.641 399.606 320.479C403.303 303.161 406.328 291.478 418.143 277.66C431.153 262.443 450.332 251.713 470.408 250.211Z"/>
	<path fill="#FEFEFE" d="M316.067 873.02C318.232 874.791 320.191 877.387 322.354 879.32C321.954 880.053 322.038 879.642 322.209 880.57L322.994 880.548L322.113 880.408L322.967 879.653L323.213 880.132C322.337 880.378 321.578 880.232 320.68 880.164C317.191 879.358 313.903 878.095 310.555 876.84C312.297 875.376 314.139 874.211 316.067 873.02Z"/>
	<path fill="#FEFEFE" d="M749.289 371.15C753.547 370.735 757.882 370.88 761.983 372.195C764.12 372.88 766.744 374.131 767.758 376.278C768.166 377.141 768.303 377.28 767.937 378.186L766.791 378.023C759.328 373.898 754.143 372.294 745.487 372.251C746.408 371.465 748.095 371.399 749.289 371.15Z"/>
	<path fill="#FEFEFE" d="M134.865 393.356C137.213 394.113 138.981 394.884 140.325 397.084C141.014 398.21 141.217 399.449 140.811 400.723C140.308 402.304 139.189 402.945 137.866 403.746C136.425 403.552 134.409 402.79 133.388 401.716C132.434 400.712 131.929 399.697 131.98 398.285C132.059 396.061 133.4 394.826 134.865 393.356Z"/>
	<path fill="#FEFEFE" d="M149.185 389.923C150.62 389.84 151.968 389.74 153.262 390.519C154.774 391.43 155.716 392.943 155.945 394.67C156.188 396.498 155.318 398.322 154.105 399.602C151.554 399.637 150.038 399.577 148.141 397.695C147.078 396.64 146.641 395.498 146.688 394.026C146.751 392.025 147.807 391.156 149.185 389.923Z"/>
	<path fill="#FEFEFE" d="M164.839 385.437C166.846 385.843 168.533 386.178 170.012 387.685C171.063 388.757 171.765 390.007 171.587 391.566C171.35 393.638 170.115 394.648 168.575 395.824C166.911 395.659 165.663 395.414 164.376 394.277C163.048 393.104 162.157 391.64 162.207 389.807C162.264 387.713 163.352 386.667 164.839 385.437Z"/>
	<path fill="#FEFEFE" d="M515.532 892.146L523.859 892.157L524.209 902.543C521.299 902.527 518.394 902.346 515.489 902.197L515.532 892.146Z"/>
	<path fill="#FEFEFE" d="M833.61 454.576L834.504 454.613C835.316 456.003 835.057 458.248 835.07 459.854C828.846 462.496 822.191 464.195 815.744 466.215C799.675 471.248 783.391 475.661 767.422 480.976C766.912 480.308 766.397 479.68 766.051 478.909C765.584 477.867 765.499 477.946 765.916 476.82C773.86 472.978 783.229 470.557 791.632 467.771C805.497 463.174 819.454 458.194 833.61 454.576Z"/>
	<path fill="#FEFEFE" d="M732.483 548.357C732.627 548.433 732.78 548.493 732.914 548.586C733.987 549.328 734.44 549.924 734.708 551.17C732.974 554.468 731.173 557.874 728.876 560.82C724.644 566.25 692.623 602.052 689.874 603.621L685.579 600.521C698.531 584.411 716.447 560.811 732.483 548.357Z"/>
	<path fill="#FEFEFE" d="M324.044 573.553C336.799 581.415 348.891 590.454 361.173 599.027C369.992 605.183 379.217 610.895 387.808 617.353C386.924 618.739 386.029 620.565 384.378 621.078C370.587 612.349 356.612 603.929 342.942 595.002C335.066 589.86 327.751 583.843 319.492 579.306C320.878 577.305 322.509 575.442 324.044 573.553Z"/>
	<path fill="#FEFEFE" d="M315.305 350.059C316.526 349.892 316.922 349.778 318.057 350.207C318.65 351.42 319.065 351.707 318.761 353.093C317.622 354.113 316.534 354.557 315.082 355.022C311 356.331 306.622 356.956 302.458 358.04L270.343 366.458L189.956 387.903C188.914 388.086 188.339 388.149 187.328 387.812C186.362 386.772 186.091 386.672 185.936 385.287C186.398 384.651 186.711 384.432 187.458 384.159C193.405 381.99 199.854 380.654 205.969 378.985C217.958 375.713 229.938 372.44 241.975 369.352L315.305 350.059Z"/>
	<path fill="#FEFEFE" d="M301.908 887.753C313.388 887.497 325.603 887.109 337.039 887.963C337.355 894.316 337.375 900.668 337.204 907.024L323.625 906.968C312.563 906.889 297.876 909.051 287.523 905.911C287.378 900.045 287.475 894.154 287.478 888.286C292.236 887.825 297.126 887.895 301.908 887.753Z"/>
	<path fill="#FEFEFE" d="M575.306 455.291C577.706 455.896 580.088 456.601 582.474 457.261C582.753 472.441 580.305 485.616 570.763 497.895C561.453 509.875 548.069 517.337 533.019 519.086C519.549 520.652 505.115 516.914 494.527 508.337C485.214 500.793 479.499 491.036 478.186 479.121C477.761 475.007 478.215 470.824 478.84 466.756C480.681 465.985 482.601 465.36 484.481 464.684C484.365 468.06 484.295 471.391 484.708 474.751C486.035 485.535 491.652 495.431 500.244 502.112C509.762 509.515 522.355 512.623 534.261 511.13C547.572 509.461 558.406 503.431 566.578 492.771C575.181 481.549 577.129 469.093 575.306 455.291Z"/>
	<path fill="#FEFEFE" d="M410.413 595.42C412.285 598.392 409.035 630.253 408.307 635.737C400.236 638.148 387.503 639.314 380.511 642.838C379.833 643.888 379.615 643.805 379.778 645.113C382.663 646.83 401.622 640.829 406.594 640.26C406.418 642.535 406.14 644.809 405.903 647.079C397.273 646.811 389.268 647.83 380.75 649.011C375.999 649.692 361.757 652.426 357.926 650.104C357.181 649.653 356.797 649.344 356.636 648.485C355.396 641.878 367.808 624.877 371.696 619.093C375.92 621.576 382.816 627.429 387.796 626.382C396.927 620.571 404.766 604.8 410.413 595.42Z"/>
	<path fill="#FEFEFE" d="M280.559 804.595C286.16 804.374 291.041 804.529 296.105 807.362C302.051 810.689 306.658 816.569 308.441 823.147C310.248 829.814 308.837 836.532 305.219 842.343C301.151 848.875 295.4 852.745 287.987 854.414C282.165 855.533 276.228 855.123 270.923 852.283C265.263 849.253 260.832 843.91 259.054 837.726C257.099 830.926 258.118 823.086 261.79 817.033C266.206 809.752 272.678 806.666 280.559 804.595Z"/>
	<path fill="#231F20" d="M279.997 808.588C284.855 808.386 289.108 808.199 293.638 810.342C298.756 812.765 302.567 817.251 304.278 822.637C306.058 828.24 305.445 834.095 302.676 839.266C299.224 845.71 293.7 848.913 286.896 850.844C281.933 851.862 277.234 851.522 272.67 849.147C267.545 846.479 263.857 841.584 262.368 836.033C260.786 830.139 261.947 823.502 265.204 818.366C268.73 812.804 273.746 810.03 279.997 808.588Z"/>
	<path fill="#FEFEFE" d="M654.757 584.621C662.324 588.54 683.603 609.514 689.986 609.439C692.049 609.415 693.795 606.93 695.046 605.499C708.664 617.228 722.415 628.747 736.522 639.886C718.383 643.839 692.375 645.947 674.026 642.589C668.846 642.622 663.545 642.16 658.364 641.923C657.48 640.927 657.347 638.841 657.072 637.499C670.95 640.577 685.944 641.152 700.157 641.107C704.735 641.093 717.563 641.771 720.63 638.662L720.619 637.673C719.696 636.765 719.182 636.359 717.839 636.304C712.367 636.078 706.342 637.199 700.752 637.285C686.255 637.508 671.266 636.43 656.986 633.883C654.356 617.83 654.047 600.836 654.757 584.621Z"/>
	<path fill="#FEFEFE" d="M453.426 876.241C483.756 875.413 514.226 876.773 544.543 877.68C580.861 878.768 616.984 879.644 653.212 882.618C661.017 883.259 679.372 884.23 685.823 886.707C683.491 888.553 596.102 890.552 586.625 891.017L534.664 891.896C534.232 889.952 533.815 888.106 532.59 886.486C530.708 883.999 527.212 883.629 524.339 883.314C511.48 881.907 495.021 883.352 481.817 883.481C452.041 883.772 422.259 883.943 392.482 883.548C379.393 883.375 365.543 883.938 352.553 882.54C362.233 880.922 372.162 880.352 381.937 879.545C405.812 877.573 429.485 876.695 453.426 876.241Z"/>
	<path fill="#FEFEFE" d="M784.777 782.206C798.484 781.605 811.14 781.504 823.889 787.541C825.576 788.34 827.519 789.509 827.985 791.466C828.284 792.72 827.855 794.062 827.236 795.151C816.779 813.55 771.712 825.045 751.613 830.023C739.241 832.673 726.936 835.077 714.356 836.526C716.575 829.198 719.644 822.217 722.352 815.068C725.94 805.599 729.195 795.976 732.557 786.423C749.975 785.102 767.33 783.323 784.777 782.206Z"/>
	<path fill="#231F20" d="M789.074 800.087C790.143 800.625 790.365 800.488 790.876 801.631L790.138 803.025C784.133 807.162 763.981 812.894 756.139 815.186C755.503 814.711 755.099 814.129 754.606 813.512C754.56 812.863 754.32 812.268 754.775 811.732C756.098 810.174 785.053 800.945 789.074 800.087Z"/>
	<path fill="#231F20" d="M793.587 787.191L794.478 788.102C794.772 789.291 794.814 789.391 794.38 790.527C790.315 793.36 765.247 797.777 758.655 798.728C758.451 798.464 758.189 798.236 758.043 797.937C757.496 796.822 757.764 796.087 758.184 795.057C760.594 793.588 788.79 788.016 793.587 787.191Z"/>
	<path fill="#FEFEFE" d="M757.164 334.012C759.594 334.6 761.431 335.625 763.379 337.192C770 342.519 786.235 360.268 790.312 367.659C792.755 372.09 791.764 378.77 796.043 381.908L797.817 381.489C798.153 380.82 798.263 379.685 798.296 378.921C798.942 363.818 784.446 351.59 774.908 341.654C783.018 345.31 789.142 351.796 795.047 358.278C799.927 363.636 803.967 369.618 806.995 376.21C815.981 395.774 822.257 432.54 821.289 454.062C804.614 458.476 787.955 464.533 771.772 470.488C769.869 458.225 767.114 446.009 764.547 433.87C762.615 424.735 761.229 414.255 757.399 405.746C755.468 401.459 753.071 398.404 749.449 395.422C743.456 392.61 737.488 393.762 731.115 393.695C729.032 393.673 726.36 393.809 724.841 392.241C725.649 391.272 726.113 391.061 727.265 390.597C731.15 389.032 735.748 388.159 739.928 388.017C759.105 387.367 758.419 402.706 766.216 405.332C767.062 405.617 767.144 405.304 767.831 404.883C768.173 404.043 768.247 403.395 768.184 402.502C767.831 397.457 762.363 391.92 758.649 388.823C750.798 382.275 741.599 382.079 731.92 382.914C730.868 382.371 730.849 382.426 730.418 381.335C730.484 381.207 730.532 381.07 730.615 380.953C732.368 378.478 740.635 376.983 743.529 376.504C753.922 374.785 761.006 379.027 769.119 384.752C770.171 387.311 771.668 392.219 774.33 393.462C775.453 393.986 776.041 393.654 777.097 393.263L777.544 392.253C777.27 390.314 776.125 388.59 775.094 386.947C774.579 386.126 773.899 385.243 773.709 384.271C773.441 382.898 773.684 381.414 773.578 380.023C773.338 376.879 772.409 373.753 771.358 370.793C767.624 360.269 761.694 350.872 756.929 340.825C768.508 349.307 778.442 362.279 781.138 376.54C781.956 380.866 782.342 387.052 784.407 390.868C785.762 390.912 786.021 390.966 787.178 390.299C788.33 388.443 788.175 386.644 787.921 384.548C785.152 361.736 774.853 348.058 757.164 334.012Z"/>
	<path fill="#FEFEFE" d="M536.886 744.735C544.032 744.691 551.166 744.673 558.31 744.85C557.832 751.628 556.405 758.313 554.1 764.705C547.81 782.143 535.346 797.727 518.258 805.545C503.188 812.441 488.138 811.802 472.885 806.074C470.387 786.926 462.606 776.054 447.739 764.439C448.265 758.149 448.02 751.827 447.919 745.524C477.549 745.682 507.257 745.183 536.886 744.735Z"/>
	<path fill="#FEFEFE" d="M410.7 764.657C421.556 763.999 432.341 766.384 441.483 772.432C451.921 779.337 459.938 790.026 462.319 802.422C464.504 813.793 461.876 825.884 455.365 835.434C448.459 845.562 437.805 852.203 425.776 854.393C411.847 856.928 399.873 853.127 388.48 845.167C382.326 839.976 377.324 833.623 374.255 826.152C369.619 814.864 369.3 802.3 374.172 791.025C379.58 778.51 389.626 771.288 401.967 766.409C402.43 771.509 402.395 776.656 402.793 781.77C403.237 787.485 404.131 793.273 404.442 798.973C404.594 801.762 404.007 805.429 404.866 808.072C405.29 809.375 405.712 809.445 406.848 810.106L407.795 809.734C410.3 804.449 404.464 774.906 405.749 765.976C407.086 764.953 409.062 764.896 410.7 764.657Z"/>
	<path fill="#FEFEFE" d="M337.443 361.13C338.088 361.667 338.268 362.004 338.546 362.803C340.712 369.034 342.033 375.789 343.738 382.18L352.445 414.049C358.27 435.809 364.632 457.455 370.707 479.149C373.79 490.16 376.487 501.308 379.673 512.28C361.617 527.58 344.154 542.657 327.632 559.638C324.529 562.826 320.188 566.417 318.148 570.346C318.354 570.733 319.027 571.897 318.99 572.241C318.812 573.872 315.033 576.482 314.757 579.807C315.722 583.066 318.802 584.561 321.467 586.348C306.177 601.671 291.742 616.615 281.88 636.164C268.893 638.12 255.829 642.845 243.049 646.009C236.927 647.524 222.596 649.708 217.761 652.113C217.481 653.32 217.458 653.254 218.074 654.326C219.297 654.822 220.286 654.799 221.566 654.603C226.364 653.871 231.449 652.268 236.211 651.14C250.883 647.663 265.464 643.733 280.057 639.938C278.634 644.472 277.488 649.051 276.351 653.662C262.251 657.168 248.016 660.972 234.039 664.945C231.271 665.731 228.405 665.974 225.657 666.846C224.378 667.252 222.983 667.815 222.002 668.76C221.17 669.562 221.158 669.766 221.1 670.851L222.003 671.344C226.662 671.5 268.339 659.262 275.743 657.012C275.502 662.01 275.732 666.997 276.754 671.906C280.033 687.647 290.131 698.663 303.248 707.198C308.868 710.424 314.668 713.009 320.688 715.38C302.192 718.584 283.716 723.407 265.394 727.564C249.523 731.165 233.116 734.098 217.555 738.82C211.975 725.393 208.188 710.625 203.882 696.726C194.236 665.591 185.263 634.427 176.675 602.988L149.871 501.097C142.33 473.054 133.939 445.187 127.436 416.878C158.433 406.55 190.431 398.875 222.056 390.751L337.443 361.13Z"/>
	<path fill="#231F20" d="M196.111 580.851L198.522 580.891C201.026 582.424 201.924 589.824 202.644 592.668C201.705 592.789 200.967 592.691 200.037 592.533C197.002 590.233 196.716 584.448 196.111 580.851Z"/>
	<path fill="#231F20" d="M305.745 542.554C306.392 542.495 307.051 542.606 307.698 542.665C308.235 543.773 308.302 543.747 307.982 544.922C304.894 547.645 290.071 550.953 285.22 552.459C284.124 552.503 283.988 552.423 283.061 551.939C282.695 550.824 282.753 550.838 283.202 549.741C286.837 546.35 300.376 543.963 305.745 542.554Z"/>
	<path fill="#231F20" d="M250.556 415.075L251.238 415.089C252.491 415.86 252.374 416.108 252.822 417.538C249.966 419.992 231.047 424.387 225.817 425.989L224.612 425.879C224.117 424.728 224.11 424.713 224.431 423.503C226.841 421.168 246.155 416.134 250.556 415.075Z"/>
	<path fill="#231F20" d="M206.261 479.508L207.489 479.619C208.491 480.301 208.684 480.336 209.099 481.454C207.024 484.174 182.333 489.901 177.204 491.491C176.054 491.452 175.507 490.944 174.734 490.213L174.815 489.372C178.688 486.151 200.037 481.398 206.261 479.508Z"/>
	<path fill="#231F20" d="M209.053 426.099C209.119 426.148 209.195 426.188 209.252 426.248C210.037 427.075 210.28 427.604 210.358 428.724C205.845 431.625 163.448 442.382 154.141 444.971C153.128 443.987 152.76 444.092 152.737 442.613C155.032 440.18 201.842 428.022 209.053 426.099Z"/>
	<path fill="#231F20" d="M325.307 397.553L326.25 397.483C327.362 398.076 327.409 398.177 327.995 399.301L327.684 400.031C319.788 403.575 309.773 405.15 301.386 407.215C291.423 409.669 281.531 412.541 271.63 415.239L270.249 415.54C269.067 415.023 269.295 415.053 268.755 413.998L269.128 413.064C273.223 409.512 316.714 399.761 325.307 397.553Z"/>
	<path fill="#231F20" d="M340.639 515.585C340.88 515.551 341.119 515.51 341.36 515.485C342.999 515.312 343.669 515.485 344.932 516.542L344.794 517.48C343.698 518.423 342.59 518.854 341.24 519.312C335.479 521.264 329.119 522.38 323.206 523.962C308.932 527.78 294.659 531.641 280.456 535.716L277.485 536.362C276.333 535.935 276.408 535.831 275.822 534.727L276.146 533.794C277.354 532.732 278.526 532.249 280.048 531.741C286.336 529.641 293.279 528.426 299.724 526.672C313.351 522.965 326.922 518.941 340.639 515.585Z"/>
	<path fill="#231F20" d="M307.629 416.07C308.855 416.117 308.958 415.843 309.838 416.789C309.767 417.209 309.732 417.558 309.547 417.959C309.277 418.544 308.705 418.938 308.179 419.274C305.627 420.905 292.77 423.649 288.998 424.695L195.385 449.713C183.631 452.816 171.966 456.809 160.112 459.439C159.493 459.376 158.869 459.05 158.288 458.827C158.05 458.109 157.858 458.142 158.234 457.575C158.905 456.562 160.131 456.038 161.231 455.633C164.379 454.476 167.828 453.788 171.054 452.814C185.9 448.335 201.004 444.835 215.983 440.846C246.557 432.703 276.984 423.935 307.629 416.07Z"/>
	<path fill="#231F20" d="M320.218 384.067L321.033 384.451C321.581 385.528 321.61 385.436 321.244 386.58C319.786 387.711 318.067 388.186 316.309 388.671C284.712 397.388 252.723 404.969 221.055 413.527C197.465 419.901 173.952 427.601 150.115 432.909C149.053 432.302 149.003 432.352 148.593 431.213L149.16 430.167C153.482 427.319 176.416 422.232 182.694 420.501C228.445 407.889 274.308 396.072 320.218 384.067Z"/>
	<path fill="#231F20" d="M207.594 576.356C208.195 576.371 209.147 576.32 209.752 576.482C211.05 576.83 211.655 577.449 212.333 578.556C215.586 583.864 217.601 590.782 219.828 596.59C223.487 606.131 227.189 615.584 231.719 624.756C233.7 618.968 236.721 609.712 240.355 604.865C241.351 603.537 242.046 603.441 243.569 603.297C248.504 605.141 253.247 612.231 256.854 616.076C259.42 607.803 263.562 599.301 267.676 591.681C270.939 592.714 274.159 593.932 277.386 595.073C281.073 592.115 290.897 581.235 293.69 580.221C295.08 579.715 295.327 579.845 296.579 580.43C297.982 582.41 298.21 584.468 298.137 586.864C298.091 588.402 297.956 589.564 296.804 590.619L296.017 590.201C294.809 588.497 294.525 586.482 294.061 584.48C289.03 589.998 283.532 595.153 278.217 600.401C275.397 598.719 272.592 597.065 269.432 596.119C267.877 599.31 266.469 602.592 264.999 605.824C263.072 609.871 260.862 619 257.375 621.466C254.501 621.14 246.349 609.921 244.046 607.243C239.136 614.052 237.52 621.448 234.716 629.178C234.244 630.478 233.756 632.194 232.489 632.8C228.087 629.765 217.309 599.717 214.764 593.187C213.657 590.345 211.182 582.056 208.564 580.906C205.433 589.753 217.573 627.256 215.423 631.191C214.172 631.048 213.83 630.668 213.094 629.707C210.468 626.276 203.49 585.301 204.462 580.364C204.872 578.285 205.91 577.497 207.594 576.356Z"/>
	<path fill="#231F20" d="M330.118 431.575C330.673 431.529 331.196 431.517 331.752 431.565C333.224 431.691 333.96 431.879 334.922 433.117C336.049 434.566 336.834 436.423 337.449 438.146C340.081 445.521 341.706 453.283 344.025 460.762C345.905 466.826 348.609 472.949 349.861 479.167C350.279 481.243 350.412 483.034 350.073 485.126C348.643 486.884 346.241 487.914 344.171 488.715C336.163 491.814 327.375 493.862 319.127 496.381C295.583 503.574 271.879 510.113 248.113 516.526C247.025 516.419 246.147 516.293 245.319 515.506C244.139 514.385 243.325 512.79 242.704 511.309C239.929 504.701 228.024 465.386 227.952 459.665C228.996 458.764 230.361 458.308 231.66 457.894C237.504 456.031 243.623 454.704 249.557 453.131L281.89 444.544C297.994 440.372 313.989 435.594 330.118 431.575Z"/>
	<path fill="#FEFEFE" d="M266.944 465.28C276.758 467.641 286.494 470.967 296.218 473.721C293.276 477.122 289.786 480.185 286.558 483.322C282.841 486.866 279.188 490.389 275.095 493.507C271.547 484.482 269.999 474.529 266.944 465.28Z"/>
	<path fill="#FEFEFE" d="M585.026 457.84C604.2 463.487 623.217 469.421 641.241 478.187C674.195 494.213 702.434 520.078 729.088 544.753C711.706 560.908 696.512 579.238 681.679 597.701C660.029 583.398 639.543 567.224 617.85 552.989C616.301 551.973 615.021 551.01 613.124 551.402C612.221 552.543 612.146 552.827 611.911 554.273C612.154 555.408 612.68 555.99 613.561 556.696C616.846 559.33 620.915 561.489 624.431 563.88L651.18 582.175C651.467 588.531 650.486 594.991 650.457 601.371C650.414 610.935 651.421 620.76 652.475 630.26C654.454 648.097 657.584 665.738 659.936 683.52C661.144 692.648 662.456 701.925 662.531 711.144C654.444 711.876 645.914 711.422 637.782 711.501L590.063 712.083C572.915 712.316 555.78 713.114 538.632 713.392C505.138 713.935 471.574 714.037 438.096 715.036C427.276 715.006 416.716 715.085 405.937 716.092C412.461 680.311 416.493 649.992 417.159 613.497C417.327 604.308 417.696 595.037 417.133 585.86C419.871 580.574 428.09 571.305 426.855 565.167C426.115 564.564 426.219 564.341 425.302 564.6C424.22 564.906 422.962 565.91 422.258 566.773C420.166 569.339 418.719 572.711 416.903 575.514C408.598 588.324 401.37 601.907 392.782 614.495C378.529 605.348 364.648 595.626 350.741 585.967C342.393 580.168 333.921 573.7 324.952 568.912C335.227 556.756 347.122 545.929 359.087 535.47C392.309 506.43 431.312 478.227 474.596 466.885C474.159 471.958 473.872 477.078 474.55 482.144C476.098 493.697 483.105 504.877 492.334 511.887C504.365 521.027 521.199 524.27 535.981 522.097C551.198 519.861 565.88 510.804 574.907 498.369C583.416 486.648 587.291 472.205 585.026 457.84Z"/>
</svg>
