<?xml version="1.0" encoding="utf-8" ?>
<svg xmlns="http://www.w3.org/2000/svg" xmlns:xlink="http://www.w3.org/1999/xlink" width="1383" height="1383">
	<path fill="#242324" transform="matrix(1.35059 0 0 1.35059 -0.000488281 0)" d="M769.515 276.717C772.866 276.677 775.089 276.89 778.129 278.325L778.381 279.136C778.289 279.267 778.212 279.41 778.106 279.531C773.995 284.19 746.639 282.693 739.378 283.301C736.577 283.087 733.521 283.5 730.917 282.218C729.937 281.736 729.91 281.774 729.542 280.698C729.628 280.561 729.697 280.409 729.802 280.286C733.124 276.391 762.517 277.346 769.515 276.717Z"/>
	<path fill="#242324" transform="matrix(1.35059 0 0 1.35059 -0.000488281 0)" d="M269.958 283.273C271.337 284.029 271.903 284.11 272.59 285.562C271.372 292.493 245.643 317.253 239.304 323.417C238.273 323.542 238.109 323.477 237.152 323.054L236.919 321.988C239.261 313.574 262.664 290.589 269.958 283.273Z"/>
	<path fill="#242324" transform="matrix(1.35059 0 0 1.35059 -0.000488281 0)" d="M253.91 261.346C254.152 261.524 254.424 261.667 254.637 261.88C255.166 262.406 255.643 263.108 255.584 263.866C255.04 270.891 227.256 297.496 220.803 304.118C220.285 304.301 220.621 304.248 219.798 303.933C219.374 303.121 219.107 302.905 219.184 301.953C219.669 295.963 248.029 266.625 253.91 261.346Z"/>
	<path fill="#242324" transform="matrix(1.35059 0 0 1.35059 -0.000488281 0)" d="M739.268 255.742C743.75 255.723 753.987 254.054 757.483 256.613C758.36 257.256 758.082 256.906 758.306 258.035C753.534 262.301 710.737 261.989 701.362 262.173C696.967 262.436 690.678 263.459 686.402 262.318C685.124 261.977 684.41 261.428 683.824 260.271L684.582 259.399C694.913 255.276 726.747 256.372 739.268 255.742Z"/>
	<path fill="#242324" transform="matrix(1.35059 0 0 1.35059 -0.000488281 0)" d="M771.974 591.004C774.301 590.779 776.874 591.129 779.056 591.97C781.965 593.091 784.397 595.338 785.543 598.259C786.676 601.147 786.581 604.324 785.282 607.142C783.44 611.139 780.391 612.902 776.466 614.482C774.543 614.69 772.27 614.691 770.401 614.167C767.188 613.267 764.248 611.293 762.762 608.243C761.468 605.587 761.416 602.342 762.443 599.589C764.213 594.845 767.709 593.048 771.974 591.004ZM771.663 595.329C769.127 597.282 767.117 598.927 766.694 602.3C766.473 604.059 766.785 605.801 767.882 607.227C769.069 608.77 771.179 609.685 773.073 609.919C774.26 610.066 775.493 609.896 776.675 609.757C778.924 608.193 780.751 606.842 781.317 604.02C781.658 602.319 781.404 600.525 780.433 599.071C779.199 597.226 777.027 595.919 774.859 595.522C773.814 595.331 772.723 595.336 771.663 595.329Z"/>
	<path fill="#242324" transform="matrix(1.35059 0 0 1.35059 -0.000488281 0)" d="M249.753 551.689C251.782 551.455 253.967 551.277 255.985 551.673C259.342 552.332 262.64 554.534 264.466 557.431C266.102 560.025 266.615 563.18 265.878 566.157C264.745 570.733 261.591 573.221 257.769 575.527C255.863 575.913 253.965 576.285 252.011 576.084C248.744 575.749 245.578 574.085 243.656 571.393C241.659 568.596 241 564.891 241.73 561.551C242.776 556.76 245.855 554.193 249.753 551.689ZM252.323 555.339C249.25 557.457 246.825 559.494 246.195 563.36C245.883 565.272 246.138 567.109 247.347 568.676C248.645 570.358 251.419 571.441 253.499 571.598C254.149 571.647 254.8 571.586 255.447 571.54C258.022 569.498 260.795 567.319 261.248 563.815C261.46 562.172 260.945 560.676 259.929 559.395C258.047 557.019 255.084 556.242 252.323 555.339Z"/>
	<path fill="#242324" transform="matrix(1.35059 0 0 1.35059 -0.000488281 0)" d="M778.002 182.227C789.81 181.929 801.154 183.153 811.272 189.714C820.997 196.021 827.536 206.146 829.887 217.469C832.704 231.038 832.139 246.06 832.727 259.876L835.852 323.752L842.509 453.925C843.894 479.312 846.256 504.704 846.592 530.138C846.634 533.287 846.214 536.89 844.467 539.573L843.636 539.739C839.362 534.132 840.842 511.674 840.646 504.231C839.983 479.072 838.087 453.897 836.749 428.762L830.823 311.866L828.002 257.249C827.475 244.977 827.946 232.069 825.58 219.981C823.891 211.35 819.971 203.423 813.494 197.377C806.035 190.415 796.473 187.249 786.453 186.435C767.856 184.924 748.649 187.442 730.044 188.206L629.087 191.679L277.125 202.445C261.308 203.225 245.501 203.369 229.673 203.668C216.92 203.909 202.68 203.07 190.33 206.59C184.94 208.126 180.123 211.076 176.054 214.904C171.335 219.342 166.772 225.8 165.433 232.236C161.983 248.824 165.724 278.631 166.86 296.534L174.859 435.471C175.376 444.558 175.921 453.632 176.75 462.697C177.569 471.666 178.938 481.137 178.447 490.151C178.35 491.926 177.907 493.498 176.529 494.688L175.673 494.332C174.586 492.343 174.24 490.22 173.938 488C172.609 478.234 172.216 468.273 171.565 458.44L168.531 410.995C165.41 361.035 162.505 310.944 160.611 260.925C159.975 244.126 158.852 226.388 171.248 213.22C178.17 205.866 187.215 202.067 197.089 200.635C205.76 199.377 214.619 199.448 223.367 199.208L259.403 198.196L380.435 194.759L778.002 182.227Z"/>
	<path fill="#242324" transform="matrix(1.35059 0 0 1.35059 -0.000488281 0)" d="M515.081 275.226C552.612 274.588 591.927 286.214 624.471 304.62C677.571 334.651 716.778 386.024 732.965 444.77C748.364 500.659 741.152 566.406 712.358 617.006C722.078 628.981 729.975 642.857 735.558 657.229C746.021 684.165 747.149 707.464 735.44 734.01C747.737 734.586 760.255 734.095 772.577 734.096C799.838 734.098 827.113 733.924 854.371 734.262C852.854 723.92 852.532 712.937 851.826 702.501C850.289 679.806 849.202 657.077 847.982 634.364C847.463 624.689 846.928 615.038 846.17 605.379C845.593 598.033 844.47 590.254 844.853 582.914C844.95 581.052 845.097 577.882 846.574 576.575L847.476 577.214C849.681 581.546 849.935 586.322 850.332 591.076C853.601 630.186 854.077 669.604 856.875 708.779C857.94 723.695 859.284 738.532 860.833 753.403C862.176 766.304 863.875 779.298 863.97 792.283C864.053 803.684 860.659 814.092 852.51 822.297C846.405 828.443 838.404 832.338 829.849 833.568C816.273 835.521 801.901 834.472 788.198 834.436L721.787 834.411L480.75 834.449L319.401 834.408L270.158 834.431C255.181 834.458 233.872 836.372 219.856 831.91C210.851 829.044 203.38 822.757 199.146 814.301C196.138 808.292 194.996 801.789 194.273 795.164C192.733 781.05 192.529 766.709 191.706 752.534L187.33 685.57L180.758 589.163C179.34 569.815 177.488 550.506 176.476 531.128C176.28 527.381 175.577 521.709 176.968 518.192C177.347 517.232 177.106 517.561 178.133 517.143C178.339 517.275 178.576 517.369 178.752 517.539C180.351 519.085 180.831 521.939 181.105 524.032C181.698 528.557 181.449 533.21 181.734 537.766L184.208 574.084L191.38 673.91C192.716 693.759 193.5 713.673 195.33 733.484C226.59 732.898 257.922 733.771 289.181 734.26C284.915 726.623 282.778 719.203 281.842 710.5C277.819 673.109 288.928 638.571 312.452 609.585C299.296 581.49 291.442 550.07 289.65 519.108C286.006 456.134 309.238 395.456 351.016 348.728C383.102 312.841 428.638 288.392 475.776 279.422C488.853 276.933 501.819 275.971 515.081 275.226ZM513.348 280.214C499.671 281.046 485.889 282.346 472.461 285.159C427.363 294.605 383.588 318.69 352.964 353.349C312.67 398.951 290.709 458.961 294.74 519.959C296.377 544.732 303.52 583.585 315.975 605.009C325.938 593.89 336.504 582.505 349.023 574.211C361.491 565.952 366.253 567.667 377.819 555.383C375.48 554.268 372.231 553.019 371.453 550.271C371.103 549.035 371.529 547.832 372.267 546.838C375.548 542.415 382.575 540.554 387.577 538.914C384.844 531.205 381.975 523.494 379.834 515.593C377.477 506.895 375.858 497.692 372.541 489.303C368.926 480.158 363.04 471.706 358.589 462.944C356.418 458.669 350.948 447.807 352.655 442.998C353.035 441.929 353.824 441.361 354.934 441.218C357.831 440.847 360.819 443.565 362.642 445.455C367.435 450.425 370.999 456.976 374.693 462.782C371.881 454.067 363.914 426.283 367.841 418.218C368.152 417.58 368.575 417.178 369.118 416.741C370.761 416.395 371.961 416.655 373.377 417.591C383.053 423.991 387.036 445.729 390.451 456.146C392.136 461.286 394.93 466.638 395.84 471.942C395.946 472.559 395.908 472.988 395.72 473.579C394.635 473.838 393.926 473.736 392.987 473.04C385.222 467.28 383.294 432.255 370.188 419.44C371.562 430.411 373.737 441.347 375.85 452.196C376.805 457.101 378.179 462.115 378.74 467.073C381.623 470.018 384.663 472.752 386.065 476.732L385.634 477.306C374.31 473.649 367.045 453.37 356.943 446.462C356.73 446.316 356.521 446.163 356.307 446.017C356.179 445.929 356.048 445.845 355.919 445.76C358.149 458.878 367.737 471.001 373.511 482.833C378.081 492.198 379.89 502.605 382.745 512.551C385.287 521.406 388.545 530.293 390.125 539.376C390.626 542.258 390.538 545.063 390.479 547.973C399.195 550.66 407.938 552.811 416.822 554.849C417.121 550.601 417.3 546.363 418.691 542.297C420.13 538.088 422.731 534.761 425.359 531.253C434.301 519.316 434.091 509.853 431.699 495.642C430.925 491.043 430.15 485.126 427.012 481.478C426.129 480.452 425.354 479.96 423.994 479.786C422.665 480.701 422.228 481.627 421.91 483.211C421.457 485.466 421.775 487.554 422.115 489.787C416.105 483.198 413.365 476.508 410.087 468.324C412.175 470.069 414.241 471.855 416.375 473.541C418.124 466.628 420.721 460.068 422.677 453.237C421.318 451.942 419.894 450.81 419.223 449.008C419.277 447.743 419.329 447.051 420.251 446.102C424.719 441.498 429.993 443.294 430.518 435.209C430.662 432.995 430.438 430.003 428.679 428.407C427.731 427.547 426.617 427.392 425.385 427.486C421.961 427.746 416.372 431.821 414.347 434.576C410.757 439.464 412.993 447.573 412.093 453.39C411.475 457.386 416.072 459.381 415.073 463.529C414.072 464.124 413.695 464.361 412.48 463.908C406.2 461.564 396.665 428.59 393.913 420.919C393.771 422.745 394.075 424.332 394.415 426.124C396.419 435.772 397.638 445.538 399.506 455.204C400.398 459.815 401.967 464.331 402.826 468.89C403.068 470.173 402.978 470.849 402.408 472.001C401.256 471.832 401.235 471.77 400.545 470.879C395.21 463.991 393.523 435.582 391.659 425.41C391.202 422.919 390.873 419.8 389.922 417.458C388.843 414.801 385.892 412.827 385.385 409.993C385.859 408.822 385.915 408.85 387.03 408.231C388.676 408.132 389.629 408.653 390.798 409.741C398.728 417.128 403.546 437.872 407.459 448.382C407.536 441.759 407.923 434.368 412.862 429.344C417.77 424.351 424.838 424.025 431.377 423.498C437.239 389.655 438.39 349.359 469.407 327.395C491.638 311.652 521.648 314.348 547.16 318.823C554.084 320.037 560.949 321.596 567.767 323.306C582.951 327.113 598.572 331.745 612.59 322.004C613.214 321.571 613.823 321.121 614.431 320.667C614.46 332.653 613.001 343.092 608.86 354.352C620.395 349.465 627.395 344.332 636.521 335.935C635.482 351.927 632.318 369.238 619.773 380.41C615.842 383.912 611.356 386.208 606.596 388.366C609.452 400.252 610.817 412.059 610.222 424.313C617.463 425.415 623.408 427.905 627.87 434.029C632.647 440.584 634.291 449.632 632.831 457.54C631.431 465.127 627.076 472.198 620.602 476.481C615.421 479.91 609.749 480.893 603.701 481.469C596.413 505.191 587.967 517.642 568.862 533.372C573.679 538.625 575.574 544.998 576.758 551.87C587.596 552.549 598.342 554.853 608.879 557.388C647.063 566.574 682.864 583.883 709.435 613.458C736.901 561.947 744.652 498.705 727.611 442.511C710.13 384.87 671.613 335.238 618.285 306.781C586.432 289.783 549.627 279.171 513.348 280.214ZM195.611 738.469C196.304 757.584 195.312 789.378 201.277 807.004C202.974 812.017 205.732 816.783 209.606 820.431C215.57 826.047 223.847 828.641 231.865 829.271C241.59 830.035 251.633 829.536 261.386 829.479L309.062 829.359L468.948 829.349L709.369 829.384L778.212 829.445C793.217 829.491 808.241 829.798 823.242 829.303C833.15 828.975 843.441 825.597 850.274 818.123C858.086 809.577 859.429 798.044 858.831 786.92C858.364 778.226 857.28 769.554 856.64 760.869C855.972 753.515 855.007 746.041 854.837 738.664L731.607 739.013C722.66 744.78 713.69 748.955 703.163 751.029C684.266 754.75 664.168 754.883 644.96 755.265L581.416 756.051C570.843 756.147 554.278 757.848 544.147 755.861C541.218 755.287 539.507 752.928 537.571 750.851C532.525 749.961 527.21 749.517 522.139 750.491C519.716 750.956 517.416 752.062 515.166 753.044C510.771 754.961 506.389 756.948 501.752 758.215C492.006 760.877 481.224 762.044 471.957 766.061C465.01 769.073 459.079 774.301 451.797 776.576C449.069 777.428 443.549 778.542 441.305 776.055C440.301 774.942 440.262 773.322 440.526 771.929C441.348 767.599 443.829 765.235 446.895 762.392C442.477 764.453 434.299 769.44 429.459 767.414C428.204 766.889 427.522 766.326 427.019 765.042C426.703 764.236 426.548 763.292 426.364 762.445C423.999 761.909 420.444 761.451 418.985 759.309C419.092 756.381 423.167 754.559 423.768 751.483C424.518 747.638 420.056 749.011 422.581 743.017C421.782 741.867 421.016 741.724 419.685 741.453C413.174 740.124 374.8 739.451 368.039 741.095C364.788 741.885 361.595 743.568 358.515 744.881C351.409 747.913 344.69 748.583 337.026 748.497C327.031 748.385 316.177 747.464 306.669 744.204C301.895 742.566 297.698 739.555 292.564 739.083C283.261 738.229 273.709 738.965 264.375 738.855L195.611 738.469ZM576.701 555.797C573.677 567.786 568.65 577.342 557.765 583.851C546.167 590.786 531.878 593.32 518.52 593.174C517.029 635.112 521.27 677.194 525.609 718.876C529.538 717.994 533.543 717.227 537.398 716.06C537.43 712.514 537.798 709.605 539.174 706.281C553.33 694.384 611.303 681.686 630.062 679.818C628.566 673.39 621.876 637.158 624.166 633.461C624.24 633.341 624.349 633.245 624.441 633.137C626.063 633.901 626.98 636.705 627.56 638.287C631.001 647.675 632.757 666.631 633.688 676.996L634.042 678.192C639.554 680.057 654.338 677.568 660.757 677.109C689.024 675.086 718.96 683.932 732.231 710.913C733.833 714.172 735.187 717.545 736.518 720.922C743.98 694.051 736.059 664.323 722.717 640.59C701.168 602.256 663.453 577.434 621.797 565.909C610.885 562.89 599.642 560.563 588.57 558.193C584.668 557.358 580.529 556.875 576.701 555.797ZM454.544 556.301C446.146 556.883 437.754 557.899 429.911 561.138C426.433 562.574 423.104 564.461 419.605 565.807C416.227 582.418 411.931 598.841 408.536 615.454C401.872 648.066 396.568 681.587 383.165 712.301C379.421 720.88 374.71 728.849 370.272 737.063C381.746 736.436 393.517 737.025 405.005 737.341C412.598 737.55 420.989 738.653 428.421 736.697C437.976 734.183 447.301 727.105 458.126 723.859C466.517 721.931 474.789 721.651 483.366 721.611C479.379 717.167 469.761 707.363 470.467 700.768C470.609 699.446 471.079 698.398 472.19 697.61C474.349 696.079 477.395 696.655 479.757 697.318C494.588 701.48 507.148 713.165 521.158 719.455C518.971 689.979 515.478 660.53 514.268 631.003C513.975 623.859 513.776 616.695 513.993 609.547C514.158 604.084 514.709 598.604 514.598 593.137C499.764 591.084 483.32 588.973 473.671 576.112C470.58 571.991 463.064 556.713 458.05 556.021C457.065 555.885 455.814 556.157 454.824 556.274C454.731 556.285 454.637 556.292 454.544 556.301ZM610.806 429.575L605.988 431.336C605 434.362 603.408 439.238 605.072 442.213C605.644 443.235 606.48 444.15 607.67 444.436C608.973 444.75 610.462 444.194 611.722 443.871L612.452 443.689C612.597 443.651 612.742 443.61 612.887 443.571C615.257 445.375 618.545 447.896 619.082 451.051C619.257 452.084 619.14 452.898 618.465 453.757C618.22 454.07 617.751 454.327 617.414 454.536C613.634 453.655 613.512 446.078 608.025 449.264C605.107 450.959 602.953 453.848 600.089 455.709C599.069 447.417 600.261 439.704 600.668 431.457C595.985 431.398 591.302 431.32 586.619 431.343C585.741 443.5 584.673 454.983 574.742 463.437C568.583 468.68 560.344 471.723 552.219 471.067C543.862 470.393 536.182 465.96 530.939 459.498C524.566 451.642 522.537 440.943 523.059 431.034C515.571 431.121 508.092 431.292 500.607 431.524C500.385 442.464 499.451 451.6 491.136 459.589C485.357 465.143 477.636 468.404 469.581 468.238C461.121 468.064 453.202 464.169 447.457 458.041C442.199 452.435 439.013 445.988 436.976 438.639C435.473 443.305 432.72 445.351 431.039 449.117C432.004 457.662 432.823 466.281 434.713 474.684C439.417 495.588 450.38 519.486 467.356 533.126C482.548 545.332 503.757 549.161 522.746 546.945C545.819 544.253 568.385 533.046 582.768 514.562C591.704 503.08 596.957 490.626 600.926 476.73C608.664 476.787 615.609 476.065 621.454 470.341C626.458 465.442 629.04 458.503 628.968 451.55C628.904 445.382 626.831 438.922 622.272 434.592C619.063 431.545 615.211 429.89 610.806 429.575ZM505.796 370.284C483.57 371.188 463.091 374.947 444.249 387.417C443.592 389.864 438.591 422.088 438.684 422.733C441.102 421.595 443.89 416.994 445.834 414.907C454.285 405.834 467.428 401.3 479.409 405.676C487.753 408.723 493.167 415.29 497.77 422.576C507.4 419.367 517.447 420.088 527.445 420.535C527.68 420.354 527.917 420.176 528.15 419.992C530.948 417.782 532.97 414.546 535.619 412.147C541.852 406.503 552.118 403.855 560.364 404.7C568.27 405.509 576.184 409.495 581.196 415.728C582.512 417.364 583.67 419.092 584.659 420.945C589.46 421.017 594.251 421.129 599.05 421.331C597.762 409.183 596.507 394.677 586.274 386.4C570.227 373.421 526.746 368.245 505.796 370.284ZM565.225 536.009C540.712 549.073 516.347 557.073 488.683 548.662C482.911 546.907 477.741 544.259 472.469 541.384C472.045 549.154 471.658 557.018 470.295 564.689C473.373 569.53 476.421 573.476 480.625 577.386C497.206 588.413 516.336 591.286 535.797 587.467C547.456 585.179 560.362 579.98 567.351 569.844C571.57 563.723 573.382 556.074 571.886 548.741C570.974 544.275 569.132 539.412 565.893 536.151L565.225 536.009ZM473.93 700.001C476.744 708.965 484.334 715.132 487.626 723.937C481.033 726.544 473.867 725.823 466.919 726.401C452.212 727.626 434.269 736.604 423.492 746.539C441.079 743.096 451.622 733.291 471.443 734.712C466.336 738.084 461.319 739.511 455.491 741.261C442.519 745.157 430.625 749.542 421.126 759.671C433.179 753.653 455.655 743.438 468.818 743.592C469.155 743.596 469.491 743.592 469.828 743.598C471.283 743.621 472.431 743.682 473.751 744.362L473.8 745.044C470.092 748.79 460.088 749.907 454.914 750.641C445.128 753.721 435.382 756.448 428.405 764.497C442.587 762.634 458.068 750.727 472.296 753.211L472.54 753.824C468.061 758.425 443.791 762.438 444.093 770.946C444.141 772.297 444.625 772.636 445.538 773.473C449.225 774.482 452.32 773.01 455.505 771.176C460.262 768.438 464.866 765.034 469.96 762.959C480.068 758.842 490.792 757.37 501.191 754.309C507.988 752.308 514.261 749.26 520.558 746.063C519.163 738.376 518.702 730.505 517.33 722.787C505.206 715.126 487.882 702.01 473.93 700.001ZM361.877 570.495C344.193 579.057 330.731 593.97 317.813 608.327C317.487 609.476 317.732 610.964 317.407 611.94C316.817 613.713 310.815 617.075 309.292 618.582C306.806 621.04 304.752 624.864 302.988 627.876C297.855 636.638 293.591 646.262 290.628 655.96C284.792 675.06 279.979 710.922 290.234 728.783C291.428 730.863 292.89 732.81 294.437 734.636C296.178 735.6 297.893 736.507 299.719 737.302L299.605 736.555C298.154 727.538 293.988 719.514 293.185 710.224C290.405 678.071 310.317 639.287 328.44 613.625C333.185 606.906 338.24 600.058 343.644 593.86C349.339 587.327 356.249 580.707 361.003 573.503C361.761 572.353 361.966 571.872 361.877 570.495ZM553.827 414.046C546.799 415.704 540.747 418.834 536.822 425.208C533.089 431.272 532.352 438.659 534.162 445.484C535.751 451.479 539.359 456.922 544.754 460.111C548.227 462.164 554.501 464.056 558.627 463.228C565.933 461.698 572.111 458.789 576.462 452.386C580.042 447.118 581.193 440.519 579.979 434.301C578.736 427.936 575.339 421.993 569.898 418.333C565.253 415.208 559.381 413.941 553.827 414.046ZM468.263 413.51C460.877 415.923 454.862 419.397 451.094 426.528C447.991 432.398 446.979 440.046 449.123 446.389C450.939 451.761 454.979 456.341 460.156 458.683C464.652 460.716 469.661 460.952 474.487 460.269C482.311 456.873 488.807 453.232 492.226 444.898C494.466 439.439 494.389 433.4 492.106 427.964C489.555 421.886 484.45 417.528 478.339 415.258C475.274 414.12 471.529 413.172 468.263 413.51ZM432.39 482.763C432.821 495.797 439.885 510.731 434.825 523.51C433.737 526.258 432.46 529.023 430.838 531.5C426.833 537.619 421.984 541.813 421.289 549.669C421.133 551.427 421.25 553.408 422.662 554.668C425.266 556.989 431.848 555.989 435.102 555.45C440.861 554.497 446.554 553.138 452.374 552.592C457.977 552.267 462.503 552.85 467.707 555.187C468.428 549.811 468.493 544.395 468.653 538.98C458.63 530.863 450.365 521.237 444.379 509.734C441.542 504.281 435.59 485.577 432.39 482.763ZM538.033 720.684C532.528 721.624 526.959 722.431 521.523 723.716C522.155 730.874 521.968 739.672 524.767 746.317C525.097 746.501 525.622 746.867 525.981 746.956C531.478 746.949 536.976 747.008 542.463 746.641C542.59 739.201 543.677 727.485 539.237 721.235L538.033 720.684ZM376.769 546.163C376.344 547.652 375.956 548.356 376.563 549.906C378.353 554.479 389.355 557.557 393.714 558.778C402.059 561.115 413.789 563.166 422.369 561.476L422.991 560.216C422.38 559.175 422.23 559.255 421.11 558.943C414.42 557.076 407.35 556.816 400.626 554.774C392.58 552.33 384.992 547.916 376.769 546.163ZM426.961 455.361C423.988 459.743 418.837 468.124 419.934 473.584C420.14 474.609 420.471 475.63 421.463 476.135C421.74 476.275 422.044 476.351 422.335 476.459L427.687 475.812C430.132 472.337 429.123 462.911 428.414 458.742C428.19 457.428 428.103 456.192 426.961 455.361Z"/>
	<path fill="#242324" transform="matrix(1.35059 0 0 1.35059 -0.000488281 0)" d="M469.244 432.433C471.091 432.538 473.21 432.983 474.736 434.075C476.034 435.004 476.92 436.309 477.045 437.941C477.25 440.629 475.535 442.32 473.754 444.022C473.593 444.031 473.432 444.042 473.271 444.049C471.247 444.14 469.492 444.071 467.958 442.561C466.83 441.451 466.181 439.909 466.229 438.32C466.307 435.718 467.357 434.105 469.244 432.433Z"/>
	<path fill="#242324" transform="matrix(1.35059 0 0 1.35059 -0.000488281 0)" d="M548.581 431.628C551.236 431.642 554.131 432.01 556.226 433.791C557.521 434.893 558.291 436.355 558.357 438.063C558.481 441.288 556.353 443.687 554.321 445.919C553.835 445.999 553.351 446.088 552.861 446.13C550.806 446.305 548.162 445.607 546.599 444.229C545.245 443.035 544.674 441.425 544.592 439.653C544.426 436.047 546.187 434.082 548.581 431.628Z"/>
	<path fill="#242324" transform="matrix(1.35059 0 0 1.35059 -0.000488281 0)" d="M473.042 384.022C474.976 384.023 476.853 384.135 478.722 384.679C481.165 385.391 483.399 386.301 484.606 388.648C484.576 390.128 484.45 390.895 483.522 392.095C479.6 397.169 468.994 397.531 463.119 398.37C459.73 398.786 456.363 399.534 453.011 400.186C459.148 393.375 464.777 388.11 473.042 384.022Z"/>
	<path fill="#242324" transform="matrix(1.35059 0 0 1.35059 -0.000488281 0)" d="M550.839 385.538C551.871 385.482 552.872 385.544 553.9 385.653C563.442 386.663 568.634 393.819 574.153 400.706L566.998 399.617C560.629 398.977 553.668 398.802 547.518 397.011C545.2 396.336 543.225 395.608 542.018 393.408C542.016 392.458 541.923 392.14 542.367 391.256C543.949 388.107 547.697 386.57 550.839 385.538Z"/>
	<path fill="#242324" transform="matrix(1.35059 0 0 1.35059 -0.000488281 0)" d="M504.033 450.229L504.178 450.325C505.896 451.433 506.829 452.177 507.345 454.21C508.986 460.684 504.083 467.984 501.021 473.41C505.038 474.386 509.227 474.612 513.165 475.87C514.674 476.352 515.743 476.809 516.495 478.226C515.746 479.484 515.198 479.617 513.927 480.287C507.349 478.654 500.861 476.831 494.369 474.887C499.114 466.878 501.719 459.172 504.033 450.229Z"/>
	<path fill="#242324" transform="matrix(1.35059 0 0 1.35059 -0.000488281 0)" d="M539.326 488.151C539.633 488.294 539.962 488.397 540.246 488.581C541.441 489.357 541.545 489.848 541.748 491.134C540.237 495.686 534.942 498.871 530.881 501.056C517.949 508.016 499.769 503.842 486.567 499.974C485.255 499.266 484.477 498.715 483.476 497.614L483.665 496.759C489.277 494.849 497.137 498.825 502.725 499.993C506.017 500.681 509.435 500.853 512.79 500.748C524.077 500.396 531.7 496.369 539.326 488.151Z"/>
	<path fill="#242324" transform="matrix(1.35059 0 0 1.35059 -0.000488281 0)" d="M543.22 664.049C545.504 663.811 547.396 664.334 549.592 664.867C550.96 666.004 552.238 667.193 553.146 668.746C554.283 670.691 554.83 673.188 554.217 675.395C553.316 678.637 550.826 680.369 548.064 681.972C546.702 681.908 545.301 681.795 543.962 681.535C541.419 681.041 539.083 679.053 537.81 676.849C536.664 674.866 536.356 672.432 537.023 670.236C538.035 666.904 540.251 665.531 543.22 664.049ZM544.004 669.105C543.3 670.769 542.542 672.454 543.522 674.213C544.176 675.385 545.527 676.145 546.683 676.721C547.212 675.092 548.159 672.969 547.214 671.326C546.6 670.258 545.095 669.564 544.004 669.105Z"/>
	<path fill="#242324" transform="matrix(1.35059 0 0 1.35059 -0.000488281 0)" d="M537.415 605.527C537.87 605.561 538.324 605.61 538.776 605.669C541.951 606.083 545.169 607.257 547.073 609.99C549.25 613.116 548.804 616.381 548.069 619.881C546.065 621.855 544.041 623.464 541.739 625.072C540.168 624.939 538.696 624.706 537.189 624.222C534.556 623.377 532.446 621.409 531.265 618.919C530.181 616.631 530.04 613.886 530.964 611.519C532.227 608.285 534.404 606.947 537.415 605.527ZM537.499 610.951C536.691 612.625 535.769 614.249 536.673 616.117C537.469 617.761 539.521 618.958 541.041 619.85C541.996 618.184 543.086 616.255 542.581 614.254C542.271 613.025 541.291 612.115 540.158 611.634C539.315 611.275 538.394 611.118 537.499 610.951Z"/>
	<path fill="#242324" transform="matrix(1.35059 0 0 1.35059 -0.000488281 0)" d="M405.029 482.36C405.596 482.716 405.564 482.666 406.149 483.21C412.383 489.011 416.337 511.861 416.583 520.269C416.104 519.883 415.656 519.517 415.246 519.057C409.555 512.692 404.63 490.735 405.029 482.36Z"/>
</svg>
