<?xml version="1.0" encoding="utf-8" ?>
<svg xmlns="http://www.w3.org/2000/svg" xmlns:xlink="http://www.w3.org/1999/xlink" width="2318" height="2318">
	<path fill="#232021" transform="scale(2.26367 2.26367)" d="M711.397 150.809C711.547 150.794 711.697 150.777 711.848 150.764C718.552 150.185 725.418 150.452 732.148 150.453L764.889 150.413L788.84 150.385C793.732 150.381 799.035 149.993 803.86 150.787C808.274 151.513 812.427 153.33 815.838 156.244C822.488 161.926 824.643 170.339 825.137 178.705C825.504 184.908 825.054 191.077 825.059 197.28C825.072 210.454 827.388 225.061 817.557 235.686C807.786 246.247 794.32 243.37 781.603 244.07C778.844 244.221 776.104 244.736 773.805 246.356C769.349 249.497 762.746 261.481 758.169 266.528L756.834 267.66C746.421 276.345 731.343 283.765 717.386 282.18C715.845 282.005 713.891 281.775 712.863 280.507C713.443 276.022 725.1 271.118 728.776 268.608C731.704 266.608 734.538 264.122 736.71 261.308C739.176 258.113 741.54 253.354 740.557 249.168C738.808 241.714 718.551 244.573 712.524 243.726C708.139 243.11 704.014 241.748 700.314 239.261C695.53 236.046 691.499 230.42 690.401 224.697C688.359 214.049 688.425 182.145 690.261 171.58C690.9 167.898 691.895 164.714 694.049 161.612C698.346 155.423 704.087 152.131 711.397 150.809Z"/>
	<path fill="#FEFEFE" transform="scale(2.26367 2.26367)" d="M721.402 153.728C734.94 153.644 748.467 154.007 761.999 153.963C771.896 153.931 781.793 153.516 791.691 153.716C800.784 153.9 808.622 154.029 815.269 161.233C817.955 164.143 819.608 167.381 820.541 171.219C822.813 180.566 821.861 202.332 821.59 212.511C821.365 220.916 819.59 228.773 813.096 234.712C806.085 241.123 796.574 239.982 787.841 239.703C771.34 239.175 770.984 245.855 762.606 257.236C760.726 259.791 758.352 261.918 756.047 264.081C745.04 273.963 733.92 277.846 719.303 278.355C725.965 273.729 731.749 269.843 736.911 263.438C740.184 259.377 743.532 254.234 742.786 248.779C740.67 233.31 714.066 245.434 701.671 235.048C696.136 230.409 693.933 224.082 693.335 217.106C692.392 206.102 691.417 181.796 693.991 171.664C694.926 167.987 696.445 164.55 698.959 161.673C704.941 154.83 712.994 154.25 721.402 153.728Z"/>
	<path fill="#232021" transform="scale(2.26367 2.26367)" d="M479.886 142.701C503.014 140.516 528.139 146.379 549.797 153.981C574.367 162.606 599.258 177.966 614.49 199.491C618.675 205.406 621.777 211.791 624.912 218.293C630.014 219.227 635.269 220.083 640.21 221.694C651.911 225.509 660.999 234.117 666.51 245.012C674.811 261.423 674.124 280.863 668.582 297.992C675.381 299.572 681.797 302.247 686.907 307.121C696.239 316.023 699.748 329.839 699.934 342.354C700.19 359.549 693.53 375.188 681.507 387.386C668.996 400.079 655.313 403.809 637.932 403.995C627.702 428.069 610.417 451.634 589.611 467.765C583.78 472.286 575.281 475.622 570.58 481.212C565.6 487.135 567.367 501.969 567.877 509.359C576.404 510.398 588.537 510.382 594.944 516.559C601.598 517.8 608.346 518.509 614.999 519.777C636.544 523.882 657.478 531.762 675.33 544.675C730.819 584.812 728.69 649.411 738.531 709.825C741.797 711.305 744.755 712.933 747.188 715.629C749.218 717.879 750.742 720.948 751.168 723.957C752.126 730.722 751.636 738.084 751.643 744.922L751.636 781.146L751.535 837.136C751.529 846.907 751.979 856.835 751.504 866.588C751.275 871.295 748.871 873.962 745.562 877.001L828.783 877.21C837.265 877.181 870.524 876.002 875.921 877.687C877.433 878.159 878.235 878.713 878.996 880.091L878.476 881.208C876.285 882.537 874.039 882.845 871.51 882.953C862.763 883.328 853.926 882.635 845.173 882.564L789.505 882.5L571.75 881.487L307.244 881.668L201.241 882.393C184.077 882.477 166.821 882.861 149.664 882.497C147.769 882.457 144.617 882.47 143.011 881.434C141.86 880.691 141.874 880.232 141.547 878.98L142.225 877.874C143.715 877.13 144.99 876.814 146.661 876.737C160.034 876.12 173.817 876.844 187.222 876.875L274.557 877.089C267.169 867.399 269.285 853.63 269.955 842.133C268.832 841.474 267.733 840.782 266.647 840.062C250.581 829.42 241.34 815.079 237.568 796.146C225.86 737.369 278.428 626.465 310.917 577.938C330.914 548.069 353.467 535.096 388.285 528.242C387.736 527.664 387.19 527.085 386.653 526.497C372.579 511.096 370.698 502.33 371.628 482.089C368.777 477.124 367.183 472.052 367.053 466.315C366.89 459.126 368.958 451.072 374.153 445.872C378.911 441.111 384.22 440.509 390.587 440.508C379.96 414.942 377.811 388.325 377.461 360.933C371.185 353.274 367.122 347.022 365.321 337.071C363.262 325.696 362.262 303.059 369.138 293.531C372.53 288.829 377.036 286.853 382.559 285.845C388.419 261.21 400.386 241.766 419.123 224.788C413.62 222.227 408.017 219.494 403.225 215.721C398.004 211.61 394.096 205.822 393.455 199.09C392.624 190.351 396.951 182.214 402.363 175.684C421.503 152.591 451.352 145.391 479.886 142.701ZM286.402 715.618C282.619 716.589 279.585 717.733 277.421 721.208C275.63 724.084 275.264 727.32 275.051 730.63C274.208 743.691 275.162 757.197 275.185 770.316L275.159 817.322C275.141 825.359 273.873 840.751 275.957 848.017C276.692 850.583 278.442 853.808 281.062 854.884C283.89 856.046 288.59 855.972 291.646 856.032C308.826 856.368 326.142 855.664 343.342 855.625L455.522 855.719L653.035 855.599C680.515 855.581 708.068 856.178 735.532 855.887C738.337 855.827 741.308 855.972 743.445 853.813C745.276 851.962 745.753 849.433 746.008 846.946C746.675 840.418 746.287 833.601 746.265 827.035L746.192 793.766L746.188 755.117C746.25 747.241 746.74 739.246 746.306 731.388C746.058 726.888 745.267 721.571 741.742 718.397C739.343 716.236 735.859 715.544 732.737 715.422C722.421 715.022 711.97 715.443 701.634 715.448L639.91 715.416L455.187 715.57L345.196 715.762L310.897 715.419C302.768 715.304 294.513 714.934 286.402 715.618Z"/>
	<path fill="#FEFEFE" transform="scale(2.26367 2.26367)" d="M382.893 445.488C387.488 445.356 390.523 446.397 394.499 448.518C388.107 454.831 382.171 460.638 377.467 468.372C376.476 470.263 375.3 473.544 373.591 474.748C373.485 474.629 373.364 474.521 373.271 474.391C371.455 471.825 372.029 464.897 372.61 462C374.161 454.277 376.186 449.959 382.893 445.488Z"/>
	<path fill="#FEFEFE" transform="scale(2.26367 2.26367)" d="M379.367 292.863L380.199 293.27C382.034 296.354 378.386 306.983 378.006 310.947C377.258 318.775 376.757 326.694 376.583 334.556C376.477 339.329 376.776 344.194 376.327 348.943L375.756 348.817L374.356 346.389C369.542 335.402 369.149 319.963 370.412 308.121C371.157 301.139 374.088 297.116 379.367 292.863Z"/>
	<path fill="#FEFEFE" transform="scale(2.26367 2.26367)" d="M484.095 318.009C491.317 317.717 497.66 319.95 504.37 322.293C504.776 324.806 504.924 327.345 505.118 329.88C503.265 329.316 501.382 328.83 499.493 328.398C495.081 327.39 490.548 327.536 486.681 330.102C480.704 334.068 478.526 342.29 477.053 348.885C476.517 351.814 476.253 354.841 475.891 357.798C471.615 356.563 467.365 355.248 463.112 353.937C468.446 341.262 471.39 325.558 484.095 318.009Z"/>
	<path fill="#FEFEFE" transform="scale(2.26367 2.26367)" d="M503.568 673.784C507.292 674.517 511.066 676.647 514.612 678.041C520.873 680.502 527.253 682.283 533.888 683.406C541.493 684.694 549.315 685.511 557.028 685.702C562.545 685.838 568.482 685.14 573.884 686.221L574.306 687.172C574.011 687.703 574.035 687.745 573.504 688.217C567.584 693.476 509.138 695.958 498.321 695.64C487.682 695.327 477.262 694.112 466.75 692.492C464.566 692.089 462.377 691.687 460.206 691.22C457.557 690.65 452.441 689.632 450.911 687.256L451.227 686.322C455.044 685.127 461.136 688.191 465.118 688.843C474.595 690.394 484.081 691.69 493.673 692.249C513.505 693.405 537.839 691.959 557.315 688.406C546.846 687.98 511.633 684.148 504.881 677.182C503.733 675.997 503.619 675.396 503.568 673.784Z"/>
	<path fill="#FEFEFE" transform="scale(2.26367 2.26367)" d="M627.722 660.125C628.207 660.134 628.718 660.394 629.175 660.556C632.601 664.436 634.038 671.908 635.044 676.88C634.912 676.944 634.781 677.012 634.646 677.072C634.422 677.171 634.194 677.259 633.969 677.355C630.36 678.907 626.13 678.512 622.273 679.119C611.601 680.798 599.678 684.604 590.339 690.08C591.392 696.701 590.717 703.219 590.237 709.861L588.708 709.266C585.483 705.578 587.113 694.735 587.371 689.967C586.166 688.894 584.683 687.916 584.27 686.291C585.354 684.906 586.566 684.725 588.187 684.103C587.704 681.15 586.969 678.337 586.172 675.457C597.058 665.958 613.933 663.004 627.722 660.125Z"/>
	<path fill="#232021" transform="scale(2.26367 2.26367)" d="M623.094 665.661C623.991 665.501 624.836 665.499 625.748 665.47C628.663 667.096 629.402 671.307 630.404 674.266C619.079 676.392 608.295 679.052 597.457 683.017C596.595 683.382 595.636 683.876 594.73 684.092C593.39 684.41 593.064 684.212 591.899 683.642C590.728 681.783 590.739 679.316 590.495 677.169C600.555 671.027 611.495 667.522 623.094 665.661Z"/>
	<path fill="#FEFEFE" transform="scale(2.26367 2.26367)" d="M568.127 514.859C575.026 515.499 581.788 517 588.558 518.415C584.961 532.295 580.762 544.911 571.848 556.374C556.76 575.778 536.342 585.108 512.409 588.126C506.303 588.504 500.553 587.993 494.503 587.265C497.184 580.416 499.909 573.475 503.046 566.824C511.172 568.325 519.795 568.015 527.801 565.986C542.312 562.308 555.042 552.721 562.556 539.774C567.235 531.712 570.673 524.253 568.127 514.859Z"/>
	<path fill="#FEFEFE" transform="scale(2.26367 2.26367)" d="M561.603 497.355C561.814 497.52 562.102 497.617 562.237 497.848C563.208 499.503 562.837 510.729 563.028 513.464C563.252 516.672 563.789 519.733 564.508 522.863C559.78 532.947 555.015 543.032 546.463 550.48C534.525 560.875 520.19 563.001 504.874 562.045L506.395 557.133C507.644 553.936 508.581 550.312 509.088 546.916C510.726 535.961 506.107 528.793 499.903 520.434C502.931 520.576 505.97 520.726 509.002 520.715C529.9 520.642 547.053 512.045 561.603 497.355Z"/>
	<path fill="#FEFEFE" transform="scale(2.26367 2.26367)" d="M593.387 521.869C610.698 523.87 627.847 527.513 644.046 534.061C674.227 546.261 698.907 568.467 711.613 598.668C715.292 607.412 718.053 616.432 720.221 625.657C722.338 634.667 734.109 704.107 732.12 708.978C730.721 709.914 729.797 709.704 728.138 709.744C723.043 709.967 717.943 709.987 712.844 710.037C718.108 670.862 716.615 621.43 693.627 587.754C670.517 553.9 630.253 536.55 591.127 529.222C591.956 526.803 592.642 524.317 593.387 521.869Z"/>
	<path fill="#FEFEFE" transform="scale(2.26367 2.26367)" d="M385.822 292.502L428.194 292.607C436.764 292.636 448.334 291.024 456.336 293.436C459.706 294.452 462.284 296.718 463.814 299.88C470.524 313.755 462.007 337.669 457.417 351.354C455.728 351.304 453.88 351.13 452.205 351.306C450.361 351.499 449.877 352.147 448.719 353.426L447.189 359.094C441.757 364.467 432.476 365.718 425.174 366.367C409.625 367.749 394.353 366.473 381.993 356.196C381.829 334.233 382.901 314.317 385.822 292.502Z"/>
	<path fill="#232021" transform="scale(2.26367 2.26367)" d="M428.757 314.463C428.955 314.486 429.156 314.496 429.353 314.531C431.953 314.991 433.614 316.723 434.949 318.89C438.495 324.641 438.746 334.09 437.068 340.52C435.811 345.331 433.973 348.573 429.676 351.116C428.09 350.616 426.635 349.762 425.165 348.996C421.135 343.223 419.98 336.283 420.792 329.383C421.538 323.049 423.69 318.416 428.757 314.463Z"/>
	<path fill="#FEFEFE" transform="scale(2.26367 2.26367)" d="M388.823 533.635C389.446 533.549 389.844 533.476 390.496 533.472C395.421 533.441 401.209 540.142 404.636 543.412C385.413 544.498 368.783 549.011 352.566 559.775C311.829 586.815 293.613 638.007 284.329 683.873C281.732 696.704 282.273 699.607 289.432 710.385C285.492 710.418 281.86 711.127 278.423 713.154C274.939 715.209 272.373 718.475 271.213 722.352C268.208 732.392 270.005 751.147 270.022 762.287C270.045 778.136 269.812 794.006 270.089 809.852C270.216 817.038 271.527 827.748 269.637 834.51L268.802 834.841L267.191 833.982C254.232 823.498 246.237 811.316 243.098 794.788C241.098 784.257 240.938 773.151 242.058 762.507C247.786 708.047 286.407 623.536 317.738 578.071C335.805 551.852 357.879 539.342 388.823 533.635Z"/>
	<path fill="#FEFEFE" transform="scale(2.26367 2.26367)" d="M526.346 293.103C535.384 292.517 544.648 293.062 553.707 293.088C564.101 293.118 587.853 291.566 596.537 294.701C599 295.59 600.452 297.953 601.376 300.277C605.647 311.029 604.051 343.876 599.305 354.197C596.569 360.147 591.638 363.345 585.718 365.517C568.082 369.15 548.457 370.123 531.981 361.635C522.897 356.955 516.128 349.613 513.026 339.79C509.594 328.918 508.54 312.335 514.262 302.021C517.115 296.879 520.924 294.709 526.346 293.103Z"/>
	<path fill="#232021" transform="scale(2.26367 2.26367)" d="M547.469 314.482C549.571 314.447 550.673 314.594 552.272 316.059C555.927 319.41 556.643 324.839 556.873 329.559C557.282 337.954 555.724 345.872 549.921 352.189C547.626 351.802 545.911 350.972 543.887 349.882C540.869 345.098 539.655 339.84 539.728 334.22C539.826 326.571 541.94 319.93 547.469 314.482Z"/>
	<path fill="#FEFEFE" transform="scale(2.26367 2.26367)" d="M569.716 224.719C581.939 224.362 594.184 226.229 604.766 232.573C599.127 251.923 610.074 272.219 616.201 290.16C618.628 297.265 620.302 304.647 621.956 311.963C617.854 311.275 613.754 310.787 609.619 310.343C609.431 304.422 608.623 297.416 604.627 292.765C600.952 288.488 592.437 287.432 587.065 287.158C575.964 286.592 564.852 286.961 553.749 286.889C543.822 286.825 533.491 285.595 523.687 287.56C519.489 288.401 516.417 289.56 513.23 292.503C506.264 298.935 504.823 307.861 504.421 316.86C498.062 313.838 488.611 309.502 481.602 312.721C478.467 314.161 476.1 316.517 472.739 317.639C471.842 316.844 472.085 315.788 472.004 314.625C472.081 306.839 471.977 298.287 466.299 292.251C463.54 289.318 459.75 287.497 455.816 286.782C447.923 285.347 438.966 286.459 430.925 286.498C416.428 286.569 401.94 286.446 387.445 286.218C394.367 265.566 405.336 237.732 425.584 227.024C458.905 236.84 501.324 230.349 535.513 227.046C546.902 225.946 558.292 225.296 569.716 224.719Z"/>
	<path fill="#232021" transform="scale(2.26367 2.26367)" d="M550.11 256.616C557.097 256.012 564.088 256.354 570.182 260.289C572.504 261.788 575.526 264.629 575.873 267.549C576.02 268.783 575.766 269.378 575.034 270.325C573.742 270.534 573.409 270.352 572.161 269.892C562.258 261.125 558.883 264.878 547.994 262.708C546.391 262.389 545.461 262.088 544.563 260.705C544.604 260.538 544.623 260.364 544.687 260.205C545.549 258.057 548.128 257.3 550.11 256.616Z"/>
	<path fill="#232021" transform="scale(2.26367 2.26367)" d="M432.453 257.717C436.967 257.744 443.775 258.265 447.361 261.2C448.448 262.09 448.578 262.743 448.793 264.08C448.323 265.182 448.352 265.544 447.026 265.723C445.759 265.894 443.688 265.331 442.394 265.145C434.934 264.072 428.966 263.665 421.926 267.03L421.279 267.346C418.735 269.004 415.191 271.778 412.144 272.13C410.899 272.273 410.49 272.214 409.531 271.423C409.258 269.8 409.868 268.66 410.83 267.389C415.607 261.075 424.993 258.668 432.453 257.717Z"/>
	<path fill="#FEFEFE" transform="scale(2.26367 2.26367)" d="M409.644 447.511C412.53 447.406 415.353 447.734 418.033 448.885C419.17 449.374 419.817 449.965 420.283 451.125C419.998 454.69 412.594 458.865 410.161 461.654C407.604 464.585 405.735 468.198 404.256 471.782C403.292 474.118 402.56 477.484 403.737 479.874C404.116 480.644 404.365 480.496 405.117 480.694C407.833 479.171 408.556 475.736 409.687 473.046C413.419 464.17 418.639 459.926 427.374 456.327C432.634 457.605 436.17 459.529 440.101 463.257C438.342 464.053 436.649 464.975 435.123 466.169C430.783 469.566 427.397 475.502 426.91 481.005C426.655 483.889 427.218 486.504 429.128 488.711L429.901 488.71C434.006 484.247 432.589 475.64 438.06 469.802L438.513 469.326C438.854 469.195 439.195 469.064 439.538 468.941C446.891 466.304 452.927 467.263 459.807 470.491C460.516 471.507 461.305 472.679 461.636 473.893C463.197 479.627 455.1 484.921 452.802 489.469C452.28 490.502 452.363 490.723 452.662 491.772C455.667 493.677 460.725 492.845 464.189 494.561C474.423 499.632 499.472 525.339 503.03 535.931C504.472 540.221 504.196 544.631 503.177 548.967C499.378 565.142 491.175 581.153 484.655 596.435C468.266 634.848 450.934 672.638 432.316 710.022L413.75 710.023L325.968 710.011C365.491 663.145 401.354 613.391 438.064 564.317C442.722 566.161 447.153 568.551 451.843 570.355C454.533 571.39 457.931 572.739 460.708 571.495C461.481 570.224 461.427 570.07 461.335 568.568C458.677 565.436 447.215 562.499 442.949 560.629C420.708 550.879 386.894 527.508 378.051 504.399C374.316 494.64 376.104 483.449 380.347 474.143C386.26 461.175 396.369 452.411 409.644 447.511Z"/>
	<path fill="#FEFEFE" transform="scale(2.26367 2.26367)" d="M660.016 304.118C660.201 304.098 660.386 304.069 660.571 304.056C668.638 303.528 677.123 306.6 682.989 312.076C690.935 319.493 694.161 330.834 694.482 341.401C694.936 356.382 689.355 370.922 679.013 381.767C669.758 391.472 656.738 398.053 643.212 398.319C625.203 398.673 632.819 394.648 628.332 390.361L626.981 390.521C625.398 391.415 624.653 392.951 624.044 394.609C623.294 396.65 622.673 398.927 623.596 400.996C626.38 402.943 629.642 403.269 632.924 403.708C629.293 409.787 626.014 416.035 622.199 422.014C607.254 445.437 587.853 465.573 563.013 478.517C538.577 491.251 508.281 497.078 481.037 492.758C474.348 491.698 467.938 489.793 461.495 487.772C464.027 484.569 466.709 481.203 467.342 477.046C467.807 473.986 466.939 471.163 464.979 468.791C460.284 463.11 452.301 462.332 445.494 461.681C444.722 460.734 443.947 459.768 443.093 458.894C438.572 454.265 433.025 451.634 426.532 451.48C424.34 448.08 422.287 445.07 418.498 443.265C412.308 440.314 405.562 442.913 399.564 444.995C396.316 439.841 393.739 434.601 391.455 428.953C384.491 408.776 383.342 386.633 382.424 365.454C385.67 367.157 388.944 368.759 392.428 369.92C411.362 376.226 432.794 374.14 450.472 365.281C452.825 370.382 455.836 375.492 459.26 379.952C463.24 385.136 468.931 390.781 475.727 391.489C477.337 391.657 478.269 391.452 479.546 390.479C479.715 389.302 479.799 388.623 479.111 387.53C477.397 384.808 471.256 383.106 468.617 380.877C461.774 375.095 457.515 365.198 453.708 357.291C460.069 359.474 467.205 362.585 473.909 363.196C475.136 363.308 477.308 363.483 478.336 362.655C483.089 358.831 480.289 340.607 488.808 334.209C493.471 330.708 499.505 334.071 504.602 334.642C504.791 334.663 504.981 334.681 505.17 334.7C506.978 343.719 510.376 351.731 516.94 358.308C529.495 370.89 547.703 374.218 564.846 374.235C576.826 374.248 591.328 372.464 600.089 363.363C611.429 351.582 609.55 331.551 609.493 316.472C617.214 316.298 621.303 317.716 626.343 323.696C627.706 325.315 628.881 327.053 630.697 328.182C633.789 327.389 637.145 319.528 639 316.776C643.763 309.705 651.821 305.617 660.016 304.118Z"/>
	<path fill="#232021" transform="scale(2.26367 2.26367)" d="M520.167 402.487C520.326 402.496 520.487 402.483 520.643 402.514C522.22 402.819 523.732 403.169 524.789 404.364L524.642 405.237C518.258 413.936 488.36 426.284 477.471 428.712C476.935 428.713 476.398 428.732 475.864 428.694C474.303 428.584 473.468 428.005 472.503 426.831L472.706 425.711C475.334 422.112 485.204 420.688 489.549 418.727C500.105 413.964 510.122 408.221 520.167 402.487Z"/>
</svg>
