<?xml version="1.0" encoding="utf-8" ?>
<svg xmlns="http://www.w3.org/2000/svg" xmlns:xlink="http://www.w3.org/1999/xlink" width="2318" height="2318">
	<path fill="#232021" transform="scale(2.26367 2.26367)" d="M650.167 240.757C677.113 239.732 704.245 241.324 731.216 241.085L831.568 240.744C847.566 240.746 863.739 240.191 879.72 240.727C881.286 240.78 882.551 240.84 883.841 241.815C886.419 248.645 884.654 272.439 884.637 281.078C884.596 301.244 884.767 321.304 884.384 341.475C852.871 342.205 821.28 341.78 789.75 341.784L655.99 341.923C654.739 352.427 651.615 363.198 643.133 370.111C636.282 375.694 621.141 381.414 612.343 380.056C610.784 379.816 610.207 379.24 609.327 377.99C609.4 377.733 609.36 377.41 609.546 377.218C610.565 376.168 625.185 374.971 627.982 374.257C631.115 373.457 634.194 372.134 636.946 370.432C647.536 363.883 650.225 353.491 652.861 342.088C647.352 342.213 641.924 342.397 636.512 341.21C635.747 307.866 635.177 274.604 636.15 241.251L650.167 240.757ZM639.569 244.573C639.465 267.475 639.124 290.369 639.421 313.269C639.53 321.637 639.359 330.026 639.856 338.383C671.395 337.753 702.987 338.112 734.533 338.107L880.809 338.138C881.968 306.974 881.068 275.66 881.263 244.464L713.142 244.553C688.617 244.616 664.088 244.188 639.569 244.573Z"/>
	<path fill="#232021" transform="scale(2.26367 2.26367)" d="M847.57 267.614C850.275 267.481 853.37 266.866 855.815 268.173C856.968 269.53 856.981 270.601 857.116 272.289C854.364 272.518 851.525 273.105 849.017 271.703C847.794 270.354 847.732 269.393 847.57 267.614Z"/>
	<path fill="#232021" transform="scale(2.26367 2.26367)" d="M663.95 311.144C664.801 311.111 665.654 311.087 666.506 311.113C668.342 311.168 670.715 311.37 671.949 312.918C672.451 313.547 672.159 313.952 672.036 314.679C671.195 315.58 670.673 316.011 669.513 316.441C667.385 316.472 665.031 316.534 662.922 316.184C661.602 315.964 661.171 315.515 660.457 314.453C660.514 314.013 660.564 313.4 660.754 313.002C661.527 311.378 662.416 311.469 663.95 311.144Z"/>
	<path fill="#232021" transform="scale(2.26367 2.26367)" d="M668.627 289.722C675.438 289.68 688.253 288.608 694.383 290.444C695.457 290.765 695.529 290.985 696.065 291.898L695.814 291.161L695.658 292.408L696.001 292.067C693.208 294.262 688.211 293.601 684.875 293.576C678.812 294.018 664.525 294.901 659.33 292.531L659.098 291.562C660.998 289.376 665.799 289.969 668.627 289.722Z"/>
	<path fill="#232021" transform="scale(2.26367 2.26367)" d="M746.108 265.74C750.376 265.667 763.004 265.146 766.428 267.093C766.81 268.14 766.985 268 766.527 269.103C761.606 270.425 750.228 269.737 744.625 269.747C738.641 269.806 732.374 269.938 726.419 269.423C725.003 269.3 724.656 269.223 723.728 268.136L723.815 267.189C727.323 264.886 741.497 265.792 746.108 265.74Z"/>
	<path fill="#232021" transform="scale(2.26367 2.26367)" d="M665.091 265.715C670.878 265.586 701.532 265.007 705.009 267.043L705.017 268.771C703.926 269.883 703.061 269.541 701.543 269.564L676.798 269.603C672.001 269.649 666.52 270.148 661.794 269.401C660.882 268.37 660.791 268.129 660.504 266.778L661.006 266.049L665.091 265.715Z"/>
	<path fill="#232021" transform="scale(2.26367 2.26367)" d="M794.103 265.731C802.278 265.722 820.827 264.9 827.587 266.075C829.062 266.332 830.282 266.871 831.123 268.141L830.696 268.933C827.861 269.813 824.697 269.511 821.75 269.495L793.978 269.49C791.685 269.472 785.879 269.766 784.251 268.105L784.291 267.04C785.907 265.578 791.811 265.859 794.103 265.731Z"/>
	<path fill="#232021" transform="scale(2.26367 2.26367)" d="M718.395 290.244C733.817 290.009 749.249 290.247 764.673 290.135C774.092 290.066 783.68 289.315 793.077 290.009C794.657 290.126 796.319 290.135 797.534 291.267C797.812 292.418 798.008 292.215 797.337 293.315C781.499 294.054 765.43 293.45 749.564 293.492C739.713 293.519 728.417 294.799 718.768 293.115C717.72 292.22 717.819 292.188 717.63 290.805L718.395 290.244Z"/>
	<path fill="#232021" transform="scale(2.26367 2.26367)" d="M447.66 266.741C459.461 251.385 476.976 238.468 496.531 235.917C513.267 233.734 529.624 238.899 542.81 249.257C550.139 255.014 559.516 264.583 560.505 274.356C560.838 277.647 560.019 280.488 557.904 283.039C553.568 288.27 546.426 291.428 540.659 294.83C550.68 300.482 553.612 309.704 558.85 319.175C561.128 323.293 564.398 326.805 565.695 331.429C567.284 337.095 566.501 342.913 563.48 347.967C559.425 354.753 553.304 357.668 546.062 359.83C547.936 377.718 545.192 399.197 533.542 413.581C526.881 421.806 518.176 425.836 508.382 429.224C509.329 439.739 509.842 450.298 510.095 460.852L556.824 470.459C590.441 477.271 603.708 479.829 623.661 510.376C639.239 534.227 643.609 554.431 651.17 581.084C652.175 575.495 653.15 568.995 658.134 565.457C662.889 562.081 669.906 562.188 675.504 562.745C683.328 540.295 692.017 517.574 701.876 495.929C697.115 481.647 695.344 466.007 702.348 452.122C704.777 447.309 708.102 442.903 712.054 439.236C709.729 430.722 702.341 410.294 706.582 402.709C707.493 401.08 708.915 399.887 710.756 399.473C713.805 398.789 717.159 400.287 719.638 401.949C728.495 407.885 730.662 417.853 732.848 427.536C739.908 421.895 747.076 416.47 754.51 411.328C759.29 408.022 765.062 404.791 769.351 400.905C774.786 395.979 778.571 388.94 783.471 383.455C786.508 380.055 791.923 374.423 796.879 375.163C798.876 375.462 800.459 376.818 801.53 378.472C804.306 382.757 802.379 389.405 801.249 393.991C801.149 394.401 801.04 394.808 800.926 395.214L801.431 394.905C807.004 391.458 815.526 383.166 822.446 384.772C824.449 385.237 826.587 386.615 827.649 388.399C829.05 390.755 828.726 393.644 827.995 396.163C826.239 402.215 822.172 407.818 818.373 412.741C824.157 410.501 832.357 406.683 838.49 409.179C839.86 409.737 840.78 410.592 841.422 411.948C842.534 414.296 841.454 417.836 840.435 420.021C837.345 426.651 830.439 431.872 824.513 435.844C828.013 435.589 833.378 434.775 836.234 437.374C837.831 438.827 838.55 440.739 838.545 442.886C838.534 448.007 834.681 452.625 831.107 455.933C818.883 467.244 802.528 473.938 788.946 483.442C777.355 491.554 767.122 502.081 755.107 509.425C755.562 529.837 751.968 548.672 747.579 568.499C745.828 576.407 744.206 584.418 742.156 592.252C747.19 595.57 752.796 599.216 754.214 605.52C754.99 608.973 754.948 614.338 752.783 617.319C751.736 618.76 750.778 619.136 749.131 619.44L748.226 619.081C747.972 615.512 753.398 612.169 751.689 608.527C747.811 606.058 739.694 608.207 735.284 608.522C740.577 577.285 754.863 538.904 751.697 507.732C763.461 499.989 773.503 490.407 784.822 482.136C795.131 474.603 833.319 455.512 835.281 444.409C835.515 443.088 835.346 442.226 834.528 441.157C833.538 439.861 831.946 439.184 830.357 439.064C820.296 438.309 807.79 445.348 799.785 450.89C796.65 453.06 793.014 456.317 789.484 457.692C788.033 458.257 787.097 458.212 785.66 457.691C784.879 456.806 784.469 455.998 784.576 454.765C784.673 453.638 784.891 453.168 785.732 452.483C785.933 452.592 786.134 452.703 786.336 452.81C787.036 453.179 787.731 453.485 788.462 453.784C793.398 452.2 798.381 448.174 802.788 445.38C813.064 438.868 831.373 429.503 837.179 418.703C837.936 417.295 838.246 416.171 838.217 414.583C837.711 413.335 837.049 412.408 835.78 411.856C831.339 409.925 824.156 413.641 820.147 415.492C813.357 418.626 806.827 423.023 800.437 426.901L777.019 440.837C771.87 435.43 767.436 429.209 762.997 423.213C769.367 418.175 775.71 413.076 782.262 408.277C786.883 404.894 791.838 401.777 796.288 398.188C798.232 392.958 801.766 385.149 799.074 379.718C798.702 378.969 798.005 378.361 797.16 378.271C794.449 377.983 791.448 380.642 789.581 382.364C783.257 388.201 779.225 396.085 773.182 402.112C767.204 408.076 751.216 417.593 743.331 423.458C739.612 426.224 732.951 430.344 732.538 435.4C732.411 436.952 732.957 438.57 733.747 439.887C735.449 442.723 738.127 444.878 739.852 447.733C745.707 457.421 749.108 472.869 739.933 481.698C739.163 482.44 738.407 483.013 737.455 483.511L736.639 483.421C736.249 481.51 737.51 479.526 738.381 477.893C739.516 475.768 740.947 473.561 741.599 471.228C744.91 459.388 736.446 448.94 730.034 440.069C729.271 428.845 729.014 414.563 719.691 406.558C718 405.106 714.911 402.991 712.575 403.035C711.385 403.057 710.419 403.467 709.703 404.434C706.432 408.856 714.323 434.186 715.539 440.916C706.185 450.605 700.634 460.488 700.958 474.278C701.1 480.323 702.176 488.851 704.995 494.248C707.197 498.465 710.772 502.204 711.689 506.981L711.33 507.325C708.023 505.496 706.149 502.58 704.321 499.4C698.848 510.689 694.396 522.428 689.849 534.111C682.754 552.34 675.541 570.841 671.944 590.139C665.891 586.396 661.205 582.233 656.174 577.276C651.997 585.693 648.511 594.352 644.592 602.881C643.433 605.404 642.679 609.451 643.684 612.127L644.287 612.153C650.161 603.954 652.459 592.66 657.03 583.657C684.031 601.496 715.897 609.506 748.003 610.783C744.538 620.208 742.617 630.144 740.352 639.91C734.13 666.731 727.84 693.382 712.131 716.52C755.795 717.363 799.517 716.699 843.188 716.569C861.556 716.514 880.271 715.788 898.609 716.57C901.004 716.673 904.403 716.657 906.269 718.22C905.577 719.416 904.589 720.003 903.221 720.293C898.511 721.29 892.29 720.451 887.409 720.417L854.778 720.329L710.254 720.549C708.385 731.281 706.884 742.098 705.3 752.876C704.324 759.518 703.743 766.602 701.616 772.98C700.619 775.969 699.07 779.22 696.455 781.122C694.61 782.463 692.378 783.073 690.132 783.286C675.125 784.711 659.961 784.258 644.915 784.762L532.547 787.716C520.106 788.012 507.626 788.309 495.192 788.806C485.465 789.195 474.177 790.679 464.558 788.831C457.355 787.448 402.937 762.119 399.683 757.569C398.926 756.51 398.858 755.324 399.182 754.087C399.522 752.791 400.243 751.779 401.44 751.159C407.509 748.014 451.146 746.083 460.396 746.23C461.411 736.835 462.634 727.428 464.073 718.089C451.736 716.886 439.082 717.783 426.688 717.808C399.056 717.862 371.306 718.372 343.685 717.807C335.833 727.013 327.1 736.876 314.253 738.112C299.663 739.515 286.769 728.686 276.303 720.02C260.357 719.602 244.508 720.026 228.572 720.122L163.244 720.197C151.261 720.203 124.133 721.807 114.128 718.65L113.74 718.064C115.903 716.9 118.689 716.643 121.114 716.5C135.587 715.645 150.61 716.51 165.139 716.512C201.291 716.519 237.513 717.027 273.656 716.57C260.067 701.692 250.379 683.229 241.974 665.073C235.817 651.775 230.09 638.32 222.108 625.977C255.749 618.011 283.022 603.096 308.819 580.211C317.874 600.729 326.717 620.485 330.286 642.849C331.246 648.86 332 655.064 331.768 661.162C331.594 665.72 330.86 670.349 331.075 674.903C331.133 676.144 331.209 676.265 331.924 677.273L331.329 676.977L331.805 677.381C333.504 676.347 333.957 674.014 334.386 672.202C338.774 653.671 330.097 625.147 324.048 607.646C329.437 609.998 334.149 613.213 338.445 617.227C341.742 620.307 353.921 636.545 355.807 636.55C356.167 633.382 353.62 629.18 351.686 626.726C343.133 615.873 334.836 608.8 322.27 603.133C318.516 594.987 314.985 586.74 311.413 578.514C313.808 576.432 317.739 573.778 317.943 570.277C318.02 568.95 317.657 567.943 316.719 566.988C314.827 565.061 308.583 563.544 305.888 563.641C308.534 564.768 313.111 566.007 314.384 568.684C313.693 574.174 303.605 581.105 299.561 584.619C287.815 557.281 276.043 529.414 262.336 503.014C261.197 504.53 260.008 506.603 258.231 507.372L257.64 506.955C256.807 503.197 260.24 497.991 261.385 494.235C263.575 487.047 264.74 479.367 264.721 471.851C264.67 452.041 250.283 446.587 249.571 437.235C249.158 431.803 255.528 417.965 256.166 410.54C256.443 407.319 256.613 403.306 254.443 400.676C253.426 400.21 253.018 400.001 251.86 400.182C248.583 400.693 245.94 403.524 244.143 406.099C237.526 415.581 234.327 428.322 236.3 439.679C231.936 443.642 227.783 447.632 224.981 452.894C213.794 473.902 233.752 477.655 235.292 482.726C234.483 483.521 233.884 483.735 232.749 483.678C229.824 483.531 226.762 480.631 224.817 478.647C220.648 474.395 218.678 468.864 218.876 462.946C219.228 452.444 225.413 445.373 232.635 438.566L231.932 432.152C218.139 424.163 205.272 411.943 195.131 399.727C189.981 393.525 185.221 386.61 179.097 381.334C176.777 379.336 172.491 376.162 169.227 376.908C167.996 377.189 167.09 377.912 166.525 379.035C165.29 381.492 166.476 385.211 167.379 387.586C169.74 393.793 173.831 400.165 178.532 404.86C183.943 410.265 201.501 420.147 203.103 426.881L202.561 427.541C201.02 427.276 199.796 426.462 198.567 425.529C184.045 414.501 168.9 398.579 152.049 391.266C148.808 389.859 144.356 388.086 140.928 389.423C140.043 390.516 139.768 390.802 139.719 392.275C139.524 398.166 147.259 406.195 151.111 410.179C153.839 412.999 156.751 415.645 159.81 418.102C163.285 420.894 183.515 435.51 186.282 435.933C187.228 436.078 188.87 435.272 190.046 435.323C190.952 435.363 190.595 435.218 191.213 435.905C191.199 436.084 191.205 436.265 191.171 436.44C190.673 439.035 187.589 442.841 185.329 444.178L184.5 443.883C184.188 442.153 184.61 440.963 185.13 439.309C175.783 432.75 141.095 412.455 130.682 411.939C128.975 411.854 127.867 412.106 126.556 413.277C125.902 414.678 125.92 415.667 126.258 417.141C129.497 431.248 168.909 449.046 181.672 456.985C180.971 459.014 180.482 461.038 179.075 462.712L178.23 462.654C177.562 461.227 176.995 459.795 176.45 458.317C169.867 452.276 149.41 443.927 140.664 442.371C137.6 441.825 131.881 441.342 129.401 443.615C128.465 444.473 127.996 445.17 128.083 446.48C128.289 449.585 132.588 453.14 134.932 454.883C143.056 460.921 152.864 464.995 161.575 470.16C170.871 475.672 179.796 482.146 188.611 488.401C196.889 494.275 205.427 500.01 212.897 506.913L211.291 510.817C216.68 547.424 222.505 584.739 233.993 619.993C231.276 620.913 228.435 621.669 225.649 622.346C223.53 622.86 219.774 623.351 217.974 621.798C217.065 621.014 216.724 620.181 216.592 619.025C216.023 614.055 222.513 607.411 225.455 603.904C218.024 571.93 211.889 540.178 208.206 507.546C195.617 496.491 179.337 485.377 165.206 476.333C153.175 468.632 136.48 463.396 127.408 452.063C125.809 450.065 124.615 447.448 125.044 444.828C125.358 442.905 126.464 441.399 128.077 440.352C133.486 436.84 139.738 438.163 145.589 439.488C137.511 435.279 127.362 428.362 123.619 419.686C122.603 417.33 122.105 414.453 123.253 412.047C124.027 410.427 125.62 409.32 127.32 408.859C135.368 406.675 145.356 412.792 152.247 416.414C146.592 410.617 138.112 402.347 136.722 393.981C136.399 392.039 136.547 389.84 137.774 388.22C138.873 386.768 140.617 386.08 142.372 385.83C151.882 384.474 162.186 392.638 169.5 397.779C166.84 394.267 164.545 390.231 163.399 385.954C162.638 383.113 162.1 378.482 163.901 375.891C164.837 374.543 166.069 373.83 167.667 373.586C182.059 371.387 197.822 399.064 207.134 408.309C214.882 416 223.563 422.462 232.571 428.578C233.933 419.581 237.977 406.379 244.867 399.965C246.738 398.223 249.011 396.908 251.644 397.116C254.98 397.379 257.023 399.555 259.003 402.012C261.814 413.649 255.986 427.068 252.501 438.056C256.47 443.025 260.664 447.887 263.597 453.569C270.947 467.81 267.976 483.651 263.417 498.286C268.298 507.39 273.084 516.559 277.372 525.96C282.441 537.073 287.037 548.442 292.486 559.374C296.818 560.265 301.14 561.07 305.091 563.134C305.769 557.619 307.769 552.1 309.703 546.906C318.001 524.622 331.7 503.857 350.611 489.202C371.285 473.18 396.756 464.466 422.565 461.594C429.6 460.811 436.648 460.649 443.703 460.172C443.246 445.128 442.938 429.547 440.949 414.612C429.861 403.988 424.198 392.825 419.812 378.208C412.944 379.621 406.902 379.831 400.83 375.65C396.099 372.392 392.846 367.056 391.942 361.402C391.087 356.047 392.441 350.735 395.739 346.434C397.73 343.837 400.244 341.851 403.025 340.166C399.614 324.393 395.7 303.335 404.956 288.924C412.936 276.501 427.856 270.722 441.694 267.815C443.672 267.399 445.665 267.063 447.66 266.741ZM492.495 613.738C488.079 614.599 484.308 616.065 481.767 619.988C480.201 622.406 479.658 624.893 479.161 627.671C477.411 637.45 476.419 647.434 475.17 657.289L467.909 715.74L462.925 753.34C461.743 762.249 460.017 771.321 460.358 780.331C461.478 782.054 462.526 783.782 463.945 785.281C474.523 786.731 485.164 786.097 495.794 785.738L531.866 784.478L625.797 781.814C645.127 781.276 664.558 780.395 683.89 780.418C687.997 780.191 693.476 780.355 696.369 776.869C698.28 774.566 698.865 770.192 699.421 767.316C704.091 743.149 706.978 718.531 710.996 694.242L717.46 656.521C719.24 646.587 723.682 634.653 722.283 624.638C721.944 622.206 721.001 618.878 718.922 617.358C708.696 614.768 697.936 615.251 687.454 615.138L643.883 614.977L538.75 614.346C523.359 614.246 507.877 613.404 492.495 613.738ZM446.358 331.081C440.685 332.947 434.965 334.651 429.15 336.023C429.335 339.575 429.994 346.721 427.312 349.509C426.728 350.116 426.222 349.993 425.436 350.091C418.818 347.968 413.508 338.922 405.591 342.694C401.713 344.541 397.898 349.191 396.627 353.268C395.254 357.674 395.156 362.677 397.495 366.783C399.635 370.539 403.618 373.163 407.741 374.253C412.462 375.501 417.141 374.591 421.858 373.903C421.958 374.086 422.061 374.269 422.158 374.454C424.799 379.465 426.221 385.046 428.448 390.247C435.631 407.018 447.807 416.635 465.008 422.071C479.77 426.736 496.893 429.063 511.89 424.087C524.581 418.345 533.499 410.454 538.435 397.126C542.668 385.694 543.102 372.183 542.44 360.105C533.308 359.361 524.013 357.584 517.86 350.04C515.089 346.644 514.092 337.397 509.518 336.8C506.526 336.41 502.34 338.806 500.208 340.705C499.679 341.177 499.219 341.691 498.747 342.219C498.51 349.261 497.578 355.251 492.156 360.362C487.128 365.101 479.891 367.638 473.025 367.375C465.035 367.069 457.439 363.271 452.155 357.315C447.455 352.018 444.954 346.082 445.482 338.914C445.648 336.656 445.97 334.497 446.412 332.278C446.553 331.57 446.529 331.851 446.358 331.081ZM444.581 417.613C446.152 432.211 447.747 446.682 447.429 461.381C445.534 463.18 443.926 464.854 442.47 467.055C442.394 475.711 444.424 481.71 450.597 487.909C458.146 495.489 468.64 498.5 479.153 498.49C487.53 498.481 496.173 496.37 502.679 490.868C507.806 486.409 512.661 479.316 513.221 472.376C513.42 469.902 512.885 466.981 511.196 465.068C510.161 463.894 508.511 463.159 507.15 462.426C505.651 451.792 505.779 440.552 505.247 429.817C485.811 434.157 461.57 426.943 444.581 417.613ZM455.776 295.988C443.571 305.662 434.771 316.682 430.586 331.822C442.387 328.602 453.514 324.314 464.827 319.695C465.325 318.134 465.31 317.778 466.642 316.735C470.987 315.921 475.245 319.267 479.418 318.819C479.469 317.41 479.269 315.334 480.172 314.19C481.374 314.218 481.873 314.692 482.804 315.401C483.925 317.241 483.734 319.514 483.821 321.613C490.394 326.255 494.154 330.201 497.884 337.295C501.658 334.911 505.539 332.477 510.206 333.633C511.548 333.966 512.646 334.678 513.745 335.482C514.683 333.177 519.464 324.625 518.899 322.667C518.041 319.689 518.323 318.585 519.636 315.896C522.729 309.814 527.09 303.719 531.53 298.543L531.562 297.679C526.81 298.687 522.613 301.105 517.026 302.138C496.557 305.923 475.645 300.561 455.776 295.988ZM468.21 323.648C461.811 324.556 455.165 326.176 451.11 331.706C448.73 334.951 448.039 338.973 448.697 342.902C449.846 349.759 454.632 355.844 460.318 359.671C464.922 362.77 469.779 364.034 475.282 364.401C482.129 362.754 488.398 360.257 492.226 353.903C494.946 349.386 495.433 343.939 494.132 338.881C492.777 333.611 489.48 329.386 484.703 326.786C479.982 324.216 473.58 322.901 468.21 323.648ZM819.005 387.978C800.137 396.951 784.398 411.598 767.579 423.701C770.632 427.325 773.81 430.896 776.64 434.696C777.445 435.284 777.581 435.689 778.622 435.553C781.987 435.111 786.181 432.273 789.071 430.548C801.331 423.23 812.502 415.54 820.849 403.676C822.89 400.774 826.696 394.911 825.74 391.289C825.4 390.002 824.596 389.149 823.414 388.594C822.012 387.934 820.515 387.885 819.005 387.978ZM457.482 749.724C448.243 750.339 408.148 751.486 402.685 754.503L402.458 755.286C406.496 759.368 416.964 763.11 422.396 765.837C434.058 771.16 445.646 776.584 456.966 782.614C456.552 774.674 457.566 767.239 458.614 759.408C459.041 756.22 459.72 752.877 459.716 749.663C458.941 749.638 458.249 749.592 457.482 749.724ZM377.556 545.162C378.411 593.085 373.899 630.527 359.425 676.451C356.902 684.457 353.795 692.881 350.242 700.497C348.695 703.812 346.668 706.904 345.265 710.292C344.776 711.471 344.106 712.811 344.56 714.025C345.436 714.339 346.261 714.791 347.195 714.647C352.442 707.557 355.363 698.398 358.442 690.191C373.454 650.177 381.207 608.306 381.605 565.57C381.649 560.878 382.328 555.794 381.735 551.161C381.506 549.368 381.189 547.646 380.125 546.15C379.272 545.771 378.456 545.414 377.556 545.162ZM535.938 320.059C529.478 321.802 523.273 324.494 519.746 330.576C517.611 334.259 516.914 338.625 518.185 342.723C519.814 347.973 523.881 351.637 528.687 353.994C529.602 354.443 530.525 354.868 531.459 355.275C534.941 356.177 538.304 356.551 541.885 356.837C541.652 352.341 541.343 347.975 540.228 343.597C538.201 343.224 535.527 343.061 534.32 341.137C533.412 339.688 533.133 337.986 533.657 336.376C536.775 333.433 538.678 334.735 538.805 329.462C538.868 326.841 538.636 322.446 537.39 320.13L535.938 320.059ZM541.36 319.048C542.547 331.631 543.797 344.183 545.651 356.69C549.969 354.99 553.51 353.313 557.086 350.293C560.646 345.786 563.214 340.961 562.639 335.018C562.179 330.265 559.677 326.06 555.885 323.201C551.442 319.85 546.728 319.133 541.36 319.048ZM586.973 548.206C586.475 549.107 585.971 550.062 585.819 551.093C584.415 560.572 591.155 595.963 593.979 605.843C594.552 607.845 595.245 610.054 596.634 611.646C597.398 610.532 597.554 609.705 597.543 608.387C597.483 600.545 595.342 592.152 594.179 584.356C592.777 574.951 591.95 565.435 590.198 556.087C589.733 553.606 589.31 551 587.96 548.829L586.973 548.206ZM533.772 299.478C529.853 306.009 524.966 311.891 521.161 318.484C522.722 319.216 535.837 316.227 538.565 315.793C538.395 312.189 538.299 301.603 537.122 298.776C536.729 297.833 536.38 297.951 535.52 297.637L535.582 297.387L536.843 297.235L536.183 296.093L533.772 299.478Z"/>
	<path fill="#232021" transform="scale(2.26367 2.26367)" d="M473.69 340.525C474.537 340.494 475.417 340.451 476.26 340.555C477.983 340.768 479.689 341.861 480.584 343.348C481.298 344.532 481.446 345.931 481.099 347.255C480.497 349.554 479.12 350.435 477.12 351.512C476.895 351.518 476.67 351.534 476.445 351.53C474.425 351.49 472.037 350.865 470.766 349.168C470.071 348.24 469.843 347.165 469.97 346.026C470.246 343.534 471.9 342.083 473.69 340.525Z"/>
	<path fill="#232021" transform="scale(2.26367 2.26367)" d="M407.878 351.273C408.777 351.377 409.196 351.513 409.932 352.042C410.049 353.826 408.928 354.95 408.137 356.5C406.367 359.973 412.481 361.314 413.884 365.334C411.318 364.769 409.312 364.108 407.277 362.379C405.754 361.084 404.677 359.41 404.646 357.365C404.606 354.668 406.085 353.089 407.878 351.273Z"/>
	<path fill="#232021" transform="scale(2.26367 2.26367)" d="M515.631 377.123C517.036 377.019 517.214 376.854 518.344 377.651C518.973 380.362 516.941 384.291 515.63 386.61C512.437 392.261 508.598 395.764 502.356 397.536C499.491 396.927 497.205 395.947 494.694 394.444C490.774 390.962 489.287 386.29 487.671 381.491C496.97 380.257 506.497 379.255 515.631 377.123Z"/>
	<path fill="#232021" transform="scale(2.26367 2.26367)" d="M616.294 697.938C617.135 698.403 617.446 698.804 618.051 699.531C616.99 702.815 587.781 723.932 583.223 727.186C582.514 726.61 581.862 725.976 581.197 725.351C583.719 720.98 610.344 702.302 616.294 697.938Z"/>
	<path fill="#232021" transform="scale(2.26367 2.26367)" d="M591.022 684.342C592.14 684.944 592.554 685.042 593.18 686.124C590.557 690.877 566.593 709.606 560.755 714.445C560.03 714.343 559.645 714.046 559.027 713.673L558.832 712.569C562.925 705.43 583.852 690.166 591.022 684.342Z"/>
</svg>
