<?xml version="1.0" encoding="utf-8" ?>
<svg xmlns="http://www.w3.org/2000/svg" xmlns:xlink="http://www.w3.org/1999/xlink" width="1049" height="1049">
	<path fill="white" transform="scale(1.02441 1.02441)" d="M0 0L0 1024L1024 1024L1024 0L0 0Z"/>
	<path transform="scale(1.02441 1.02441)" d="M368.327 91.9966C374.012 78.0074 380.65 65.3546 390.841 54.0171C412.855 29.5274 448.876 20.0063 480.834 18.2152C504.558 16.5452 529.305 20.1176 552.25 26.0026C604.39 39.3755 650.774 69.8217 678.294 116.786C703.184 159.262 708.87 209.593 696.59 256.962C705.142 264.236 709.883 272.004 711.526 283.212C714.84 305.816 705.572 333.367 692.034 351.376C684.788 361.014 677.813 365.276 665.814 367.035C655.915 406.016 634.93 442.556 606.145 470.519C608.083 489.872 613.917 515.79 620.866 534.101L628.095 536.141C624.521 544.077 619.873 551.645 615.118 558.921C593.227 592.414 563.454 618.282 529.699 639.341L512.776 649.575C507.559 647.143 502.499 643.911 497.51 641.031C455.413 616.72 418.051 579.999 395.625 536.617C398.758 535.699 401.979 534.979 405.144 534.173C411.816 513.678 414.704 491.34 418.244 470.083C411.296 464.428 405.468 457.192 400.078 450.075C381.121 425.05 368.137 397.491 358.861 367.596C354.695 366.624 350.67 365.066 346.985 362.883C329.767 352.684 319.786 330.846 315.014 312.228C311.834 299.817 309.154 281.811 316.269 270.239C320.629 263.148 327.027 260.249 334.737 258.293C324.813 218.797 317.004 160.367 335.648 122.691C342.531 108.783 353.394 97.079 368.327 91.9966ZM423.556 167.651C413.231 194.233 398.48 224.795 371.717 237.852C372.736 255.446 372.052 272.416 370.887 289.974L377.807 290.369C378.999 282.296 382.596 275.231 389.307 270.292C405.952 258.043 446.233 259.8 466.096 263.042C475.43 264.566 484.264 267.379 491.565 273.548C505.31 273.125 518.843 273.253 532.581 273.416C551.493 260.749 570.671 261.121 592.578 260.864C607.5 261.055 627.375 261.006 638.414 272.749C643.067 277.698 645.246 283.555 646.463 290.128L653.394 290.003C650.309 270.073 648.836 251.502 652.452 231.463C633.51 233.774 614.707 235.186 595.599 234.319C546.412 232.085 499.404 214.517 457.26 189.831C445.588 182.994 434.988 174.761 423.556 167.651ZM687.984 268.095L680.686 294.842C679.01 301.036 677.549 307.721 674.877 313.561C673.921 315.651 672.62 317.9 670.6 319.128C669.253 319.947 667.819 319.994 666.355 319.484C661.51 317.798 658.683 308.951 657.048 304.607L646.435 304.404C643.854 319.87 639.147 336.753 625.801 346.392C611.915 356.42 592.58 356.678 576.344 353.858C561.924 351.353 548.846 344.311 540.435 332.114C531.237 318.774 528.111 303.194 526.975 287.309C517.302 287.123 507.615 287.163 497.944 287.482C496.249 308.071 490.986 328.272 474.574 342.159C460.757 353.85 440.529 356.769 422.994 355.136C411.611 354.077 400.187 350.302 392.655 341.274C383.957 330.849 380.514 316.45 378.139 303.405C375.008 303.405 371.856 303.333 368.728 303.44C367.177 309.034 365.008 318.953 359.942 322.364C359.171 322.883 358.476 322.915 357.586 322.964C355.095 322.127 353.98 320.192 352.875 317.92C348.594 309.116 340.109 274.475 338.034 271.771C337.79 271.453 337.373 271.319 337.043 271.093C334.241 270.865 332.09 272.291 330.006 274.05C326.248 277.222 325.252 280.908 324.927 285.647C324.242 295.633 326.413 306.121 329.314 315.622C333.921 328.71 341.335 346.245 354.867 352.467C358.035 353.924 366.327 354.029 368.513 356.298C368.963 356.765 369.291 357.843 369.515 358.419C371.445 363.367 372.592 368.721 374.188 373.795C375.611 378.32 377.465 382.744 379.241 387.141C395.737 427.989 422.708 466.403 463.898 485.151C493.016 498.404 524.896 499.17 554.745 487.845C596.229 472.106 624.365 435.037 641.859 395.773C645.186 388.305 648.379 380.414 650.725 372.59C652.108 367.977 652.538 362.194 654.655 357.92C655.585 356.044 656.94 354.659 658.894 353.861C661.56 352.773 664.753 353.793 667.447 354.355C678.496 350.331 684.409 340.115 689.198 329.928C696.079 315.291 703.04 295.07 697.07 279.051C695.377 274.508 692.408 270.27 687.984 268.095ZM430.312 273.734C418.74 274.118 403.754 273.864 395.015 282.824C391.138 286.799 389.646 291.791 389.862 297.264C390.326 309.06 395.023 326.691 404.234 334.777C412.796 342.293 425.501 343.165 436.338 342.324C438.972 342.12 441.591 341.716 444.206 341.348C456.052 339.147 466.546 334.95 473.619 324.699C480.983 314.024 483.801 299.22 485.276 286.581C480.134 279.418 471.811 276.687 463.453 275.335C452.624 273.583 441.261 273.541 430.312 273.734ZM579.437 273.715C564.522 274.604 550.016 274.771 539.248 286.517C540.897 302.023 545.683 322.568 558.481 332.741C568.881 341.009 582.757 342.426 595.59 342.419C606.412 341.411 616.268 339.854 623.594 330.931C630.524 322.491 635.549 304.475 634.399 293.725C633.837 288.474 631.553 283.784 627.298 280.564C615.961 271.982 593.269 273.471 579.437 273.715Z"/>
	<path transform="scale(1.02441 1.02441)" d="M538.907 427.494C530.411 430.804 521.536 432.644 512.393 432.556C504.787 432.483 488.183 431.282 482.9 424.98C482.032 423.944 481.569 422.935 481.774 421.553C482.151 419.01 484.38 416.919 486.332 415.488C491.758 415.012 502.192 419.619 509.5 419.824C513.598 419.94 518.01 419.554 522.055 418.891C527.435 418.008 534.172 414.852 539.518 416.087C540.948 416.418 542.465 417.259 543.135 418.624C543.781 419.938 543.577 421.477 543.215 422.833C542.527 425.412 541.064 426.178 538.907 427.494Z"/>
	<path transform="scale(1.02441 1.02441)" d="M512.661 655.958C521.915 652.072 530.982 646.049 539.402 640.637C579.12 615.109 614.162 580.371 634.761 537.437C640.694 539.165 646.825 540.44 652.839 541.871C635.552 591.058 607.486 622.536 566.524 653.646C560.846 657.958 554.566 661.416 548.868 665.714C540.276 666.231 531.439 665.824 522.826 665.818L475.245 665.731C467.982 660.308 460.245 655.53 453 650.052C419.921 625.037 395.381 598.253 377.998 560.42C375.463 554.729 373.271 548.804 371.397 542.865C377.237 540.701 383.904 539.605 389.993 538.173C404.827 571.104 436.322 605.519 464.904 627.122C479.753 638.344 495.883 647.922 512.661 655.958Z"/>
	<path transform="scale(1.02441 1.02441)" d="M560.645 665.506C591.747 644.633 621.893 616.559 640.92 583.999C648.49 571.046 654.133 557.548 658.86 543.335C677.734 548.113 696.429 553.697 714.998 559.538C747.137 569.648 778.109 580.288 806.193 599.413C826.052 612.937 845.096 631.775 857.243 652.589C868.044 671.097 875.796 695.659 882.787 716.167C900.837 769.106 914.875 822.962 927.769 877.348C935.54 910.123 943.297 943.149 949.557 976.246L816.75 976.304L793.1 976.342C796.455 951.389 798.956 926.296 801.946 901.295L817.171 776.128L824.77 713.639C825.975 703.953 828.231 693.648 828.413 683.949C828.508 678.908 826.163 673.912 822.556 670.427C819.944 667.905 816.552 666.182 812.943 665.711C804.331 664.587 794.816 665.282 786.128 665.276L735.19 665.273L560.645 665.506Z"/>
	<path transform="scale(1.02441 1.02441)" d="M74.3875 976.399C80.2272 953.873 84.0736 929.296 89.3792 906.33C104.323 841.647 120.599 776.904 141.861 713.962C148.579 694.074 154.472 672.767 164.363 654.205C194.387 597.858 259.998 573.65 317.752 557.008C333.381 552.504 349.324 548.879 364.861 544.125C366.956 546.962 369.647 556.274 371.3 560.224C373.934 566.516 376.916 572.727 380.096 578.761C399.034 614.693 431.45 642.96 464.391 665.726L281.439 665.494L236.253 665.537C228.793 665.531 220.549 664.81 213.21 665.881C207.943 666.65 203.145 670.038 200.042 674.265C197.142 678.215 195.561 682.786 195.658 687.693C195.839 696.916 197.645 706.437 198.826 715.583C201.203 734.008 203.802 752.397 205.975 770.848L219.271 877.467L228.203 949.21C229.334 958.241 230.147 967.309 231.395 976.325L211.25 976.363L74.3875 976.399Z"/>
	<path transform="scale(1.02441 1.02441)" d="M665.29 995.694L387.838 995.725L302.494 995.729C289.082 995.764 271.223 996.802 258.314 995.591C252.734 995.068 248.704 994.073 244.559 989.946C241.654 987.053 240.417 984.023 239.708 980.057C238.302 972.19 237.557 964.107 236.572 956.171L230.777 908.529L214.642 779.102L206.846 718.433C205.55 708.544 203.224 697.761 203.221 687.83C203.219 683.254 204.357 679.674 207.716 676.462C209.939 674.336 212.434 673.371 215.44 672.929C220.814 672.139 226.47 672.459 231.892 672.468L256.732 672.432L359.611 672.25L656.941 672.403L759.396 672.236L790.506 672.33C796.305 672.321 802.183 671.966 807.973 672.253C811.436 672.425 814.834 673.189 817.583 675.418C819.313 676.819 821.214 679.253 821.312 681.551C821.775 692.403 818.807 705.289 817.442 716.176L808.752 787.161L793.286 913.398C790.672 935.515 789.116 958.096 785.523 980.058C784.895 983.9 783.72 987.574 780.93 990.391C778.402 992.943 775.08 994.728 771.53 995.349C762.724 996.89 747.096 995.737 737.607 995.714L665.29 995.694ZM510.239 802.69C499.406 803.748 490.043 807.917 482.998 816.438C476.812 823.921 473.739 833.894 474.765 843.559C475.858 853.85 481.109 863.219 489.181 869.663C496.75 875.707 505.52 878.267 515.153 877.931C526.024 876.713 535.078 872.579 542.063 863.927C548.316 856.182 551.469 845.859 550.306 835.95C549.099 825.678 543.757 816.16 535.609 809.789C528.371 804.13 519.296 802.137 510.239 802.69Z"/>
</svg>
