<?xml version="1.0" encoding="utf-8" ?>
<svg xmlns="http://www.w3.org/2000/svg" xmlns:xlink="http://www.w3.org/1999/xlink" width="1049" height="1049">
	<path fill="white" transform="scale(1.02441 1.02441)" d="M0 0L0 1024L1024 1024L1024 0L0 0Z"/>
	<path transform="scale(1.02441 1.02441)" d="M354.481 232.921L354.151 184.562C354.115 174.108 353.817 163.556 354.807 153.137C357.403 125.834 369.124 99.9657 386.812 79.1383C415.444 45.4245 455.939 28.2195 499.335 24.7094C508.842 23.37 520.684 24.086 530.24 25.1185C573.057 29.7445 612.553 49.031 639.64 83.0865C657.501 105.542 667.154 134.712 669.222 163.145C669.997 173.797 669.485 184.749 669.504 195.438C669.526 207.832 670.179 220.57 668.82 232.886C671.892 232.526 674.377 232.371 677.362 233.482C682.427 235.367 685.646 239.166 687.817 244.006C693.649 257.014 691.454 274.135 686.44 287.021C682.454 297.264 676.072 309.032 665.619 313.677C658.902 342.267 648.279 369.563 632.617 394.487C627.75 402.232 622.291 409.498 617.021 416.963L616.76 479.206C616.721 490.543 616.974 501.895 616.715 513.229C611.583 518.169 605.614 522.468 599.8 526.573C577.193 542.537 552.859 553.349 525.122 556.293C515.094 558.025 501.021 556.974 490.934 555.634C462.29 551.829 427.767 538.057 409.708 514.408C408.782 502.497 409.221 490.191 409.197 478.23L409.046 417.504C384.133 387.381 367.003 352.461 358.38 314.286C357.961 314.092 357.546 313.891 357.125 313.702C355.41 312.933 353.907 312.28 352.503 310.987C341.6 300.958 332.918 276.556 332.296 261.876C331.952 253.738 333.17 244.263 339.077 238.132C343.482 233.561 348.486 232.91 354.481 232.921ZM424.972 145.715C415.047 169.806 400.975 190.642 381.503 208.067C376.207 212.807 369.733 216.512 364.699 221.413C372.005 228.241 381.015 233.07 388.374 240.028C391.386 232.821 395.599 227.352 403.113 224.368C406.232 223.129 409.662 222.607 412.995 222.349C423.536 221.534 434.548 222.217 445.132 222.268C453.549 222.308 462.421 221.705 470.788 222.46C474.174 222.766 477.788 223.445 480.9 224.833C489.441 228.644 497.209 237.185 500.595 245.846C508.431 245.709 516.259 245.594 524.097 245.652C527.015 236.939 532.909 229.851 541.174 225.736C551.845 220.422 563.764 222.511 575.25 222.305C585.377 222.204 607.915 220.867 616.588 222.763C620.945 223.716 624.979 225.804 628.179 228.924C631.412 232.077 633.097 235.641 634.933 239.663C642.86 232.796 652.069 227.075 659.577 219.793C637.592 208.271 605.411 204.316 581.007 199.224C562.438 195.349 543.761 190.612 525.529 185.379C499.864 178.012 475.06 168.892 450.617 158.161C441.94 154.352 433.707 149.24 424.972 145.715ZM411.495 233.081C407.021 234.048 403.475 235.532 400.934 239.541C397.153 245.505 398.843 255.281 400.483 261.784C403.254 272.77 409.356 283.105 419.309 288.96C432.194 296.54 450.489 297.211 464.65 293.357C467.936 292.463 471.053 291.265 474.148 289.853C482.57 284.629 488.035 278.205 490.396 268.423C492.269 260.66 491.888 251.542 487.569 244.628C484.007 238.925 477.602 234.808 471.062 233.454C462.764 231.737 450.697 232.903 442.055 232.94C431.92 232.983 421.604 232.455 411.495 233.081ZM552.969 233.124C546.543 234.569 541.332 237.639 537.651 243.264C532.932 250.477 531.955 260.574 533.919 268.869C535.916 277.301 540.911 284.287 548.3 288.825C560.524 296.333 578.478 297.093 592.111 293.757C595.325 292.971 598.435 291.881 601.444 290.505C612.397 284.703 618.575 277.001 622.193 265.122C624.256 258.349 627.054 246.765 623.526 240.175C621.662 236.693 618.261 234.492 614.495 233.549C607.205 231.723 593.103 232.931 585.186 232.956C574.477 232.989 563.659 232.527 552.969 233.124ZM365.353 235.218C366.126 248.797 366.45 262.179 366.412 275.779C366.389 283.841 365.608 292.799 366.527 300.754C367.459 308.825 370.074 317.331 372.331 325.133C384.691 367.863 408.755 407.082 442.008 436.77C465.029 457.323 489.305 469.401 520.87 467.561C550.539 465.831 583.594 437.703 602.633 416.125C623.622 392.337 638.788 364.196 648.583 334.104C650.867 326.768 653.202 319.344 654.562 311.768C655.571 306.146 656.005 300.362 656.748 294.695C657.432 289.479 658.35 284.181 658.439 278.917C658.544 272.769 657.965 266.643 657.782 260.502C657.53 252.074 657.724 243.453 658.213 235.039C650.705 240.43 643.754 246.681 636.104 251.843C633.859 268.791 629.388 284.444 615.203 295.262C601.418 305.776 581.786 308.189 565.033 305.82C551.917 303.965 538.476 298.714 530.281 287.825C523.111 278.297 521.757 267.642 522.368 256.077C515.635 256.078 508.893 256.159 502.165 255.88C501.944 269.798 500.187 282.032 489.676 292.184C477.962 303.497 460.551 306.885 444.79 306.506C429.893 306.148 414.253 301.829 403.729 290.732C394.407 280.901 388.704 266.045 388.297 252.565C380.514 246.961 373.188 240.774 365.353 235.218Z"/>
	<path transform="scale(1.02441 1.02441)" d="M61.8072 953.459C64.1662 937.599 65.8311 921.627 68.4749 905.808C75.8883 861.448 85.4064 817.518 96.8109 774.017C111.309 718.715 128.783 662.73 156.246 612.346C165.697 595.008 176.793 578.704 191.591 565.448C220.041 539.961 256.92 526.223 292.491 513.952C327.811 501.767 363.697 492.166 399.485 481.587L399.921 481.933C400.784 485.64 400.222 490.438 400.223 494.265C400.226 502.249 400.159 510.251 400.548 518.227C409.636 528.992 421.551 538.835 433.707 545.982C468.417 566.387 511.315 570.945 550.054 560.874C573.16 554.867 594.015 542.362 612.81 527.947C617.131 524.633 622.737 520.973 625.527 516.249C625.675 504.663 625.511 493.055 625.449 481.469C664.737 489.869 702.986 501.979 740.339 516.777C765.948 526.923 790.826 537.66 813.64 553.337C830.384 564.841 844.73 577.599 856.662 594.127C899.83 653.925 934.862 798.181 948.737 872.622C951.916 889.679 954.846 906.759 957.418 923.918C958.892 933.751 959.878 943.714 961.683 953.486L815.293 953.616L843.701 723.833L851.615 659.7C852.977 648.774 855.177 637.326 855.487 626.341C855.697 618.902 853.729 612.9 848.462 607.486C845.406 604.344 840.734 601.617 836.397 600.902C831.233 600.05 825.686 600.415 820.455 600.423L796.632 600.419L707.75 600.383L358.493 600.361L246.986 600.354L211.666 600.313C204.497 600.301 197.196 600.042 190.044 600.525C183.048 600.997 176.59 604.114 172.083 609.547C168.752 613.562 167.292 618.558 167.336 623.729C167.459 637.997 170.641 652.96 172.606 667.112L181.868 736.115C186.106 766.997 189.604 798.002 193.636 828.913C199.051 870.426 204.813 911.921 209.42 953.534C193.045 953.923 176.585 953.581 160.201 953.571L61.8072 953.459Z"/>
	<path transform="scale(1.02441 1.02441)" d="M805.309 963.7C804.498 970.098 804.722 977.907 802.052 983.8C800.613 986.974 798.828 989.088 795.553 990.301C793.23 991.161 790.755 991.643 788.289 991.849C780.565 992.497 772.416 992.026 764.644 992.027L721.453 992.112L559.713 992.103L322.674 992.135L266.188 992.073C256.744 992.1 247.275 992.435 237.835 992.284C234.954 992.238 232.28 992.11 229.646 990.805C226.46 989.227 223.293 986.057 222.341 982.544C221.242 978.487 221.036 973.758 220.488 969.571L216.768 939.601L206.601 859.904L186.469 704.001L180.124 655.661C178.824 646.053 177.194 636.388 176.275 626.739C175.899 622.781 176.011 619.404 178.286 615.943C181.057 611.729 185.229 610.013 190.001 609.133C205.61 608.324 221.562 608.988 237.214 608.976L328.991 608.979L601.478 609.062L764.199 609.076L807.885 609.147C815.752 609.111 824.657 608.215 832.422 609.345C836.923 610 840.994 611.845 843.738 615.582C845.84 618.447 847.001 621.678 846.947 625.239C846.791 635.63 844.523 646.638 843.28 656.978L833.772 732.125L805.309 963.7ZM506.757 768.093C496.891 769.988 488.371 774.505 482.592 782.941C477.392 790.531 475.418 800.43 477.17 809.451C478.998 818.861 484.419 827.106 492.391 832.442C499.954 837.504 509.343 839.593 518.328 837.996C528.814 835.05 537.499 829.936 542.977 820.194C547.646 811.892 548.771 801.767 546.065 792.637C543.45 783.812 537.373 776.38 529.236 772.073C522.322 768.412 514.489 767.322 506.757 768.093Z"/>
</svg>
