<?xml version="1.0" encoding="utf-8" ?>
<svg xmlns="http://www.w3.org/2000/svg" xmlns:xlink="http://www.w3.org/1999/xlink" width="1049" height="1049">
	<path fill="white" transform="scale(1.02441 1.02441)" d="M0 0L0 1024L1024 1024L1024 0L0 0Z"/>
	<path transform="scale(1.02441 1.02441)" d="M311.31 259.973C311.034 244.286 311.177 228.574 311.152 212.883C311.133 201.054 310.839 189.155 311.773 177.352C314.792 139.19 329.678 106.836 355.186 78.4002C391.632 37.7714 433.551 19.6554 487.322 16.7169C487.714 16.6843 488.106 16.6558 488.498 16.6413C543.999 14.5954 617.235 35.203 658.392 73.8359C715.741 127.667 712.711 189.224 715.054 261.495C719.003 262.585 722.242 264.226 725.473 266.707C736.385 275.085 742.456 289.205 744.203 302.551C746.472 319.886 742.85 339.25 732.004 353.271C724.591 362.853 715.282 368.725 703.227 370.193C701.187 380.55 699.483 390.878 696.294 400.971C683.89 440.22 657.71 476.863 624.179 500.771C623.729 517.625 624.163 534.521 623.949 551.386C637.666 553.391 651.312 554.517 664.902 557.476C724.171 570.381 778.375 601.225 821.469 643.719C832.681 654.775 844.014 667.285 852.766 680.394C865.526 699.503 876.586 720.068 887.369 740.331C901.329 766.563 914.796 793.089 928.231 819.594L945.455 853.397C949.766 861.722 954.627 870.081 957.919 878.865C961.133 887.441 962.781 896.589 962.793 905.748C962.823 928.983 953.383 951.876 936.927 968.229C923.348 981.724 906.957 989.907 888.139 993.348C874.035 995.927 858.941 995.05 844.638 995.097L775.221 995.02L538.25 995.072L258.637 995.158L185.849 995.163C170.445 995.192 154.042 996.271 138.796 993.797C121.626 991.01 104.834 983.498 91.8026 971.912C74.2002 956.262 63.4221 934.302 62.2119 910.699C61.6755 900.239 62.9501 889.688 66.4824 879.797C69.3253 871.837 73.89 864.392 77.7404 856.875L98.3592 816.536L136.387 742.276C151.496 712.843 164.468 684.575 186.829 659.675C227.663 614.203 273.739 583.339 332.086 564.949C354.04 558.03 376.388 553.169 399.396 551.936L399.176 500.221C367.65 477.669 343.315 443.234 330.599 406.784C326.649 395.462 323.907 383.478 321.543 371.736C318.108 370.841 314.733 369.908 311.482 368.465C298.312 362.616 288.25 351.473 283.184 338.075C276.731 321.011 276.569 301.396 284.219 284.679C289.937 272.186 298.54 264.715 311.31 259.973ZM404.704 176.23C386.512 213.166 369.7 231.796 334.985 253.138L370.405 285.09C375.126 280.819 379.801 277.958 386.136 276.738C395.061 275.019 413.194 276.135 423.353 276.165C438.504 276.211 454.005 275.533 469.119 276.369C479.072 276.92 487.929 279.817 494.694 287.454C496.447 289.433 497.896 291.727 499.216 294.008C507.822 293.798 516.458 293.964 525.053 293.563C530.696 284.808 537.012 279.227 547.369 277.053C556.023 275.236 565.734 276.254 574.556 276.316L611.489 276.337C630.521 276.043 639.305 273.182 654.529 286.244C660.793 281.382 666.539 275.859 672.475 270.606C676.785 266.792 681.32 263.217 685.474 259.232C685.41 247.783 685.672 236.259 685.367 224.822C605.34 247.028 512.136 240.69 439.114 199.335C426.959 192.451 415.768 184.74 404.704 176.23ZM317.542 276.5C309.096 279.881 303.724 285.05 300.155 293.398C294.79 305.948 294.917 319.968 300.021 332.582C301.823 337.034 304.22 340.964 307.414 344.556C311.142 348.151 314.792 350.908 319.349 353.38C318.739 337.92 318.376 322.495 318.335 307.024C318.312 297.877 318.802 288.568 318.344 279.448C318.287 278.308 318.238 277.448 317.542 276.5ZM704.499 276.106L704.52 352.365C709.888 349.984 713.792 347.335 717.769 342.938C725.827 332.191 728.474 319.027 726.648 305.801C725.355 296.434 721.394 285.879 713.462 280.182C710.766 278.245 707.715 276.906 704.499 276.106ZM448.189 293.76L412.81 293.855C405.344 293.832 396.878 292.938 389.59 294.461C387.163 294.968 385.068 296.022 383.32 297.8C382.044 299.099 381.237 300.595 380.827 302.363C379.621 307.567 380.213 323.649 380.492 329.897C380.93 339.711 384.853 349.563 392.268 356.194C397.838 361.175 405.886 364.266 413.375 364.071L434.585 364.008C449.162 364.077 461.043 364.179 471.913 353.052C484.29 340.38 482.986 323.081 482.692 306.709C482.622 302.806 481.484 299.29 478.518 296.639C472.869 291.591 455.642 293.643 448.189 293.76ZM554.475 293.72C549.934 294.167 546.073 295.278 543.112 299.039C542.541 299.764 542.051 300.559 541.57 301.345C541.123 319.041 539.207 339.14 552.55 352.957C559.466 360.119 568.536 363.986 578.485 364.062C584.169 364.105 589.854 363.901 595.538 363.936C606.292 364.002 615.941 365.192 625.694 359.8C634.288 353.686 640.03 346.769 641.821 336.097C642.71 330.801 643.023 309.621 642.341 304.416C642.095 302.537 641.644 300.861 640.513 299.314C638.279 296.259 635.848 294.741 632.114 294.306C622.391 293.174 611.787 293.979 601.974 293.969C586.148 293.952 570.297 293.565 554.475 293.72ZM336.413 296.939C334.01 358.162 341.629 416.115 384.78 462.842C416.54 497.234 460.06 518.185 507.014 519.925C552.048 521.595 595.58 504.838 628.433 474.131C658.397 446.123 679.718 408.843 685.34 367.911C686.658 356.164 686.542 344.6 686.552 332.801C686.562 321.389 686.63 309.971 686.458 298.56C677.887 306.407 669.532 314.59 660.63 322.057C661.198 338.551 658.578 353.528 646.973 366.024C637.789 375.914 624.131 382.262 610.606 382.633C603.85 382.819 597.076 382.458 590.316 382.52C570.57 382.7 557.168 382.364 541.897 367.929C528.622 355.381 523.017 338.084 522.675 320.132C522.641 318.355 522.675 316.582 522.747 314.806C515.503 314.8 508.237 314.904 500.996 314.689C501.337 334.588 498.823 351.211 484.337 366.129C474.717 376.035 462.06 382.425 448.113 382.596C440.977 382.683 433.833 382.462 426.696 382.485C421.235 382.502 415.581 382.956 410.144 382.498C398.362 381.505 386.358 376.202 377.894 367.928C365.815 356.122 362.122 340.306 362.038 323.97L362.056 319.786C353.402 312.315 345.244 304.177 336.413 296.939ZM417.159 512.111C417.048 522.659 417.281 533.209 417.42 543.756C417.492 549.217 417.931 554.944 417.396 560.363C417.19 562.45 416.879 564.636 415.421 566.23C411.463 568.354 406.6 567.623 402.245 567.477C409.655 596.954 427.25 619.53 453.291 635.087C456.791 637.178 460.696 639.88 464.746 640.627C470.201 641.633 551.862 641.856 558.123 640.426C572 637.258 591.308 620.946 600.141 609.982C610.485 596.886 616.682 583.651 620.917 567.543C617.379 567.693 609.873 568.799 607.331 565.988C606.175 564.71 605.792 562.169 605.619 560.525C605.103 555.625 605.457 550.409 605.464 545.477C605.479 534.895 605.575 524.308 605.446 513.728C597.454 517.897 589.569 522.098 581.138 525.331C541.833 540.404 496.606 542.065 456.39 529.42C441.004 524.581 431.363 518.792 417.159 512.111ZM229.891 660.229C222.557 660.671 216.363 663.095 211.418 668.766C205.117 675.991 205.038 684.024 205.835 692.978L224.437 888.839L229.735 947.637C230.445 955.596 230.623 963.775 231.72 971.677C232.07 974.204 232.421 977.158 234.555 978.836C236.31 980.215 238.49 980.618 240.672 980.319C242.354 980.088 243.784 979.339 244.779 977.941C246.095 976.093 246.286 973.517 246.222 971.323C245.967 962.683 244.332 953.666 243.481 945.023L239.199 896.775L224.031 734.929L221.223 706.043C220.516 699.261 218.605 690.489 219.604 683.784C220.324 678.954 224.107 674.809 228.902 673.886C234.213 672.864 240.492 673.29 245.901 673.24L280.895 673.245L380.934 673.142L786.75 673.269C791.509 673.23 799.001 672.25 802.706 675.731C804.697 677.602 804.474 680.286 804.465 682.828C804.432 692.378 803.008 702.237 802.222 711.773L797.155 769.856L785.881 900.079C784.491 915.649 783.393 931.238 782.203 946.824C781.6 954.721 780.258 963.118 780.508 971.011C780.568 972.915 780.499 974.422 781.887 975.818C783.239 977.178 785.437 977.751 787.315 977.631C788.784 977.537 790.453 976.922 791.352 975.698C792.537 974.085 792.683 971.413 792.901 969.464C794.064 959.059 794.624 948.525 795.609 938.089L806.141 817.57L814.023 726.733C815.174 712.644 816.738 698.418 817.322 684.303C817.448 681.271 817.394 677.952 816.636 675.004C815.352 670.006 811.397 665.561 806.957 663.082C804.062 661.465 800.849 660.552 797.539 660.397C789.374 660.016 781.056 660.384 772.874 660.402L726.932 660.41L580.652 660.297L349.724 660.284C309.943 660.283 269.614 659.463 229.891 660.229ZM506.356 777.646C490.06 780.14 476.516 787.258 466.657 800.771C458.181 812.387 455.267 827.596 457.603 841.663C459.99 856.034 468.425 869.066 480.271 877.491C491.557 885.517 504.919 888.645 518.624 887.499C532.674 885.964 545.838 878.099 554.677 867.193C563.949 855.751 568.098 841.327 566.474 826.682C564.761 811.234 556.509 797.587 544.357 788.07C533.511 779.576 519.997 776.351 506.356 777.646Z"/>
	<path transform="scale(1.02441 1.02441)" d="M480.161 439.003C501.22 446.247 523.415 445.657 544.493 439.114L544.627 439.332C544.552 442.261 540.932 446.644 538.998 448.781C532.371 456.106 523.957 460.798 513.967 461.246C503.73 461.705 495.43 457.799 488 451.044C484.721 447.233 482.29 443.559 480.161 439.003Z"/>
</svg>
