<?xml version="1.0" encoding="utf-8" ?>
<svg xmlns="http://www.w3.org/2000/svg" xmlns:xlink="http://www.w3.org/1999/xlink" width="1049" height="1049">
	<path fill="white" transform="scale(1.02441 1.02441)" d="M0 0L0 1024L1024 1024L1024 0L0 0Z"/>
	<path transform="scale(1.02441 1.02441)" d="M354.343 84.475C347.753 70.2847 343.059 55.2487 342.229 39.5415C341.943 34.1263 341.832 27.5088 345.839 23.3192C347.903 21.1609 350.617 20.1713 353.588 20.4584C358.539 20.9367 363.636 24.6034 368.266 26.457C377.575 30.1838 387.655 32.1638 397.661 32.5656C418.124 33.3876 436.335 27.0159 455.982 22.7157C469.561 19.7438 483.41 17.9602 497.284 17.2138C501.234 17.0259 505.182 16.8766 509.136 16.8511C569.166 16.4637 626.925 37.98 669.83 80.4123C709.588 119.732 735.103 171.179 741.634 226.863C744.267 249.314 743.903 271.753 744.039 294.302C753.086 296.116 761.675 300.226 768.694 306.235C779.877 315.81 786.91 329.563 787.972 344.256C789.043 359.075 783.687 373.391 774.012 384.548C763.654 396.492 751.217 400.886 735.819 402.071C718.557 463.931 682.947 513.373 628.36 547.633C627.884 557.514 628.035 567.461 628.108 577.352C696.319 588.979 759.377 606.23 815.812 648.367C804.594 647.498 792.745 648.253 781.463 648.282L716.965 648.335L504.883 648.665L209.647 648.37C225.222 638.417 240.937 628.771 257.43 620.392C300.144 598.693 348.288 584.081 395.807 578.056L395.608 547.787C340.396 513.807 307.746 466.616 288.367 405.247C279.871 404.316 271.051 400.75 263.892 396.155C250.498 387.559 240.921 374.285 237.61 358.668C234.604 344.486 237.512 329.338 245.424 317.212C253.69 304.542 265.617 296.778 280.318 293.708C279.302 277.327 278.898 260.744 279.684 244.342C282.845 178.342 305.189 129.026 354.343 84.475ZM367.557 192.274C356.579 235.285 338.715 259.411 306.509 289.051L328.986 289.329C334.276 280.476 341.897 271.359 352.405 268.776C363.222 266.117 375.258 267.161 386.338 267.199L425.688 267.303L451.485 267.258C457.417 267.236 463.612 266.918 469.494 267.717C473.743 268.294 478.073 270.023 481.702 272.289C485.517 274.67 488.9 277.889 491.603 281.472L535.686 281.345C540.476 274.508 547.751 269.642 556.003 268.087C562.908 266.786 570.215 267.153 577.212 267.15L606.363 267.159C625.853 267.175 647.392 266.203 666.619 267.522C677.885 270.002 687.127 275.589 693.384 285.514C693.899 286.331 694.378 287.161 694.836 288.011C703.812 288.284 712.77 288.358 721.749 288.362C696.942 267.913 681.862 241.399 669.53 212.136C666.769 205.585 664.496 198.832 661.746 192.29C644.164 197.567 626.77 202.394 608.705 205.784C532.797 220.029 440.8 217.479 367.557 192.274ZM360.355 286.104C354.646 287.33 350.183 290.427 347.049 295.394C341 304.98 341.96 319.117 344.619 329.636C349.07 347.247 360.424 362.333 376.089 371.518C391.604 380.616 409.77 382.856 427.126 378.206C435.353 376.002 443.204 372.122 450.242 367.356C465.955 355.895 477.252 339.929 480.266 320.407C481.583 311.877 483.41 300.669 477.881 293.279C475.073 289.525 470.879 286.857 466.186 286.289C460.745 285.631 455.011 285.961 449.53 285.974L423.16 286.046C402.29 286.105 381.2 285.368 360.355 286.104ZM559.542 286.182C554.29 287.682 550.126 290.056 547.386 295.006C542.027 304.69 544.913 321.162 548.007 331.199C553.415 348.742 566.513 364.051 582.743 372.509C598.612 380.777 617.944 383.179 635.128 377.77C641.936 375.626 648.176 372.326 654.132 368.433C668.238 357.51 677.577 344.004 679.885 326.008C681.117 316.398 682.312 301.413 676.129 293.463C672.781 289.159 668.536 286.624 663.106 286.082C657.758 285.549 652.19 285.875 646.815 285.92L619.76 286.041L581.581 285.974C574.295 285.962 566.801 285.644 559.542 286.182ZM499.422 300.017C501.077 325.044 493.646 348.955 476.927 367.95C461.387 385.606 439.122 396.877 415.588 398.348C392.926 399.764 369.808 392.321 352.774 377.109C335.898 362.037 325.715 340.364 324.434 317.82C324.235 314.304 324.202 310.725 324.359 307.206L297.324 306.907C292.367 370.322 309.58 438.405 351.427 487.406C387.729 529.914 439.721 556.411 495.441 560.72C505.535 561.501 515.522 561.545 525.624 560.963C581.102 557.331 632.197 532.243 668.89 490.401C714.971 437.853 729.226 374.377 726.897 305.922C717.613 306 708.361 305.995 699.079 305.726C699.019 313.442 699.097 321.223 698.078 328.887C695.864 345.538 687.523 362.052 675.628 373.871C659.25 390.144 637.581 398.671 614.544 398.558C591.072 398.443 568.005 388.491 551.61 371.71C535.129 354.842 525.738 330.909 526.181 307.34C526.226 304.921 526.403 302.499 526.579 300.086L499.422 300.017ZM277.163 311.898C266.594 318.331 258.861 326.306 255.941 338.699C253.526 348.95 255.834 359.708 261.368 368.562C263.56 372.07 266.24 375.228 269.299 378.01C273.958 381.7 277.979 384.3 283.804 385.86C281.254 369.917 278.719 354.324 278.025 338.158C277.674 329.967 278.816 321.409 278.095 313.346C277.996 312.237 278.211 312.685 277.384 311.945L277.163 311.898ZM744.321 313.024C744.645 336.715 744.101 360.309 739.759 383.691C746.33 382.24 752.138 380.272 757.199 375.642C764.728 367.978 769.599 358.862 769.494 347.888C769.4 338.074 765.335 328.047 758.232 321.226C754.224 317.376 749.575 314.76 744.321 313.024ZM414.189 557.842C414.183 578.963 414.645 593.69 430.43 609.571C445.5 624.733 464.301 628.932 485.009 628.892L521.214 628.738C548.308 628.881 573.348 630.423 594.193 609.561C596.822 606.929 599.262 603.973 601.324 600.876C610.339 586.626 609.991 574.422 609.644 558.106C597.088 563.449 584.773 568.25 571.546 571.671C523.849 584.01 470.484 580.659 424.8 562.261C421.247 560.83 417.711 559.35 414.189 557.842Z"/>
	<path transform="scale(1.02441 1.02441)" d="M621.287 323.573C593.941 321.149 599.066 337.55 588.37 340.034C586.254 340.526 583.939 339.916 582.206 338.648C579.866 336.938 578.266 334.196 577.977 331.306C577.595 327.499 579.653 323.958 581.946 321.095C589.355 311.85 599.489 306.392 611.231 305.182C615.773 304.76 620.904 304.911 625.382 305.852C635.678 308.017 645.793 313.76 651.618 322.704C653.735 325.954 655.067 329.885 654.171 333.775C653.734 335.675 652.716 337.359 651.031 338.388C649.413 339.375 647.529 339.739 645.654 339.748C637.958 339.788 637.057 332.329 631.93 328.118C628.754 325.511 625.196 324.477 621.287 323.573Z"/>
	<path transform="scale(1.02441 1.02441)" d="M414.43 323.987C391.92 318.436 390.403 337.973 381.373 340.618C379.705 341.106 378.051 340.836 376.551 339.988C374.007 338.552 371.605 336.358 370.964 333.399C370.115 329.48 372.373 325.307 374.543 322.205C381.122 312.796 390.792 307.587 401.92 305.65C407.147 304.989 412.594 305.065 417.754 306.175C427.817 308.339 437.967 314.816 443.499 323.607C445.273 326.428 446.626 329.906 445.693 333.256C444.898 336.114 442.444 338.438 439.865 339.763C432.067 343.77 427.484 331.78 422.841 327.933C420.387 325.899 417.418 324.92 414.43 323.987Z"/>
	<path transform="scale(1.02441 1.02441)" d="M556.352 472.891C552.564 475.939 548.535 478.761 544.19 480.959C529.531 488.374 502.868 489.185 487.376 484.105C472.453 479.211 460.599 468.012 453.688 454.023C450.064 446.687 445.064 432.74 448.095 424.711C449.101 422.047 450.855 420.733 453.366 419.583C464.654 419.123 476.135 419.603 487.446 419.609L559.059 419.665C563.806 419.666 570.314 418.94 573.803 422.696C576.04 425.105 576.633 428.482 576.546 431.659C576.108 447.574 567.771 462.285 556.352 472.891ZM466.617 437.642C468.293 441.559 470.123 445.332 472.109 449.102L552.482 449.046L554.728 445.179C555.785 442.754 556.865 440.348 557.738 437.848C527.363 438.296 496.99 437.609 466.617 437.642Z"/>
	<path transform="scale(1.02441 1.02441)" d="M832.18 984.797C831.349 990.391 831.338 996.818 829.515 1002.16C828.52 1005.08 826.615 1007.42 823.808 1008.74C821.888 1009.64 819.966 1009.64 817.89 1009.67C784.241 1010.19 750.485 1009.6 716.824 1009.58L517.546 1009.59L299.904 1009.61C268.95 1009.61 237.909 1010.25 206.967 1009.81C204.465 1009.78 200.351 1009.98 198.129 1008.82C194.912 1007.14 193.189 1004.14 192.434 1000.74C190.243 990.878 190.01 979.975 188.832 969.911L180.178 893.354L164.894 759.993L157.508 699.189C156.489 690.594 155.004 681.914 154.41 673.287C154.148 669.477 154.22 666.492 156.5 663.234C159.15 659.447 163.134 658.27 167.451 657.655L605.8 657.851L773.049 657.584L828.773 657.42C837.378 657.397 846.424 656.728 854.987 657.326C859.464 657.639 864.114 659.147 867.064 662.712C869.449 665.596 870.702 669.717 870.583 673.429C870.229 684.449 867.705 696.539 866.151 707.525C863.35 727.324 860.716 747.103 858.297 766.952L832.18 984.797ZM509.581 784.206C496.512 785.103 484.188 790.662 475.443 800.562C467.578 809.467 463.535 820.902 464.331 832.769C465.134 844.756 470.956 855.721 479.984 863.569C489.73 872.04 500.953 875.217 513.65 875.129C527.035 874.175 538.697 869.102 547.604 858.829C555.595 849.614 559.466 837.896 558.577 825.745C557.687 813.592 551.398 802.673 542.155 794.889C533.518 787.616 520.919 783.222 509.581 784.206Z"/>
	<path transform="scale(1.02441 1.02441)" d="M846.364 948.486C848.889 932.412 850.415 916.127 852.321 899.967L861.568 824.325L869.94 753.998C871.382 741.77 873.64 729.474 874.253 717.18C877.964 720.147 881.019 725.898 883.607 729.881C893.866 745.673 902.948 761.363 910.709 778.539C925.131 810.455 934.962 844.583 940.076 879.219C941.146 886.465 943.4 896.025 940.532 903.045C934.226 918.485 910.883 926.064 896.63 931.807C880.517 938.512 863.229 944.008 846.364 948.486Z"/>
	<path transform="scale(1.02441 1.02441)" d="M124.346 931.38C112.649 926.734 99.5017 922.023 89.9415 913.644C84.7443 909.089 81.4588 903.597 81.0406 896.585C80.5941 889.099 82.1501 880.882 83.0632 873.441C89.4509 821.39 114.16 758.242 150.013 719.314L150.347 719.469C151.544 721.329 174.894 930.547 176.213 947.421C158.656 943.205 141.286 937.598 124.346 931.38Z"/>
</svg>
