<?xml version="1.0" encoding="utf-8" ?>
<svg xmlns="http://www.w3.org/2000/svg" xmlns:xlink="http://www.w3.org/1999/xlink" width="1024" height="1024">
	<path transform="scale(2 2)" d="M191.529 87.8951C193.909 86.161 196.01 83.7354 198.093 81.6581L208.539 71.31C224.487 55.5645 240.349 39.7262 255.762 23.4603C262.544 30.1134 269.011 37.1348 275.572 44.0063L440.81 212.196C456.153 227.568 472.261 242.614 486.444 259.091C483.31 261.158 480.7 264.26 478.018 266.867C466.504 278.058 455.26 289.538 443.866 300.855L256.137 488.274C251.775 484.194 247.705 479.775 243.474 475.557L89.7295 322.346C68.2073 300.896 47.0927 278.915 24.9072 258.151C38.5523 246.009 50.9949 232.441 63.8348 219.456L153.559 129.589C157.136 126.052 160.509 122.009 164.413 118.848C167.899 121.91 171.038 125.308 174.257 128.642L188.159 143.004C192.027 146.953 197.278 151.081 200.435 155.496C200.876 166.569 200.502 177.787 200.502 188.875L200.522 257.888C209.29 266.551 223.751 280.663 231.092 289.791C222.518 297.828 213.846 306.057 205.689 314.52C203.119 311.252 199.856 308.286 196.933 305.32L161.829 269.639C158.16 265.862 153.182 259.397 149.246 256.372C149.829 242.928 148.589 228.85 149.746 215.578C135.321 229.963 120.663 244.16 106.495 258.794C118.048 269.169 128.941 280.241 139.89 291.249L213.072 365.185C220.708 372.885 228.757 380.205 236.048 388.237C235 373.414 236.104 358.429 235.469 343.569C237.918 341.54 253.613 325.609 255.761 325.945C257.474 326.214 276.238 343.867 276.999 347.904C278.347 355.06 276.947 380.738 276.413 388.102C282.454 382.566 287.815 376.032 293.673 370.246L368.597 295.572C381.152 283.243 393.292 270.458 406.821 259.181C397.852 250.19 388.771 241.363 379.882 232.278C374.113 226.382 368.612 219.968 362.411 214.538C361.058 229.218 362.787 243.906 361.977 258.55C360.05 260.868 357.415 262.873 355.249 264.997C337.943 281.969 321.472 299.784 304.126 316.712C298.111 309.851 284.825 295.902 277.921 290.061C284.175 285.213 304.29 264.025 310.352 256.87L310.484 173.413C310.483 168.578 310.221 163.338 311.09 158.571C300.504 149.349 292.077 137.644 281.775 128.038C281.401 155.154 281.722 182.316 281.723 209.437L281.74 230.696C281.754 233.754 282.032 236.851 281.884 239.9C279.61 243.332 274.789 247.103 271.685 250.017L254.377 266.343C246.924 257.495 237.604 249.208 229.736 240.121C229.317 234.677 229.477 229.168 229.479 223.71L229.527 125.951C218.403 113.479 203.81 99.1443 191.529 87.8951Z"/>
</svg>
