<?xml version="1.0" encoding="utf-8" ?>
<svg xmlns="http://www.w3.org/2000/svg" xmlns:xlink="http://www.w3.org/1999/xlink" width="1024" height="1024">
	<path fill="#FEFEFE" d="M0 0L1024 0L1024 1024L0 1024L0 0Z"/>
	<path fill="#231F20" d="M761.679 180.097C762.501 180.249 763.344 180.411 764.091 180.813C765.212 181.416 765.536 182.584 765.841 183.698C765.397 185.344 764.687 186.127 763.261 186.982C758.816 189.646 753.228 190.832 748.474 192.96C741.098 196.263 734.666 201.372 728.188 206.127C726.574 205.557 725.772 205.145 724.652 203.837C724.363 202.42 724.294 202.141 725.004 200.799C728.897 193.436 753.274 182.998 761.679 180.097Z"/>
	<path fill="#231F20" d="M726.207 109.353C727.564 109.424 728.672 109.337 729.75 110.283C730.322 113.024 727.545 114.815 725.772 116.63C719.169 123.388 715.054 131.824 710.938 140.221C707.277 147.688 704.072 155.386 701.532 163.31C699.71 168.992 698.479 175.299 695.821 180.642C694.216 180.441 693.887 180.523 692.639 179.41C692.261 178.293 692.203 177.483 692.334 176.301C692.803 172.105 694.599 167.735 695.937 163.734C701.887 145.934 711.592 121.497 726.207 109.353Z"/>
	<path fill="#231F20" d="M754.53 237.236C767.169 237.207 776.379 238.384 788.386 242.365C791.045 243.247 794.662 244.28 796.779 246.141C797.781 247.021 797.818 247.728 797.912 248.988C797.452 249.703 797.318 250.162 796.516 250.553C792.214 252.654 783.59 248.312 779.363 246.781C770.897 244.405 761.79 243.759 753.028 244.123C749.59 244.265 737.521 246.687 735.63 245.872C734.168 245.241 734.184 244.726 733.782 243.321C734.046 242.383 734.061 241.865 734.744 241.133C738.494 237.115 749.35 237.395 754.53 237.236Z"/>
	<path fill="#231F20" d="M455.185 115.242C492.773 114.919 538.879 132.602 564.788 159.791C567.597 162.739 582.923 181.46 584.068 181.999C584.18 180.739 583.41 179.744 582.874 178.618C582.017 176.815 581.205 175.307 581.927 173.282C582.903 172.294 583.724 172.003 585.088 171.938C599.758 171.244 623.873 187.381 634.352 197.15C672.082 232.322 676.119 285.363 677.951 333.76C683.697 332.028 689.504 330.739 695.545 330.921C704.749 331.2 714.176 335.889 720.36 342.655C728.085 351.107 731.479 362.466 730.846 373.79C730.155 386.154 723.354 397.862 714.243 406.003C697.62 420.858 686.376 423.48 664.754 422.362C660.351 460.95 662.983 493.511 683.59 527.506C698.104 526.222 714.003 525.956 728.728 525.199C740.609 524.589 752.766 522.982 764.636 524.034C773.15 524.789 781.263 526.901 789.246 529.916C801.039 534.371 811.41 542.114 819.991 551.274C833.06 565.222 842.269 581.941 851.957 598.271C865.048 620.334 877.842 642.628 888.354 666.06C900.441 693.005 917.465 745.357 917.571 774.33C917.602 782.892 916.005 791.401 912.919 799.389C906.475 816.071 891.881 828.571 875.81 835.682C846.564 848.624 811.558 849.734 780.083 851.349C747.195 853.036 713.954 853.541 681.132 850.539C674.15 849.901 661.014 849.464 655.07 846.925C653.632 846.311 652.903 845.56 652.306 844.096C652.324 842.69 652.476 841.949 653.371 840.824C654.547 839.347 656.607 838.443 658.453 838.26C662.136 837.895 667.514 839.577 671.352 840.05C679.884 841.1 688.446 841.943 697.029 842.433C727.96 844.202 759.51 843.942 790.431 842.052C822.801 840.072 871.572 837.061 894.26 811.095C904.884 798.937 908.291 783.741 907.17 767.898C906.283 755.361 903.385 742.751 900.251 730.599C887.983 683.035 866.55 640.931 841.307 599.13C830.905 581.904 820.947 564.089 805.474 550.788C789.051 536.67 768.309 532.014 747.163 533.553C768.722 572.166 781.996 620.974 787.01 664.829C787.68 670.69 787.709 677.205 783.678 681.97C781.259 684.828 777.719 686.546 774.059 687.141C764.556 688.685 748.87 688.104 738.491 688.669L661.581 692.367C646.36 693.026 631.059 693.278 615.878 694.572C618.986 714.303 620.531 734.322 623.237 754.119C625.977 778.372 629.252 802.577 632.227 826.804C633.248 835.119 634.839 843.433 635.529 851.776C635.975 857.164 634.693 862.198 631.088 866.328C628.092 869.761 624.214 872.057 619.715 872.827C614.365 873.743 608.774 873.965 603.367 874.42L572.448 876.75L502.564 882.114L228.011 903.396C223.53 910.705 217.36 917.126 209.73 921.166C197.225 927.786 178.474 928.346 165.136 924.221C150.312 919.636 130.106 905.66 122.829 891.799C116.412 879.575 118.124 867.502 122.025 854.769C123.937 848.526 127.849 836.924 134.746 834.554C135.86 834.172 136.88 834.413 137.816 835.127C138.745 835.835 139.44 837.256 139.323 838.436C139.078 840.919 135.768 844.945 134.441 847.097C129.257 855.508 126.361 866.091 127.465 875.988C128.593 886.1 134.688 894.775 142.502 900.999C156.284 911.977 175.333 919.238 193.069 917.18C204.119 915.897 212.086 912.202 218.97 903.278C222.069 899.26 229.565 889.084 228.294 884.054C227.982 882.82 227.046 881.756 225.965 881.122C224.446 880.232 222.422 880.004 220.758 880.604C217.116 881.919 217.034 886.264 215.388 889.206C214.683 890.468 214.108 890.738 212.784 891.196C211.424 890.852 211.366 890.866 210.502 889.773C210.066 883.415 215.979 872.515 216.812 864.969C217.141 861.984 217.467 857.15 215.139 854.841C214.129 853.841 212.776 853.57 211.407 853.642C205.651 853.944 200.973 858.672 197.133 862.49C193.499 866.103 192.999 872.235 190.774 876.79C190.005 878.363 189.321 879.573 187.614 880.2C186.276 879.645 186.178 879.325 185.35 878.105C184.678 873.941 192.281 855.197 193.867 849.667C194.82 846.342 196.599 839.606 194.289 836.652C193.755 835.968 193.318 835.542 192.452 835.409C190.181 835.062 187.823 836.527 185.982 837.692C169.428 848.174 166.162 873.525 161.807 876.501C160.445 876.544 160.554 876.526 159.548 875.591C157.202 869.67 163.889 853.217 165.376 846.26C166.161 842.584 166.998 838.569 164.828 835.257C163.978 834.732 163.663 834.358 162.631 834.342C160.591 834.312 158.643 835.747 157.097 836.931C145.363 845.918 146.095 858.015 139.679 864.115C138.799 864.952 138.305 865.164 137.118 865.117C134.397 861.973 139.277 851.913 140.347 848.216C141.706 843.519 141.761 838.523 141.416 833.68C141.124 829.57 140.057 825.469 139.541 821.37L134.563 783.186L119.392 673.082C117.231 657.143 114.34 640.995 112.804 625.008C112.279 619.536 114.069 613.527 117.692 609.31C120.727 605.78 125.033 603.611 129.504 602.536C135.488 601.098 142.163 601.001 148.302 600.416C157.769 599.514 167.218 598.44 176.671 597.402C220.098 592.63 263.636 588.286 307.155 584.453C308.59 582.282 310.299 580.307 312.101 578.434C334.28 555.391 363.463 544.047 395.212 543.42C376.055 517.715 369.71 484.13 365.255 453.007C364.194 445.592 363.652 438.088 362.424 430.704C352.183 432.872 342.833 434.385 333.161 429.2C324.526 424.571 318.068 415.176 315.41 405.9C312.297 395.039 313.181 382.732 318.723 372.779C322.366 366.236 328.285 360.758 335.668 358.854C344.354 356.613 352.927 359.463 360.42 363.779C361.025 335.946 371.446 294.66 383.327 269.408C373.275 267.054 365.349 263.1 357.773 255.964C342.848 241.906 332.941 220.003 332.469 199.501C332.051 181.369 338.28 164.358 350.948 151.28C377.54 123.827 418.427 115.677 455.185 115.242Z"/>
	<path fill="#FEFEFE" d="M625.246 230.834C626.093 231.43 626.853 231.831 627.32 232.788C627.663 233.488 627.431 234.216 627.189 234.922C625.222 240.646 614.328 246.414 609.033 248.646C598.804 252.959 589.051 253.887 578.644 249.672C577.123 248.815 575.984 248.453 575.077 246.937L575.471 245.669C578.153 244.186 584.552 247.502 587.981 247.684C602.926 248.478 614.677 240.443 625.246 230.834Z"/>
	<path fill="#FEFEFE" d="M370.312 555.053L370.966 555.031L371.462 555.665C370.398 563.252 368.327 570.906 366.682 578.396C351.914 579.018 337.14 581.589 322.378 582.632C322.034 582.596 321.732 582.387 321.417 582.246C321.494 582.076 321.554 581.899 321.646 581.738C323.045 579.295 326.568 576.817 328.757 575.067C341.52 564.86 354.662 559.239 370.312 555.053Z"/>
	<path fill="#FEFEFE" d="M339.932 367.676C347.153 367.339 353.453 369.276 359.582 372.948C359.893 380.774 359.733 388.612 360.107 396.444C360.509 404.883 361.447 413.282 361.581 421.734C356.02 423.04 350.728 423.451 345.02 423.565C342.151 423.14 339.549 421.949 337.148 420.348C330.232 415.735 325.321 406.861 323.95 398.757C322.634 390.975 324.128 380.548 328.94 374.141C331.805 370.327 335.28 368.413 339.932 367.676Z"/>
	<path fill="#231F20" d="M340.777 392.108C344.91 391.646 349.509 391.702 353.24 393.74C357.468 396.048 358.895 399.585 360.27 403.899C359.722 406.571 358.88 409.217 357.882 411.755C356.912 414.22 355.753 417.431 353.22 418.506L352.421 418.059C351.734 416.693 351.521 415.787 351.361 414.265C352.192 411.032 353.91 408.365 355.002 405.261C355.535 403.748 355.249 401.791 354.364 400.435C349.655 393.218 337.954 399.764 335.226 399.04C334.396 397.852 334.239 397.782 334.287 396.355C335.911 393.566 337.864 393.051 340.777 392.108Z"/>
	<path fill="#FEFEFE" d="M496.617 212.666C497.431 212.867 497.981 213.127 498.721 213.503C499.327 214.699 499.567 215.298 499.25 216.644C496.92 226.557 480.056 242.176 471.335 247.416C472.41 248.732 473.583 250.05 474.882 251.146C481.629 256.834 492.87 255.976 501.081 255.385C524.084 253.732 574.02 243.103 588.745 225.666C589.621 224.628 591.052 222.441 592.29 221.972C593.062 221.68 593.62 221.989 594.321 222.279C594.83 223.21 594.814 223.55 594.616 224.625C593.897 228.525 588.804 232.755 585.601 234.872C578.012 239.885 568.35 244.224 559.808 247.191C541.013 253.72 501.496 262.494 482.297 258.3C476.377 257.007 470.975 254.574 467.611 249.336C454.258 257.106 439.577 262.711 424.843 267.252C421.011 268.433 406.308 271.871 403.892 273.322C403.754 274.277 403.61 274.101 404.032 274.857C406.744 279.726 418.105 283.565 423.315 284.855C450.205 291.513 548.767 273.956 575.92 265.309C581.461 263.544 586.332 261.369 591.307 258.362C586.515 289.055 597.62 310.643 614.141 335.433C620.682 345.248 631.426 360.253 643.868 362.741C647.748 361.936 650.72 356.202 653.627 353.6C663.524 344.74 683.038 339.597 696.058 340.601C703.178 341.151 709.453 344.486 714.069 349.901C719.712 356.519 721.891 365.175 721.096 373.738C720.206 383.318 715.762 391.21 708.979 397.889C688.501 418.052 673.549 412.864 647.926 412.279C645.416 412.222 642.745 411.787 640.698 413.508C640.557 414.09 640.271 414.464 640.654 414.998C642.794 417.982 652.124 419.578 655.58 420.378C654.505 425.713 654.17 431.328 653.566 436.742C652.214 470.911 654.977 496.816 671.946 527.548C642.526 528.566 612.979 530.573 583.585 532.276C551.199 534.152 518.795 535.775 486.433 538.02L437.835 541.258C427.994 541.883 417.794 542.051 408.06 543.614C405.092 540.472 402.349 536.988 399.939 533.402C376.198 498.072 368.769 412.616 370.245 370.816C370.839 353.995 373.143 337.273 376.312 320.757C388.678 324.337 400.532 329.696 411.561 336.327C419.133 340.879 426.989 346.258 433.739 351.955C438.846 356.267 443.695 361.433 449.218 365.169C451.136 366.466 453.457 367.647 455.836 367.566C458.284 367.482 460.309 365.966 461.859 364.185C464.64 360.99 465.734 356.969 465.235 352.752C465.055 351.237 464.624 350.416 463.443 349.482C459.015 349.409 461.334 358.428 456.626 361.393C452.3 361.927 442.35 350.749 438.814 347.633C422.784 333.504 398.23 320.561 377.482 315.71C381.235 300.033 386.362 285.619 391.858 270.51C403.803 269.019 415.915 265.171 427.35 261.518C446.718 255.33 471.74 245.188 485.428 229.994C490.118 224.788 493.425 218.849 496.617 212.666Z"/>
	<path fill="#231F20" d="M676.001 362.648C677.52 362.405 679.1 362.435 680.637 362.383C687.42 362.155 693.533 361.38 698.844 366.619C699.858 367.62 700.791 368.751 700.786 370.234C697.983 371.438 693.88 368.138 691.073 367.335C689.208 366.801 687.187 366.579 685.27 366.295C685.964 367.816 686.654 369.407 687.075 371.027C689.228 379.319 685.207 385.856 681.406 392.792C681.592 392.865 681.778 392.936 681.962 393.013C682.24 393.128 682.515 393.252 682.792 393.37C685.255 394.415 687.235 395.914 688.538 398.29C688.524 399.698 688.461 399.675 687.543 400.76C684.975 401.05 679.165 397.088 677.023 395.525C675.813 394.642 675.649 394.101 675.384 392.665C677.804 388.963 680.751 385.009 682.158 380.779C683.3 377.346 683.344 372.789 681.458 369.589C675.851 360.076 650.13 379.092 645.712 377.876C645.57 376.841 646.03 376.203 646.623 375.379C652.329 367.443 666.868 364.235 676.001 362.648Z"/>
	<path fill="#231F20" d="M458.432 405.713C459.887 406.009 460.629 406.003 461.704 407.177C463.016 408.611 463.282 411.033 463.16 412.877C462.498 422.904 456.745 431.705 449.37 438.111C455.944 438.686 462.683 439.322 469.269 438.591C471.888 438.3 474.702 436.732 477.261 436.818C478.425 436.857 478.958 437.268 479.662 438.116L479.413 439.154C475.998 443.263 471.631 443.826 466.706 444.917C458.61 446.08 439.277 445.734 432.707 440.258C431.809 439.51 431.605 438.996 431.493 437.872C436.35 434.083 442.704 433.335 448.079 428.399C454.633 422.381 452.751 411.868 458.432 405.713Z"/>
	<path fill="#231F20" d="M578.135 311.609C579.979 311.493 581.836 311.114 583.454 312.188C584.175 313.459 584.261 313.437 583.987 314.855C580.649 318.412 573.535 318.657 569.06 320.487C559.88 324.239 550.939 329.868 542.557 335.106C536.693 338.771 531.027 342.774 525.53 346.968C518.939 351.997 506.425 363.713 498.815 365.942C496.844 366.52 494.02 365.925 492.251 364.95C488.229 362.734 486.266 358.686 484.981 354.483C484.118 350.674 482.999 345.123 483.932 341.329C486.384 341.135 489.915 355.938 493.616 358.378C496.321 360.162 499.523 358.599 501.771 356.834C524.641 338.884 549.131 318.385 578.135 311.609Z"/>
	<path fill="#231F20" d="M544.895 354.527C547.36 354.376 549.757 354.239 552.161 354.92C557.498 356.431 561.558 360.817 564.21 365.514C567.624 371.562 569.466 379.592 567.404 386.352C566.213 390.257 563.856 393.015 560.292 394.915C558.751 395.224 557.244 395.456 555.674 395.183C550.162 394.222 545.3 389.318 542.418 384.739C538.608 378.687 536.153 370.411 537.932 363.336C539.008 359.059 541.161 356.69 544.895 354.527Z"/>
	<path fill="#231F20" d="M421.163 364.108C423.795 364.05 426.308 364.62 428.663 365.799C434.525 368.731 438.316 374.548 440.215 380.667C442.108 386.767 442.774 394.762 439.614 400.503C437.573 404.209 434.931 405.843 430.993 407.07C428.738 407.058 426.728 406.648 424.727 405.575C418.41 402.188 413.868 394.992 411.741 388.276C409.98 382.713 409.5 375.814 412.42 370.55C414.424 366.937 417.293 365.217 421.163 364.108Z"/>
	<path fill="#231F20" d="M510.077 465.553C514.537 465.145 518.469 465.27 522.383 467.692C528.686 471.592 531.566 480.308 533.07 487.206C535.293 497.402 535.702 509.586 529.584 518.595C527.16 522.164 523.696 524.937 519.363 525.659C513.204 526.686 508.058 523.627 503.356 520.097C493.427 510.654 486.352 497.484 482.84 484.302C482.06 484.402 481.28 484.499 480.497 484.569C477.857 484.805 474.534 485.021 472.436 483.237L472.582 482.12C474.326 480.503 478.291 479.91 480.611 479.199C491.054 476.002 499.287 468.436 510.077 465.553Z"/>
	<path fill="#FEFEFE" d="M510.828 470.597C513.038 470.552 515.569 470.486 517.637 471.333C522.128 473.173 524.824 477.578 526.466 481.927C529.938 491.116 531.532 504.214 527.132 513.368C525.623 516.506 523.17 519.42 519.761 520.517C515.839 521.778 512.911 520.368 509.516 518.501C497.347 509.868 491.45 496.137 486.529 482.533C494.638 478.496 502.111 473.276 510.828 470.597Z"/>
	<path fill="#FEFEFE" d="M577.423 563.205C583.122 563.277 588.011 564.137 592.427 568.092C596.289 571.55 598.329 576.218 599.255 581.237C601.179 591.658 601.144 602.755 602.291 613.321L611.812 701.584L623.105 795.107C625.582 814.176 629.212 834.659 630.353 853.751C630.594 857.776 629.081 861.118 626.321 864.066C624.216 866.314 621.6 867.553 618.575 867.986C601.095 870.487 582.925 871.157 565.303 872.476L470.52 879.715L329.745 890.645L270.351 895.317C257.207 896.374 244.005 897.738 230.832 898.291C232.796 893.513 234.657 888.489 233.582 883.248C232.992 880.37 231.551 877.476 228.933 875.956C227.099 874.891 224.188 874.185 222.145 874.878C221.135 875.221 221.858 875.217 220.792 875.034C220.059 868.06 224.995 860.577 220.473 853.851C218.761 851.306 215.498 849.659 212.546 849.104C206.631 847.993 201.936 851.532 197.427 854.777C198.821 849.82 200.617 844.228 199.774 839.03C199.355 836.447 198.174 833.819 195.944 832.317C193.692 830.801 190.85 830.791 188.292 831.384C179.785 833.36 174.921 840.006 170.482 846.902C170.739 845.281 171.041 843.627 171.161 841.99C171.404 838.678 170.879 834.69 168.551 832.142C167.033 830.481 164.962 829.713 162.734 829.716C156.412 829.722 151.315 835.141 147.294 839.376C145.667 830.769 144.804 821.878 143.57 813.197L135.242 752.897C129.49 711.089 122.883 668.862 117.632 627.06C116.913 621.339 117.125 616.993 120.962 612.338C123.456 609.311 127.391 607.298 131.206 606.596C137.876 605.37 144.929 605.118 151.689 604.465L184.098 601.087L311.477 588.64L493.594 570.869C521.519 568.201 549.44 565.188 577.423 563.205Z"/>
	<path fill="#231F20" d="M365.413 709.674C370 709.436 375.115 711.05 378.877 713.622C384.122 717.207 387.879 723.366 388.981 729.6C390.063 735.717 388.329 742.25 384.644 747.215C380.291 753.08 374.476 755.606 367.475 756.656C362.136 756.896 357.069 755.909 352.537 752.941C347.233 749.467 343.745 743.84 342.632 737.632C341.501 731.325 342.711 724.912 346.527 719.711C351.232 713.298 357.826 710.713 365.413 709.674Z"/>
	<path fill="#FEFEFE" d="M363.474 714.579C367.67 714.327 371.019 714.618 374.753 716.721C379.286 719.273 382.575 723.784 383.871 728.798C385.112 733.599 384.445 738.645 381.821 742.873C378.546 748.152 373.691 750.541 367.875 751.927C364.183 752.19 360.891 751.782 357.53 750.135C352.809 747.821 349.298 743.534 347.724 738.539C346.278 733.954 346.651 729 348.953 724.76C352.079 719 357.402 716.25 363.474 714.579Z"/>
</svg>
