<?xml version="1.0" encoding="utf-8" ?>
<svg xmlns="http://www.w3.org/2000/svg" xmlns:xlink="http://www.w3.org/1999/xlink" width="1024" height="1024">
	<path fill="#FEFEFE" d="M0 0L1024 0L1024 1024L0 1024L0 0Z"/>
	<path fill="#231F20" d="M322.874 799.699C323.461 799.604 324.052 799.506 324.643 799.443C326.39 799.257 326.969 799.603 328.277 800.625C328.742 801.907 328.754 801.852 328.249 803.117C320.481 809.663 225.177 808.794 207.657 809.122C198.965 809.284 190.285 809.662 181.618 810.337C179.794 810.291 178.093 810.385 176.403 809.629C175.548 808.481 175.419 808.515 175.54 807.111C177.392 805.285 180.124 804.928 182.624 804.717C206.76 802.68 231.433 803.507 255.655 803.386C278.078 803.274 300.591 802.216 322.874 799.699Z"/>
	<path fill="#231F20" d="M557.617 167.735C572.363 167.833 586.963 169.829 600.858 174.912C620.933 182.257 639.839 194.306 649.017 214.37C655.406 228.334 656.024 246.192 650.603 260.561C645.245 274.763 637.784 279.367 624.523 285.353C631.882 298.744 640.263 325.944 641.83 341.174C642.78 339.14 643.779 336.974 645.034 335.106C647.753 331.06 651.266 327.998 656.206 327.2C661.645 326.321 667.811 327.937 672.13 331.336C677.031 335.194 679.73 341.274 680.442 347.366C681.702 358.159 678.367 368.844 671.533 377.244C666.109 383.911 659.184 388.346 650.508 389.199C650.14 398.486 651.533 408.122 651.551 417.506C651.568 425.57 651.778 433.73 651.376 441.783C650.793 453.482 649.387 465.228 648.277 476.892C659.964 476.926 670.759 478.395 681.895 482.066C708.526 490.848 730.034 508.719 742.676 533.864C759.139 566.609 763.328 607.055 764.767 643.203C765.018 649.506 764.831 655.816 764.998 662.12C765.564 683.438 765.875 715.195 759.167 735.174C756.044 744.478 751.167 751.88 742.117 756.281C725.695 764.266 692.841 761.577 674.969 757.668C670.175 756.62 665.546 755.018 660.908 753.438C662.256 765.269 663.843 777.184 664.612 789.064C675.287 788.157 686.168 788.253 696.882 787.955L754.832 786.437C783.976 785.769 813.146 783.942 842.281 783.487C843.58 783.466 844.939 783.508 846.136 784.061C846.755 784.347 847.056 785.003 847.102 785.68C847.188 786.94 846.808 787.448 846.018 788.273C838.768 790.196 819.98 789.433 811.67 789.779C781.234 791.046 750.751 791.808 720.298 792.551C702.023 792.996 683.667 794.016 665.385 793.516C665.502 803.733 667.374 814.018 667.829 824.259C668.039 828.975 669.473 841.362 666.178 844.722C664.4 846.535 661.718 847.579 659.31 848.216C653.455 849.764 646.924 850.285 640.911 851.035C620.468 853.582 599.755 854.65 579.178 855.456C527.987 856.613 476.981 856.783 425.777 856.033L386.515 855.338C379.596 855.179 372.255 855.461 365.407 854.496C362.198 854.044 359.025 853.009 356.523 850.877C354.161 848.865 351.474 844.979 350.497 842.037C348.918 837.288 348.483 831.295 347.653 826.335C343.952 804.194 341.643 781.734 339.905 759.36C333.461 759.5 327.109 760.572 320.712 761.275C304.789 763.022 293.736 757.903 280.006 750.587C274.708 747.764 268.868 745.815 263.784 742.643C253.377 736.151 248.243 723.646 245.609 712.154C243.591 703.349 242.291 693.351 242.078 684.322C241.905 677.022 242.666 669.545 243.196 662.267C245.193 634.875 248.699 606.143 258.042 580.16C262.558 567.602 269.508 554.956 276.608 543.65C290.063 522.222 309.488 505.95 333.072 496.801C339.121 494.454 345.428 492.895 351.588 490.882C361.083 487.78 370.354 484.296 380.109 482.072C369.648 465.17 365.269 446.398 361.353 427.171C358.043 428.591 355.204 429.438 351.537 429.446C342.526 429.467 334.409 424.903 328.178 418.664C321.452 411.928 317.018 402.342 317.093 392.736C317.149 385.634 319.828 379.274 324.893 374.312C330.084 369.226 336.414 366.558 343.719 366.758C349.634 366.92 353.391 369.996 357.208 374.125C357.12 360.018 357.619 346.148 358.533 332.069C351.317 333.999 344.042 335.114 336.569 334.318C327.22 333.322 317.542 328.672 311.646 321.199C305.48 313.383 303.978 303.442 305.15 293.76C306.786 280.251 313.477 267.276 324.374 258.967C331.707 253.375 341.356 250.59 350.536 252.032C361.577 253.768 368.183 261.786 374.351 270.287C376.867 265.845 379.758 261.743 382.532 257.471C386.676 251.089 389.899 245.254 395.216 239.643C435.624 197.002 499.125 169.501 557.617 167.735Z"/>
	<path fill="#FEFEFE" d="M338.206 611.206L339.4 611.693C339.526 612.044 339.793 612.374 339.778 612.747C339.756 613.282 332.076 634.803 331.183 637.877C326.647 653.493 320.936 673.944 321.983 690.128C326.156 691.066 329.489 692.434 333.2 694.485C333.726 696.792 334.093 699.148 334.517 701.477C332.874 699.626 331.269 698.141 329.311 696.635C323.207 693.14 316.913 695.584 310.851 693.395C309.944 693.068 309.67 693.033 309.287 692.123C311.079 690.386 315.861 690.597 318.354 690.404C318.585 674.108 328.903 624.797 338.206 611.206Z"/>
	<path fill="#FEFEFE" d="M683.664 614.2C684.421 614.644 684.964 615.032 685.523 615.727C692.488 624.385 698.128 668.148 696.335 679.141C702.092 681.107 712.899 683.222 716.526 688.591C717.275 689.7 717.233 690.387 717.081 691.664C716.664 692.191 716.524 692.714 715.792 692.749C713.416 692.862 709.947 689.409 708.083 688.018C701.301 682.958 687.544 683.463 679.654 684.552C674.077 685.574 668.838 687.32 663.655 689.616C661.332 690.646 659.034 692.391 656.539 692.836C655.45 692.378 655 691.946 654.255 691.036C654.275 690.177 654.119 690.008 654.709 689.309C656.028 687.747 658.577 686.916 660.42 686.159C671.24 681.714 681.711 680.234 693.269 679.297C692.345 664.817 691.113 649.814 687.867 635.636C687.188 632.671 686.47 629.638 685.467 626.765C684.448 623.842 682.563 620.805 682.216 617.704C682.025 616.001 682.693 615.463 683.664 614.2Z"/>
	<path fill="#FEFEFE" d="M658.994 331.622C661.926 331.481 664.302 332.065 666.876 333.487C671.27 335.915 673.938 340.142 675.217 344.913C677.436 353.187 675.03 362.996 670.639 370.199C665.63 378.415 658.856 382.696 649.61 384.971C648.472 380.85 648.207 376.232 647.7 371.995C648.711 373.124 649.806 374.387 651.146 375.133C652.954 376.14 655.092 376.179 657.051 375.642C659.871 374.868 662.384 372.682 663.682 370.074C664.835 367.757 665.082 365.191 664.088 362.778C663.437 361.197 662.404 359.83 660.75 359.239C658.715 358.513 656.488 359.161 654.668 360.103C653.854 360.525 653.301 360.856 652.373 360.966L652.474 359.776C658.231 347.567 657.95 351.965 667.37 348.114C668.352 347.028 669.059 346.345 669.278 344.829L668.604 344.012C665.859 343.341 663.415 343.704 660.728 344.528C655.303 346.193 652.333 349.686 649.764 354.568C648.438 357.086 646.6 361.429 647.887 364.285C648.358 365.329 649.439 366.207 650.55 366.475C652.156 366.864 653.292 366.428 654.622 365.605C655.89 364.821 657.066 363.987 658.626 364.005C659.466 364.015 659.207 364.038 659.897 364.726C660.037 365.772 659.896 366.489 659.403 367.437C658.494 369.186 656.753 370.821 654.85 371.411C653.531 371.82 652.21 371.707 651.024 370.985C648.192 369.26 646.98 365.411 646.369 362.366C644.618 353.654 643.05 346.138 648.56 338.267C651.357 334.27 654.234 332.369 658.994 331.622Z"/>
	<path fill="#FEFEFE" d="M342.312 371.574C343.125 371.45 343.536 371.407 344.325 371.511C349.821 372.23 353.761 376.729 356.952 380.866C357.92 386.498 357.92 392.532 358.205 398.243C358.625 406.647 359.244 414.774 360.592 423.1C354.265 425.177 349.218 424.702 343.042 422.56C342.144 422.135 341.249 421.705 340.367 421.247C332.675 417.249 326.422 409.808 323.868 401.53C321.976 395.401 321.784 389.067 324.959 383.31C328.84 376.274 335.035 373.699 342.312 371.574Z"/>
	<path fill="#231F20" d="M340.891 386.576C342.665 386.384 344.67 386.2 346.436 386.503C349.731 387.068 352.959 388.918 354.75 391.783C357.118 395.57 357.926 401.245 356.805 405.555C356.064 408.404 354.252 411.151 351.661 412.628C349.926 413.616 348.035 414.02 346.094 413.427C343.04 412.494 341.608 409.828 340.26 407.168C339.934 404.07 340.135 400.663 341.885 397.988C343.946 394.837 346.636 394.924 349.923 394.154C349.406 393.351 349.055 393.013 348.202 392.523C343.272 389.695 338.255 394.336 333.59 395.198C332.446 395.41 332.255 395.318 331.348 394.709C331.299 393.828 331.265 393.118 331.646 392.288C333.209 388.887 337.61 387.594 340.891 386.576Z"/>
	<path fill="#FEFEFE" d="M347.125 400.392C347.731 400.626 348.56 400.88 349.101 401.275C350.094 402.001 350.617 403.254 350.594 404.464C350.564 406.064 349.549 407.323 348.609 408.512C347.916 408.334 347.269 408.063 346.602 407.807C346.087 407.065 345.664 406.456 345.552 405.527C345.323 403.623 346.047 401.897 347.125 400.392Z"/>
	<path fill="#FEFEFE" d="M595.107 631.232C603.599 631.035 612.172 630.6 620.662 630.779C626.987 630.912 632.607 632.644 637.005 637.409C639.432 640.039 640.977 643.026 641.848 646.49C644.031 655.169 644.706 664.692 645.896 673.571L652.781 729.079L659.291 783.953C661.537 803.336 663.755 822.965 662.888 842.505C630.041 848.949 596.012 849.964 562.628 850.851C510.035 852.249 457.49 851.189 404.897 850.571C395.792 850.508 365.109 851.711 359.734 846.899C357.868 845.228 356.328 843.132 355.524 840.747C353.222 833.921 351.427 818.143 350.358 810.472C346.469 782.556 343.179 754.199 341.092 726.083C340.652 720.161 341.124 714.203 340.596 708.302C340.057 702.278 339.6 696.141 338.784 690.15C337.569 681.236 335.873 672.037 335.496 663.041C335.166 655.151 337.013 647.815 342.587 641.936C345.904 638.438 350.709 635.182 355.525 634.48C364.878 633.114 375.489 634.145 384.955 634.166C398.784 634.196 412.616 633.77 426.445 633.58L595.107 631.232Z"/>
	<path fill="#231F20" d="M489.009 641.239C489.641 641.483 490.247 641.783 490.776 642.214C491.5 642.803 491.808 643.478 492.04 644.359C493.283 649.074 498.029 687.443 497.547 690.672C497.344 692.035 496.434 692.518 495.472 693.339C495.062 693.2 494.314 692.973 493.969 692.733C492.92 692.002 492.837 690.849 492.606 689.707C491.059 682.05 490.768 673.784 489.802 666.005C489.091 660.283 486.815 649.42 487.129 644.268C487.22 642.775 488.047 642.269 489.009 641.239Z"/>
	<path fill="#231F20" d="M505.443 708.285C509.057 708.039 513.548 707.287 517.101 708.177C518.478 708.522 519.425 709.354 520.095 710.591C522.475 714.988 520.839 722.232 519.366 726.806C517.172 733.622 513.184 740.233 506.522 743.438C500.781 746.199 495.684 745.533 489.921 743.483C488.151 742.593 486.446 741.669 484.898 740.42C478.665 735.395 473.772 727.653 472.905 719.609C472.616 716.924 472.842 714.179 474.695 712.067C478.998 707.163 488.705 708.719 494.573 708.702C498.194 708.691 501.827 708.473 505.443 708.285Z"/>
	<path fill="#FEFEFE" d="M547.32 179.795C557.133 178.732 567.555 179.187 577.283 180.671C597.599 183.769 621.577 192.956 634.039 210.227C642.595 222.085 645.082 237.418 642.635 251.654C641.136 260.373 636.676 269.451 629.166 274.498C623.907 278.032 617.202 280.018 611.185 281.782C583.254 289.972 563.614 286.88 535.913 281.968C540.334 277.069 548.004 269.103 549.633 262.819C549.964 261.54 549.814 261.125 549.101 260.061C548.24 259.794 547.696 259.608 546.78 259.748C544.949 260.029 538.237 271.535 536.584 273.623C524.026 289.485 501.465 299.761 481.746 302.158C477.327 302.696 473.234 301.665 468.858 301.474C467.51 301.415 466.66 301.384 465.624 302.303C465.536 303.624 465.783 304.109 466.473 305.225C469.097 307.093 473.137 307.413 476.293 307.517C495.168 308.138 518.3 298.123 531.999 285.426C532.124 285.483 532.248 285.543 532.375 285.597C538.014 287.978 544.248 288.996 550.255 290.002C573.077 293.821 597.372 293.981 619.15 285.282C621.318 289.724 623.262 294.199 625.001 298.825C636.849 330.339 643.841 370.904 645.555 404.625C646.108 415.503 645.846 426.421 645.682 437.308C645.326 460.975 643.94 486.05 633.966 507.835C623.203 531.344 604.183 547.398 580.146 556.296C567.992 560.795 555.946 562.409 543.083 562.858C512.387 563.93 483.519 556.724 455.725 544.004C437.747 535.68 421.231 524.221 407.349 510.069C362.629 464.479 362.491 405.063 363.007 345.406C371.57 346.156 379.718 345.531 387.993 343.125C417.675 334.494 455.275 313.66 470.255 286C472.472 281.906 477.114 273.733 475.332 269.017C475.068 268.318 475.093 268.486 474.423 268.13C473.081 268.351 471.922 269.205 471.25 270.395C469.681 273.17 469.236 276.686 467.945 279.624C464.345 287.813 458.082 295.521 451.66 301.662C430.582 321.82 392.835 341.505 363.382 340.891C363.483 335.584 363.575 331.045 362.01 325.942C354.995 328.434 346.622 329.818 339.17 329.409C330.794 328.949 321.575 324.907 316.048 318.493C310.585 312.154 309.308 303.864 310.022 295.789C311.054 284.11 316.853 271.818 325.93 264.273C332.113 259.132 340.377 256.15 348.463 257.036C359.564 258.252 365.231 266.492 371.739 274.452C370.684 276.988 368.433 280.906 369.009 283.624C369.277 284.886 369.699 285.344 370.751 285.999C371.983 285.601 372.26 285.51 373.004 284.372C374.997 281.328 376.097 277.538 377.824 274.303C380.564 269.169 385.044 263.824 388.743 259.274C398.786 246.923 411.031 237.062 423.867 227.795C461.078 200.933 501.541 184.473 547.32 179.795Z"/>
	<path fill="#231F20" d="M331.827 298.56C335.37 297.989 337.836 298.591 340.888 300.418C343.151 301.773 346.365 304.387 346.612 307.282C346.739 308.772 345.898 309.527 345.103 310.671C341.511 309.953 339.744 305.723 336.642 303.902C334.733 302.781 332.215 303.1 330.597 301.516C330.655 300.161 331.141 299.683 331.827 298.56Z"/>
	<path fill="#231F20" d="M589.228 337.609C589.388 337.596 589.548 337.576 589.708 337.571C594.62 337.416 600.563 339.252 604.199 342.636C605.894 344.214 606.87 345.718 606.987 348.066C606.222 349.228 606.285 349.131 604.913 349.415C602.98 349.033 601.846 347.964 600.349 346.74C596.14 343.966 592.709 343.567 587.82 343.053C586.44 343.872 584.539 345.297 582.851 345.218C581.557 345.157 581.218 344.775 580.42 343.898C580.396 342.571 580.574 341.874 581.361 340.773C583.063 338.389 586.568 338.044 589.228 337.609Z"/>
	<path fill="#231F20" d="M454.413 350.168C457.711 350.082 462.602 349.835 465.519 351.536C466.758 352.258 466.96 352.842 467.369 354.166C467.224 354.657 467.275 355.256 466.934 355.637C466.07 356.604 455.693 356.208 453.564 356.581C450.662 357.09 448.258 358.254 445.779 359.77L445.178 360.143C443.622 361.594 441.816 363.655 439.743 364.289C438.508 364.667 437.767 364.453 436.677 363.885L436.28 362.578C436.516 361.003 436.982 359.891 437.953 358.611C441.65 353.735 448.518 351.038 454.413 350.168Z"/>
	<path fill="#231F20" d="M559.195 509.361L561.747 509.646C562.774 510.293 563.278 510.893 563.786 511.974C565.505 515.625 564.379 520.419 562.919 523.959C560.91 528.832 557.001 532.916 552.1 534.92C548.427 536.421 544.318 536.7 540.62 535.139C534.599 532.598 531.284 526.653 529.081 520.849C528.603 519.089 528.057 516.675 528.516 514.887C528.904 513.373 529.85 512.379 531.207 511.749C533.968 513.193 534.126 518.871 535.179 521.699C536.454 525.122 539.256 528.818 542.719 530.251C545.386 531.354 548.356 531.086 550.929 529.88C562.977 524.234 556.34 516.13 558.832 510.155C558.944 509.886 559.074 509.626 559.195 509.361Z"/>
	<path fill="#231F20" d="M596.519 376.542C597.987 376.544 599.293 376.625 600.699 377.088C604.521 378.346 607.339 382.067 609.019 385.556C611.634 390.984 612.822 397.84 610.641 403.591C609.313 407.095 607.373 409.023 604.003 410.537C602.642 410.569 601.174 410.666 599.857 410.266C595.89 409.062 592.862 405.195 591.159 401.602C588.644 396.297 587.436 389.062 589.579 383.464C590.947 379.892 593.078 378.031 596.519 376.542Z"/>
	<path fill="#231F20" d="M457.636 387.489C458.796 387.398 460.01 387.279 461.162 387.483C464.429 388.062 467.185 390.545 468.878 393.294C472.358 398.942 473.712 408.117 471.936 414.513C470.73 418.859 468.873 421.231 464.955 423.394C463.876 423.478 462.736 423.594 461.66 423.437C458.726 423.009 455.98 420.75 454.3 418.411C450.336 412.891 449.374 404.157 450.761 397.574C451.763 392.82 453.569 390.058 457.636 387.489Z"/>
	<path fill="#231F20" d="M534.177 367.919C535.036 367.94 535.803 368.073 536.643 368.247C540.643 371.537 543.466 376.586 546.189 380.954C555.411 395.749 563.075 410.926 568.031 427.693C570.608 436.408 576.767 456.87 571.969 464.881C569.854 468.41 564.646 470.16 560.873 470.991C550.238 473.334 538.699 470.772 529.672 464.96C528.752 464.123 527.702 463.251 527.179 462.096C526.634 460.895 526.491 459.703 526.847 458.474C530.326 456.895 537.035 463.392 540.63 464.529C546.818 466.487 557.288 468.329 563.216 465.04C565.656 463.686 567.166 461.516 567.837 458.831C570.455 448.345 561.23 421.178 556.809 410.69C553.907 403.805 550.45 397.073 546.553 390.702C544.141 386.76 541.647 382.831 538.947 379.079C537.426 376.966 534.689 374.615 533.668 372.295C533.008 370.794 533.478 369.278 534.177 367.919Z"/>
</svg>
