<?xml version="1.0" encoding="utf-8" ?>
<svg xmlns="http://www.w3.org/2000/svg" xmlns:xlink="http://www.w3.org/1999/xlink" width="1024" height="1024">
	<path fill="#FEFEFE" d="M0 0L1024 0L1024 1024L0 1024L0 0Z"/>
	<path fill="#231F20" d="M428.214 534.271C430.358 534.512 432.326 536.351 433.904 537.728C440.608 543.58 463.505 571.657 464.047 579.786C463.216 581.063 462.412 581.404 460.968 581.959C455.131 584.202 448.785 585.672 442.828 587.647C424.794 593.629 398.738 602.654 382.408 611.91L381.688 612.323L380.814 612.325C380.034 611.451 380.036 611.528 380.075 610.363C383.069 607.09 389.902 605.089 394.01 603.357C407.572 597.641 421.191 592.277 435.123 587.515C443.807 584.547 452.638 582.036 461.319 579.056C455.929 567.481 447.192 556.562 438.978 546.854C437.296 544.865 428.8 537.517 428.317 536.271C428.075 535.648 428.248 534.938 428.214 534.271Z"/>
	<path fill="#231F20" d="M321.856 631.217C329.072 633.68 336.215 640.496 342.13 645.165C351.444 644.914 360.809 644.715 370.116 645.244C371.422 647.051 372.763 648.833 374.09 650.624C371.61 651.322 369.099 651.93 366.603 652.572C355.414 655.069 344.153 657.418 332.845 659.306C328.802 650.161 325.35 640.582 321.856 631.217Z"/>
	<path fill="#231F20" d="M371.453 479.681C377.753 482.145 383.948 485.235 390.146 487.978C405.764 494.89 421.527 502.014 436.416 510.405L436.794 515.119C419.099 530.075 402.482 545.558 387.103 562.912C381.352 569.401 375.698 576.006 370.186 582.7C367.29 586.217 364.439 590.857 360.939 593.739L359.878 593.598L359.392 592.751C360.243 586.533 405.354 539.839 412.173 533.181C415.936 529.614 431.633 516.94 433.216 514.6C433.559 514.094 433.898 513.558 433.641 512.956C431.746 508.504 380.941 486.613 372.869 483.373C369.965 492.994 366.43 502.414 363.157 511.913L351.926 544.941C349.807 550.995 348.438 557.323 346.241 563.344C345.548 565.244 344.557 568.697 342.964 569.854L342.308 569.327C341.954 567.596 342.28 566.056 342.695 564.355C344.156 558.37 346.54 552.34 348.467 546.475L359.914 512.225C363.39 502.159 366.882 489.129 371.453 479.681Z"/>
	<path fill="#231F20" d="M547.938 226.23C573.113 224.966 603.448 237.067 624.035 251.259C630.072 255.421 635.334 260.974 641.591 264.755C641.745 264.848 641.901 264.936 642.056 265.027C645.069 263.418 647.799 262.222 651.244 261.764C660.582 260.524 669.165 264.422 676.474 269.884C687.466 278.098 697.348 291.877 699.195 305.735C700.591 316.208 695.18 321.487 689.379 329.02C694.564 328.513 699.331 327.104 704.615 327.751C712.512 328.717 720.524 333.016 725.24 339.479C730.001 346.002 731.698 354.087 730.471 362.018C728.959 371.786 723.174 380.885 715.222 386.696C706.636 392.971 697.484 394.7 687.091 393.074C685.135 406.274 677.429 420.488 668.289 430.071C674.24 442.685 679.633 455.985 684.469 469.065C692.048 466.846 699.923 465.518 707.763 464.611C717.143 463.525 726.406 463.484 735.83 463.47C742.712 463.46 749.653 463.198 756.522 463.661C782.317 465.403 811.901 473.093 832.294 489.433C874.189 523.002 891.715 596.277 897.24 647.297C903.437 644.607 908.968 641.22 914.412 637.216C935.426 621.759 950.074 599.818 953.849 573.75C959.316 536.002 944.712 491.761 925.005 459.508C916.934 446.3 907.41 434.511 898.196 422.128C894.549 423.525 890.813 424.048 886.931 423.399C879.029 422.079 874.764 416.72 870.543 410.523C866.126 411.211 861.67 411.72 857.203 411.922C853.864 412.074 848.466 412.203 846.022 409.487C845.063 408.421 844.684 407.497 844.771 406.056C844.925 403.485 847.64 401.001 849.586 399.644C855.516 395.509 863.544 394.606 870.521 395.902C868.36 387.023 864.224 378.411 862.649 369.462C862.244 367.165 862.065 365.153 863.429 363.153C864.657 362.512 865.347 362.279 866.749 362.53C872.057 363.484 875.799 369.716 878.804 373.734C878.748 367.92 878.832 354.021 882.865 349.581C883.581 348.792 883.959 349.033 884.966 348.979L884.834 348.923C889.559 352.607 890.225 363.624 891.459 369.23C893.202 366.586 894.898 363.777 896.907 361.331C899.512 358.158 906.292 353.326 910.526 353.326C911.899 353.326 912.049 353.537 912.95 354.445C914.119 359.043 905.68 370.845 903.523 375.617L903.128 376.501C907.432 374.893 911.874 373.105 916.465 372.533C918.741 372.25 921.602 372.009 923.442 373.65C924.191 374.318 924.521 375.448 924.505 376.437C924.428 381.122 911.626 388.061 907.203 392.582C907.559 394.268 907.895 395.958 908.118 397.667C909.254 406.37 908.179 413.202 902.734 420.316C920.597 440.28 934.44 461.73 945.427 486.187C960.329 519.361 966.763 560.908 953.364 595.627C943.352 621.566 923.139 641.273 897.93 652.498C900.951 680.189 902.404 708.006 902.6 735.854C902.697 749.467 902.763 763.09 901.673 776.668C848.153 779.158 794.552 779.257 741.019 781.134C734.806 781.352 728.653 782.32 722.432 782.588C722.672 790.164 723.598 797.718 723.461 805.3C720.806 797.866 719.921 790.396 718.866 782.613C686.758 784.946 654.422 785.797 622.266 787.42L558.233 790.53C550.193 790.889 542.134 791.63 534.09 791.773C531.963 791.811 528.14 792.151 526.305 791.102C525.017 785.887 525.092 780.017 524.678 774.648L522.347 744.825C499.973 743.004 478.272 735.189 458.461 724.947C434.431 711.854 415.95 697.132 398.941 675.618C395.636 677.628 392.339 679.547 388.754 681.021C371.393 688.163 355.809 684.787 339.098 677.887C318.901 681.161 298.774 685.869 278.774 690.167L197.572 707.418L163.61 714.669C156.863 716.114 149.835 718.073 142.954 718.527C141.767 718.027 140.585 717.515 139.483 716.843C137.336 715.532 136.264 714.434 135.114 712.225C127.952 698.476 122.337 683.696 116.043 669.528L83.4989 596.815L73.0569 573.591C70.973 569.045 67.7564 563.669 66.7053 558.823C66.2282 556.623 66.4523 554.328 67.8093 552.476C69.1731 550.614 71.0557 549.619 73.2219 548.96C81.3111 546.498 90.2013 545.3 98.5005 543.499L149.841 531.999L224.975 514.888C237.143 512.14 249.564 508.335 261.909 506.724C263.448 507.456 265.36 508.18 266.315 509.663C268.795 513.514 270.474 518.71 272.305 522.925L285.16 552.923L330.774 662.961C342.615 659.428 355.333 657.811 367.402 655.062C377.998 652.649 388.516 649.859 399.131 647.537C409.531 645.261 420.077 643.482 430.552 641.584C438.547 640.135 446.684 638.415 454.771 637.619C455.986 637.499 457.241 637.237 458.212 638.023C458.48 641.724 454.939 648.854 452.998 652.188C452.488 653.064 451.782 653.787 450.843 654.191C446.798 655.929 441.84 656.437 437.532 657.251C428.496 658.959 419.261 660.33 410.387 662.721C408.218 666.59 405.821 669.328 402.627 672.343C433.098 709.515 473.906 733.037 521.576 739.765C517.981 676.804 509.701 593.278 547.675 538.96C554.021 529.882 562.056 520.297 570.743 513.356C590.329 497.707 633.194 481.076 658.163 476.691L642.773 449.452C639.114 451.364 635.645 453.662 631.977 455.585C621.852 460.896 610.889 464.568 599.604 466.389C576.717 470.081 552.552 467.467 533.407 453.554C514.211 439.604 505.067 417.334 501.534 394.576C500.516 395.032 499.469 395.515 498.376 395.759C494.737 396.573 490.566 395.511 487.521 393.456C482.355 389.968 479.459 383.511 478.253 377.556C476.481 368.802 477.603 358.967 482.746 351.488C485.964 346.809 490.767 343.515 496.434 342.72C498.455 342.437 500.866 342.536 502.512 343.899C503.427 344.658 503.512 344.809 503.612 345.92C501.504 348.056 496.721 348.26 493.849 349.063C490.004 350.138 487.769 353.135 485.981 356.567C482.4 363.442 482.209 372.399 484.493 379.742C485.667 383.519 487.784 387.776 491.523 389.582C493.626 390.598 497.273 390.968 499.425 389.904C500.506 389.37 500.814 388.676 500.977 387.505C501.253 385.516 501.274 373.154 500.517 372.01C497.768 371.155 495.188 372.527 492.488 372.123C491.469 371.971 491.332 371.68 490.734 370.926C490.691 369.44 490.672 369.228 491.422 367.961C494.298 366.074 498.195 366.837 501.465 367.014C505.123 340.829 512.284 313.211 530.75 293.329C524.945 290.733 519.441 288.159 514.524 284.038C507.27 277.958 501.013 269.476 500.271 259.771C499.705 252.358 502.122 245.122 507.142 239.622C517.34 228.45 533.73 226.664 547.938 226.23Z"/>
	<path fill="#FEFEFE" d="M367.202 671.568C367.605 671.513 368.22 671.626 368.632 671.661C370.159 673.67 370.606 677.273 371.526 679.714C366.085 679.759 361.193 679.414 355.876 678.185L347.781 675.997C353.823 673.796 360.907 673.127 367.202 671.568Z"/>
	<path fill="#FEFEFE" d="M390.662 666.1L391.723 666.059C393.357 667.361 394.524 669.796 395.644 671.562C390.012 674.497 384.577 677.254 378.391 678.867C376.774 679.168 375.822 679.577 374.261 678.998C372.494 676.672 372.587 673.151 372.244 670.307C378.343 668.746 384.514 667.452 390.662 666.1Z"/>
	<path fill="#FEFEFE" d="M198.272 601.649C200.622 601.228 203.479 601.964 205.615 602.928C209.268 604.579 211.998 607.874 213.367 611.602C214.838 615.609 214.843 620.244 212.936 624.112C211.096 627.844 208.25 629.657 204.447 631.038C200.286 631.133 197.251 630.659 193.761 628.18C190.114 625.589 187.543 621.56 186.815 617.138C186.203 613.421 186.867 609.346 189.271 606.358C191.586 603.482 194.69 602.11 198.272 601.649Z"/>
	<path fill="#FEFEFE" d="M705.067 470.382L705.413 470.371L705.902 471.123C706.525 480.827 706.475 491.356 701.146 499.897C698.294 504.469 693.949 508.194 688.606 509.388C681.382 511.003 672.087 507.525 666.093 503.443C659.316 498.828 654.448 491.168 652.907 483.148C655.049 481.891 658.377 481.32 660.806 480.626C663.733 488.243 670.142 497.569 677.523 501.413C680.15 502.782 683.571 503.674 686.465 502.63C688.695 501.825 690.182 500.061 691.031 497.893C694.154 489.911 689.139 480.318 685.91 473.089C692.208 472.08 698.729 470.948 705.067 470.382Z"/>
	<path fill="#FEFEFE" d="M664.09 433.888C664.438 434.143 664.603 434.229 664.872 434.633C666.936 437.729 668.386 442.756 669.866 446.255C675.297 459.097 682.662 474.341 686.141 487.622C686.789 490.093 687.274 492.858 686.656 495.382C686.251 497.037 685.563 497.457 684.193 498.23C680.751 498.419 678.686 496.375 676.068 494.443C668.55 486.982 652.205 457.326 647.38 446.923C653.485 443.084 658.739 438.682 664.09 433.888Z"/>
	<path fill="#FEFEFE" d="M884.078 359.326C888.019 365.343 885.383 376.136 889.07 381.503L889.84 381.557C892.153 381.72 893.816 374.684 894.812 372.577C897.796 366.267 902.155 362.275 907.998 358.625C904.077 364.541 897.612 374.225 897.614 381.613C897.614 382.912 897.911 383.307 898.853 384.126C901.419 384.584 906.916 380.32 909.502 379.25C911.835 378.284 914.286 377.657 916.77 377.23L917.31 377.507L917.601 377.258L918.308 377.83C915.907 381.035 910.054 383.5 906.826 386.215C899.965 391.987 904.449 399.91 903.614 407.588C903.178 411.597 901.387 414.648 898.225 417.103C894.844 418.725 891.146 419.25 887.463 418.443C880.926 417.01 876.82 411.741 873.359 406.454C869.011 406.166 853.706 407.864 851.131 405.937C851.293 405.444 851.276 405.376 851.653 404.906C852.326 404.067 853.787 403.409 854.737 402.913C863.618 398.279 865.928 401.608 872.982 400.478C873.683 400.366 874.153 400.125 874.527 399.531C877.189 395.31 868.487 372.269 866.862 366.483C870.409 369.966 878.367 382.992 881.412 384.133L882.212 383.644C885.312 377.908 882.77 366.753 883.974 359.869C884.006 359.687 884.044 359.507 884.078 359.326Z"/>
	<path fill="#FEFEFE" d="M641.535 278.53C643.232 278.794 643.172 282.525 643.384 284.021C645.582 299.502 647.599 317.829 658.641 329.818C663.906 335.535 670.311 338.332 677.964 338.65C676.751 340.757 675.459 342.876 674.481 345.104C673.711 346.861 673.251 348.354 673.97 350.204C675.014 351.243 675.719 351.349 677.107 351.659C680.186 350.135 680.731 341.647 686.88 337.27C692.399 333.34 699.643 331.93 706.251 333.241C712.629 334.506 718.205 338.379 721.729 343.826C725.423 349.538 726.457 356.138 724.921 362.739C722.791 371.894 716.56 379.809 708.616 384.707C699.951 390.049 695.717 388.791 686.624 387.044C685.12 386.755 684.661 386.739 683.409 387.619C682.309 389.872 682.094 392.306 681.747 394.764C681.056 399.646 678.905 404.226 676.628 408.568C662.857 434.83 636.759 450.639 609.12 459.186C603.512 460.899 597.658 461.881 591.826 462.413C570.198 464.386 550.13 460.983 533.137 446.723C516.655 432.891 508.503 411.504 506.798 390.468C504.121 357.438 514.193 320.237 535.879 294.912C572.239 303.957 607.463 289.752 641.535 278.53Z"/>
	<path fill="#231F20" d="M660.67 377.005C661.669 376.955 662.684 377.019 663.673 377.171C665.308 377.424 666.524 378.146 667.472 379.534C668.22 380.629 668.785 381.87 668.529 383.201C666.349 384.535 664.329 382.455 662.117 382.333C661.939 382.323 661.761 382.348 661.583 382.355C660.714 383.333 659.406 385.131 658.187 385.598C656.943 386.075 656.437 385.813 655.337 385.301C654.722 383.93 654.537 382.987 655.057 381.53C655.995 378.901 658.29 378.052 660.67 377.005Z"/>
	<path fill="#231F20" d="M538.809 349.872C540.121 349.815 541.033 349.672 542.157 350.486C543.413 352.689 542.379 364.692 541.577 367.384C540.978 369.394 539.784 371.796 537.693 372.616C535.945 373.302 534.301 373.079 532.674 372.239C527.582 369.608 525.425 363.307 523.832 358.19C523.53 356.967 523.115 355.48 523.216 354.203C523.32 352.889 523.707 351.511 524.666 350.581C529.09 350.959 528.138 365.41 533.592 368.059C534.582 368.539 535.474 368.626 536.493 368.268C539.18 363.078 537.016 355.885 538.672 350.295C538.714 350.153 538.763 350.013 538.809 349.872Z"/>
	<path fill="#231F20" d="M608.288 345.228L610.48 345.505C611.091 345.961 611.457 346.358 611.758 347.069C613.608 351.452 613.42 359.065 611.356 363.367C610.334 365.497 608.579 367.486 606.283 368.247C604.888 368.71 603.502 368.588 602.222 367.86C597.922 365.41 595.853 358.963 594.623 354.445C594.266 352.408 593.723 350.28 594.254 348.236C594.577 346.997 595.199 346.236 596.27 345.558C597.454 345.728 596.994 345.469 597.724 346.19L596.773 345.518C597.201 345.934 597.921 346.198 598.039 346.783C599.044 351.761 599.598 356.974 602.342 361.393C603.204 362.781 603.819 363.183 605.397 363.514C610.357 360.711 605.516 350.355 607.821 346.014C607.964 345.745 608.132 345.49 608.288 345.228Z"/>
	<path fill="#231F20" d="M702.415 345.562C702.953 345.522 703.205 345.489 703.708 345.494C705.661 345.51 708.293 346.499 709.529 348.039C710 348.626 709.774 349.037 709.709 349.728C708.03 351.443 707.381 351 705.162 351.08C699.093 351.299 695.654 354.95 691.776 359.103C693.347 359.406 694.944 359.667 696.481 360.117C699.506 361.005 701.916 362.079 703.5 364.916C703.614 366.866 703.055 367.313 702.044 368.938C698.337 366.981 695.781 365.096 691.494 364.084C689.83 364.943 687.634 366.232 685.699 365.777C684.89 365.587 684.86 365.127 684.468 364.471C684.348 362.732 684.676 361.202 685.509 359.676C689.199 352.91 694.961 347.597 702.415 345.562Z"/>
	<path fill="#231F20" d="M556.999 352.098C557.945 352.363 558.582 352.75 559.395 353.296C561.466 357.579 554.295 399.426 552.688 406.32C561.208 406.288 570.958 405.542 577.728 399.749C579.664 398.093 581.365 395.449 583.736 394.488C585.082 394.706 585.058 394.807 585.972 395.842C586.262 397.46 586.272 397.404 585.421 398.81C581.487 403.044 577.587 406.413 572.01 408.361C567.816 409.825 552.298 412.165 548.804 410.104C548.194 409.744 547.99 409.349 547.888 408.648C547.577 406.514 554.609 359.486 555.651 354.69C555.889 353.594 556.328 352.966 556.999 352.098Z"/>
	<path fill="#FEFEFE" d="M634.944 488.525C637.466 490.647 641.296 512.051 651.382 520.589C655.767 524.3 661.684 526.159 667.412 525.491C672.447 524.903 675.01 521.916 678.051 518.25C689.978 568.1 699.62 619.054 706.676 669.839C711.656 705.681 715.259 741.655 718.59 777.68C693.814 778.12 669.038 779.968 644.291 781.196C606.432 783.075 568.516 784.691 530.687 787.085C530.094 773.185 528.777 759.283 527.407 745.44L535.463 745.687C563.6 746.367 586.703 735.884 606.833 716.718C615.072 707.884 622.133 698.802 627.672 687.998C636.561 670.663 642.166 651.85 641.635 632.249C641.549 629.079 641.717 625.195 640.635 622.182C640.048 620.548 639.26 619.018 637.67 618.209L636.642 618.682C634.041 623.29 636.802 632.762 636.655 638.213C635.893 666.341 620.419 696.625 600.319 715.799C578.498 736.614 556.098 741.036 527.01 740.403C522.04 695.226 520.5 630.023 531.912 586.315C534.444 576.617 538.131 567.263 542.519 558.261C563.17 515.895 593.238 502.863 634.944 488.525Z"/>
</svg>
