<?xml version="1.0" encoding="utf-8" ?>
<svg xmlns="http://www.w3.org/2000/svg" xmlns:xlink="http://www.w3.org/1999/xlink" width="1024" height="1024">
	<path fill="#FEFEFE" d="M0 0L1024 0L1024 1024L0 1024L0 0Z"/>
	<path fill="#231F20" d="M721.657 296.638C722.248 296.584 722.84 296.534 723.433 296.501C726.052 296.355 730.396 296.091 732.326 298.4C733.207 299.454 733.171 299.712 732.978 300.966C730.653 302.349 725.829 301.268 722.916 301.576C715.767 302.334 711.274 306.271 706.854 311.528C705.905 313.192 704.612 315.986 702.663 316.586C701.457 316.958 700.984 316.693 699.941 316.182C699.361 315.412 699.078 314.936 698.902 313.962C698.489 311.684 699.754 309.061 701.043 307.273C705.796 300.686 714.01 297.94 721.657 296.638Z"/>
	<path fill="#231F20" d="M408.316 146.212C409.156 146.305 410.155 146.338 410.868 146.86C414.119 149.245 437.356 184.333 438.479 188.225C438.367 189.838 437.494 190.59 436.465 191.721C435.769 191.607 435.07 191.417 434.382 191.26C430.946 188.549 407.609 154.204 406.458 150.023C406.561 148.242 407.231 147.514 408.316 146.212Z"/>
	<path fill="#231F20" d="M365.361 197.309C366.379 197.341 367.309 197.407 368.287 197.71C375.668 199.998 385.881 206.147 393.021 209.731C399.064 212.764 406.328 215.575 411.861 219.396C412.54 219.865 412.898 220.354 413.264 221.081C413.458 222.773 412.865 223.668 412.078 225.086C411.135 225.336 410.612 225.397 409.643 225.152C405.592 224.131 365.781 203.889 364.469 201.858C364.166 200.147 364.775 198.878 365.361 197.309Z"/>
	<path fill="#231F20" d="M557.133 248.472C557.962 248.501 558.79 248.518 559.605 248.695C561.226 249.046 562.579 250.29 563.435 251.667C565.805 255.482 564.913 261.382 563.827 265.547C562.279 271.486 559.336 277.475 553.929 280.705C553.019 280.725 552.052 280.787 551.174 280.491C549.373 279.882 547.976 278.122 547.236 276.439C544.967 271.277 546.372 263.523 548.4 258.49C550.234 253.937 552.579 250.456 557.133 248.472Z"/>
	<path fill="#231F20" d="M624.569 251.013C625.505 250.901 626.48 250.86 627.419 250.974C629.086 251.175 630.588 252.271 631.567 253.598C634.108 257.041 633.813 262.436 633.155 266.484C632.119 272.858 629.435 279.342 624.112 283.229C623.056 283.47 621.845 283.714 620.764 283.506C619.354 283.235 618.06 282.173 617.251 281.026C614.528 277.164 615.177 269.374 616.117 264.903C617.313 259.216 619.619 254.268 624.569 251.013Z"/>
	<path fill="#231F20" d="M578.707 279.041C579.716 278.984 580.766 278.976 581.772 279.074C584.206 279.311 586.684 280.564 588.234 282.467C589.414 283.915 589.836 285.262 589.609 287.142C588.868 288.211 588.631 288.74 587.26 289.028C585.404 289.417 583.392 287.947 581.834 287.063C579.282 290.204 577.366 293.893 575.87 297.64C574.271 301.645 571.348 310.387 573.448 314.422C575.096 317.588 583.05 311.205 586.292 311.902C587.224 312.934 587.491 313.655 587.81 314.965C587.845 315.11 587.877 315.256 587.911 315.402C585.093 318.11 581.813 320.438 578.109 321.778C575.27 322.806 572.209 323.133 569.43 321.75C566.403 320.245 564.312 317.179 563.365 313.997C561.091 306.359 564.314 295.694 568 288.876C570.478 284.293 573.599 280.575 578.707 279.041Z"/>
	<path fill="#231F20" d="M540.797 108.671C549.669 107.297 560.417 108.786 569.122 110.71C613.362 120.486 650.738 155.733 674.371 193.015C677.733 187.153 681.434 182.149 687.751 179.216C693.703 176.452 700.469 176.388 706.598 178.632C716.247 182.165 722.94 190.304 727.128 199.415C738.442 224.035 731.514 249.031 722.682 272.966C726.336 273.029 729.849 273.383 733.319 274.613C740.048 276.998 745.272 282.034 748.336 288.43C753.201 298.587 752.663 311.987 748.82 322.381C745.359 331.742 738.509 340.151 729.325 344.348C721.201 348.062 713.658 347.223 705.572 344.177C693.049 372.665 677.347 400.489 670.962 431.222C689.262 432.965 707.521 434.862 725.783 436.966C744.993 439.179 764.97 441.364 783.482 447.203C794.283 450.609 805.274 455.651 814.054 462.909C822.488 469.88 829.408 480.661 830.297 491.755C832.553 519.909 797.337 570.291 779.377 591.375C775.869 595.492 762.734 610.371 757.203 610.259C756.102 610.236 755.121 609.739 754.347 608.975C750.722 605.402 750.988 597.228 750.865 592.513C750.77 588.856 753.149 585.33 752.918 582.013C752.872 581.337 752.242 580.852 751.669 580.548C751.13 580.262 750.499 580.134 749.961 580.438C748.196 581.437 747.602 584.366 747.239 586.185C745.753 593.643 745.751 604.534 750.24 610.992C751.495 612.798 753.383 614.341 755.633 614.591C759.987 615.076 764.461 611.794 767.664 609.175C789.373 591.426 818.473 547.041 828.511 520.439C832.479 509.926 835.675 494.985 836.486 483.618C837.284 472.429 823.752 465.549 820.273 452.154C818.53 445.446 818.815 436.304 813.958 430.926C806.524 422.694 788.52 427.622 778.746 426.539C777.154 426.363 775.872 425.642 774.96 424.311C774.184 423.179 773.989 421.919 774.207 420.588C775.139 414.891 781.83 408.606 786.439 405.518C795.881 399.193 806.604 400.581 817.181 402.676C806.255 395.638 787.432 391.82 781.009 379.645C779.98 377.693 779.479 375.449 780.214 373.307C781.324 370.076 784.62 367.924 787.62 366.663C798.697 362.007 810.475 365.773 821.021 369.896C819.326 365.07 817.801 360.347 818.97 355.165C819.691 351.968 821.598 349.126 824.499 347.521C827.248 346.001 830.428 346.075 833.368 346.954C838.325 348.437 843.082 351.741 847.313 354.62C868.549 369.074 889.344 391.314 901.091 414.223C917.448 446.119 911.481 481.379 905.3 515.134C904.455 519.748 901.931 525.964 901.487 529.324C900.708 535.232 901.444 541.389 900.875 547.363C898.816 568.973 894.702 590.557 887.959 611.209C873.342 655.971 838.467 720.881 795.162 742.826C809.745 741.857 824.795 742.56 839.436 742.534C847.951 742.519 858.962 741.719 867.077 742.391C868.441 742.504 870.182 742.918 871.313 743.724C872.4 744.5 872.537 745.08 872.691 746.343C872.429 746.806 872.215 747.255 871.808 747.624C870.723 748.61 868.741 749.004 867.333 749.105C860.618 749.587 853.395 748.866 846.603 748.879L788.675 748.713L619.844 748.544C621.278 758.419 622.091 768.358 622.899 778.3L730.494 780.768L760.006 781.623C764.496 781.774 769.53 781.514 773.953 782.222C775.037 782.396 776.199 782.764 777.053 783.484C777.954 784.243 778.446 785.412 778.589 786.558C778.779 788.092 778.542 789.571 777.458 790.752C774.631 793.829 743.149 798.051 736.599 799.219L656.695 813.033C644.352 815.132 631.384 818.524 618.909 819.317C607.984 820.012 596.415 818.966 585.454 818.658L518.139 816.716C441.872 814.93 365.538 812.921 289.25 812.492L226.417 812.195L149.398 812.554C143.247 812.571 120.538 813.686 116.032 812.044C115.53 811.545 114.973 811.26 114.913 810.508C114.815 809.283 115.439 807.944 116.355 807.147C117.478 806.169 178.349 806.516 185.074 806.54C180.471 802.838 177.48 799.527 176.002 793.715C172.621 780.422 171.93 764.895 170.397 751.171L162.273 680.159L150.161 575.958L147.14 549.371C146.44 543.605 145.445 537.723 145.196 531.919C145.029 528.004 145.637 523.864 147.797 520.514C149.531 517.824 153.142 516.854 156.125 516.289C161.543 515.264 167.473 515.3 172.978 514.982C183.737 514.36 194.479 513.851 205.25 513.486C234.732 512.487 264.294 511.433 293.791 511.1L319.835 510.853C324.216 510.785 328.997 511.067 333.287 510.245C335.023 508.084 332.169 504.221 330.994 502.25C329.41 499.594 327.464 496.808 326.52 493.851C325.089 489.375 324.604 483.89 323.935 479.221C321.317 460.952 319.722 442.715 321.252 424.277C324.095 390.013 338.397 368.135 363.987 346.513C372.161 339.607 405.058 315.732 414.763 316.977C417.843 317.372 420.211 319.508 421.895 321.991C426.741 329.137 428.004 337.813 426.264 346.16C436.467 347.728 450.304 352.575 456.78 361.214C457.877 362.678 458.549 364.437 458.124 366.277C457.708 368.082 456.349 368.915 454.75 369.603C451.279 371.097 447.242 371.633 443.575 372.502C434.987 374.538 426.037 376.735 418.091 380.624C427.998 382.093 436.371 386.892 443.125 394.279C447.108 398.636 452.625 406.265 452.046 412.434C451.908 413.912 450.932 415.499 449.697 416.328C444.772 419.632 425.945 410.122 418.968 408.697C415.77 408.044 412.042 407.655 409.231 409.682C402.508 414.532 398.533 424.901 397.089 432.737C395.828 439.583 395.407 462.978 399.184 468.41C400.469 467.884 402.398 467.116 403.778 467.467C404.232 467.582 404.365 467.683 404.612 468.069C405.769 469.88 406.06 474.475 406.82 476.802C409.765 485.82 413.003 495.524 416.966 504.112C417.589 505.463 418.07 506.305 419.48 506.83C420.266 506.329 420.221 506.539 420.538 505.77C420.942 504.792 421.046 503.894 420.77 502.876C420.06 500.259 418.603 497.606 417.682 495.014C414.863 487.084 412.122 479.144 409.14 471.27L409.534 470.482C413.473 462.436 421.422 455.084 428.113 449.287C440.704 438.379 455.032 429.808 471.142 425.317C496.139 418.349 523.314 421.009 548.94 422.261C567.763 423.18 586.537 424.231 605.336 425.552C609.128 415.313 612.529 404.977 615.892 394.591C605.386 393.118 595.003 391.339 585.064 387.493C558.614 377.26 536.433 358.098 525.005 331.856C514.825 308.482 514.732 282.817 524.14 259.143C529.412 245.877 537.778 234.592 547.959 224.677C549.832 222.853 552.471 219.959 554.999 219.195C556.313 218.799 556.641 218.897 557.829 219.388C558.659 220.491 558.826 221.165 559.008 222.526C558.072 225.338 549.864 232.462 547.603 235.049C531.911 253.017 522.934 276.733 524.637 300.718C528.047 348.724 568.702 380.424 613.696 387.567C619.038 388.415 641.745 388.457 644.245 390.641C644.187 391.7 644.208 392.23 643.285 392.965C639.741 395.793 626.075 394.866 621.283 394.853C619.703 405.532 616.364 415.916 612.238 425.859C629.386 426.736 647.143 428.048 664.154 430.446C670.368 399.408 684.686 369.259 700.643 342.127C697.427 339.684 694.111 337.331 690.969 334.797C689.526 333.634 688.508 332.223 688.493 330.276C688.483 328.986 689.145 328.304 689.994 327.468C690.911 327.309 691.404 327.16 692.294 327.581C693.581 328.189 694.817 329.566 695.884 330.505C700.624 334.679 705.154 338.392 711.552 339.643C717.977 340.9 724.573 339.264 729.978 335.664C737.503 330.651 742.188 322.384 743.8 313.595C745.364 305.068 744.568 294.765 739.354 287.564C736.219 283.235 731.631 280.512 726.339 279.804C718.806 278.795 710.652 281.399 705.024 286.426C703.225 288.034 701.06 290.616 698.996 291.778C697.75 292.479 697.327 292.247 696.039 291.912C695.28 290.831 695.012 290.636 695.328 289.255C696.225 285.339 703.358 280.704 706.594 278.659C700.935 263.492 694.704 248.422 688.111 233.638C653.558 228.787 618.843 225.036 584.292 220.162C579.466 219.482 574.637 218.702 569.781 218.261C566.504 217.963 562.976 218.514 559.791 217.636C546.534 213.984 531.991 206.733 521.063 198.616C508.524 189.302 498.237 176.282 496.037 160.424C494.464 149.087 497.67 137.096 504.592 127.989C513.365 116.446 526.734 110.578 540.797 108.671Z"/>
	<path fill="#FEFEFE" d="M623.383 784.473C639.922 784.376 656.596 785.364 673.142 785.701C700.148 786.251 727.32 786.397 754.287 787.897C745.627 789.522 736.819 790.629 728.115 792.034C691.768 798.192 655.52 805.035 619.139 810.97C625.307 801.244 624.336 795.295 623.383 784.473Z"/>
	<path fill="#FEFEFE" d="M414.588 322.596C416.604 323.512 417.945 325.098 419.115 326.939C422.664 332.521 422.032 339.164 420.585 345.263C403.156 348.76 390.397 354.111 377.855 367.213C374.523 370.692 365.482 380.806 366.036 385.793C366.174 387.033 366.802 387.724 367.694 388.486C373.147 388.043 377.559 376.647 381.406 372.882C392.525 361.999 405.752 352.994 421.752 351.967C434.184 351.17 443.218 356.051 452.271 364.101C432.053 367.581 408.223 374.028 393.327 388.782C391.407 390.684 389.167 392.467 389.167 395.368C389.69 396.486 389.931 396.982 391.023 397.592C394.859 397.421 401.049 389.465 405.305 387.393C411.05 384.595 416.759 384.869 422.668 386.952C432.629 390.462 441.684 398.379 446.027 408.13C446.682 409.6 446.878 410.457 446.261 411.946C443.259 412.967 438.031 409.673 435.131 408.325C430.105 406.243 416.099 400.844 411.113 401.934C405.573 403.146 401.4 407.459 398.503 412.105C387.701 429.431 389.005 451.647 393.506 470.704C384.684 473.409 341.534 484.866 336.681 488.287C334.849 489.578 334.712 490.704 334.334 492.759L333.641 492.751C333.265 492.255 333.211 492.228 332.91 491.567C330.843 487.016 330.526 479.434 329.838 474.426C326.03 446.692 324.607 416.947 335.906 390.683C348.059 362.432 386.554 333.655 414.588 322.596Z"/>
	<path fill="#FEFEFE" d="M829.02 352.976C829.329 353.025 829.639 353.068 829.948 353.122C846.401 355.956 877.168 390.408 886.9 404.472C904.579 430.023 906.229 452.553 903.166 482.497C901.633 497.479 899.198 512.116 896.463 526.914C877.053 520.527 857.752 513.905 838.202 507.946C841.07 499.844 843.818 489.824 843.583 481.215C843.24 468.67 834.28 466.636 829.71 457.229C824.772 447.066 827.004 432.87 817.939 424.769C810.212 417.863 797.155 418.943 787.562 419.381C785.956 419.458 784.466 419.57 782.88 419.222C783.383 417.751 784.425 416.65 785.463 415.506C790.018 410.485 796.31 407.872 803.023 407.482C815.628 406.75 829.785 413.457 835.996 424.704C837.78 427.934 838.796 432.763 841.788 435.098C842.875 435.945 843.426 436.04 844.744 435.818C845.86 434.653 846.212 433.374 846.26 431.784C846.415 426.667 843.186 421.168 840.444 417.01C829.006 399.668 818.404 395.275 800.543 386.376C796.584 384.404 791.48 381.896 788.548 378.506C787.648 377.464 787.328 376.627 787.383 375.239C787.841 374.239 788.265 373.478 789.287 372.959C792.808 371.17 799.205 371.282 803.106 371.659C824.466 373.726 843.937 390.307 857.085 406.198C860.083 409.821 862.219 414.164 865.261 417.675C866.244 418.81 867.846 420.296 869.376 420.616C870.723 420.898 871.048 420.804 872.197 420.206C872.605 419.346 872.734 418.878 872.668 417.901C872.158 410.414 853.309 390.434 847.214 385.39C841.621 380.761 835.263 377.144 829.552 372.652C827.815 368.27 823.636 360.316 825.767 355.599C826.472 354.039 827.552 353.619 829.02 352.976Z"/>
	<path fill="#FEFEFE" d="M564.944 514.229C569.161 514.098 573.786 513.623 577.958 514.241C582.915 514.976 586.698 517.298 589.456 521.51C591.044 523.937 591.639 528.343 592 531.233C593.735 545.159 594.574 559.3 595.921 573.275L604.864 667.267L612.458 748.724C613.976 763.64 616.201 778.579 617.34 793.519C617.522 795.893 617.755 798.407 617.11 800.726C615.959 804.865 612.969 807.385 609.408 809.493C597.013 809.836 584.41 808.828 571.995 808.596L474.595 806.635L210.418 804.899C202.715 804.905 194.103 805.862 187.73 800.626C184.698 798.134 182.85 794.748 181.959 790.965C179.924 782.334 179.649 772.687 178.559 763.834L170.725 696.767L156.863 578.362C155.287 564.168 153.266 549.96 152.098 535.729C151.808 532.201 151.304 528.254 153.897 525.407C156.264 522.807 162.607 522.636 165.97 522.295C179.026 520.968 192.238 521.069 205.348 520.671L278.105 518.791C334.125 517.45 390.147 515.808 446.181 515.166C485.743 514.713 525.4 515.44 564.944 514.229Z"/>
	<path fill="#231F20" d="M373.987 639.7C374.117 639.683 374.247 639.663 374.377 639.65C384.62 638.628 400.147 639.244 408.346 646.188C411.755 649.076 413.744 653.072 413.917 657.542C414.122 662.809 411.943 667.863 408.337 671.648C400.553 679.816 387.09 681.263 376.444 681.514C365.047 681.676 351.044 680.725 341.604 673.536C338.817 671.413 336.481 668.557 336.057 664.975C335.601 661.118 337.552 657.456 339.983 654.607C348.242 644.926 361.772 640.85 373.987 639.7Z"/>
	<path fill="#FEFEFE" d="M374.368 646.2C374.518 646.175 374.668 646.14 374.82 646.124C383.439 645.192 397.312 645.42 404.437 651.101C406.592 652.819 408.091 655.135 408.339 657.921C408.615 661.021 407.38 663.987 405.363 666.302C398.985 673.624 386.438 674.657 377.412 675.054C367.666 675.256 355.488 674.613 346.84 669.573C344.901 668.443 342.957 666.789 342.532 664.469C342.173 662.512 343.016 660.561 344.186 659.033C350.493 650.798 364.622 647.255 374.368 646.2Z"/>
</svg>
