<?xml version="1.0" encoding="utf-8" ?>
<svg xmlns="http://www.w3.org/2000/svg" xmlns:xlink="http://www.w3.org/1999/xlink" width="1024" height="1024">
	<path fill="#FEFEFE" d="M0 0L1024 0L1024 1024L0 1024L0 0Z"/>
	<path fill="#231F20" d="M686.082 201.519C689.189 201.346 692.046 202.292 694.942 203.313C697.36 204.166 699.565 205.939 700.603 208.332C702.221 212.059 701.146 216.367 699.765 219.987C695.24 231.85 687.199 243.375 675.383 248.663C673.887 249.099 672.347 249.457 670.777 249.412C667.953 249.331 665.114 248.793 663.246 246.514C661.137 243.94 660.878 239.637 661.332 236.486C662.337 229.523 667.225 223.175 672.767 219.115L672.93 218.63C675.423 211.381 678.941 205.035 686.082 201.519Z"/>
	<path fill="#FEFEFE" d="M676.102 221.006C678.362 221.291 680.605 221.615 682.628 222.727C684.042 223.504 685.196 224.552 685.454 226.239C685.681 227.724 684.951 228.71 684.205 229.887C683.429 230.19 682.527 230.607 681.705 230.733C680.417 230.931 679.216 230.69 678.257 229.76C676.147 227.715 676.272 223.734 676.102 221.006Z"/>
	<path fill="#FEFEFE" d="M685.856 204.485C688.819 204.39 693.495 205.57 695.858 207.402C697.434 208.624 698.314 210.342 698.43 212.328C698.903 220.425 690.039 233.283 684.579 238.909C680.88 242.72 675.546 246.728 670.008 246.6C668.275 246.559 666.957 246.045 665.766 244.739C663.854 242.643 663.816 239.347 663.979 236.716C665.416 230.405 668.863 226.194 673.401 221.866C673.726 224.641 673.888 227.779 675.42 230.195C676.433 231.793 677.944 233.092 679.843 233.44C681.762 233.792 683.719 233.236 685.294 232.121C686.859 231.013 688.095 229.317 688.369 227.389C688.607 225.718 688.083 224.111 687.047 222.801C684.265 219.278 679.947 218.779 675.818 218.272C677.979 212.392 680.619 208.108 685.856 204.485Z"/>
	<path fill="#231F20" d="M611.337 110.175C616.481 110.378 621.329 112.279 625.24 115.64C628.262 118.236 630.81 121.605 630.974 125.727C631.351 135.204 619.536 146.137 612.325 151.003C608.212 153.779 603.485 155.82 599.549 158.821C595.593 161.839 592.266 165.447 588.937 169.123C588.09 169.876 587.108 170.457 585.977 170.663C582.683 171.262 578.469 169.533 575.88 167.6C573.011 165.458 571.415 162.465 570.922 158.948C569.588 149.421 574.165 140.464 579.779 133.131C587.122 123.538 598.777 111.867 611.337 110.175Z"/>
	<path fill="#FEFEFE" d="M609.273 113.557C610.642 113.426 612.121 113.386 613.486 113.574C617.726 114.159 622.208 116.286 624.848 119.723C626.77 122.225 627.518 125.226 626.963 128.335C625.615 135.878 617.04 143.964 610.948 148.132C608.378 149.889 605.446 151.18 602.282 150.459C599.921 149.921 598.054 148.37 596.82 146.32C594.918 143.159 593.338 136.567 594.208 132.877C594.695 132.671 595.109 132.466 595.65 132.393C602.801 131.436 603.663 141.9 607.567 145.049L608.447 144.64C608.644 144.164 608.778 143.94 608.779 143.365C608.785 140.422 607.442 136.622 605.536 134.415C602.505 130.903 598.206 129.654 593.745 129.362L593.039 129.321C592.289 129.581 591.973 129.799 591.361 130.274C590.285 134.872 590.899 139.865 592.527 144.27C594.35 149.206 597.015 151.443 601.585 153.586C599.502 154.886 597.403 156.322 595.561 157.952C592.9 160.307 589.381 165.189 586.209 166.655C584.416 167.484 582.509 167.172 580.735 166.451C577.952 165.321 575.633 162.781 574.543 160.005C572.63 155.137 574.342 149.469 576.372 144.906C582.304 131.571 595.689 118.816 609.273 113.557Z"/>
	<path fill="#231F20" d="M782.784 382.986C783.787 382.976 784.585 383.127 785.555 383.375C788.089 385.873 819.733 461.733 821.694 469.21C817.715 471.821 812.869 473.55 808.506 475.437L785.825 485.282C760.666 496.378 735.523 507.649 710.711 519.498C709.086 520.287 708.029 520.554 706.291 520.114C705.69 519.546 705.25 518.999 704.867 518.261C702.411 513.527 700.794 508.122 698.934 503.113L688.112 473.838L678.52 448.901C676.957 444.825 675.012 440.607 673.901 436.4C673.468 434.762 673.332 433.95 673.862 432.337C679.45 427.699 703.812 418.346 711.567 414.961C735.396 404.56 759.346 394.243 782.784 382.986Z"/>
	<path fill="#FEFEFE" d="M783.767 402.882C784.958 403.045 784.981 403.063 785.829 403.917L785.713 404.902C783.85 407.004 728.814 431.003 722.669 433.535C719.355 451.336 718.107 470.494 716.074 488.574C715.304 495.414 714.777 502.421 713.377 509.16C712.469 509.068 711.764 508.875 710.91 508.554C710 505.774 718.061 440.841 719.247 431.668C725.571 428.121 732.707 425.536 739.34 422.557L783.767 402.882Z"/>
	<path fill="#231F20" d="M421.583 253.78C422.435 254.071 423.163 254.289 423.889 254.842C424.633 255.409 424.45 256.182 424.101 256.971C420.949 264.089 417.974 268.608 419.319 276.915C422.331 295.512 441.824 308.461 455.967 318.692C462.328 307.774 470.542 297.494 480.187 289.3C499.834 272.612 526.562 263.869 552.277 266.093C578.228 268.337 600.46 282.498 616.984 302.155C630.519 318.257 642.041 341.811 640.12 363.371C639.382 371.646 636.458 379.27 629.788 384.616C620.026 392.44 607.554 391.772 595.843 390.691C595.034 399.245 593.58 407.573 591.545 415.914C583.062 450.685 567.254 492.101 535.46 511.439C558.879 514.761 579.72 520.234 600.267 532.471C637.028 554.364 662.297 592.83 677.121 632.151C682.676 646.885 686.733 661.819 690.582 677.059C684.338 685.209 675.555 690.638 667.142 696.265C675.242 709.868 677.299 721.618 676.446 737.24C704.006 722.93 727.353 703.394 738.376 673.481C744.591 656.616 745.184 640.266 737.247 623.885C734.467 618.147 731.53 613.427 726.903 608.991C723.66 605.881 714.946 600.782 713.775 596.583C713.382 595.173 713.827 594.571 714.487 593.417C718.043 590.938 723.751 591.44 727.914 591.898C743.466 593.611 755.222 602.005 764.744 614.032C770.098 596.728 771.446 578.021 772.035 560.026C772.206 554.819 771.476 535.139 772.608 531.932C773.047 530.69 773.582 530.335 774.717 529.789C776.534 529.877 777.755 530.623 779.12 531.773C791.583 542.263 792.152 564.616 793.278 579.713C795.683 568.401 801.365 558.485 810.508 551.267C812.956 549.335 817.168 546.648 820.465 547.467C821.565 547.74 822.577 548.615 823.081 549.621C823.802 551.059 823.493 552.355 823.024 553.832C821.855 557.513 819.777 561.112 818.074 564.581C814.016 572.846 809.762 581.057 807.072 589.891C810.993 585.345 814.89 580.951 819.825 577.462C825.858 573.195 837.84 567.792 845.203 569.706C846.478 570.037 846.89 570.751 847.57 571.791C847.7 573.249 847.515 574.058 846.684 575.243C844.125 578.893 840.051 581.991 836.762 585.025C830.817 590.506 824.818 595.947 819.633 602.173C824.92 598.744 830.132 595.825 836.319 594.357C844.245 592.476 852.957 592.624 859.978 597.182C861.661 598.275 862.932 599.235 863.344 601.306C863.051 602.051 863.08 602.489 862.339 602.892C860.113 604.102 857.12 604.713 854.689 605.492C848.684 607.416 843.675 609.767 838.516 613.403C833.084 617.318 825.119 623.247 821.532 628.837C822.968 649.82 818.071 669.455 810.697 688.905C793.9 733.211 763.357 777.651 719.015 797.489C698.905 806.486 673.916 812.372 652.02 808.64C643.783 807.236 636.069 804.458 628.293 801.507C627.343 807.596 626.679 814.103 623.598 819.557C620.278 825.432 615.133 828.79 608.795 830.652C613.78 832.066 619.783 832.492 624.483 834.566C625.644 835.078 626.225 835.597 626.577 836.853C626.93 838.116 626.52 839.24 625.93 840.302C624.099 841.562 622.456 842.008 620.265 842.351C611.752 843.684 602.488 843.463 593.857 843.954L537.821 847.1C480.103 850.283 422.451 852.477 364.641 852.531C350.868 852.544 336.945 853.391 323.203 852.947C318.451 852.793 313.791 852.11 309.119 851.261C302.218 850.006 264.192 842.87 261.568 837.63C260.969 836.432 261.016 836.092 261.346 834.887C262.09 834.163 262.742 833.752 263.781 833.559C268.37 832.704 273.79 833.183 278.465 833.189C287.711 833.2 296.949 833.282 306.192 832.969C304.56 829.043 304.022 825.873 303.923 821.679C291.449 816.726 280.877 809.957 271.403 800.405C242.415 771.175 229.904 719.843 230.017 679.517C223.639 676.722 217.535 673.363 211.427 670.031C211.618 665.344 212.123 660.677 212.649 656.017C218.111 607.654 235.71 555.705 275.219 524.508C316.892 491.603 370.146 490.171 420.499 495.928C423.292 470.601 426.058 445.85 433.007 421.207C430.978 419.899 428.84 418.517 427.061 416.869C422.805 412.924 420.105 407.404 419.873 401.579C419.681 396.74 421.446 392.135 424.752 388.604C429.815 383.195 435.927 382.027 442.968 381.716C443.145 361.724 445.539 341.211 454.536 323.089C449.196 319.169 443.716 315.327 438.607 311.109C427.789 302.176 416.147 289.935 414.887 275.201C414.213 267.327 416.527 259.841 421.583 253.78Z"/>
	<path fill="#FEFEFE" d="M234.037 681.279C261.876 692.94 290.348 698.991 320.631 695.961C319.836 707.937 317.505 720.196 315.924 732.109L306.739 803.381C305.622 807.89 305.504 813.178 304.724 817.816C294.792 814.023 285.359 807.856 277.636 800.578C248.179 772.819 235.219 720.731 234.037 681.279Z"/>
	<path fill="#FEFEFE" d="M537.452 270.205C547.013 269.307 556.783 270.412 566.015 272.999C591.547 280.153 612.222 298.878 625.005 321.763C632.629 335.414 639.331 354.039 634.749 369.756C633.011 375.72 629.497 380.471 623.979 383.422C608.264 391.827 584.191 384.13 568.358 379.28C542.393 370.661 516.489 359.178 493.34 344.508C481.686 337.123 470.916 328.385 459.103 321.217C462.125 316.003 465.61 311.014 469.441 306.364C486.825 285.269 510.227 272.871 537.452 270.205Z"/>
	<path fill="#FEFEFE" d="M776.411 534.799C776.66 534.988 776.915 535.171 777.16 535.366C787.337 543.449 789.053 569.619 788.835 581.646C788.748 586.457 787.638 591.379 788.081 596.165C788.889 597.195 788.999 597.103 790.302 597.376C791.65 596.89 792.046 596.734 792.65 595.403C793.768 592.941 793.813 590.307 794.447 587.732C796.18 580.685 798.595 572.971 802.237 566.699C805.103 561.762 811.554 552.997 817.454 551.781C818.399 551.586 818.018 551.56 818.859 552.139C819.126 555.075 808.239 575.598 806.35 580.173C803.768 586.425 800.985 593.849 799.803 600.533C799.471 602.409 799.428 603.59 800.533 605.175L801.383 605.093C805.273 601.235 807.288 595.346 810.772 591.016C819.389 580.308 830.557 574.602 844.061 573.034C833.125 585.08 819.042 593.941 810.803 608.513C809.699 610.467 809.091 611.757 809.731 613.967L810.562 614.422C814.966 613.744 820.62 606.271 824.389 603.524C826.794 601.771 829.97 600.416 832.737 599.335C841.219 596.021 849.807 596.321 858.127 599.885C838.693 606.472 832.307 613.341 817.304 626.259C817.712 635.722 817.578 644.975 816.047 654.345C809.96 691.609 787.277 733.677 761.64 761.146C754.197 769.121 746.103 775.988 737.234 782.325C733.567 784.808 729.763 787.081 725.847 789.151C706.669 799.285 680.075 807.399 658.135 804.97C648.155 803.865 638.841 800.795 629.297 797.839C630.806 786.415 633.547 774.962 635.696 763.635C639.244 744.944 642.512 726.228 645.72 707.477L663.821 698.358C669.16 707.56 672.441 718.033 672.408 728.753C672.395 733.227 671.825 737.738 671.881 742.196C671.891 742.953 671.856 742.643 672.574 743.281C673.142 743.318 673.212 743.352 673.86 743.224C677.148 742.571 681.344 739.712 684.306 738.102C703.258 727.799 720.408 714.42 732.094 696.037C743.31 678.392 751.078 656.365 746.261 635.383C742.283 618.054 732.269 605.517 717.396 596.18C731.112 594.905 745.396 599.44 755.04 609.603C757.958 612.678 761.091 617.592 764.578 619.86C765.5 620.46 765.057 620.35 766.141 620.117C768.726 617.122 769.409 612.637 770.343 608.87C776.468 584.165 775.355 559.941 776.411 534.799Z"/>
	<path fill="#FEFEFE" d="M487.048 345.62C493.17 348.796 498.924 352.847 505.019 356.142C532.129 370.797 561.677 384.468 592.222 389.881C586.801 425.955 571.887 475.958 543.887 500.402C531.228 511.453 514.488 518.599 497.852 512.68C495.616 511.884 492.94 510.96 490.952 509.655C487.841 507.613 484.067 502.151 480.389 501.885L479.647 502.616C479.568 503.16 479.471 503.604 479.559 504.17C480.139 507.878 486.126 511.371 489.099 513.207C501.852 521.081 510.99 519.93 524.927 516.586L525.483 517.015L525.591 519.095C524.715 523.795 523.628 528.302 521.572 532.646C516.222 543.95 505.819 552.51 494.115 556.647C480.543 561.445 466.6 560.347 453.702 554.05C441.031 547.864 430.272 536.626 425.77 523.151C424.355 518.913 423.748 514.597 423.729 510.136C423.674 497.421 431.333 434.223 436.507 425.144C437.573 423.274 439.403 423.283 441.285 422.823C441.881 421.71 441.865 421.625 441.706 420.366C439.909 418.489 436.181 418.283 433.779 417.106C429.413 414.966 426.124 411.005 424.683 406.378C423.376 402.183 423.681 397.815 425.823 393.95C427.932 390.142 431.553 387.421 435.751 386.327C444.811 383.964 452.978 388.498 460.491 392.906C473.442 380.804 482.097 362.373 487.048 345.62Z"/>
	<path fill="#231F20" d="M437.722 397.591C438.349 397.582 438.867 397.559 439.502 397.622C440.784 397.75 441.778 398.174 442.528 399.267C443.901 401.271 443.463 404.429 442.69 406.568C442.264 407.743 441.853 408.089 440.745 408.571L439.751 408.108C437.7 406.817 434.616 405.186 433.513 402.938C432.846 401.579 433.03 401.243 433.45 399.886C434.747 398.512 435.946 398.155 437.722 397.591Z"/>
	<path fill="#231F20" d="M531.28 435.189C531.909 435.371 532.465 435.646 533.059 435.919C536.036 440.5 537.092 451.397 538.2 457.035C536.098 458.561 533.963 459.73 531.657 460.899C531.189 461.041 530.815 460.895 530.343 460.804C529.622 459.617 529.554 459.418 529.545 458.032C530.519 456.432 532.287 455.687 533.878 454.806C532.514 449.792 530.723 444.565 530.087 439.398C529.839 437.381 530.035 436.793 531.28 435.189Z"/>
	<path fill="#231F20" d="M562.712 417.274C562.867 417.289 563.022 417.293 563.175 417.318C564.762 417.578 565.936 418.52 566.732 419.888C567.817 421.751 567.708 424.097 567.217 426.117C566.294 429.915 564.711 432.362 561.425 434.437C560.043 434.061 558.901 433.293 558.082 432.117C556.898 430.416 556.7 428.195 557.041 426.199C557.71 422.282 559.435 419.471 562.712 417.274Z"/>
	<path fill="#231F20" d="M495.522 407.388C495.663 407.392 495.805 407.389 495.946 407.398C497.55 407.506 498.724 407.906 499.742 409.186C500.836 410.563 501.065 412.743 500.92 414.431C500.578 418.406 498.986 421.543 495.989 424.102C495.772 424.111 495.555 424.128 495.338 424.128C493.741 424.131 492.499 423.834 491.468 422.518C490.263 420.979 490.124 418.682 490.379 416.817C490.916 412.889 492.439 409.848 495.522 407.388Z"/>
	<path fill="#231F20" d="M502.579 458.764C503.306 458.816 504.619 458.699 505.175 459.18C507.115 460.855 509.389 469.793 514.756 474.353C520.339 479.097 529.156 475.711 533.345 478.793C533.528 480.174 533.485 480.326 532.891 481.59C528.797 482.429 525.197 482.514 521.112 481.489C514.422 479.812 508.319 475.498 504.866 469.471C503.234 466.624 501.713 462.009 502.579 458.764Z"/>
	<path fill="#FEFEFE" d="M634.112 595.724C639.953 595.505 648.102 594.257 653.03 598.071C655.678 600.12 657.204 603.685 657.456 606.966C658.026 614.378 653.966 629.534 652.697 637.683C645.946 681.066 638.529 724.524 630.336 767.66C627.773 781.157 626.148 795.038 623.004 808.384C622.076 812.32 620.525 817.528 617.753 820.556C615.049 823.512 611.735 825.475 607.771 826.039C599.268 827.247 590.104 826.728 581.488 826.911L528.784 827.996L430.192 830.769C397.634 831.578 364.945 832.013 332.435 833.932C326.433 834.134 315.7 836.199 310.822 831.779C308.889 830.027 308.654 827.315 308.529 824.848C308.161 817.621 309.891 809.544 310.816 802.358L317.37 754.2L330.224 655.473C332.212 640.727 333.474 625.507 336.332 610.934C336.843 608.332 337.767 606.273 339.596 604.33C341.838 601.948 343.97 601.188 347.139 600.821C356.173 599.775 365.916 600.303 375.026 600.152L426.661 599.134L570.272 596.69C591.542 596.342 612.853 596.455 634.112 595.724Z"/>
	<path fill="#231F20" d="M483.165 698.467C484.176 698.469 484.944 698.492 485.925 698.8C490.526 700.249 499.413 714.325 501.448 718.772C502.599 721.288 503.713 724.709 502.555 727.397C500.447 732.289 484.607 746.331 479.815 749.725C478.416 750.716 476.809 751.317 475.21 751.903C474.807 751.788 474.409 751.653 474.017 751.506C468.803 749.562 458.53 733.623 456.306 728.281C455.405 726.117 454.729 723.542 455.698 721.297C458.14 715.645 477.11 700.923 483.165 698.467Z"/>
</svg>
