<?xml version="1.0" encoding="utf-8" ?>
<svg xmlns="http://www.w3.org/2000/svg" xmlns:xlink="http://www.w3.org/1999/xlink" width="1024" height="1024">
	<path fill="white" d="M0 0L0 1024L1024 1024L1024 0L0 0Z"/>
	<path d="M450.117 45.3107C451.933 41.2871 454.117 37.6717 456.961 34.291C470.228 18.5206 491.908 12.5086 511.647 10.7024C527.771 9.21608 552.908 11.0112 565.858 21.7089C571.931 26.7258 574.455 32.7049 575.143 40.4005C580.658 42.7732 585.097 46.3682 589.089 50.8097C613.172 77.6026 615.762 120.303 613.882 154.695C616.646 155.673 618.82 156.772 620.947 158.828C627.061 164.741 629.524 173.818 629.65 182.105C629.816 193.034 625.848 206.551 617.896 214.382C613.709 218.506 609.55 220.476 603.674 220.407C599.262 240.724 590.99 257.86 580.303 275.549C580.446 284.215 580.396 292.871 580.163 301.534C590.822 306.103 602.086 309.322 613.091 312.953C645.637 323.693 704.429 341.805 730.191 363.225C746.879 377.101 758.85 396.01 767.618 415.679C778.065 439.113 784.506 464.775 790.234 489.71C797.782 522.569 803.727 555.859 809.169 589.128C813.458 615.356 818.228 641.853 820.724 668.311C821.971 681.53 823.472 695.12 820.418 708.207C818.449 716.641 814.787 724.735 809.872 731.854C803.992 740.37 796.124 747.49 788.926 754.879C779.327 764.733 769.938 774.764 760.263 784.552C752.329 792.578 743.607 800.566 736.48 809.302L736.011 809.883C756.492 809.332 777.024 809.429 797.512 809.512C818.347 809.598 836.722 816.654 851.441 831.636C864.836 845.27 872.624 865.033 872.331 884.134C872.047 902.742 864.396 921.352 850.906 934.306C843.816 941.113 819.904 951.021 809.968 955.467C738.175 987.596 662.92 1005.6 584.429 1010.06C570.394 1010.86 556.419 1010.75 542.377 1010.97C537.444 1011.04 532.614 1012.22 527.727 1012.78C523.368 1013.27 518.854 1013.01 514.473 1012.91C412.642 1011.87 300.302 996.555 207.759 952.859C197.233 947.889 178.907 940.848 171.255 933.146C157.821 919.626 151.243 899.661 151.369 880.87C151.503 861.095 159.284 842.691 173.392 828.814C194.881 807.677 216.23 809.589 243.787 809.545L287.141 809.605C280.264 801.544 272.419 794.247 265.019 786.664L234.973 755.277C228.142 748.199 220.282 741.475 214.702 733.35C209.21 725.352 205.297 716.049 203.402 706.539C193.955 659.128 237.304 467.349 255.776 416.941C259.357 407.167 263.732 397.86 269.587 389.222C294.962 351.787 341.835 335.854 382.825 322.027C394.917 317.948 406.929 312.753 419.182 309.354C427.553 307.032 436.478 305.896 445.02 304.239C444.874 295.42 444.905 286.615 445.014 277.795C433.069 262.948 422.672 238.799 420.02 219.64C418.083 219.62 416.061 219.662 414.188 219.102C407.318 217.046 402.131 211.114 398.952 204.919C393.427 194.154 391.504 180.718 395.359 169.09C397.698 162.032 402.016 156.613 408.718 153.199C408.004 122.776 412.009 92.0555 428.507 65.7978C433.524 57.8122 440.348 47.5777 450.117 45.3107ZM565.422 89.4325C533.183 108.858 494.776 96.8525 460.378 92.1851C447.317 103.19 440.083 114.835 436.222 131.439C434.672 138.107 433.399 144.791 431.23 151.301C428.551 159.341 424.138 166.906 419.78 174.141C425.785 214.692 431.689 260.758 466.346 287.927C481.72 299.713 500.204 306.112 519.703 303.488C541.309 300.58 560.394 287.569 573.288 270.352C593.744 243.038 601.466 201.775 603.684 168.347C589.832 155.656 579.84 119.364 578.3 100.324C574.199 96.4165 569.549 93.2441 565.422 89.4325ZM409.451 161.343C403.687 167.201 400.874 174.527 400.982 182.698C401.102 191.822 404.547 202.194 411.23 208.615C411.773 209.137 412.335 209.635 412.901 210.131C414.408 210.916 415.684 211.539 417.358 211.87L418.165 211.495C417.919 208.78 410.264 162.382 410.195 162.227C410.039 161.875 409.699 161.638 409.451 161.343ZM612.721 163.123C611.492 173.526 610.34 183.971 608.816 194.336C607.963 200.138 606.143 206.62 606.093 212.423C607.966 212.256 610.593 210.213 612.049 209.02C618.772 202.142 621.829 191.644 621.723 182.144C621.657 176.281 620.42 169.565 616.211 165.206C615.219 164.179 614.022 163.654 612.721 163.123ZM572.335 283.886C557.907 299.563 536.73 310.75 515.209 311.567C493.172 312.403 472.169 304.403 456.095 289.412C454.896 288.294 453.702 287.167 452.53 286.02C452.436 306.481 449.71 319.367 460.042 338.552C467.844 352.572 479.342 362.636 494.936 367.109C510.456 371.56 527.48 369.823 541.585 361.894C556.843 353.318 566.434 339.191 570.972 322.506C573.669 312.587 573.046 304.5 572.735 294.415C572.63 291.018 572.886 287.221 572.335 283.886ZM695.42 548.365C695.81 554.8 698.875 583.469 700.753 588.132C702.094 588.604 703.152 588.605 704.543 588.571C703.883 581.783 701.03 553.664 699.204 549.127C697.994 548.359 696.802 548.421 695.42 548.365ZM322.855 551.065C321.003 561.843 317.185 577.922 317.042 588.473C318.111 589.425 319.814 589.365 321.226 589.32C322.054 584.48 328.054 553.677 327.013 551.614C325.567 551.18 324.361 551.083 322.855 551.065ZM287.561 599.6C284.536 601.023 281.8 603.032 280.759 606.38C279.969 608.92 280.315 612.263 280.572 614.9C281.311 622.487 282.783 630.065 283.749 637.635L292.626 706.441L305.505 808.012C307.007 819.792 308.037 831.673 309.728 843.421C310.189 846.622 310.586 851.087 312.324 853.854C314.591 857.46 317.106 858.708 321.21 859.495C326.884 860.583 332.938 860.183 338.694 860.186L362.664 860.181L450.378 860.178L626.036 860.072C649.662 860.085 673.358 860.801 696.975 860.374C700.274 860.314 704.643 860.438 707.383 858.431C713.939 853.628 713.274 843.409 714.42 836.118C716.669 816.127 719.682 796.179 722.495 776.261L737.279 672.251L742.045 639.333C743.301 631.197 744.888 622.933 745.45 614.72C745.696 611.132 745.869 606.22 743.559 603.298C741.549 600.755 738.663 599.69 735.51 599.384C729.669 598.819 723.413 599.363 717.523 599.375L679.635 599.443L559.52 599.529L377.817 599.486L320.559 599.466C309.602 599.441 298.492 598.977 287.561 599.6ZM401.814 869.75L393.978 870.23C411.973 876.734 429.755 883.775 447.642 890.564C464.779 897.068 481.984 903.295 499.021 910.062C509.122 914.074 521.195 916.989 530.436 922.608C538.376 927.437 545.641 935.613 549.578 944.02C556.132 958.015 555.036 973.394 551.011 987.885L551.628 988.295C558.585 979.717 560.555 966.671 559.409 955.991C557.912 942.05 550.133 930.31 539.379 921.663C536.363 919.239 533.204 917.085 529.697 915.443C521.294 911.509 512.291 908.444 503.631 905.102L454.12 886.344L426.502 875.817C420.867 873.657 415.095 871.147 409.251 869.615C406.948 869.011 404.166 869.532 401.814 869.75ZM614.317 869.616L557.456 891.245C546.729 895.351 535.453 899.067 525.176 904.207C527.728 904.978 529.768 905.794 532.06 907.2L537.106 905.544L628.514 870.632C623.831 870.364 618.944 870.363 614.317 869.616Z"/>
	<path d="M463.513 153.799C459.526 155.37 456.032 158.951 452.132 160.093C451.01 160.422 450.02 160.31 449.04 159.596C448.057 158.88 447.579 157.712 447.528 156.52C447.465 155.049 448.075 153.836 449 152.748C453.595 147.341 463.54 144.77 470.343 144.194C473.44 144.297 476.84 144.329 479.827 145.223C482.658 146.07 487.858 148.635 488.987 151.608C489.266 152.342 489.285 153.032 488.878 153.694C488.433 154.418 487.417 155.302 486.579 155.546C484.271 156.22 474.189 152.766 470.625 152.697C468.213 152.65 465.847 153.256 463.513 153.799Z"/>
	<path d="M563.683 155.482C551.485 149.338 548.015 154.098 536.538 155.636C535.396 155.031 534.642 154.104 534.263 152.854C533.878 151.585 534.132 150.536 534.799 149.414C536.741 146.146 544.466 144.763 547.987 144.147C549.931 143.892 552.035 143.934 553.996 144.033C560.352 144.354 568.457 147.122 572.621 152.068C573.877 153.56 575.362 156.159 574.847 158.214C574.493 159.627 574.196 159.753 573.026 160.449C570.745 160.526 569.561 159.906 567.832 158.478C566.492 157.372 565.143 156.421 563.683 155.482Z"/>
	<path d="M474.431 188.415C472.651 188.562 470.756 188.765 469.006 188.298C466.078 187.516 463.446 185.418 462.064 182.721C460.679 180.017 460.519 176.811 461.615 173.982C463.026 170.34 465.609 168.644 469.026 167.087C470.614 166.94 472.127 166.849 473.696 167.215C476.764 167.932 479.505 169.665 481.075 172.447C482.421 174.835 482.775 177.726 482.025 180.362C480.848 184.497 478.075 186.487 474.431 188.415Z"/>
	<path d="M555.51 188.523C552.945 188.635 550.66 188.547 548.385 187.229C545.748 185.703 543.837 183.163 543.114 180.204C542.428 177.394 542.814 174.274 544.398 171.825C546.184 169.064 548.551 167.802 551.683 167.114C553.792 167.151 556.036 167.167 558.001 168.034C560.498 169.136 562.568 171.352 563.503 173.912C564.524 176.707 564.347 179.806 563.002 182.46C561.385 185.65 558.783 187.343 555.51 188.523Z"/>
	<path d="M515.862 224.053C511.207 222.869 506.491 220.343 502.301 217.996C500.47 216.971 497.5 215.606 496.905 213.463C497.339 207.779 509.922 178.822 513.816 175.383C515.008 175.417 516.303 175.502 517.35 176.153C518.036 176.579 518.555 177.202 518.782 177.969C520.06 182.298 507.943 205.201 505.544 210.36C509.004 212.192 516.904 215.457 518.702 218.834C519.358 220.065 519.285 220.433 519.007 221.709C517.991 223.005 517.372 223.395 515.862 224.053Z"/>
	<path d="M532.608 259.107C526.955 263.624 520.313 267.012 512.969 267.371C505.129 267.754 496.898 264.605 491.06 259.403C486.195 255.066 480.782 247.089 480.575 240.455C480.506 238.252 481.192 237.102 482.651 235.579C487.99 235.031 540.291 234.843 541.92 236.323C542.885 237.2 543.244 238.405 543.262 239.678C543.349 246.185 537.138 254.763 532.608 259.107ZM489.62 243.236C490.666 248.174 494.548 252.836 498.667 255.563C504.087 259.151 510.797 260.296 517.136 258.957C521.456 258.045 524.78 256.237 528.005 253.27C530.682 250.026 532.929 246.864 534.773 243.063C519.76 243.24 504.609 242.746 489.62 243.236Z"/>
	<path d="M516.619 764.887C508.09 765.822 499.069 763.579 492.041 758.645C484.384 753.269 479.156 744.845 477.652 735.615C476.202 726.714 478.49 717.217 483.789 709.923C489.43 702.157 498.09 697.639 507.445 696.158C515.875 695.043 524.731 697.311 531.732 702.076C539.359 707.267 544.743 715.237 546.409 724.337C548.055 733.327 546.013 742.67 540.817 750.175C534.922 758.689 526.632 763.078 516.619 764.887Z"/>
</svg>
