<?xml version="1.0" encoding="utf-8" ?>
<svg xmlns="http://www.w3.org/2000/svg" xmlns:xlink="http://www.w3.org/1999/xlink" width="1024" height="1024">
	<path fill="#FEFEFE" d="M0 0L1024 0L1024 1024L0 1024L0 0Z"/>
	<path fill="#231F20" d="M582.177 166.732C589.879 169.412 597.168 173.186 604.946 175.745C609.543 177.256 616.535 178.217 620.377 181.009C621.051 181.498 621.884 182.41 621.868 183.298C621.862 183.594 621.833 183.892 621.769 184.182C621.181 186.824 616.972 192.963 615.551 195.829C613.954 199.051 612.589 202.491 611.324 205.858C608.468 213.454 603.973 238.379 600.577 242.549L599.668 242.565L598.93 241.71C597.1 234.345 607.465 202.261 611.539 193.956L617.061 183.969C606.404 179.646 595.332 176.876 584.727 172.165C584.187 177.67 583.83 183.194 584.063 188.728C584.346 195.458 585.357 202.152 585.748 208.877C586.062 214.272 585.783 219.69 585.785 225.091C585.785 227.393 586.209 230.685 585.561 232.829C585.155 234.173 584.915 234.223 583.736 234.768C582.588 234.046 582.329 233.434 581.984 232.118C580.321 225.763 581.768 216.297 581.471 209.469C581.068 200.191 579.515 191.08 579.81 181.755C579.956 177.144 580.01 170.843 582.177 166.732Z"/>
	<path fill="#231F20" d="M701.705 222.862C702.241 223.101 702.499 223.189 702.962 223.478C705.463 225.034 708.035 233.353 709.433 236.252C712.118 241.821 720.106 252.723 721.439 257.605C721.301 257.92 721.3 258.344 721.024 258.548C719.805 259.454 715.872 259.805 714.303 260.203C710.017 261.29 705.913 263.034 701.603 264.109C696.213 265.454 690.555 265.982 685.282 267.75C680.257 269.436 675.883 272.312 671.073 274.421C669.827 274.968 668.741 275.385 667.407 274.9C667.035 273.927 667.079 273.796 667.562 272.841C668.706 270.578 671.406 269.473 673.509 268.342C684.479 262.441 687.946 263.157 699.216 260.305C704.814 258.888 710.268 256.897 715.879 255.459C711.933 249.399 708.315 243.374 705.2 236.835C703.782 234.052 702.573 231.334 701.538 228.386C689.041 237.908 675.796 246.231 663.423 255.992C659.834 258.824 646.748 270.882 643.535 271.915C642.436 272.268 642.275 272.206 641.296 271.73L641.175 270.451C644.557 262.232 691.554 230.164 701.705 222.862Z"/>
	<path fill="#231F20" d="M543.176 264.209C566.764 263.997 591.178 277.269 609.761 291.138C621.733 300.073 635.134 312.068 637.364 327.667C636.155 329.331 634.793 330.709 633.331 332.151C638.176 354.335 636.954 376.426 633.191 398.637C636.715 393.368 640.766 391.146 646.277 388.351C643.925 385.252 642.4 382.384 642.979 378.374C643.507 374.718 644.91 370.247 648.051 367.99C650.372 366.322 653.222 366.07 655.977 366.485C669.117 368.465 694.278 393.635 701.971 404.466C713.773 421.083 718.103 441.345 714.712 461.365C708.3 499.218 681.235 526.935 651.163 548.282C596.555 587.046 538.412 599.633 472.502 588.491C474.604 618.285 477.92 648.109 479.525 677.916C472.597 678.604 465.229 678.124 458.252 678.088C439.298 677.988 413.907 679.416 398.454 666.611C377.827 649.518 386.41 612.673 384.398 589.215C383.541 588.206 383.386 587.998 382.149 587.568C380.903 588.672 380.641 589.732 380.454 591.376C379.796 597.159 380.491 603.418 380.55 609.246C380.726 626.839 379.32 649.993 390.969 664.483C406.424 683.707 439.211 681.791 461.556 681.972C466.281 682.01 471.434 681.39 476.089 682.05C481.035 682.752 479.342 685.117 481.962 687.955C482.49 688.528 482.798 688.372 483.512 688.416C484.87 684.804 483.231 679.294 485.558 676.27C486.832 675.942 486.944 676.018 488.189 676.48C490.216 679.319 488.953 685.137 488.653 688.535C533.678 686.119 599.796 677.704 641.914 693.898C659.199 700.544 681.856 718.025 689.568 735.337C697.462 733.339 705.62 732.184 713.649 730.843L737.404 617.273L746.968 570.205C748.012 565.283 748.6 560.173 749.908 555.321C750.472 553.226 751.041 551.842 752.587 550.312C754.511 549.574 756.812 549.059 758.878 549.332C762.45 549.804 762.925 552.615 765.658 553.934C768.879 555.487 785.331 555.492 789.669 555.734C822.043 557.535 854.361 560.182 886.72 562.21C896.234 562.806 905.762 563.219 915.282 563.709C920.111 563.957 925.463 563.801 930.19 564.849C933.193 565.514 934.474 568.091 935.907 570.525C935.201 578.315 932.846 586.181 931.002 593.781L921.375 633.231L899.273 725.465C895.791 739.986 892.667 754.587 888.946 769.051C890.262 770.246 891.579 771.558 891.767 773.427C891.909 774.853 891.411 775.895 890.383 776.898C889.478 777.781 887.344 777.975 886.115 778.192C848.011 784.914 809.579 790.237 771.349 796.228L728.063 803.318C721.244 804.395 714.243 805.793 707.367 806.338C698.97 807.003 689.284 804.682 680.918 803.562C669.967 801.441 658.531 800.41 647.464 798.974L581.995 790.468C574.259 789.42 566.579 788.208 558.865 787.034C555.286 786.49 551.5 786.243 547.998 785.332C546.081 784.833 544.027 784.061 542.707 782.511C541.654 781.276 541.243 779.7 541.5 778.104C541.848 775.951 543.265 773.974 545.081 772.8C546.795 771.692 548.954 771.22 550.978 771.258C556.206 771.354 561.985 772.635 567.262 773.223C586.782 775.398 606.286 778.384 625.726 781.213C649.405 784.66 673.439 786.682 696.966 790.92L701.014 794.498C704.105 776.893 707.704 759.38 711.378 741.89L689.208 747.206C689.838 748.654 690.45 750.109 691.018 751.583C692.652 755.824 692.677 760.344 690.722 764.497C688.608 768.985 684.724 772.081 680.072 773.653C671.298 776.618 664.522 774.233 655.815 774.51C640.793 774.988 623.169 780.233 608.997 772.841C604.095 770.285 601.375 766.484 599.635 761.339C583.566 764.676 567.27 766.62 551.067 769.122C543.322 770.318 535.643 771.968 527.906 773.237C513.113 775.662 498.249 777.811 483.51 780.548C483.573 785.508 484.548 805.691 482.357 808.396C481.075 809.006 481.113 809.053 479.756 808.675C479.089 807.927 478.695 807.313 478.518 806.327C477.578 801.083 478.57 787.408 478.54 781.202C477.409 782.647 476.214 784.047 475.046 785.462C467.653 786.021 459.979 785.59 452.548 785.668L408.347 786.406L224.515 789.124L178.661 789.89C169.505 790.012 160.133 789.603 151.026 790.572C151.041 796.669 151.158 802.792 151.007 808.887C150.952 811.112 150.841 814.7 148.988 816.21C148.407 816.684 148.117 816.477 147.434 816.406C144.568 812.681 146.317 796.858 146.107 791.635C145.75 782.758 144.584 773.92 144.26 765.019C143.793 752.18 143.954 739.269 143.913 726.42C143.795 689.518 144.717 652.232 150.287 615.704C151.993 604.517 154.183 593.372 156.746 582.349C158.524 574.702 168.023 542.544 167.395 536.661C167.032 533.263 167.423 531.747 169.411 528.94L169.815 528.377L169.505 528.442L170.717 527.22L170.233 526.47C169.001 526.056 168.437 525.956 167.212 526.503C159.362 530.009 140.85 554.518 132.926 562.284C126.633 568.453 119.006 575.006 110.37 577.543C105.278 579.038 100.273 578.805 95.6138 576.11C91.381 573.661 87.9927 569.494 86.7577 564.736C85.1473 558.531 87.4712 552.126 90.5268 546.759C98.8701 532.103 115.263 519.613 131.468 515.174C127.26 504.74 123.626 495.127 123.374 483.705C123.08 470.397 126.894 457.223 136.378 447.551C142.016 441.802 150.251 436.894 158.502 437.021C163.976 437.105 168.858 439.493 172.6 443.44C186.224 457.811 184.184 483.304 183.481 501.438C191.944 485.434 211.958 452.362 226.132 441.831C234.568 435.563 247.082 429.702 257.182 427.094C263.717 425.406 270.35 425.78 276.965 424.785C290.002 422.823 302.907 420.466 316.012 418.875C337.688 416.244 359.746 414.902 381.544 413.737C395.014 413.016 408.674 411.693 422.088 413.577C425.399 409.143 428.382 404.538 431.813 400.174C424.516 396.782 418.258 391.719 415.424 383.901C413.164 377.664 414.052 370.987 416.905 365.094C420.274 358.136 426.333 352.259 433.767 349.864C440.871 347.576 446.302 349.105 452.707 352.314C456.74 331.27 466.851 311.258 481.181 295.335C497.881 276.779 518.088 265.613 543.176 264.209Z"/>
	<path fill="#FEFEFE" d="M177.372 520.668C178.804 521.086 179.8 521.219 180.653 522.462C180.67 525.86 179.125 529.172 176.852 531.677C175.66 530.831 174.539 530.233 174.054 528.776C174.226 527.834 174.383 527.275 174.938 526.474C176.193 524.661 176.722 523.471 177.219 521.358C177.273 521.129 177.321 520.898 177.372 520.668Z"/>
	<path fill="#FEFEFE" d="M146.733 517.212C154.038 516.619 160.933 518.048 167.75 520.551L158.767 526.234C156.071 527.653 152.839 528.179 149.859 527.459C144.829 526.244 141.745 522.105 139.095 517.998C141.604 517.565 144.196 517.438 146.733 517.212Z"/>
	<path fill="#FEFEFE" d="M236.533 494.415C237.791 494.598 238.836 495.034 239.66 496.004L239.405 496.877C234.248 502.053 209.98 509.506 202.494 511.308C196.855 512.665 191.043 513.56 185.281 514.182L183.306 514.257C182.413 513.462 182.647 513.388 182.548 512.258C183.425 510.58 185.05 510.563 186.852 510.313C190.126 509.859 193.511 509.71 196.742 509.018C210.609 506.047 223.687 500.235 236.533 494.415Z"/>
	<path fill="#FEFEFE" d="M632.075 407.552C634.555 410.931 636.228 411.799 640.049 413.165C637.789 414.14 635.889 415.207 634.442 417.264C633.169 419.074 632.628 421.242 633.176 423.41C634.055 426.887 636.532 428.42 639.417 430.154C638.374 430.937 637.265 431.722 636.316 432.617C634.458 434.371 632.867 437.269 632.871 439.87C632.876 442.336 634.276 444.415 635.959 446.103C641.695 451.856 649.299 451.839 656.851 451.98C651.596 470.437 637.433 480.42 621.768 489.971C613.304 495.095 604.861 498.309 595.514 501.373C619.504 476.376 625.358 440.085 632.075 407.552Z"/>
	<path fill="#FEFEFE" d="M133.593 519.496C134.663 519.943 134.953 520.605 135.631 521.482C140.803 528.168 144.706 531.655 153.372 532.761C140.295 546.77 128.256 565.403 109.83 572.625C105.908 573.743 101.567 573.8 97.7864 572.088C94.8872 570.774 93.0411 568.435 91.9867 565.475C90.2446 560.584 91.4887 555.573 93.6657 551.049C101.404 534.971 117.389 525.28 133.593 519.496Z"/>
	<path fill="#FEFEFE" d="M155.398 442.082C159.141 441.633 162.39 441.915 165.711 443.853C172.08 447.569 175.158 455.48 176.878 462.308C179.397 472.307 180.749 497.914 177.823 507.924C176.837 511.298 174.079 515.005 172.25 518.06C167.711 515.215 162.665 514.07 157.462 513.139C150.08 512.155 143.388 512.674 136.076 513.969C134.459 510.499 133.036 506.917 131.882 503.266C127.499 489.399 126.388 472.672 133.449 459.45C138.164 450.62 145.928 444.94 155.398 442.082Z"/>
	<path fill="#FEFEFE" d="M558.913 689.237C588.917 688.908 629.072 688.354 654.739 705.451C663.593 711.348 677.766 722.514 682.56 731.931C683.901 734.565 684.427 737.386 685.012 740.255C680.307 735.443 675.601 730.611 670.196 726.57C666.615 723.892 655.389 716.933 651.328 717.512C650.444 718.421 650.386 718.625 650.09 719.868C650.274 720.252 650.34 720.719 650.64 721.022C651.285 721.673 653.67 722.412 654.65 722.863C660.604 725.6 665.765 728.743 670.758 733.011C676.579 737.987 687.064 748.083 687.417 756.27C687.486 757.855 687.083 759.294 685.898 760.411C683.119 763.03 678.645 762.329 675.161 762.192C674.641 760.586 674.03 759.032 673.224 757.545C668.405 748.653 654.706 738.428 644.907 736.225C643.709 735.956 643.16 736.063 642.187 736.752C642.015 737.451 641.59 738.153 642.018 738.802C646.113 745.009 663.054 743.768 670.311 763.168C670.339 763.304 670.38 763.437 670.395 763.575C670.571 765.194 669.863 767.998 668.61 769.098C661.494 775.345 642.072 753.543 633.497 753.317C632.145 753.282 631.547 753.669 630.616 754.563L630.747 755.701C632.511 757.913 640.592 761.393 643.378 763.058C633.847 767.077 624.615 770.308 614.445 765.946C609.719 763.919 607.439 760.945 605.658 756.329C593.326 757.041 580.544 760.231 568.308 762.122C540.083 766.483 511.771 770.843 483.655 775.849C484.126 748.325 486.896 720.68 488.179 693.167C511.747 691.517 535.282 689.716 558.913 689.237Z"/>
	<path fill="#FEFEFE" d="M652.971 371.028C653.574 371.037 654.151 371.052 654.751 371.128C666.665 372.643 689.491 395.474 696.665 405.087C708.336 420.726 713.312 439.94 710.361 459.236C704.937 494.7 680.11 521.664 652.084 542.015C596.422 582.435 539.726 594.666 472.051 583.899C470.745 565.91 469.235 547.892 468.385 529.877C467.754 523.343 468.386 518.955 470.559 512.805C474.77 514.496 478.965 516.258 483.219 517.839C509.702 527.679 543.642 531.015 570.107 519.593C574.144 517.85 578.435 515.699 582.026 513.168C584.388 511.504 586.685 509.149 589.328 507.972C597.219 504.46 606.101 502.909 614.267 499.148C630.697 491.581 648.905 479.56 657.484 463.186C659.075 460.15 659.444 457.171 660.668 454.099C661.351 452.383 662.591 451.032 663.241 449.257C659.228 444.743 648.196 450.415 640.908 444.44C639.381 443.188 638.13 441.463 638.018 439.43C637.412 428.478 659.041 431.463 664.494 425.857C664.738 424.713 664.893 424.937 664.264 423.812C659.948 422.249 650.01 426.437 644.794 426.61C642.737 426.679 640.669 425.715 639.285 424.198C638.176 422.983 638.126 421.935 638.233 420.369C642.553 412.5 657.299 412.99 664.446 409.798C665.334 408.716 665.521 408.615 665.624 407.241L664.833 406.357C659.202 404.763 649.9 408.853 643.568 408.806C641.422 408.79 638.631 408.55 637.187 406.719C636.247 405.527 636.143 403.696 636.488 402.262C638.743 392.866 654.461 393.215 660.919 388.842C661.572 387.693 661.636 387.773 661.312 386.506C658.604 384.237 655.023 386.573 651.784 386.065C650.288 385.831 648.779 384.776 648.046 383.457C646.946 381.478 647.228 378.989 647.932 376.929C648.966 373.903 650.114 372.419 652.971 371.028Z"/>
	<path fill="#FEFEFE" d="M760.738 559.082C760.895 559.082 761.052 559.08 761.209 559.082C771.746 559.214 782.452 560.194 792.979 560.799L866.534 565.603C879.456 566.492 892.376 567.285 905.313 567.925C912.74 568.292 920.374 568.269 927.751 569.125C929.096 569.281 929.808 569.599 930.768 570.592C931.2 571.785 931.285 572.665 931.066 573.898C930.18 578.885 928.357 584.053 927.195 589.046L914.619 641.045L884.082 769.904L860.118 772.954C854.759 773.317 849.237 774.411 843.898 775.119L811.859 779.24C777.898 783.598 743.753 787.828 709.939 793.158L743.539 634.57L754.231 582.001C755.435 576.068 756.382 566.994 758.302 561.526C758.859 559.938 759.317 559.886 760.738 559.082Z"/>
	<path fill="#231F20" d="M837.557 634.457C839.878 634.109 841.726 634.428 843.872 635.385C845.494 636.109 846.161 636.708 846.765 638.37C845.88 641.93 840.144 644.469 837.243 646.616C836.023 647.607 834.483 649.123 832.844 649.31C831.459 649.468 831.104 649.14 830.127 648.319C829.593 646.808 829.506 645.686 829.887 644.109C830.988 639.555 833.648 636.807 837.557 634.457Z"/>
	<path fill="#231F20" d="M815.676 648.561C817.862 648.348 820.214 648.077 822.312 648.913C824.85 649.925 825.807 652.108 826.819 654.469C828.695 653.495 830.876 652.092 833.029 652.02C835.78 651.928 838.525 652.451 840.523 654.476C843.218 657.207 844.061 661.7 843.857 665.398C843.456 672.633 839.053 678.004 833.938 682.656C829.463 685.859 824.313 688.728 818.602 687.716C815.199 687.113 812.389 684.999 810.499 682.151C806.572 676.232 806.268 667.175 807.79 660.379C808.968 655.118 811.146 651.478 815.676 648.561Z"/>
	<path fill="#FEFEFE" d="M520.172 311.456C549.292 325.51 596.28 336.594 628.646 333.295C631.058 347.086 632.033 360.502 631.436 374.501C630.189 403.732 619.096 455.932 604.633 480.811C593.793 499.458 578.457 513.408 557.26 518.955C526.86 526.911 491.926 518.575 464.324 504.84C457.772 501.58 451.993 497.5 445.681 493.962C443.887 492.956 441.637 491.736 439.536 492.343L439.256 493.184C441.855 499.667 454.613 504.872 460.598 507.999C460.026 513.45 459.167 518.524 457.657 523.807C455.669 529.738 453.46 535.509 450.083 540.808C445.175 548.509 437.932 555.301 428.702 557.108C420.105 558.792 411.573 555.804 404.529 550.993C394.187 543.929 387.346 533.944 385.039 521.61C377.815 482.995 415.024 431.932 435.914 401.663C439.033 402.391 446.013 403.66 448.816 402.022C450.137 401.25 450.182 401.008 450.488 399.615C450.31 399.2 450.288 398.674 449.955 398.37C448.885 397.395 442.025 398.061 440.261 397.838C437.031 397.429 433.371 395.909 430.526 394.345C425.378 391.516 420.956 387.102 419.349 381.32C417.801 375.751 419.245 369.74 422.189 364.883C425.51 359.403 430.914 355.095 437.242 353.74C440.603 353.02 444.057 353.213 447.297 354.372C460.275 359.014 457 371.219 462.268 374.533C463.663 374.27 463.686 374.102 464.65 373.03C465.347 370.125 463.547 366.47 462.238 363.95C483.766 348.748 503.921 332.389 520.172 311.456Z"/>
	<path fill="#231F20" d="M583.229 431.11C589.96 430.781 595.96 431.581 601.62 435.535C603.178 436.624 604.171 437.455 604.536 439.355C603.675 441.117 603.247 441.33 601.676 442.397C593.843 435.498 593.441 437.508 584.486 436.692C582.73 436.532 581.164 436.332 580.014 434.985C580.017 434.523 579.987 434.354 580.165 433.866C580.743 432.291 581.873 431.812 583.229 431.11Z"/>
	<path fill="#231F20" d="M438.723 368.525C440.246 368.582 441.685 368.715 443.13 369.237C446.27 370.372 448.635 373.107 449.926 376.115C450.771 378.086 451.688 380.846 450.852 382.861C449.548 383.462 449.24 383.464 447.797 383.362C445.918 381.045 446.152 377.213 444.17 374.528C443.398 373.978 442.547 373.315 441.61 373.096C437.02 372.023 434.84 378.194 431.624 380.315C430.329 380.319 430.312 380.147 429.295 379.309C428.878 377.921 428.717 377.301 429.45 375.931C431.237 372.593 435.23 369.68 438.723 368.525Z"/>
	<path fill="#231F20" d="M622.842 382.128C623.216 382.201 623.735 382.285 624.076 382.436C625.19 382.928 625.688 383.597 625.908 384.774C627.149 391.419 624.21 403.079 620.154 408.434C618.873 410.126 616.976 411.776 614.741 411.852C612.597 411.925 611.234 410.613 609.737 409.297C608.412 406.762 607.913 403.974 608.56 401.151C609.023 399.13 610.304 396.545 612.284 395.612C613.504 395.038 614.57 394.909 615.857 395.384C618.214 396.255 618.862 398.167 619.815 400.293C621.543 394.334 620.852 387.82 622.842 382.128Z"/>
	<path fill="#231F20" d="M540.332 434.243C541.401 434.533 543.217 434.857 543.867 435.845C546.008 439.101 541.317 451.944 549.176 460.222C551.434 462.6 555.025 464.265 558.323 464.287C562.465 464.315 564.119 460.215 566.737 457.735C567.711 456.811 568.222 456.622 569.531 456.677C569.876 456.996 570.37 457.418 570.614 457.811C571.516 459.261 571.171 460.091 570.887 461.608C568.711 464.813 566.079 467.696 562.334 469.031C558.695 470.329 554.834 469.742 551.432 468.038C546.079 465.355 542.246 460.375 540.359 454.761C538.298 448.633 537.499 440.178 540.332 434.243Z"/>
	<path fill="#231F20" d="M607.501 355.057C609.174 354.988 610.89 355.053 612.544 355.331C617.54 356.17 621.91 359.591 624.587 363.788C626.301 366.477 627.742 369.654 626.971 372.873C626.143 373.933 626.065 374.026 624.792 374.437C623.048 372.984 621.797 368.794 620.726 366.654C619.147 363.501 616.669 360.467 613.151 359.456C611.344 358.938 608.098 358.975 606.529 360.169C601.617 363.907 596.589 393.134 595.073 400.112C594.135 404.591 591.35 423.238 589.88 425.732C589.305 426.708 589.091 426.752 588.068 427.051L586.81 426.216C585.071 420.084 596.875 368.941 600.292 361.943C602.041 358.36 603.73 356.419 607.501 355.057Z"/>
	<path fill="#231F20" d="M560.121 349.634C563.38 349.528 566.401 349.811 569.141 351.742C572.374 354.019 574.071 357.599 574.537 361.459C575.864 372.456 566.72 393.671 559.736 402.196C557.334 405.128 554.651 407.489 550.685 407.738C549.025 407.842 547.382 407.428 546.182 406.224C543.865 403.897 543.588 399.7 543.711 396.625C543.874 392.552 545.441 387.403 548.637 384.657C549.9 383.571 550.831 383.575 552.428 383.717C553.73 384.425 554.159 385.035 554.86 386.279C554.937 386.417 555.011 386.556 555.087 386.695C554.882 392.364 553.42 397.833 552.085 403.321C553.921 401.916 555.558 400.568 556.949 398.706C563.192 390.352 572.287 370.533 570.459 359.693C570.144 357.826 569.346 356.385 567.682 355.378C560.383 350.959 552.125 358.614 545.757 359.59C544.408 359.797 544.075 359.162 543.16 358.325C543.091 357.609 542.888 357.328 543.367 356.712C546.241 353.021 555.629 350.431 560.121 349.634Z"/>
</svg>
