<?xml version="1.0" encoding="utf-8" ?>
<svg xmlns="http://www.w3.org/2000/svg" xmlns:xlink="http://www.w3.org/1999/xlink" width="1024" height="1024">
	<path fill="#FEFEFE" d="M0 0L1024 0L1024 1024L0 1024L0 0Z"/>
	<path fill="#231F20" d="M755.413 543.056C756.172 542.903 756.421 542.997 757.148 543.198C757.713 544.267 757.675 544.213 757.366 545.388C753.785 548.892 743.899 550.322 739.04 551.096C737.75 550.669 737.772 550.757 737.131 549.57C738.593 547.068 751.984 544.117 755.413 543.056Z"/>
	<path fill="#231F20" d="M573.802 598.435L574.711 598.576L575.079 599.255C574.936 600.36 574.945 600.881 574.194 601.762C570.479 606.123 558.827 608.963 553.256 609.264C552.225 608.591 551.183 608.092 550.705 606.895L551.66 606.374L550.967 606.643C554.307 604.703 558.744 604.04 562.448 602.865C566.318 601.636 570.116 600.136 573.802 598.435Z"/>
	<path fill="#231F20" d="M756.106 532.537C756.418 532.515 756.729 532.466 757.041 532.47C758.282 532.485 758.679 532.492 759.597 533.313L759.302 534.364C754.924 538.224 740.412 541.678 734.112 544.239L732.722 544.655C731.61 544.318 731.607 544.288 730.935 543.334L731.237 542.13C736.54 538.163 749.436 534.854 756.106 532.537Z"/>
	<path fill="#231F20" d="M692.641 554.289C692.799 554.351 692.963 554.398 693.115 554.474C694.293 555.067 694.794 555.547 695.294 556.741C695.099 557.384 695.111 557.465 694.715 558.118C691.838 562.865 678.378 567.481 673.242 568.843C671.858 568.295 671.072 567.883 670.328 566.601C671.153 563.887 686.607 561.393 692.641 554.289Z"/>
	<path fill="#231F20" d="M629.532 575.822C629.967 575.889 630.273 575.907 630.687 576.131C631.968 576.826 632.812 578.277 633.357 579.574C634.272 581.749 634.713 584.333 633.783 586.561L632.978 586.863C630.836 585.444 630.195 583.142 629.374 580.827C626.7 582.566 624.079 584.179 621.202 585.566C618.647 586.546 616.14 587.78 613.345 587.484C612.285 587.372 612.453 587.531 611.712 586.636C613.001 584.229 625.938 578.345 629.532 575.822Z"/>
	<path fill="#231F20" d="M529.704 200.782C529.825 200.86 529.959 200.922 530.068 201.017C530.907 201.747 531.185 202.912 531.417 203.956C533.051 211.304 533.563 219.07 534.593 226.539C535.382 232.261 536.684 237.81 537.687 243.48C538.001 245.255 537.633 245.491 536.636 246.902L535.647 246.445C534.312 244.1 527.888 207.282 527.886 203.998C527.886 202.534 528.829 201.816 529.704 200.782Z"/>
	<path fill="#231F20" d="M761.567 648.936C762.915 648.94 762.894 649.088 763.926 649.99L763.813 650.963C762.682 652.001 761.473 652.71 760.093 653.384C757.065 654.861 753.658 655.626 750.543 656.918L709.845 673.602C709.683 673.559 709.513 673.541 709.36 673.474C708.21 672.966 708.069 672.767 707.697 671.653C708.095 670.992 708.451 670.594 709.138 670.222C714.312 667.423 720.471 665.633 725.973 663.457C737.883 658.746 749.828 654.062 761.567 648.936Z"/>
	<path fill="#231F20" d="M767.09 619.391C767.86 619.394 768.314 619.559 769.034 619.804L769.333 620.632C766.88 626.108 711.295 646.906 702.186 650.396L701.467 650.413C700.502 649.595 700.414 649.475 700.038 648.269C700.242 647.953 700.368 647.571 700.649 647.321C701.741 646.353 708.744 644.258 710.548 643.573C729.457 636.393 749.412 629.241 767.09 619.391Z"/>
	<path fill="#231F20" d="M755.912 600.011C757.258 599.961 757.247 599.97 758.322 600.784L758.409 601.842C757.427 603.14 756.092 603.662 754.623 604.261C748.11 606.918 741.045 608.49 734.383 610.77C715.015 617.401 695.122 624.252 676.17 631.94L675.248 632.012C674.236 631.393 674.211 631.373 673.782 630.269C673.963 629.966 674.058 629.591 674.324 629.36C677.068 626.969 747.487 602.953 755.912 600.011Z"/>
	<path fill="#231F20" d="M674.323 232.907C670.983 229.952 659.994 219.884 656.304 219.39L655.68 220.877L654.753 221.095C653.801 220.152 653.745 220.106 653.534 218.789C654.175 217.583 654.841 216.953 656.144 216.522C657.378 216.114 658.528 216.085 659.684 216.73C664.772 219.574 680.178 231.013 682.296 235.753L682.251 236.68C681.195 237.577 680.324 237.522 678.979 237.434C671.683 236.962 664.769 234.119 657.5 233.47L655.376 233.266L654.75 234.541C654.833 234.857 654.924 235.171 654.998 235.49C655.923 239.5 654.699 266.816 653.972 271.934C653.764 273.394 653.516 274.479 652.707 275.717L651.94 275.749C650.537 271.757 651.993 239.247 652.899 234.509C652.001 233.382 651.338 232.933 651.354 231.403C651.367 230.16 651.859 229.014 652.778 228.181C653.478 227.547 653.294 227.751 654.346 227.777L654.97 228.687C660.993 230.961 668.048 231.447 674.323 232.907Z"/>
	<path fill="#231F20" d="M620.45 195.074C623.591 195.818 626.737 201.138 630.159 202.75C631.36 203.316 632.531 203.939 633.714 204.539C634.414 206.301 635.771 208.957 635.566 210.899C635.446 212.045 634.568 213.267 633.641 213.915C632.496 214.716 631.36 214.674 630.091 214.283C629.772 214.185 629.457 214.076 629.14 213.972C627.374 214.969 594.043 252.974 589.882 257.749C589.427 258.224 588.958 258.757 588.441 259.172C587.458 259.962 587.032 260.169 585.795 259.988L585.395 258.855C585.721 257.377 586.135 256.183 587.02 254.935C589.169 251.909 592.429 249.144 594.951 246.34L615.588 223.345C619.867 218.567 624.578 213.873 628.138 208.53C624.669 206.46 622.018 204.383 619.39 201.356C619.587 199.251 620.062 197.152 620.45 195.074Z"/>
	<path fill="#231F20" d="M538.139 262.113L539.207 262.55C540.407 264.151 543.177 293.838 543.663 298.114C570.029 294.227 596.565 288.825 622.394 282.257C625.184 281.548 635.555 278.334 637.963 279.155C637.791 280.384 637.692 280.554 636.913 281.527C605.469 291.549 572.956 294.779 540.908 301.822C541.42 292.237 535.545 270.284 536.998 264.041C537.118 263.522 537.845 262.609 538.139 262.113Z"/>
	<path fill="#231F20" d="M583.079 245.675C583.227 245.652 583.38 245.653 583.523 245.608C583.699 245.553 583.86 245.453 584.028 245.376L583.538 245.831L583.866 244.691L584.427 244.719L583.937 244.327L584.182 243.71L584.627 244.374C589.884 237.906 611.009 214.297 617.084 212.709L617.793 213.207C617.787 215.698 615.628 218.008 613.956 219.674C609.504 224.112 604.831 228.331 600.466 232.858C596.351 237.126 592.533 241.791 588.277 245.902C587.697 246.463 586.662 247.669 585.823 247.669C584.638 247.668 583.192 246.923 582.248 246.226C579.066 242.181 575.371 241.662 570.603 240.463C569.121 245.076 567.555 249.286 565.015 253.438C566.175 257.541 567.199 261.568 567.635 265.817C573.034 265.419 578.874 263.517 584.197 263.71C585.285 263.749 584.816 263.58 585.642 264.474L585.428 265.717C583.674 267.31 570.738 268.703 567.275 269.951L566.601 270.198L566.154 269.343C563.707 264.73 562.975 259.219 561.004 254.339C563.399 248.506 565.709 241.471 569.362 236.35C573.097 237.36 580.62 238.509 583.365 240.959C583.13 242.238 582.911 243.449 583.003 244.756C583.025 245.062 583.054 245.368 583.079 245.675Z"/>
	<path fill="#231F20" d="M867.535 402.652C879.889 402.673 891.042 410.381 899.536 418.721C912.988 431.928 919.557 448.086 919.603 466.878C919.624 475.348 918.83 490.138 912.533 496.458C912.327 496.327 911.637 495.878 911.436 495.8C911.177 495.701 910.898 495.666 910.629 495.599C910.954 493.832 911.63 492.341 912.36 490.707C913.981 486.492 915.087 481.988 915.659 477.511C917.983 459.311 914.575 442.497 903.143 427.93C895.482 418.168 882.973 407.542 870.177 406.173C869.876 406.141 869.574 406.117 869.272 406.086C865.571 405.703 862.355 408.384 858.953 408.03C858.636 406.851 858.626 406.796 859.068 405.661C861.384 403.534 864.552 403.182 867.535 402.652Z"/>
	<path fill="#231F20" d="M870.795 174.123C882.161 173.203 892.781 175.188 902.698 181.014C918.561 190.332 929.788 207.137 934.302 224.766C937.856 238.648 937.817 251.779 934.345 265.65C933.632 268.501 932.861 272.221 931.27 274.721C930.671 275.661 930.669 275.659 929.534 275.91L928.519 275.02C928.296 271.906 930.557 266.948 931.509 263.898C933.322 255.249 934.149 246.82 933.234 237.989C931.285 219.167 922.58 200.368 907.616 188.413C896.319 179.387 883.72 176.181 869.507 177.687C865.345 178.128 862.092 181.016 858.138 181.738C856.807 181.982 856.558 181.761 855.552 181.034L855.742 179.993C859.025 176.29 866.024 174.88 870.795 174.123Z"/>
	<path fill="#231F20" d="M657.128 164.68L657.87 164.807C658.834 166.181 658.522 168.516 658.474 170.162C658.377 173.457 657.403 197.126 656.64 198.743C656.472 199.097 656.066 199.278 655.78 199.545C654.555 199.471 654.617 199.517 653.78 198.625C652.895 189.504 654.791 178.17 655.503 168.882C644.845 170.166 634.346 172.575 623.863 174.831C602.049 179.527 580.479 184.999 559.141 191.536C552.734 193.462 546.326 195.304 540.082 197.717C537.762 198.613 534.623 200.186 532.188 199.101L532.167 198.231C538.469 191.556 604.769 174.978 616.611 172.401C630.07 169.472 643.675 167.515 657.128 164.68Z"/>
	<path fill="#231F20" d="M851.109 439.106C854.375 438.878 857.318 438.988 860.417 440.155C868.697 443.273 874.956 451.412 878.392 459.309C885.56 475.781 883.774 495.733 877.266 512.1C870.353 529.487 856.117 544.643 838.817 551.959C833.153 554.353 816.235 559.419 810.735 556.778C810.508 556.669 810.292 556.539 810.071 556.42L810.852 556.94L810.566 555.828C812.351 554.335 814.547 554.444 816.735 554.449L817.618 554.455C824.472 553.495 831.076 552.008 837.432 549.201C854.597 541.619 868.354 526.328 874.978 508.87C880.738 493.692 881.806 474.969 874.98 459.931C871.914 453.177 866.433 445.825 859.211 443.287C849.227 439.779 848.988 445.453 843.982 447.241C842.973 447.601 841.863 447.573 840.983 447.04L841.04 446.489C843.354 442.791 847.042 440.419 851.109 439.106Z"/>
	<path fill="#231F20" d="M840.802 206.705C851.636 206.343 862.038 208.864 871.624 213.925C889.249 223.23 903.037 239.983 908.892 259.013C914.392 276.886 913.268 297.333 904.353 313.907C900.067 321.873 892.281 330.996 883.271 333.514C881.828 333.917 880.361 334.249 879.007 333.45L879.048 332.322C880.791 329.755 884.702 329.082 887.395 327.602C893.796 322.891 898.386 317.986 902.108 310.909C910.318 295.298 910.723 275.855 905.46 259.238C899.677 240.981 886.468 225.299 869.436 216.558C861.449 212.46 850.044 208.863 840.962 209.815C835.917 210.344 830.729 212.462 825.916 214.028C824.928 213.345 825.136 213.504 824.825 212.484C825.159 211.862 825.156 211.794 825.69 211.199C828.48 208.094 836.851 207.059 840.802 206.705Z"/>
	<path fill="#231F20" d="M769.204 550.981C769.357 550.962 769.508 550.922 769.662 550.924C771.025 550.938 771.083 551.23 771.927 552.217L771.769 553.349C770.837 554.427 769.85 554.816 768.55 555.308C763.446 557.241 757.865 558.447 752.63 560.066C740.291 563.883 727.971 567.783 715.554 571.34C668.219 584.9 622.22 601.396 576.13 618.659C562.811 623.648 549.41 628.36 536.14 633.488C535.449 633.705 534.916 633.738 534.199 633.78L533.376 632.721L533.61 631.817C538.584 626.899 662.923 583.538 678.771 578.498C708.795 568.949 739.34 561.122 769.204 550.981Z"/>
	<path fill="#231F20" d="M653.767 665.061C654.514 665.116 655.115 665.215 655.734 665.701C661.16 669.955 668.311 699.384 670.071 706.946C675.201 704.28 700.246 692.681 704.253 693.549L704.653 694.434C702.645 698.739 676.772 707.962 670.985 710.593C672.163 715.738 673.143 719.954 672.495 725.228C658.44 732.944 642.437 738.404 627.377 743.78C621.776 745.677 616.247 747.858 610.67 749.838C607.961 743.919 605.811 737.816 603.613 731.694C598.541 732.479 579.969 738.026 576.506 736.635L576.237 735.632C577.565 730.336 591.609 713.69 596.016 709.094C594.669 704.694 590.011 694.01 590.746 689.986C595.272 686.931 601.19 685.608 606.217 683.499C619.193 678.056 640.278 667.647 653.767 665.061Z"/>
	<path fill="#FEFEFE" d="M597.342 715.368C599.523 717.435 600.616 723.196 601.446 726.136C597.783 727.406 594.03 728.305 590.161 728.601C588.84 728.954 587.486 729.537 586.13 729.274C589.419 724.366 593.442 719.8 597.342 715.368Z"/>
	<path fill="#FEFEFE" d="M652.741 667.961C653.184 668.027 653.582 668.319 653.973 668.531C658.223 675.634 670.664 714.396 669.669 721.793C665.868 725.297 619.824 743.034 612.45 745.11C607.168 735.089 595.605 702.082 593.286 690.877C613.494 684.645 632.676 674.874 652.741 667.961Z"/>
	<path fill="#231F20" d="M631.2 690.695C635.718 691.682 646.879 698.843 650.216 702.154C650.847 702.78 651.055 702.758 651.067 703.647C645.223 703.372 637.777 698.134 632.851 695L631.069 697.722C628.389 701.629 623.318 712.779 619.543 714.556L619.102 713.869C620.042 707.401 627.648 696.809 631.2 690.695Z"/>
	<path fill="#231F20" d="M333.098 145.703C338.832 145.516 354.08 144.554 358.675 147.485C360.673 148.76 361.409 151.425 361.805 153.614C364.774 170.037 364.799 205.076 356.528 219.401C354.5 222.915 350.6 222.546 348.754 225.162C354.833 235.213 360.308 244.918 365.327 255.571C371.993 253.315 379.986 250.579 386.985 253.07C393.591 255.421 398.079 261.395 400.955 267.53C405.684 277.616 407.756 289.81 403.799 300.5C400.768 308.687 395.623 315.641 387.549 319.286C391.007 327.751 393.67 336.647 396.41 345.37C402.681 365.33 408.131 385.613 412.987 405.964C422.938 402.987 434.341 404.379 444.513 405.719C460.973 407.887 476.736 412.194 492.23 418.093C518.769 428.197 578.719 460.098 595.645 482.132C610.611 459.512 626.804 437.951 643.62 416.666L662.277 393.434C665.612 389.233 669.409 385.051 671.882 380.271C670.199 379.156 668.52 378.1 667.036 376.721C666.983 376.35 666.89 375.879 666.969 375.51C667.248 374.209 667.713 374.012 668.785 373.483C671.011 373.593 672.993 374.732 674.994 375.641C680.287 374.709 680.781 378.507 684.964 380.003C687.454 379.522 689.163 377.295 690.981 375.567C689.888 373.432 687.492 371.687 685.817 369.977C680.579 364.632 676.446 350.614 676.517 343.069C676.597 334.63 680.658 326.153 686.797 320.417C694.202 313.497 706.881 310.915 716.719 311.274C716.203 306.703 715.675 302.106 715.508 297.507C715.097 286.228 713.662 267.706 722.348 258.842C725.956 255.16 731.539 253.144 736.655 253.203C744.034 253.287 748.63 258.795 753.347 263.667C756.637 260.692 760.022 259.002 764.527 258.89C769.226 258.772 774.036 260.502 777.381 263.844C781.672 268.132 782.572 273.344 782.559 279.126C785.283 277.994 788.102 276.705 791.025 276.235C794.361 275.699 798.829 275.53 801.626 277.76C806.205 281.412 804.575 287.726 805.511 292.636C805.694 293.595 805.665 293.768 806.502 294.316C809.351 293.003 812.592 291.691 815.744 291.422C818.435 291.192 820.927 291.81 822.95 293.655C825.869 296.317 826.513 299.901 826.546 303.693C826.65 315.465 822.187 336.123 813.424 344.674C809.781 348.229 805.83 348.038 801.067 348.032C798.755 371.541 791.855 394.689 780.476 415.406C781.505 417.521 781.656 420.392 782.703 422.248C784.376 425.217 790.565 424.622 792.334 428.242C791.626 432.442 789.3 436.863 787.828 440.916C778.953 465.346 767.649 488.547 756.841 512.151C763.302 510.046 770.52 506.578 777.195 505.702C777.71 505.968 777.816 505.978 778.271 506.469C779.678 507.988 780.545 511.248 781.007 513.247C786.96 539.052 790.405 565.77 794.959 591.874C797.277 605.16 800.002 618.369 802.294 631.658C806.26 654.657 809.672 677.636 813.017 700.725C813.957 707.212 816.795 716.327 815.478 722.787C815.19 724.201 814.658 724.555 813.537 725.386C812.867 725.389 812.498 725.565 811.973 725.062C810.127 723.294 809.484 719.522 808.987 717.071C799.863 672.041 792.683 626.578 784.203 581.41C781.648 567.805 779.131 554.075 776.175 540.555C774.456 532.695 771.925 524.933 770.946 516.926L770.862 516.212C761.549 518.372 752.257 521.694 743.166 524.648C729.048 529.237 714.874 533.737 700.879 538.687C694.377 540.986 688.021 543.68 681.508 545.941C672.127 549.198 662.526 551.819 653.119 555.011C623.835 564.95 594.729 575.742 566.357 588.048C552.048 594.253 538.068 600.471 524.406 608.038C524.034 608.923 523.673 609.813 523.373 610.726C521.24 617.2 523.474 627.689 524.503 634.471C526.784 649.511 530.46 664.508 533.51 679.419L550.063 759.616C553.325 775.002 556.032 790.423 559.906 805.679C560.972 809.877 561.822 814.952 563.79 818.797L565.953 818.728C597.345 811.105 627.921 799.927 658.269 788.925C677.298 782.027 696.596 775.422 715.384 767.907C736.592 759.425 757.587 750.35 778.648 741.509C796.898 733.848 815.275 726.456 833.444 718.606C845.584 713.362 908.727 681.846 917.42 681.375C918.508 681.316 918.512 681.336 919.337 682.11L919.149 683.183C913.504 687.119 904.909 689.328 898.569 692.696C877.702 703.779 857.346 716.262 835.955 726.306C815.676 735.828 794.652 743.852 773.927 752.338C759.069 758.421 744.482 765.19 729.55 771.082C703.559 781.336 677.048 790.585 650.817 800.248C628.943 808.306 607.101 816.305 584.709 822.833C578.407 824.67 571.739 827.106 565.195 827.802C561.152 828.232 557.046 827.258 553.221 826.017C540.873 822.012 513.663 808.278 502.407 801.165C499.016 799.022 495.879 796.469 492.745 793.971C492.187 796.52 491.589 799.131 490.735 801.601C488.097 809.224 482.729 815.963 475.265 819.295C471.135 821.139 466.48 821.838 462.179 820.145C456.897 818.068 454.596 814.216 452.465 809.312C448.18 820.43 443.214 831.316 432.962 838.171C425.677 843.042 416.919 844.307 408.439 842.497C395.76 839.79 382.362 831.652 375.228 820.717C367.81 820.587 360.555 818.515 353.076 818.293L352.377 820.724C352.242 821.207 352.117 821.693 351.972 822.173C351.359 824.185 350.567 825.198 348.657 826.2L347.707 825.786C346.308 823.322 346.639 821.225 346.932 818.546C339.015 816.43 330.813 815.443 322.795 813.766C312.359 811.583 301.968 808.691 291.742 805.676C232.847 788.315 170.588 755.245 131.68 706.733C125.788 699.387 120.059 692.015 115.568 683.702C98.2423 651.631 81.3048 603.671 92.2791 567.579C95.2679 557.75 99.2387 547.869 104.401 538.992C119.334 513.31 146.773 486.961 172.919 473.089C168.822 471.924 164.789 470.748 160.975 468.82C157.097 466.859 151.798 463.554 150.575 459.172C149.952 456.938 150.544 454.719 151.728 452.781C160.24 438.84 199.616 427.497 215.265 423.975C212.731 419.389 211.209 413.852 209.315 408.948C207.088 409.294 204.831 409.685 202.584 409.848C193.272 410.523 183.537 406.998 176.505 400.951C166.484 392.333 162.758 380.447 161.772 367.614C160.845 355.541 163.866 343.276 171.895 334.022C179.889 324.808 188.911 321.233 200.885 320.364C196.136 309.476 191.38 297.197 190.42 285.276C188.858 265.895 194.348 239.37 202.604 221.684C206.415 213.519 211.679 205.618 217.557 198.797C238.601 174.372 271.474 155.224 303.068 148.712C312.833 146.699 323.156 146.403 333.098 145.703Z"/>
	<path fill="#FEFEFE" d="M455.445 794.934C457.283 794.889 459.403 794.782 461.073 795.687C462.175 796.286 462.171 796.461 462.518 797.594C462.048 799.098 461.068 799.729 459.889 800.666C458.545 801.469 457.312 802.416 455.699 802.466L455.174 801.539C455.481 799.296 455.495 797.189 455.445 794.934Z"/>
	<path fill="#FEFEFE" d="M528.037 699.085C530.254 701.467 530.493 707.139 530.973 710.243C529.235 709.127 527.356 708.198 525.538 707.218C523.448 706.169 521.078 705.647 518.835 705.004C521.8 702.907 524.97 701.034 528.037 699.085Z"/>
	<path fill="#FEFEFE" d="M780.159 425.794L786.503 429.154C785.872 431.34 785.046 435.666 783.06 436.827L775.529 432.389C776.997 430.15 778.614 427.981 780.159 425.794Z"/>
	<path fill="#FEFEFE" d="M513.378 710.358C514.028 710.826 514.313 711.188 514.785 711.819C514.8 715.905 509.78 721.157 507.27 724.208L504.284 722.442L498.602 720.077C503.759 717.235 508.514 713.671 513.378 710.358Z"/>
	<path fill="#FEFEFE" d="M218.833 405.685C219.774 405.786 220.311 405.968 221.134 406.435C223.79 413.718 224.555 424.027 226.318 431.877C227.547 437.349 229.89 442.684 230.749 448.197L230.316 447.89C228.166 443.206 223.934 435.592 223.085 430.714C222.744 428.755 224.261 427.554 223.446 425.007C221.756 419.728 218.753 413.84 217.851 408.441C217.6 406.941 217.946 406.831 218.833 405.685Z"/>
	<path fill="#FEFEFE" d="M813.747 298.632C814.211 298.757 814.542 298.824 814.987 299.061C816.421 299.823 817.139 301.017 817.484 302.546C819.357 310.839 813.904 329.005 809.153 336.158C807.378 338.83 805.827 339.842 802.705 340.446C800.887 339.52 799.312 338.565 798.601 336.544C797.664 333.884 797.957 331.598 799.244 329.148C803.492 321.062 804.427 310.385 805.82 301.432C808.621 300.699 811.117 299.856 813.747 298.632Z"/>
	<path fill="#FEFEFE" d="M523.962 677.533C525.557 679.182 526.134 685.832 526.532 688.154C521.218 690.749 516.394 694.389 511.042 697.04C500.318 702.354 488.053 706.444 478.218 713.245C475.685 712.355 473.169 711.41 470.647 710.489C468.909 709.671 466.942 709.145 465.12 708.522C468.813 706.423 473.037 704.929 476.895 703.111C492.919 695.56 509.922 688.473 523.962 677.533Z"/>
	<path fill="#FEFEFE" d="M367.245 747.244C370.773 748.983 374.421 750.33 378.103 751.703C378.061 754.388 372.87 769.595 371.989 773.466C369.186 785.78 367.323 799.07 366.305 811.668C362.369 811.246 358.477 810.728 354.571 810.077C357.074 788.966 363.812 768.239 367.245 747.244Z"/>
	<path fill="#FEFEFE" d="M378.086 260.61L383.198 260.328C384.69 261.175 386.188 262.032 387.525 263.114C393.426 267.894 396.396 276.951 397.05 284.328C398.113 296.325 393.986 306.897 386.44 315.994C385.362 313.506 384.679 310.928 383.948 308.325C381.954 301.669 379.963 295.05 377.533 288.538C377.91 287.893 378.302 287.263 378.685 286.623C380.228 284.041 383.634 283.819 385.493 281.424C385.965 279.935 386.265 279.053 385.819 277.481C385.026 276.797 384.716 276.463 383.638 276.311C379.778 275.766 377.437 277.459 374.612 279.708C372.241 274.607 370.461 269.325 368.693 263.997C371.782 262.457 374.762 261.495 378.086 260.61Z"/>
	<path fill="#FEFEFE" d="M790.609 283.47C792.526 283.378 794.126 283.208 795.748 284.456C797.875 286.092 798.545 289.438 798.704 291.943C799.744 308.307 793.632 326.557 782.66 338.714C782.123 338.819 781.573 338.671 781.034 338.598C780.291 338.034 779.68 337.543 779.173 336.746C775.631 331.179 774.605 320.232 775.683 313.82C776.904 306.561 779.884 299.261 781.226 291.71C784.109 288.417 786.725 285.619 790.609 283.47Z"/>
	<path fill="#FEFEFE" d="M762.705 266.524C765.103 266.473 767.57 266.879 769.468 268.453C771.987 270.541 773.073 274.022 773.412 277.164C774.573 287.899 765.368 320.731 759.057 328.813C758.806 328.951 758.557 329.094 758.304 329.228C756.788 330.026 754.908 330.325 753.287 329.627C751.997 329.072 751.195 327.867 750.718 326.599C747.198 317.249 753.247 300.407 754.258 290.374C754.778 285.211 753.967 279.643 754.915 274.573C755.247 272.796 756.29 270.955 757.075 269.333C758.857 268.206 760.79 267.394 762.705 266.524Z"/>
	<path fill="#FEFEFE" d="M732.391 262.052C734.222 262.058 736.166 261.977 737.927 262.555C740.528 263.41 742.6 265.523 743.785 267.949C749.013 278.657 744.837 294.46 743.334 305.728C742.9 308.98 743.03 313.049 741.83 316.104C741.475 317.008 741.395 317.256 740.503 317.677L738.96 316.316C734.511 313.149 730.586 312.052 725.226 311.723C722.683 301.613 722.787 290.611 723.51 280.273C724.069 272.284 726.378 267.262 732.391 262.052Z"/>
	<path fill="#FEFEFE" d="M216.043 429.153C217.27 429.366 218.786 431.644 219.655 432.648C215.542 433.707 211.452 434.872 207.383 436.087C201.207 437.932 168.544 448.942 166.209 453.262C166.274 453.38 166.325 453.506 166.404 453.615C167.643 455.339 171.062 456.548 173.014 457.318C183.46 461.437 192.95 462.126 203.99 461.944C207.814 461.88 212.039 461.515 215.794 462.354C217.55 462.747 218.359 463.251 219.359 464.814C219.472 465.916 219.657 466.562 219.133 467.588C218.324 469.17 216.696 470.392 215.638 471.836C213.769 474.387 212.386 477.899 211.143 480.806C207.825 488.563 206.009 496.563 205.396 504.962C205.062 509.53 205.049 514.245 204.01 518.716C219.381 513.53 237.02 496.228 244.879 482.06L247.367 486.026L244.562 490.179C239.836 497.959 233.196 505.665 225.971 511.233C221.38 514.771 205.818 525.085 200.006 524.33C198.408 522.724 198.722 518.261 198.727 516.09C198.771 496.229 202.703 480.149 217.006 465.862C208.169 465.082 199.198 465.62 190.336 465.108C178.766 464.44 167.898 462.601 159.926 453.65C160.489 452.588 161.07 451.48 161.762 450.494C168.046 441.553 204.618 431.384 216.043 429.153Z"/>
	<path fill="#FEFEFE" d="M329.819 173.686C331.096 174.02 331.619 174.299 332.541 175.245C332.987 176.391 333.027 177.173 332.749 178.349C329.743 191.098 308.443 216.352 296.874 223.17C295.584 223.931 293.839 224.566 292.355 224.026C287.546 222.276 287.249 201.809 284.286 195.395C283.527 193.753 282.828 191.477 281.267 190.482C280.613 191.252 280.772 190.93 280.437 191.786C274.083 208.029 265.795 225.269 253.335 237.722C247.838 243.215 231.991 256.538 223.62 255.735C222.356 255.613 221.37 255.215 220.628 254.169C218.057 250.542 221.066 238.57 221.712 234.207C215.265 241.601 210.005 251.69 205.759 260.469C204.996 262.045 204.223 264.474 202.78 265.514C201.489 265.283 201.482 265.209 200.593 264.227C200.473 262.132 201.176 260.34 201.805 258.375C204.313 252.509 207.18 247.047 210.504 241.602C212.772 237.888 222.313 220.604 226.038 219.703L226.963 220.343C229.4 226.695 225.589 242.215 225.404 249.813L225.387 250.699C229.344 248.678 233.448 246.939 237.163 244.482C250.773 235.48 261.628 220.239 268.473 205.644C271.071 200.107 272.559 193.716 275.576 188.458C276.671 186.549 278.365 183.881 280.672 183.378C281.606 183.175 282.568 183.54 283.307 184.12C290.274 189.592 293.77 209.843 294.648 218.434C306.982 209.894 314.573 199.188 322.05 186.366C324.433 182.279 326.629 177.891 329.486 174.115C329.595 173.97 329.708 173.829 329.819 173.686Z"/>
	<path fill="#FEFEFE" d="M532.103 717.863C533.927 724.359 535.087 730.979 536.584 737.55C539.263 749.305 542.1 761.006 544.611 772.8C546.55 781.906 548.155 791.116 550.234 800.184C551.472 805.58 553.32 810.814 554.676 816.185C543.095 811.209 531.35 805.529 520.279 799.501C512.901 795.603 505.179 792.418 497.747 788.609C503.428 784.902 505.065 781.159 507.057 774.878C509.04 777.412 510.915 780.202 514.383 780.502C515.878 780.631 517.371 780.211 518.43 779.099C519.354 778.128 519.698 776.89 519.667 775.583C519.58 771.973 515.083 769.856 512.557 767.816C517.829 759.292 519.843 747.784 517.232 738.033C516.346 734.722 514.044 730.137 514.937 726.742C517.102 726.178 519.268 725.613 521.42 725.004C525.922 723.729 529.462 722.707 531.824 718.386C531.919 718.213 532.01 718.038 532.103 717.863Z"/>
	<path fill="#FEFEFE" d="M713.274 320.207C719.49 319.757 725.726 319.364 731.492 322.272C733.127 323.096 735.082 324.376 735.487 326.305C736.125 329.343 731.778 333.469 730.166 336.071C726.056 335.066 721.947 334.375 717.821 335.72C716.988 336.603 716.942 336.31 716.966 337.638C719.313 342.124 725.738 344.163 729.767 347.116C740.822 355.217 740.784 361.384 743.161 373.515C743.424 374.859 743.507 375.773 744.684 376.563C745.684 376.265 745.927 376.305 746.696 375.518C749.368 372.782 751.093 367.452 750.897 363.689C750.368 353.548 742.175 346.111 735.152 339.684C738.15 337.217 740.475 334.925 742.472 331.612C745.143 334.29 747.427 337.247 750.21 339.848C752.583 339.688 755.013 339.581 757.307 338.913C762.594 337.372 765.288 333.715 767.86 329.155C768.12 331.243 768.363 333.357 768.84 335.408C770.235 341.412 773.757 344.393 778.754 347.488C779.761 347.53 780.771 347.568 781.78 347.546C786.521 347.444 789.362 344.464 792.366 341.237C793.566 343.337 795.044 345.173 796.54 347.063C796.592 347.224 796.662 347.38 796.696 347.545C799.484 360.97 783.256 403.574 775.585 415.412C773.311 414.778 771.143 414.123 769.008 413.096C760.952 409.222 753.356 404.051 745.42 399.871C735.569 394.683 719.911 388.255 711.703 382.286C700.405 374.07 686.698 362.19 684.584 347.451C683.716 341.4 685.202 334.799 689.056 329.99C694.896 322.703 704.55 321.117 713.274 320.207Z"/>
	<path fill="#FEFEFE" d="M437.811 710.706C438.796 710.625 439.774 710.573 440.763 710.574C453.033 710.598 498.836 723.547 507.013 732.491C512.013 737.961 509.603 752.353 509.313 759.541C508.378 756.801 507.848 753.616 506.261 751.171C500.373 742.103 476.352 733.341 466.094 731.382C459.784 730.176 448.042 729.445 442.585 733.505C441.665 734.189 441.902 734.328 441.77 735.388C443.177 736.974 444.933 737.575 446.966 738C452.842 739.226 459.049 738.908 464.98 739.984C472.162 741.287 495.357 750.014 500.178 755.419C501.532 758.916 500.025 765.675 499.201 769.288C498.547 772.153 497.295 778.479 494.747 780.076L494.141 779.687C493.6 778.156 493.083 776.45 492.2 775.08C486.716 766.569 461.339 759.021 451.13 757.079C447.26 756.342 442.249 755.493 438.806 757.8C438.525 758.517 438.187 758.76 438.591 759.503C439.24 760.694 440.431 761.315 441.63 761.84C445.051 763.336 449.001 763.833 452.604 764.826C456.75 765.968 460.841 767.451 464.912 768.838C472.766 771.959 481.27 774.217 487.283 780.472C486.012 788.512 483.904 798.108 479.411 805.036C477.057 808.666 473.628 811.503 469.287 812.263C465.728 812.886 462.083 812.516 459.139 810.359L459.132 809.543C460.851 807.687 463.599 806.887 465.676 805.465C467.879 803.955 469.706 801.64 470.117 798.947C470.498 796.449 469.715 793.935 468.136 791.986C465.78 789.078 461.958 787.464 458.279 787.222C455.494 787.04 451.69 787.737 449.82 790C448.096 792.086 447.598 797.915 446.891 800.723C444.554 810.003 439.626 822.197 432.006 828.42C426.8 832.671 420.297 834.119 413.706 833.438C400.588 832.082 386.894 824.92 378.517 814.756C386.079 804.636 385.163 791.913 388.129 780.21C392.19 764.189 404.44 735.325 415.144 722.809C421.373 715.524 428.13 711.466 437.811 710.706Z"/>
	<path fill="#FEFEFE" d="M257.581 500.846C261.012 504.152 264.499 507.357 268.375 510.142C275.987 515.612 284.585 519.186 293.503 521.921C317.891 529.4 340.709 528.724 365.51 524.791C369.616 534.258 372.483 544.311 376.857 553.626C381.371 563.238 387.077 572.334 392.111 581.686C399.813 595.993 407.028 610.749 415.998 624.323C423.768 636.079 432.624 647.168 440.876 658.593C450.276 671.605 459.297 684.853 470.174 696.697C464.098 699.385 457.041 701.388 450.416 702.083C440.658 703.107 431.999 702.121 422.773 706.376C403.219 715.396 392.338 745.157 385.379 764.343C384.872 758.871 383.935 753.504 382.996 748.094C378.321 746.102 373.906 743.835 369.121 741.973C370.049 737.755 371.177 733.67 372.473 729.551C372.046 728.437 371.686 728.088 370.72 727.399L369.709 727.665C367.239 730.206 366.57 734.206 365.748 737.54C350.984 732.915 336.322 725.442 322.595 718.366C287.926 700.494 257.117 680.9 226.965 656.056C214.027 645.395 201.682 634.415 190.359 622.023C185.662 616.883 164.364 594.759 164.615 589.159L165.469 589.03C171.413 592.108 176.433 600.173 181.13 604.998C186.569 610.586 192.222 615.993 197.787 621.457C199.399 620.55 201.002 619.644 202.298 618.303C209.345 611.006 216.996 597.849 222.431 589.046C239.18 561.918 257.352 533.905 257.581 500.846Z"/>
	<path fill="#FEFEFE" d="M344.016 229.497C345.14 230.489 346.016 231.826 346.783 233.105C358.655 252.912 367.84 283.612 375.206 305.795C389.704 349.452 404.775 393.449 409.539 439.447C410.748 451.117 411.755 463.485 408.886 474.98C405.37 489.065 397.175 501.152 384.59 508.592C362.889 521.42 326.22 521.851 302.415 515.712C274.86 508.606 264.758 497.549 250.539 473.58C240.581 456.744 231.069 420.304 229.686 400.51C229.436 396.92 232.551 392.448 231.255 389.125C230.784 387.918 230.2 387.68 229.131 387.162C224.71 387.542 221.148 394.811 217.559 397.387C212.365 401.116 203.624 401.152 197.481 399.959C189.089 398.33 181.465 393.431 176.85 386.201C171.017 377.063 169.421 362.731 171.852 352.297C173.691 344.402 178.393 336.643 185.303 332.262C188.48 330.248 191.976 328.802 195.178 326.806L195.678 326.489C205.047 327.318 207.683 328.711 214.914 334.601C216.558 335.941 219.17 337.678 221.413 337.255C222.222 337.102 222.028 337.014 222.563 336.228C222.781 332.289 220.104 328.261 217.65 325.38C228.238 305.283 230.243 290.308 226.172 268.216C235.401 266.917 244.564 263.737 253.539 261.213C275.763 254.962 297.632 247.87 319.197 239.608C327.569 236.4 335.899 233.325 344.016 229.497Z"/>
	<path fill="#231F20" d="M342.111 269.328C343.313 269.491 343.725 269.357 344.679 270.177C347.122 272.279 348.705 275.717 348.613 278.963C348.565 280.653 347.454 281.641 346.376 282.808C345.032 282.459 343.879 282.045 342.876 281.057C340.984 279.193 338.869 274.482 339.557 271.729C339.957 270.125 340.786 270.02 342.111 269.328Z"/>
	<path fill="#231F20" d="M269.984 297.264C270.992 297.276 272.041 297.26 272.898 297.885C275.713 299.94 276.903 304.935 277.215 308.209C277.414 310.293 276.653 311.188 275.414 312.707C274.427 312.582 273.449 312.244 272.612 311.698C270.407 310.262 268.872 307.544 268.42 304.99C267.852 301.779 268.14 299.918 269.984 297.264Z"/>
	<path fill="#231F20" d="M203.987 348.763C204.135 348.804 204.282 348.847 204.431 348.885C205.646 349.196 207.073 349.397 208.071 350.213C211.396 352.932 206.146 360.399 206.305 364.155C206.555 370.019 211.533 368.084 214.088 370.819C214.516 371.278 214.375 371.421 214.394 372.141C214.446 374.102 214.073 375.339 212.668 376.754C211.201 377.437 209.932 377.452 208.384 377.027C204.316 375.911 202.311 373.751 200.218 370.202C198.978 365.842 199.847 361.22 199.626 356.744L198.553 356.152C193.896 356.691 191.517 361.529 187.434 363.31L186.606 362.977L186.079 361.479C186.311 359.77 186.79 358.701 187.876 357.347C191.818 352.427 197.783 349.334 203.987 348.763Z"/>
	<path fill="#231F20" d="M321.538 274.189C322.054 274.214 322.437 274.211 322.954 274.337C324.355 274.68 325.371 276.53 326.14 277.67C331.169 285.126 335.474 293.152 340.085 300.874C345.498 309.938 351.338 318.855 357.441 327.471C361.141 332.695 364.977 337.807 369.148 342.666C373.639 347.898 378.727 352.786 382.247 358.758C384.447 362.49 383.718 367.273 382.656 371.324C380.097 381.085 372.179 391.975 363.373 396.977C357.544 400.289 351.535 400.948 345.134 399.138C336.296 396.639 331.906 390.903 327.713 383.263C327.462 382.586 327.221 381.926 327.036 381.228C326.179 377.974 325.781 371.932 327.955 369.061C328.788 367.96 329.497 367.909 330.751 367.635C333.411 368.752 334.6 381.419 339.012 386.427C341.565 389.325 346.502 391.365 350.312 391.636C355.211 391.984 359.416 389.976 363.008 386.776C368.361 382.006 376.774 371.247 375.345 363.687C374.403 358.697 363.649 349.285 360.154 344.694C346.817 327.173 335.099 308.285 326.094 288.18C324.271 284.109 321.353 278.73 321.538 274.189Z"/>
	<path fill="#FEFEFE" d="M678.705 385.321C687.007 389.875 694.796 395.624 702.782 400.729C715.579 408.91 728.611 416.797 741.605 424.666C753.41 431.815 766.203 437.079 777.924 444.219C772.739 458.135 766.008 471.593 759.967 485.164C756 494.075 751.421 506.983 746.16 514.651C731.836 519.894 717.194 524.419 702.74 529.303C645.898 548.509 588.581 566.83 534.389 592.851C508.98 572.908 487.897 546.227 472.539 517.88C470.028 513.246 461.165 493.982 459.252 491.897L458.36 491.951C457.458 493.277 457.317 494.646 457.394 496.221C457.599 500.422 462.123 508.509 463.952 512.55C479.43 546.754 497.494 572.885 525.907 597.558C521.109 599.945 518.016 601.636 514.329 605.651C511.87 623.551 518.87 655.156 523.462 673.074C518.465 673.967 513.987 676.211 509.372 678.238C496.795 683.332 484.159 689.577 472.126 695.871C468.382 690.52 464.004 685.573 460.115 680.31C453.341 671.146 447.046 661.611 440.39 652.356C434.054 643.545 427.27 634.996 421.194 626.007C411.271 611.326 403.43 595.604 394.973 580.078C389.6 570.215 383.425 560.553 378.829 550.303C375.004 541.773 372.035 532.713 368.711 523.964C385.283 520.121 399.958 510.707 409.108 496.161C420.181 478.559 420.072 458.679 418.078 438.75C417.203 430.007 416.111 421.547 414.158 412.975C421.995 411.586 430.106 411.945 438 412.652C483.5 416.725 526.908 441.032 564.452 465.614C572.385 470.807 585.312 483.471 592.567 486.381C588.27 491.71 579.785 504.041 578.507 510.734C578.268 511.984 578.389 512.48 579.048 513.538L579.91 513.508C583.498 510.535 586.435 504.48 589.259 500.669L615.634 465.658C636.117 438.517 657.54 411.934 678.705 385.321Z"/>
	<path fill="#231F20" d="M398 550.598C399.45 550.451 401.034 550.227 402.489 550.352C404.832 550.554 407.095 551.906 408.584 553.691C410.537 556.033 411.196 559.238 410.736 562.212C410.098 566.346 407.88 568.858 404.56 571.189C403.061 571.514 401.343 571.796 399.835 571.403C397.33 570.749 395.204 568.793 393.95 566.58C392.271 563.619 391.736 559.877 392.711 556.597C393.643 553.458 395.202 552.128 398 550.598Z"/>
</svg>
