<?xml version="1.0" encoding="utf-8" ?>
<svg xmlns="http://www.w3.org/2000/svg" xmlns:xlink="http://www.w3.org/1999/xlink" width="1024" height="1024">
	<path fill="#FEFEFE" d="M0 0L1024 0L1024 1024L0 1024L0 0Z"/>
	<path fill="#231F20" d="M637.445 44.703C644.933 43.7769 653.426 44.5198 660.889 45.308C712.566 50.7652 779.895 83.8153 812.695 124.698C816.985 130.045 831.65 153.165 829.927 160.135C829.624 161.361 829.542 161.572 828.467 162.18C826.863 161.775 825.745 160.085 824.871 158.784C822.327 154.998 820.475 150.746 818.195 146.795C815.602 142.301 812.459 137.893 809.309 133.767C785.405 102.454 748.681 81.1467 712.545 66.9785C682.91 55.3596 641.542 45.3662 611.308 58.738C593.439 66.6409 584.551 79.3464 577.739 97.0857C597.9 101.591 624.543 115.072 636.696 131.849C641.946 139.097 645.735 148.289 644.093 157.371C642.691 165.129 637.827 172.339 631.199 176.578C624.068 181.137 615.389 182.386 607.21 180.386C593.722 177.089 581.479 165.684 574.426 154.074C563.72 136.452 566.056 121.271 570.65 102.291C563.14 100.617 555.257 99.2086 547.586 98.6376C530.526 97.3678 515.476 99.0979 502.23 110.701C489.11 122.193 481.734 137.851 480.649 155.221C479.174 178.839 493.509 193.808 507.732 210.632C513.308 217.227 518.516 224.17 524.234 230.631C536.471 226.197 548.632 221.868 561.119 218.176C597.55 207.406 637.83 197.411 676.125 202.457C681.42 203.154 686.631 204.663 691.84 205.837C699.932 207.659 708.602 209.191 715.541 214.028C727.786 222.564 746.702 251.58 754.665 265.17C756.521 268.338 763.897 284.409 765.576 285.321C766.186 285.092 766.804 284.874 767.41 284.636C768.066 284.379 768.995 283.86 769.693 283.814C770.973 283.728 771.616 284.107 772.372 285.113C774.684 288.194 770.648 296.338 769.9 299.896C769.504 301.779 769.411 303.762 769.279 305.68C770.212 307.059 770.929 308.624 771.695 310.103C770.915 312.833 769.485 315.237 768.557 317.903C766.373 324.183 767.024 331.356 767.569 337.874C774.316 338.47 780.71 339.512 786.6 343.087C792.862 346.887 796.751 352.793 798.442 359.843C800.819 369.749 798.787 381.964 793.453 390.636C786.541 401.87 773.289 407.464 761.008 410.471L761.073 501.061C765.298 500.811 769.528 500.572 773.762 500.642C796.519 501.015 820.91 504.345 843.503 507.317C858.644 509.308 874.272 510.249 888.742 515.481C902.971 520.626 916.745 529.397 927.215 540.284C944.097 557.839 952.965 581.367 956.869 605.038C957.967 611.694 958.944 618.252 958.76 625.022C958.281 642.731 953.721 660.831 946.455 676.922C943.711 682.999 940.446 688.838 937.507 694.823C933.454 703.078 930.112 711.497 923.309 717.915C931.498 737.362 936.756 761.497 933.011 782.471C929.998 799.351 920.681 811.087 906.777 820.707C899.053 826.051 890.59 830.354 882.012 834.155C865.515 841.464 848.178 846.842 830.975 852.195C821.45 855.159 810.748 859.079 800.816 860C799.048 860.164 797.298 859.83 795.566 859.508C776.529 868.941 745.761 886.207 725.688 890.414C722.612 891.059 718.518 891.822 715.829 889.85C713.996 888.505 712.331 885.714 712 883.46C711.015 876.762 716.817 870.145 720.584 865.13C712.922 867.922 691.575 877.502 684.318 873.927C683.085 873.32 682.206 872.345 681.813 871.008C679.643 863.621 686.498 860.554 689.236 855.225C688.958 855.183 688.682 855.121 688.401 855.099C687.447 855.025 688.01 855.27 686.917 854.969C684.774 854.38 682.133 852.046 681.251 850.019C680.426 848.123 680.361 845.889 681.157 843.978C683.953 837.267 696.061 833.26 702.263 830.811C699.224 829.807 695.66 828.62 694.185 825.499C693.469 823.986 693.301 822.192 693.885 820.61C695.039 817.484 698.516 815.513 701.376 814.207C715.363 807.822 740.101 803.462 755.271 805.152C762.024 805.904 768.136 807.944 774.47 810.263C776.982 807.77 779.479 805.096 782.914 803.914C786.833 802.566 791.033 804.146 795.069 803.458C808.811 801.115 844.358 793.407 855.158 787.055C853.49 768.346 849.506 751.6 843.496 733.831C839.43 733.792 834.912 733.322 831.706 730.544C830.251 729.284 829.371 727.671 829.3 725.731C829.179 722.404 831.196 719.744 833.281 717.38C827.989 706.024 823.286 694.73 817.131 683.756C809.596 670.325 801.628 657.096 793.386 644.089C790.947 640.239 788.101 636.633 785.799 632.697C785.048 631.411 784.162 629.892 783.962 628.396C783.778 627.024 784.06 626.462 784.829 625.368C786.099 624.814 786.752 624.618 788.137 624.772C794.181 628.303 822.424 678.811 827.636 688.287C831.613 695.969 835.184 703.753 838.597 711.701C849.089 702.322 885.873 679.895 898.824 674.706C902.887 673.078 906.586 672.315 910.927 671.874C906.825 668.864 902.291 666.773 898.322 663.441C887.716 654.54 877.503 642.255 867.146 632.578C854.147 620.433 840.139 609.355 826.131 598.422C807.274 583.704 792.444 571.528 769.745 562.498C767.926 567.39 766.121 572.388 763.639 576.99C756.727 589.808 743.644 600.845 729.629 605.008C718.735 608.243 706.221 606.651 696.319 601.127C685.523 595.105 679.415 585.108 676.129 573.473C651.384 590.189 631 614.876 618.593 641.993C613.106 653.985 609.087 666.287 604.936 678.769C600.953 690.748 596.806 702.627 593.78 714.898C598.963 713.763 605.268 712.241 610.575 712.417C616.813 712.623 623.5 715.128 629.511 716.692C641.369 719.777 653.288 723.095 665.205 725.875C664.478 712.927 662.629 700.162 661.155 687.296C660.379 680.518 660.076 673.692 659.238 666.921C658.058 657.383 655.78 646.961 656.027 637.376C656.075 635.488 656.312 633.827 657.763 632.509C658.925 632.273 659.883 632.184 660.979 632.771C662.127 633.385 662.793 634.785 663.094 636.001C663.903 639.266 664.047 643.146 664.49 646.505C666.356 660.652 666.878 674.671 668.119 688.855C669.48 704.395 672.199 719.818 673.374 735.361C674.399 748.91 673.671 762.318 675.997 775.752C676.396 778.06 676.267 779.324 675.582 781.599C682.082 781.494 705.222 779.84 709.392 783.602C710.501 787.621 708.537 786.311 707.251 789.106C706.46 790.827 708.053 805.52 707.99 808.747C696.6 812.123 682.616 823.253 671.87 829.6L548.122 902.254C545.158 903.967 540.422 907.351 537.11 907.735C536.902 907.759 536.693 907.769 536.484 907.788C524.57 908.898 508.361 906.881 496.182 906.204L425.919 902.687L298.178 895.165L210.144 889.706C194.855 888.715 179.464 888.085 164.204 886.735C161.752 886.518 159.165 886.372 157.124 884.856C154.84 883.16 153.704 880.595 153.293 877.842C152.448 872.178 154.269 867.561 157.517 863.083C154.369 862.451 151.332 861.176 148.137 860.878C147.438 861.87 146.732 862.682 145.888 863.544C144.63 863.982 143.227 864.058 142.001 863.406C141.35 863.06 140.817 862.686 140.571 861.978C139.881 859.991 140.947 858.335 141.868 856.64C138.685 853.602 135.987 849.977 134.183 845.949C129.838 836.247 127.127 825.63 123.77 815.546C114.665 788.199 106.614 760.812 98.5623 733.142C93.7573 716.631 87.9455 700.458 82.9765 684.015C75.8966 660.586 69.8747 635.781 65.7982 611.653C64.1069 601.642 63.3712 591.431 70.155 582.926C71.964 580.658 76.1962 579.809 78.9672 579.335C87.1081 577.942 95.9878 578.053 104.249 577.58C122.565 576.533 141.017 575.808 159.272 574.046C158.337 567.974 158.244 561.762 157.823 555.636C156.865 541.737 156.214 527.816 154.925 513.941C150.388 465.071 144.34 416.5 141.39 367.491C140.945 360.104 139.085 342.696 140.24 336.262C140.401 335.367 140.564 334.573 141.348 334.046C145.011 331.581 172.966 328.439 179.153 327.537C260.848 315.633 342.642 306.508 424.881 299.309L468.551 295.806C480.134 294.97 492.903 293.31 504.385 295.198C504.703 279.267 504.151 259.977 508.882 244.738C507.335 244.12 505.474 243.376 504.594 241.853C503.894 240.64 504.215 240.085 504.623 238.885C507.595 235.915 511.855 235.052 515.756 233.85C506.02 218.695 491.702 206.81 482.16 191.488C472.558 176.068 470.436 159.151 474.705 141.584C478.899 124.326 490.658 107.626 505.948 98.4367C526.692 85.9696 550.309 90.1636 572.521 95.5748C575.557 85.8722 580.76 75.1115 587.272 67.3124C600.068 51.9844 618.23 46.3215 637.445 44.703Z"/>
	<path fill="#FEFEFE" d="M838.614 721.211C839.018 721.432 839.118 721.449 839.462 721.852C840.633 723.226 841.476 726.565 841.397 728.305L840.4 728.48C839.73 728.306 838.874 728.154 838.266 727.834C837.04 727.188 836.988 726.83 836.581 725.598C836.851 723.903 837.736 722.645 838.614 721.211Z"/>
	<path fill="#FEFEFE" d="M909.043 678.564C909.842 678.892 910.449 679.3 911.089 679.872C912.537 681.164 913.549 682.947 913.513 684.941C913.473 687.141 912.406 689.275 910.789 690.737C909.311 688.364 907.375 685.915 906.26 683.361C905.684 682.041 905.661 680.991 906.193 679.685L909.043 678.564Z"/>
	<path fill="#FEFEFE" d="M603.071 720.522C603.792 720.53 604.322 720.652 605.018 720.823C605.633 722.291 605.426 724.383 605.285 725.966C605.145 727.539 604.658 730.549 603.425 731.571L602.165 730.509C600.525 728.927 597.778 726.816 597.034 724.675C596.753 723.867 597.076 723.571 597.374 722.832C599.006 721.467 601.062 721.093 603.071 720.522Z"/>
	<path fill="#FEFEFE" d="M546.777 879.614L547.166 879.641L547.169 880.077C534.001 888.095 541.75 893.725 537.48 897.895C536.227 897.954 536.135 897.77 535.078 897.055C534.277 892.778 533.631 888.487 532.99 884.185C530.472 883.787 527.914 883.581 525.379 883.314C520.281 882.703 514.984 882.695 509.979 881.53C512.378 880.927 515.293 881.107 517.781 881.066C527.607 880.904 537.134 882.124 546.777 879.614Z"/>
	<path fill="#FEFEFE" d="M784.331 811.378C785.052 811.463 785.531 811.514 786.233 811.795C789.877 813.25 795.411 825.103 796.9 828.639C798.686 832.878 804.595 847.862 803.017 851.701L801.405 852.348C800.189 852.403 798.989 852.368 797.774 852.328C797.248 851.462 797.283 851.753 797.191 850.894C795.702 836.988 792.179 823.157 781.547 813.407L781.658 812.865L784.331 811.378Z"/>
	<path fill="#FEFEFE" d="M707.559 295.855C711.095 298.514 724.512 342.325 726.849 349.532C726.292 351.034 725.081 351.57 723.815 352.517L720.424 355.08C714.83 335.736 709.738 315.929 707.559 295.855Z"/>
	<path fill="#FEFEFE" d="M694.514 795.469C695.338 796.336 695.179 796.326 695.328 797.434C694.27 799.375 690.751 800.933 688.843 802.02L597.446 853.145C585.667 859.628 573.588 865.554 561.796 872.029L561.302 871.875C565.317 866.408 630.503 831.96 640.723 826.182C658.699 816.02 676.123 804.909 694.514 795.469Z"/>
	<path fill="#FEFEFE" d="M548.681 231.118C548.844 232.077 546.379 234.989 545.698 235.971C538.376 246.531 532.046 258.682 526.332 270.199L516.138 271.742C515.445 265.893 522.265 246.476 524.412 240.028C532.157 236.354 540.596 233.955 548.681 231.118Z"/>
	<path fill="#FEFEFE" d="M726.585 239.335C729.673 241.307 732.407 246.046 734.341 249.138C740.814 259.484 746.085 270.118 750.649 281.424C754.046 289.838 756.861 298.498 761.128 306.525C760.149 312.45 760.179 318.525 759.99 324.516L759.678 325.175C756.975 322.653 730.02 248.961 726.585 239.335Z"/>
	<path fill="#FEFEFE" d="M630.919 212.641C635.496 212.645 640.05 212.764 644.623 212.965C641.999 215.059 639.36 217.134 637.124 219.651C631.747 225.703 627.447 232.736 622.741 239.31C618.517 245.211 613.34 251.274 610.014 257.704L600.98 258.872C596.771 259.621 592.549 260.201 588.313 260.769C594.035 251.767 605.126 238.516 612.665 230.967C616.138 227.489 620.154 224.574 623.607 221.095C626.289 218.392 627.97 215.272 630.919 212.641Z"/>
	<path fill="#FEFEFE" d="M713.836 224.393C716.084 226.541 721.62 231.312 722.277 234.347C720.823 234.898 719.641 235.187 718.78 236.584C717.725 243.476 750.492 324.315 755.926 337.472L750.141 338.433L745.592 339.861C740.497 326.626 736.848 312.731 732.99 299.09C728.972 284.878 724.775 270.763 720.328 256.678C718.399 250.568 716.951 244.01 714.581 238.086C713.835 236.221 712.642 233.41 710.922 232.312C709.646 232.483 708.446 232.723 707.198 233.024L706.563 232.386C706.796 230.6 712.28 225.99 713.836 224.393Z"/>
	<path fill="#FEFEFE" d="M620.217 213.723L621.105 213.885C621.665 215.428 622.647 215.82 623.16 217.109L617.408 216.939C609.821 222.842 586.381 252.631 581.021 261.326C575.4 262.277 569.743 263.078 564.108 263.943C563.002 264.229 562.09 264.361 560.948 264.364C561.021 262.244 574.98 245.21 577.292 242.314C583.602 234.409 595.92 219.355 605.149 216.135C609.841 214.499 615.29 214.271 620.217 213.723Z"/>
	<path fill="#FEFEFE" d="M655.386 210.869C662.327 210.8 669.531 211.453 676.449 212.099C671.431 216.549 666.274 220.949 661.571 225.734C652.938 234.517 645.021 243.963 636.27 252.65L633.451 255.3C628.663 255.862 623.899 256.223 619.089 256.507C629.75 240.544 640.36 223.119 655.386 210.869Z"/>
	<path fill="#FEFEFE" d="M701.739 236.372C703.317 238.292 704.394 240.506 705.488 242.726C708.955 249.754 711.727 257.164 714.248 264.577C720.961 284.324 726.241 304.55 732.244 324.526C733.396 328.359 737.506 338.868 737.814 341.91C737.876 342.521 737.742 342.773 737.564 343.291C736.496 344.354 736.57 344.335 735.067 344.397C733.643 343.336 733.577 342.499 732.974 340.859C727.653 325.769 722.727 310.411 716.488 295.678C712.77 286.899 708.062 278.607 704.213 269.906C701.728 264.29 698.994 251.955 693.968 248.565C693.091 248.511 692.45 248.44 691.594 248.199C693.733 244.056 698.54 239.858 701.739 236.372Z"/>
	<path fill="#FEFEFE" d="M590.187 219.08L590.693 219.129C590.699 219.387 590.777 219.653 590.712 219.902C590.452 220.907 579.727 231.416 578.133 233.216C573.394 238.563 568.995 244.27 564.478 249.807C560.157 255.104 555.415 260.359 551.83 266.182L536.487 268.734L535.822 268.421C535.895 262.937 554.778 236.32 557.259 228.256C566.884 223.863 579.808 221.687 590.187 219.08Z"/>
	<path fill="#FEFEFE" d="M683.713 212.361C692.033 213.362 702.205 215.758 709.223 220.425C704.682 223.945 700.672 228.17 696.42 232.029C693.855 234.358 690.956 236.241 688.351 238.513C684.082 242.235 680.915 246.937 677.619 251.497L669.381 252.093C660.921 253.255 652.299 253.235 643.849 254.546C650.603 246.203 657.983 237.622 665.387 229.864C671.182 223.792 680.02 220.344 683.713 212.361Z"/>
	<path fill="#FEFEFE" d="M513.698 322.09C514.714 322.02 515.745 322.026 516.763 322.064C522.596 322.28 528.083 325.667 531.841 329.979C538.361 337.462 539.542 347.546 538.794 357.117L538.193 357.397C532.604 355.568 526.569 356.328 520.775 356.535C519.736 354.393 518.772 352.121 516.767 350.695C514.761 349.268 512.666 349.479 510.379 349.932C505.201 353.221 508.443 355.193 507.829 359.556C507.628 360.977 506.049 362.813 505.225 363.975C499.398 360.417 493.934 355.405 492.007 348.632C490.499 343.331 491.008 336.741 493.905 331.982C498.598 324.27 505.883 324.13 513.698 322.09Z"/>
	<path fill="#FEFEFE" d="M575.882 103.231C595.151 110.106 616.159 117.597 629.037 134.465C634.275 141.325 637.67 149.885 636.334 158.636C635.548 163.777 633.197 167.238 629.028 170.221C628.41 170.59 627.79 170.954 627.153 171.287C620.773 174.625 613.76 174.924 606.99 172.65C594.296 168.386 583.893 158.078 578.036 146.211C571.181 132.322 571.036 117.795 575.882 103.231Z"/>
	<path fill="#FEFEFE" d="M614.786 722.701C631.727 725.212 648.604 732.745 665.865 732.494C667.471 745.457 667.699 758.753 667.982 771.806C668.04 774.464 668.446 778.036 666.525 780.041C664.263 780.931 661.853 780.664 659.462 780.612C641.733 780.927 623.987 780.712 606.258 780.574L614.786 722.701Z"/>
	<path fill="#FEFEFE" d="M740.886 814.203C747.256 813.673 752.278 813.9 758.381 815.921L761.184 819.553C766.376 820.22 771.776 819.779 777.023 820.078C783.941 828.988 786.872 841.833 789.389 852.626C774.919 858.083 732.195 883.215 720.315 882.189C719.736 881.192 719.762 881.649 719.997 880.609C720.651 877.71 722.602 874.955 724.498 872.724C730.195 866.017 737.121 862.408 744.959 858.786C747.242 857.73 749.779 856.778 751.889 855.425C753.515 854.383 754.702 852.561 755.099 850.677C755.466 848.933 755.167 847.602 754.147 846.126C752.919 845.5 752.258 845.168 750.861 845.486C745.892 846.617 740.279 849.936 735.565 851.969C721.492 858.039 706.609 864.405 691.417 866.826C690.182 866.614 690.708 866.863 689.808 866.148C690.193 862.506 697.023 856.593 699.539 853.974C710.605 851.243 721.642 846.229 732.365 842.32C737.501 840.449 743.087 839.223 748.093 837.173C749.544 836.579 750.513 835.998 751.609 834.878C751.966 833.807 752.268 833.283 751.567 832.225C750.076 829.978 746.388 828.934 743.839 829.103C741.088 829.284 737.912 831.077 735.245 831.983C726.992 834.789 718.841 837.806 710.72 840.987C705.955 842.854 701.358 845.225 696.409 846.611C694.574 847.125 692.539 847.702 690.658 847.163L690.456 846.433C694.867 840.23 723.522 831.607 731.978 828.561C733.298 828.086 736.34 827.222 736.83 825.844C737.351 824.379 737.032 822.268 736.169 820.998C733.766 817.46 716.176 823.091 711.783 823.758C708.26 824.293 704.922 824.221 701.372 824.051C713.967 818.65 727.269 815.536 740.886 814.203Z"/>
	<path fill="#FEFEFE" d="M523.86 789.228C566.658 790.139 609.403 792.206 652.213 792.62C662.539 792.72 672.867 793.107 683.193 792.918C675.914 798.228 667.297 802.485 659.45 806.924C640.206 817.81 620.619 828.092 601.158 838.572C584.656 847.459 569.175 858.024 553.343 867.999C551.506 869.025 549.481 869.845 547.494 870.539C545.259 871.319 541.448 872.749 539.282 871.699C539.678 869.312 541.67 867.484 542.182 864.996C543.874 856.784 539.825 846.171 537.853 838.233C538.43 838.149 539.009 838.061 539.58 837.935C541.069 837.605 543.083 837.038 543.943 835.701C542.992 832.727 539.428 833.405 537.112 831.929C536.176 831.333 535.87 830.436 535.634 829.431C538.233 827.849 559.95 830.826 564.265 831.225C561.775 832.582 558.456 833.97 556.445 835.969C555.42 836.989 554.489 838.475 554.636 839.978C554.766 841.303 555.377 841.99 556.337 842.812C557.384 843.136 558.253 843.325 559.335 842.992C564.544 841.389 569.67 838.199 572.208 833.319L572.49 832.765C574.747 831.414 581.832 832.463 584.504 832.571C582.095 834.719 577.522 836.603 576.527 839.839C576.129 841.132 576.588 842.013 577.158 843.148C577.909 843.714 578.332 844.221 579.293 844.362C583.895 845.039 587.913 836.533 591.661 834.267C594.755 832.396 598.698 832.075 601.661 829.924C603.132 828.856 604.754 827.403 605.094 825.575C603.146 823.7 598.582 824.958 596.061 825.203C590.356 825.757 584.17 824.539 578.473 824.022C563.445 822.659 547.918 820.662 532.857 820.458C531.816 816.087 530.325 811.746 529.046 807.433C530.431 805.785 531.721 804.268 532.159 802.123C531.447 800.575 529.939 800.443 528.508 799.569C525.086 797.478 524.691 792.902 523.86 789.228Z"/>
	<path fill="#231F20" d="M542.663 799.564C544.409 799.456 546.421 799.331 548.124 799.75C550.168 800.254 551.955 801.73 553.024 803.498C553.106 804.274 553.311 804.852 552.97 805.591C552.116 807.443 550.279 808.348 548.487 809.086C544.872 809.113 540.204 809.398 537.432 806.523C536.493 805.548 536.441 805.172 536.38 803.915C537.628 801.558 540.222 800.339 542.663 799.564Z"/>
	<path fill="#231F20" d="M616.23 801.555C619.875 801.421 623.45 801.274 626.908 802.682C628.574 803.361 629.124 804.066 629.838 805.68C629.571 808.405 628.242 809.665 626.242 811.414C625.029 811.69 623.933 811.746 622.684 811.732C619.25 811.694 616.231 811.306 613.718 808.79C613.351 807.981 613.047 807.355 613.178 806.434C613.462 804.445 614.825 802.872 616.23 801.555Z"/>
	<path fill="#231F20" d="M600.315 802.245C602.233 801.948 605.51 801.975 607.188 803.019C608.25 803.68 609.008 804.628 609.228 805.885C609.43 807.032 608.984 808.243 608.218 809.096C606.486 811.024 603.536 811.262 601.125 811.484C598.859 811.516 595.9 811.814 593.77 810.999C592.108 810.364 590.999 809.307 590.33 807.666C590.469 806.235 590.492 805.781 591.498 804.657C593.628 802.279 597.405 802.338 600.315 802.245Z"/>
	<path fill="#231F20" d="M569.754 800.579C573.789 800.357 579.061 800.688 582.349 803.385C583.415 804.259 583.591 804.886 583.787 806.202C582.812 808.681 580.904 809.559 578.592 810.585C574.87 811.051 570.695 810.847 567.26 809.262C565.409 808.407 564.242 807.396 563.486 805.475C563.57 804.853 563.53 804.293 563.922 803.773C565.307 801.93 567.604 801.1 569.754 800.579Z"/>
	<path fill="#FEFEFE" d="M897.568 683.376L898.28 683.602C905.403 690.764 916.776 721.318 920.052 732.154C925.904 751.506 930.251 777.4 920.128 795.971C915.041 805.304 905.587 812.621 896.577 817.913C885.996 824.129 874.448 828.241 862.983 832.473C845.826 838.805 828.431 844.579 810.874 849.706C809.69 835.104 806.351 823.601 798.258 811.319C802.246 809.727 806.652 808.864 810.814 807.768C826.67 803.595 848.574 799.861 861.34 789.607C861.682 785.878 862.162 782.24 862.069 778.484C861.555 757.755 852.887 736.936 844.6 718.203C850.039 713.983 855.854 710.134 861.485 706.17C873.19 697.93 884.743 689.803 897.568 683.376Z"/>
	<path fill="#FEFEFE" d="M682.134 257.141L682.376 257.225C683.499 258.65 684.432 259.588 686.23 259.979C687.734 259.681 688.331 259.025 689.359 257.976C689.489 257.843 689.616 257.708 689.745 257.574L690.276 257.867C693.303 263.923 694.434 271.462 695.779 278.079C700.219 299.927 701.803 322.563 707.863 343.991C708.864 347.53 713.891 357.235 713.871 359.837C713.399 360.527 712.837 361.251 712.466 361.998C711.879 363.181 711.664 363.808 712.103 365.083C712.553 366.389 713.554 367.233 714.791 367.728C721.321 367.854 734.207 354.707 740.588 351.167C751.6 345.057 763.442 343.997 775.521 347.51C780.642 348.999 785.127 351.541 787.687 356.4C791.172 363.014 790.695 372.303 788.614 379.323C786.261 387.26 780.999 392.77 773.793 396.559C766.044 400.633 754.388 403.997 745.569 402.787C743.832 402.549 742.204 401.799 740.521 401.344C738.827 400.886 736.847 400.588 735.306 401.672C734.369 402.332 733.83 403.456 733.794 404.59C733.753 405.873 734.284 406.973 735.151 407.885C738.823 411.748 748.867 411.488 753.742 411.486C753.217 426.671 753.469 441.917 753.465 457.11C753.462 469.93 753.151 482.804 753.489 495.615C753.918 511.896 754.928 528.125 755.232 544.405C755.353 550.847 759.064 562.224 758.891 565.217C758.495 572.103 749.423 582.411 744.474 586.737C735.792 594.328 725.153 599.095 713.443 598.146C704.191 597.396 695.083 592.783 689.157 585.6C686.076 581.865 682.405 575.959 682.901 571.014L683.395 570.893C685.296 573.232 685.642 577.024 687.17 579.712C687.922 581.035 688.622 581.527 690.053 581.95C691.164 581.608 691.5 581.563 692.282 580.729C692.832 577.199 685.199 550.047 683.986 544.957L691.609 542.959C697.328 541.478 705.627 539.972 710.348 536.338C711.559 535.406 712.084 534.564 712.239 533.011C711.918 531.873 711.554 531.123 710.678 530.333C709.671 529.426 708.332 529.097 707.003 529.297C700.305 530.304 691.883 533.809 685.128 535.666C665.334 541.106 645.483 546.08 624.944 547.52C600.716 549.218 577.826 548.032 558.829 531.366C517.422 495.041 515.397 425.301 512.072 374.414C514.232 374.988 516.422 375.614 518.655 375.804C524.239 376.278 530.696 375.204 535.015 371.427C536.629 370.016 537.988 368.148 538.777 366.147C539.488 364.345 539.335 362.369 539.612 360.482C540.222 356.321 541.824 352.739 542.028 348.366C542.441 339.502 540.186 330.785 533.904 324.232C527.781 317.846 520.241 316.068 511.751 315.952C511.287 304.254 511.563 292.445 512.093 280.755C521.381 278.942 530.835 277.826 540.177 276.295C560.517 272.961 580.806 269.621 601.253 266.966C617.992 264.792 634.762 263.477 651.569 262.014C659.584 261.317 668.599 261.253 676.394 259.486C678.458 259.018 680.272 258.117 682.134 257.141Z"/>
	<path fill="#231F20" d="M765.032 356.088C765.236 356.07 765.439 356.04 765.643 356.033C767.344 355.974 768.914 356.382 770.034 357.754C770.947 358.872 770.867 359.345 770.737 360.671C767.844 365.296 756.124 366.603 750.742 369.475C752.61 370.184 754.614 370.873 756.348 371.874C758.567 373.155 760.638 375.599 761.284 378.103C761.89 380.453 761.281 382.729 760.018 384.747C758.627 386.969 756.635 389.015 753.974 389.529C752.367 389.839 750.168 389.527 748.964 388.334C747.942 387.322 747.983 386.606 747.913 385.281C748.33 384.278 748.664 383.593 749.485 382.879C749.711 382.683 749.942 382.494 750.171 382.301C750.807 382.105 751.526 381.923 752.129 381.626C753.167 381.114 753.644 380.78 753.972 379.639C751.875 376.927 747.022 377.393 744.711 374.384C744.551 374.176 744.465 373.905 744.264 373.738C743.271 372.913 738.662 378.117 735.174 377.447C733.73 377.169 733.509 376.91 732.675 375.812C732.522 374.351 732.775 373.337 733.503 372.076C738.181 363.973 756.384 358.161 765.032 356.088Z"/>
	<path fill="#231F20" d="M600.769 449.604C604.387 449.133 608.127 448.812 611.338 450.791C615.278 457.165 615.481 467.155 615.458 474.403C615.44 480.075 615.461 488.397 610.998 492.552C607.843 495.49 604.585 495.081 600.603 494.826C599.476 494.564 598.355 494.279 597.305 493.78C592.303 491.403 588.968 486.649 587.054 481.597C584.581 475.07 583.834 466.398 587.001 460.032C589.924 454.156 594.879 451.657 600.769 449.604Z"/>
	<path fill="#231F20" d="M560.273 325.461C561.667 325.375 562.802 325.421 564.182 325.635C565.063 326.214 565.649 326.731 566.026 327.75C567.717 332.324 565.94 340.712 565.407 345.546C562.65 370.557 558.962 395.705 549.112 419.016C554.436 418.427 588.133 413.126 590.39 413.802C591.65 414.18 592.139 414.587 592.827 415.679C593.049 417.051 593.042 417.697 592.531 418.994C591.219 420.452 589.601 420.932 587.809 421.632C579.6 423.314 545.945 430.864 539.965 426.227C539.042 425.511 538.574 424.481 538.571 423.324C538.566 421.49 545.314 404.406 546.429 400.453C551.074 383.997 553.552 367.388 555.565 350.429C556.285 344.364 556.522 329.857 560.273 325.461Z"/>
	<path fill="#231F20" d="M649.103 298.104C654.358 297.689 659.282 299.04 663.649 301.987C670.342 306.504 674.856 314 676.423 321.859C678.323 331.39 675.775 345.387 670.26 353.367C666.453 358.875 661.23 360.779 654.974 362.043C649.719 361.899 644.97 361.284 640.401 358.402C636.997 356.254 631.919 351.162 631.353 346.961C631.167 345.577 631.531 344.302 631.016 342.94C629.756 339.609 628.333 336.612 627.565 333.089C625.798 324.977 627.023 316.583 631.676 309.594C635.86 303.308 641.767 299.55 649.103 298.104Z"/>
	<path fill="#FEFEFE" d="M647.963 304.063C650.788 303.902 653.324 303.954 656.06 304.766C662.329 306.626 667.125 310.939 670.145 316.69C674.203 324.419 674.451 332.675 671.832 340.88C667.816 340.996 663.772 341.659 659.785 342.152C657.829 339.485 656.032 337.116 653.237 335.268C651.477 335.343 649.32 335.361 647.865 336.493C645.911 338.013 645.635 341.318 645.167 343.594C642.809 344.54 640.287 345.186 637.855 345.925C634.962 342.685 632.865 339.462 631.576 335.299C629.534 328.701 630.004 321.289 633.333 315.19C636.65 309.113 641.506 305.947 647.963 304.063Z"/>
	<path fill="#FEFEFE" d="M491.329 301.72C495.448 301.428 499.66 301.542 503.793 301.485L504.004 319.622C498.456 322.526 493.867 325.651 490.932 331.391C487.817 337.483 487.487 345.143 489.67 351.602C492.026 358.571 496.761 362.326 503.038 365.566C505.119 376.159 505.117 387.799 505.989 398.599C508.114 424.932 510.498 451.706 517.714 477.224C525.134 503.465 540.213 532.902 564.898 546.553C596.519 564.04 644.669 556.165 678.084 546.697C678.887 549.838 679.514 553.023 680.18 556.195C675.894 556.805 671.537 557.938 667.351 559.05C658.597 561.374 649.507 563.898 641.296 567.747C626.412 574.726 610.977 587.941 602.739 602.236C593.125 618.919 590.257 636.685 588.272 655.542C587.536 662.531 586.614 669.698 587.436 676.719C588.069 682.122 590.176 687.005 591.592 692.209C590.669 695.131 589.745 698.057 588.901 701.002C586.306 710.056 582.803 720.961 587.935 729.708C591.113 735.124 597.118 739.331 603.172 740.899C601.541 754.084 599.262 767.283 598.205 780.522C572.506 780.351 546.776 779.943 521.079 780.187C515.97 763.039 511.557 745.683 506.494 728.516C518.453 726.981 576.804 726.646 581.202 720.943C582.033 719.865 581.924 719.362 581.682 718.156C580.036 716.497 578.074 716.265 575.812 716.251C568.354 716.204 560.639 718.07 553.182 718.788C536.963 720.348 520.533 721.252 504.243 720.949C501.002 707.842 497.219 694.86 494.002 681.739C491.007 669.526 488.563 657.137 486.005 644.825C502.064 643.261 518.063 640.703 534.114 638.958L559.431 636.219C564.655 635.701 569.971 635.604 575.164 634.824C577.176 634.521 579.601 634.107 581.164 632.711C581.816 632.129 581.652 631.856 581.722 631.053C581.252 630.276 580.859 629.655 580.063 629.158C579.341 628.708 578.579 628.493 577.734 628.474C569.713 628.298 560.8 629.963 552.772 630.749C530.028 632.977 507.274 635.614 484.651 638.854L480.721 622.133C487.733 621.29 498.823 621.675 505.035 618.944C507.084 618.043 509.04 616.533 509.756 614.329C510.533 611.937 509.609 609.023 508.347 606.961C506.898 604.593 504.705 604.258 502.182 603.687C494.183 603.436 484.783 605.547 476.845 606.85C475.86 601.62 474.285 596.424 472.927 591.277C469.666 578.911 467.362 569.981 457.566 561.11C474.243 558.928 491.035 557.215 507.742 555.234C517.54 554.072 527.401 552.499 537.199 551.506C539.456 551.278 541.744 551.366 543.994 551.09C546.344 550.802 547.865 550.186 549.303 548.29C549.582 546.829 549.624 546.803 548.94 545.493C548.051 544.93 547.264 544.527 546.182 544.519C543.54 544.499 540.619 545.329 537.97 545.699C532.092 546.521 526.182 547.171 520.289 547.882C498.83 550.473 477.324 552.763 455.912 555.727L453.378 558.467C436.394 554.014 400.755 559.812 381.871 561.041C350.565 563.081 319.232 564.917 287.888 566.295C276.234 566.807 264.462 567.947 252.806 567.971C261.258 565.646 270.628 564.8 279.286 563.288C292.864 560.917 306.532 557.972 320.22 556.357C332.023 554.965 344.818 555.003 356.264 551.761C359.02 550.981 361.041 549.846 362.38 547.211C363.501 545.003 363.687 542.285 362.76 539.974C361.987 538.046 360.435 536.554 358.471 535.875C352.79 533.912 335.615 537.692 328.846 538.683C312.457 541.083 296.083 543.315 279.762 546.185C265.785 548.643 251.932 551.669 237.989 554.279C232.013 555.398 219.832 556.1 214.812 558.683C213.333 559.445 212.081 560.574 211.684 562.255C211.022 565.056 212.739 567.613 214.054 569.934L213.792 570.401C204.62 571.983 194.702 571.811 185.391 572.311C180.698 572.563 175.785 573.367 171.117 573.324C169.698 573.311 168.638 573.198 167.351 572.594C165.199 569.707 164.41 534.951 164.027 529.645C160.811 485.14 154.342 440.931 150.321 396.507C149.474 387.148 148.854 377.731 148.424 368.343C148.022 359.57 148.192 350.406 146.122 341.841C145.864 340.773 145.792 340.675 146.039 339.55C150.189 337.884 155.97 337.812 160.444 337.159L194.097 332.279C244.763 325.041 295.531 319.424 346.437 314.222C394.648 309.296 442.955 304.737 491.329 301.72Z"/>
	<path fill="#231F20" d="M319.48 366.25C320.396 366.34 321.438 366.575 322.202 367.116C323.192 367.815 323.75 368.762 323.78 369.983C323.818 371.592 322.657 372.716 321.644 373.795C320.436 373.73 319.027 373.77 318.076 372.876C317.13 371.986 316.804 371.086 316.946 369.796C317.119 368.219 318.379 367.227 319.48 366.25Z"/>
	<path fill="#231F20" d="M448.94 375.963C450.143 375.912 451.318 375.846 452.435 376.393C453.47 376.9 454.259 378.043 454.356 379.187C454.482 380.681 453.711 381.915 452.958 383.115C451.611 383.298 450.132 383.624 448.966 382.702C447.965 381.911 447.435 381.074 447.365 379.785C447.278 378.175 448.032 377.19 448.94 375.963Z"/>
	<path fill="#231F20" d="M404.047 477.335C405.366 477.575 406.775 477.781 407.71 478.877C408.238 479.496 408.492 480.212 408.449 481.007C408.326 483.302 407.028 484.314 405.412 485.728C404.349 485.313 403.075 484.635 402.284 483.787C401.458 482.902 401.05 481.743 401.313 480.537C401.636 479.063 402.914 478.169 404.047 477.335Z"/>
	<path fill="#231F20" d="M406.707 532.368C408.108 532.299 409.52 532.203 410.722 533.097C411.706 533.829 412.225 534.725 412.271 535.961C412.334 537.652 411.246 538.865 410.244 540.09C409.105 540.18 407.983 540.143 406.981 539.494C405.893 538.789 405.315 537.787 405.17 536.508C404.985 534.883 405.848 533.645 406.707 532.368Z"/>
	<path fill="#231F20" d="M343.166 363.677C347.603 363.834 361.614 362.905 364.379 364.918C364.97 366.179 364.952 366.408 364.807 367.804C363.833 369.066 363.5 369.01 362.015 369.436C357.258 369.397 343.734 370.874 339.989 368.27C339.331 366.899 339.453 366.76 339.751 365.245C340.925 363.979 341.516 364.045 343.166 363.677Z"/>
	<path fill="#231F20" d="M385.116 480.685C385.369 480.649 385.622 480.551 385.876 480.577C387.17 480.707 387.657 481.389 388.394 482.304C388.6 483.847 388.598 484.027 387.94 485.433C384.686 488.164 371.005 489.085 366.152 489.819L364.996 489.906C363.773 489.554 363.233 488.472 362.534 487.486C362.536 486.667 362.356 486.291 362.925 485.62C365.683 482.368 380.24 481.389 385.116 480.685Z"/>
	<path fill="#231F20" d="M448.264 527.174C449.066 527.03 450.202 526.9 451.003 527.013C452.304 527.196 452.915 528.059 453.696 528.995C453.84 529.753 454.123 530.14 453.663 530.834C451.172 534.587 435.997 535.556 431.186 536.304C430.512 536.412 429.667 536.621 428.991 536.57C427.74 536.476 426.669 535.604 426.138 534.45C425.62 533.323 425.959 532.94 426.464 531.947C431.398 528.228 442.171 528.051 448.264 527.174Z"/>
	<path fill="#231F20" d="M424.441 378.671C425.133 378.554 426.068 378.311 426.759 378.387C428.207 378.545 428.398 379.074 429.211 380.155C429.282 380.836 429.508 381.312 429.084 381.913C426.752 385.21 404.665 387.6 400.117 388.363C399.409 388.453 398.433 388.665 397.736 388.553C396.277 388.318 396.057 387.752 395.254 386.639C395.188 385.924 394.947 385.479 395.437 384.879C398.116 381.599 419.295 379.472 424.441 378.671Z"/>
	<path fill="#231F20" d="M580.057 600.716C580.58 600.661 581.212 600.565 581.733 600.654C583.001 600.872 583.627 601.663 584.267 602.673C584.408 604.08 584.402 604.233 583.755 605.485C580.299 608.281 538.661 611.332 530.861 612.333C530.42 612.311 530.172 612.324 529.721 612.17C528.198 611.652 527.504 610.533 526.679 609.268C526.593 608.483 526.335 608.07 526.86 607.402C527.831 606.167 529.422 605.834 530.893 605.557C534.954 604.793 539.225 604.871 543.337 604.431L580.057 600.716Z"/>
	<path fill="#231F20" d="M487.369 436.14L488.482 436.142C489.815 436.898 489.853 436.901 490.438 438.312C490.343 439.269 490.262 439.919 489.657 440.721C488.786 441.874 487.781 442.289 486.433 442.604C481.24 443.816 475.66 444.273 470.372 445.011L440.907 449.175L348.113 462.983C347.899 462.994 347.685 463.028 347.471 463.016C346.398 462.953 345.624 462.755 345.054 461.756C344.448 460.697 344.751 460.106 345.112 459.075C346.322 457.979 347.749 457.687 349.291 457.339C361.283 454.635 373.983 453.559 386.141 451.686L445.135 442.514C459.2 440.411 473.372 438.645 487.369 436.14Z"/>
	<path fill="#231F20" d="M272.081 368.288C276.368 367.899 283.007 366.818 286.782 369.186C288.288 370.13 289.187 371.333 289.563 373.098C290.059 375.431 289.618 377.83 288.189 379.762C287.054 381.299 285.59 382.316 283.736 382.763C274.557 384.98 258.465 385.496 248.497 386.395C230.682 388 212.884 390.068 195.121 392.179L186.752 393.83C185.611 393.362 184.439 392.898 183.383 392.254C181.888 391.341 180.762 390.238 180.458 388.438C180.013 385.8 180.031 382.476 181.786 380.292C183.282 378.432 185.624 377.745 187.854 377.206C195.546 375.346 204.152 375.093 212.051 374.159C232.055 371.793 251.986 369.698 272.081 368.288Z"/>
	<path fill="#231F20" d="M313.452 454.118C314.751 454.259 316.042 454.525 317.219 455.117C319.333 456.181 320.784 458.085 321.473 460.323C322.153 462.532 321.928 464.965 320.822 466.999C319.773 468.928 318.003 470.355 315.948 471.092C304.767 475.103 285.301 476.068 273.082 477.498C254.691 479.65 236.176 482.361 217.69 483.495C211.722 483.861 204.854 481.594 199.126 483.241C197.571 483.593 196.66 483.521 195.177 482.913C192.926 481.989 191.173 480.588 190.354 478.217C189.906 476.919 189.928 475.386 190.725 474.221C191.741 472.736 193.49 472.271 195.145 471.933C202.843 470.364 211.083 469.919 218.897 468.86L264.371 462.453C280.963 460.2 297.208 458.325 313.452 454.118Z"/>
	<path fill="#231F20" d="M330.303 476.672C333.146 476.246 337.182 476.184 339.65 477.796C341.58 479.057 342.77 481.158 343.14 483.407C343.569 486.01 342.866 488.686 341.186 490.723C339.407 492.878 336.901 493.801 334.246 494.387C328.546 495.646 322.401 495.682 316.584 496.295C307.272 497.277 297.949 498.516 288.687 499.882C262.306 503.773 236.013 509.733 209.444 512.158C206.661 512.532 203.941 512.746 201.366 511.415C199.266 510.33 197.051 508.433 196.427 506.063C196.078 504.738 196.243 503.488 197.039 502.361C198.388 500.45 200.705 499.512 202.84 498.786C212.033 495.657 222.542 494.673 232.083 492.774C247.86 489.634 263.721 486.481 279.603 483.928C296.453 481.219 313.415 479.143 330.303 476.672Z"/>
	<path fill="#231F20" d="M351.515 381.695C353.896 381.414 355.862 381.568 357.828 383.081C359.624 384.464 360.505 386.516 360.708 388.731C360.979 391.674 360.019 394.62 357.984 396.781C356.192 398.685 353.998 399.723 351.484 400.298C344.041 402 336.182 402.718 328.613 403.769C308.652 406.542 288.603 408.503 268.607 410.988L224.087 416.695C215.5 417.813 206.697 419.437 198.036 419.645C196.19 419.619 194.133 419.573 192.415 418.833C190.772 418.125 188.956 416.692 188.408 414.91C187.884 413.208 188.199 411.8 189.176 410.337C190.256 408.718 192.568 407.578 194.386 407.079C206.206 403.833 219.259 402.29 231.399 400.372C249.025 397.588 266.629 394.722 284.29 392.162C296.268 390.426 308.303 388.834 320.243 386.864C330.645 385.148 341.048 382.941 351.515 381.695Z"/>
	<path fill="#FEFEFE" d="M439.514 565.209C439.561 565.202 439.608 565.193 439.655 565.189C444.973 564.733 449.048 564.941 453.368 568.558C458.015 572.447 460.249 578.253 461.988 583.888C465.658 595.781 468.001 607.985 470.998 620.047C478.66 650.879 485.798 681.797 494.006 712.498C501.531 740.644 508.709 768.958 516.697 796.968C523.13 819.53 532.419 842.871 534.591 866.306C533.444 866.846 532.281 867.381 531.18 868.011C528.661 869.452 528.121 871.061 527.326 873.776C498.328 874.963 469.005 872.433 440.007 871.619C384.261 870.055 328.558 866.772 272.867 863.82C259.189 863.095 245.468 863.39 231.814 862.57C222.417 862.005 213.308 860.149 204 858.918C197.314 858.033 190.611 857.676 183.875 857.452C173.751 857.054 158.128 857.438 149.405 852.468C144.77 849.828 142.396 845.748 140.273 841.032C136.946 833.639 134.895 825.494 132.507 817.751L122.42 785.514C114.776 760.902 108.173 736.09 100.925 711.376C94.9547 691.017 88.2606 670.956 83.026 650.375C80.4975 640.434 71.6843 606.344 72.6822 597.778C73.1354 593.888 75.1593 590.688 77.1128 587.399C88.4816 586.258 100.002 586.033 111.415 585.423L172.086 581.969L335.022 571.991C369.843 569.855 404.742 568.03 439.514 565.209Z"/>
	<path fill="#231F20" d="M313.146 660.64C314.91 660.771 316.584 660.881 318.151 661.777C320.213 662.956 321.653 664.985 322.605 667.123C324.782 672.006 327.069 684.662 328.838 690.892C340.333 682.976 360.131 672.412 373.721 669.385C367.025 674.395 358.542 677.747 351.072 681.496C343.644 685.224 336.437 689.305 329.284 693.532C330.421 698.163 331.732 702.621 333.412 707.087C338.849 704.575 344.053 701.5 349.389 698.774C362.157 692.25 375.173 686.321 388.983 682.37C383.019 687.378 371.298 691.38 364.022 694.877C353.899 699.742 343.946 704.937 334.026 710.198L337.88 723.055C353.712 716.177 369.547 710.294 385.873 704.714C388.762 703.78 391.535 702.926 394.543 702.448L393.982 703.579L394.79 702.905L394.547 702.434L394.323 702.429L393.986 703.544C388.495 707.108 381.123 709.153 375.003 711.46C362.741 716.081 350.238 720.444 338.284 725.81C339.987 730.581 343.624 738.333 340.706 743.16C339.299 745.487 336.582 746.833 334.19 747.917C328.748 750.384 322.354 751.726 316.615 753.421C300.402 758.212 284.097 762.632 267.563 766.192C263.827 766.996 259.402 767.558 256.07 765.258C254.105 763.902 252.602 761.834 251.713 759.641C247.276 748.69 244.215 728.946 241.304 716.754C239.169 707.813 235.907 698.796 234.302 689.786C233.825 687.108 233.857 684.457 235.581 682.205C237.078 680.249 239.067 679.084 241.36 678.29C251.547 674.76 263.239 673.808 273.781 671.23C286.168 668.199 301.022 662.318 313.146 660.64Z"/>
	<path fill="#FEFEFE" d="M312.705 715.258C314.378 715.571 315.584 716.068 316.618 717.454C317.987 719.29 318.054 721.936 317.55 724.081C316.703 727.69 315.377 729.513 312.297 731.48C310.797 731.299 309.41 731.053 308.402 729.807C307.344 728.498 307.078 726.754 307.221 725.119C307.58 721.01 309.709 717.9 312.705 715.258Z"/>
	<path fill="#FEFEFE" d="M300.513 680.303C303.255 680.934 304.973 681.76 306.649 684.09C308.921 687.246 310.152 691.355 309.409 695.228C308.927 697.737 307.682 698.851 305.646 700.206C303.961 700.132 302.881 700.077 301.582 698.834C298.62 696.001 296.928 689.643 297.044 685.746C297.121 683.145 298.734 681.966 300.513 680.303Z"/>
</svg>
