<?xml version="1.0" encoding="utf-8" ?>
<svg xmlns="http://www.w3.org/2000/svg" xmlns:xlink="http://www.w3.org/1999/xlink" width="1024" height="1024">
	<path fill="white" d="M0 0L0 1024L1024 1024L1024 0L0 0Z"/>
	<path d="M429.664 53.949C431.255 50.8198 433.188 47.876 435.434 45.1774C449.626 28.1234 474.188 22.0559 495.297 20.2049C504.308 19.0388 514.801 19.7142 523.736 20.8357C550.875 24.2417 577.139 35.9136 594.185 57.9925C617.864 88.6624 622.427 135.387 617.741 172.902C620.203 172.642 622.919 172.621 625.291 173.409C629.606 174.841 632.732 178.091 634.736 182.093C641.137 194.876 638.035 211.035 633.691 223.938C628.572 239.141 621.696 249.577 607.208 256.825C603.073 283.998 589.169 311.168 569.721 330.489C572.551 338.497 574.252 347 577.567 354.796C587.548 359.403 598.778 362.324 609.253 365.642L661.787 382.268C672.709 385.733 686.512 388.588 695.78 395.402C704.929 402.129 711.499 411.459 716.579 421.498C728.475 445.003 735.411 477.075 740.678 503.038C746.324 530.867 750.927 558.745 755.345 586.792L788.273 588.577C794.297 588.915 800.665 588.913 806.605 589.874C810.502 590.505 814.736 591.763 817.064 595.195C818.605 597.465 819.001 599.794 818.706 602.476C818.066 608.298 816.379 614.272 815.104 620.001L806.873 656.389L778.419 786.6C796.505 781.781 815.612 770.909 834.432 770.669C851.97 770.445 869.653 777.824 882.122 790.067C894.786 802.501 901.473 819.057 901.532 836.767C901.591 854.102 894.59 870.921 882.335 883.201C878.797 886.746 874.818 889.955 870.458 892.427C853.798 901.874 836.036 909.989 818.883 918.537L744.232 956.249L682.851 987.303C674.131 991.706 656.646 1002.09 648.012 1003.67C642.765 1004.64 636.867 1004.08 631.53 1004.05L603.87 1003.95L493.5 1003.98L414.478 1003.96C404.948 1003.95 385.02 1005.32 376.53 1003C368.646 1000.84 350.025 990.332 341.579 986.098L262.651 946.523L189.164 909.738C177.415 903.872 161.647 897.103 151.077 890.148C142.593 884.565 135.548 876.631 130.59 867.806C122.226 852.92 119.816 834.523 124.597 818.055C129.376 801.592 140.913 787.34 155.974 779.154C165.939 773.738 177.513 770.743 188.871 771.045C203.79 771.442 221.39 778.144 235.948 782.115C253.495 786.901 271.136 791.255 288.573 796.441C289.583 787.494 289.942 778.337 290.523 769.349C279.487 762.063 243.847 740.566 237.996 731.981C226.722 715.437 231.242 691.994 234.445 673.781C233.407 672.493 232.603 671.04 231.751 669.625C233.156 657.399 235.22 645.186 237.062 633.018C240.827 608.144 244.876 583.334 249.18 558.547C255.535 521.951 261.362 484.326 272.138 448.758C275.988 436.049 280.537 423.199 288.005 412.125C292.311 405.739 297.983 399.261 304.82 395.494C311.408 391.864 319.965 390.044 327.158 387.771L366.584 375.274L408.526 361.835C416.481 359.25 424.757 355.898 432.956 354.301C436.375 345.002 439.611 335.614 442.372 326.098C425.22 304.515 416.814 283.664 409.905 257.239C403.223 254.39 396.633 251.3 391.499 246.015C379.78 233.949 374.004 215.091 374.458 198.531C374.658 191.227 375.789 181.06 381.51 175.875C385.34 172.404 389.241 172.265 394.097 172.395C389.669 147.739 385.997 121.126 388.628 96.0778C389.968 83.3225 393.086 68.3908 403.712 59.979C411.388 53.9018 420.214 52.8098 429.664 53.949ZM457.13 89.6065C450.003 91.0692 442.735 93.7659 438.6 100.184C431.118 111.796 438.598 125.501 432.782 133.417C429.702 137.609 424.79 140.664 420.924 144.103C418.027 153.28 416.008 163.893 414.917 173.467C416.876 174.308 418.807 175.15 420.84 175.803C425.108 173.281 429.261 170.893 433.999 169.342C447.501 164.92 469.432 164.812 483.094 168.351C489.588 170.033 495.023 172.944 500.518 176.71C506.478 176.481 512.42 176.49 518.382 176.524C532.994 165.919 551.493 164.837 568.943 167.238C569.003 167.246 569.062 167.263 569.121 167.276C575.739 168.012 584.372 168.77 590.345 171.964C592.992 173.38 595.159 175.522 597.842 176.903C598.787 175.769 599.246 175.264 599.439 173.744C598.187 169.538 596.092 165.556 594.434 161.494C591.267 153.736 588.224 145.476 585.984 137.413C576.459 134.662 570.056 129.856 561.949 124.364C565.473 129.262 569.423 132.218 573.672 136.304L573.346 136.979C570.072 137.949 566.15 137.501 562.784 137.192C549.724 135.992 538.154 132.493 526.618 126.232C519.132 122.168 512.326 117.296 505.825 111.811C489.896 98.3681 479.654 87.4145 457.13 89.6065ZM459.6 174.712C453.293 175.05 434.999 175.444 431.093 180.084C428.28 183.425 429.983 191.967 430.838 195.958C431.891 200.875 434.418 206.47 438.666 209.429C445.083 213.898 456.901 213.496 464.375 213.185C471.973 212.901 481.702 213.337 487.306 207.303C490.708 203.639 495.275 189.547 494.597 184.478C494.337 182.529 493.431 181.302 491.861 180.203C483.754 174.533 469.013 174.599 459.6 174.712ZM550.724 175.219C543.496 175.513 530.285 176.104 524.8 181.646C523.587 182.871 523.085 184.321 523.154 186.019C523.429 192.822 525.999 204.049 531.259 208.63C537.569 214.127 551.411 213.197 559.444 213.068C566.623 212.787 574.925 213.05 580.124 207.177C585.81 200.756 586.739 187.567 586.603 179.348C574.704 176.641 562.971 174.812 550.724 175.219ZM392.77 181.429C391.229 182.218 389.67 182.984 388.156 183.823C382.461 193.886 384.557 206.376 387.503 217.012C390.388 227.431 394.439 236.571 402.895 243.569C404.691 244.752 406.469 245.994 408.355 247.031C407.368 238.596 405.62 230.281 404.494 221.868C403.205 212.241 402.701 202.434 402.321 192.733C400.242 190.363 396.995 181.822 394.03 181.423C393.671 181.375 393.143 181.412 392.77 181.429ZM617.565 182.388C615.402 185.418 613.172 188.418 611.09 191.502C610.044 209.782 610.307 228.743 607.378 246.832C609.976 245.169 612.221 243.575 614.427 241.395C624.326 228.108 630.645 209.698 628.161 193.014C627.662 189.663 626.435 186.117 623.614 184.011C621.827 182.677 619.716 182.507 617.565 182.388ZM414.155 185.155C411.765 203.438 414.721 231.625 420.846 248.685C423.766 256.818 428.254 264.835 433.512 271.685C438.739 278.495 445 284.717 452.343 289.219C453.227 276.162 457.462 265.945 467.46 257.213C473.189 252.21 480.341 248.157 487.619 245.929C495.562 251.37 503.902 254.97 513.73 253.112C520.002 251.926 524.949 248.876 530.161 245.341C542.87 249.737 554.573 258.321 560.48 270.68C563.503 277.005 564.247 283.421 564.418 290.35C574.123 283.336 582.939 273.694 587.87 262.669C597.037 243.109 599.739 222.206 600.465 200.857C600.586 197.278 601.31 192.352 600.244 188.965C599.854 187.728 599.485 187.333 598.391 186.692C597.044 186.695 596.311 186.523 595.098 187.19C592.176 195.205 592.805 204.221 587.407 211.37C587.243 211.588 587.083 211.81 586.917 212.027C582.536 217.742 575.97 219.514 569.163 220.294C557.249 221.66 535.093 222.215 525.426 214.566C517.376 208.199 518.114 193.883 513.5 190.828C512.222 189.982 508.897 189.995 507.439 190.096C505.479 190.233 503.623 190.912 502.409 192.522C500.821 194.626 500.387 197.594 499.736 200.11C496.831 211.336 491.324 217.61 479.624 219.679C468.133 221.71 442.942 222.194 433.35 215.704C419.714 206.48 425.543 189.08 414.155 185.155ZM486.089 277.703C490.846 283.758 496.375 288.328 504.345 289.336C512.207 290.33 518.694 287.737 525.106 283.569C527.551 281.775 529.523 279.973 531.535 277.693C516.511 277.259 501.094 276.906 486.089 277.703ZM534.904 277.891C533.943 284.175 532.083 289.514 526.821 293.554C520.145 298.681 510.503 299.788 502.362 298.5C496.355 297.55 488.521 294.75 484.965 289.6C483.497 287.473 481.279 279.31 481.035 279.091C480.819 278.897 479.627 278.592 479.281 278.541C477.851 278.331 476.536 278.754 475.385 279.6C472.783 281.512 471.796 286.09 471.593 289.086C471.034 297.353 474.477 303.665 479.949 309.548C480.278 309.902 480.621 310.242 480.97 310.576C484.382 313.464 487.746 316.044 491.807 317.965C497.375 313.575 502.37 308.54 507.87 304.082C513.726 308.553 519.542 313.09 525.445 317.497C534.112 312.607 541.437 306.696 544.169 296.676C545.322 292.444 546.11 286.869 543.759 282.944C542.257 280.434 540.012 278.924 537.186 278.321C536.429 278.16 535.666 278.025 534.904 277.891ZM449.733 333.405C447.168 343.704 445.613 354.572 437.008 361.671C441.606 385.738 453.398 415.844 474.328 430.184C486.123 438.265 500.807 441.087 514.795 438.379C530.961 435.249 543.041 425.398 551.951 411.842C552.029 411.723 552.103 411.602 552.179 411.482C561.989 395.517 567.728 378.468 571.557 360.233C565.524 354.869 565.198 344.652 562.746 337.303C547.467 351.491 526.952 359.197 506.032 358.493C484.065 357.754 465.305 348.567 449.733 333.405ZM408.612 577.076C406.427 578.051 403.628 579.033 402.642 581.427C399.456 589.17 398.448 599.116 396.728 607.392L386.115 658.157C374.012 716.806 361.78 775.473 351.027 834.385C349.385 843.379 347.284 852.296 345.739 861.306C345.409 863.233 344.935 866.185 345.635 868.065C346.173 869.509 347.259 870.261 348.691 870.721C353.934 872.405 361.288 871.442 366.866 871.725L443.53 874.879L655.876 884.769C683.446 885.944 711.166 887.989 738.743 888.415C740.677 888.445 742.303 887.554 743.949 886.631C745.641 885.033 746.611 883.888 747.282 881.63C748.88 876.256 749.872 870.539 751.089 865.057L758.245 832.697L780.752 731.035L799.974 643.02L806.004 615.75C807.122 610.737 808.624 605.527 809.275 600.44C798.367 599.107 787.197 598.84 776.226 598.145L714.135 594.42L549.539 584.925L446.137 579.174C437.937 578.769 429.744 578.252 421.551 577.71C417.332 577.431 412.828 576.788 408.612 577.076ZM243.426 677.232C240.66 694.379 238.705 708.737 244.99 725.398C245.795 727.533 247.026 728.618 248.785 729.951C257.945 736.894 268.089 742.695 277.653 749.082C291.17 758.109 304.397 767.499 317.662 776.888C327.692 783.989 337.875 790.938 347.457 798.64C347.937 796.403 348.44 794.169 348.88 791.924C351.961 775.817 354.756 759.608 358.079 743.554C340.047 729.077 321.66 714.628 303.049 700.911C303.43 696.479 303.977 691.999 304.116 687.555C291.102 686.284 278.296 685.26 265.434 682.708C257.992 681.232 250.809 678.839 243.426 677.232ZM307.39 803.765C317.135 820.245 327.022 836.983 337.588 852.937L338.919 845.158L345.832 809.184C332.959 807.583 320.215 805.668 307.39 803.765ZM417.464 883.621C448.83 900.398 481.934 913.981 513.26 930.852C529.991 922.146 546.677 913.108 563.724 905.031C572.643 900.928 581.206 895.932 590.247 892.155C566.376 889.669 542.041 889.545 518.067 888.38C484.565 886.752 450.992 884.462 417.464 883.621Z"/>
	<path d="M466.658 202.719C464.51 202.996 462.332 203.102 460.236 202.444C457.772 201.672 455.579 199.983 454.418 197.646C453.285 195.364 453.183 192.684 453.991 190.286C455.224 186.624 457.762 184.79 461.071 183.088C463.222 182.801 465.212 182.792 467.278 183.537C469.802 184.447 471.862 186.347 472.976 188.788C474.087 191.223 474.159 194.113 473.166 196.6C471.896 199.781 469.686 201.362 466.658 202.719Z"/>
	<path d="M554.314 203.178C552.413 203.195 550.626 203.122 548.848 202.365C546.136 201.211 543.986 199.061 542.994 196.265C542.093 193.724 542.25 190.931 543.483 188.533C545.17 185.252 547.895 184.016 551.285 183.044C552.675 183.101 554.145 183.23 555.472 183.664C558.387 184.616 560.99 186.622 562.252 189.462C563.334 191.897 563.299 194.605 562.2 197.026C560.574 200.607 557.845 201.911 554.314 203.178Z"/>
	<path d="M576.622 780.349C568.635 781.097 560.169 779.161 553.699 774.322C546.605 769.018 542.152 760.816 540.891 752.109C539.336 741.368 542.774 730.113 549.261 721.515C555.707 712.971 565.249 707.593 575.804 706.155C583.222 705.313 591.242 707.093 597.397 711.344C604.723 716.403 609.359 724.421 610.816 733.133C612.623 743.936 609.337 755.529 602.988 764.35C596.406 773.495 587.621 778.514 576.622 780.349Z"/>
</svg>
