<?xml version="1.0" encoding="utf-8" ?>
<svg xmlns="http://www.w3.org/2000/svg" xmlns:xlink="http://www.w3.org/1999/xlink" width="1024" height="1024">
	<path fill="white" d="M0 0L1024 0L1024 1024L0 1024L0 0Z"/>
	<path d="M520.796 34.2134C551.626 32.397 590.721 42.0045 617.42 57.5067C641.92 71.7324 657.634 95.8256 664.713 122.894C671.394 148.441 670.8 177.047 665.047 202.727C664.024 207.295 663.109 212.565 661.101 216.786C660.224 218.629 658.49 219.806 657.452 221.581C657.882 226.048 663.128 226.168 665.521 229.353C665.613 229.969 665.81 230.414 665.523 231.004C664.555 232.993 662.596 234.163 660.612 234.92C661.794 249.438 655.154 251.568 653.249 262.62C652.36 267.779 652.183 273.263 651.692 278.498C649.701 299.745 649.025 322.86 641.871 343.08C633.319 367.254 616.691 382.43 594.015 393.302C595.692 398.588 596.693 403.857 597.537 409.327C628.685 416.261 659.191 426.017 689.259 436.634C703.671 441.723 718.099 446.784 732.224 452.635C741.44 456.452 751.74 459.899 759.607 466.212C771.117 475.446 785.113 495.172 790.938 508.756C797.352 523.713 800.151 540.802 803.489 556.697C810.272 589.003 816.593 622.102 820.171 654.928L842.234 654.805C855.345 654.747 867.481 653.975 877.813 663.498C883.902 669.109 888.181 677.964 888.321 686.297C888.452 694.154 885.501 703.012 883.873 710.717C879.065 733.475 873.543 756.076 868.573 778.799L839.585 910.227L832.692 941.516C831.451 947.239 830.461 953.162 828.776 958.769C826.668 965.786 823.375 971.893 818.171 977.106C812.333 982.954 804.489 986.866 796.312 988.082C787.37 989.412 777.415 988.7 768.343 988.724L717.596 988.786L536.75 988.755L423.67 988.717L394.918 988.687C388.949 988.68 382.534 989.048 376.636 988.143C366.296 986.557 355.571 982.133 345.627 978.928C332.761 974.782 319.756 971.024 306.805 967.15C299.746 965.038 276.126 959.174 271.658 955.089C267.478 951.267 266.704 945.952 266.572 940.592L265.043 940.265C239.827 934.842 192.556 923.746 171.969 910.186C162.883 904.201 155.293 896.105 149.444 886.957C142.421 875.973 138.257 863.263 136.612 850.368C135.045 838.085 136.097 825.567 137.163 813.282C139.233 789.445 142.801 766.191 148.005 742.843C147.316 741.733 146.661 740.602 145.997 739.477C147.409 721.694 147.973 703.862 149.534 686.077C154.396 630.682 166.92 541.561 196.199 494.465C206.093 478.549 218.624 464.688 234.632 454.747C250.048 445.174 267.886 440.413 284.987 434.713C305.984 427.714 327.137 420.868 348.449 414.888C373.577 407.837 398.954 401.818 424.347 395.815C427.779 377.976 431.548 360.11 434.582 342.208C432.616 337.071 429.99 332.208 427.959 327.094C423.015 314.646 420.324 301.994 418.359 288.78C408.33 283.896 401.056 278.021 395.291 268.32C388.185 256.362 384.455 240.85 388.111 227.157C390.163 219.473 394.781 212.513 401.728 208.471C397.24 169.28 395.828 124.288 420.607 91.0934C431.499 76.5026 445.227 67.9921 463.226 65.3218C464.999 60.786 467.253 56.7418 470.465 53.0622C482.387 39.4058 503.617 35.3501 520.796 34.2134Z"/>
	<path fill="white" d="M554.316 318.198C570.129 319.633 585.833 320.706 601.692 321.435C600.498 324.715 599.241 327.401 596.825 329.965C592.117 333.108 587.407 334.275 581.791 334.186C573.911 334.06 563.341 331.431 557.824 325.405C556.187 323.616 554.22 320.685 554.316 318.198Z"/>
	<path fill="white" d="M545.718 315.319C547.131 316.708 548.116 321.871 548.995 323.999C551.779 330.739 558.768 335.695 565.337 338.417C574.124 342.059 585.546 343.136 594.474 339.408C603.59 335.602 604.911 330.719 608.448 322.271L608.971 322.107C611.315 330.062 609.072 339.011 605.627 346.247C605.318 346.745 605.005 347.24 604.684 347.73C598.864 356.627 590.559 362.322 580.094 364.389C570.592 366.265 560.139 365.397 552.006 359.762C545.539 355.281 541.407 348.305 539.965 340.636C538.22 331.361 540.484 323.022 545.718 315.319Z"/>
	<path fill="white" d="M282.489 933.058C291.795 932.677 301.188 932.93 310.503 932.944L360.506 933.238C358.539 941.531 354.029 954.784 355.758 962.97C356.598 966.949 359.132 970.636 359.693 974.6L358.392 974.508C349.181 971.918 340.111 968.633 330.948 965.844C315.508 961.145 299.944 956.82 284.556 951.953C280.841 950.778 276.631 949.594 274.839 945.754C273.883 943.707 274.048 941.493 274.954 939.468C276.469 936.086 279.156 934.373 282.489 933.058Z"/>
	<path fill="white" d="M459.607 225.725C464.474 226.969 469.413 229.238 474.145 230.991C482.726 234.17 491.449 237.164 499.847 240.798C500.748 247.945 502.406 253.56 507.613 258.893C514.583 266.033 525.685 269.363 535.456 269.396C545.207 269.428 555.883 265.789 562.815 258.769C570.067 251.426 571.74 242.954 571.693 232.931C573.876 232.18 576.163 231.732 578.459 231.491C580.935 231.231 583.338 231.305 585.32 232.997C586.446 233.958 587.187 235.346 587.736 236.698C589.108 240.077 589.711 243.825 590.845 247.3C593.317 254.878 598.134 263.868 598.293 271.822C598.331 273.73 598.065 276.225 596.454 277.498C591.107 281.723 583.047 273.813 577.717 273.78C576.357 273.772 575.91 274.094 574.972 275.014C574.705 275.982 574.453 276.718 574.751 277.727C575.367 279.811 577.668 281.165 579.418 282.198C584.066 284.939 589.967 286.717 595.297 285.22C599.077 284.158 602.193 281.566 604.02 278.102C607.02 272.416 605.678 266.732 603.876 260.967C606.942 263.298 610.174 265.335 613.742 266.807C622.901 270.587 632.625 270.264 641.79 266.936C642.967 266.509 643.759 266.213 644.937 266.721L644.894 268.618C643.564 281.437 643.926 299.979 638.521 311.383C635.902 316.909 632.227 321.812 628.688 326.768C627.591 321.467 626.55 315.639 623.745 310.933C621 306.329 615.741 302.904 610.574 301.666C602.859 299.819 557.749 299.088 549.542 300.305C545.513 300.902 541.665 302.4 538.201 304.525C525.355 312.404 521.711 325.877 518.431 339.683C506.05 333.721 493.336 323.341 483.556 313.72C458.907 289.473 459.823 257.912 459.607 225.725Z"/>
	<path fill="white" d="M412.518 212.56C417.396 212.183 422.592 212.121 427.178 214.062C433.559 216.764 435.286 222.32 437.61 228.237C441.684 228.885 445.682 228.927 449.8 228.944C448.775 235.73 447.257 242.428 446.351 249.242C443.909 267.604 444.089 287.501 448.081 305.638C454.878 336.516 475.148 366.2 501.973 383.066C529.439 400.335 556.141 402.876 587.242 395.881C588.784 403.079 589.681 411.834 593.214 418.28C592.546 419.887 591.867 421.492 591.139 423.073C582.281 442.316 564.072 456.016 544.607 463.077C521.814 471.039 493.666 467.442 472.07 457.378C453.786 448.858 436.841 433.383 429.92 414.066C428.811 410.971 426.685 405.09 428.099 402.053C429.261 401.022 431.088 399.671 431.613 398.168C433.288 393.377 433.805 387.252 434.765 382.233C437.264 369.17 439.466 356.002 443.007 343.17C441.555 336.642 437.903 330.473 435.326 324.321C430.825 313.574 427.734 301.627 426.29 290.069L426.696 290.072C430.706 290.089 440.212 290.492 442.828 286.942C443.523 285.998 443.666 284.753 443.288 283.648C442.799 282.222 441.538 281.548 440.127 281.356C438.691 281.16 436.705 281.891 435.294 282.201C429.262 283.527 423.096 282.813 417.566 280.041C407.158 274.824 400.086 263.67 396.659 252.859C393.712 243.563 392.968 232.111 397.801 223.294C401.186 217.119 406.016 214.436 412.518 212.56Z"/>
	<path fill="white" d="M514.48 140.211C528.007 139.558 540.256 144.251 552.831 148.467C581.071 157.934 609.657 155.282 636.688 143.509C646.121 162.149 653.182 196.812 651.614 217.248C642.697 210.542 633.017 203.841 621.272 204.92C615.98 205.407 606.53 208.45 603.238 212.828C602.166 214.254 602.283 215.356 602.574 216.976C603.618 218.3 604.075 218.766 605.898 218.657C608.707 218.488 611.844 216.663 614.645 216.014C622.479 214.201 633.681 214.913 640.893 218.63C647.171 221.866 650.771 227.349 652.671 234.001C654.331 239.808 653.246 245.726 650.269 250.921C646.64 257.256 640.785 260.191 633.982 261.925C632.999 262.093 632.014 262.25 631.021 262.356C623.324 263.179 614.982 260.671 609.075 255.671C604.484 251.786 600.185 244.623 599.972 238.39C599.855 234.996 600.679 231.675 600.359 228.258C599.386 227.094 599.243 226.852 597.821 226.385C595.743 226.868 594.825 228.176 593.205 229.401C590.005 226.94 587.128 224.726 583.005 224.189C576.14 223.295 569.63 225.657 564.168 229.673C564.517 235.896 564.762 241.434 561.979 247.241C558.921 253.623 553.403 258.029 546.736 260.198C538.051 263.024 527.964 262.32 519.824 258.154C513.574 254.955 509.619 251.316 508.07 244.218C507.612 242.118 507.379 239.763 506.632 237.756C506.279 236.806 505.661 236.042 504.814 235.49C497.58 230.772 488.392 228.312 480.303 225.343C473.582 222.877 466.933 220.209 460.284 217.557C460.029 214.825 460.018 212.064 459.936 209.322C465.114 202.257 471.774 197.076 476 189.113C482.519 176.829 483.868 158.392 493.066 148.229C498.834 141.856 506.4 140.666 514.48 140.211Z"/>
	<path d="M532.152 231.476C532.954 231.46 533.658 231.509 534.452 231.665C536.227 232.012 538.118 233.26 539.051 234.819C539.927 236.283 540.047 238.082 539.587 239.707C538.889 242.176 537.057 243.309 534.961 244.539C534.081 244.559 533.18 244.586 532.311 244.413C530.517 244.057 528.781 242.857 527.88 241.254C527.062 239.798 526.973 238.113 527.417 236.523C528.17 233.821 529.815 232.8 532.152 231.476Z"/>
	<path d="M615.555 231.052C616.574 231.01 617.488 230.993 618.503 231.147C620.06 231.382 621.696 232.433 622.564 233.743C623.45 235.083 623.654 236.764 623.271 238.306C622.583 241.079 620.876 242.491 618.515 243.892C617.9 243.883 617.919 243.898 617.214 243.803C615.087 243.515 612.356 242.169 611.251 240.255C610.446 238.861 610.175 237.34 610.616 235.78C611.337 233.234 613.361 232.197 615.555 231.052Z"/>
	<path d="M530.063 203.173C536.897 202.757 542.987 203.569 549.345 206.167C552.618 207.505 556.221 209.093 557.669 212.516C557.588 214.012 557.572 214.231 556.724 215.452C556.2 215.699 555.721 216.077 555.153 216.192C553.254 216.577 540.755 213.863 537.64 213.59C533.787 213.504 529.893 213.571 526.061 213.987C521.705 214.459 514.485 217.357 510.405 216.163C509.332 215.849 509.337 215.837 508.814 214.805C509.016 213.916 509.358 213.329 509.926 212.632C514.486 207.03 523.126 204.025 530.063 203.173Z"/>
	<path fill="white" d="M155.266 747.497C160.923 749.738 166.277 752.671 172.022 754.793C193.721 762.806 233.866 773.336 256.685 772.281C264.826 771.905 272.511 769.924 280.2 767.34C278.479 781.437 277.395 795.225 277.254 809.428C266.843 805.958 256.5 802.367 246.009 799.141C245.171 798.884 244.179 798.471 243.297 798.403C241.969 798.3 240.471 798.903 239.55 799.9C238.669 800.854 238.654 801.214 238.619 802.425C241.259 807.695 262.093 812.805 268.315 814.943C283.596 820.193 298.882 825.851 313.43 832.914C334.148 842.974 353.641 855.145 373.832 866.161C372.963 872.578 371.448 878.911 370.094 885.24C367.401 898.475 364.428 911.69 362.109 924.995L311.939 924.97C303.25 924.965 294.483 924.696 285.804 925.004C278.31 925.27 274.669 927.551 269.713 932.951C265.609 932.37 261.55 931.521 257.504 930.629C235.846 925.853 193.431 915.029 175.7 903.05C167.691 897.639 160.983 890.268 155.828 882.121C149.378 871.928 145.543 859.695 144.201 847.743C142.966 836.737 144.247 825.273 145.252 814.286C147.298 791.905 150.233 769.42 155.266 747.497Z"/>
	<path fill="white" d="M443.555 662.082C449.255 661.602 455.116 661.933 460.837 661.953L490.432 662.039L583.379 662.083L757.452 662.192C788.781 662.208 820.202 661.664 851.518 662.249C855.774 662.328 860.123 662.463 864.118 664.08C870.466 666.65 876.028 671.819 878.633 678.192C880.298 682.266 880.905 686.327 880.277 690.685C879.203 698.129 876.676 705.583 875.125 712.991C869.547 739.638 863.239 766.116 857.443 792.716L829.144 920.511C826.342 932.6 824.229 950.472 819.292 961.444C815.496 969.88 808.711 975.538 800.2 978.829C799.956 978.914 799.712 979.004 799.466 979.086C790.014 982.208 737.975 980.64 724.423 980.632L586.977 980.589L454.945 980.583C432.61 980.585 410.027 981.373 387.724 980.501C383.221 980.325 378.911 979.685 374.883 977.514C369.878 974.816 366.34 970.869 364.708 965.352C363.623 961.682 363.622 957.995 364.248 954.251C365.739 945.328 368.192 936.496 369.938 927.604C377.087 891.194 384.984 854.925 392.799 818.652L414.445 718.946C417.016 707.157 418.89 695.148 421.762 683.44C422.532 680.303 423.405 677.046 425.074 674.256C429.14 667.462 436.112 663.877 443.555 662.082Z"/>
	<path d="M619.262 794.617C625.96 794.31 631.781 795.208 637.442 799.064C643.659 803.3 647.839 809.872 649.118 817.27C650.475 825.117 648.431 833.345 643.81 839.798C638.528 847.172 631.162 850.805 622.403 852.317C615.934 852.768 609.398 851.422 603.953 847.788C597.99 843.809 593.966 837.606 592.656 830.577C591.154 822.515 593.448 813.963 598.166 807.339C603.244 800.208 610.713 795.988 619.262 794.617Z"/>
</svg>
