<?xml version="1.0" encoding="utf-8" ?>
<svg xmlns="http://www.w3.org/2000/svg" xmlns:xlink="http://www.w3.org/1999/xlink" width="1024" height="1024">
	<path fill="#FEFEFE" d="M0 0L1024 0L1024 1024L0 1024L0 0Z"/>
	<path fill="#231F20" d="M140.768 402.571C142.182 402.358 143.508 402.211 144.65 403.199C145.656 404.069 145.884 404.991 145.986 406.239C145.657 406.851 145.341 407.37 144.769 407.792C140.182 411.177 124.423 413.048 118.807 412.041C117.744 411.536 116.464 411.02 115.672 410.123C114.588 408.896 113.924 407.103 114.098 405.491C114.967 404.374 115.784 403.617 117.336 403.593C119.426 403.561 121.437 405.199 123.501 405.563C128.431 406.432 135.891 403.764 140.768 402.571Z"/>
	<path fill="#231F20" d="M382.048 446.1L384.25 445.9C385.468 446.437 386.02 447.065 386.9 448.026C387.096 449.158 387.291 449.61 386.437 450.56C382.935 454.458 365.339 457.585 359.628 458.573C358.531 458.662 357.62 458.574 356.534 458.398C355.831 457.869 355.248 457.442 354.876 456.606C354.334 455.389 354.46 454.065 355.109 452.928C355.558 452.141 356.34 451.895 357.188 451.69C365.431 449.697 373.654 448.283 382.048 446.1Z"/>
	<path fill="#231F20" d="M354.132 373.946C354.689 374.013 355.415 374.07 355.938 374.268C357.177 374.739 357.591 375.908 358.053 377.016C357.942 378.123 357.974 378.584 357.212 379.46C353.178 384.102 331.664 387.827 325.444 388.128C325.172 388.075 324.895 388.041 324.627 387.968C323.288 387.606 322.393 386.982 321.741 385.736C321.138 384.582 321.471 383.625 321.894 382.516C323.874 380.768 325.739 380.871 328.231 380.689C337.416 380.017 345.545 377.083 354.132 373.946Z"/>
	<path fill="#231F20" d="M279.15 381.661C280.296 381.652 281.293 381.619 282.394 382.008C283.234 382.304 283.626 383.087 283.873 383.932C284.148 384.871 283.865 385.845 283.218 386.554C282.12 387.76 280.028 388.316 278.507 388.661C268.417 390.951 257.518 391.772 247.259 393.323C235.01 395.173 222.884 397.684 210.616 399.443C209.937 399.459 208.846 399.472 208.207 399.179C207.083 398.664 206.32 397.903 206.026 396.667C205.878 396.047 205.983 395.222 206.337 394.69C207.206 393.384 208.795 392.801 210.257 392.427C214.867 391.248 219.903 391.325 224.607 390.513C242.693 387.391 260.93 383.939 279.15 381.661Z"/>
	<path fill="#231F20" d="M252.564 508.168C253.929 507.941 255.396 507.65 256.771 507.992C257.843 508.259 259.027 509.085 259.511 510.103C260.108 511.359 259.739 512.028 259.319 513.228C258.217 514.34 257.253 515.047 255.659 515.318C248.156 516.593 240.235 517.041 232.653 517.95L169.61 525.012C141.579 528.138 113.709 532.72 85.6526 535.459C84.1582 535.521 82.0994 535.793 80.6835 535.464C79.6244 535.218 78.8497 534.509 78.4077 533.521C77.8873 532.358 78.1037 531.41 78.5362 530.289C79.5607 529.406 79.9247 529.11 81.301 528.876C84.9771 528.248 89.0229 528.446 92.7646 528.12C98.9631 527.579 105.148 526.681 111.316 525.865C125.403 524.003 139.443 521.876 153.555 520.199C186.597 516.272 219.631 513.022 252.564 508.168Z"/>
	<path fill="#231F20" d="M312.86 447.211C314.191 447.032 315.266 447.058 316.59 447.181C317.712 447.859 318.721 448.602 319.192 449.89C319.582 450.957 319.322 451.451 318.824 452.332C316.761 453.742 314.001 453.855 311.574 454.097C271.972 458.035 232.196 459.81 192.588 463.561C156.414 466.987 120.236 472.658 83.8768 473.742C82.6525 473.879 81.0665 474.165 79.8475 474.005C78.7677 473.863 77.3975 472.97 76.8856 471.959C76.2343 470.671 76.3719 470.213 76.6789 468.894C77.5989 467.805 78.3938 467.236 79.8238 467.086C83.8868 466.659 88.3312 467.184 92.4561 467.087C100.112 466.907 107.799 466.217 115.422 465.523L312.86 447.211Z"/>
	<path fill="#231F20" d="M421.136 302.277C427.238 301.849 446.061 301.104 451.488 301.834C453.161 302.059 455.256 302.793 456.088 304.393C456.692 305.555 456.398 306.063 455.954 307.151C454.992 307.889 454.281 308.174 453.063 308.267C443.617 308.993 433.773 308.314 424.27 308.487C407.658 308.79 391.02 309.736 374.422 310.493L263.566 316.607C219.923 319.226 176.188 322.051 132.881 328.279C125.183 328.953 112.253 332.657 105.203 331.584C103.578 331.337 102.527 330.871 101.488 329.543C101.401 328.881 101.078 328.173 101.541 327.617C104.036 324.62 128.304 322.538 133.304 321.931C183.642 315.823 232.448 312.219 283.002 309.109C329.007 306.278 375.074 303.951 421.136 302.277Z"/>
	<path fill="#231F20" d="M703.307 151.721C723.495 151.369 743.507 154.699 759.883 167.218C771.856 176.371 780.428 189.432 782.293 204.563C785.633 231.646 769.481 254.532 750.517 272.065C743.046 278.972 734.694 285.074 728.453 293.172C747.688 298.926 795.939 310.977 807.539 328.731C808.298 329.891 808.895 331.467 808.417 332.848C807.855 334.473 806.064 335.553 804.607 336.257C792.955 341.886 752.527 322.606 739.14 318.011C742.074 333.031 742.094 347.906 738.619 362.842C742.685 364.119 746.318 365.722 749.619 368.495C755.005 373.02 757.896 379.326 758.313 386.297C758.835 395.013 755.957 404.138 750.135 410.69C742.383 419.414 732.767 420.995 721.705 421.727C721.376 428.592 721.516 435.514 721.278 442.392C720.738 458 719.926 473.591 719.039 489.182C722.943 489.278 726.847 489.41 730.747 489.625C772.297 491.916 829.769 498.643 867.082 517.46C880.129 524.039 891.974 532.813 901.69 543.755C930.223 575.888 934.226 628.783 928.934 669.926C928.311 674.773 927.598 679.723 926.408 684.465C925.222 689.192 923.197 694.044 922.897 698.919L924.388 700.565C924.548 701.834 924.524 701.959 923.961 703.108C921.747 703.948 918.109 702.482 915.579 702.605C900.142 703.353 884.615 704.266 869.167 704.537C867.998 717.438 865.223 730.977 862.19 743.586C858.262 759.916 848.625 795.178 834.17 803.878C807.913 819.681 743.068 816.999 711.535 817.044C692.587 817.071 673.536 817.45 654.6 816.866C645.828 816.596 637.014 814.682 628.26 814.807C620.592 814.916 612.326 822.136 604.855 820.043C600.464 818.813 598.737 814.422 596.81 810.712C576.462 811.619 555.714 810.953 535.376 809.945C532.721 809.732 530.632 809.538 528.621 807.638C524.462 803.708 524.768 796.098 524.477 790.834C509.459 790.658 494.652 792.582 479.619 792.777L282.791 796.101L231.351 796.932C222.868 797.081 213.522 797.984 205.109 797.008C202.343 796.687 199.496 795.326 197.341 793.592C194.987 791.697 194.003 789.424 193.219 786.566C192.004 782.139 191.338 777.48 190.404 772.981L184.855 747.219L166.054 662.145L153.867 607.365C152.033 599.143 148.891 589.363 148.391 581.068C148.201 577.913 149.707 574.63 151.909 572.41C153.486 570.82 155.675 569.89 157.882 569.655C169.116 568.46 180.825 568.72 192.145 568.206L269.987 564.693L384.39 559.48C402.211 558.749 420.136 557.496 437.966 557.439C440.952 552.628 449.563 541.168 453.569 537.825C468.07 525.722 512.633 507.965 531.256 502.697C507.693 456.973 494.156 393.247 498.411 341.716C499.129 333.022 500.281 324.299 501.737 315.698C503.097 307.66 505.521 299.675 505.101 291.486C504.123 272.406 519.228 251.948 531.48 238.449C574.881 190.632 637.967 154.865 703.307 151.721Z"/>
	<path fill="#FEFEFE" d="M323.323 653.405C323.971 653.392 324.848 653.316 325.501 653.447C326.821 653.711 327.397 654.174 328.178 655.221C328.26 655.691 328.451 656.153 328.424 656.629C328.391 657.211 306.094 691.38 303.339 695.733C302.217 696.056 301.247 695.915 300.098 695.827C298.914 695.068 298.906 695.112 298.503 693.771C299.585 686.883 318.088 659.361 323.323 653.405Z"/>
	<path fill="#FEFEFE" d="M351.364 663.289C352.194 663.545 353.317 663.784 354.052 664.231C355.292 664.985 355.256 665.528 355.524 666.836C355.206 668.071 323.022 712.73 320.136 715.74C318.492 714.96 317.063 714.385 315.878 712.968C316.466 707.12 345.227 669.494 351.364 663.289Z"/>
	<path fill="#FEFEFE" d="M517.518 738.038C525.525 737.843 533.561 738.939 541.258 741.128L544.508 744.954C536.067 746.729 529.041 749.262 521.484 753.452C515.715 757.114 511.081 761.299 506.474 766.332C507.891 759.885 509.281 753.252 511.25 746.951C512.553 742.782 513.57 740.119 517.518 738.038Z"/>
	<path fill="#FEFEFE" d="M593.313 757.18C597.267 756.477 602.857 756.236 606.3 758.574C610.276 761.275 610.796 766.1 611.548 770.435C600.065 770.607 588.537 770.357 577.05 770.341C570.154 770.44 563.248 770.351 556.352 770.336C567.768 763.318 580.072 759.039 593.313 757.18Z"/>
	<path fill="#FEFEFE" d="M553.796 750.195C554.951 750.051 556.103 750.293 557.15 750.8C559.961 752.163 561.081 756.013 562.09 758.722C556.173 761.869 549.725 765.007 544.957 769.811L520.875 770.115L513.049 770.37C513.27 770.058 513.492 769.747 513.724 769.443C522.813 757.515 539.555 752.097 553.796 750.195Z"/>
	<path fill="#FEFEFE" d="M732.899 300.728C752.783 305.74 788.007 316.054 801.751 331.551C786.021 331.836 768.743 322.455 754.28 316.888C748.429 314.636 742.516 312.809 736.472 311.156C735.095 307.714 733.939 304.286 732.899 300.728Z"/>
	<path fill="#FEFEFE" d="M547.372 790.745L594.653 790.652C594.577 795.309 594.819 799.891 595.349 804.516L580.721 804.463C573.768 804.477 536.663 804.685 533.266 802.299C530.556 800.395 530.934 793.773 530.823 790.906C536.333 790.766 541.859 790.793 547.372 790.745Z"/>
	<path fill="#FEFEFE" d="M495.282 533.045L496.141 533.105C499.987 542.322 491.53 595.255 490.052 606.629C488.538 618.287 487.25 629.973 485.984 641.66C485.004 629.697 482.893 617.869 480.885 606.046C479.21 594.702 475.605 567.631 467.511 560.268C462.062 555.311 452.669 557.032 445.911 557.477C457.85 539.339 475.878 538.072 495.282 533.045Z"/>
	<path fill="#FEFEFE" d="M542.106 236.675C585.064 193.198 645.006 158.645 707.533 158.331C727.269 158.232 747.734 163.009 762.104 177.403C771.317 186.631 776.507 199.056 776.421 212.09C776.286 232.487 764.44 249.807 750.369 263.605C740.335 273.444 728.959 281.481 720.289 292.689C711.912 289.712 703.538 286.575 695.034 283.979C678.865 279.044 662.143 275.028 645.747 270.871C648.765 263.876 653.071 259.288 660.264 256.474C664.151 254.953 672.173 254.786 674.674 252.367L674.567 250.723C667.956 249.45 658.318 252.775 652.824 256.498C647.248 260.277 644.434 263.94 642.278 270.299C624.566 266.731 606.406 266.364 588.408 267.012C589.613 255.45 595.469 246.898 604.382 239.626C607.177 237.346 617.074 232.388 617.991 230.164L617.945 229.079C617.048 228.439 616.339 228.263 615.222 228.572C606.11 231.097 592.212 245.711 588.201 254.421C586.322 258.502 585.557 262.497 585.499 266.993C560.646 268.311 537.458 271.189 513.713 278.876C520.273 263.447 527.882 252.509 538.957 240.042L542.106 236.675Z"/>
	<path fill="#FEFEFE" d="M781.169 534.853C790.782 539.075 801.237 541.77 811.231 544.977C827.582 550.223 843.87 555.589 860.411 560.217C865.943 581.803 867.388 605.175 867.94 627.371C868.433 647.175 868.041 667.21 865.965 686.915C865.14 694.741 863.443 702.532 862.079 710.284C857.669 735.358 852.308 759.258 841.738 782.557C839.611 787.247 837.453 792.689 833.73 796.346C824.516 805.398 765.282 809.215 750.468 809.76C720.08 810.879 689.528 809.891 659.11 810.322C649.271 810.196 629.74 806.65 621.777 808.624C618.459 809.446 615.319 811.368 612.095 812.528C609.799 813.354 607.103 813.719 604.857 812.634C601.626 808.584 600.193 796.336 599.311 790.893C606.631 790.346 636.818 792.354 640.935 788.231C643.665 785.498 643.477 781.412 643.496 777.839C682.883 767.974 721.028 753.345 758.957 739.067C768.38 735.519 786.869 729.75 794.71 724.259C793.922 714.717 790.953 704.469 789.151 695.01C782.048 657.73 767.014 586.683 774.257 551.314C775.525 545.122 777.762 540.148 781.169 534.853Z"/>
	<path fill="#FEFEFE" d="M595.268 273.235C622.593 272.51 644.412 276.686 670.68 283.771C680.113 286.314 689.662 288.809 698.903 291.979C696.214 309.539 693.336 329.162 696.088 346.757C697.35 354.828 700.214 360.56 706.874 365.479C705.849 365.79 704.858 366.117 703.87 366.534C700.673 367.884 697.213 369.915 695.997 373.38C695.457 374.917 695.434 376.119 696.2 377.579C700.738 380.172 705.827 372.562 709.786 370.422C712.583 368.909 716.421 368.443 719.554 368.001C728.228 366.778 738.215 367.782 745.289 373.394C749.25 376.537 751.614 380.878 752.162 385.897C752.913 392.784 750.686 400.249 746.273 405.559C738.459 414.963 721.763 417.645 710.485 413.287C706.638 411.801 704.816 408.265 700.265 408.759C699.167 409.477 699.164 409.42 698.821 410.679C699.057 411.877 699.311 412.783 699.969 413.826C703.278 419.076 709.409 420.019 715.035 421.225C715.05 422.314 715.055 423.403 715.031 424.492C714.734 437.883 712.598 510.893 708.879 518.63C703.744 529.312 690.04 542.154 681.385 550.377C674.545 556.2 667.149 561.233 659.296 565.588C644.9 573.572 627.579 579.961 611.135 575.114C582.803 566.763 550.897 524.98 537.06 499.215C516.541 461.007 503.293 401.319 504.052 358.027C504.383 339.143 507.342 320.792 511.188 302.363C512.328 296.901 512.029 291.552 513.641 286.194C536.124 275.379 570.543 274.047 595.268 273.235Z"/>
	<path fill="#231F20" d="M720.461 375.587C722.525 375.493 724.636 375.346 726.701 375.44C730.162 375.598 733.812 377.218 736.134 379.808C738.399 382.332 739.48 385.725 739.177 389.094C738.902 392.162 737.406 395.063 734.985 396.983C732.187 399.202 728.921 399.816 725.444 399.444C725.415 399.185 725.376 398.926 725.358 398.665C725.083 394.634 729.908 393.579 732.085 390.759C732.966 389.618 733.298 388.293 733.069 386.871C731.519 377.237 721.249 384.997 716.33 381.435C715.885 380.126 715.856 379.539 716.183 378.195C717.4 376.778 718.763 376.294 720.461 375.587Z"/>
	<path fill="#231F20" d="M566.3 346.992C567.493 346.984 568.754 346.847 569.832 347.437C570.778 347.955 571.218 349.145 571.403 350.133C571.922 352.912 570.692 357.597 570.268 360.466C567.117 381.777 559.525 399.286 547.835 417.215C552.803 416.775 570.651 413.612 573.938 414.621C575.226 415.016 575.576 415.434 576.131 416.61C575.964 417.337 575.807 417.963 575.342 418.567C573.37 421.125 570.336 421.109 567.387 421.54C561.232 422.621 539.722 426.503 534.811 423.997C534.438 422.935 534.173 422.242 534.191 421.094C534.208 419.942 535.315 419.17 536.095 418.375C542.216 412.129 547.136 406.485 551.432 398.796C558.82 385.572 562.943 366.485 564.394 351.489C564.59 349.457 564.866 348.472 566.3 346.992Z"/>
	<path fill="#231F20" d="M586.205 448.207C590.267 448.436 594.138 449.092 597.484 451.565C602.019 454.916 603.291 460.634 604.026 465.926C604.648 470.406 604.675 475.485 601.671 479.176C598.981 482.482 595.921 482.651 591.975 482.993C587.915 482.772 583.109 482.825 579.799 480.137C575.586 476.716 573.775 470.342 573.108 465.125C572.559 460.83 572.789 456.307 575.672 452.838C578.525 449.404 581.985 448.642 586.205 448.207Z"/>
	<path fill="#231F20" d="M523.08 330.57C528.747 330.151 534.041 331.094 538.482 334.905C544.772 340.305 546.158 348.401 546.861 356.184L543.658 358.927C544.517 363.41 545.101 367.409 543.011 371.666C541.019 375.722 537.124 378.37 532.926 379.762C527.587 381.533 520.609 381.956 515.523 379.291C511.362 377.11 509.471 373.924 508.024 369.592C507.717 367.678 507.474 366.085 507.772 364.16C510.639 359.903 535.085 356.847 541.086 355.511C539.906 349.846 538.191 343.062 533.467 339.298C529.331 336.002 523.449 336.363 518.907 338.686C516.252 340.043 514.712 342.13 511.584 342.488C510.434 342.075 510.535 342.342 509.906 341.159C509.804 339.564 510.154 338.308 510.968 336.94C513.207 333.182 519.141 331.703 523.08 330.57Z"/>
	<path fill="#231F20" d="M645.614 320.586C649.458 320.452 652.918 320.516 656.605 321.856C661.683 323.701 665.47 327.493 667.565 332.447C669.908 337.987 671.179 357.148 668.928 362.233C667.287 365.939 663.808 368.344 660.118 369.743C653.969 372.075 646.007 372.232 640.023 369.283C635.546 367.077 633.914 363.341 632.319 358.919C631.67 356.366 631.189 354.349 632.146 351.823C634.306 349.486 658.325 346.301 663.426 345.236C663.369 340.449 663.175 336.089 660.056 332.143C649.916 319.315 638.793 332.91 634.755 331.858C633.384 331.501 633.17 331.186 632.448 330.077C632.395 328.992 632.602 328.228 633.171 327.288C635.668 323.166 641.191 321.51 645.614 320.586Z"/>
	<path fill="#FEFEFE" d="M716.676 518.379C736.123 523.07 755.495 527.751 774.826 532.921L774.389 533.57C770.111 540.023 768.012 546.344 766.865 553.99C762.581 582.55 768.673 614.882 773.281 643.151C777.516 669.136 782.389 694.912 787.47 720.743C767.372 728.294 747.669 736.92 727.586 744.506C710.282 751.042 692.627 756.683 674.996 762.255C665.866 765.141 653.866 769.968 644.514 771.057C640.826 771.487 636.726 770.686 632.991 770.553C627.847 770.371 622.699 770.512 617.555 770.631C617.594 767.456 617.274 763.993 616.253 760.97C614.928 757.046 612.393 753.853 608.637 752.028C597.4 746.565 579.073 752.857 567.924 756.716C566.463 752.866 564.909 748.747 561.629 746.052C558.068 743.125 554.525 743.216 550.214 743.59C548.349 740.089 546.389 737.201 543.58 734.398C541.073 733.668 538.451 733.222 535.896 732.684C529.658 731.835 521.023 729.693 515.064 732.045C508.705 734.556 506.43 741.315 504.088 747.125L494.822 692.218C493.218 682.974 489.994 671.147 490.066 662.021C490.136 653.166 492.394 643.733 493.485 634.866C497.63 601.17 504.895 564.626 503.121 530.836C516.288 527.976 529.229 523.988 542.505 521.595C557.818 540.284 570.865 559.863 591.693 573.199C605.56 582.078 618.986 585.805 635.214 582.091C670.71 573.967 697.706 548.323 716.676 518.379Z"/>
	<path fill="#231F20" d="M663.073 604.294C666.013 603.984 668.806 603.376 671.54 604.807C674.287 608.715 675.615 630.569 676.241 636.678C679.742 637.023 685.425 635.985 688.491 637.423C689.606 637.946 690.36 638.522 690.659 639.786C690.984 641.158 690.552 641.753 689.885 642.851C686.463 644.981 680.835 643.75 676.902 643.589C677.076 646.678 677.405 649.771 677.668 652.854C678.938 652.936 680.311 652.987 681.509 653.439C682.727 653.897 683.412 655.131 683.904 656.242C683.793 657.055 683.882 657.494 683.313 658.141C681.841 659.817 680.018 659.687 677.956 659.745C678.694 665.298 679.114 670.939 679.671 676.516C681.19 676.434 683.435 676.086 684.889 676.512C686.501 676.984 687.467 677.776 688.208 679.301C688.058 680.296 688.152 680.539 687.469 681.351C685.683 683.477 682.892 683.301 680.352 683.478C680.765 692.749 682.617 702.002 683.322 711.261C683.4 712.284 683.542 713.883 682.773 714.636C682.003 715.39 681.228 715.676 680.186 715.802C676.625 716.234 672.856 716.147 669.258 716.352L644.034 717.87C625.976 719.021 607.971 720.825 589.925 722.127C587.36 722.445 583.551 721.883 581.603 723.842C580.996 724.452 581.257 724.965 581.289 725.76C580.532 726.806 580.219 726.78 578.973 727.199C578.116 726.995 577.526 727.011 576.87 726.37C573.198 722.779 573.153 700.897 572.773 694.665C571.524 694.722 570.036 694.882 568.836 694.468C567.122 693.876 566.31 693.102 565.576 691.473C565.678 690.61 565.598 690.135 566.152 689.415C567.631 687.495 569.667 687.472 571.9 687.216C571.448 681.356 572.024 675.009 570.401 669.333C568.911 669.389 566.993 669.549 565.593 668.936C564.594 668.498 564.022 667.537 563.845 666.489C563.602 665.042 564.005 664.497 564.747 663.368C566.548 662.214 568.495 662.033 570.564 661.685C570.487 655.17 569.889 648.612 569.397 642.117C567.939 642.186 565.727 642.506 564.375 642.042C562.729 641.476 561.973 640.584 561.309 639.033C561.603 638.109 561.58 637.89 562.313 637.169C564.252 635.263 566.754 635.471 569.268 635.425C569.083 628.373 567.675 620.914 568.22 613.932C570.646 612.563 586.511 612.446 590.518 612.069C614.738 609.793 638.826 606.357 663.073 604.294Z"/>
	<path fill="#FEFEFE" d="M595.66 640.757C620.217 640.024 645.4 641.255 669.887 643.085L670.997 652.564C661.743 652.407 652.504 652.416 643.25 652.495C620.925 652.343 598.882 655.432 577.228 660.609C576.579 654.348 576.379 648.04 576.074 641.755C582.604 641.208 589.111 640.947 595.66 640.757Z"/>
	<path fill="#FEFEFE" d="M659.556 611.295C661.962 611.028 664.413 610.956 666.829 610.803C668.19 619.103 668.593 627.818 669.394 636.2C641.831 634.89 614.356 633.545 586.75 634.402C583.025 634.446 579.348 634.695 575.635 635.002L575.459 619.773C603.506 618.216 631.631 614.339 659.556 611.295Z"/>
	<path fill="#FEFEFE" d="M631.73 659.791C644.75 658.599 658.354 659.291 671.434 659.355C671.631 665.373 672.528 671.502 673.15 677.495C654.3 677.311 632.238 680.312 613.38 682.129C601.806 683.223 589.972 684.006 578.566 686.274C578.416 679.929 577.995 673.569 577.691 667.228C595.315 662.894 613.634 660.722 631.73 659.791Z"/>
	<path fill="#FEFEFE" d="M672.317 683.753L672.799 683.689C674.52 685.451 675.541 705.276 676.051 709.477C665.014 709.935 653.965 710.83 642.928 711.401C622.878 712.439 602.405 713.371 582.524 716.264C581.737 716.276 582.217 716.318 581.113 715.959C579.662 712.636 579.388 697.528 579.044 693.169C610.096 688.867 641.156 686.797 672.317 683.753Z"/>
</svg>
