<svg width="161" height="66" viewBox="0 0 161 66" fill="none" xmlns="http://www.w3.org/2000/svg">
<path d="M45.7491 16.0258V10.7314C45.7491 9.71151 45.5748 8.61505 45.2229 7.44548C44.8709 6.27592 44.2959 5.18642 43.4979 4.17697C42.6998 3.16753 41.6614 2.32865 40.3859 1.65684C39.107 0.988522 37.5458 0.654365 35.6918 0.654365H4.18182C3.58591 0.654365 3.03181 0.758786 2.52303 0.971117C2.01075 1.18693 1.56818 1.4828 1.19879 1.8657C0.82591 2.24859 0.533181 2.69414 0.320605 3.20582C0.10803 3.71402 0 4.25703 0 4.83137V46.3822H8.30091V8.94573H35.6918C35.8626 8.94573 36.0508 8.95617 36.2529 8.97705C36.455 8.99794 36.6467 9.06756 36.8244 9.1859C37.0056 9.30077 37.1555 9.48178 37.2739 9.72544C37.3889 9.9691 37.4482 10.3276 37.4482 10.7941V16.0258C37.4482 17.1083 37.2774 18.069 36.9394 18.9114C36.5979 19.7503 36.1135 20.4673 35.4862 21.0625C34.8589 21.6578 34.1132 22.1312 33.2489 22.4827C32.3882 22.8308 31.4368 23.0501 30.3914 23.1371H11.622V31.425H17.5915L34.8938 46.3822H47.7285L30.3914 31.425C31.4159 31.425 32.5067 31.3101 33.6636 31.0769C34.8241 30.8402 35.9741 30.4643 37.1136 29.9422C38.2532 29.4235 39.3439 28.7587 40.3859 27.9511C41.4279 27.1436 42.3479 26.1689 43.1459 25.0342C43.9439 23.8959 44.5782 22.5837 45.0452 21.0939C45.5156 19.6075 45.7491 17.9159 45.7491 16.0258ZM107.365 46.3822V4.19438C107.365 3.23715 107.079 2.38782 106.504 1.64292C105.929 0.898022 105.194 0.400263 104.302 0.142681C103.364 -0.0905356 102.465 -0.038326 101.601 0.302796C100.74 0.643919 100.064 1.21826 99.5761 2.02581L80.6742 34.8397L61.7759 2.02581C61.5424 1.62204 61.2532 1.27743 60.9152 0.988523C60.5736 0.703094 60.1938 0.48032 59.7791 0.320202C59.3644 0.160083 58.9358 0.0626189 58.4862 0.0312913C58.0401 -3.62881e-05 57.5941 0.0382555 57.148 0.142681C56.2315 0.400263 55.4927 0.898022 54.9282 1.64292C54.3636 2.38782 54.0814 3.23715 54.0814 4.19438V46.3822H62.3823V19.1481L77.165 45.0107C77.5239 45.6686 78.0188 46.1698 78.6495 46.511C79.2768 46.8486 79.9529 47.0192 80.6742 47.0192C81.42 47.0192 82.117 46.8486 82.7652 46.511C83.4168 46.1698 83.9221 45.6686 84.2845 45.0107L99.0011 19.1481V46.3822H107.365ZM161 32.9252C161 31.2892 160.798 29.8203 160.394 28.5255C159.989 27.2271 159.439 26.0784 158.749 25.0794C158.055 24.0804 157.264 23.2241 156.369 22.514C155.477 21.8005 154.536 21.2122 153.546 20.7423C152.556 20.2759 151.56 19.9313 150.559 19.7085C149.559 19.4857 148.611 19.3604 147.719 19.3395H128.563C126.988 19.3395 125.758 18.8766 124.876 17.9541C123.991 17.0282 123.552 15.7682 123.552 14.174C123.552 12.6006 123.991 11.3371 124.876 10.3798C125.758 9.4226 126.988 8.94573 128.563 8.94573H156.818V0.654365H128.563C127.221 0.654365 125.775 0.894542 124.221 1.37142C122.667 1.84829 121.227 2.62452 119.896 3.7001C118.565 4.7722 117.46 6.16453 116.575 7.87711C115.693 9.58968 115.251 11.6886 115.251 14.174C115.251 16.6628 115.693 18.7652 116.575 20.4882C117.46 22.2112 118.565 23.6035 119.896 24.6652C121.227 25.7303 122.667 26.4996 124.221 26.9765C125.775 27.4568 127.221 27.697 128.563 27.697H147.653C148.42 27.697 149.117 27.8223 149.744 28.0764C150.375 28.334 150.904 28.696 151.343 29.1625C151.779 29.6289 152.114 30.1823 152.347 30.8193C152.581 31.4598 152.699 32.1595 152.699 32.9252C152.699 34.4986 152.257 35.7517 151.375 36.688C150.49 37.6244 149.253 38.0908 147.653 38.0908H115.634V46.3822H147.653C148.549 46.3822 149.5 46.2743 150.511 46.0619C151.521 45.8496 152.518 45.5224 153.497 45.0734C154.476 44.6278 155.424 44.0535 156.337 43.3538C157.254 42.6507 158.052 41.8014 158.731 40.8024C159.414 39.8034 159.962 38.6477 160.376 37.3424C160.791 36.0336 161 34.5612 161 32.9252Z" fill="white"/>
<path d="M7.6597 54.5615H4.51288L0.36591 58.2756C0.25091 58.3765 0.163787 58.4984 0.0975753 58.6376C0.0313632 58.7803 0 58.93 0 59.0866C0 59.4312 0.125453 59.7097 0.379847 59.9186L4.47803 63.5108H7.6597L2.60318 59.0866L7.6597 54.5615ZM12.0297 65.1816V53.03H9.82379V65.1816H12.0297ZM26.7671 64.2418V53.03H24.5612V61.5894L16.5008 53.1901C16.3439 53.0265 16.1523 52.9221 15.9327 52.8803C15.7132 52.8385 15.4971 52.8594 15.288 52.943C15.0894 53.0335 14.9291 53.1727 14.8002 53.3537C14.6747 53.5382 14.6085 53.7435 14.6085 53.9698V65.1816H16.8144V56.6222L24.8748 65.0284C24.9829 65.1433 25.1048 65.2234 25.2442 65.2756C25.3836 65.3243 25.5195 65.3521 25.6555 65.3521C25.8088 65.3521 25.9552 65.3243 26.0876 65.2651C26.2235 65.2094 26.342 65.1329 26.443 65.0319C26.5406 64.9344 26.6208 64.8161 26.68 64.6804C26.7392 64.5446 26.7671 64.3984 26.7671 64.2418ZM40.3267 55.2333V53.03H28.3876V55.2333H33.2594V65.1816H35.4653V55.2333H40.3267ZM51.9486 60.2144V57.9937H44.9824V60.2144H51.9486ZM52.9418 65.1816V62.9782H44.9999C44.7071 62.9782 44.4841 62.9016 44.3308 62.7485C44.1774 62.5953 44.1008 62.376 44.1008 62.0871V55.2333H52.9418V53.03H43.0065C42.8497 53.03 42.7033 53.0578 42.5674 53.1135C42.4315 53.1692 42.313 53.2493 42.2155 53.3502C42.1144 53.4512 42.0377 53.573 41.982 53.7053C41.9227 53.841 41.8948 53.9872 41.8948 54.1404V62.0871C41.8948 62.658 41.9994 63.1418 42.205 63.5317C42.4106 63.925 42.6685 64.2452 42.9786 64.4924C43.2853 64.736 43.6198 64.9136 43.9823 65.0215C44.3447 65.1294 44.6792 65.1816 44.9824 65.1816H52.9418ZM66.247 65.1816V62.9782H57.277V53.03H55.0711V64.0712C55.0711 64.2313 55.0989 64.3775 55.1582 64.5133C55.2139 64.649 55.2906 64.7639 55.3917 64.8648C55.4892 64.9623 55.6077 65.0389 55.7436 65.0981C55.8795 65.1537 56.0259 65.1816 56.1827 65.1816H66.247ZM79.0398 65.1816V62.9782H70.0733V53.03H67.8674V64.0712C67.8674 64.2313 67.8953 64.3775 67.9511 64.5133C68.0068 64.649 68.087 64.7639 68.1845 64.8648C68.2821 64.9623 68.4006 65.0389 68.5365 65.0981C68.6724 65.1537 68.8188 65.1816 68.9791 65.1816H79.0398ZM82.8836 65.1816V53.03H80.6777V65.1816H82.8836ZM97.4677 64.0712V59.104C97.4677 58.9544 97.4398 58.8117 97.3841 58.6759C97.3283 58.5436 97.2482 58.4288 97.1506 58.3243C97.053 58.2234 96.9345 58.1433 96.7986 58.0842C96.6627 58.025 96.5164 57.9937 96.3561 57.9937H89.3933V60.2144H95.2618V62.9782H88.4001C88.1179 62.9782 87.8983 62.9016 87.7415 62.745C87.5847 62.5884 87.508 62.3726 87.508 62.0871V56.1384C87.508 55.839 87.5847 55.6128 87.738 55.4596C87.8914 55.3099 88.1109 55.2333 88.4001 55.2333H97.3667V53.03H88.4001C88.0203 53.03 87.6823 53.0752 87.3826 53.1727C87.0794 53.2701 86.818 53.3989 86.588 53.5591C86.358 53.7192 86.1629 53.9037 85.9991 54.1125C85.8353 54.3214 85.6994 54.5407 85.5983 54.7704C85.4973 55.0001 85.4241 55.2299 85.3753 55.4666C85.3265 55.6998 85.3021 55.9191 85.3021 56.121V62.0871C85.3021 62.4665 85.3509 62.8077 85.445 63.1105C85.5426 63.4133 85.6715 63.6779 85.8318 63.9076C85.9921 64.1339 86.1803 64.3288 86.3894 64.4924C86.5985 64.6525 86.818 64.7848 87.0445 64.8857C87.2745 64.9867 87.508 65.0632 87.7415 65.1085C87.975 65.1572 88.1945 65.1816 88.4001 65.1816H96.3561C96.5164 65.1816 96.6627 65.1537 96.7986 65.0981C96.9345 65.0389 97.053 64.9623 97.1506 64.8648C97.2482 64.7639 97.3283 64.649 97.3841 64.5133C97.4398 64.3775 97.4677 64.2313 97.4677 64.0712ZM109.773 60.2144V57.9937H102.807V60.2144H109.773ZM110.762 65.1816V62.9782H102.824C102.528 62.9782 102.305 62.9016 102.151 62.7485C101.998 62.5953 101.925 62.376 101.925 62.0871V55.2333H110.762V53.03H100.827C100.67 53.03 100.524 53.0578 100.388 53.1135C100.252 53.1692 100.134 53.2493 100.036 53.3502C99.935 53.4512 99.8583 53.573 99.8026 53.7053C99.7468 53.841 99.7189 53.9872 99.7189 54.1404V62.0871C99.7189 62.658 99.82 63.1418 100.026 63.5317C100.235 63.925 100.489 64.2452 100.799 64.4924C101.106 64.736 101.444 64.9136 101.803 65.0215C102.165 65.1294 102.5 65.1816 102.807 65.1816H110.762ZM125.05 64.2418V53.03H122.844V61.5894L114.784 53.1901C114.627 53.0265 114.439 52.9221 114.216 52.8803C113.996 52.8385 113.78 52.8594 113.571 52.943C113.376 53.0335 113.212 53.1727 113.083 53.3537C112.958 53.5382 112.895 53.7435 112.895 53.9698V65.1816H115.101V56.6222L123.162 65.0284C123.266 65.1433 123.392 65.2234 123.527 65.2756C123.667 65.3243 123.806 65.3521 123.942 65.3521C124.092 65.3521 124.238 65.3243 124.374 65.2651C124.51 65.2094 124.625 65.1329 124.726 65.0319C124.824 64.9344 124.904 64.8161 124.963 64.6804C125.022 64.5446 125.05 64.3984 125.05 64.2418ZM138.61 55.2333V53.03H126.671V55.2333H131.543V65.1816H133.748V55.2333H138.61ZM151.922 61.6068C151.922 61.1717 151.87 60.7818 151.762 60.4372C151.654 60.0926 151.507 59.7863 151.323 59.5217C151.141 59.2537 150.929 59.0275 150.692 58.8395C150.455 58.6481 150.204 58.4914 149.943 58.3696C149.678 58.2443 149.413 58.1503 149.148 58.0911C148.883 58.0319 148.629 58.0006 148.392 57.9937H143.3C142.882 57.9937 142.558 57.8718 142.321 57.6247C142.088 57.381 141.969 57.0469 141.969 56.6222C141.969 56.2045 142.088 55.8669 142.321 55.6128C142.558 55.3587 142.882 55.2333 143.3 55.2333H150.81V53.03H143.3C142.945 53.03 142.562 53.0926 142.147 53.2179C141.736 53.3467 141.352 53.5521 140.997 53.8375C140.645 54.123 140.352 54.4919 140.115 54.9479C139.882 55.4039 139.763 55.9608 139.763 56.6222C139.763 57.2836 139.882 57.844 140.115 58.3C140.352 58.7594 140.645 59.1284 140.997 59.4104C141.352 59.6923 141.736 59.8977 142.147 60.0265C142.562 60.1518 142.945 60.2144 143.3 60.2144H148.374C148.58 60.2144 148.765 60.2492 148.932 60.3189C149.099 60.385 149.239 60.4825 149.357 60.6043C149.472 60.7296 149.559 60.8758 149.622 61.0464C149.685 61.2169 149.716 61.4014 149.716 61.6068C149.716 62.0245 149.598 62.3551 149.364 62.6058C149.131 62.8529 148.8 62.9782 148.374 62.9782H139.864V65.1816H148.374C148.615 65.1816 148.866 65.1537 149.134 65.0981C149.402 65.0389 149.667 64.9519 149.929 64.8335C150.19 64.7152 150.441 64.562 150.685 64.3775C150.925 64.1896 151.138 63.9633 151.319 63.6988C151.5 63.4342 151.647 63.1279 151.758 62.7798C151.866 62.4317 151.922 62.0419 151.922 61.6068ZM156.477 54.5615H153.34L158.397 59.0866L153.34 63.5108H156.512L160.62 59.9186C160.739 59.8176 160.829 59.6958 160.899 59.5496C160.965 59.4069 161 59.2537 161 59.0866C161 58.93 160.969 58.7803 160.902 58.6376C160.836 58.4984 160.749 58.3765 160.634 58.2756L156.477 54.5615Z" fill="white"/>
</svg>
