<?xml version="1.0" encoding="utf-8" ?>
<svg xmlns="http://www.w3.org/2000/svg" xmlns:xlink="http://www.w3.org/1999/xlink" width="1024" height="1024">
	<path fill="white" d="M0 0L1024 0L1024 1024L0 1024L0 0Z"/>
	<path d="M406.431 162.316C399.683 159.782 394.585 155.223 391.509 148.62C386.958 138.849 389.225 129.838 392.893 120.338C396.741 110.371 400.1 99.8176 404.641 90.1873C416.88 64.234 438.478 42.1037 464.767 30.3751C487.442 20.2589 514.88 19.8395 538.016 28.7422C552.273 34.2281 566.621 44.4616 573.257 58.6519C588.291 57.9634 600.408 60.342 611.823 70.8848C627.329 85.2071 634.439 106.87 635.148 127.537C635.495 137.645 634.046 147.628 633.675 157.703C633.027 175.294 638.912 191.089 651.74 203.254C654.182 205.57 659.714 208.624 660.272 211.901C659.243 217.33 653.67 222.846 649.237 225.924C644.77 229.026 640.321 229.891 634.999 230.156C634.92 230.343 634.839 230.529 634.762 230.716C632.153 237.075 633.031 244.27 632.757 251.002C632.283 262.628 626.287 272.679 615.29 277.271C611.374 278.906 607.536 279.613 603.327 279.954C603.031 298.657 603.108 317.372 603.048 336.078C631.526 343.175 659.277 352.997 687.169 362.052L729.376 376.012C743.012 380.674 756.222 384.585 768.453 392.522C785.045 403.289 798.044 419.163 808.15 435.997C820.097 455.9 828.659 477.107 836.428 498.907C857.961 559.331 870.141 622.565 879.765 685.827C883.251 708.739 890.212 726.613 884.287 750.487C878.486 773.862 861.815 792.014 841.524 804.174C829.005 811.675 813.372 814.637 799.625 819.85C798.215 830.768 796.365 841.63 794.615 852.497C806.043 859.02 811.026 870.286 814.428 882.562C821.022 906.351 817.047 932.1 804.825 953.416C792.849 974.304 772.693 989.68 749.468 995.929C731.9 1000.66 712.247 998.86 694.144 998.813L643.226 998.792L458.357 998.63L454.692 998.6C397.549 999.332 340.352 998.758 283.203 998.84L231.692 998.893C219.092 998.89 205.746 999.784 193.37 997.293C180.527 994.709 168.971 987.996 159.616 978.915C145.539 965.25 138.268 945.98 138.035 926.469C137.775 904.738 146.807 884.466 162.038 869.156C172.714 858.425 185.328 851.15 199.741 846.675L161.964 687.361L148.117 628.339C145.91 619.14 142.438 609.26 141.178 599.941C140.653 596.057 141.18 592.2 143.191 588.783C145.336 585.138 149.461 582.503 153.518 581.521C160.714 579.779 172.983 581.028 180.732 581.03L245.175 580.932C257.298 530.024 274.119 454.836 305.333 412.978C313.115 402.543 322.716 393.435 333.81 386.599C347.791 377.984 364.724 373.456 380.127 367.884C410.477 356.905 441.038 345.501 472.238 337.193C472.303 334.922 472.409 332.644 472.42 330.372C446.478 318.598 429.212 293.841 419.442 267.749C406.967 234.432 407.763 197.386 406.431 162.316Z"/>
	<path fill="#575657" d="M475.987 881.95L479.746 881.948C475.098 905.28 471.145 928.763 466.737 952.143C463.853 967.434 459.856 983.149 458.357 998.63L454.692 998.6C455.224 993.019 456.517 987.376 457.522 981.857L462.912 952.522C467.289 929.017 471.183 905.367 475.987 881.95Z"/>
	<path fill="white" d="M670.236 839.898C677.35 840.716 684.593 840.54 691.748 840.756L730.134 842.043C723.911 845.752 717.629 849.321 711.288 852.822C699.494 859.146 688.223 866.607 676.072 872.237C675.034 861.343 672.199 850.655 670.236 839.898Z"/>
	<path fill="white" d="M582.908 270.339C586.936 274.488 590.407 276.883 595.867 278.823C595.648 292.088 595.943 305.376 595.987 318.643C596.017 328.041 596.615 337.957 594.564 347.173C593.085 353.818 590.084 360.245 586.241 365.845C577.29 378.89 563.169 387.996 547.601 390.819C530.615 393.899 514.453 390.242 500.306 380.437C497.68 378.529 495.232 376.306 492.972 373.978C479.864 360.477 478.886 350.429 479.038 332.555C496.641 337.4 512.391 337.323 529.507 330.411C556.971 319.32 571.873 296.489 582.908 270.339Z"/>
	<path fill="white" d="M869.853 691.178C871.115 691.049 871.676 690.725 872.766 691.473C875.506 700.858 877.438 711.495 878.413 721.245C880.437 741.493 875.204 761.286 862.067 777.013C854.107 786.544 843.448 794.69 832.342 800.203C824.826 803.935 816.9 805.394 808.992 807.957C777.201 818.263 745.171 824.599 711.952 828.212C697.521 829.782 683.008 830.663 668.55 831.967L666.476 822.609C665.055 814.422 663.043 806.239 661.33 798.102L650.271 745.185C684.56 735.016 729.432 720.206 754.128 693.309C765.494 693.943 776.778 695.47 788.187 695.979C815.553 697.2 842.815 695.368 869.853 691.178Z"/>
	<path fill="white" d="M531.64 121.602C538.155 121.292 544.718 121.409 550.198 125.503C561.515 133.957 566.848 179.092 574.32 183.68C575.26 184.257 576.566 184.698 577.666 184.257C582.386 182.365 585.204 169.517 598.333 167.689C602.97 167.043 607.427 168.99 610.989 171.843C617.887 177.368 621.138 185.497 622.086 194.092C623.288 204.991 620.379 217.564 613.426 226.191C606.543 234.73 600.629 236.056 590.256 237.158C589.02 237.289 586.817 237.338 585.854 238.179C584.551 239.317 580.752 255.058 579.806 258C574.972 273.033 567.825 287.683 557.808 299.958C545.434 315.121 527.712 326.524 507.997 328.502C504.655 328.941 501.27 329.051 497.905 328.889C478.401 327.946 461.671 318.02 448.875 303.687C442.795 296.877 438.042 289.361 433.748 281.34C418.992 253.777 416.375 226.68 415.009 196.101C414.531 185.405 413.591 174.35 414.218 163.669C425.062 157.67 430.298 144.591 436.592 134.392C437.776 132.474 441.766 125.874 443.954 125.435C446.618 124.9 460.04 133.19 463.922 134.701C468.945 136.657 474.265 138.2 479.657 138.605C494.096 139.687 507.884 136.32 520.092 128.473C524.116 125.887 526.811 122.757 531.64 121.602Z"/>
	<path d="M519.296 196.157C520.531 196.211 522.161 196.154 523.294 196.694C525.268 197.634 526.815 199.389 527.48 201.479C528.172 203.651 527.861 205.915 526.825 207.925C525.564 210.37 523.359 211.293 520.86 212.057C519.75 211.986 518.723 211.836 517.693 211.404C515.814 210.615 514.289 208.844 513.534 206.978C512.678 204.864 512.777 202.421 513.75 200.364C514.884 197.966 516.917 196.998 519.296 196.157Z"/>
	<path d="M449.195 196.534C450.255 196.712 451.289 196.885 452.283 197.312C454.305 198.181 456.036 199.985 456.743 202.076C457.44 204.135 457.216 206.344 456.205 208.261C454.768 210.989 452.591 211.805 449.774 212.633C448.731 212.529 447.881 212.378 446.918 211.942C444.861 211.009 443.176 209.427 442.464 207.246C441.758 205.082 442.008 202.808 443.072 200.801C444.452 198.197 446.465 197.27 449.195 196.534Z"/>
	<path d="M444.671 167.616C450.562 167.205 457.89 168.401 463.129 171.272C464.471 172.008 465.124 172.652 465.515 174.125C465.18 175.315 464.35 176.16 463.302 176.798C460.466 178.525 452.32 174.929 448.818 174.288C440.893 174.49 436.413 179.412 431.586 179.284C430.351 178.64 430.357 178.633 429.801 177.354C429.889 176.099 430.092 175.243 430.81 174.216C433.73 170.037 439.935 168.525 444.671 167.616Z"/>
	<path d="M520.608 167.614C525.461 167.238 529.979 167.462 534.626 169.007C537.876 170.087 542.412 172.069 543.79 175.475C544.297 176.726 544.143 177.357 543.688 178.574C543.169 178.959 542.722 179.237 542.072 179.353C538.906 179.918 536.49 177.923 533.975 176.316C523.026 171.443 514.688 178.466 509.081 176.473C508.869 176.048 508.387 175.242 508.323 174.737C508.217 173.909 508.279 173.181 508.721 172.472C510.847 169.067 517.014 168.388 520.608 167.614Z"/>
	<path d="M458.915 261.764C465.288 262.247 469.434 275.478 483.757 277.114C491.007 277.942 500.19 275.806 505.601 270.673C508.164 268.241 510.279 265.151 513.133 263.055C514.47 262.072 515.291 261.816 516.918 262.063C517.593 262.735 517.937 263.243 518.166 264.16C518.689 266.256 518.19 267.489 517.126 269.245C510.425 277.152 502.443 282.626 491.999 284.116C482.054 285.535 472.848 282.542 464.939 276.513C461.742 274.076 457.338 270.235 456.964 265.999C456.8 264.133 457.78 263.064 458.915 261.764Z"/>
	<path d="M480.816 199.535C481.741 199.469 482.85 199.299 483.765 199.414C485.232 199.6 485.435 200.023 486.321 201.09C487.159 204.893 477.167 236.574 475.213 242.425C480.564 242.431 485.937 242.359 491.286 242.524C493.781 242.601 498.062 242.671 499.718 244.735C500.13 245.248 500.227 245.764 500.055 246.412C499.669 247.868 498.636 248.702 497.534 249.616C492.199 250.081 474.093 250.985 469.83 248.372C469.088 247.917 468.818 246.973 468.658 246.151C468.303 244.331 468.515 242.231 468.824 240.42C469.91 234.063 478.031 204.061 480.816 199.535Z"/>
	<path fill="white" d="M475.987 881.95L306.476 881.985L252.748 882.051C242.88 882.087 232.784 882.613 222.95 882.001C220.322 881.838 218.205 881.888 216.244 879.86C214.882 878.451 214.025 876.659 213.499 874.787C212.053 869.641 211.353 864.154 210.181 858.92L201.457 821.098L160.156 645.851L152.149 612.62C150.962 607.748 148.543 601.163 148.604 596.248C148.631 594.08 150.033 592.026 151.625 590.664C152.723 589.724 153.865 589.072 155.292 588.792C161.829 587.509 178.39 588.509 185.772 588.524L477.361 587.934L557.955 587.909C570.19 587.893 586.732 586.913 598.324 588.185C602.572 588.652 605.345 589.919 607.999 593.426C609.911 595.953 610.696 600.129 611.428 603.171C618.1 630.935 623.793 659.012 629.675 686.95L645.443 760.401L659.693 827.131C662.58 840.502 665.938 854.026 668.183 867.501C668.544 869.669 668.645 871.929 668.281 874.103C667.795 877.009 665.885 878.783 663.532 880.383C661.642 881.669 658.999 881.682 656.778 881.793C637.996 882.736 618.8 881.889 599.975 881.935L479.746 881.948L475.987 881.95Z"/>
	<path d="M407.322 708.667C414.056 708.426 420.937 710.17 426.612 713.832C433.952 718.569 438.939 726.192 440.689 734.719C442.369 742.912 440.658 751.307 436.058 758.271C430.604 766.528 422.885 770.6 413.41 772.567C405.046 773.079 397.339 771.599 390.475 766.575C383.463 761.442 379.055 753.476 377.854 744.916C376.676 736.514 378.783 727.931 383.924 721.159C389.768 713.462 397.957 709.9 407.322 708.667Z"/>
</svg>
